<svg xmlns="http://www.w3.org/2000/svg" viewBox="0 0 74.74 63.19"><defs><style>.cls-1{fill:none;stroke:#102f3a;stroke-linecap:round;stroke-linejoin:round;}.cls-2{fill:#ffd3ae;}</style></defs><g id="Layer_2" data-name="Layer 2"><g id="Layer_1-2" data-name="Layer 1"><polygon class="cls-1" points="40.39 62.69 68.17 62.69 68.17 0.5 40.39 11.86 40.39 62.69"/><polygon class="cls-2" points="12.61 11.86 12.61 57.51 40.39 57.51 40.39 0.5 12.61 11.86"/><polygon class="cls-1" points="12.61 62.69 40.39 62.69 40.39 0.5 12.61 11.86 12.61 62.69"/><rect class="cls-1" x="12.61" y="57.51" width="27.78" height="5.18"/><rect class="cls-1" x="56.87" y="52.86" width="5.09" height="9.83"/><rect class="cls-2" x="61.96" y="52.86" width="6.21" height="9.83"/><rect class="cls-1" x="61.96" y="52.86" width="6.21" height="9.83"/><rect class="cls-2" x="51.79" y="52.86" width="5.08" height="9.83"/><rect class="cls-1" x="51.79" y="52.86" width="5.08" height="9.83"/><rect class="cls-1" x="46.7" y="52.86" width="5.09" height="9.83"/><rect class="cls-2" x="40.39" y="52.86" width="6.31" height="9.83"/><rect class="cls-1" x="40.39" y="52.86" width="6.31" height="9.83"/><line class="cls-1" x1="12.61" y1="62.69" x2="0.64" y2="62.69"/><line class="cls-1" x1="68.17" y1="62.69" x2="74.24" y2="62.69"/><line class="cls-1" x1="54.28" y1="6.18" x2="54.28" y2="52.86"/><line class="cls-1" x1="64.55" y1="20.53" x2="60.55" y2="20.53"/><line class="cls-1" x1="54.28" y1="13.33" x2="50.29" y2="13.33"/><line class="cls-1" x1="44.38" y1="17.38" x2="40.39" y2="17.38"/><line class="cls-1" x1="44.38" y1="25.94" x2="40.39" y2="25.94"/><line class="cls-1" x1="44.38" y1="34.51" x2="40.39" y2="34.51"/><line class="cls-1" x1="44.38" y1="43.08" x2="40.39" y2="43.08"/><line class="cls-1" x1="54.28" y1="22.21" x2="50.29" y2="22.21"/><line class="cls-1" x1="54.28" y1="31.1" x2="50.29" y2="31.1"/><line class="cls-1" x1="54.28" y1="39.98" x2="50.29" y2="39.98"/><line class="cls-1" x1="54.28" y1="48.87" x2="50.29" y2="48.87"/><line class="cls-1" x1="64.55" y1="25.94" x2="60.55" y2="25.94"/><line class="cls-1" x1="64.55" y1="31.36" x2="60.55" y2="31.36"/><line class="cls-1" x1="64.55" y1="36.77" x2="60.55" y2="36.77"/><line class="cls-1" x1="64.55" y1="42.19" x2="60.55" y2="42.19"/><line class="cls-1" x1="64.55" y1="47.6" x2="60.55" y2="47.6"/><line class="cls-1" x1="34.79" y1="20.53" x2="30.79" y2="20.53"/><line class="cls-1" x1="34.79" y1="25.94" x2="30.79" y2="25.94"/><line class="cls-1" x1="34.79" y1="31.36" x2="30.79" y2="31.36"/><line class="cls-1" x1="34.79" y1="36.77" x2="30.79" y2="36.77"/><line class="cls-1" x1="34.79" y1="42.19" x2="30.79" y2="42.19"/><line class="cls-1" x1="34.79" y1="47.6" x2="30.79" y2="47.6"/><line class="cls-1" x1="22.42" y1="20.53" x2="18.42" y2="20.53"/><line class="cls-1" x1="22.42" y1="25.94" x2="18.42" y2="25.94"/><line class="cls-1" x1="22.42" y1="31.36" x2="18.42" y2="31.36"/><line class="cls-1" x1="22.42" y1="36.77" x2="18.42" y2="36.77"/><line class="cls-1" x1="22.42" y1="42.19" x2="18.42" y2="42.19"/><line class="cls-1" x1="22.42" y1="47.6" x2="18.42" y2="47.6"/><path class="cls-2" d="M2.19,47.09a3.41,3.41,0,1,1,5.69,0,4.54,4.54,0,1,1-5.69,0Z"/><path class="cls-1" d="M2.19,47.09a3.41,3.41,0,1,1,5.69,0,4.54,4.54,0,1,1-5.69,0Z"/><line class="cls-1" x1="5.03" y1="55.15" x2="5.03" y2="62.69"/></g></g></svg>