<svg xmlns="http://www.w3.org/2000/svg" viewBox="0 0 67.94 63.19"><defs><style>.cls-1{fill:#ffd3ae;}.cls-2{fill:none;stroke:#102f3a;stroke-linecap:round;stroke-linejoin:round;}.cls-3{fill:#fff;}</style></defs><g id="Layer_2" data-name="Layer 2"><g id="Layer_1-2" data-name="Layer 1"><polygon class="cls-1" points="64.27 27.69 5.94 27.69 12.32 6.6 57.89 6.6 64.27 27.69"/><polygon class="cls-2" points="64.27 27.69 5.94 27.69 12.32 6.6 57.89 6.6 64.27 27.69"/><rect class="cls-2" x="18.79" y="0.5" width="9.45" height="6.1"/><rect class="cls-3" x="30.38" y="12.75" width="4.73" height="4.23"/><rect class="cls-3" x="35.1" y="12.75" width="4.73" height="4.23"/><rect class="cls-3" x="30.38" y="16.98" width="4.73" height="4.23"/><rect class="cls-3" x="35.1" y="16.98" width="4.73" height="4.23"/><rect class="cls-2" x="30.38" y="12.75" width="4.73" height="4.23"/><rect class="cls-2" x="35.1" y="12.75" width="4.73" height="4.23"/><rect class="cls-2" x="30.38" y="16.98" width="4.73" height="4.23"/><rect class="cls-2" x="35.1" y="16.98" width="4.73" height="4.23"/><rect class="cls-2" x="10.57" y="27.69" width="49.08" height="30.51"/><rect class="cls-2" x="0.5" y="58.2" width="66.94" height="4.49"/><polygon class="cls-1" points="39.83 37.86 39.83 43.85 37.47 43.85 37.47 58.2 16.57 58.2 16.57 37.86 39.83 37.86"/><polygon class="cls-2" points="39.83 37.86 39.83 43.85 37.47 43.85 37.47 58.2 16.57 58.2 16.57 37.86 39.83 37.86"/><line class="cls-2" x1="39.83" y1="58.21" x2="37.47" y2="58.21"/><rect class="cls-2" x="37.47" y="43.85" width="16.02" height="14.36"/><polygon class="cls-3" points="31.65 45.73 28.04 42.95 24.44 45.73 24.44 37.86 31.65 37.86 31.65 45.73"/><polygon class="cls-2" points="31.65 45.73 28.04 42.95 24.44 45.73 24.44 37.86 31.65 37.86 31.65 45.73"/><polygon class="cls-2" points="47.95 50.44 45.38 48.46 42.81 50.44 42.81 43.85 47.95 43.85 47.95 50.44"/></g></g></svg>