<svg xmlns="http://www.w3.org/2000/svg" viewBox="0 0 69.17 52.09"><defs><style>.cls-1{fill:#ffd3ae;}.cls-2{fill:none;stroke:#102f3a;stroke-linecap:round;stroke-linejoin:round;}.cls-3{fill:#fff;}</style></defs><g id="Layer_2" data-name="Layer 2"><g id="Layer_1-2" data-name="Layer 1"><rect class="cls-1" x="19.05" y="0.5" width="31.06" height="21.12"/><rect class="cls-1" x="3.65" y="21.62" width="30.93" height="21.12"/><rect class="cls-1" x="34.65" y="21.62" width="30.93" height="21.12"/><rect class="cls-2" x="19.05" y="0.5" width="31.06" height="21.12"/><rect class="cls-3" x="31.99" y="0.5" width="5.19" height="8.33"/><rect class="cls-3" x="16.46" y="21.62" width="5.19" height="8.33"/><rect class="cls-3" x="47.52" y="21.62" width="5.19" height="8.33"/><rect class="cls-2" x="31.99" y="0.5" width="5.19" height="8.33"/><rect class="cls-2" x="16.46" y="21.62" width="5.19" height="8.33"/><rect class="cls-2" x="47.52" y="21.62" width="5.19" height="8.33"/><rect class="cls-2" x="3.65" y="21.62" width="30.93" height="21.12"/><rect class="cls-2" x="34.65" y="21.62" width="30.93" height="21.12"/><rect class="cls-2" x="0.5" y="42.74" width="68.17" height="4.81"/><path class="cls-1" d="M3.65,47.54h8.9a0,0,0,0,1,0,0V48.9a2.7,2.7,0,0,1-2.7,2.7H6.35a2.7,2.7,0,0,1-2.7-2.7V47.54A0,0,0,0,1,3.65,47.54Z"/><path class="cls-1" d="M30.2,47.54h8.9a0,0,0,0,1,0,0V48.9a2.7,2.7,0,0,1-2.7,2.7H32.89a2.7,2.7,0,0,1-2.7-2.7V47.54A0,0,0,0,1,30.2,47.54Z"/><path class="cls-1" d="M56.74,47.54h8.9a0,0,0,0,1,0,0V48.9a2.7,2.7,0,0,1-2.7,2.7H59.44a2.7,2.7,0,0,1-2.7-2.7V47.54A0,0,0,0,1,56.74,47.54Z"/><path class="cls-2" d="M3.65,47.54h8.9a0,0,0,0,1,0,0V48.9a2.7,2.7,0,0,1-2.7,2.7H6.35a2.7,2.7,0,0,1-2.7-2.7V47.54A0,0,0,0,1,3.65,47.54Z"/><path class="cls-2" d="M30.2,47.54h8.9a0,0,0,0,1,0,0V48.9a2.7,2.7,0,0,1-2.7,2.7H32.89a2.7,2.7,0,0,1-2.7-2.7V47.54A0,0,0,0,1,30.2,47.54Z"/><path class="cls-2" d="M56.74,47.54h8.9a0,0,0,0,1,0,0V48.9a2.7,2.7,0,0,1-2.7,2.7H59.44a2.7,2.7,0,0,1-2.7-2.7V47.54A0,0,0,0,1,56.74,47.54Z"/></g></g></svg>