<svg xmlns="http://www.w3.org/2000/svg" viewBox="0 0 63.78 44.81"><defs><style>.cls-1{fill:#ffd3ae;}.cls-2{fill:none;stroke:#102f3a;stroke-linecap:round;stroke-linejoin:round;}.cls-3{fill:#102f3a;}</style></defs><g id="Layer_2" data-name="Layer 2"><g id="Layer_1-2" data-name="Layer 1"><path class="cls-1" d="M41.72,5V39H20.39A5.34,5.34,0,0,0,9.72,39H1.1V5Z"/><path class="cls-2" d="M41.72,5V39H20.39A5.34,5.34,0,0,0,9.72,39H1.1V5Z"/><path class="cls-1" d="M20.39,39a5.34,5.34,0,1,1-5.33-5.32A5.34,5.34,0,0,1,20.39,39Z"/><path class="cls-1" d="M57,39a5.34,5.34,0,1,1-5.34-5.32A5.35,5.35,0,0,1,57,39Z"/><path class="cls-2" d="M20.39,39a5.34,5.34,0,1,1-5.33-5.32A5.34,5.34,0,0,1,20.39,39Z"/><path class="cls-2" d="M57,39a5.34,5.34,0,1,1-5.34-5.32A5.35,5.35,0,0,1,57,39Z"/><path class="cls-2" d="M63.28,27V39H57A5.34,5.34,0,0,0,46.3,39H41.72V12.33H53.87Z"/><polygon class="cls-1" points="62.74 26.28 46.3 26.28 46.3 16.73 56.69 16.73 62.74 26.28"/><polygon class="cls-2" points="62.74 26.28 46.3 26.28 46.3 16.73 56.69 16.73 62.74 26.28"/><line class="cls-2" x1="5.05" y1="8.91" x2="41.72" y2="8.91"/><line class="cls-2" x1="0.5" y1="0.5" x2="1.65" y2="0.5"/><line class="cls-2" x1="5.24" y1="0.5" x2="18.97" y2="0.5"/><line class="cls-2" x1="1.09" y1="35.01" x2="6.68" y2="35.01"/><line class="cls-2" x1="23.81" y1="35.01" x2="41.72" y2="35.01"/><line class="cls-2" x1="63.28" y1="35.01" x2="59.8" y2="35.01"/><rect class="cls-3" x="14.07" y="38.09" width="2.11" height="2.11"/><rect class="cls-3" x="50.39" y="38.09" width="2.11" height="2.11"/></g></g></svg>