<svg xmlns="http://www.w3.org/2000/svg" viewBox="0 0 79.66 65.63"><defs><style>.cls-1{fill:#ffd3ae;}.cls-2{fill:#fff;}.cls-3{fill:none;stroke:#102f3a;stroke-linecap:round;stroke-linejoin:round;stroke-width:1.5px;}</style></defs><g id="Layer_2" data-name="Layer 2"><g id="Layer_1-2" data-name="Layer 1"><rect class="cls-1" x="0.75" y="14.01" width="78.16" height="50.87" rx="9.57"/><path class="cls-2" d="M15.57,14V64.88H10.31a7.38,7.38,0,0,1-.82,0V14.06a7.38,7.38,0,0,1,.82,0Z"/><path class="cls-2" d="M70.08,14.05v50.8c-.24,0-.49,0-.74,0h-5V14h5C69.59,14,69.84,14,70.08,14.05Z"/><path class="cls-3" d="M15.57,14V64.88H10.31a7.38,7.38,0,0,1-.82,0V14.06a7.38,7.38,0,0,1,.82,0Z"/><path class="cls-3" d="M9.49,14.06V64.84A9.55,9.55,0,0,1,.75,55.32V23.58A9.55,9.55,0,0,1,9.49,14.06Z"/><path class="cls-3" d="M70.08,14.05v50.8c-.24,0-.49,0-.74,0h-5V14h5C69.59,14,69.84,14,70.08,14.05Z"/><rect class="cls-3" x="15.57" y="14.02" width="48.76" height="50.86"/><path class="cls-3" d="M78.91,23.58V55.32a9.57,9.57,0,0,1-8.83,9.53V14.05A9.57,9.57,0,0,1,78.91,23.58Z"/><path class="cls-3" d="M35.2.75H47a9.57,9.57,0,0,1,9.57,9.57V14a0,0,0,0,1,0,0h-31a0,0,0,0,1,0,0v-3.7A9.57,9.57,0,0,1,35.2.75Z"/><path class="cls-3" d="M35.51,5.77H46.72a4.57,4.57,0,0,1,4.57,4.57V14a0,0,0,0,1,0,0H30.95a0,0,0,0,1,0,0V10.33A4.57,4.57,0,0,1,35.51,5.77Z"/><line class="cls-3" x1="9.49" y1="64.88" x2="9.49" y2="64.84"/><line class="cls-3" x1="9.49" y1="14.06" x2="9.49" y2="14.02"/><line class="cls-3" x1="70.08" y1="64.88" x2="70.08" y2="64.85"/><line class="cls-3" x1="70.08" y1="14.05" x2="70.08" y2="14.02"/><path class="cls-2" d="M39.46,23.7a4.79,4.79,0,0,0-6.79,0l-1.09,1.09-1.1-1.09a4.8,4.8,0,0,0-6.79,6.78l1.1,1.1,6.79,6.79,6.78-6.79,1.1-1.1A4.8,4.8,0,0,0,39.46,23.7Z"/><rect class="cls-2" x="34.85" y="48.23" width="14.88" height="9.17"/><rect class="cls-2" x="42.29" y="36.16" width="14.88" height="9.17" transform="translate(109.89 18.04) rotate(120)"/><path class="cls-3" d="M39.46,23.7a4.79,4.79,0,0,0-6.79,0l-1.09,1.09-1.1-1.09a4.8,4.8,0,0,0-6.79,6.78l1.1,1.1,6.79,6.79,6.78-6.79,1.1-1.1A4.8,4.8,0,0,0,39.46,23.7Z"/><polygon class="cls-3" points="57.42 36.59 49.48 32.01 42.04 44.9 47.82 48.23 34.85 48.23 34.85 57.4 49.73 57.4 49.73 49.34 49.98 49.48 57.42 36.59"/></g></g></svg>