<svg xmlns="http://www.w3.org/2000/svg" viewBox="0 0 63.2 63.19"><defs><style>.cls-1,.cls-3{fill:none;stroke:#102f3a;stroke-linecap:round;stroke-linejoin:round;}.cls-2{fill:#ffd3ae;}.cls-3{stroke-dasharray:4;}</style></defs><g id="Layer_2" data-name="Layer 2"><g id="Layer_1-2" data-name="Layer 1"><path class="cls-1" d="M55.87,11.9a4.58,4.58,0,1,1-4.58-4.57A4.58,4.58,0,0,1,55.87,11.9Z"/><path class="cls-2" d="M51.29.5a11.39,11.39,0,0,0-11.4,11.4c0,6.26,5,12.16,8.36,15.44a36.25,36.25,0,0,0,3,2.67,38.17,38.17,0,0,0,3-2.68C57.65,24,62.7,18,62.7,11.9A11.4,11.4,0,0,0,51.29.5Zm0,16a4.58,4.58,0,1,1,4.58-4.58A4.58,4.58,0,0,1,51.29,16.48Z"/><path class="cls-2" d="M15.16,19.76A14.66,14.66,0,0,0,.5,34.42c0,8.3,6.08,15.95,10.41,20.34a46.93,46.93,0,0,0,4.25,3.87,46.69,46.69,0,0,0,4.28-3.86c4.33-4.38,10.39-12,10.39-20.35A14.66,14.66,0,0,0,15.16,19.76Zm0,20.53A5.87,5.87,0,1,1,21,34.42,5.87,5.87,0,0,1,15.16,40.29Z"/><path class="cls-1" d="M51.29.5a11.39,11.39,0,0,0-11.4,11.4c0,6.26,5,12.16,8.36,15.44a36.25,36.25,0,0,0,3,2.67,38.17,38.17,0,0,0,3-2.68C57.65,24,62.7,18,62.7,11.9A11.4,11.4,0,0,0,51.29.5Zm0,16a4.58,4.58,0,1,1,4.58-4.58A4.58,4.58,0,0,1,51.29,16.48Z"/><path class="cls-1" d="M55.87,11.9a4.58,4.58,0,1,1-4.58-4.57A4.58,4.58,0,0,1,55.87,11.9Z"/><path class="cls-1" d="M59.33,30.36c0,1.8-3.59,3.26-8,3.26s-8-1.46-8-3.26c0-1.36,2.07-2.54,5-3a36.25,36.25,0,0,0,3,2.67,38.17,38.17,0,0,0,3-2.68C57.24,27.81,59.33,29,59.33,30.36Z"/><path class="cls-1" d="M21,34.42a5.88,5.88,0,1,1-5.88-5.87A5.87,5.87,0,0,1,21,34.42Z"/><path class="cls-1" d="M15.16,19.76A14.66,14.66,0,0,0,.5,34.42c0,8.3,6.08,15.95,10.41,20.34a46.93,46.93,0,0,0,4.25,3.87,46.69,46.69,0,0,0,4.28-3.86c4.33-4.38,10.39-12,10.39-20.35A14.66,14.66,0,0,0,15.16,19.76Zm0,20.53A5.87,5.87,0,1,1,21,34.42,5.87,5.87,0,0,1,15.16,40.29Z"/><path class="cls-1" d="M21,34.42a5.88,5.88,0,1,1-5.88-5.87A5.87,5.87,0,0,1,21,34.42Z"/><path class="cls-1" d="M25.33,58.53c0,2.3-4.55,4.16-10.17,4.16S5,60.83,5,58.53c0-1.67,2.42-3.11,5.91-3.77a46.93,46.93,0,0,0,4.25,3.87,46.69,46.69,0,0,0,4.28-3.86C22.92,55.43,25.33,56.87,25.33,58.53Z"/><path class="cls-3" d="M39.89,30.48H38.78a6,6,0,0,0-6,6h0a6,6,0,0,0,6,6H54a8,8,0,0,1,8,8h0a8.05,8.05,0,0,1-8,8.05H28.91"/></g></g></svg>