<svg xmlns="http://www.w3.org/2000/svg" viewBox="0 0 62.05 72.29"><defs><style>.cls-1{fill:#ffd3ae;}.cls-2{fill:none;stroke:#102f3a;stroke-linecap:round;stroke-linejoin:round;}.cls-3{fill:#102f3a;}</style></defs><g id="Layer_2" data-name="Layer 2"><g id="Layer_1-2" data-name="Layer 1"><path class="cls-1" d="M50.33,21.88H16.76l3.16-8.22a2.78,2.78,0,0,1,2.56-2H44.6a2.8,2.8,0,0,1,2.58,2Z"/><path class="cls-1" d="M61.55,46.6,45.43,62.67s-4.78,6-15.86,3.57-12.76.53-15.28,2.59l.13.7a1.13,1.13,0,0,1,0,.26L11.15,51.3a.79.79,0,0,1,.1.27l.45,2.62s7.07-6,14.15-3.43c6.58,2.43,16.73-5.16,20,2.13l8.64-6.29S58.42,43.4,61.55,46.6Z"/><path class="cls-2" d="M52.85,26.05v10.4H13.49V26.05A2.16,2.16,0,0,1,15,23.8a2.85,2.85,0,0,0,1.68-1.68l.1-.24,3.16-8.22a2.78,2.78,0,0,1,2.56-2H44.6a2.8,2.8,0,0,1,2.58,2l3.15,8.22.12.33a3.6,3.6,0,0,0,1.46,1.7A2.31,2.31,0,0,1,52.85,26.05Z"/><line class="cls-2" x1="16.76" y1="21.88" x2="50.32" y2="21.88"/><rect class="cls-1" x="17.28" y="27.01" width="7.27" height="5.25" rx="0.67"/><rect class="cls-1" x="41.91" y="27.01" width="7.27" height="5.25" rx="0.67"/><rect class="cls-1" x="29.25" y="28.15" width="7.27" height="2.98" rx="0.67"/><rect class="cls-2" x="17.28" y="27.01" width="7.27" height="5.25" rx="0.67"/><path class="cls-2" d="M13.49,36.45h7.42a0,0,0,0,1,0,0v3.09a2.31,2.31,0,0,1-2.31,2.31H15.8a2.31,2.31,0,0,1-2.31-2.31V36.45a0,0,0,0,1,0,0Z"/><path class="cls-2" d="M45.43,36.45h7.42a0,0,0,0,1,0,0v3.09a2.31,2.31,0,0,1-2.31,2.31h-2.8a2.31,2.31,0,0,1-2.31-2.31V36.45A0,0,0,0,1,45.43,36.45Z"/><rect class="cls-2" x="41.91" y="27.01" width="7.27" height="5.25" rx="0.67"/><rect class="cls-2" x="29.25" y="28.15" width="7.27" height="2.98" rx="0.67"/><path class="cls-2" d="M14.42,69.53a1.13,1.13,0,0,1,0,.26.88.88,0,0,1-.72.77L6.75,71.78a.87.87,0,0,1-1-.71l-3.16-18a.86.86,0,0,1,.7-1l7-1.22a.88.88,0,0,1,.92.42s0,0,0,0a.79.79,0,0,1,.1.27l.45,2.62,2.59,14.64Z"/><path class="cls-2" d="M33.23,57.16l13.22-2.45a10.22,10.22,0,0,0-.6-1.82c-3.27-7.29-13.42.3-20-2.13-7.08-2.6-14.15,3.43-14.15,3.43"/><path class="cls-2" d="M45.85,52.89l8.64-6.29s3.93-3.2,7.06,0L45.43,62.67s-4.78,6-15.86,3.57-12.76.53-15.28,2.59"/><path class="cls-2" d="M41.32,3.66A18.25,18.25,0,0,1,58.49,21.88"/><polygon class="cls-3" points="44.21 8.14 44.96 7.48 41.7 3.78 45.63 0.8 45.02 0 40.24 3.63 44.21 8.14"/><path class="cls-2" d="M5.13,37.48a18.26,18.26,0,0,1,4.93-24.54"/><polygon class="cls-3" points="7.11 32.54 6.14 32.31 5 37.11 0.3 35.63 0 36.58 5.73 38.39 7.11 32.54"/></g></g></svg>