<svg xmlns="http://www.w3.org/2000/svg" viewBox="0 0 60 61.12"><defs><style>.cls-1{fill:#ffd3ae;}.cls-2{fill:none;stroke:#102f3a;stroke-linecap:round;stroke-linejoin:round;}</style></defs><g id="Layer_2" data-name="Layer 2"><g id="Layer_1-2" data-name="Layer 1"><path class="cls-1" d="M48.28,10.71H14.71l3.16-8.23a2.78,2.78,0,0,1,2.56-2H42.55a2.81,2.81,0,0,1,2.58,2Z"/><path class="cls-1" d="M59.5,35.43,43.38,51.5s-4.78,5.94-15.86,3.57-12.76.52-15.28,2.59l.13.69a1.22,1.22,0,0,1,0,.27L9.1,40.13a.79.79,0,0,1,.1.27L9.65,43s7.07-6,14.15-3.42c6.58,2.43,16.73-5.17,20,2.12l8.64-6.28S56.37,32.22,59.5,35.43Z"/><path class="cls-2" d="M50.8,14.87V25.28H11.44V14.87a2.16,2.16,0,0,1,1.49-2.24A2.87,2.87,0,0,0,14.61,11l.1-.24,3.16-8.23a2.78,2.78,0,0,1,2.56-2H42.55a2.81,2.81,0,0,1,2.58,2l3.15,8.23.12.33a3.6,3.6,0,0,0,1.46,1.7A2.31,2.31,0,0,1,50.8,14.87Z"/><line class="cls-2" x1="14.71" y1="10.71" x2="48.27" y2="10.71"/><rect class="cls-1" x="15.23" y="15.84" width="7.27" height="5.25" rx="0.67"/><rect class="cls-1" x="39.86" y="15.84" width="7.27" height="5.25" rx="0.67"/><rect class="cls-1" x="27.2" y="16.98" width="7.27" height="2.98" rx="0.67"/><rect class="cls-2" x="15.23" y="15.84" width="7.27" height="5.25" rx="0.67"/><path class="cls-2" d="M11.44,25.28h7.42a0,0,0,0,1,0,0v3.09a2.31,2.31,0,0,1-2.31,2.31h-2.8a2.31,2.31,0,0,1-2.31-2.31V25.28A0,0,0,0,1,11.44,25.28Z"/><path class="cls-2" d="M43.38,25.28H50.8a0,0,0,0,1,0,0v3.09a2.31,2.31,0,0,1-2.31,2.31h-2.8a2.31,2.31,0,0,1-2.31-2.31V25.28A0,0,0,0,1,43.38,25.28Z"/><rect class="cls-2" x="39.86" y="15.84" width="7.27" height="5.25" rx="0.67"/><rect class="cls-2" x="27.2" y="16.98" width="7.27" height="2.98" rx="0.67"/><path class="cls-2" d="M12.37,58.35a1.22,1.22,0,0,1,0,.27.88.88,0,0,1-.72.76L4.7,60.6a.87.87,0,0,1-1-.71l-3.16-18a.87.87,0,0,1,.7-1l7-1.22a.89.89,0,0,1,.92.42s0,0,0,0a.79.79,0,0,1,.1.27L9.65,43l2.59,14.65Z"/><path class="cls-2" d="M31.18,46,44.4,43.54a10.34,10.34,0,0,0-.6-1.83c-3.27-7.29-13.42.31-20-2.12C16.72,37,9.65,43,9.65,43"/><path class="cls-2" d="M43.8,41.71l8.64-6.28s3.93-3.21,7.06,0L43.38,51.5s-4.78,5.94-15.86,3.57-12.76.52-15.28,2.59"/></g></g></svg>