<svg xmlns="http://www.w3.org/2000/svg" viewBox="0 0 66.99 63.3"><defs><style>.cls-1{fill:none;stroke:#102f3a;stroke-linecap:round;stroke-linejoin:round;}.cls-2{fill:#ffd3ae;}</style></defs><g id="Layer_2" data-name="Layer 2"><g id="Layer_1-2" data-name="Layer 1"><path class="cls-1" d="M58.38,27.6H7.52l1.87-7.52a6.44,6.44,0,0,0,1.88-1.14,4.9,4.9,0,0,0,8.35-3.49,4.92,4.92,0,0,0-2.73-4.4,4.86,4.86,0,0,0,1.05-.87,3.56,3.56,0,0,0,5.48,0h28a3.39,3.39,0,0,1,3.28,2.56l2,8.08h0l.66,2.67Z"/><path class="cls-2" d="M66.49,18.19a6.1,6.1,0,0,1-1.08,3.47.85.85,0,0,0-.85-.85H56.69l-2-8.08a3.39,3.39,0,0,0-3.28-2.56H41.93a6,6,0,0,1-.06-.85,7.18,7.18,0,0,1,14.35-.21,5.13,5.13,0,0,1,3.35,3,5.59,5.59,0,0,1,.83-.06A6.1,6.1,0,0,1,66.49,18.19Z"/><path class="cls-1" d="M66.49,18.19a6.1,6.1,0,0,1-1.08,3.47.85.85,0,0,0-.85-.85H56.69l-2-8.08a3.39,3.39,0,0,0-3.28-2.56H41.93a6,6,0,0,1-.06-.85,7.18,7.18,0,0,1,14.35-.21,5.13,5.13,0,0,1,3.35,3,5.59,5.59,0,0,1,.83-.06A6.1,6.1,0,0,1,66.49,18.19Z"/><path class="cls-1" d="M57.36,23.48h0"/><path class="cls-2" d="M9.39,20.08a6.44,6.44,0,0,0,1.88-1.14,4.9,4.9,0,0,0,8.35-3.49,4.92,4.92,0,0,0-2.73-4.4,4.86,4.86,0,0,0,1.05-.87,3.57,3.57,0,1,0,.88-5.34,5,5,0,0,0-9.5,2A4.68,4.68,0,0,0,9.47,8,6.52,6.52,0,0,0,.64,12.71,6.49,6.49,0,0,0,7,20.54a6.36,6.36,0,0,0,2.39-.46"/><path class="cls-1" d="M9.39,20.08a6.44,6.44,0,0,0,1.88-1.14,4.9,4.9,0,0,0,8.35-3.49,4.92,4.92,0,0,0-2.73-4.4,4.86,4.86,0,0,0,1.05-.87,3.57,3.57,0,1,0,.88-5.34,5,5,0,0,0-9.5,2A4.68,4.68,0,0,0,9.47,8,6.52,6.52,0,0,0,.64,12.71,6.49,6.49,0,0,0,7,20.54a6.36,6.36,0,0,0,2.39-.46"/><path class="cls-1" d="M7.52,27.6H3.21A2.71,2.71,0,0,1,.5,24.89v-3a.8.8,0,0,1,.8-.8H9.14Z"/><path class="cls-1" d="M65.41,21.66v3.13a2.75,2.75,0,0,1-2.71,2.8H58.39l-1-4.11"/><circle class="cls-1" cx="62.81" cy="3.11" r="2.61"/><polyline class="cls-1" points="2.67 34.32 7.52 27.6 58.38 27.6 63.24 34.32"/><path class="cls-2" d="M15.92,43.05H2.67V34.32l8.38.67a1.47,1.47,0,0,1,1.22.82Z"/><path class="cls-2" d="M50,43.05H63.24V34.32L54.85,35a1.49,1.49,0,0,0-1.22.82Z"/><path class="cls-1" d="M15.92,43.05H2.67V34.32l8.38.67a1.47,1.47,0,0,1,1.22.82Z"/><path class="cls-1" d="M50,43.05H63.24V34.32L54.85,35a1.49,1.49,0,0,0-1.22.82Z"/><polygon class="cls-2" points="43.65 48.73 22.25 48.73 25.01 41.24 40.89 41.24 43.65 48.73"/><polygon class="cls-1" points="43.65 48.73 22.25 48.73 25.01 41.24 40.89 41.24 43.65 48.73"/><polyline class="cls-1" points="63.24 43.05 63.24 54.63 2.67 54.63 2.67 43.05"/><line class="cls-1" x1="2.67" y1="48.73" x2="63.24" y2="48.73"/><line class="cls-1" x1="12.38" y1="48.73" x2="12.38" y2="54.63"/><line class="cls-1" x1="53.52" y1="48.73" x2="53.52" y2="54.63"/><path class="cls-1" d="M3.67,54.63H18.73a0,0,0,0,1,0,0v2.92a5.25,5.25,0,0,1-5.25,5.25H8.91a5.25,5.25,0,0,1-5.25-5.25V54.63A0,0,0,0,1,3.67,54.63Z"/><path class="cls-1" d="M47.22,54.63H62.28a0,0,0,0,1,0,0v2.92A5.25,5.25,0,0,1,57,62.8H52.47a5.25,5.25,0,0,1-5.25-5.25V54.63A0,0,0,0,1,47.22,54.63Z"/></g></g></svg>