<svg xmlns="http://www.w3.org/2000/svg" viewBox="0 0 63.6 59.78"><defs><style>.cls-1{fill:#ffd3ae;}.cls-2{fill:none;stroke:#102f3a;stroke-linecap:round;stroke-linejoin:round;}</style></defs><g id="Layer_2" data-name="Layer 2"><g id="Layer_1-2" data-name="Layer 1"><path class="cls-1" d="M60.2,44.84H37.71a3.21,3.21,0,0,1-.53.77,3.28,3.28,0,0,1-3.89.67L40,51.36H60.2a3.1,3.1,0,0,0,2.9-3.26,3.45,3.45,0,0,0-.85-2.31A2.74,2.74,0,0,0,60.2,44.84Z"/><polyline class="cls-1" points="21.39 37.29 22.07 37.8 33.29 46.28"/><path class="cls-1" d="M52,38.31H34.13L37,41a3.24,3.24,0,0,1,.7,3.85H52a3.27,3.27,0,1,0,0-6.53Z"/><path class="cls-1" d="M40.33,31.78H27.13l7,6.53h6.2a3.27,3.27,0,0,0,0-6.53Z"/><path class="cls-1" d="M18.73,24H.5V39.63h8L19.66,50.85,34.3,59.28H56.47a4,4,0,0,0,0-7.92H40l-6.73-5.08a3.28,3.28,0,0,0,3.89-.67,3.21,3.21,0,0,0,.53-.77A3.24,3.24,0,0,0,37,41l-2.88-2.68-7-6.53-8-7.44Z"/><path class="cls-2" d="M60.2,44.84H37.71a3.21,3.21,0,0,1-.53.77,3.28,3.28,0,0,1-3.89.67L40,51.36H60.2a3.1,3.1,0,0,0,2.9-3.26,3.45,3.45,0,0,0-.85-2.31A2.74,2.74,0,0,0,60.2,44.84Z"/><polyline class="cls-2" points="21.39 37.29 22.07 37.8 33.29 46.28"/><path class="cls-2" d="M52,38.31H34.13L37,41a3.24,3.24,0,0,1,.7,3.85H52a3.27,3.27,0,1,0,0-6.53Z"/><path class="cls-2" d="M40.33,31.78H27.13l7,6.53h6.2a3.27,3.27,0,0,0,0-6.53Z"/><path class="cls-2" d="M18.73,24H.5V39.63h8L19.66,50.85,34.3,59.28H56.47a4,4,0,0,0,0-7.92H40l-6.73-5.08a3.28,3.28,0,0,0,3.89-.67,3.21,3.21,0,0,0,.53-.77A3.24,3.24,0,0,0,37,41l-2.88-2.68-7-6.53-8-7.44Z"/><circle class="cls-2" cx="41.18" cy="13.41" r="12.91"/><path class="cls-2" d="M37.17,18.94h5.41a2.61,2.61,0,0,0,2.61-2.61v-.62a2.61,2.61,0,0,0-2.61-2.61h-2.8a2.61,2.61,0,0,1-2.61-2.61h0a2.6,2.6,0,0,1,2.61-2.6h5.41"/><line class="cls-2" x1="41.18" y1="6.15" x2="41.18" y2="20.67"/></g></g></svg>