<svg xmlns="http://www.w3.org/2000/svg" viewBox="0 0 50.79 61.51"><defs><style>.cls-1{fill:none;stroke:#102f3a;stroke-linecap:round;stroke-linejoin:round;}.cls-2{fill:#ffd3ae;}</style></defs><g id="Layer_2" data-name="Layer 2"><g id="Layer_1-2" data-name="Layer 1"><path class="cls-1" d="M12.29.5H32.92a6.8,6.8,0,0,1,6.8,6.8V53a0,0,0,0,1,0,0H5.49a0,0,0,0,1,0,0V7.3A6.8,6.8,0,0,1,12.29.5Z"/><path class="cls-1" d="M39.72,39.68h2.44a2.65,2.65,0,0,1,2.65,2.65V45a2.74,2.74,0,0,0,3,2.73,2.81,2.81,0,0,0,2.47-2.84V8.79L44.35,2.84"/><path class="cls-2" d="M50.29,21.41H48.66A3.64,3.64,0,0,1,45,17.77v-4l5.28-5Z"/><path class="cls-1" d="M50.29,21.41H48.66A3.64,3.64,0,0,1,45,17.77v-4l5.28-5Z"/><rect class="cls-2" x="10.72" y="5.92" width="23.72" height="15.72" rx="2.34"/><rect class="cls-1" x="10.72" y="5.92" width="23.72" height="15.72" rx="2.34"/><path class="cls-2" d="M6.7,53H38.51a6.2,6.2,0,0,1,6.2,6.2V61a0,0,0,0,1,0,0H.5a0,0,0,0,1,0,0V59.17A6.2,6.2,0,0,1,6.7,53Z"/><path class="cls-1" d="M6.7,53H38.51a6.2,6.2,0,0,1,6.2,6.2V61a0,0,0,0,1,0,0H.5a0,0,0,0,1,0,0V59.17A6.2,6.2,0,0,1,6.7,53Z"/></g></g></svg>