<svg xmlns="http://www.w3.org/2000/svg" viewBox="0 0 63.6 54.9"><defs><style>.cls-1{fill:#ffd3ae;}.cls-2{fill:none;stroke:#102f3a;stroke-linecap:round;stroke-linejoin:round;}</style></defs><g id="Layer_2" data-name="Layer 2"><g id="Layer_1-2" data-name="Layer 1"><path class="cls-1" d="M18.5,32.13h3.83a1.57,1.57,0,0,1,1.58,1.57V52.82a1.58,1.58,0,0,1-1.58,1.58H14.79a1.58,1.58,0,0,1-1.57-1.58V33.7a1.57,1.57,0,0,1,1.57-1.57h3.48"/><rect class="cls-1" x="47.82" y="32.13" width="10.69" height="22.28" rx="1.93"/><path class="cls-2" d="M18.5,32.13h3.83a1.57,1.57,0,0,1,1.58,1.57V52.82a1.58,1.58,0,0,1-1.58,1.58H14.79a1.58,1.58,0,0,1-1.57-1.58V33.7a1.57,1.57,0,0,1,1.57-1.57h3.48"/><path class="cls-2" d="M13.22,36.5V50h-3a1.58,1.58,0,0,1-1.59-1.57V38.08a1.65,1.65,0,0,1,.19-.76,1.59,1.59,0,0,1,1.4-.82Z"/><path class="cls-2" d="M60.45,36.5H63.1a0,0,0,0,1,0,0V50a0,0,0,0,1,0,0H60.45a1.93,1.93,0,0,1-1.93-1.93V38.43A1.93,1.93,0,0,1,60.45,36.5Z" transform="translate(121.62 86.53) rotate(-180)"/><rect class="cls-2" x="47.82" y="32.13" width="10.69" height="22.28" rx="1.93"/><path class="cls-2" d="M47.82,46.87s-2.8.64-12,.64-12-.64-12-.64V39.41s3-.53,12-.53,12,.53,12,.53Z"/><path class="cls-1" d="M18.27,32.13H14.79a1.57,1.57,0,0,0-1.57,1.57v2.8h-3a1.59,1.59,0,0,0-1.4.82L3.57,30.15,1.92,27.89a1.57,1.57,0,0,1,.35-2.2l6.08-4.45a1.56,1.56,0,0,1,2.2.35l3.37,4.6Z"/><path class="cls-1" d="M49.43,18.78l-6.08,4.45a1.57,1.57,0,0,1-2.21-.35l-3.51-4.79-4.42-6L29.85,7.46a1.58,1.58,0,0,1,.34-2.21L36.27.8a1.58,1.58,0,0,1,2.21.35l1.65,2.24,8,10.93,1.65,2.25A1.58,1.58,0,0,1,49.43,18.78Z"/><path class="cls-2" d="M18.27,32.13H14.79a1.57,1.57,0,0,0-1.57,1.57v2.8h-3a1.59,1.59,0,0,0-1.4.82L3.57,30.15,1.92,27.89a1.57,1.57,0,0,1,.35-2.2l6.08-4.45a1.56,1.56,0,0,1,2.2.35l3.37,4.6Z"/><path class="cls-2" d="M8.82,37.32a1.65,1.65,0,0,0-.19.76v5a1.58,1.58,0,0,1-1.7-.58L.8,34.13a1.58,1.58,0,0,1,.35-2.21l2.42-1.77Z"/><path class="cls-2" d="M45.62.74h2.65a0,0,0,0,1,0,0V14.27a0,0,0,0,1,0,0H45.62a1.93,1.93,0,0,1-1.93-1.93V2.67A1.93,1.93,0,0,1,45.62.74Z" transform="translate(87.51 -13.59) rotate(143.8)"/><path class="cls-2" d="M49.43,18.78l-6.08,4.45a1.57,1.57,0,0,1-2.21-.35l-3.51-4.79-4.42-6L29.85,7.46a1.58,1.58,0,0,1,.34-2.21L36.27.8a1.58,1.58,0,0,1,2.21.35l1.65,2.24,8,10.93,1.65,2.25A1.58,1.58,0,0,1,49.43,18.78Z"/><path class="cls-2" d="M37.63,18.09s-1.89,2.17-9.28,7.57a74.82,74.82,0,0,1-9.85,6.47h-.23l-4.35-5.94S16,24,23.25,18.69s10-6.62,10-6.62Z"/></g></g></svg>