<svg xmlns="http://www.w3.org/2000/svg" viewBox="0 0 63.42 59.25"><defs><style>.cls-1,.cls-3{fill:none;}.cls-1{stroke:#102f3a;stroke-linecap:round;stroke-linejoin:round;}.cls-2{fill:#ffd3ae;}.cls-3{stroke:#fff;stroke-miterlimit:10;}.cls-4{fill:#fff;}</style></defs><g id="Layer_2" data-name="Layer 2"><g id="Layer_1-2" data-name="Layer 1"><path class="cls-1" d="M46.66,3.83v8.81H.5V3.83A3.33,3.33,0,0,1,3.83.5H43.34A3.33,3.33,0,0,1,46.66,3.83Z"/><path class="cls-2" d="M46.66,3.83v8.81H.5V3.83A3.33,3.33,0,0,1,3.83.5H43.34A3.33,3.33,0,0,1,46.66,3.83Z"/><path class="cls-1" d="M46.66,3.83v8.81H.5V3.83A3.33,3.33,0,0,1,3.83.5H43.34A3.33,3.33,0,0,1,46.66,3.83Z"/><path class="cls-1" d="M46.66,12.64v24h-2a1.84,1.84,0,0,0-1.84,1.84v1.4a1.84,1.84,0,0,0,1.84,1.85,1.84,1.84,0,0,0-1.84,1.84V45a1.84,1.84,0,0,0,1.84,1.84H41a.63.63,0,0,0-.62.63V55a3.72,3.72,0,0,0,3.33,3.7l-.33,0H3.83A3.33,3.33,0,0,1,.5,55.42V12.64Z"/><path class="cls-3" d="M43.69,58.73h0"/><rect class="cls-1" x="24.62" y="4.6" width="9.92" height="4.13" rx="2.04"/><circle class="cls-1" cx="6.59" cy="6.66" r="2.06"/><circle class="cls-1" cx="40.66" cy="6.66" r="2.06"/><circle class="cls-2" cx="23.58" cy="34.7" r="15.17"/><circle class="cls-4" cx="23.58" cy="34.7" r="10.02"/><circle class="cls-1" cx="23.58" cy="34.7" r="10.02"/><path class="cls-1" d="M29.58,34.7a6,6,0,0,1-6,6"/><circle class="cls-1" cx="23.58" cy="34.7" r="15.17"/><rect class="cls-2" x="42.8" y="36.62" width="17.67" height="5.09" rx="1.84"/><rect class="cls-4" x="42.8" y="41.71" width="17.67" height="5.09" rx="1.84"/><rect class="cls-1" x="42.8" y="36.62" width="17.67" height="5.09" rx="1.84"/><rect class="cls-1" x="42.8" y="41.71" width="17.67" height="5.09" rx="1.84"/><path class="cls-2" d="M62.92,47.43V55a3.72,3.72,0,0,1-3.71,3.72H44.05l-.36,0h0A3.72,3.72,0,0,1,40.34,55v-7.6A.63.63,0,0,1,41,46.8H62.3A.63.63,0,0,1,62.92,47.43Z"/><path class="cls-1" d="M62.92,47.43V55a3.72,3.72,0,0,1-3.71,3.72H44.05l-.36,0h0A3.72,3.72,0,0,1,40.34,55v-7.6A.63.63,0,0,1,41,46.8H62.3A.63.63,0,0,1,62.92,47.43Z"/></g></g></svg>