<svg xmlns="http://www.w3.org/2000/svg" viewBox="0 0 49.69 63.6"><defs><style>.cls-1{fill:#ffd3ae;}.cls-2{fill:none;stroke:#102f3a;stroke-linecap:round;stroke-linejoin:round;}.cls-3{fill:#fff;}</style></defs><g id="Layer_2" data-name="Layer 2"><g id="Layer_1-2" data-name="Layer 1"><path class="cls-1" d="M27.33,24.25A11.12,11.12,0,0,0,28,28l-8.43,8.43A4.64,4.64,0,0,0,26.1,43l8.42-8.42A11.07,11.07,0,0,0,37,35.1V58.73A4.37,4.37,0,0,1,32.6,63.1H4.87A4.37,4.37,0,0,1,.5,58.73V4.87A4.37,4.37,0,0,1,4.87.5H32.6A4.37,4.37,0,0,1,37,4.87V13.4A10.92,10.92,0,0,0,27.33,24.25Z"/><path class="cls-2" d="M27.33,24.25A11.12,11.12,0,0,0,28,28l-8.43,8.43A4.64,4.64,0,0,0,26.1,43l8.42-8.42A11.07,11.07,0,0,0,37,35.1V58.73A4.37,4.37,0,0,1,32.6,63.1H4.87A4.37,4.37,0,0,1,.5,58.73V4.87A4.37,4.37,0,0,1,4.87.5H32.6A4.37,4.37,0,0,1,37,4.87V13.4A10.92,10.92,0,0,0,27.33,24.25Z"/><polygon class="cls-3" points="26.88 5.26 10.59 5.26 8.68 0.5 28.79 0.5 26.88 5.26"/><polygon class="cls-2" points="26.88 5.26 10.59 5.26 8.68 0.5 28.79 0.5 26.88 5.26"/><circle class="cls-3" cx="18.74" cy="55.57" r="2.54"/><circle class="cls-2" cx="18.74" cy="55.57" r="2.54"/><path class="cls-3" d="M49.19,24.25A10.9,10.9,0,0,1,37,35.1a11.07,11.07,0,0,1-2.45-.57L26.1,43a4.64,4.64,0,0,1-6.56-6.56L28,28a11.12,11.12,0,0,1-.64-3.71,10.92,10.92,0,0,1,15.42-10L37,20.05l-1.18,1.18,1,4.35.16.05,4.12,1.25,7.13-7.12A10.87,10.87,0,0,1,49.19,24.25Z"/><path class="cls-2" d="M49.19,24.25A10.9,10.9,0,0,1,37,35.1a11.07,11.07,0,0,1-2.45-.57L26.1,43a4.64,4.64,0,0,1-6.56-6.56L28,28a11.12,11.12,0,0,1-.64-3.71,10.92,10.92,0,0,1,15.42-10L37,20.05l-1.18,1.18,1,4.35.16.05,4.12,1.25,7.13-7.12A10.87,10.87,0,0,1,49.19,24.25Z"/></g></g></svg>