<svg xmlns="http://www.w3.org/2000/svg" viewBox="0 0 61.35 61.51"><defs><style>.cls-1{fill:none;stroke:#102f3a;stroke-linecap:round;stroke-linejoin:round;}.cls-2{fill:#ffd3ae;}</style></defs><g id="Layer_2" data-name="Layer 2"><g id="Layer_1-2" data-name="Layer 1"><circle class="cls-1" cx="43.2" cy="18.15" r="17.65"/><circle class="cls-2" cx="7.74" cy="53.77" r="7.24"/><circle class="cls-1" cx="7.74" cy="53.77" r="7.24"/><circle class="cls-2" cx="53.6" cy="53.77" r="7.24"/><circle class="cls-1" cx="53.6" cy="53.77" r="7.24"/><path class="cls-2" d="M42.18,22.16l5-5a5.22,5.22,0,0,0,7.06-5.46.7.7,0,0,0-1.19-.41l-.94.94a2.17,2.17,0,0,1-2.9.2,2.12,2.12,0,0,1-.16-3.13l1-1a.69.69,0,0,0-.41-1.18,5.2,5.2,0,0,0-5.48,3.34A5.25,5.25,0,0,0,44.16,14l0,0L39,19.11a5.22,5.22,0,0,0-3.55,0,5.13,5.13,0,0,0-1.85,1.2,5.22,5.22,0,0,0-1.5,4.28.7.7,0,0,0,1.19.41l.94-.94a2.18,2.18,0,0,1,2.91-.2A2.12,2.12,0,0,1,37.31,27l-1,1a.69.69,0,0,0,.41,1.18,5.22,5.22,0,0,0,5.47-7.06Z"/><path class="cls-1" d="M42.18,22.16l5-5a5.22,5.22,0,0,0,7.06-5.46.7.7,0,0,0-1.19-.41l-.94.94a2.17,2.17,0,0,1-2.9.2,2.12,2.12,0,0,1-.16-3.13l1-1a.69.69,0,0,0-.41-1.18,5.2,5.2,0,0,0-5.48,3.34A5.25,5.25,0,0,0,44.16,14l0,0L39,19.11a5.22,5.22,0,0,0-3.55,0,5.13,5.13,0,0,0-1.85,1.2,5.22,5.22,0,0,0-1.5,4.28.7.7,0,0,0,1.19.41l.94-.94a2.18,2.18,0,0,1,2.91-.2A2.12,2.12,0,0,1,37.31,27l-1,1a.69.69,0,0,0,.41,1.18,5.22,5.22,0,0,0,5.47-7.06Z"/><path class="cls-2" d="M34.23,33.34a8.55,8.55,0,0,0-7.89,4.76h-9.9c-5.84,0-4.88-5.05-4.88-5.05H4a1.79,1.79,0,0,0-1.2,3.13l5.62,5,14.69,5.9L46.8,39.06s2.68-1.79.52-3.83c0,0-7.83,1.74-13.09-1.89"/><path class="cls-1" d="M46.8,35.42c3-.24,0,3.64,0,3.64L23.08,47.12,8.39,41.22l-5.62-5A1.79,1.79,0,0,1,4,33.05h7.59s-1,5.05,4.88,5.05h9.9a8.55,8.55,0,0,1,7.89-4.76S37,36.22,46.8,35.42Z"/><path class="cls-1" d="M26.34,38.1v1.38a2.77,2.77,0,0,1-2.77,2.76H20.3"/><line class="cls-1" x1="23.08" y1="47.12" x2="7.74" y2="52.66"/><path class="cls-1" d="M18.21,48.88s1.49,2.36.64,8.43a.46.46,0,0,0,.46.53H42.2a.45.45,0,0,0,.45-.56c-.81-3.41-.91-8,2.5-11.58A12.2,12.2,0,0,1,54,42.15a2.65,2.65,0,0,0,1.63-4.68l-4.35-3.63"/><line class="cls-1" x1="45.15" y1="45.7" x2="53.6" y2="53.77"/></g></g></svg>