<svg xmlns="http://www.w3.org/2000/svg" viewBox="0 0 76.6 61.42"><defs><style>.cls-1{fill:none;stroke:#102f3a;stroke-linecap:round;stroke-linejoin:round;}.cls-2{fill:#ffd3ae;}</style></defs><g id="Layer_2" data-name="Layer 2"><g id="Layer_1-2" data-name="Layer 1"><path class="cls-1" d="M28.55,18.24a12.83,12.83,0,1,0-20.89,10h0L5.07,38l1.69,3.43L3.68,43.76,5,47.1,2.09,49.38l1.39,3.38-3,1.79,3.33,6.37,6.31-3.73L17.8,30.91h0A12.84,12.84,0,0,0,28.55,18.24Z"/><circle class="cls-1" cx="16.93" cy="13.51" r="3.28"/><path class="cls-1" d="M20.35,19.12A10.71,10.71,0,0,0,27.68,22H28a10.68,10.68,0,0,0,5.83-1.92"/><path class="cls-1" d="M38.16,8.83A10.75,10.75,0,0,0,18.48,5.71,10.62,10.62,0,0,0,17,10.23"/><path class="cls-2" d="M76.1,33.09,57.54,51.66l-22.8-22.8-1.47-14a5.51,5.51,0,0,1,6.06-6.05l14,1.47Z"/><path class="cls-1" d="M76.1,33.09,57.54,51.66l-22.8-22.8-1.47-14a5.51,5.51,0,0,1,6.06-6.05l14,1.47Z"/><line class="cls-1" x1="47.22" y1="30.3" x2="54.92" y2="22.6"/><line class="cls-1" x1="54.36" y1="37.44" x2="62.06" y2="29.74"/></g></g></svg>