<svg xmlns="http://www.w3.org/2000/svg" viewBox="0 0 61.17 61.19"><defs><style>.cls-1{fill:#ffd3ae;}.cls-2{fill:none;stroke:#102f3a;stroke-linecap:round;stroke-linejoin:round;}.cls-3{fill:#102f3a;}</style></defs><g id="Layer_2" data-name="Layer 2"><g id="Layer_1-2" data-name="Layer 1"><path class="cls-1" d="M22.24,46.46l24.2-24.19A11,11,0,0,0,59.93,8.32l-5.34,5.35H50.9l-3.25-3.25V6.72L53,1.35A11,11,0,0,0,39.11,15.26L15.24,39.14A11,11,0,0,0,1.32,53.06L6.7,47.68h3.69l3.25,3.25v3.69L8.3,60a11,11,0,0,0,13.94-13.5Z"/><path class="cls-2" d="M22.24,46.46l24.2-24.19A11,11,0,0,0,59.93,8.32l-5.34,5.35H50.9l-3.25-3.25V6.72L53,1.35A11,11,0,0,0,39.11,15.26L15.24,39.14A11,11,0,0,0,1.32,53.06L6.7,47.68h3.69l3.25,3.25v3.69L8.3,60a11,11,0,0,0,13.94-13.5Z"/><circle class="cls-3" cx="41.63" cy="19.61" r="1.19"/><circle class="cls-3" cx="19.5" cy="41.74" r="1.19"/><line class="cls-2" x1="38.98" y1="22.25" x2="22.14" y2="39.1"/><polygon class="cls-2" points="12.85 8.98 12.67 6.05 4.37 0.5 0.5 4.37 6.05 12.67 8.98 12.85 25.25 29.12 29.12 25.25 12.85 8.98"/><path class="cls-1" d="M50.17,58.77,30.69,38,38,30.71,58.75,50.2a6.06,6.06,0,0,1,.14,8.71h0A6.07,6.07,0,0,1,50.17,58.77Z"/><path class="cls-2" d="M50.17,58.77,30.69,38,38,30.71,58.75,50.2a6.06,6.06,0,0,1,.14,8.71h0A6.07,6.07,0,0,1,50.17,58.77Z"/><line class="cls-2" x1="43.45" y1="31.65" x2="31.51" y2="43.59"/><line class="cls-2" x1="41.92" y1="42.07" x2="54.53" y2="54.67"/></g></g></svg>