<svg xmlns="http://www.w3.org/2000/svg" viewBox="0 0 85.84 60.97"><defs><style>.cls-1,.cls-4{fill:none;}.cls-1,.cls-3{stroke:#102f3a;stroke-linecap:round;stroke-linejoin:round;}.cls-2{fill:#ffd3ae;}.cls-3{fill:#fff;}.cls-5{fill:#102f3a;}</style></defs><g id="Layer_2" data-name="Layer 2"><g id="Layer_1-2" data-name="Layer 1"><path class="cls-1" d="M3.38,29.69,10.5,3.6a4.21,4.21,0,1,1,8.12,2.21l-7,25.72"/><circle class="cls-2" cx="14.53" cy="4.81" r="4.29"/><circle class="cls-1" cx="14.53" cy="4.81" r="4.29"/><path class="cls-2" d="M6.89,28.27h0a5,5,0,0,1,5,5v6.47a0,0,0,0,1,0,0H1.84a0,0,0,0,1,0,0V33.32A5,5,0,0,1,6.89,28.27Z"/><path class="cls-1" d="M6.89,28.27h0a5,5,0,0,1,5,5v6.47a0,0,0,0,1,0,0H1.84a0,0,0,0,1,0,0V33.32A5,5,0,0,1,6.89,28.27Z"/><polyline class="cls-1" points="11.94 39.79 33.04 39.79 33.04 46.8"/><polyline class="cls-1" points="29.3 46.8 35.42 46.8 35.42 51.8 29.3 51.8"/><line class="cls-1" x1="0.5" y1="51.8" x2="6.11" y2="51.8"/><circle class="cls-2" cx="17.76" cy="52.7" r="7.77"/><circle class="cls-3" cx="17.76" cy="52.7" r="2.6"/><circle class="cls-1" cx="17.76" cy="52.7" r="7.77"/><line class="cls-1" x1="18.12" y1="7.64" x2="33.69" y2="30.28"/><path class="cls-4" d="M84.64,50.78l-4.9,8.47-4.37-2.52L50.87,42.58a6.7,6.7,0,0,0,.91-3.38A6.8,6.8,0,0,0,39.1,35.78h0L33,32.28l4.89-8.48A5.19,5.19,0,0,1,45,21.91L82.74,43.69A5.19,5.19,0,0,1,84.64,50.78Z"/><path class="cls-1" d="M39.1,35.78,33,32.28l4.89-8.48A5.19,5.19,0,0,1,45,21.91L82.74,43.69a5.18,5.18,0,0,1,1.9,7.08l-4.89,8.48-4.37-2.52"/><line class="cls-1" x1="63.59" y1="49.92" x2="50.88" y2="42.58"/><path class="cls-2" d="M51.78,39.2a6.7,6.7,0,0,1-.91,3.38,6.8,6.8,0,1,1-11.78-6.8h0A6.8,6.8,0,0,1,51.78,39.2Z"/><circle class="cls-2" cx="69.42" cy="53.44" r="6.8"/><path class="cls-1" d="M51.78,39.2a6.7,6.7,0,0,1-.91,3.38,6.8,6.8,0,1,1-11.78-6.8h0A6.8,6.8,0,0,1,51.78,39.2Z"/><circle class="cls-1" cx="69.42" cy="53.44" r="6.8"/><rect class="cls-5" x="43.56" y="37.88" width="2.63" height="2.63" transform="translate(25.61 -17.19) rotate(30)"/><rect class="cls-5" x="68.24" y="52.12" width="2.63" height="2.63" transform="translate(36.04 -27.62) rotate(30)"/><rect class="cls-5" x="57.19" y="35.03" width="5.73" height="2.63" transform="translate(26.22 -25.16) rotate(30)"/><rect class="cls-5" x="64.33" y="38.25" width="2.63" height="2.63" transform="translate(28.58 -27.52) rotate(30)"/><polygon class="cls-2" points="79.92 42.06 82.94 29.97 62.62 18.24 52.21 26.06 79.92 42.06"/><polygon class="cls-1" points="79.92 42.06 82.94 29.97 62.62 18.24 52.21 26.06 79.92 42.06"/><line class="cls-1" x1="70.53" y1="36.64" x2="76.51" y2="26.25"/><rect class="cls-5" x="5.4" y="32.54" width="2.98" height="2.98"/></g></g></svg>