<svg xmlns="http://www.w3.org/2000/svg" viewBox="0 0 127.56 150.92"><defs><style>.cls-1,.cls-2{fill:none;stroke:#fff;stroke-width:3px;}.cls-1{stroke-linecap:round;stroke-linejoin:round;}.cls-2{stroke-miterlimit:10;}</style></defs><g id="Layer_2" data-name="Layer 2"><g id="Layer_1-2" data-name="Layer 1"><path class="cls-1" d="M24.82,44.57V34.88A33.39,33.39,0,0,1,58.2,1.5H68.73a33.39,33.39,0,0,1,33.39,33.38v9.5"/><path class="cls-1" d="M93.94,44.57v-7.9A27.85,27.85,0,0,0,66.1,8.83H60.83A27.84,27.84,0,0,0,33,36.67v7.9"/><path class="cls-1" d="M37.32,44.57V63.65H25.13A4.16,4.16,0,0,1,21,59.5V48.73a4.17,4.17,0,0,1,4.17-4.16Z"/><path class="cls-1" d="M106.87,48.73V59.5a4.15,4.15,0,0,1-4.16,4.15H90.51V44.57h12.2A4.16,4.16,0,0,1,106.87,48.73Z"/><path class="cls-1" d="M37.33,44.57s-.57-11.8,10-11.8S54.77,37,63.47,37s7.85-4.94,17.3-4.94,9.74,12.51,9.74,12.51"/><path class="cls-1" d="M37.32,63.65s3,15.59,22.54,24.93a10,10,0,0,0,8.59,0c19.42-9.34,22.06-24.92,22.06-24.92L75.69,68.92"/><path class="cls-1" d="M49.4,81.87V96.52L16.76,106.66A16.14,16.14,0,0,0,5.54,119.9l-4,29.52"/><path class="cls-1" d="M78.17,82.42v14.1l32.64,10.14A16.15,16.15,0,0,1,122,119.9l4,29.52"/><polyline class="cls-1" points="49.4 96.52 63.41 110.54 78.17 96.52"/><polyline class="cls-1" points="34.89 101.03 49.4 122.9 63.41 110.54 78.17 122.9 92.08 100.84"/><line class="cls-1" x1="63.41" y1="110.54" x2="63.41" y2="132.77"/><line class="cls-2" x1="63.41" y1="141.16" x2="63.41" y2="150.19"/><circle class="cls-1" cx="70.71" cy="70.43" r="5.31"/></g></g></svg>