<svg xmlns="http://www.w3.org/2000/svg" viewBox="0 0 14.29 14.29"><defs><style>.cls-1{fill:#e28000;fill-rule:evenodd;}</style></defs><g id="Layer_2" data-name="Layer 2"><g id="Layer_1-2" data-name="Layer 1"><path class="cls-1" d="M12.54,0a1.75,1.75,0,0,1,1.75,1.75V12.54a1.76,1.76,0,0,1-1.75,1.75H1.75A1.75,1.75,0,0,1,0,12.54V1.75A1.75,1.75,0,0,1,1.75,0ZM7.14,2.11A5,5,0,0,0,2,7.12,4.92,4.92,0,0,0,3.6,10.83a.37.37,0,0,1,.14.29l0,.92a.41.41,0,0,0,.58.36l1-.45a.45.45,0,0,1,.28,0,5.58,5.58,0,0,0,1.49.2,5,5,0,1,0,0-10ZM4,8.59,5.56,6.18A.78.78,0,0,1,6.68,6l1.21.91a.32.32,0,0,0,.37,0L9.89,5.64a.24.24,0,0,1,.35.33L8.73,8.37a.78.78,0,0,1-1.12.21L6.4,7.67a.3.3,0,0,0-.37,0L4.4,8.91A.24.24,0,0,1,4,8.59Z"/></g></g></svg>