<svg xmlns="http://www.w3.org/2000/svg" viewBox="0 0 151.69 145.47"><defs><style>.cls-1{fill:none;stroke:#fff;stroke-linecap:round;stroke-linejoin:round;stroke-width:3px;}</style></defs><g id="Layer_2" data-name="Layer 2"><g id="Layer_1-2" data-name="Layer 1"><path class="cls-1" d="M46.73,69v61.26A13.75,13.75,0,0,1,33,144H15.27A13.77,13.77,0,0,1,1.5,130.22V80.09A13.78,13.78,0,0,1,15.27,66.32H44.1A2.64,2.64,0,0,1,46.73,69Z"/><path class="cls-1" d="M150.19,87.31a11.16,11.16,0,0,1-11.13,11.14h-4a9.16,9.16,0,0,1,9.17,9.15,9.18,9.18,0,0,1-9.17,9.16h-8.15a10.36,10.36,0,0,1,0,20.71H60.06a13.33,13.33,0,0,1-13.33-13.34V71.3L54,69.11,72.6,28.8V5S84-5.8,94.77,10.66s-2.53,42.83-2.53,42.83h43.84a14.12,14.12,0,0,1,14.11,14.13,8.48,8.48,0,0,1-2.5,6,8.58,8.58,0,0,1-6.05,2.5h-2.58A11.15,11.15,0,0,1,150.19,87.31Z"/></g></g></svg>