<svg xmlns="http://www.w3.org/2000/svg" xmlns:xlink="http://www.w3.org/1999/xlink" viewBox="0 0 13.4 13.27"><defs><style>.cls-1{mask:url(#mask);filter:url(#luminosity-noclip-5);}.cls-17,.cls-19,.cls-2,.cls-4,.cls-6,.cls-8{mix-blend-mode:multiply;}.cls-2{fill:url(#linear-gradient);}.cls-3{mask:url(#mask-2);filter:url(#luminosity-noclip-6);}.cls-4{fill:url(#linear-gradient-2);}.cls-5{mask:url(#mask-3);filter:url(#luminosity-noclip-7);}.cls-6{fill:url(#linear-gradient-3);}.cls-7{mask:url(#mask-4);filter:url(#luminosity-noclip-8);}.cls-8{fill:url(#linear-gradient-4);}.cls-9{isolation:isolate;}.cls-10{fill:url(#linear-gradient-5);}.cls-11{fill:#fff;}.cls-11,.cls-28,.cls-30{mix-blend-mode:soft-light;}.cls-12{fill:url(#radial-gradient);}.cls-13{fill:url(#linear-gradient-6);}.cls-14{fill:url(#linear-gradient-7);}.cls-15{fill:url(#radial-gradient-2);}.cls-16{mask:url(#mask-5);}.cls-17,.cls-19,.cls-21{opacity:0.3;}.cls-17{fill:url(#linear-gradient-8);}.cls-18{mask:url(#mask-6);}.cls-19{fill:url(#linear-gradient-9);}.cls-20{fill:#ff9c09;}.cls-21,.cls-23,.cls-24,.cls-26{mix-blend-mode:color-burn;}.cls-22,.cls-23,.cls-24{fill:#767676;}.cls-23,.cls-26{opacity:0.2;}.cls-24{opacity:0.6;}.cls-25{fill:#e68a00;}.cls-26{fill:#a5a5a5;}.cls-27{mask:url(#mask-7);}.cls-28,.cls-30{opacity:0.8;}.cls-28{fill:url(#linear-gradient-10);}.cls-29{mask:url(#mask-8);}.cls-30{fill:url(#linear-gradient-11);}.cls-31{filter:url(#luminosity-noclip-4);}.cls-32{filter:url(#luminosity-noclip-3);}.cls-33{filter:url(#luminosity-noclip-2);}.cls-34{filter:url(#luminosity-noclip);}</style><filter id="luminosity-noclip" x="1.9" y="-7769.78" width="10.19" height="32766" filterUnits="userSpaceOnUse" color-interpolation-filters="sRGB"><feFlood flood-color="#fff" result="bg"/><feBlend in="SourceGraphic" in2="bg"/></filter><mask id="mask" x="1.9" y="-7769.78" width="10.19" height="32766" maskUnits="userSpaceOnUse"><g class="cls-34"/></mask><linearGradient id="linear-gradient" x1="3.05" y1="9.81" x2="10.9" y2="3.44" gradientUnits="userSpaceOnUse"><stop offset="0"/><stop offset="0.16" stop-color="#020202"/><stop offset="0.23" stop-color="#090909"/><stop offset="0.28" stop-color="#161616"/><stop offset="0.33" stop-color="#272727"/><stop offset="0.36" stop-color="#3f3f3f"/><stop offset="0.4" stop-color="#5b5b5b"/><stop offset="0.43" stop-color="#7d7d7d"/><stop offset="0.46" stop-color="#a5a5a5"/><stop offset="0.48" stop-color="#d0d0d0"/><stop offset="0.5" stop-color="#fff"/><stop offset="0.53" stop-color="#dcdcdc"/><stop offset="0.58" stop-color="#a9a9a9"/><stop offset="0.63" stop-color="#7c7c7c"/><stop offset="0.69" stop-color="#565656"/><stop offset="0.74" stop-color="#363636"/><stop offset="0.8" stop-color="#1e1e1e"/><stop offset="0.86" stop-color="#0d0d0d"/><stop offset="0.92" stop-color="#030303"/><stop offset="1"/></linearGradient><filter id="luminosity-noclip-2" x="1.9" y="-7769.78" width="10.19" height="32766" filterUnits="userSpaceOnUse" color-interpolation-filters="sRGB"><feFlood flood-color="#fff" result="bg"/><feBlend in="SourceGraphic" in2="bg"/></filter><mask id="mask-2" x="1.9" y="-7769.78" width="10.19" height="32766" maskUnits="userSpaceOnUse"><g class="cls-33"/></mask><linearGradient id="linear-gradient-2" x1="7.49" y1="1.53" x2="6.5" y2="11.7" gradientUnits="userSpaceOnUse"><stop offset="0"/><stop offset="0.5" stop-color="#fff"/><stop offset="0.53" stop-color="#dcdcdc"/><stop offset="0.58" stop-color="#a9a9a9"/><stop offset="0.63" stop-color="#7c7c7c"/><stop offset="0.69" stop-color="#565656"/><stop offset="0.74" stop-color="#363636"/><stop offset="0.8" stop-color="#1e1e1e"/><stop offset="0.86" stop-color="#0d0d0d"/><stop offset="0.92" stop-color="#030303"/><stop offset="1"/></linearGradient><filter id="luminosity-noclip-3" x="0.86" y="-7769.78" width="10.04" height="32766" filterUnits="userSpaceOnUse" color-interpolation-filters="sRGB"><feFlood flood-color="#fff" result="bg"/><feBlend in="SourceGraphic" in2="bg"/></filter><mask id="mask-3" x="0.86" y="-7769.78" width="10.04" height="32766" maskUnits="userSpaceOnUse"><g class="cls-32"/></mask><linearGradient id="linear-gradient-3" x1="10.18" y1="10.81" x2="2.11" y2="3.51" gradientUnits="userSpaceOnUse"><stop offset="0"/><stop offset="1" stop-color="#fff"/></linearGradient><filter id="luminosity-noclip-4" x="2.06" y="-7769.78" width="9.56" height="32766" filterUnits="userSpaceOnUse" color-interpolation-filters="sRGB"><feFlood flood-color="#fff" result="bg"/><feBlend in="SourceGraphic" in2="bg"/></filter><mask id="mask-4" x="2.06" y="-7769.78" width="9.56" height="32766" maskUnits="userSpaceOnUse"><g class="cls-31"/></mask><linearGradient id="linear-gradient-4" x1="10.03" y1="8.78" x2="4.27" y2="3.19" xlink:href="#linear-gradient-3"/><linearGradient id="linear-gradient-5" y1="6.63" x2="13.17" y2="6.63" gradientUnits="userSpaceOnUse"><stop offset="0" stop-color="#ffd845"/><stop offset="1" stop-color="#ff9c09"/></linearGradient><radialGradient id="radial-gradient" cx="6.79" cy="6.21" r="8.67" gradientUnits="userSpaceOnUse"><stop offset="0" stop-color="#ffd945"/><stop offset="1" stop-color="#ff9c09"/></radialGradient><linearGradient id="linear-gradient-6" x1="1.17" y1="6.54" x2="11.96" y2="6.54" xlink:href="#linear-gradient-5"/><linearGradient id="linear-gradient-7" x1="1.54" y1="6.61" x2="12.46" y2="6.61" gradientUnits="userSpaceOnUse"><stop offset="0" stop-color="#ff9c09"/><stop offset="1" stop-color="#ffe273"/></linearGradient><radialGradient id="radial-gradient-2" cx="7" cy="6.61" r="5.1" gradientUnits="userSpaceOnUse"><stop offset="0" stop-color="#ffde10"/><stop offset="1" stop-color="#ffc341"/></radialGradient><filter id="luminosity-noclip-5" x="1.9" y="1.51" width="10.19" height="10.19" filterUnits="userSpaceOnUse" color-interpolation-filters="sRGB"><feFlood flood-color="#fff" result="bg"/><feBlend in="SourceGraphic" in2="bg"/></filter><mask id="mask-5" x="1.9" y="1.51" width="10.19" height="10.19" maskUnits="userSpaceOnUse"><g class="cls-1"><path class="cls-2" d="M7,11.7a5.1,5.1,0,1,1,5.1-5.09A5.1,5.1,0,0,1,7,11.7Z"/></g></mask><linearGradient id="linear-gradient-8" x1="3.05" y1="9.81" x2="10.9" y2="3.44" gradientUnits="userSpaceOnUse"><stop offset="0" stop-color="#fff"/><stop offset="0.43" stop-color="#fff"/><stop offset="0.5" stop-color="#fff"/><stop offset="0.55" stop-color="#fff"/><stop offset="1" stop-color="#fff"/></linearGradient><filter id="luminosity-noclip-6" x="1.9" y="1.51" width="10.19" height="10.19" filterUnits="userSpaceOnUse" color-interpolation-filters="sRGB"><feFlood flood-color="#fff" result="bg"/><feBlend in="SourceGraphic" in2="bg"/></filter><mask id="mask-6" x="1.9" y="1.51" width="10.19" height="10.19" maskUnits="userSpaceOnUse"><g class="cls-3"><path class="cls-4" d="M12.1,6.61A5.1,5.1,0,1,1,7,1.51a5.18,5.18,0,0,1,2.29.54A5.12,5.12,0,0,1,12.1,6.61Z"/></g></mask><linearGradient id="linear-gradient-9" x1="7.49" y1="1.53" x2="6.5" y2="11.7" gradientUnits="userSpaceOnUse"><stop offset="0" stop-color="#fff"/><stop offset="0.5" stop-color="#fff"/><stop offset="0.55" stop-color="#fff"/><stop offset="1" stop-color="#fff"/></linearGradient><filter id="luminosity-noclip-7" x="0.86" y="3.1" width="10.04" height="8.11" filterUnits="userSpaceOnUse" color-interpolation-filters="sRGB"><feFlood flood-color="#fff" result="bg"/><feBlend in="SourceGraphic" in2="bg"/></filter><mask id="mask-7" x="0.86" y="3.1" width="10.04" height="8.11" maskUnits="userSpaceOnUse"><g class="cls-5"><path class="cls-6" d="M10.9,10.43h0a5.68,5.68,0,0,1-1,.79L9.87,11l0-.13h0l.21-.33-2.18-2-.24.3L6.19,8.05V7.87L2.27,4.71l-.15-.57h0l-.36.12-.08,0L1,3.84l0,0L.86,3.62l1.31-.27.06-.1v0h.09l.5-.13,0,.56h0L6.19,6.42v.19l1.44.93.24-.19L9.42,9.09h0l.62.56.34.31,0,0,.06.05h.27l0,.06Z"/></g></mask><linearGradient id="linear-gradient-10" x1="10.18" y1="10.81" x2="2.11" y2="3.51" gradientUnits="userSpaceOnUse"><stop offset="0" stop-color="#fff"/><stop offset="1" stop-color="#fff"/></linearGradient><filter id="luminosity-noclip-8" x="2.06" y="1.93" width="9.56" height="8.1" filterUnits="userSpaceOnUse" color-interpolation-filters="sRGB"><feFlood flood-color="#fff" result="bg"/><feBlend in="SourceGraphic" in2="bg"/></filter><mask id="mask-8" x="2.06" y="1.93" width="9.56" height="8.1" maskUnits="userSpaceOnUse"><g class="cls-7"><path class="cls-8" d="M11.62,9.52a3.62,3.62,0,0,1-.22.32h0a1.09,1.09,0,0,1-.13.17l-.15-.38v0h-.29L7.87,6.92l-.24.15L6.19,5.94V5.68L3.24,3.17,3.18,2.7l-.35,0H2.67s-.31-.34-.59-.63l0-.16L2.87,2a1,1,0,0,0,.2.33h.11l.47,0v.46L6.19,4.9v.38l1.44,1,.24-.1L11.06,9l.09.09h.31Z"/></g></mask><linearGradient id="linear-gradient-11" x1="10.03" y1="8.78" x2="4.27" y2="3.19" xlink:href="#linear-gradient-10"/></defs><g class="cls-9"><g id="Layer_2" data-name="Layer 2"><g id="Layer_1-2" data-name="Layer 1"><polygon class="cls-10" points="11.95 8.36 12.78 9.55 12.55 9.64 11.16 9.94 11.57 11.25 11.34 11.34 9.93 11.19 9.9 12.49 9.67 12.58 8.38 12 7.92 13.15 7.69 13.24 6.64 12.29 5.84 13.17 5.61 13.27 4.9 12.04 3.85 12.55 3.62 12.64 3.33 11.26 1.95 11.43 1.92 11.43 2.07 10.08 2.07 10.02 0.68 9.76 0.7 9.72 1.26 8.47 1.24 8.46 0.02 7.79 0.97 6.74 0.94 6.7 0 5.7 0.03 5.68 1.23 5 1.2 4.95 0.62 3.71 0.85 3.62 2.01 3.42 1.83 2.02 2.06 1.93 3.24 2.17 3.5 0.78 3.74 0.69 4.8 1.35 5.48 0.11 5.71 0.02 6.53 1.06 7.56 0.09 7.79 0 8.27 1.32 9.54 0.76 9.84 2.1 11.25 1.92 11.1 3.33 12.49 3.6 11.91 4.89 13.15 5.57 12.2 6.62 13.17 7.66 11.95 8.36"/><path class="cls-11" d="M3.26,9.86l-.94,1.36L2,11.43h0l.15-1.35.43-.24L1.07,9.57.7,9.73l.56-1.26h0l.4-.13L.44,7.65,0,7.79,1,6.73l0,0,.41-.11.08-.38-1-.63L0,5.68,1.23,5l0-.06.34-.1s.68,1.22.65,1.26S3.26,9.86,3.26,9.86Z"/><polygon class="cls-12" points="11.39 9.85 11.57 11.25 10.16 11.1 9.9 12.49 8.61 11.91 7.92 13.15 6.87 12.2 5.84 13.17 5.14 11.95 3.85 12.55 3.56 11.16 2.16 11.34 2.31 9.93 0.92 9.67 1.49 8.4 1.49 8.38 1.47 8.36 0.25 7.69 1.18 6.67 1.2 6.64 1.17 6.62 0.23 5.61 1.41 4.93 1.46 4.9 1.44 4.86 0.96 3.84 0.94 3.8 0.85 3.62 2.17 3.35 2.24 3.33 2.23 3.25 2.22 3.21 2.08 2.09 2.06 1.93 2.87 2.01 3.41 2.07 3.47 2.08 3.48 2.02 3.74 0.69 5.03 1.26 5.71 0.02 6.76 0.97 7.79 0 8.5 1.23 9.78 0.63 10.07 2.01 11.48 1.83 11.33 3.24 12.72 3.5 12.15 4.78 12.14 4.8 12.16 4.81 13.38 5.48 12.46 6.5 12.43 6.53 12.46 6.56 13.4 7.56 12.21 8.25 12.18 8.27 12.19 8.3 12.78 9.55 11.4 9.84 11.4 9.84 11.39 9.84 11.39 9.85"/><path class="cls-13" d="M12,6.62a5.66,5.66,0,0,1-.54,2.46l-.09.17a1.28,1.28,0,0,1-.11.2v0l-.1.17a1.3,1.3,0,0,1-.1.15,2.43,2.43,0,0,1-.24.32l-.1.12a4.31,4.31,0,0,1-.8.74l-.12.09a5.2,5.2,0,0,1-3,.91,5.84,5.84,0,0,1-1.57-.22h0A5.44,5.44,0,0,1,1.48,8.4a.06.06,0,0,0,0,0,5.17,5.17,0,0,1-.29-1.69.11.11,0,0,1,0,0v0a6.13,6.13,0,0,1,.24-1.67.19.19,0,0,0,0-.07,5.37,5.37,0,0,1,.21-.56l0-.08,0-.07a2.1,2.1,0,0,1,.13-.26,3.71,3.71,0,0,1,.33-.54l.06-.1h0l0,0a3.44,3.44,0,0,1,.28-.36l.13-.14h0l.06-.06c.06-.07.13-.13.19-.19l.15-.13.33-.27h0l.07,0a5.15,5.15,0,0,1,2-.84h0a7.81,7.81,0,0,1,1.83,0,2.44,2.44,0,0,1,.83.25.27.27,0,0,0,.23,0A5.34,5.34,0,0,1,10.7,3.1h0l.07.08h0a5.32,5.32,0,0,1,.79,1.37h0A5.62,5.62,0,0,1,12,6.62Z"/><path class="cls-14" d="M12.46,6.56V6.5a5.55,5.55,0,0,0-.3-1.69v0a5.48,5.48,0,0,0-4-3.51,7.35,7.35,0,0,0-.85-.11,4.8,4.8,0,0,0-1.64.14h0a5.32,5.32,0,0,0-2,1c-.17.13-.32.27-.47.41s-.25.26-.37.4a5.52,5.52,0,0,0-.69,1h0a5.47,5.47,0,0,0,3,7.59h0A5.3,5.3,0,0,0,7,12.07a5.43,5.43,0,0,0,2.93-.85h0a5.68,5.68,0,0,0,1-.79h0a4.59,4.59,0,0,0,.36-.41,1.09,1.09,0,0,0,.13-.17h0a3.62,3.62,0,0,0,.22-.32,5.57,5.57,0,0,0,.57-1.21l0-.06a5.57,5.57,0,0,0,.25-1.64Z"/><path class="cls-15" d="M7,11.7a5.1,5.1,0,1,1,5.1-5.09A5.1,5.1,0,0,1,7,11.7Z"/><g class="cls-16"><path class="cls-17" d="M7,11.7a5.1,5.1,0,1,1,5.1-5.09A5.1,5.1,0,0,1,7,11.7Z"/></g><g class="cls-18"><path class="cls-19" d="M12.1,6.61A5.1,5.1,0,1,1,7,1.51a5.18,5.18,0,0,1,2.29.54A5.12,5.12,0,0,1,12.1,6.61Z"/></g><path class="cls-20" d="M5.85,9.49V8.77h.34V4.33H5.78V3.54H7.87V8.77h.34v.72Z"/><g class="cls-21"><path class="cls-22" d="M7.87,8.77V3.54H5.78v.28H7.63V9H8v.45h.24V8.77Z"/></g><polygon class="cls-23" points="7.63 3.82 7.87 3.56 7.87 8.74 7.63 9.04 7.63 3.82"/><polygon class="cls-23" points="8.21 8.77 8.21 9.49 7.97 9.49 7.97 9.08 8.21 8.77"/><path class="cls-24" d="M12.1,6.61A5.11,5.11,0,0,1,7.21,11.7a5,5,0,0,0,4.55-5.08,5,5,0,0,0-5-5.09H6.54l.46,0A5.11,5.11,0,0,1,12.1,6.61Z"/><path class="cls-25" d="M11.15,8.82s-.15.36-.35.45a.43.43,0,0,1-.26.06h0a.19.19,0,0,1-.18-.12c0-.14.07-.32.27-.42l.15,0A1,1,0,0,1,11.15,8.82Z"/><path class="cls-25" d="M10.09,9.12a.14.14,0,0,1-.13,0,.58.58,0,0,1-.28-.25,1.28,1.28,0,0,1-.09-.57v0a.8.8,0,0,1,.45.29C10.18,8.8,10.2,9,10.09,9.12Z"/><path class="cls-25" d="M10.61,9.76s-.19.33-.4.38a.4.4,0,0,1-.18,0c-.13,0-.23-.07-.25-.17s.12-.31.33-.36h0A.89.89,0,0,1,10.61,9.76Z"/><path class="cls-25" d="M9.44,9.89H9.37a.49.49,0,0,1-.24-.38A1.12,1.12,0,0,1,9.22,9l0-.05a1.06,1.06,0,0,1,.32.48C9.62,9.63,9.56,9.85,9.44,9.89Z"/><path class="cls-25" d="M11.54,7.59a1.09,1.09,0,0,1-.26.52.5.5,0,0,1-.32.11.2.2,0,0,1-.13-.08c-.07-.13,0-.34.2-.47a.47.47,0,0,1,.31-.09h0A.72.72,0,0,1,11.54,7.59Z"/><path class="cls-25" d="M10.62,8.13a.2.2,0,0,1-.2.07.48.48,0,0,1-.25-.12,1.11,1.11,0,0,1-.25-.54H10a.71.71,0,0,1,.43.11C10.61,7.79,10.69,8,10.62,8.13Z"/><path class="cls-25" d="M11.11,5.57c-.08.21-.23.35-.35.32h0c-.12-.06-.15-.29-.06-.52A.88.88,0,0,1,11,5l.07,0A1.26,1.26,0,0,1,11.11,5.57Z"/><path class="cls-25" d="M10.58,6a.21.21,0,0,1-.25.12.45.45,0,0,1-.19,0,1.07,1.07,0,0,1-.35-.46,1.38,1.38,0,0,1,.3-.06.4.4,0,0,1,.22,0C10.51,5.66,10.63,5.85,10.58,6Z"/><path class="cls-25" d="M11.35,6.86c-.11.15-.25.24-.36.21l-.06,0c-.1-.09-.06-.32.07-.52a.81.81,0,0,1,.4-.24h.07A1.17,1.17,0,0,1,11.35,6.86Z"/><path class="cls-25" d="M10.65,7a.21.21,0,0,1-.23.1A.57.57,0,0,1,10.2,7a1.05,1.05,0,0,1-.3-.49.7.7,0,0,1,.2,0h0a.48.48,0,0,1,.31.06C10.61,6.7,10.71,6.9,10.65,7Z"/><path class="cls-25" d="M10.65,4.37c-.05.22-.17.37-.27.34h0c-.1,0-.15-.23-.11-.44a.77.77,0,0,1,.23-.36l0-.05A1,1,0,0,1,10.65,4.37Z"/><path class="cls-25" d="M10.3,5c0,.11-.14.17-.29.16l-.08,0c-.18,0-.36-.33-.36-.33a.82.82,0,0,1,.33-.12H10C10.2,4.73,10.33,4.87,10.3,5Z"/><path class="cls-25" d="M10.06,3.54c0,.19-.09.34-.19.33h0a.38.38,0,0,1-.12-.35.66.66,0,0,1,.15-.35l0,0A.84.84,0,0,1,10.06,3.54Z"/><path class="cls-25" d="M9.88,4.17c0,.12-.14.2-.31.18h0a.69.69,0,0,1-.33-.22A.8.8,0,0,1,9.54,4h.05C9.76,4,9.88,4.06,9.88,4.17Z"/><path class="cls-25" d="M9.56,3.6a.16.16,0,0,1-.18.07.56.56,0,0,1-.16-.07A.87.87,0,0,1,9,3.21h.12a.41.41,0,0,1,.27,0C9.53,3.35,9.61,3.51,9.56,3.6Z"/><path class="cls-20" d="M11.07,8.82s-.15.36-.34.45a.52.52,0,0,1-.19.06h0a.19.19,0,0,1-.18-.12c0-.14.07-.32.27-.42l.15,0A1,1,0,0,1,11.07,8.82Z"/><path class="cls-20" d="M10,9.12l-.06,0a.58.58,0,0,1-.28-.25,1.28,1.28,0,0,1-.09-.57A.69.69,0,0,1,10,8.6C10.1,8.8,10.12,9,10,9.12Z"/><path class="cls-20" d="M10.53,9.76s-.19.33-.4.38l-.1,0c-.13,0-.23-.07-.25-.17s.12-.31.33-.36h0A1,1,0,0,1,10.53,9.76Z"/><path class="cls-20" d="M9.37,9.88a.49.49,0,0,1-.24-.38A1.12,1.12,0,0,1,9.22,9a.92.92,0,0,1,.28.43C9.54,9.62,9.49,9.84,9.37,9.88Z"/><path class="cls-20" d="M11.47,7.59a1.14,1.14,0,0,1-.27.52.57.57,0,0,1-.24.11.2.2,0,0,1-.13-.08c-.07-.13,0-.34.2-.47a.47.47,0,0,1,.31-.09h.13Z"/><path class="cls-20" d="M10.54,8.13a.19.19,0,0,1-.12.07.48.48,0,0,1-.25-.12,1.11,1.11,0,0,1-.25-.54H10a.56.56,0,0,1,.35.11C10.53,7.79,10.61,8,10.54,8.13Z"/><path class="cls-20" d="M11,5.57a.5.5,0,0,1-.27.32h0c-.12-.06-.15-.29-.06-.52A.88.88,0,0,1,11,5,1.17,1.17,0,0,1,11,5.57Z"/><path class="cls-20" d="M10.5,6a.19.19,0,0,1-.17.12.45.45,0,0,1-.19,0,1.07,1.07,0,0,1-.35-.46,1.38,1.38,0,0,1,.3-.06l.15,0C10.43,5.66,10.55,5.85,10.5,6Z"/><path class="cls-20" d="M11.28,6.86a.5.5,0,0,1-.29.21l-.06,0c-.1-.09-.06-.32.07-.52a.81.81,0,0,1,.4-.24A1.27,1.27,0,0,1,11.28,6.86Z"/><path class="cls-20" d="M10.57,7a.18.18,0,0,1-.15.1A.57.57,0,0,1,10.2,7a1.05,1.05,0,0,1-.3-.49.7.7,0,0,1,.2,0h0a.46.46,0,0,1,.23.06C10.53,6.7,10.63,6.9,10.57,7Z"/><path class="cls-20" d="M10.57,4.37a.48.48,0,0,1-.2.34c-.1,0-.15-.23-.11-.44a.77.77,0,0,1,.23-.36A.91.91,0,0,1,10.57,4.37Z"/><path class="cls-20" d="M10.23,5a.23.23,0,0,1-.22.16l-.08,0c-.18,0-.36-.33-.36-.33a.82.82,0,0,1,.33-.12h0C10.12,4.73,10.25,4.87,10.23,5Z"/><path class="cls-20" d="M10,3.54a.43.43,0,0,1-.14.33.38.38,0,0,1-.12-.35.66.66,0,0,1,.15-.35A.81.81,0,0,1,10,3.54Z"/><path class="cls-20" d="M9.8,4.17c0,.1-.11.17-.24.18a.69.69,0,0,1-.33-.22A.8.8,0,0,1,9.54,4C9.69,4,9.81,4.07,9.8,4.17Z"/><path class="cls-20" d="M9.48,3.6a.13.13,0,0,1-.1.07.56.56,0,0,1-.16-.07A.87.87,0,0,1,9,3.21h.12a.35.35,0,0,1,.2,0C9.45,3.35,9.53,3.51,9.48,3.6Z"/><path class="cls-25" d="M3.61,9.14c0,.14-.25.17-.44.07h0a1.25,1.25,0,0,1-.32-.47.84.84,0,0,1,.49-.05l0,0C3.54,8.8,3.66,9,3.61,9.14Z"/><path class="cls-25" d="M4.29,8.82c-.12.21-.31.31-.41.23h0a.52.52,0,0,1,0-.54.78.78,0,0,1,.39-.28l.07,0A1.29,1.29,0,0,1,4.29,8.82Z"/><path class="cls-25" d="M4.2,10c0,.15-.23.22-.44.16l-.09,0a1.21,1.21,0,0,1-.31-.36.79.79,0,0,1,.51-.14l.06,0A.37.37,0,0,1,4.2,10Z"/><path class="cls-25" d="M4.84,9.45c0,.26-.18.43-.31.4l0,0a.58.58,0,0,1-.08-.5,1,1,0,0,1,.28-.45l.05,0A1.33,1.33,0,0,1,4.84,9.45Z"/><path class="cls-25" d="M3.14,8c-.06.12-.22.12-.38,0h0L2.69,8a1.19,1.19,0,0,1-.26-.55.89.89,0,0,1,.41,0l.1,0C3.12,7.67,3.21,7.89,3.14,8Z"/><path class="cls-25" d="M4.05,7.39A1.16,1.16,0,0,1,3.8,8c-.15.14-.32.17-.41.09l0,0c-.08-.13,0-.35.18-.51A.71.71,0,0,1,4,7.39Z"/><path class="cls-25" d="M3.23,5.65a.18.18,0,0,1-.17,0,.62.62,0,0,1-.19-.3,1.24,1.24,0,0,1,0-.63h0a1,1,0,0,1,.39.42C3.37,5.34,3.34,5.59,3.23,5.65Z"/><path class="cls-25" d="M4.18,5.35a1.2,1.2,0,0,1-.34.48.39.39,0,0,1-.39,0,.16.16,0,0,1-.06-.08c-.05-.14.07-.34.27-.44a.66.66,0,0,1,.44,0Z"/><path class="cls-25" d="M3,6.87a.2.2,0,0,1-.24,0,.66.66,0,0,1-.18-.19,1.26,1.26,0,0,1-.12-.62,1.08,1.08,0,0,1,.21.07.65.65,0,0,1,.26.2C3.11,6.52,3.14,6.77,3,6.87Z"/><path class="cls-25" d="M4.07,6.35a1.15,1.15,0,0,1-.3.52.36.36,0,0,1-.4,0l-.05-.06a.43.43,0,0,1,.23-.47A.64.64,0,0,1,4,6.33Z"/><path class="cls-25" d="M3.6,4.42a.14.14,0,0,1-.12,0,.53.53,0,0,1-.15-.32,1.08,1.08,0,0,1,.09-.52v0A.94.94,0,0,1,3.71,4C3.76,4.19,3.7,4.39,3.6,4.42Z"/><path class="cls-25" d="M4.4,4.52s-.17.29-.36.35a.37.37,0,0,1-.3,0,.16.16,0,0,1-.07-.11c0-.13.1-.28.29-.33a.53.53,0,0,1,.3.05Z"/><path class="cls-25" d="M4.1,3.55a.12.12,0,0,1-.08,0,.52.52,0,0,1-.11-.31A1,1,0,0,1,4,2.79l0,0a.87.87,0,0,1,.2.42C4.27,3.37,4.2,3.54,4.1,3.55Z"/><path class="cls-25" d="M4.75,3.81s-.19.23-.35.24A.35.35,0,0,1,4.17,4a.17.17,0,0,1-.07-.13c0-.12.12-.22.28-.23a.21.21,0,0,1,.13,0A1,1,0,0,1,4.75,3.81Z"/><path class="cls-25" d="M5,2.85a.89.89,0,0,1-.22.4c-.12.09-.26.11-.32,0s0,0,0,0,0-.26.16-.37a.5.5,0,0,1,.31-.05Z"/><path class="cls-20" d="M3.54,9.1c0,.13-.22.17-.4.1a1.25,1.25,0,0,1-.32-.47.84.84,0,0,1,.49-.05A.43.43,0,0,1,3.54,9.1Z"/><path class="cls-20" d="M4.21,8.78C4.11,9,4,9.05,3.87,9a.52.52,0,0,1,0-.54.78.78,0,0,1,.39-.28A1.19,1.19,0,0,1,4.21,8.78Z"/><path class="cls-20" d="M4.12,9.92c0,.15-.22.22-.43.16h0a1.21,1.21,0,0,1-.31-.36.79.79,0,0,1,.51-.14l.06,0A.34.34,0,0,1,4.12,9.92Z"/><path class="cls-20" d="M4.77,9.41c0,.24-.18.42-.29.41a.58.58,0,0,1-.08-.5,1,1,0,0,1,.28-.45A1.14,1.14,0,0,1,4.77,9.41Z"/><path class="cls-20" d="M3.07,8c0,.09-.17.11-.31,0h0L2.69,8a1.19,1.19,0,0,1-.26-.55.89.89,0,0,1,.41,0h0C3.05,7.63,3.14,7.85,3.07,8Z"/><path class="cls-20" d="M4,7.39a1.17,1.17,0,0,1-.24.53A.43.43,0,0,1,3.39,8l0,0c-.08-.13,0-.35.18-.51A.71.71,0,0,1,4,7.39Z"/><path class="cls-20" d="M3.15,5.61a.14.14,0,0,1-.09,0,.62.62,0,0,1-.19-.3,1.24,1.24,0,0,1,0-.63.91.91,0,0,1,.32.37C3.29,5.31,3.27,5.55,3.15,5.61Z"/><path class="cls-20" d="M4.1,5.32c0,.06-.16.38-.34.47a.45.45,0,0,1-.31,0,.16.16,0,0,1-.06-.08c-.05-.14.07-.34.27-.44A.66.66,0,0,1,4.1,5.32Z"/><path class="cls-20" d="M3,6.83a.15.15,0,0,1-.16,0,.66.66,0,0,1-.18-.19,1.26,1.26,0,0,1-.12-.62,1.08,1.08,0,0,1,.21.07.56.56,0,0,1,.18.16C3,6.49,3.06,6.73,3,6.83Z"/><path class="cls-20" d="M4,6.33a1.09,1.09,0,0,1-.29.5.45.45,0,0,1-.33.09l-.05-.06a.43.43,0,0,1,.23-.47A.64.64,0,0,1,4,6.33Z"/><path class="cls-20" d="M3.52,4.38h0a.53.53,0,0,1-.15-.32,1.08,1.08,0,0,1,.09-.52,1,1,0,0,1,.22.37C3.68,4.15,3.63,4.36,3.52,4.38Z"/><path class="cls-20" d="M4.33,4.48s-.18.3-.36.35a.45.45,0,0,1-.23,0,.16.16,0,0,1-.07-.11c0-.13.1-.28.29-.33a.53.53,0,0,1,.3.05Z"/><path class="cls-20" d="M4,3.51H4a.52.52,0,0,1-.11-.31A1,1,0,0,1,4,2.79a.74.74,0,0,1,.14.34C4.19,3.33,4.12,3.5,4,3.51Z"/><path class="cls-20" d="M4.67,3.77S4.49,4,4.33,4a.41.41,0,0,1-.16,0,.17.17,0,0,1-.07-.13c0-.12.12-.22.28-.23a.21.21,0,0,1,.13,0A.82.82,0,0,1,4.67,3.77Z"/><path class="cls-20" d="M4.89,2.84a.81.81,0,0,1-.21.38.33.33,0,0,1-.24.07s0,0,0,0,0-.26.16-.37A.5.5,0,0,1,4.89,2.84Z"/><path class="cls-26" d="M12.1,6.61A5.1,5.1,0,0,1,7,11.7H6.59A5.11,5.11,0,0,1,2.32,8.63c7.56,1.76,7.12-5.18,7-6.41a.42.42,0,0,0,0-.14,5,5,0,0,1,2.14,2.1A5.1,5.1,0,0,1,12.1,6.61Z"/><path class="cls-23" d="M12.1,6.61A5.1,5.1,0,0,1,7,11.7H6.59c3.45-1.2,4.5-4.88,4.82-7l.23-.23A4.73,4.73,0,0,1,12.1,6.61Z"/><g class="cls-27"><path class="cls-28" d="M10.9,10.43h0a5.68,5.68,0,0,1-1,.79L9.87,11l0-.13h0l.21-.33-2.18-2-.24.3L6.19,8.05V7.87L2.27,4.71l-.15-.57h0l-.36.12-.08,0L1,3.84l0,0L.86,3.62l1.31-.27.06-.1v0h.09l.5-.13,0,.56h0L6.19,6.42v.19l1.44.93.24-.19L9.42,9.09h0l.62.56.34.31,0,0,.06.05h.27l0,.06Z"/></g><g class="cls-29"><path class="cls-30" d="M11.62,9.52a3.62,3.62,0,0,1-.22.32h0a1.09,1.09,0,0,1-.13.17l-.15-.38v0h-.29L7.87,6.92l-.24.15L6.19,5.94V5.68L3.24,3.17,3.18,2.7l-.35,0H2.67s-.31-.34-.59-.63l0-.16L2.87,2a1,1,0,0,0,.2.33h.11l.47,0v.46L6.19,4.9v.38l1.44,1,.24-.1L11.06,9l.09.09h.31Z"/></g></g></g></g></svg>