<?xml version="1.0" encoding="utf-8"?>
<!-- Generator: Adobe Illustrator 24.0.1, SVG Export Plug-In . SVG Version: 6.00 Build 0)  -->
<svg version="1.1" id="Layer_1" xmlns="http://www.w3.org/2000/svg" xmlns:xlink="http://www.w3.org/1999/xlink" x="0px" y="0px"
	 viewBox="0 0 612 549.93" style="enable-background:new 0 0 612 549.93;" xml:space="preserve">
<style type="text/css">
	.st0{fill:#3B7DC0;}
	.st1{fill:#4DA750;}
	.st2{fill:#DE3A35;}
	.st3{fill:#BE2929;}
	.st4{fill:#F2B82A;}
	.st5{clip-path:url(#SVGID_2_);fill:url(#SVGID_3_);}
	.st6{fill-rule:evenodd;clip-rule:evenodd;fill:#FFFFFF;}
	.st7{fill:#4EB966;}
	.st8{fill:#E38225;}
	.st9{fill:#AE6828;}
	.st10{opacity:0.4;}
	.st11{clip-path:url(#SVGID_5_);}
	.st12{fill:#6A6A6A;}
	.st13{opacity:0.2;}
	.st14{clip-path:url(#SVGID_7_);}
	.st15{fill:#1E2D5E;}
	.st16{fill:#FFFFFF;}
	.st17{fill:#D27728;}
	.st18{fill:#0D6A96;}
	.st19{fill:#2081C4;}
	.st20{fill:#C4C4C4;}
	.st21{fill:#831618;}
	.st22{fill:#DDDDDD;}
	.st23{fill:#A71E22;}
	.st24{fill:#804F33;}
	.st25{fill:#69341B;}
	.st26{clip-path:url(#SVGID_9_);fill:#C4C4C4;}
	.st27{clip-path:url(#SVGID_11_);fill:#C4C4C4;}
	.st28{clip-path:url(#SVGID_13_);fill:#C4C4C4;}
	.st29{fill:#511E0B;}
	.st30{clip-path:url(#SVGID_15_);fill:#C4C4C4;}
	.st31{fill:#D2D2D2;}
	.st32{fill:#818181;}
	.st33{fill:#ACABAB;}
	.st34{clip-path:url(#SVGID_17_);fill:#D2D2D2;}
	.st35{clip-path:url(#SVGID_19_);fill:#D2D2D2;}
	.st36{clip-path:url(#SVGID_21_);fill:#D2D2D2;}
	.st37{clip-path:url(#SVGID_23_);fill:#D2D2D2;}
	.st38{clip-path:url(#SVGID_25_);fill:#B7B7B8;}
	.st39{fill:#FAA731;}
	.st40{fill:#BB6D29;}
	.st41{clip-path:url(#SVGID_27_);fill:url(#SVGID_28_);}
	.st42{fill:#F78D1E;}
	.st43{clip-path:url(#SVGID_30_);fill:#B7B7B8;}
	.st44{fill:#4E4E4E;}
	.st45{fill:#1F2020;}
	.st46{fill:#292929;}
	.st47{fill:#44494E;}
	.st48{fill:#2D3133;}
	.st49{fill:#212426;}
	.st50{fill:#9E4523;}
	.st51{fill:#F9A368;}
	.st52{fill:#C08657;}
	.st53{fill:#FCBE89;}
	.st54{fill:#E5B123;}
	.st55{fill:#CC9E2C;}
	.st56{fill:#FFCB18;}
	.st57{fill:#DBA927;}
	.st58{clip-path:url(#SVGID_32_);fill:#B7B7B8;}
	.st59{fill:#FAB89F;}
	.st60{fill:#DDAE92;}
	.st61{fill:#204574;}
	.st62{fill:#0D76AF;}
	.st63{fill:#D77927;}
	.st64{fill:#287EC2;}
	.st65{fill:#F9A785;}
	.st66{fill:#3F1212;}
	.st67{fill:#321111;}
	.st68{fill:#56100F;}
	.st69{fill:#6C0D0F;}
	.st70{clip-path:url(#SVGID_34_);fill:url(#SVGID_35_);}
	.st71{fill:#232323;}
	.st72{fill:#CBCBCB;}
	.st73{fill:#474747;}
	.st74{clip-path:url(#SVGID_37_);fill:url(#SVGID_38_);}
	.st75{clip-path:url(#SVGID_40_);fill:url(#SVGID_41_);}
	.st76{fill:#AEAEAE;}
	.st77{clip-path:url(#SVGID_43_);fill:url(#SVGID_44_);}
	.st78{clip-path:url(#SVGID_46_);fill:url(#SVGID_47_);}
	.st79{fill:#333333;}
	.st80{clip-path:url(#SVGID_49_);fill:url(#SVGID_50_);}
	.st81{clip-path:url(#SVGID_52_);fill:url(#SVGID_53_);}
	.st82{clip-path:url(#SVGID_55_);fill:url(#SVGID_56_);}
	.st83{fill:#B7B7B8;}
	.st84{fill:#898989;}
	.st85{clip-path:url(#SVGID_58_);fill:#B7B7B8;}
	.st86{fill:#5E5F5F;}
	.st87{fill:#939393;}
	.st88{fill:#BBBBBB;}
	.st89{fill:#80943A;}
	.st90{fill:#D3D3D3;}
	.st91{fill:#A5C839;}
	.st92{fill:#6B6C6C;}
	.st93{fill:#9B9B9B;}
	.st94{fill:#8BD7F8;}
	.st95{fill:#5B8187;}
	.st96{clip-path:url(#SVGID_60_);fill:#676767;}
	.st97{clip-path:url(#SVGID_62_);fill:#676767;}
	.st98{fill:#82B7D1;}
	.st99{fill:#AA8D80;}
	.st100{fill:#6DB8C4;}
	.st101{fill:#7098AD;}
	.st102{clip-path:url(#SVGID_64_);fill:#676767;}
	.st103{clip-path:url(#SVGID_66_);fill:#676767;}
	.st104{clip-path:url(#SVGID_68_);fill:#676767;}
	.st105{clip-path:url(#SVGID_70_);fill:#3E3E3E;}
	.st106{fill:#991B1E;}
	.st107{clip-path:url(#SVGID_72_);fill:#676767;}
	.st108{clip-path:url(#SVGID_74_);fill:#676767;}
	.st109{clip-path:url(#SVGID_76_);fill:#676767;}
	.st110{clip-path:url(#SVGID_78_);fill:#676767;}
	.st111{fill:#9C8154;}
	.st112{fill:#8D8176;}
	.st113{fill:#756456;}
	.st114{fill:#BA9981;}
	.st115{fill:#BA9870;}
	.st116{fill:#5F5146;}
	.st117{fill:#6F5F4D;}
	.st118{fill:#413222;}
	.st119{fill:#44645B;}
	.st120{fill:#598077;}
	.st121{fill:#F37F81;}
	.st122{fill:#EF3D39;}
	.st123{clip-path:url(#SVGID_80_);fill:#676767;}
	.st124{clip-path:url(#SVGID_82_);fill:#676767;}
	.st125{fill:#E7A985;}
	.st126{fill:#E6BCA4;}
	.st127{clip-path:url(#SVGID_84_);fill:#B7B7B8;}
	.st128{fill:#E4B38F;}
	.st129{fill:#D09680;}
	.st130{clip-path:url(#SVGID_86_);fill:url(#SVGID_87_);}
	.st131{fill:#9E9E9E;}
	.st132{fill-rule:evenodd;clip-rule:evenodd;fill:#E38225;}
	.st133{clip-path:url(#SVGID_89_);}
	.st134{fill:#E1E4E9;}
</style>
<g>
	<path class="st8" d="M565.07,457.58v37.35c0,22.99-18.67,41.51-41.51,41.51c-262.77,0-476.63-213.7-476.63-476.47
		c0-22.99,18.67-41.66,41.66-41.66h45.83c-7.25,104.46,25.31,187.63,58.33,243.64c0.46,0.93,0.92,1.7,1.39,2.47
		c7.87,13.89,16.05,26.54,24.84,38.27c0,0,0.15,0.15,0.31,0.46c10.49,14.04,21.76,26.69,34.25,38.42c0.93,0.77,1.39,1.23,1.39,1.23
		c2.78,2.63,5.4,5.09,8.33,7.56c4.78,4.17,10.03,8.33,15.74,12.65c4.94,3.86,10.03,7.56,15.43,10.95c1.85,1.24,3.7,2.47,5.55,3.71
		c9.88,6.48,20.52,12.65,31.78,18.67l0.15-0.16C385.46,424.4,461.22,449.86,565.07,457.58"/>
	<path class="st9" d="M229.77,194.8l-8.8,11.73l-33.94,45.05c1.85,3.55,3.7,6.95,5.71,10.34c-33.02-56.01-65.58-139.18-58.33-243.64
		h49.22c22.99,0,41.66,18.67,41.66,41.66c0,31.63,4.94,62.8,14.66,92.42C244.74,167.65,240.88,183.85,229.77,194.8"/>
	<path class="st9" d="M565.07,400.02v57.56c-103.84-7.71-179.6-33.18-233.15-61.42l58.17-43.82c8.8-9.1,26.54-13.58,41.04-8.64
		c29.47,9.73,60.64,14.66,92.42,14.66C546.4,358.37,565.07,377.04,565.07,400.02"/>
</g>
</svg>
