<svg xmlns="http://www.w3.org/2000/svg" viewBox="0 0 14.1 14.1"><defs><style>.cls-1{fill:#e28000;}</style></defs><g id="Layer_2" data-name="Layer 2"><g id="Layer_1-2" data-name="Layer 1"><path class="cls-1" d="M0,1.6V12.5a1.6,1.6,0,0,0,1.6,1.6H12.5a1.6,1.6,0,0,0,1.6-1.6V1.6A1.6,1.6,0,0,0,12.5,0H1.6A1.6,1.6,0,0,0,0,1.6Zm7.12,9.12a3.89,3.89,0,0,1-1.41-.27,1.55,1.55,0,0,0-1,0l-1.49.47.47-1.37a1.54,1.54,0,0,0,0-1.1A3.73,3.73,0,0,1,3.32,7s0-.11,0-.16a3.8,3.8,0,0,1,7.59.07V7A3.79,3.79,0,0,1,7.12,10.72Z"/><path class="cls-1" d="M7.12,3.78A3.2,3.2,0,0,0,3.94,6.64c0,.11,0,.21,0,.31a3.09,3.09,0,0,0,.61,1.86L4.14,10l1.22-.4a3.15,3.15,0,0,0,1.76.53A3.18,3.18,0,0,0,10.31,7a2.18,2.18,0,0,0,0-.25A3.18,3.18,0,0,0,7.12,3.78ZM9,8.26a.94.94,0,0,1-.62.44c-.17,0-.17.14-1.12-.23a3.81,3.81,0,0,1-1.59-1.4,1.81,1.81,0,0,1-.33-.64,1.12,1.12,0,0,1-.05-.31,1,1,0,0,1,.32-.77.34.34,0,0,1,.25-.12H6c.06,0,.13,0,.21.15l.29.69a.18.18,0,0,1,0,.16s0,.08-.06.11,0,0,0,0a1.15,1.15,0,0,1-.14.17.14.14,0,0,0,0,.19,2.58,2.58,0,0,0,.52.63,2.19,2.19,0,0,0,.75.46.14.14,0,0,0,.2,0c0-.06.23-.27.29-.36a.15.15,0,0,1,.21,0c.09,0,.55.26.64.3s.16.07.18.11A.8.8,0,0,1,9,8.26Z"/></g></g></svg>