<svg xmlns="http://www.w3.org/2000/svg" xmlns:xlink="http://www.w3.org/1999/xlink" viewBox="0 0 41.72 39.11"><defs><style>.cls-1{isolation:isolate;}.cls-2,.cls-5{fill:#b5b5b5;}.cls-3{fill:gray;}.cls-4{fill:#878787;}.cls-5{mix-blend-mode:multiply;}.cls-6{fill:#5e5e5e;}.cls-7{fill:#a8a8a8;}.cls-8{fill:#c2c2c2;}.cls-9{fill:#919191;}.cls-10{fill:#ffa266;}.cls-11{fill:#b8b8b8;}.cls-12{fill:#809100;}.cls-13{fill:#ffbc87;}.cls-14{fill:#d1d1d1;}.cls-15{fill:#a4c600;}.cls-16{fill:#6b6b6b;}.cls-17{fill:#999;}.cls-18{fill:#dbdbdb;}.cls-19{fill:#80ddff;}.cls-20{fill:#5a8085;}.cls-21{fill:#666;}.cls-21,.cls-26{mix-blend-mode:screen;}.cls-22{fill:#80b4cf;}.cls-23{fill:#a88b80;}.cls-24{fill:#6bb6c2;}.cls-25{fill:#7095ab;}.cls-26{fill:#3d3d3d;}.cls-27{fill:#970100;}.cls-28{fill:#998054;}.cls-29{fill:#8a8075;}.cls-30{fill:#756355;}.cls-31{fill:#b89780;}.cls-32{fill:#b89670;}.cls-33{fill:#5e5045;}.cls-34{fill:#6e5e4c;}.cls-35{fill:#403122;}.cls-36{fill:#43635a;}.cls-37{fill:#588076;}.cls-38{fill:#ff8080;}.cls-39{fill:#ff3433;}.cls-40{fill:#cfcfcf;}.cls-41{fill:#fff;}.cls-42{fill:#e4a683;}.cls-43{fill:#0876ad;}.cls-44{fill:#204473;}.cls-45{fill:#0980cf;}.cls-46{fill:#e5baa2;}.cls-47{fill:#212426;}.cls-48{fill:#42484d;}.cls-49{fill:#2c3033;}.cls-50{fill:#ff8b00;}.cls-51{fill:#d67700;}.cls-52{fill:#e2b18d;}.cls-53{fill:#cf9480;}.cls-54{fill:#450000;}.cls-55{fill:#360000;}.cls-56{fill:#6e0000;}.cls-57{fill:#ffa62e;}.cls-58{fill:#ba6b00;}.cls-59{fill:url(#Áåçûìÿííûé_ãðàäèåíò_15);}.cls-60{fill:#9c9c9c;}.cls-61{fill:#dbab90;}</style><linearGradient id="Áåçûìÿííûé_ãðàäèåíò_15" x1="317.57" y1="117.41" x2="316.71" y2="122.11" gradientTransform="translate(-263.73 -187.69) rotate(13.46)" gradientUnits="userSpaceOnUse"><stop offset="0" stop-color="#d67700"/><stop offset="1" stop-color="#ba6b00"/></linearGradient></defs><g class="cls-1"><g id="Layer_2" data-name="Layer 2"><g id="Layer_1-2" data-name="Layer 1"><polygon class="cls-2" points="41.72 21.78 26.39 30.44 10.55 21.26 25.87 12.6 41.72 21.78"/><polygon class="cls-3" points="10.55 21.25 10.55 21.98 26.39 31.16 26.39 30.43 10.55 21.25"/><polygon class="cls-4" points="41.72 21.78 41.72 22.51 26.39 31.17 26.39 30.44 41.72 21.78"/><polygon class="cls-5" points="31.88 24.98 30.97 24.98 28.18 24.27 25.38 25.89 24.26 26 13.25 19.73 17 17.59 28.7 21.18 31.88 24.98"/><path class="cls-6" d="M25.4,7.42v6.31l9.47,5.46V12.88Zm3.3,7.4-2-1.14V10l2,1.13Zm4.6,2.64-2-1.14V12.63l2,1.12Z"/><path class="cls-3" d="M15.88,12.92v6.31l1.42-.82L19.71,17l5.69-3.29V7.42Z"/><polygon class="cls-7" points="25.35 25.37 15.88 19.9 15.88 19.23 25.4 14.4 34.87 19.19 34.87 19.87 25.35 25.37"/><polygon class="cls-2" points="25.35 24.69 15.88 19.23 25.4 13.72 34.87 19.19 25.35 24.69"/><polygon class="cls-8" points="25.35 25.37 25.35 24.69 34.87 19.19 34.87 19.87 25.35 25.37"/><path class="cls-6" d="M25.41,13.58,19.54,16.7v.42l3.64,2.11,5.88-3.39v-.42Z"/><polygon class="cls-3" points="23.18 19.23 23.18 18.8 29.06 15.42 29.06 15.84 23.18 19.23"/><polygon class="cls-3" points="19.53 21.34 19.53 20.91 23.19 18.8 23.19 19.22 19.53 21.34"/><polygon class="cls-2" points="31.15 23.91 28.09 23.11 28.9 21.05 32.47 20.58 33.86 22.35 31.15 23.91"/><polygon class="cls-7" points="31.15 23.91 31.15 24.55 28.09 23.79 28.09 23.11 31.15 23.91"/><polygon class="cls-9" points="33.86 22.35 33.86 23 31.15 24.55 31.15 23.91 33.86 22.35"/><path class="cls-3" d="M23.16,18.81v.42L29,22.59l5.88-3.4v-.42L29,15.67Z"/><polygon class="cls-6" points="29 22.59 29 22.17 23.16 18.81 23.16 19.23 29 22.59"/><path class="cls-3" d="M19.52,20.91v.42l5.83,3.36L29,22.59v-.42l-5.83-3.1ZM28,22.38l-2.66,1.53-4.84-2.79,2.65-1.53Z"/><polygon class="cls-6" points="15.88 18.81 15.88 19.23 25.35 24.69 25.35 24.27 15.88 18.81"/><path class="cls-9" d="M34.87,18.77l-5.81-3.35-3.65-2.11-9.52,5.5,9.46,5.46,2.74-1.58,3.06.8,2.71-1.56-1.4-1.76Z"/><polygon class="cls-6" points="31.15 23.5 31.15 23.91 28.09 23.11 28.09 22.69 31.15 23.5"/><polygon class="cls-3" points="33.86 21.93 33.86 22.35 31.15 23.91 31.15 23.5 33.86 21.93"/><path class="cls-10" d="M15.89,12.92v6.31l9.46,5.46v-6.3Z"/><path class="cls-11" d="M15.89,17.11V19l9.46,5.47V22.58Z"/><path class="cls-12" d="M15.89,17.39v1.84l9.46,5.46V22.85Z"/><path class="cls-13" d="M25.35,18.39v6.3l.42-.24,2.32-1.34V16.8Z"/><path class="cls-14" d="M25.35,22.57h0v1.84h0l.42-.24,2.32-1.34V21Z"/><path class="cls-15" d="M25.35,22.85h0v1.84h0l.42-.24,2.32-1.34V21.27Z"/><polygon class="cls-16" points="27.85 22.29 27.85 17.91 25.57 19.23 25.57 23.61 27.85 22.29"/><polygon class="cls-8" points="27.93 22.34 27.93 17.96 25.66 19.28 25.66 23.66 27.93 22.34"/><polygon class="cls-17" points="25.85 19.39 25.85 23.32 26.56 22.9 26.75 22.79 27.73 22.22 27.73 18.3 26.75 18.87 26.56 18.98 26.37 19.09 25.85 19.39"/><polygon class="cls-18" points="25.85 23.1 27.54 22.11 27.73 22.22 25.85 23.32 25.85 23.1"/><polygon class="cls-19" points="27.54 20.51 27.54 22.11 27.54 22.11 26.09 22.96 25.86 23.1 25.86 22.87 25.85 21.21 25.85 19.39 27.33 18.53 27.33 18.53 27.5 18.44 27.54 18.41 27.54 20.51"/><polygon class="cls-20" points="27.54 18.41 27.54 22.11 27.51 22.1 27.33 22 27.33 18.53 27.5 18.44 27.54 18.41"/><polygon class="cls-21" points="27.5 18.44 27.33 18.72 25.85 21.21 25.85 19.39 27.33 18.53 27.33 18.53 27.5 18.44"/><polygon class="cls-21" points="27.54 20.51 27.54 22.11 27.54 22.11 26.09 22.96 26.3 22.61 27.33 20.87 27.54 20.51 27.54 20.51"/><polygon class="cls-22" points="27.54 22.11 27.54 22.11 26.09 22.96 25.86 23.1 25.86 22.87 26.3 22.61 27.33 22 27.51 22.1 27.54 22.11"/><polygon class="cls-17" points="25.57 19.23 25.66 19.28 25.66 23.66 25.57 23.61 25.57 19.23"/><polygon class="cls-18" points="27.85 17.91 27.93 17.96 25.66 19.28 25.57 19.23 27.85 17.91"/><polygon class="cls-8" points="26.7 20.09 26.7 18.9 26.89 18.79 26.89 19.98 27.73 19.49 27.73 19.71 26.89 20.2 26.89 22.72 26.7 22.83 26.7 20.32 25.85 20.81 25.85 20.58 26.7 20.09"/><polygon class="cls-17" points="26.51 19.99 26.7 20.09 26.7 18.9 26.51 19.01 26.51 19.99"/><polygon class="cls-18" points="25.85 20.36 25.85 20.58 26.7 20.09 26.51 19.99 25.85 20.36"/><polygon class="cls-18" points="27.54 19.39 27.73 19.49 26.89 19.98 26.89 19.77 27.54 19.39"/><polygon class="cls-17" points="26.5 22.72 26.7 22.83 26.7 20.32 26.5 20.43 26.5 22.72"/><path class="cls-23" d="M31.15,17.61l-3.06-.81v6.31l3.06.8Z"/><path class="cls-11" d="M28.09,21v1.83l3.06.8h0V21.79h0Z"/><path class="cls-12" d="M28.09,21.28v1.83l3.06.8h0V22.07h0Z"/><polygon class="cls-16" points="28.53 22.25 28.53 17.88 30.8 18.5 30.8 22.88 28.53 22.25"/><polygon class="cls-17" points="28.44 22.32 28.44 17.95 30.72 18.57 30.72 22.95 28.44 22.32"/><polygon class="cls-11" points="30.52 18.74 30.52 22.67 29.81 22.47 29.62 22.42 28.64 22.15 28.64 18.23 29.62 18.49 29.81 18.54 30 18.59 30.52 18.74"/><polygon class="cls-18" points="30.52 22.45 28.84 21.98 28.64 22.15 30.52 22.67 30.52 22.45"/><polygon class="cls-24" points="30.52 18.75 30.52 19.8 30.52 21 30.52 22.45 30.43 22.42 28.84 21.98 28.84 21.98 28.84 20.59 28.84 19.21 28.84 18.28 29.05 18.34 30.08 18.63 30.52 18.75"/><polygon class="cls-22" points="28.84 18.28 28.84 21.98 28.86 21.96 29.04 21.81 29.04 18.34 28.84 18.28"/><polygon class="cls-25" points="30.52 22.22 30.52 22.45 30.43 22.42 28.84 21.98 28.84 21.98 28.86 21.96 29.05 21.81 30.52 22.22"/><polygon class="cls-21" points="30.52 21 30.52 22.38 30.43 22.42 28.84 21.98 28.84 21.98 28.84 21.79 28.84 21.79 29.05 21.69 30.52 21"/><polygon class="cls-21" points="30.52 18.75 30.52 19.8 29.05 20.49 28.84 20.59 28.84 20.59 28.84 19.21 28.84 19.21 29.05 19.11 30.08 18.63 30.52 18.75"/><polygon class="cls-11" points="30.8 18.5 30.72 18.57 30.72 22.95 30.8 22.88 30.8 18.5"/><polygon class="cls-18" points="28.53 17.88 28.44 17.95 30.72 18.57 30.8 18.5 28.53 17.88"/><polygon class="cls-17" points="29.68 19.7 29.68 18.51 29.48 18.46 29.48 19.65 28.64 19.42 28.64 19.64 29.48 19.87 29.48 22.39 29.68 22.44 29.68 19.93 30.52 20.16 30.52 19.93 29.68 19.7"/><polygon class="cls-11" points="29.87 19.54 29.68 19.71 29.68 18.51 29.87 18.56 29.87 19.54"/><polygon class="cls-18" points="30.52 19.71 30.52 19.93 29.68 19.7 29.87 19.54 30.52 19.71"/><polygon class="cls-18" points="28.84 19.26 28.64 19.42 29.48 19.65 29.48 19.44 28.84 19.26"/><polygon class="cls-11" points="29.87 22.27 29.68 22.44 29.68 19.93 29.87 19.98 29.87 22.27"/><path class="cls-13" d="M32.47,14.28v6.3l2.39-1.39V12.88Z"/><path class="cls-14" d="M32.47,18.45v1.84l2.39-1.38V17.07Z"/><path class="cls-15" d="M32.47,18.73v1.84l2.39-1.38V17.35Z"/><polygon class="cls-16" points="34.61 18.36 34.61 13.98 32.33 15.3 32.33 19.68 34.61 18.36"/><polygon class="cls-8" points="34.69 18.4 34.69 14.03 32.42 15.35 32.42 19.73 34.69 18.4"/><polygon class="cls-17" points="32.61 15.46 32.61 19.39 33.32 18.97 33.51 18.86 34.49 18.29 34.49 14.37 33.51 14.93 33.32 15.04 33.13 15.15 32.61 15.46"/><polygon class="cls-18" points="32.61 19.16 34.3 18.18 34.49 18.29 32.61 19.39 32.61 19.16"/><polygon class="cls-19" points="34.3 16.47 34.3 18.18 34.3 18.18 32.61 19.16 32.61 18.94 32.61 16.98 32.61 15.46 34.09 14.6 34.09 14.6 34.19 14.54 34.19 14.54 34.3 14.48 34.3 16.47"/><polygon class="cls-20" points="34.3 14.48 34.3 18.18 34.27 18.16 34.09 18.07 34.09 14.6 34.19 14.54 34.19 14.54 34.3 14.48"/><polygon class="cls-22" points="34.3 18.18 34.3 18.18 32.61 19.16 32.61 18.94 32.75 18.86 34.09 18.07 34.27 18.16 34.3 18.18"/><polygon class="cls-21" points="34.3 16.47 34.3 18.18 34.3 18.18 32.61 19.16 32.61 19.07 32.75 18.86 34.09 16.79 34.3 16.47 34.3 16.47"/><polygon class="cls-26" points="34.19 14.54 34.09 14.7 32.61 16.98 32.61 15.46 34.09 14.6 34.09 14.6 34.19 14.54"/><polygon class="cls-17" points="32.33 15.3 32.42 15.35 32.42 19.73 32.33 19.68 32.33 15.3"/><polygon class="cls-7" points="34.61 13.98 34.69 14.03 32.42 15.35 32.33 15.3 34.61 13.98"/><polygon class="cls-11" points="33.46 16.16 33.46 14.97 33.65 14.86 33.65 16.05 34.49 15.55 34.49 15.78 33.65 16.27 33.65 18.78 33.46 18.9 33.46 16.38 32.61 16.88 32.61 16.65 33.46 16.16"/><polygon class="cls-17" points="33.27 16.06 33.46 16.16 33.46 14.96 33.27 15.07 33.27 16.06"/><polygon class="cls-7" points="32.61 16.43 32.61 16.65 33.46 16.16 33.27 16.06 32.61 16.43"/><polygon class="cls-7" points="34.3 15.46 34.49 15.55 33.65 16.05 33.65 15.84 34.3 15.46"/><polygon class="cls-17" points="33.26 18.78 33.45 18.9 33.46 16.38 33.26 16.5 33.26 18.78"/><path class="cls-16" d="M33.85,16l-1.37-1.76v6.3l1.37,1.77Z"/><polygon class="cls-13" points="33.86 16.05 33.85 20.51 33.85 22.35 31.57 23.67 31.15 23.91 31.15 23.91 31.15 23.91 31.15 17.61 33.86 16.05"/><path class="cls-14" d="M31.15,21.79h0v1.84h0l.42-.24,2.28-1.32V20.23Z"/><path class="cls-15" d="M31.15,22.07h0v1.84h0l.42-.24,2.28-1.32V20.51Z"/><path class="cls-11" d="M34.87,12.88,25.41,7.43l-9.52,5.49,9.46,5.47,2.74-1.59,3.06.81,2.71-1.56-1.4-1.77Z"/><polygon class="cls-9" points="32.48 23.14 31.56 23.68 31.56 23.68 32.48 23.14"/><path class="cls-7" d="M35.64,12.67,25.42,6.77,15.11,12.25v.47l10.24,5.91,6.27-.85,2.93-1.68Z"/><path class="cls-18" d="M35.64,12.2,25.42,6.3l-10.31,6,10.24,5.91,6.27-.85,2.93-1.68Z"/><polygon class="cls-8" points="34.55 15.63 34.55 16.1 31.62 17.78 31.62 17.31 34.55 15.63"/><polygon class="cls-7" points="35.64 12.68 35.64 12.2 34.55 15.63 34.55 16.1 35.64 12.68"/><polygon class="cls-8" points="25.35 18.16 25.35 18.63 31.62 17.78 31.62 17.31 25.35 18.16"/><path class="cls-13" d="M30.19,8.57,30,9l-4.19,8.31-.42.84,10.29-6Z"/><polygon class="cls-8" points="30.36 8.47 20.12 4.61 15.11 11.78 15.11 12.25 25.35 18.16 30.54 8.97 35.64 12.19 35.64 11.77 30.36 8.47"/><polygon class="cls-27" points="30.36 8.47 25.27 17.63 25.13 17.55 25.11 17.54 24.62 17.26 24.48 17.17 24.46 17.16 24.32 17.08 24.18 17 24.16 16.99 23.67 16.71 23.52 16.62 23.51 16.61 23.37 16.54 23.23 16.45 23.21 16.45 22.72 16.16 22.57 16.08 22.56 16.07 22.42 15.99 22.27 15.9 22.26 15.9 21.76 15.61 21.62 15.53 21.61 15.52 21.32 15.36 21.31 15.35 20.81 15.06 20.66 14.98 20.66 14.97 20.51 14.89 20.37 14.81 20.36 14.8 19.86 14.51 19.71 14.43 19.7 14.43 19.56 14.34 19.41 14.26 19.4 14.25 18.9 13.97 18.76 13.88 18.75 13.88 18.61 13.79 18.46 13.71 18.45 13.71 17.95 13.42 17.81 13.33 17.8 13.33 17.65 13.25 17.51 13.16 17.5 13.16 17 12.87 16.85 12.79 16.85 12.78 16.7 12.7 16.56 12.61 16.55 12.61 16.05 12.32 15.9 12.24 15.9 12.23 15.75 12.15 15.6 12.07 15.6 12.06 15.11 11.78 19.7 3.54 20.12 2.78 20.12 2.78 20.63 3.06 20.64 3.07 20.78 3.14 20.93 3.23 20.95 3.24 21.08 3.31 21.59 3.6 21.6 3.6 21.74 3.68 21.9 3.76 21.91 3.77 22.04 3.85 22.55 4.13 22.56 4.13 22.7 4.21 22.86 4.3 22.87 4.31 23 4.38 23.51 4.66 23.52 4.67 23.66 4.75 23.82 4.83 23.83 4.84 23.96 4.91 24.47 5.2 24.48 5.2 24.62 5.28 24.78 5.37 24.79 5.37 24.92 5.45 25.43 5.73 25.44 5.74 25.58 5.81 25.74 5.9 25.75 5.91 25.89 5.98 26.39 6.27 26.4 6.27 26.54 6.35 26.7 6.44 26.7 6.44 26.84 6.52 27.35 6.8 27.36 6.8 27.5 6.88 27.66 6.97 27.67 6.97 27.81 7.05 28.31 7.33 28.32 7.34 28.46 7.42 28.62 7.5 28.62 7.51 28.77 7.59 29.27 7.87 29.28 7.87 29.42 7.95 29.58 8.04 29.59 8.04 29.73 8.12 30.23 8.4 30.24 8.4 30.36 8.47"/><polygon class="cls-7" points="15.11 11.78 15.11 12.25 25.35 18.16 25.27 17.63 15.11 11.78"/><polygon class="cls-16" points="21.3 21.48 21.3 17.11 23.57 18.43 23.57 22.8 21.3 21.48"/><polygon class="cls-17" points="21.22 21.53 21.22 17.16 23.49 18.47 23.49 22.85 21.22 21.53"/><polygon class="cls-11" points="23.29 18.59 23.29 22.51 22.59 22.09 22.39 21.98 21.41 21.42 21.41 17.5 22.39 18.06 22.59 18.17 22.78 18.28 23.29 18.59"/><polygon class="cls-18" points="23.29 22.29 21.61 21.3 21.41 21.42 23.29 22.51 23.29 22.29"/><polygon class="cls-24" points="23.29 18.59 23.29 22.29 21.61 21.3 21.61 17.61 21.82 17.73 21.82 17.73 22.08 17.88 23.29 18.59"/><polygon class="cls-22" points="21.82 17.73 21.82 21.2 21.61 21.3 21.61 17.61 21.82 17.73"/><polygon class="cls-21" points="23.29 18.59 23.29 19.94 22.08 17.88 23.29 18.59"/><polygon class="cls-25" points="23.29 22.06 23.29 22.29 21.61 21.3 21.82 21.2 23.29 22.06"/><polygon class="cls-21" points="23.29 21.9 23.29 22.29 21.61 21.3 21.61 19.05 21.82 19.4 23.29 21.9"/><polygon class="cls-11" points="23.57 18.43 23.49 18.47 23.49 22.85 23.57 22.8 23.57 18.43"/><polygon class="cls-18" points="21.3 17.11 21.22 17.16 23.49 18.47 23.57 18.43 21.3 17.11"/><polygon class="cls-17" points="22.45 19.29 22.45 18.09 22.26 17.98 22.26 19.18 21.41 18.68 21.41 18.91 22.26 19.4 22.26 21.91 22.45 22.02 22.45 19.51 23.29 20 23.29 19.78 22.45 19.29"/><polygon class="cls-11" points="22.64 19.19 22.45 19.29 22.45 18.09 22.64 18.2 22.64 19.19"/><polygon class="cls-18" points="23.29 19.55 23.29 19.78 22.45 19.29 22.64 19.19 23.29 19.55"/><polygon class="cls-18" points="21.61 18.58 21.41 18.68 22.26 19.18 22.26 18.96 21.61 18.58"/><polygon class="cls-11" points="22.64 21.91 22.45 22.02 22.45 19.51 22.64 19.62 22.64 21.91"/><polygon class="cls-16" points="17.53 19.32 17.53 14.94 19.8 16.26 19.8 20.64 17.53 19.32"/><polygon class="cls-17" points="17.44 19.36 17.44 14.99 19.72 16.31 19.71 20.69 17.44 19.36"/><polygon class="cls-11" points="19.52 16.42 19.52 20.35 18.81 19.93 18.62 19.82 17.64 19.25 17.64 15.33 18.62 15.89 18.81 16 19 16.11 19.52 16.42"/><polygon class="cls-18" points="19.52 20.12 17.84 19.14 17.64 19.25 19.52 20.35 19.52 20.12"/><polygon class="cls-24" points="19.52 16.42 19.52 17.77 19.52 19.9 19.52 20.12 19.15 19.91 17.84 19.14 17.84 15.44 18.04 15.56 18.04 15.56 18.3 15.71 19.52 16.42"/><polygon class="cls-22" points="18.04 15.56 18.04 19.03 17.84 19.14 17.84 15.44 18.04 15.56"/><polygon class="cls-25" points="19.52 19.9 19.52 20.12 19.15 19.91 17.84 19.14 18.04 19.03 18.94 19.56 19.52 19.9"/><polygon class="cls-21" points="19.15 19.91 17.84 19.14 17.84 17.68 18.04 18.03 18.94 19.56 19.15 19.91"/><polygon class="cls-21" points="19.52 16.42 19.52 17.77 18.3 15.71 19.52 16.42"/><polygon class="cls-11" points="19.8 16.26 19.72 16.31 19.71 20.69 19.8 20.64 19.8 16.26"/><polygon class="cls-18" points="17.53 14.94 17.44 14.99 19.72 16.31 19.8 16.26 17.53 14.94"/><polygon class="cls-17" points="18.68 17.12 18.68 15.93 18.48 15.82 18.48 17.01 17.64 16.52 17.64 16.74 18.48 17.23 18.48 19.74 18.68 19.86 18.68 17.34 19.52 17.83 19.52 17.61 18.68 17.12"/><polygon class="cls-11" points="18.87 17.02 18.68 17.12 18.68 15.92 18.87 16.03 18.87 17.02"/><polygon class="cls-18" points="19.52 17.39 19.52 17.61 18.68 17.12 18.87 17.02 19.52 17.39"/><polygon class="cls-18" points="17.84 16.42 17.64 16.52 18.48 17.01 18.48 16.8 17.84 16.42"/><polygon class="cls-11" points="18.87 19.74 18.68 19.86 18.68 17.34 18.87 17.45 18.87 19.74"/><polygon class="cls-7" points="31.88 24.98 31.15 24.55 31.15 23.91 33.86 22.51 34.58 22.77 34.58 23.42 31.88 24.98"/><polygon class="cls-18" points="31.88 24.33 31.15 23.91 33.86 22.35 34.58 22.77 31.88 24.33"/><polygon class="cls-8" points="31.88 24.98 31.88 24.33 34.58 22.77 34.58 23.42 31.88 24.98"/><polygon class="cls-28" points="31.68 18.24 31.81 18.32 31.81 23.53 31.68 23.46 31.68 18.24"/><polygon class="cls-29" points="31.81 18.32 33.29 17.46 33.29 22.68 31.81 23.53 31.81 18.32"/><polygon class="cls-30" points="32 18.53 33.09 17.92 33.09 19.93 32 20.54 32 18.53"/><polygon class="cls-31" points="33.04 17.95 33.04 19.9 32 20.48 32 20.54 33.09 19.93 33.09 17.92 33.04 17.95"/><polygon class="cls-30" points="32 21.01 33.09 20.4 33.09 22.4 32 23.01 32 21.01"/><polygon class="cls-31" points="33.04 20.43 33.04 22.37 32 22.95 32 23.01 33.09 22.4 33.09 20.4 33.04 20.43"/><polygon class="cls-32" points="33.16 17.39 33.29 17.46 31.81 18.32 31.68 18.24 33.16 17.39"/><polygon class="cls-33" points="33.04 17.95 33.04 19.9 33.09 19.93 33.09 17.92 33.04 17.95"/><polygon class="cls-33" points="32.1 18.69 32.1 20.15 32.15 20.18 32.15 18.72 32.1 18.69"/><polygon class="cls-31" points="32.1 18.69 32.89 18.25 32.94 18.28 32.15 18.72 32.1 18.69"/><polygon class="cls-33" points="33.04 20.43 33.04 22.37 33.09 22.4 33.09 20.4 33.04 20.43"/><polygon class="cls-34" points="33.53 17.17 33.53 22.66 33.45 22.7 33.4 22.73 33.4 22.73 33.29 22.68 33.4 22.61 33.4 17.4 33.28 17.46 31.81 18.33 31.81 23.67 31.68 23.75 31.68 18.26 33.53 17.17"/><polygon class="cls-35" points="31.56 18.18 31.68 18.26 31.68 23.75 31.56 23.68 31.56 18.18"/><polygon class="cls-35" points="33.41 17.09 33.53 17.17 31.68 18.26 31.56 18.19 33.41 17.09"/><polygon class="cls-35" points="33.4 22.73 33.4 22.73 33.29 22.68 33.28 22.67 33.28 17.46 33.4 17.4 33.4 22.73"/><polygon class="cls-29" points="32.15 18.72 32.94 18.28 32.94 19.74 32.15 20.18 32.15 18.72"/><polygon class="cls-33" points="32.1 21.18 32.1 22.64 32.15 22.67 32.15 21.21 32.1 21.18"/><polygon class="cls-31" points="32.1 21.18 32.89 20.74 32.94 20.77 32.15 21.21 32.1 21.18"/><polygon class="cls-29" points="32.15 21.21 32.94 20.77 32.94 22.23 32.15 22.67 32.15 21.21"/><polygon class="cls-17" points="23.53 23.21 20.96 21.74 20.96 21.47 21.31 21.55 23.68 22.85 23.68 23.12 23.53 23.21"/><polygon class="cls-18" points="23.53 22.94 20.96 21.47 21.11 21.38 23.68 22.85 23.53 22.94"/><polygon class="cls-11" points="23.53 23.21 23.53 22.94 23.68 22.85 23.68 23.12 23.53 23.21"/><polygon class="cls-17" points="19.75 21.04 17.18 19.57 17.18 19.3 17.53 19.38 19.9 20.68 19.9 20.95 19.75 21.04"/><polygon class="cls-7" points="19.75 20.77 17.18 19.3 17.33 19.2 19.9 20.68 19.75 20.77"/><polygon class="cls-11" points="19.75 21.04 19.75 20.77 19.9 20.68 19.9 20.95 19.75 21.04"/><polygon class="cls-36" points="20.63 3.06 17.1 9.39 15.6 12.07 15.6 12.06 15.11 11.78 19.7 3.54 20.12 2.78 20.12 2.78 20.63 3.06"/><polygon class="cls-36" points="21.59 3.6 18.3 9.48 16.56 12.61 16.55 12.61 16.05 12.32 15.9 12.24 17.39 9.58 20.93 3.23 20.95 3.24 21.08 3.31 21.59 3.6"/><polygon class="cls-36" points="22.55 4.13 19.6 9.42 17.51 13.16 17.5 13.16 17 12.87 16.85 12.79 18.52 9.8 21.9 3.76 21.91 3.77 22.04 3.85 22.55 4.13"/><polygon class="cls-36" points="23.51 4.66 20.82 9.47 18.46 13.71 18.45 13.71 17.95 13.42 17.81 13.33 19.9 9.59 22.86 4.3 22.87 4.31 23 4.38 23.51 4.66"/><polygon class="cls-36" points="24.47 5.2 22.09 9.46 19.41 14.26 19.4 14.25 18.9 13.97 18.76 13.88 21.04 9.81 23.82 4.83 23.83 4.84 23.96 4.91 24.47 5.2"/><polygon class="cls-36" points="25.43 5.73 23.23 9.68 20.37 14.81 20.36 14.8 19.86 14.51 19.71 14.43 22.41 9.6 24.78 5.37 24.79 5.37 24.92 5.45 25.43 5.73"/><polygon class="cls-36" points="26.39 6.27 24.59 9.49 21.32 15.36 21.31 15.35 20.81 15.06 20.66 14.98 23.55 9.81 25.74 5.9 25.75 5.91 25.89 5.98 26.39 6.27"/><polygon class="cls-36" points="27.35 6.8 25.73 9.72 22.27 15.9 22.26 15.9 21.76 15.61 21.62 15.53 24.93 9.61 26.7 6.44 26.7 6.44 26.84 6.52 27.35 6.8"/><polygon class="cls-36" points="28.31 7.33 27.09 9.53 23.23 16.45 23.21 16.45 22.72 16.16 22.57 16.08 26.06 9.82 27.66 6.97 27.67 6.97 27.81 7.05 28.31 7.33"/><polygon class="cls-36" points="29.27 7.87 28.22 9.75 24.18 17 24.16 16.99 23.67 16.71 23.52 16.62 27.44 9.61 28.62 7.5 28.62 7.51 28.77 7.59 29.27 7.87"/><polygon class="cls-36" points="30.23 8.4 29.53 9.66 25.13 17.55 25.11 17.54 24.62 17.26 24.48 17.17 28.58 9.83 29.58 8.04 29.59 8.04 29.73 8.12 30.23 8.4"/><polygon class="cls-37" points="20.63 3.06 20.64 3.07 17.1 9.39 15.6 12.06 15.11 11.78 19.7 3.54 20.12 2.78 20.12 2.78 20.63 3.06"/><polygon class="cls-38" points="21.59 3.6 21.6 3.6 18.3 9.48 16.55 12.61 16.05 12.32 15.9 12.24 15.9 12.23 17.39 9.58 20.95 3.24 21.08 3.31 21.59 3.6"/><polygon class="cls-38" points="22.55 4.13 22.56 4.13 19.6 9.42 17.5 13.16 17 12.87 16.85 12.79 16.85 12.78 18.52 9.8 21.91 3.77 22.04 3.85 22.55 4.13"/><polygon class="cls-38" points="23.51 4.66 23.52 4.67 20.82 9.47 18.45 13.71 17.95 13.42 17.81 13.33 17.8 13.33 19.9 9.59 22.87 4.31 23 4.38 23.51 4.66"/><polygon class="cls-38" points="24.47 5.2 24.48 5.2 22.09 9.46 19.4 14.25 18.9 13.97 18.76 13.88 18.75 13.88 21.04 9.81 23.83 4.84 23.96 4.91 24.47 5.2"/><polygon class="cls-38" points="25.43 5.73 25.44 5.74 23.23 9.68 20.36 14.8 19.86 14.51 19.71 14.43 19.7 14.43 22.41 9.6 24.79 5.37 24.92 5.45 25.43 5.73"/><polygon class="cls-38" points="26.39 6.27 26.4 6.27 24.59 9.49 21.31 15.35 20.81 15.06 20.66 14.98 20.66 14.97 23.55 9.81 25.75 5.91 25.89 5.98 26.39 6.27"/><polygon class="cls-38" points="27.35 6.8 27.36 6.8 25.73 9.72 22.26 15.9 21.76 15.61 21.62 15.53 21.61 15.52 24.93 9.61 26.7 6.44 26.84 6.52 27.35 6.8"/><polygon class="cls-38" points="28.31 7.33 28.32 7.34 27.09 9.53 23.21 16.45 22.72 16.16 22.57 16.08 22.56 16.07 26.06 9.82 27.67 6.97 27.81 7.05 28.31 7.33"/><polygon class="cls-38" points="29.27 7.87 29.28 7.87 28.22 9.75 24.16 16.99 23.67 16.71 23.52 16.62 23.51 16.61 27.44 9.61 28.62 7.51 28.77 7.59 29.27 7.87"/><polygon class="cls-38" points="30.23 8.4 30.24 8.4 29.53 9.66 25.11 17.54 24.62 17.26 24.48 17.17 24.46 17.16 28.58 9.83 29.59 8.04 29.73 8.12 30.23 8.4"/><polygon class="cls-39" points="20.78 3.14 15.75 12.15 15.6 12.07 15.6 12.06 15.11 11.78 19.7 3.54 20.12 2.78 20.63 3.06 20.64 3.07 20.78 3.14"/><polygon class="cls-39" points="21.74 3.68 16.7 12.7 16.56 12.61 16.55 12.61 16.05 12.32 21.08 3.31 21.59 3.6 21.6 3.6 21.74 3.68"/><polygon class="cls-39" points="22.7 4.21 17.65 13.25 17.51 13.16 17.5 13.16 17 12.87 22.04 3.85 22.55 4.13 22.56 4.13 22.7 4.21"/><polygon class="cls-39" points="23.66 4.75 18.61 13.79 18.46 13.71 18.45 13.71 17.95 13.42 23 4.38 23.51 4.66 23.52 4.67 23.66 4.75"/><polygon class="cls-39" points="24.62 5.28 19.56 14.34 19.41 14.26 19.4 14.25 18.9 13.97 23.96 4.91 24.47 5.2 24.48 5.2 24.62 5.28"/><polygon class="cls-39" points="25.58 5.81 20.51 14.89 20.37 14.81 20.36 14.8 19.86 14.51 24.92 5.45 25.43 5.73 25.44 5.74 25.58 5.81"/><polygon class="cls-39" points="26.54 6.35 21.46 15.44 21.32 15.36 21.31 15.35 20.81 15.06 25.89 5.98 26.39 6.27 26.4 6.27 26.54 6.35"/><polygon class="cls-39" points="27.5 6.88 22.42 15.99 22.27 15.9 22.26 15.9 21.76 15.61 26.84 6.52 27.35 6.8 27.36 6.8 27.5 6.88"/><polygon class="cls-39" points="28.46 7.42 23.37 16.54 23.23 16.45 23.21 16.45 22.72 16.16 27.81 7.05 28.31 7.33 28.32 7.34 28.46 7.42"/><polygon class="cls-39" points="29.42 7.95 24.32 17.08 24.18 17 24.16 16.99 23.67 16.71 28.77 7.59 29.27 7.87 29.28 7.87 29.42 7.95"/><polygon class="cls-39" points="30.36 8.47 25.27 17.63 25.13 17.55 25.11 17.54 24.62 17.26 29.73 8.12 30.23 8.4 30.24 8.4 30.36 8.47"/><polygon class="cls-7" points="32.24 16.72 32.37 16.8 32.37 14.96 32.24 14.88 32.24 16.72"/><polygon class="cls-8" points="32.51 16.72 32.37 16.8 32.37 14.96 32.51 14.88 32.51 16.72"/><polygon class="cls-40" points="32.37 14.96 32.24 14.88 32.38 14.8 32.51 14.88 32.37 14.96"/><polygon class="cls-7" points="32.9 16.38 33.03 16.46 33.03 14.62 32.9 14.54 32.9 16.38"/><polygon class="cls-8" points="33.17 16.38 33.03 16.46 33.03 14.62 33.17 14.54 33.17 16.38"/><polygon class="cls-40" points="33.03 14.62 32.9 14.54 33.04 14.46 33.17 14.54 33.03 14.62"/><polygon class="cls-7" points="33.51 16.02 33.65 16.1 33.65 14.26 33.51 14.18 33.51 16.02"/><polygon class="cls-8" points="33.79 16.02 33.65 16.1 33.65 14.26 33.79 14.18 33.79 16.02"/><polygon class="cls-40" points="33.65 14.26 33.51 14.18 33.65 14.1 33.79 14.18 33.65 14.26"/><polygon class="cls-7" points="34.16 15.59 34.3 15.67 34.3 13.83 34.16 13.75 34.16 15.59"/><polygon class="cls-8" points="34.43 15.59 34.3 15.67 34.3 13.83 34.43 13.75 34.43 15.59"/><polygon class="cls-40" points="34.3 13.83 34.16 13.75 34.3 13.67 34.43 13.75 34.3 13.83"/><polygon class="cls-7" points="34.42 14.83 34.56 14.91 34.56 12.93 34.42 12.85 34.42 14.83"/><polygon class="cls-8" points="34.69 14.83 34.56 14.91 34.56 12.93 34.69 12.85 34.69 14.83"/><polygon class="cls-40" points="34.56 12.93 34.42 12.85 34.56 12.77 34.69 12.85 34.56 12.93"/><polygon class="cls-7" points="34.68 14.06 34.82 14.14 34.82 12.03 34.68 11.95 34.68 14.06"/><polygon class="cls-8" points="34.95 14.06 34.81 14.14 34.81 12.03 34.95 11.95 34.95 14.06"/><polygon class="cls-40" points="34.81 12.03 34.68 11.95 34.82 11.87 34.95 11.95 34.81 12.03"/><polygon class="cls-7" points="34.09 13.32 34.23 13.4 34.23 11.77 34.09 11.69 34.09 13.32"/><polygon class="cls-8" points="34.37 13.32 34.23 13.4 34.23 11.77 34.37 11.69 34.37 13.32"/><polygon class="cls-40" points="34.23 11.77 34.09 11.69 34.23 11.61 34.37 11.69 34.23 11.77"/><polygon class="cls-7" points="27.36 17.72 27.5 17.8 27.5 16.25 27.36 16.17 27.36 17.72"/><polygon class="cls-8" points="27.64 17.72 27.5 17.8 27.5 16.25 27.64 16.17 27.64 17.72"/><polygon class="cls-40" points="27.5 16.25 27.36 16.17 27.5 16.09 27.64 16.17 27.5 16.25"/><polygon class="cls-7" points="26.83 17.44 26.96 17.52 26.96 15.96 26.83 15.88 26.83 17.44"/><polygon class="cls-8" points="27.1 17.44 26.96 17.52 26.96 15.96 27.1 15.88 27.1 17.44"/><polygon class="cls-40" points="26.96 15.96 26.83 15.88 26.97 15.8 27.1 15.88 26.96 15.96"/><polygon class="cls-7" points="28.18 17.61 28.32 17.7 28.32 16.2 28.18 16.12 28.18 17.61"/><polygon class="cls-8" points="28.45 17.61 28.32 17.7 28.32 16.2 28.45 16.12 28.45 17.61"/><polygon class="cls-40" points="28.32 16.2 28.18 16.12 28.32 16.04 28.45 16.12 28.32 16.2"/><polygon class="cls-7" points="29 17.5 29.13 17.59 29.13 16.06 29 15.98 29 17.5"/><polygon class="cls-8" points="29.27 17.5 29.13 17.59 29.13 16.06 29.27 15.98 29.27 17.5"/><polygon class="cls-40" points="29.13 16.06 29 15.98 29.13 15.9 29.27 15.98 29.13 16.06"/><polygon class="cls-7" points="29.81 17.39 29.95 17.48 29.95 15.92 29.81 15.84 29.81 17.39"/><polygon class="cls-8" points="30.09 17.39 29.95 17.48 29.95 15.92 30.09 15.84 30.09 17.39"/><polygon class="cls-40" points="29.95 15.92 29.81 15.84 29.95 15.76 30.09 15.84 29.95 15.92"/><polygon class="cls-7" points="30.63 17.29 30.76 17.37 30.76 15.79 30.63 15.71 30.63 17.29"/><polygon class="cls-8" points="30.9 17.29 30.76 17.37 30.76 15.79 30.9 15.71 30.9 17.29"/><polygon class="cls-40" points="30.76 15.79 30.63 15.71 30.77 15.63 30.9 15.71 30.76 15.79"/><polygon class="cls-7" points="31.45 17.18 31.58 17.26 31.58 15.65 31.45 15.57 31.45 17.18"/><polygon class="cls-8" points="31.72 17.18 31.58 17.26 31.58 15.65 31.72 15.57 31.72 17.18"/><polygon class="cls-40" points="31.58 15.65 31.45 15.57 31.58 15.49 31.72 15.57 31.58 15.65"/><polygon class="cls-7" points="34 11.81 34.67 12.19 34.67 12.04 34 11.66 34 11.81"/><polygon class="cls-3" points="34.96 12.02 34.67 12.19 34.67 12.04 34.96 11.88 34.96 12.02"/><polygon class="cls-18" points="34.67 12.04 34 11.66 34.29 11.49 34.96 11.88 34.67 12.04"/><polygon class="cls-9" points="34.05 13.98 34.67 12.2 34.96 12.03 34.34 14.15 34.05 13.98"/><polygon class="cls-8" points="34.34 14.15 31.41 15.84 31.41 15.69 34.34 14 34.34 14.15"/><polygon class="cls-3" points="31.13 15.67 31.41 15.84 31.41 15.69 31.13 15.52 31.13 15.67"/><polygon class="cls-18" points="31.41 15.69 34.34 14 34.05 13.83 31.12 15.52 31.41 15.69"/><polygon class="cls-7" points="26.71 16.02 27.38 16.4 27.38 16.25 26.71 15.87 26.71 16.02"/><polygon class="cls-3" points="27.67 16.23 27.38 16.4 27.38 16.25 27.67 16.09 27.67 16.23"/><polygon class="cls-18" points="27.38 16.25 26.71 15.87 27 15.7 27.67 16.09 27.38 16.25"/><polygon class="cls-18" points="31.41 15.69 27.38 16.25 27.67 16.09 31.13 15.52 31.41 15.69"/><polygon class="cls-8" points="31.41 15.69 31.41 15.84 27.38 16.4 27.38 16.25 31.41 15.69"/><polygon class="cls-18" points="34.05 13.83 34.67 12.04 34.96 11.88 34.34 14 34.05 13.83"/><polygon class="cls-7" points="34.34 14.15 34.34 14 34.96 11.88 34.96 12.03 34.34 14.15"/><polygon class="cls-28" points="29.84 10.96 29.96 11.04 29.96 15.48 29.84 15.41 29.84 10.96"/><polygon class="cls-22" points="31.44 10.18 31.44 14.63 30.3 15.29 29.96 15.48 29.96 11.03 30.36 10.81 31.29 10.27 31.44 10.19 31.44 10.19 31.44 10.18"/><polygon class="cls-19" points="31.29 10.27 31.29 14.54 30.45 15.02 29.96 15.31 29.96 11.03 30.36 10.81 31.29 10.27"/><polygon class="cls-32" points="31.32 10.11 31.44 10.18 29.96 11.04 29.84 10.96 31.32 10.11"/><polygon class="cls-8" points="31.68 9.89 31.68 14.62 31.61 14.66 31.56 14.69 31.55 14.69 31.44 14.63 31.55 14.56 31.55 10.12 31.44 10.19 29.96 11.05 29.97 15.62 29.83 15.71 29.83 10.98 31.68 9.89"/><polygon class="cls-7" points="29.71 10.9 29.83 10.98 29.83 15.71 29.71 15.63 29.71 10.9"/><polygon class="cls-18" points="31.56 9.81 31.68 9.89 29.83 10.98 29.71 10.91 31.56 9.81"/><polygon class="cls-7" points="31.56 14.69 31.55 14.69 31.44 14.63 31.44 14.63 31.44 10.18 31.55 10.12 31.56 14.69"/><polygon class="cls-20" points="31.44 13.36 31.44 14.63 31.29 14.54 31.29 10.27 31.44 10.19 31.44 11.63 31.44 13.36"/><polygon class="cls-21" points="31.44 13.35 31.44 14.63 30.3 15.29 30.45 15.02 31.29 13.61 31.44 13.36 31.44 13.35"/><polygon class="cls-21" points="31.44 10.18 31.44 11.62 31.44 11.63 31.44 11.63 31.29 11.88 29.96 14.12 29.96 11.47 30.36 10.81 31.29 10.27 31.44 10.19 31.44 10.18"/><polygon class="cls-41" points="30.1 27.83 25.6 25.23 25.35 25.37 29.85 27.98 30.1 27.83"/><polygon class="cls-41" points="21.61 27.24 25.1 25.22 25.35 25.37 21.86 27.39 21.61 27.24"/><polygon class="cls-41" points="12.39 21.93 15.88 19.91 16.13 20.05 12.64 22.07 12.39 21.93"/><polygon class="cls-41" points="29.61 27.08 37.79 22.35 38.04 22.5 29.86 27.23 29.61 27.08"/><polygon class="cls-41" points="39.36 22.47 34.86 19.87 34.61 20.01 39.11 22.62 39.36 22.47"/><polygon class="cls-41" points="30.41 27.14 29.42 27.33 29.75 26.75 30.41 27.14"/><polygon class="cls-41" points="22.93 26.3 22.6 25.72 22.39 25.85 15.03 21.59 15.24 21.47 14.24 21.28 14.57 21.86 14.78 21.73 22.14 25.99 21.94 26.11 22.93 26.3"/><path class="cls-42" d="M21.66,16.66a1.56,1.56,0,0,1-.88,0l-.49-.09a5.29,5.29,0,0,1-.57-.15,4.8,4.8,0,0,1-.64-.21h0l-.31-.14,0,0a1.93,1.93,0,0,1-.48-.75,10.28,10.28,0,0,1-.42-1h0c-.07-.2-.14-.4-.2-.6a7.85,7.85,0,0,1-.36-3.9,2.27,2.27,0,0,1,.5-1,1.74,1.74,0,0,1,.43-.34h0a.9.9,0,0,1,.27-.11.39.39,0,0,1,.24.06h0a1.31,1.31,0,0,1,.49.75,6.14,6.14,0,0,1,.32,1.41,9,9,0,0,0,.94,2.93l.17.22.06.07,0,0,0,0a2.68,2.68,0,0,1,.59.71v0l.06.1a.67.67,0,0,0,.06.12l.12.23c.19.33.38.63.38.63S22.06,16.39,21.66,16.66Z"/><path class="cls-43" d="M21.51,14.76a.07.07,0,0,1,0,.05,1.18,1.18,0,0,0-.68.16,2.32,2.32,0,0,0-.66.49,1.52,1.52,0,0,0-.26.35,1.41,1.41,0,0,0-.18.65,4.8,4.8,0,0,1-.64-.21h0a4.37,4.37,0,0,1-.45-.59c-.11-.18-.21-.36-.31-.55A5.14,5.14,0,0,0,18,14.6a3.28,3.28,0,0,1-.2-.31h0a6,6,0,0,1-.2-.6,7.85,7.85,0,0,1-.36-3.9,2.27,2.27,0,0,1,.5-1,1.74,1.74,0,0,1,.43-.34h0a2.84,2.84,0,0,1,.51-.05h0a1.31,1.31,0,0,1,.49.75,6.14,6.14,0,0,1,.32,1.41,3,3,0,0,0,.06.43v0a9.69,9.69,0,0,0,.88,2.48l.17.22.1.1,0,0,0,0a2.41,2.41,0,0,1,.62.76h0A.35.35,0,0,1,21.51,14.76Z"/><path class="cls-44" d="M19.85,15.71a.08.08,0,0,0,0,.09h0a1.41,1.41,0,0,0-.18.65,4.8,4.8,0,0,1-.64-.21h0a4.37,4.37,0,0,1-.45-.59c-.11-.18-.21-.36-.31-.55a9.93,9.93,0,0,1,0-2.18,3.49,3.49,0,0,1,.8-2.09.18.18,0,0,1,.07-.05l.08,0,.35.15h0v0l-.17.73a16,16,0,0,1-.15,1.82,3.28,3.28,0,0,0,.25,1.78s0,.09.1.08.06,0,.08-.07a1.75,1.75,0,0,1,1-.88A2.74,2.74,0,0,0,19.85,15.71Z"/><path class="cls-45" d="M21.28,14.46l-.09,0a3.67,3.67,0,0,0-.52.27,3.12,3.12,0,0,0-.87.75,2.48,2.48,0,0,0-.3.49c-.08.18,0,.3.05.48s.37.33.57.23a3.88,3.88,0,0,0,.45-.24,3.72,3.72,0,0,0,1.13-1.33.16.16,0,0,0,0-.09.72.72,0,0,0-.31-.57A.22.22,0,0,0,21.28,14.46Z"/><path class="cls-46" d="M21.07,16.08a.47.47,0,0,1,.11.33.87.87,0,0,1-.13.35,2.67,2.67,0,0,0-.2.46.24.24,0,0,0,0,.22.26.26,0,0,0,.17.07l1.21.15a.45.45,0,0,0,.26,0,.41.41,0,0,0,.12-.14,1.94,1.94,0,0,1,.23-.27s.1-.09.14-.15.05-.61.32-.69h.12a.84.84,0,0,0,.25-.09.31.31,0,0,0,.09-.07c0-.05,0-.1,0-.16a.6.6,0,0,1,.06-.11.11.11,0,0,0-.07-.16c-.57-.24-1.15-.72-1.38-.77a1,1,0,0,0-1.14.26S20.88,15.75,21.07,16.08Z"/><path class="cls-5" d="M.33,29.53A12.94,12.94,0,0,0,1.7,30l.18.05.21,0h.07A3.72,3.72,0,0,0,3,30.2l.28,0h0a1.63,1.63,0,0,1,.24.13.32.32,0,0,1,.06.17l-.06.07s0,0,0-.05l-.66.34s-.08,0-.09.07,0,0,0,.05a4.79,4.79,0,0,0-.6.3,8.22,8.22,0,0,1-.93.58.69.69,0,0,0-.21.13.05.05,0,0,0,0,.08.47.47,0,0,0,0,.17.75.75,0,0,0,.13.39l0,.1A1.15,1.15,0,0,0,1.5,33a3.91,3.91,0,0,0,.59.54l.23.18.37.28a1,1,0,0,0,.53.24h.27l0,0,.49.31a10.83,10.83,0,0,0,1.83.77c.84.36,2.4.88,2.77,1l.13,0,.18.06.19.07.4.14a9.55,9.55,0,0,0,1.33.34l.18,0c.72.36,1.71.78,2.54,1.21a10.51,10.51,0,0,1,.95.64c.3.19.46.11.52-.3a2.36,2.36,0,0,0,0-1,3.78,3.78,0,0,0-.38-.75,5.24,5.24,0,0,1-.46-1.09,1.62,1.62,0,0,1,0-1,.72.72,0,0,1,.83-.49,1.48,1.48,0,0,1,.43.29c.4.33,1.68,1.11,1.73.11.07-1.31-1.39-1.67-2.31-2.23a6.38,6.38,0,0,0-1.05-.47c-.36-.13-.7-.24-.9-.3l-.14-.05a1,1,0,0,0,.21-.14c.26-.25-.78-.55-1.15-.73s-.67-.33-1-.49a6.46,6.46,0,0,0-1.15-.38,2.38,2.38,0,0,0-.4-.07,6.14,6.14,0,0,0-1.49.06l-.05,0a1.77,1.77,0,0,0-.43-.46A3.45,3.45,0,0,1,7,29.09s0,0,0,0-.3-.17-.41-.27a.76.76,0,0,1-.11-.14,1.38,1.38,0,0,0-.5-.22l-.72-.24c.72-.27.13-.49-.6-.55a3.77,3.77,0,0,0-.47,0A8.28,8.28,0,0,0,2.08,28a4.85,4.85,0,0,0-1.74.71A1.41,1.41,0,0,0,.09,29C-.06,29.19-.06,29.38.33,29.53ZM16.52,34.3l-.06,0-.13-.08c-.31-.17-.6-.34-.88-.52l.43.13a3.19,3.19,0,0,1,.42.16l.06,0,0,0,0,0,0,0h0l0,0h0a1.42,1.42,0,0,1,0,.2Z"/><path class="cls-47" d="M16.92,33.66a1.27,1.27,0,0,0,.55,1C18,35,19,35.84,19,35.84a1.75,1.75,0,0,1,.24.95.91.91,0,0,1-.3.42c-.46.39-1.38.08-1.76-.29a6.21,6.21,0,0,0-.91-.8,6.72,6.72,0,0,0-1.07-.45.6.6,0,0,1-.43-.49.92.92,0,0,1,.08-.54.63.63,0,0,1,.27-.29l.36-.24.54-.35Z"/><path class="cls-47" d="M12.2,34.85l-.1.24a2.06,2.06,0,0,0-.12.35,1.32,1.32,0,0,0,0,.71,2.55,2.55,0,0,0,.54.81,13.05,13.05,0,0,0,1.16,1.48,2.39,2.39,0,0,0,1.55.66c.9,0,.84-.27.81-.81s-.87-1.31-1-1.62-.67-1.37-.67-1.37l-.71-.43Z"/><path class="cls-48" d="M15.07,35.2c.07.21.53.33.7.4l.41.14a1.77,1.77,0,0,1,.5.36,6.06,6.06,0,0,1,.54.47,2,2,0,0,0,1.11.46.72.72,0,0,0,.54-.07.89.89,0,0,0,.41-.51.41.41,0,0,0,0-.16.89.89,0,0,0,0-.22,1.46,1.46,0,0,0-.55-.83,12.75,12.75,0,0,0-1.24-.88,1.26,1.26,0,0,1-.55-1l-.86.11-.75.48-.32.21A6.91,6.91,0,0,0,15.07,35.2Z"/><path class="cls-49" d="M15.07,35.2c.07.21.53.33.7.4l.41.14a1.77,1.77,0,0,1,.5.36,6.06,6.06,0,0,1,.54.47,2,2,0,0,0,1.11.46.72.72,0,0,0,.54-.07.89.89,0,0,0,.41-.51.41.41,0,0,0,0-.16c-.2,0-.38.11-.58.15a1.54,1.54,0,0,1-1.21-.28c-.14-.11-.26-.24-.4-.34a3.17,3.17,0,0,0-.7-.38,1.82,1.82,0,0,1-.67-.44.8.8,0,0,1-.22-.74.32.32,0,0,0-.2-.36l-.32.21A6.91,6.91,0,0,0,15.07,35.2Z"/><path class="cls-48" d="M12.24,35.77a3.59,3.59,0,0,0,.79,1.6,3.09,3.09,0,0,0,2.23,1.39c.9,0,.83-.28.81-.81v0c0-.54-.86-1.3-1-1.6L14.38,35l-.72-.44-1.45,0a.4.4,0,0,0,0,.09A2,2,0,0,0,12.24,35.77Z"/><path class="cls-49" d="M12.24,35.77a3.59,3.59,0,0,0,.79,1.6,3.09,3.09,0,0,0,2.23,1.39c.9,0,.83-.28.81-.81v0H16a4,4,0,0,1-1,.22,1.84,1.84,0,0,1-1-.2,2.43,2.43,0,0,1-.58-.48,3.89,3.89,0,0,1-.47-.62,3.19,3.19,0,0,1-.29-.72A3.26,3.26,0,0,1,12.53,35v-.13a.5.5,0,0,0-.35-.3A2,2,0,0,0,12.24,35.77Z"/><path class="cls-49" d="M14.15,30.72c.06,1.1.44,3.44.44,3.44l.09,0a4,4,0,0,0,.63.2,2.64,2.64,0,0,0,.69,0c.58-.06,1.23-.25,1.39-.88a2.88,2.88,0,0,0,0-.83,9.4,9.4,0,0,1,.23-2c.13-.76.4-1.49.5-2.26.24-1.69.39-3.43.52-5.14l0-.38c0-.23,0-.48,0-.72a6.34,6.34,0,0,0-.23-2.05c-.27-.85-1.27-.29-1.87-.2-.24,0-.49.57-.74,1.39-.11.36-.22.77-.33,1.22s-.23,1-.34,1.56c-.28,1.39-.53,2.88-.72,4-.14.91-.25,1.61-.31,1.92a.61.61,0,0,1,0,.15A2.54,2.54,0,0,0,14.15,30.72Z"/><path class="cls-47" d="M14.19,30.06c0,.23,0,.45,0,.66,0,.85.17,1.69.3,2.53a3,3,0,0,0,.13.84c.2.42.42-.21.44-.44q.12-1.21.3-2.43c.08-.55,0-1.51.73-1.65a2.12,2.12,0,0,1,.71,0,1.35,1.35,0,0,0,.69-.05,1.76,1.76,0,0,1-1-.4,1.4,1.4,0,0,1-.45-.49,2.6,2.6,0,0,1,.36-1.92A11,11,0,0,0,17,24.86c0-.12.22-1.32.11-1.35-1.54-.38-1.81,1.29-2.59,4.63h0A13,13,0,0,0,14.19,30.06Z"/><path class="cls-49" d="M17.46,21.74s0,.23-.06.56a9.71,9.71,0,0,1-.27,1.37,2.05,2.05,0,0,1-.32.71,1.91,1.91,0,0,1-.44.37,1.11,1.11,0,0,0-.55.84A33.17,33.17,0,0,0,15.14,30a18,18,0,0,0-.25,3.8,2.32,2.32,0,0,1,.06.46,2.5,2.5,0,0,1-.16,1,.59.59,0,0,1-.11.19.48.48,0,0,1-.22.12,2.51,2.51,0,0,1-1.56,0h0A1.64,1.64,0,0,1,11.57,34a6.87,6.87,0,0,1,.25-1.16,5.4,5.4,0,0,0,.07-1.21V31.4c0-.17,0-.33,0-.48,0-.32,0-.64,0-1,0-.15,0-.31,0-.47l0-.48c-.11-2-.51-4.11-.41-5.27,0-.35.09-.83.15-1.32.14-1.07.29-2.18.29-2.18l.77.2,3.3.88Z"/><path class="cls-47" d="M13.88,35.55l.24,0h0a2.89,2.89,0,0,1-.83,0l-.36,0h0A1.64,1.64,0,0,1,11.57,34a6.87,6.87,0,0,1,.25-1.16,5.4,5.4,0,0,0,.07-1.21V31.4c0-.48,0-1-.05-1.44,0-.15,0-.31,0-.47l0-.48c-.11-2-.51-4.11-.41-5.27,0-.35.09-.83.15-1.32.14-1.07.29-2.18.29-2.18l.77.2c-.05.37-.15,1.19-.25,2-.06.49-.12,1-.15,1.33,0,1,0,2,.06,3A5.49,5.49,0,0,0,12.38,28,2,2,0,0,0,13,29a2.08,2.08,0,0,0,1.63.33,1.65,1.65,0,0,1-1.06.17,1.27,1.27,0,0,0-.81.16c-.2.19-.1.45-.09.72l.06,2c0,.75,0,1.5,0,2.24C12.77,34.62,12.66,35.31,13.88,35.55Z"/><path class="cls-47" d="M11.38,23.75h0a8.34,8.34,0,0,0,3,.44q.44,0,.87-.09a14.21,14.21,0,0,0,1.91-.43l.12,0a5.92,5.92,0,0,0,.89-.32,1.74,1.74,0,0,0,.56-.4h0c0-.23,0-.48,0-.72l-.05,0a.83.83,0,0,0-.35,0l-.93.14c-.61.09-1.23.19-1.84.24a7.36,7.36,0,0,1-2.2-.08,6.91,6.91,0,0,0-1.09-.19,1.41,1.41,0,0,0-.7.13l0,0C11.47,22.91,11.42,23.39,11.38,23.75Z"/><path class="cls-43" d="M19.38,12.44c-.13.84-.15,1.7-.2,2.55s-.09,1.69-.12,2.53C19,18.91,19,20.3,19,21.69v.23a1,1,0,0,1-.12.51.89.89,0,0,1-.3.31,1.64,1.64,0,0,1-.22.14,6.92,6.92,0,0,1-1.3.59l-.22.07-.23.06h0a7,7,0,0,1-1.76.26,7.31,7.31,0,0,1-1.75-.15q-.3-.06-.6-.15a.82.82,0,0,1-.43-.36,5.08,5.08,0,0,1-.53-1.42A6.71,6.71,0,0,1,11.22,20a11.87,11.87,0,0,0,.08-1.33c0-.08,0-.16,0-.25-.07-.94-.12-1.89-.14-2.83,0-.24,0-.49,0-.72,0-.82,0-1.63,0-2.44a7.42,7.42,0,0,0,0-1.32,1.58,1.58,0,0,0-.26-.69,3.18,3.18,0,0,0-.54-.48.57.57,0,0,1-.16-.28,1,1,0,0,1,0-.24A.45.45,0,0,1,10.6,9,14.86,14.86,0,0,0,12,8.25a4.84,4.84,0,0,1,.83-.34l.38-.11.22-.07.31-.08.14,0a1.48,1.48,0,0,1,.42,0l.13,0c.34.08.42.18.78.13a10.56,10.56,0,0,1,1.68.12l.85.1.3,0h0a3.61,3.61,0,0,1,1,.54,2.61,2.61,0,0,1,.41,1.19A8.32,8.32,0,0,1,19.38,12.44Z"/><path class="cls-44" d="M17.11,19.29c0,.62,0,1.24,0,1.86S17,22.2,17,22.71l-.06.44a1.68,1.68,0,0,1-.07.39s-.13,0-.15,0a.8.8,0,0,1-.15,0c.06,0,.08-.65.09-.7.06-.48.09-1,.12-1.46s0-1.19.05-1.79v-2c0-.65,0-1.31,0-2s0-1.2-.06-1.8,0-1-.05-1.46,0-.71-.06-1.06-.07-.67-.12-1l.21.39a3.38,3.38,0,0,1,.27,1.41L17,13.59l.06,1.75c0,.65,0,1.31,0,2S17.11,18.62,17.11,19.29Z"/><path class="cls-50" d="M19.6,11.44c0,.37-.07.74-.1,1.11l0,.35c0,.27,0,.54,0,.81,0,.08,0,.17,0,.26,0,.35,0,.69,0,1a.57.57,0,0,0,0,.13l0,1.24,0,1.46c0,.59,0,1.17,0,1.76,0,.3,0,.6,0,.9,0,.51,0,1,0,1.54,0,.15,0,.31,0,.47a.91.91,0,0,1,0,.17c0,.07,0,.12,0,.18l0,.14a0,0,0,0,1,0,0,.87.87,0,0,1-.46.57h0a1.73,1.73,0,0,1-.37.11l-.49.1a1.35,1.35,0,0,1-.56.1v0c.08-.62.18-1.22.21-1.84,0-.22,0-.43,0-.65v-.63c0-.13,0-.25,0-.37,0-.56,0-1.12,0-1.68,0-.34,0-.69,0-1a.53.53,0,0,0,0-.13c.13-2.63.29-5.36-.66-7.82l0-.35c.07-.36.14-.72.2-1.08,0-.1,0-.24.16-.27a2,2,0,0,1,.35,0h.36a1.1,1.1,0,0,1,.44.11,1.8,1.8,0,0,1,.56.54l.09.14a2.39,2.39,0,0,1,.32.73,3.21,3.21,0,0,1,.09.61A8.08,8.08,0,0,1,19.6,11.44Z"/><path class="cls-51" d="M19.6,11.44c0,.37-.07.74-.1,1.11l0,.35c0,.27,0,.54,0,.81,0,.08,0,.17,0,.26,0,.35,0,.69,0,1a.57.57,0,0,0,0,.13q0,1.35-.06,2.7c0,.59,0,1.17,0,1.76,0,.3,0,.6,0,.9,0,.51,0,1,0,1.54,0,.15,0,.31,0,.47a.91.91,0,0,1,0,.17c0,.07,0,.12,0,.18l0,.14a0,0,0,0,1,0,0,.87.87,0,0,1-.46.57h0a1.73,1.73,0,0,1-.37.11l-.49.1a1.35,1.35,0,0,1-.56.1v0a2.79,2.79,0,0,0,.73-.37,1.94,1.94,0,0,0,.68-.87,5.23,5.23,0,0,0,.11-1.85c0-.67.07-1.33.08-2,0-1.39,0-2.79,0-4.18,0-.2,0-.46-.24-.51s-.4,0-.4-.13a1,1,0,0,0,.8-.72,3,3,0,0,0,.11-1.12c0-.41,0-.81,0-1.21A5.42,5.42,0,0,0,19,9.26a1.8,1.8,0,0,0-1.14-1.14l.3-.11a1.1,1.1,0,0,1,.44.11,1.8,1.8,0,0,1,.56.54l.09.14a2.39,2.39,0,0,1,.32.73,3.21,3.21,0,0,1,.09.61A8.08,8.08,0,0,1,19.6,11.44Z"/><path class="cls-50" d="M16.11,18V19c0,.58,0,1.15,0,1.72,0,.32,0,.64,0,1,0,.8-.09,1.6-.16,2.41a.52.52,0,0,1-.07.25l0,0a.46.46,0,0,1-.22.11l-.36.07-.3.05h-.08a6.74,6.74,0,0,1-1.42,0l-.2,0c-.6-.07-1.62-.17-2-.75A2.38,2.38,0,0,1,11,23l-.3-2c0-.37-.11-.75-.16-1.13,0-.19-.06-.39-.08-.58s0-.39,0-.58a8.1,8.1,0,0,0-.06-.84,10.89,10.89,0,0,1-.19-1.8,27.84,27.84,0,0,1,.43-4.81q.08-.53.18-1.05h0a.72.72,0,0,0-.23-.79c-.06,0-.14-.12-.12-.19s.05-.06.08-.08A6.74,6.74,0,0,1,12.56,8a.75.75,0,0,1,.67.07,3.37,3.37,0,0,1,.67.83,9.85,9.85,0,0,1,.86,1.34,9.94,9.94,0,0,1,1.07,3,17.18,17.18,0,0,1,.2,2.15C16.08,16.26,16.11,17.15,16.11,18Z"/><path class="cls-51" d="M15.81,24.33l0,0a.46.46,0,0,1-.22.11l-.36.07-.3.05h-.08a6.1,6.1,0,0,1-1.21,0,.74.74,0,0,0-.21,0l-.2,0c-.6-.07-1.62-.17-2-.75A2.38,2.38,0,0,1,11,23c-.18-1.24-.38-2.47-.54-3.71,0-.2,0-.39,0-.58s.19-.41.3-.61c.21-.4.52-.7.5-1.2s0-.86,0-1.3c0-.24,0-.48,0-.72,0-.82,0-1.63,0-2.45a7.31,7.31,0,0,0,0-1.31,1.58,1.58,0,0,0-.26-.69.86.86,0,0,0-.21-.22,4.19,4.19,0,0,1-.33-.26.37.37,0,0,1-.15-.28,1.06,1.06,0,0,1,0-.31.38.38,0,0,1,.08-.17s.06-.06.1-.09c.28-.18.53-.4.83-.57a4.46,4.46,0,0,1,.92-.41c.32-.12.65-.18,1-.27l.14.19-.14.08-.85.51a1.23,1.23,0,0,0-.34.26c-.28.38,0,.9.22,1.33A5.22,5.22,0,0,1,12.48,13a1.46,1.46,0,0,0,1.07,1.87,1.9,1.9,0,0,0,1.26-.16,4,4,0,0,1-1.48.51,2.05,2.05,0,0,0-1.21.62A2.82,2.82,0,0,0,12,17.17a21.28,21.28,0,0,0,.32,3.18c0,.19,0,.37,0,.57.06.46.17.91.27,1.37a3,3,0,0,0,.76,1.45,2.25,2.25,0,0,0,1.46.68A4.74,4.74,0,0,0,15.81,24.33Z"/><path class="cls-40" d="M16.08,20.71c0,.32,0,.64,0,1-.32,0-.64,0-1,0a15.78,15.78,0,0,1-2.91-.29c-.27-.05-.55-.1-.82-.17a3.62,3.62,0,0,1-.67-.3c0-.37-.11-.75-.16-1.13l.14.06a4.55,4.55,0,0,0,.94.46c.4.09.81.16,1.22.22A13.19,13.19,0,0,0,16.08,20.71Z"/><path class="cls-7" d="M16.11,18v1c-.34,0-.69,0-1,0a16.83,16.83,0,0,1-3.9-.5l.25-.92A15.52,15.52,0,0,0,16.11,18Z"/><path class="cls-52" d="M13.83,8.67l.21.16.06,0c.22.15.45.28.66.43a2.67,2.67,0,0,0,.8.38,1.41,1.41,0,0,0,.81.11c.48-.1.6-.53.66-1a1.75,1.75,0,0,0,0-.4c0-.07,0-.14,0-.23a2.57,2.57,0,0,1,.06-.78.32.32,0,0,1,0-.09L13.76,4.8s.75,2,.38,2.43a2.32,2.32,0,0,1-.88.55S13.15,8.14,13.83,8.67Z"/><path class="cls-45" d="M17.94,7.17a5,5,0,0,1-1,.6,4.49,4.49,0,0,1,.15,1,1.32,1.32,0,0,1-.18.65,1.19,1.19,0,0,1-.57.44,2.46,2.46,0,0,1,.22.68,1.45,1.45,0,0,0,0,.3,1,1,0,0,1,.12.32,1.32,1.32,0,0,1,.34-.77c.2-.23.41-.43.59-.67A2.94,2.94,0,0,0,17.94,7.17Z"/><path class="cls-53" d="M13.83,8.67l.21.16.06,0a.84.84,0,0,0,.06-.14,3.24,3.24,0,0,0,.12-.62,2.08,2.08,0,0,1,.05-.36.47.47,0,0,1,.22-.29c.2-.1.43,0,.61.16s.43.37.67.54a1.53,1.53,0,0,0,.79.32.93.93,0,0,0,.4-.06c0-.07,0-.14,0-.23a2.57,2.57,0,0,1,.06-.78.32.32,0,0,1,0-.09L13.76,4.8s.75,2,.38,2.43a2.32,2.32,0,0,1-.88.55S13.15,8.14,13.83,8.67Z"/><path class="cls-46" d="M13.8,5.09a.41.41,0,0,0-.05.09.5.5,0,0,0,0,.25,1.78,1.78,0,0,0,.29.71h0l.14.22c.05.13.11.24.14.33a.56.56,0,0,1,.08.21,3.54,3.54,0,0,0,1,1.23l.05,0,.12.12.05,0,0,0,0,0,0,0c.65.53,1.26.64,1.61.45s.77-1.37.77-1.37c.1-.21.17-.44.28-.65l0-.06c.11-.25.11-.5.21-.76,0-.11.12-.21.17-.32A1.65,1.65,0,0,0,18.83,5l0-.92,0-.54a1.61,1.61,0,0,0-.31-1.13,2.32,2.32,0,0,0-1.1-.73s-1.74.76-1.9.79a2.41,2.41,0,0,0-1.53,1.77,3,3,0,0,0-.08.82l0,0Z"/><path class="cls-53" d="M18.79,4A7.27,7.27,0,0,0,16.68,3,2.78,2.78,0,0,0,16,2.84a1.06,1.06,0,0,0-.65.19,1.16,1.16,0,0,0-.36.71,3.29,3.29,0,0,0,0,.94,8.26,8.26,0,0,1,0,1.86,1.91,1.91,0,0,0,.26-.41,3,3,0,0,0,.35-1c0-.12,0-.25,0-.38A3.34,3.34,0,0,1,15.68,4a.4.4,0,0,1,.21-.28,1.07,1.07,0,0,1,.47,0,15.27,15.27,0,0,1,1.91.34,1.39,1.39,0,0,0,.53,0Z"/><path class="cls-54" d="M13.54,3.13a9.63,9.63,0,0,0,.07,1.71l0,.22,0,.22,0,.09a1.77,1.77,0,0,0,.33.77,0,0,0,0,0,0,0s0-.06,0-.09A1.61,1.61,0,0,0,14,5.63a1,1,0,0,1,0-.24.28.28,0,0,1,0-.13.39.39,0,0,1,.08-.14.44.44,0,0,1,.56,0,.88.88,0,0,1,.25.54c0,.09,0,.19,0,.28a.88.88,0,0,0,0,.17.57.57,0,0,0,0,.14l.05-.08a.56.56,0,0,0,0-.12c.07-.18.11-.37.17-.54a3.16,3.16,0,0,0,.16-.74c0-.18,0-.37,0-.55a.6.6,0,0,1,.27-.58,1.19,1.19,0,0,1,.6-.16,4.71,4.71,0,0,1,1.57.32,2.83,2.83,0,0,0,.9.22c.07,0,.15,0,.22,0s.13-.09.16-.16a1.79,1.79,0,0,0,.17-.68,3.81,3.81,0,0,0-.07-.67c0-.19-.16-.29-.31-.4a2.14,2.14,0,0,0-.58-.35,3.68,3.68,0,0,0-1.07-.28A3.85,3.85,0,0,0,15,1.6c-.22.11-.44.23-.63.35L14.24,2A1.38,1.38,0,0,0,13.54,3.13Z"/><path class="cls-55" d="M13.54,3.13a9.63,9.63,0,0,0,.07,1.71l0,.22,0,.22,0,.09a1.88,1.88,0,0,0,.32.77h0a0,0,0,0,0,0,0s0-.06,0-.09A1.61,1.61,0,0,0,14,5.63a1,1,0,0,1,0-.24.28.28,0,0,1,0-.13.39.39,0,0,1,.08-.14.44.44,0,0,1,.56,0,.88.88,0,0,1,.25.54c0,.09,0,.19,0,.28a.88.88,0,0,0,0,.17.57.57,0,0,0,0,.14l.05-.08a.56.56,0,0,0,0-.12c.07-.18.11-.37.17-.54a3.16,3.16,0,0,0,.16-.74c0-.18,0-.37,0-.55a10.18,10.18,0,0,0-.2,1.25c0,.07-.07.14-.13.11a.07.07,0,0,1,0-.05c-.09-.15-.12-.33-.2-.49a.58.58,0,0,0-.36-.36.72.72,0,0,0-.47.11.29.29,0,0,1-.1,0c-.09,0-.13-.12-.14-.21a3.44,3.44,0,0,1,.12-1.91,4.94,4.94,0,0,0,.33-.7A1.38,1.38,0,0,0,13.54,3.13Z"/><path class="cls-56" d="M16.2,1.18l.51,0a1.71,1.71,0,0,1,.49.14.77.77,0,0,1,.36.23.2.2,0,0,1,.06.09.27.27,0,0,1-.18.33c-.45.19-1,0-1.43.05-.64,0-1.2.45-1.84.52a.31.31,0,0,1-.28-.06.24.24,0,0,1-.05-.22.56.56,0,0,1,.11-.2,2.19,2.19,0,0,1,.44-.42,2.28,2.28,0,0,1,.8-.3,3.43,3.43,0,0,1,.44-.09,4.17,4.17,0,0,1,.51-.09Z"/><path class="cls-45" d="M16.3,9.87l-.29,0a.63.63,0,0,1-.24-.09l-.25-.11c-.17-.09-.33-.21-.5-.32-.51-.33-1.25-.73-1.24-1.44,0-.1,0-.41.1-.45a5.06,5.06,0,0,0-.67.17l-.33.1a1.31,1.31,0,0,0-.33.12c-.05,0,0,0,0,.11l.06.15c0,.1.08.19.13.29a3.24,3.24,0,0,0,.35.53,3.74,3.74,0,0,0,1,.85,4.42,4.42,0,0,0,.61.32l.6.27c.22.11.47.17.7.28a.9.9,0,0,1,.3.17l.3.3s.08.15.11.15a3.82,3.82,0,0,0-.22-1.3.13.13,0,0,0-.05-.07h-.1Z"/><path class="cls-57" d="M20.42,4.58a1.33,1.33,0,0,0-.1-.28,4,4,0,0,0-.81-1.08,5.2,5.2,0,0,0-1-.82A6.27,6.27,0,0,0,16,1.4a3.87,3.87,0,0,0-.48,0,2.73,2.73,0,0,0-.57,0,1.94,1.94,0,0,0-.84.32.25.25,0,0,1,0-.12,2,2,0,0,0-.66,1.1,1.48,1.48,0,0,0,.06.66A2,2,0,0,0,13.9,4a2.31,2.31,0,0,0,.36.34,2.38,2.38,0,0,0,.9.48.49.49,0,0,1,.16.05c.34.24.57.56.93.77a7.18,7.18,0,0,0,1.16.46,3.51,3.51,0,0,0,1.82,0,1.91,1.91,0,0,0,.53-.22A1.39,1.39,0,0,0,20.42,4.58Z"/><path class="cls-58" d="M14.1,1.72a.25.25,0,0,0,0,.12,2,2,0,0,1,.84-.32,2.73,2.73,0,0,1,.57,0,3.87,3.87,0,0,1,.48,0,6.21,6.21,0,0,1,2.52,1,5.2,5.2,0,0,1,1,.82,3.83,3.83,0,0,1,.81,1.08,1.33,1.33,0,0,1,.1.28.67.67,0,0,1,0,.37.91.91,0,0,0,0-.49,1.33,1.33,0,0,0-.1-.28,4,4,0,0,0-.81-1.08,5.2,5.2,0,0,0-1-.82A6.27,6.27,0,0,0,16,1.4a3.87,3.87,0,0,0-.48,0,2.73,2.73,0,0,0-.57,0,1.94,1.94,0,0,0-.84.32.25.25,0,0,1,0-.12,2,2,0,0,0-.65,1A2.18,2.18,0,0,1,14.1,1.72Z"/><path class="cls-58" d="M19.8,5.77a1.63,1.63,0,0,1-.53.21,3.51,3.51,0,0,1-1.82,0,5.87,5.87,0,0,1-1.16-.47,9.91,9.91,0,0,1-.93-.76.85.85,0,0,0-.17-.06,2.15,2.15,0,0,1-.89-.48,1.88,1.88,0,0,1-.36-.33,2,2,0,0,1-.37-.63,1.5,1.5,0,0,1-.07-.66v0a.58.58,0,0,0,0,.19,1.48,1.48,0,0,0,.06.66A2,2,0,0,0,13.9,4a2.31,2.31,0,0,0,.36.34,2.38,2.38,0,0,0,.9.48.49.49,0,0,1,.16.05c.34.24.57.56.93.77a7.18,7.18,0,0,0,1.16.46,3.51,3.51,0,0,0,1.82,0,1.91,1.91,0,0,0,.53-.22,1.56,1.56,0,0,0,.67-1A1.66,1.66,0,0,1,19.8,5.77Z"/><path class="cls-59" d="M19.41,2.86c-.07-.29-.17-.58-.27-.87a2.87,2.87,0,0,0-.43-.81A2.94,2.94,0,0,0,18,.53,3.05,3.05,0,0,0,16.31.09a2.69,2.69,0,0,0-1.42.46,3.13,3.13,0,0,0-1.2,1.92,1.33,1.33,0,0,0,.24,1.17A4.45,4.45,0,0,0,17.55,5c.57,0,1.45-.16,1.79-.71a1.15,1.15,0,0,0,.12-.37A2.63,2.63,0,0,0,19.41,2.86Z"/><path class="cls-50" d="M19.43,4.36a.26.26,0,0,1,0,.15.43.43,0,0,1-.12.11,1.28,1.28,0,0,1-.53.24l-.23,0h-.17s.06,0,0-.08a.76.76,0,0,1,0-.11l-.05-.15L18.21,4,18,3.25l-.23-.71-.52-.87L16.83,1,16,.62l-1.21,0A4,4,0,0,1,16,.07h0l.14,0a2.21,2.21,0,0,1,.77,0,1.74,1.74,0,0,1,.65.26,1.59,1.59,0,0,1,.21.15,2.53,2.53,0,0,1,.37.36,4.35,4.35,0,0,1,.32.43c.1.16.18.32.26.48s.15.34.22.51.11.33.17.5.09.31.13.47l.09.43c0,.12.05.24.07.35S19.43,4.34,19.43,4.36Z"/><path class="cls-58" d="M18.18,4.85s0,0,0-.07,0-.06,0-.09,0-.18,0-.27-.05-.24-.07-.37-.07-.29-.11-.44a4.34,4.34,0,0,0-.14-.48,4.24,4.24,0,0,0-.18-.5,4.46,4.46,0,0,0-.22-.5,4.25,4.25,0,0,0-.27-.46,4.12,4.12,0,0,0-.33-.4A2.31,2.31,0,0,0,16.41,1a.91.91,0,0,0-.17-.09L16.08.8a1.91,1.91,0,0,0-1.55.13L14.4,1a2.31,2.31,0,0,1,.14-.19.84.84,0,0,1,.31-.25,1.14,1.14,0,0,1,.26-.09,2.27,2.27,0,0,1,.78,0,1.92,1.92,0,0,1,.66.27l.21.14a2.59,2.59,0,0,1,.37.37,3.43,3.43,0,0,1,.32.43c.09.16.18.32.26.48a4.4,4.4,0,0,1,.21.5,4.91,4.91,0,0,1,.17.5,4.27,4.27,0,0,1,.13.48c0,.14.07.28.1.43l.06.35a2.34,2.34,0,0,1,0,.26.5.5,0,0,1,0,.12s0,.07,0,.1-.07,0-.11,0l-.08,0S18.19,4.88,18.18,4.85Z"/><path class="cls-7" d="M19.32,16.37c0,.49,0,1,0,1.47a4.67,4.67,0,0,1-1.65.87c0-.34,0-.69.05-1a2.83,2.83,0,0,0,1.58-1.32Z"/><path class="cls-40" d="M19.3,20.5a4.46,4.46,0,0,1-1.73.89c0-.21,0-.42,0-.63s0-.25,0-.37A2.94,2.94,0,0,0,19.28,19h0C19.29,19.52,19.3,20,19.3,20.5Z"/><path class="cls-40" d="M15.49,13.16c0-.16,0-.48-.18-.49a.73.73,0,0,0-.2.05,4.42,4.42,0,0,1-1.35.25,4.16,4.16,0,0,1-.61,0c-.11,0-.3-.09-.35.05a1.35,1.35,0,0,0,0,.49c0,.36.05.72.07,1.08a.6.6,0,0,0,.08.33.62.62,0,0,0,.25.2c.34.19.7.36,1.06.52a.17.17,0,0,0,.12,0c.26,0,.45-.28.6-.47l.22-.33a2,2,0,0,0,.22-.29,1.57,1.57,0,0,0,0-.23C15.52,13.93,15.46,13.55,15.49,13.16Z"/><polygon class="cls-60" points="28.74 15.53 21.89 15.74 15.94 18.33 23.61 18.14 29.18 15.52 29.18 15.32 28.74 15.53"/><polygon class="cls-40" points="29.18 15.32 23.61 17.95 15.94 18.14 21.89 15.55 29.18 15.32"/><path class="cls-45" d="M25.4,17l-.17-1.45-.41.23H22l-3.73,1.81,3.37,0-.57.32Zm-3.14-.28,1.5-.37-1.44.8Zm2.65-.55.06.52L23.41,17Zm-2.68.36-.06-.36h1.51Zm-.19.05L20.35,17,22,16.2Zm-1.71.62,1.74-.43.07.43Z"/><path class="cls-46" d="M19.61,18.24a2,2,0,0,1-.61.39,9.79,9.79,0,0,1-1.31.49,2.41,2.41,0,0,1-.59.09,2.94,2.94,0,0,1-.51,0c-.61,0-1.63-.07-2-.05a29.06,29.06,0,0,1-3.47,0h0l-.42-.07a3.44,3.44,0,0,1-1.51-.51,1.31,1.31,0,0,1-.13-.27A8,8,0,0,1,8.83,16c0-.87-.05-4.93,1.46-6.84a1.1,1.1,0,0,1,1-.41.9.9,0,0,1,.63.54,4.8,4.8,0,0,1,.17,3.26,37.54,37.54,0,0,0-.78,4.17,1.92,1.92,0,0,0,.3.27,2.15,2.15,0,0,0,.57.29,10.9,10.9,0,0,0,2.22.31.72.72,0,0,0,.21,0,1.9,1.9,0,0,0,.89-.19,3,3,0,0,1,1.64-.07c.4,0,.79,0,1.18.06.14,0,.44,0,.53.1a.25.25,0,0,1-.16.36l-.06,0-.51.09a.11.11,0,0,0,.05.12l.12,0c.4.08.82,0,1.21.13Z"/><path class="cls-61" d="M19.61,18.24a2,2,0,0,1-.61.39,9.79,9.79,0,0,1-1.31.49,2.41,2.41,0,0,1-.59.09,2.94,2.94,0,0,1-.51,0c-.61,0-1.63-.07-2-.05a29.06,29.06,0,0,1-3.47,0,1,1,0,0,1,.11-.47h.21a9.7,9.7,0,0,0,3.4,0,25.46,25.46,0,0,0,2.76,0,8,8,0,0,0,1.9-.58Z"/><path class="cls-43" d="M11.47,16.74v.08l.07.08a1,1,0,0,0,.24.2.35.35,0,0,0,.05.08,1.51,1.51,0,0,0-.46.27,1.85,1.85,0,0,0-.55,1.93,3.8,3.8,0,0,1-1.56-.53,1.67,1.67,0,0,1-.14-.28,8.63,8.63,0,0,1-.24-2.48c0-.91,0-5.12,1.5-7.09a1.17,1.17,0,0,1,1.07-.43l.06,0A.83.83,0,0,1,12,9l.12.19a4.91,4.91,0,0,1,.17,3.36,38,38,0,0,0-.76,4c0,.1,0,.18,0,.24Z"/><path class="cls-44" d="M12.26,12.5a38,38,0,0,0-.76,4c0,.1,0,.18,0,.24h0l-.05.06c-.24-.63.3-1.33.19-2a.26.26,0,0,1-.21,0A9,9,0,0,0,12,12.88a10.82,10.82,0,0,0,.29-2.11A4.51,4.51,0,0,0,12,9l.12.19A4.91,4.91,0,0,1,12.26,12.5Z"/><path class="cls-44" d="M11.53,16.9v0c-.06.17-.11.35-.16.52a1.85,1.85,0,0,0-.55,1.93,3.8,3.8,0,0,1-1.56-.53,1.67,1.67,0,0,1-.14-.28,8.63,8.63,0,0,1-.24-2.48c0-.91,0-5.12,1.5-7.09a1.17,1.17,0,0,1,1.07-.43l.06,0a1,1,0,0,0-.3.19,3.62,3.62,0,0,0-1,1.48,13.07,13.07,0,0,0-.79,7.54l0,.07c0,.06.14.05.2,0a.63.63,0,0,0,.1-.2,1.33,1.33,0,0,1,.84-.83A1.88,1.88,0,0,0,10,18.11a2.56,2.56,0,0,1,.2-.26.58.58,0,0,0,0,.26l.19-.3a2.61,2.61,0,0,0,.19-.27,3,3,0,0,1,.84-1c0,.21,0,.32,0,.32Z"/><path class="cls-45" d="M12.25,17.08a2.06,2.06,0,0,0-.62-.34l-.08,0a.9.9,0,0,0-.54.44,3.6,3.6,0,0,0-.45.95,1.36,1.36,0,0,0,0,1.15.72.72,0,0,0,.61.19.88.88,0,0,0,.28-.12s-.06-.25-.06-.27a.85.85,0,0,1,0-.23,3.21,3.21,0,0,1,.15-.53,2.73,2.73,0,0,1,.3-.56.93.93,0,0,1,.21-.27s.27-.17.26-.19A1.43,1.43,0,0,0,12.25,17.08Z"/></g></g></g></svg>