<?xml version="1.0" encoding="utf-8"?>
<!-- Generator: Adobe Illustrator 24.0.1, SVG Export Plug-In . SVG Version: 6.00 Build 0)  -->
<svg version="1.1" id="Layer_1" xmlns="http://www.w3.org/2000/svg" xmlns:xlink="http://www.w3.org/1999/xlink" x="0px" y="0px"
	 viewBox="0 0 612 137.38" style="enable-background:new 0 0 612 137.38;" xml:space="preserve">
<style type="text/css">
	.st0{fill:#D27728;}
	.st1{fill:#1D1D1D;}
	.st2{fill:#E38225;}
	.st3{fill:#1E2D5E;}
</style>
<g>
	<path class="st0" d="M109.05,20.32H25.88c-4.77,0-8.64,3.87-8.64,8.64v83.17c0,4.77,3.87,8.64,8.64,8.64h83.17
		c4.77,0,8.63-3.87,8.63-8.64V28.96C117.69,24.19,113.82,20.32,109.05,20.32 M73.05,85.93l-22.73,22.74
		c-5.91,5.92-15.63,5.77-21.37-0.42c-5.45-5.89-5.02-15.14,0.66-20.82l12.26-12.26c0.47-0.47,1.23-0.47,1.7,0l2.98,2.98
		c0.47,0.47,0.47,1.24,0,1.7L34.2,92.21c-3.02,3.02-3.43,7.9-0.7,11.2c3.13,3.77,8.75,3.96,12.13,0.58l22.73-22.73
		c0.47-0.47,1.23-0.47,1.7,0l2.98,2.98C73.52,84.71,73.52,85.47,73.05,85.93 M86.84,76.68c-2.54,2.54-6.67,2.54-9.21,0
		c-2.54-2.55-2.54-6.67,0-9.22c2.55-2.54,6.67-2.54,9.21,0C89.38,70.01,89.38,74.13,86.84,76.68 M105.34,53.65l-9.27,9.27
		c-0.47,0.47-1.24,0.47-1.7,0l-2.99-2.99c-0.47-0.46-0.47-1.23,0-1.7l9.36-9.35c3.02-3.02,3.42-7.91,0.7-11.19
		c-3.12-3.78-8.75-3.97-12.14-0.59L61.87,64.53l3.98,3.98c0.64,0.64,0.27,1.73-0.62,1.85l-14.65,2.02c-0.72,0.1-1.33-0.51-1.23-1.23
		l2.03-14.66c0.12-0.9,1.21-1.26,1.86-0.62l3.98,3.98l27.43-27.43c5.92-5.92,15.63-5.77,21.37,0.42
		C111.45,38.72,111.02,47.97,105.34,53.65"/>
	<g>
		<path class="st1" d="M166.21,105.71c-3.78-1.7-6.75-4.06-8.9-7.08c-2.15-3.02-3.26-6.51-3.33-10.46h10.1
			c0.35,3.4,1.75,6.27,4.22,8.59c2.46,2.33,6.06,3.49,10.78,3.49c4.51,0,8.07-1.13,10.67-3.38c2.6-2.25,3.9-5.15,3.9-8.69
			c0-2.78-0.76-5.03-2.29-6.77c-1.53-1.73-3.44-3.05-5.73-3.96c-2.29-0.9-5.38-1.87-9.27-2.92c-4.79-1.25-8.63-2.5-11.51-3.75
			c-2.88-1.25-5.35-3.21-7.39-5.88c-2.05-2.67-3.07-6.26-3.07-10.78c0-3.96,1.01-7.46,3.02-10.52c2.01-3.05,4.84-5.41,8.49-7.08
			c3.64-1.67,7.83-2.5,12.55-2.5c6.8,0,12.37,1.7,16.71,5.1c4.34,3.4,6.78,7.91,7.34,13.54h-10.41c-0.35-2.78-1.81-5.22-4.37-7.34
			c-2.57-2.12-5.97-3.18-10.2-3.18c-3.96,0-7.18,1.02-9.68,3.07c-2.5,2.05-3.75,4.91-3.75,8.59c0,2.64,0.75,4.79,2.24,6.46
			c1.49,1.67,3.33,2.93,5.52,3.8c2.19,0.87,5.26,1.86,9.21,2.97c4.79,1.32,8.64,2.62,11.56,3.9c2.92,1.29,5.41,3.26,7.5,5.94
			c2.08,2.67,3.12,6.3,3.12,10.88c0,3.54-0.94,6.87-2.81,10c-1.87,3.12-4.65,5.66-8.33,7.6c-3.68,1.94-8.02,2.92-13.02,2.92
			C174.28,108.26,170,107.41,166.21,105.71z"/>
		<path class="st1" d="M217.18,63.44c2.36-4.41,5.6-7.83,9.74-10.26c4.13-2.43,8.73-3.64,13.8-3.64c5,0,9.33,1.08,13.02,3.23
			c3.68,2.15,6.42,4.86,8.23,8.12V50.47h9.58v57.06h-9.58V96.91c-1.87,3.33-4.67,6.09-8.38,8.28c-3.71,2.19-8.04,3.28-12.96,3.28
			c-5.07,0-9.65-1.25-13.74-3.75c-4.1-2.5-7.32-6-9.68-10.52c-2.36-4.51-3.54-9.65-3.54-15.41
			C213.64,72.96,214.82,67.85,217.18,63.44z M259.35,67.65c-1.74-3.19-4.08-5.64-7.03-7.34c-2.95-1.7-6.19-2.55-9.74-2.55
			c-3.54,0-6.77,0.83-9.68,2.5c-2.92,1.67-5.24,4.1-6.98,7.29c-1.74,3.19-2.6,6.94-2.6,11.25c0,4.37,0.87,8.17,2.6,11.4
			c1.73,3.23,4.06,5.69,6.98,7.39c2.92,1.7,6.14,2.55,9.68,2.55c3.54,0,6.78-0.85,9.74-2.55c2.95-1.7,5.29-4.16,7.03-7.39
			c1.73-3.23,2.6-6.99,2.6-11.3C261.95,74.6,261.08,70.85,259.35,67.65z"/>
		<path class="st1" d="M327.55,52.19c3.47,1.84,6.2,4.6,8.17,8.28c1.98,3.68,2.97,8.16,2.97,13.43v33.63h-9.37V75.25
			c0-5.69-1.42-10.05-4.27-13.07c-2.85-3.02-6.73-4.53-11.66-4.53c-5,0-8.97,1.56-11.92,4.69c-2.95,3.12-4.43,7.67-4.43,13.64v31.55
			h-9.47V30.48h9.47V58.6c1.87-2.92,4.46-5.17,7.76-6.77c3.3-1.6,6.99-2.39,11.09-2.39C320.19,49.43,324.08,50.35,327.55,52.19z"/>
		<path class="st1" d="M354.2,63.44c2.36-4.41,5.6-7.83,9.74-10.26c4.13-2.43,8.73-3.64,13.8-3.64c5,0,9.33,1.08,13.02,3.23
			c3.68,2.15,6.42,4.86,8.23,8.12V50.47h9.58v57.06h-9.58V96.91c-1.88,3.33-4.67,6.09-8.38,8.28c-3.71,2.19-8.04,3.28-12.96,3.28
			c-5.07,0-9.65-1.25-13.74-3.75c-4.1-2.5-7.32-6-9.68-10.52c-2.36-4.51-3.54-9.65-3.54-15.41
			C350.66,72.96,351.84,67.85,354.2,63.44z M396.37,67.65c-1.74-3.19-4.08-5.64-7.03-7.34c-2.95-1.7-6.2-2.55-9.74-2.55
			s-6.77,0.83-9.68,2.5c-2.92,1.67-5.24,4.1-6.98,7.29c-1.74,3.19-2.6,6.94-2.6,11.25c0,4.37,0.87,8.17,2.6,11.4
			c1.73,3.23,4.06,5.69,6.98,7.39c2.92,1.7,6.14,2.55,9.68,2.55s6.78-0.85,9.74-2.55c2.95-1.7,5.29-4.16,7.03-7.39
			c1.73-3.23,2.6-6.99,2.6-11.3C398.98,74.6,398.11,70.85,396.37,67.65z"/>
		<path class="st1" d="M424.59,63.44c2.36-4.41,5.6-7.83,9.74-10.26c4.13-2.43,8.73-3.64,13.8-3.64c5,0,9.33,1.08,13.02,3.23
			c3.68,2.15,6.42,4.86,8.23,8.12V50.47h9.58v57.06h-9.58V96.91c-1.88,3.33-4.67,6.09-8.38,8.28c-3.71,2.19-8.04,3.28-12.96,3.28
			c-5.07,0-9.65-1.25-13.74-3.75c-4.1-2.5-7.32-6-9.68-10.52c-2.36-4.51-3.54-9.65-3.54-15.41
			C421.05,72.96,422.23,67.85,424.59,63.44z M466.76,67.65c-1.74-3.19-4.08-5.64-7.03-7.34c-2.95-1.7-6.2-2.55-9.74-2.55
			s-6.77,0.83-9.68,2.5c-2.92,1.67-5.24,4.1-6.98,7.29c-1.74,3.19-2.6,6.94-2.6,11.25c0,4.37,0.87,8.17,2.6,11.4
			c1.73,3.23,4.06,5.69,6.98,7.39c2.92,1.7,6.14,2.55,9.68,2.55s6.78-0.85,9.74-2.55c2.95-1.7,5.29-4.16,7.03-7.39
			c1.73-3.23,2.6-6.99,2.6-11.3C469.36,74.6,468.49,70.85,466.76,67.65z"/>
	</g>
	<path class="st0" d="M554.87,106.94c0.52-0.74,0.89-1.19,1.26-1.71c0.89-2.08,1.93-4.17,2.75-6.32c2.08-5.51,4.02-11.16,5.88-16.81
		c0.89-2.45,1.41-4.98,2.31-7.44c0.37-1.41,1.12-1.56,2.6-0.97c-0.22,0.82-0.52,1.78-0.89,2.68c-2.38,8.26-4.84,16.52-7.44,24.7
		c-0.52,1.86-1.41,3.79-2.31,5.43c-1.71,3.05-5.65,3.42-7.81,2.68c-1.56-0.59-2.6-1.64-2.9-3.27c-0.37-1.71-0.52-3.5-0.67-5.13
		c-0.22-7.51,0.74-14.81,2.23-22.17c0.89-4.84,1.64-9.67,2.45-14.51v-0.74c-0.59,0.37-0.82,0.89-1.04,1.41
		c-1.12,2.46-2.31,4.99-3.35,7.44l-4.98,13.76c-0.6,1.49-1.26,3.05-1.93,4.46c-0.37,0.67-0.89,1.26-1.41,1.93
		c-1.86,2.68-6.84,2.45-8.63-0.89c-0.59-1.34-0.89-2.68-1.12-4.17c-0.67-3.27-0.3-6.62,0.07-9.89c0.52-4.17,1.19-8.33,1.79-12.5
		c0.07-0.37,0.07-0.82-0.07-1.34l-0.74,0.97c-2.08,3.42-3.57,7.14-4.91,10.94c-1.79,5.06-3.65,10.19-5.51,15.18
		c-0.45,1.26-1.04,2.53-1.79,3.65c-1.79,2.83-4.99,3.42-7.81,1.56c-1.12-0.82-1.86-1.86-2.53-3.12c-1.34-2.46-1.64-5.21-1.64-8.04
		c0.07-6.4,1.26-12.8,3.12-18.9c0.45-1.19,0.97-2.31,1.34-3.5c0.3-0.67,0.97-1.04,1.71-1.12c1.34-0.22,2.68,0.07,3.79,0.74
		c0.74,0.37,1.04,1.04,0.97,1.86c-0.3,2.6-0.6,5.21-1.04,7.81c-0.6,3.87-1.27,7.59-1.34,11.46l-0.3,7.81c0,0.45,0.07,0.74,0.3,1.12
		c0.3-0.52,0.59-1.04,0.82-1.56c2.38-6.03,4.91-11.98,7.22-18.08c1.41-3.79,3.2-7.22,5.06-10.64c0.74-1.26,1.71-2.31,2.6-3.35
		c0.3-0.37,0.97-0.74,1.49-0.82c2.46-0.74,5.21,0.59,6.32,2.9c0.82,1.79,0.97,3.57,0.97,5.43c-0.15,4.76-0.74,9.6-1.49,14.36
		l-0.89,6.25c0,0.45,0,0.82,0.15,1.26l0.37-0.82c0.82-2.38,1.64-4.69,2.38-6.99c1.86-5.73,4.24-11.16,7.14-16.22
		c1.04-1.79,2.31-3.5,3.57-5.06c1.79-2.23,5.5-2.6,7.74-0.6c0.52,0.52,0.89,1.27,1.12,2.01c0.3,1.34,0.59,2.68,0.52,4.17
		c-0.3,4.46-1.04,8.85-1.79,13.17c-1.26,7.66-2.83,15.25-3.42,22.92c0,0.97-0.22,1.78-0.45,2.75
		C554.65,104.18,554.42,105.37,554.87,106.94L554.87,106.94z M573.8,75.84c-0.3,0.97-0.6,2.08-0.97,3.12
		c-0.67,2.75-1.04,5.43-0.67,8.26c0.15,1.34,0.6,2.68,1.64,3.72c0.97,1.04,2.08,1.41,3.57,0.89c2.23-0.97,3.94-2.75,5.51-4.61
		c0.22-0.3,0.52-0.82,0.82-1.12c0.59-0.74,1.49-1.04,2.38-0.97c1.27,0.08,1.71,0.97,1.27,2.01c-0.3,0.59-0.6,1.12-1.04,1.64
		c-1.49,1.79-2.9,3.42-4.91,4.61c-5.43,3.12-15.47,0.89-16.89-8.7c-0.37-3.5,0.15-6.85,1.19-10.04c2.08-6.4,5.58-11.9,10.79-16.07
		c1.93-1.56,4.02-2.53,6.4-2.83c3.42-0.3,6.32,0.97,8.63,3.42c1.12,1.41,1.34,3.05,0.82,4.69c-0.37,1.04-0.89,2.23-1.64,3.27
		c-3.35,4.46-7.81,7.51-13.47,8.56C576.18,75.76,575.14,75.76,573.8,75.84L573.8,75.84z M574.91,73.16h0.74
		c3.94-1.11,7.59-2.9,10.34-6.17c1.12-1.19,1.86-2.6,2.16-4.17c0.15-0.67,0-1.56-0.22-2.23c-0.15-1.04-0.59-1.26-1.64-0.97
		c-1.34,0.45-2.53,1.12-3.42,2.01c-3.42,2.98-5.88,6.62-7.74,10.71C575.06,72.57,575.06,72.72,574.91,73.16z"/>
</g>
</svg>
