<svg xmlns="http://www.w3.org/2000/svg" viewBox="0 0 64.27 62.33"><defs><style>.cls-1{fill:none;stroke:#102f3a;stroke-linecap:round;stroke-linejoin:round;stroke-width:1.5px;}.cls-2{fill:#ffd3ae;}</style></defs><g id="Layer_2" data-name="Layer 2"><g id="Layer_1-2" data-name="Layer 1"><path class="cls-1" d="M24.54,15.42a16.23,16.23,0,0,0,.22-2.12,3.16,3.16,0,1,0-6.32,0,13.08,13.08,0,0,0,.29,2.12"/><path class="cls-2" d="M28.8,2.42V13.75a1.67,1.67,0,0,1-1.67,1.67H24.54a16.23,16.23,0,0,0,.22-2.12,3.16,3.16,0,1,0-6.32,0,13.08,13.08,0,0,0,.29,2.12H11.25v5.42l-5.6-5.42H3.44a1.67,1.67,0,0,1-1.67-1.67V2.42A1.67,1.67,0,0,1,3.44.75H27.13A1.67,1.67,0,0,1,28.8,2.42Z"/><path class="cls-1" d="M28.8,2.42V13.75a1.67,1.67,0,0,1-1.67,1.67H24.54a16.23,16.23,0,0,0,.22-2.12,3.16,3.16,0,1,0-6.32,0,13.08,13.08,0,0,0,.29,2.12H11.25v5.42l-5.6-5.42H3.44a1.67,1.67,0,0,1-1.67-1.67V2.42A1.67,1.67,0,0,1,3.44.75H27.13A1.67,1.67,0,0,1,28.8,2.42Z"/><line class="cls-1" x1="4.99" y1="5.94" x2="25.95" y2="5.94"/><line class="cls-1" x1="4.99" y1="10.14" x2="15.28" y2="10.14"/><path class="cls-2" d="M28.8,22.61V32a1.34,1.34,0,0,1-1.35,1.35H15.76A1.35,1.35,0,0,1,14.4,32V22.61A2,2,0,0,1,15.32,21l4.31-2.1a26.4,26.4,0,0,1-.9-3.43,13.08,13.08,0,0,1-.29-2.12,3.16,3.16,0,1,1,6.32,0,16.23,16.23,0,0,1-.22,2.12,27.91,27.91,0,0,1-.78,3.49l4.13,2A2,2,0,0,1,28.8,22.61Z"/><path class="cls-2" d="M35.45,22.61V32a1.34,1.34,0,0,0,1.35,1.35H48.49A1.35,1.35,0,0,0,49.85,32V22.61A2,2,0,0,0,48.93,21l-4.31-2.1a26.4,26.4,0,0,0,.9-3.43,13.08,13.08,0,0,0,.29-2.12,3.16,3.16,0,0,0-6.32,0,16.23,16.23,0,0,0,.22,2.12,27.91,27.91,0,0,0,.78,3.49l-4.13,2A2,2,0,0,0,35.45,22.61Z"/><path class="cls-1" d="M28.8,22.61V32a1.34,1.34,0,0,1-1.35,1.35H15.76A1.35,1.35,0,0,1,14.4,32V22.61A2,2,0,0,1,15.32,21l4.31-2.1a26.4,26.4,0,0,1-.9-3.43,13.08,13.08,0,0,1-.29-2.12,3.16,3.16,0,1,1,6.32,0,16.23,16.23,0,0,1-.22,2.12,27.91,27.91,0,0,1-.78,3.49l4.13,2A2,2,0,0,1,28.8,22.61Z"/><path class="cls-2" d="M35.45,2.42V13.75a1.67,1.67,0,0,0,1.67,1.67h2.59a16.23,16.23,0,0,1-.22-2.12,3.16,3.16,0,0,1,6.32,0,13.08,13.08,0,0,1-.29,2.12H53v5.42l5.61-5.42h2.2a1.67,1.67,0,0,0,1.67-1.67V2.42A1.67,1.67,0,0,0,60.81.75H37.12A1.67,1.67,0,0,0,35.45,2.42Z"/><path class="cls-1" d="M35.45,2.42V13.75a1.67,1.67,0,0,0,1.67,1.67h2.59a16.23,16.23,0,0,1-.22-2.12,3.16,3.16,0,0,1,6.32,0,13.08,13.08,0,0,1-.29,2.12H53v5.42l5.61-5.42h2.2a1.67,1.67,0,0,0,1.67-1.67V2.42A1.67,1.67,0,0,0,60.81.75H37.12A1.67,1.67,0,0,0,35.45,2.42Z"/><line class="cls-1" x1="59.26" y1="5.94" x2="38.3" y2="5.94"/><line class="cls-1" x1="59.26" y1="10.14" x2="48.97" y2="10.14"/><path class="cls-1" d="M35.45,22.61V32a1.34,1.34,0,0,0,1.35,1.35H48.49A1.35,1.35,0,0,0,49.85,32V22.61A2,2,0,0,0,48.93,21l-4.31-2.1a26.4,26.4,0,0,0,.9-3.43,13.08,13.08,0,0,0,.29-2.12,3.16,3.16,0,0,0-6.32,0,16.23,16.23,0,0,0,.22,2.12,27.91,27.91,0,0,0,.78,3.49l-4.13,2A2,2,0,0,0,35.45,22.61Z"/><path class="cls-1" d="M8.46,39.54a25.23,25.23,0,0,1,0-16.66"/><path class="cls-1" d="M56,39.54a25.23,25.23,0,0,0,0-16.66"/><path class="cls-1" d="M.75,42.67H15a3.44,3.44,0,0,0,2.38-1l3.38-3.2a3.44,3.44,0,0,1,2.38-1H41.09a3.44,3.44,0,0,1,2.38,1l3.38,3.2a3.44,3.44,0,0,0,2.38,1H63.52"/><path class="cls-1" d="M.75,55.26H15.62a3.76,3.76,0,0,1,2.51,1L23,60.61a3.76,3.76,0,0,0,2.51,1H39.75a3.76,3.76,0,0,0,2.59-1l4.43-4.24a3.8,3.8,0,0,1,2.6-1H63.52"/><path class="cls-1" d="M30,37.56l-5.17,5.17a3,3,0,0,0,4.21,4.21l2.34-2.33a4.13,4.13,0,0,1,5.86,0L48,55.53"/><line class="cls-1" x1="32.28" y1="61.58" x2="29.04" y2="58.34"/><line class="cls-1" x1="39.73" y1="61.58" x2="32.85" y2="54.69"/><line class="cls-1" x1="43.95" y1="59" x2="36.35" y2="51.06"/></g></g></svg>