<svg xmlns="http://www.w3.org/2000/svg" viewBox="0 0 63.19 62.63"><defs><style>.cls-1{fill:#ffd3ae;}.cls-2{fill:none;stroke:#102f3a;stroke-linecap:round;stroke-linejoin:round;}</style></defs><g id="Layer_2" data-name="Layer 2"><g id="Layer_1-2" data-name="Layer 1"><path class="cls-1" d="M37.7,5.75V7.49h-7a5.25,5.25,0,0,0-5.25,5.25V23.39H14.66V30L8.25,23.39H5.75A5.25,5.25,0,0,1,.5,18.14V5.75A5.25,5.25,0,0,1,5.75.5H32.44A5.26,5.26,0,0,1,37.7,5.75Z"/><path class="cls-2" d="M37.7,5.75V7.49h-7a5.25,5.25,0,0,0-5.25,5.25V23.39H14.66V30L8.25,23.39H5.75A5.25,5.25,0,0,1,.5,18.14V5.75A5.25,5.25,0,0,1,5.75.5H32.44A5.26,5.26,0,0,1,37.7,5.75Z"/><path class="cls-2" d="M25.5,23.39V12.74a5.25,5.25,0,0,1,5.25-5.25h7"/><path class="cls-2" d="M62.69,12.74V25.12a5.26,5.26,0,0,1-5.25,5.26H44.59v6.56l-6.42-6.56H30.75a5.26,5.26,0,0,1-5.25-5.26V12.74a5.25,5.25,0,0,1,5.25-5.25H57.44A5.25,5.25,0,0,1,62.69,12.74Z"/><rect class="cls-2" x="16.52" y="29.65" width="10.38" height="12.42" rx="2.74"/><path class="cls-1" d="M32.7,50.76v3.48h-22V50.76a8.71,8.71,0,0,1,6.45-8.4l4.54,8,4.53-8h0A8.7,8.7,0,0,1,32.7,50.76Z"/><path class="cls-2" d="M32.7,50.76v3.48h-22V50.76a8.71,8.71,0,0,1,6.45-8.4l4.54,8,4.53-8h0A8.7,8.7,0,0,1,32.7,50.76Z"/><path class="cls-2" d="M26.24,42.36l-4.53,8-4.54-8h0a9,9,0,0,1,2.22-.29H24A9,9,0,0,1,26.24,42.36Z"/><rect class="cls-2" x="45.87" y="37.55" width="10.38" height="12.42" rx="2.74"/><path class="cls-1" d="M62.05,58.65v3.48h-22V58.65A8.7,8.7,0,0,1,48.75,50h4.61A8.7,8.7,0,0,1,62.05,58.65Z"/><path class="cls-2" d="M62.05,58.65v3.48h-22V58.65A8.7,8.7,0,0,1,48.75,50h4.61A8.7,8.7,0,0,1,62.05,58.65Z"/><path class="cls-2" d="M41.26,54.24h0a8.63,8.63,0,0,0-1.2,4.4v3.48H.5V54.24Z"/><path class="cls-2" d="M41.26,54.25a8.63,8.63,0,0,0-1.2,4.4v3.48h1.2"/></g></g></svg>