<svg xmlns="http://www.w3.org/2000/svg" viewBox="0 0 47.33 62.56"><defs><style>.cls-1{fill:none;stroke:#102f3a;stroke-linecap:round;stroke-linejoin:round;}.cls-2{fill:#ffd3ae;}</style></defs><g id="Layer_2" data-name="Layer 2"><g id="Layer_1-2" data-name="Layer 1"><circle class="cls-1" cx="23.31" cy="16.66" r="2.23"/><path class="cls-2" d="M23.31.5A16.17,16.17,0,1,0,39.47,16.66,16.16,16.16,0,0,0,23.31.5Zm0,29.29A13.13,13.13,0,1,1,36.43,16.66,13.12,13.12,0,0,1,23.31,29.79Z"/><path class="cls-1" d="M23.31.5A16.17,16.17,0,1,0,39.47,16.66,16.16,16.16,0,0,0,23.31.5Zm0,29.29A13.13,13.13,0,1,1,36.43,16.66,13.12,13.12,0,0,1,23.31,29.79Z"/><path class="cls-1" d="M36.43,16.66A13.12,13.12,0,1,1,23.31,3.54,13.12,13.12,0,0,1,36.43,16.66Z"/><path class="cls-1" d="M36.43,16.66A13.12,13.12,0,1,1,23.31,3.54,13.12,13.12,0,0,1,36.43,16.66Z"/><path class="cls-2" d="M23.31,7.05a9.62,9.62,0,1,0,9.62,9.61A9.62,9.62,0,0,0,23.31,7.05Zm0,15.67a6.06,6.06,0,1,1,6.05-6.06A6.05,6.05,0,0,1,23.31,22.72Z"/><path class="cls-1" d="M23.31,7.05a9.62,9.62,0,1,0,9.62,9.61A9.62,9.62,0,0,0,23.31,7.05Zm0,15.67a6.06,6.06,0,1,1,6.05-6.06A6.05,6.05,0,0,1,23.31,22.72Z"/><path class="cls-1" d="M29.36,16.66a6,6,0,1,1-6.05-6.05A6.05,6.05,0,0,1,29.36,16.66Z"/><path class="cls-1" d="M29.36,16.66a6,6,0,1,1-6.05-6.05A6.05,6.05,0,0,1,29.36,16.66Z"/><line class="cls-1" x1="23.31" y1="16.66" x2="45.78" y2="3.54"/><polygon class="cls-1" points="38.73 7.66 39.91 3.85 44.03 1.57 43.39 4.94 46.84 6 42.58 8.67 38.73 7.66"/><path class="cls-1" d="M29.78,31.48V35.3c0,.16,0,.31,0,.46a6.64,6.64,0,0,1-13.25,0c0-.15,0-.3,0-.46v-4a16.19,16.19,0,0,0,13.28.15Z"/><path class="cls-1" d="M16.5,31.33a16.19,16.19,0,0,0,13.28.15"/><path class="cls-2" d="M45.78,48.89V62.06H.5V48.89A13.13,13.13,0,0,1,13.63,35.76h2.89a6.64,6.64,0,0,0,13.25,0h2.88A13.13,13.13,0,0,1,45.78,48.89Z"/><path class="cls-1" d="M45.78,48.89V62.06H.5V48.89A13.13,13.13,0,0,1,13.63,35.76h2.89a6.64,6.64,0,0,0,13.25,0h2.88A13.13,13.13,0,0,1,45.78,48.89Z"/><path class="cls-1" d="M16.52,35.76a6.64,6.64,0,0,0,13.25,0"/><line class="cls-1" x1="9.27" y1="48.52" x2="9.27" y2="62.06"/><line class="cls-1" x1="36.75" y1="48.52" x2="36.75" y2="62.06"/></g></g></svg>