<svg xmlns="http://www.w3.org/2000/svg" viewBox="0 0 61.34 63.19"><defs><style>.cls-1{fill:none;stroke:#102f3a;stroke-linecap:round;stroke-linejoin:round;}.cls-2{fill:#ffd3ae;}</style></defs><g id="Layer_2" data-name="Layer 2"><g id="Layer_1-2" data-name="Layer 1"><path class="cls-1" d="M43.09,40.62a3.56,3.56,0,0,1-1.74.69h0l-.81,0C36.57,41.28,30.77,37.1,26,30.43,20.84,23.27,18.52,15.58,20,11.64l.37-.74a3.69,3.69,0,0,1,1.05-1.17C25.2,7,33.16,12.1,39.1,20.79,44.86,29.22,46.59,38,43.09,40.62Z"/><path class="cls-2" d="M40.51,41.37l-21.8,1.34L10.47,31.1,20,11.64c-1.52,3.94.8,11.63,5.94,18.79C30.77,37.1,36.57,41.28,40.51,41.37Z"/><path class="cls-1" d="M40.51,41.37l-21.8,1.34L10.47,31.1,20,11.64c-1.52,3.94.8,11.63,5.94,18.79C30.77,37.1,36.57,41.28,40.51,41.37Z"/><path class="cls-2" d="M5.81,33.91h10.1a0,0,0,0,1,0,0V48.14a0,0,0,0,1,0,0H5.81A4.13,4.13,0,0,1,1.68,44V38a4.13,4.13,0,0,1,4.13-4.13Z" transform="translate(-22.13 12.67) rotate(-35.38)"/><path class="cls-1" d="M5.81,33.91h10.1a0,0,0,0,1,0,0V48.14a0,0,0,0,1,0,0H5.81A4.13,4.13,0,0,1,1.68,44V38a4.13,4.13,0,0,1,4.13-4.13Z" transform="translate(-22.13 12.67) rotate(-35.38)"/><path class="cls-2" d="M19.89,42.64l9.89,13.93a3.88,3.88,0,1,1-6.32,4.49L13.21,46.61l5.5-3.9"/><path class="cls-1" d="M19.89,42.64l9.89,13.93a3.88,3.88,0,1,1-6.32,4.49L13.21,46.61l5.5-3.9Z"/><path class="cls-1" d="M26.89,22.13a5.51,5.51,0,1,1,5.83,9.32"/><line class="cls-1" x1="42.65" y1="0.5" x2="41.82" y2="10.1"/><line class="cls-1" x1="57.23" y1="9.5" x2="47.55" y2="15.81"/><line class="cls-1" x1="49.64" y1="23.75" x2="60.84" y2="25.8"/></g></g></svg>