<svg xmlns="http://www.w3.org/2000/svg" viewBox="0 0 63.02 62.93"><defs><style>.cls-1{fill:#ffd3ae;}.cls-2{fill:none;stroke:#102f3a;stroke-linecap:round;stroke-linejoin:round;}</style></defs><g id="Layer_2" data-name="Layer 2"><g id="Layer_1-2" data-name="Layer 1"><path class="cls-1" d="M45,15.05a4.69,4.69,0,0,1-4.7,4.64H22.69A4.69,4.69,0,0,1,18,15.05Z"/><path class="cls-2" d="M45,15.05a4.69,4.69,0,0,1-4.7,4.64H22.69A4.69,4.69,0,0,1,18,15.05Z"/><path class="cls-2" d="M45,5.2v9.85H18V5.2A4.69,4.69,0,0,1,22.69.5H40.31A4.69,4.69,0,0,1,45,5.2Z"/><polygon class="cls-2" points="35.46 25.97 27.64 25.97 28.68 19.69 34.42 19.69 35.46 25.97"/><rect class="cls-2" x="0.5" y="25.97" width="62.02" height="6.71"/><rect class="cls-2" x="39.23" y="32.68" width="23.29" height="29.75"/><rect class="cls-2" x="57.94" y="32.68" width="4.58" height="29.75"/><rect class="cls-1" x="39.23" y="32.68" width="18.71" height="14.87"/><rect class="cls-2" x="39.23" y="32.68" width="18.71" height="14.87"/><rect class="cls-1" x="39.23" y="47.56" width="18.71" height="14.87"/><rect class="cls-2" x="39.23" y="47.56" width="18.71" height="14.87"/><rect class="cls-2" x="0.5" y="32.68" width="4.68" height="29.75"/><rect class="cls-2" x="5.18" y="54.01" width="34.05" height="1.96"/><path class="cls-2" d="M4.44,13.23H13a0,0,0,0,1,0,0v4.31a0,0,0,0,1,0,0H4.44a1.22,1.22,0,0,1-1.22-1.22V14.45a1.22,1.22,0,0,1,1.22-1.22Z"/><path class="cls-1" d="M6.13,17.53h8.53a0,0,0,0,1,0,0v4.31a0,0,0,0,1,0,0H6.13a1.22,1.22,0,0,1-1.22-1.22V18.75A1.22,1.22,0,0,1,6.13,17.53Z"/><path class="cls-2" d="M6.13,17.53h8.53a0,0,0,0,1,0,0v4.31a0,0,0,0,1,0,0H6.13a1.22,1.22,0,0,1-1.22-1.22V18.75A1.22,1.22,0,0,1,6.13,17.53Z"/><path class="cls-2" d="M4.64,21.85H13a0,0,0,0,1,0,0V26a0,0,0,0,1,0,0H4.64A1.16,1.16,0,0,1,3.47,24.8V23A1.16,1.16,0,0,1,4.64,21.85Z"/><path class="cls-2" d="M49.24,17.71h7.2a0,0,0,0,1,0,0v6.22a2,2,0,0,1-2,2H51.27a2,2,0,0,1-2-2V17.71A0,0,0,0,1,49.24,17.71Z"/><path class="cls-2" d="M56.44,18.65h2.66a.31.31,0,0,1,.31.31v2.67A1.37,1.37,0,0,1,58,23H56.75a.31.31,0,0,1-.31-.31v-4a0,0,0,0,1,0,0Z"/><rect class="cls-2" x="42.9" y="37.44" width="1.79" height="5.3" rx="0.51"/><rect class="cls-2" x="42.9" y="52.34" width="1.79" height="5.3" rx="0.51"/></g></g></svg>