<svg xmlns="http://www.w3.org/2000/svg" viewBox="0 0 74.74 63.19"><defs><style>.cls-1{fill:none;stroke:#102f3a;stroke-linecap:round;stroke-linejoin:round;}.cls-2{fill:#ffd3ae;}</style></defs><g id="Layer_2" data-name="Layer 2"><g id="Layer_1-2" data-name="Layer 1"><polygon class="cls-1" points="34.36 62.69 6.57 62.69 6.57 0.5 34.36 11.86 34.36 62.69"/><polygon class="cls-2" points="62.14 11.86 62.14 57.51 34.36 57.51 34.36 0.5 62.14 11.86"/><polygon class="cls-1" points="62.14 62.69 34.36 62.69 34.36 0.5 62.14 11.86 62.14 62.69"/><rect class="cls-1" x="34.36" y="57.51" width="27.78" height="5.18"/><rect class="cls-1" x="12.79" y="52.86" width="5.09" height="9.83"/><rect class="cls-2" x="6.58" y="52.86" width="6.21" height="9.83"/><rect class="cls-1" x="6.58" y="52.86" width="6.21" height="9.83"/><rect class="cls-2" x="17.88" y="52.86" width="5.08" height="9.83"/><rect class="cls-1" x="17.88" y="52.86" width="5.08" height="9.83"/><rect class="cls-1" x="22.96" y="52.86" width="5.09" height="9.83"/><rect class="cls-2" x="28.05" y="52.86" width="6.31" height="9.83"/><rect class="cls-1" x="28.05" y="52.86" width="6.31" height="9.83"/><line class="cls-1" x1="62.14" y1="62.69" x2="74.1" y2="62.69"/><line class="cls-1" x1="6.57" y1="62.69" x2="0.5" y2="62.69"/><line class="cls-1" x1="20.46" y1="6.18" x2="20.46" y2="52.86"/><line class="cls-1" x1="10.2" y1="20.53" x2="14.19" y2="20.53"/><line class="cls-1" x1="20.46" y1="13.33" x2="24.46" y2="13.33"/><line class="cls-1" x1="30.36" y1="17.38" x2="34.36" y2="17.38"/><line class="cls-1" x1="30.36" y1="25.94" x2="34.36" y2="25.94"/><line class="cls-1" x1="30.36" y1="34.51" x2="34.36" y2="34.51"/><line class="cls-1" x1="30.36" y1="43.08" x2="34.36" y2="43.08"/><line class="cls-1" x1="20.46" y1="22.21" x2="24.46" y2="22.21"/><line class="cls-1" x1="20.46" y1="31.1" x2="24.46" y2="31.1"/><line class="cls-1" x1="20.46" y1="39.98" x2="24.46" y2="39.98"/><line class="cls-1" x1="20.46" y1="48.87" x2="24.46" y2="48.87"/><line class="cls-1" x1="10.2" y1="25.94" x2="14.19" y2="25.94"/><text/><line class="cls-1" x1="10.2" y1="36.77" x2="14.19" y2="36.77"/><line class="cls-1" x1="10.2" y1="42.19" x2="14.19" y2="42.19"/><line class="cls-1" x1="10.2" y1="47.6" x2="14.19" y2="47.6"/><line class="cls-1" x1="39.95" y1="20.53" x2="43.95" y2="20.53"/><line class="cls-1" x1="39.95" y1="25.94" x2="43.95" y2="25.94"/><line class="cls-1" x1="39.95" y1="31.36" x2="43.95" y2="31.36"/><line class="cls-1" x1="39.95" y1="36.77" x2="43.95" y2="36.77"/><line class="cls-1" x1="39.95" y1="42.19" x2="43.95" y2="42.19"/><line class="cls-1" x1="39.95" y1="47.6" x2="43.95" y2="47.6"/><line class="cls-1" x1="52.33" y1="20.53" x2="56.32" y2="20.53"/><line class="cls-1" x1="52.33" y1="25.94" x2="56.32" y2="25.94"/><line class="cls-1" x1="52.33" y1="31.36" x2="56.32" y2="31.36"/><line class="cls-1" x1="52.33" y1="36.77" x2="56.32" y2="36.77"/><line class="cls-1" x1="52.33" y1="42.19" x2="56.32" y2="42.19"/><line class="cls-1" x1="52.33" y1="47.6" x2="56.32" y2="47.6"/><path class="cls-2" d="M72.56,47.09a3.4,3.4,0,1,0-5.7,0,4.53,4.53,0,1,0,5.7,0Z"/><path class="cls-1" d="M72.56,47.09a3.4,3.4,0,1,0-5.7,0,4.53,4.53,0,1,0,5.7,0Z"/><line class="cls-1" x1="69.71" y1="55.15" x2="69.71" y2="62.69"/></g></g></svg>