<svg xmlns="http://www.w3.org/2000/svg" viewBox="0 0 63.3 63.09"><defs><style>.cls-1{fill:none;stroke:#102f3a;stroke-linecap:round;stroke-linejoin:round;}.cls-2{fill:#ffd3ae;}.cls-3{fill:#fff;}</style></defs><g id="Layer_2" data-name="Layer 2"><g id="Layer_1-2" data-name="Layer 1"><line class="cls-1" x1="44.78" y1="62.44" x2="44.26" y2="62.44"/><polygon class="cls-2" points="47.1 62.59 16.2 62.59 16.2 0.5 47.1 8.76 47.1 62.59"/><polygon class="cls-1" points="47.1 62.59 16.2 62.59 16.2 0.5 47.1 8.76 47.1 62.59"/><rect class="cls-3" x="21.98" y="14.77" width="5.51" height="5.51"/><rect class="cls-3" x="35.54" y="14.77" width="5.51" height="5.51"/><rect class="cls-3" x="21.98" y="26.04" width="5.51" height="5.51"/><rect class="cls-3" x="35.54" y="26.04" width="5.51" height="5.51"/><rect class="cls-3" x="21.98" y="37.31" width="5.51" height="5.51"/><rect class="cls-3" x="35.54" y="37.31" width="5.51" height="5.51"/><rect class="cls-3" x="21.98" y="48.57" width="5.51" height="5.51"/><rect class="cls-3" x="35.54" y="48.57" width="5.51" height="5.51"/><rect class="cls-1" x="21.98" y="14.77" width="5.51" height="5.51"/><rect class="cls-1" x="0.5" y="9.66" width="15.69" height="52.94"/><rect class="cls-1" x="47.1" y="18.67" width="15.69" height="43.9"/><rect class="cls-1" x="35.54" y="14.77" width="5.51" height="5.51"/><rect class="cls-1" x="21.98" y="26.04" width="5.51" height="5.51"/><rect class="cls-1" x="35.54" y="26.04" width="5.51" height="5.51"/><rect class="cls-1" x="21.98" y="37.31" width="5.51" height="5.51"/><rect class="cls-1" x="7.25" y="39.46" width="8.93" height="4.82"/><rect class="cls-1" x="7.25" y="51.08" width="8.93" height="4.82"/><rect class="cls-1" x="7.25" y="28.03" width="8.93" height="4.82"/><rect class="cls-1" x="7.25" y="16.61" width="8.93" height="4.82"/><rect class="cls-1" x="51.16" y="24.86" width="7.31" height="4.46"/><rect class="cls-1" x="51.16" y="33.83" width="7.31" height="4.46"/><rect class="cls-1" x="51.16" y="42.96" width="7.31" height="4.46"/><rect class="cls-1" x="51.16" y="52.09" width="7.31" height="4.46"/><rect class="cls-1" x="35.54" y="37.31" width="5.51" height="5.51"/><rect class="cls-1" x="21.98" y="48.57" width="5.51" height="5.51"/><rect class="cls-1" x="35.54" y="48.57" width="5.51" height="5.51"/></g></g></svg>