<svg xmlns="http://www.w3.org/2000/svg" viewBox="0 0 49.6 63.19"><defs><style>.cls-1{fill:#ffd3ae;}.cls-2{fill:none;stroke:#102f3a;stroke-linecap:round;stroke-linejoin:round;}.cls-3{fill:#fff;}</style></defs><g id="Layer_2" data-name="Layer 2"><g id="Layer_1-2" data-name="Layer 1"><path class="cls-1" d="M39.58,15.47a15,15,0,1,1-15-15A14.92,14.92,0,0,1,39.58,15.47Z"/><path class="cls-2" d="M39.58,15.47a15,15,0,1,1-15-15A14.92,14.92,0,0,1,39.58,15.47Z"/><path class="cls-2" d="M32.76,28v6.69l-8,9-8.19-9v-6.6A15,15,0,0,0,32.76,28Z"/><polygon class="cls-1" points="24.8 43.66 13.84 49.13 13.84 35.8 16.61 34.71 24.8 43.66"/><polygon class="cls-1" points="35.39 35.73 35.32 48.99 24.8 43.66 32.76 34.71 35.39 35.73"/><polygon class="cls-2" points="24.8 43.66 13.84 49.13 13.84 35.8 16.61 34.71 24.8 43.66"/><polygon class="cls-2" points="35.39 35.73 35.32 48.99 24.8 43.66 32.76 34.71 35.39 35.73"/><polygon class="cls-1" points="49.1 62.69 0.5 62.69 3.13 40.04 13.84 35.81 13.84 49.13 24.8 43.66 35.32 48.99 35.39 35.73 46.46 40.04 49.1 62.69"/><polygon class="cls-3" points="31.8 62.69 17.55 62.69 22.16 50.13 24.61 53.14 27.19 50.13 31.8 62.69"/><polygon class="cls-3" points="30.33 46.46 27.19 50.13 24.61 53.14 22.16 50.13 19.18 46.46 24.8 43.66 30.33 46.46"/><polygon class="cls-2" points="31.8 62.69 17.55 62.69 22.16 50.13 24.61 53.14 27.19 50.13 31.8 62.69"/><polygon class="cls-2" points="30.33 46.46 27.19 50.13 24.61 53.14 22.16 50.13 19.18 46.46 24.8 43.66 30.33 46.46"/><polygon class="cls-2" points="31.8 62.69 17.55 62.69 22.16 50.13 24.61 53.14 27.19 50.13 31.8 62.69"/><polygon class="cls-2" points="30.33 46.46 27.19 50.13 24.61 53.14 22.16 50.13 19.18 46.46 24.8 43.66 30.33 46.46"/><polygon class="cls-2" points="19.18 46.46 22.16 50.13 17.55 62.69 0.5 62.69 3.13 40.04 13.84 35.81 13.84 49.13 19.18 46.46"/><polygon class="cls-2" points="49.1 62.69 31.8 62.69 27.19 50.13 30.33 46.46 35.32 48.99 35.39 35.73 46.46 40.04 49.1 62.69"/><path class="cls-2" d="M30,10.22H21.15a.6.6,0,0,0-.61.6v4a.61.61,0,0,0,.61.61H28.2a.6.6,0,0,1,.61.6v4.28a.6.6,0,0,1-.61.6H19.46"/><line class="cls-2" x1="24.73" y1="6.96" x2="24.73" y2="10.22"/><line class="cls-2" x1="24.73" y1="20.95" x2="24.73" y2="24.21"/></g></g></svg>