<svg xmlns="http://www.w3.org/2000/svg" viewBox="0 0 63.6 63.4"><defs><style>.cls-1{fill:none;stroke:#102f3a;stroke-linecap:round;stroke-linejoin:round;}.cls-2{fill:#ffd3ae;}.cls-3{fill:#102f3a;}</style></defs><g id="Layer_2" data-name="Layer 2"><g id="Layer_1-2" data-name="Layer 1"><rect class="cls-1" x="39.89" y="44.28" width="16.82" height="18.62"/><polygon class="cls-1" points="46.2 33.77 46.2 40.01 42.2 40.01 42.2 44.28 39.89 44.28 39.89 62.9 27.55 62.9 27.55 33.77 46.2 33.77"/><line class="cls-1" x1="46.2" y1="62.9" x2="39.89" y2="62.9"/><polygon class="cls-2" points="46.2 33.77 27.55 33.77 36.87 25.44 42.13 30.14 43.87 31.69 46.2 33.77"/><polygon class="cls-2" points="58.63 19.18 42.13 19.18 50.38 10.85 58.63 19.18"/><rect class="cls-2" x="42.19" y="40.01" width="12.21" height="4.27"/><rect class="cls-2" x="50.38" y="31.69" width="12.72" height="4.11"/><polygon class="cls-1" points="46.2 33.77 27.55 33.77 36.87 25.44 42.13 30.14 43.87 31.69 46.2 33.77"/><polygon class="cls-1" points="58.63 19.18 42.13 19.18 50.38 10.85 58.63 19.18"/><rect class="cls-1" x="42.19" y="40.01" width="12.21" height="4.27"/><rect class="cls-1" x="43.94" y="56.69" width="8.72" height="6.22"/><polygon class="cls-1" points="63.1 35.8 63.1 62.9 56.71 62.9 56.71 44.28 54.4 44.28 54.4 40.01 50.38 40.01 50.38 35.8 63.1 35.8"/><line class="cls-1" x1="56.71" y1="62.9" x2="50.63" y2="62.9"/><rect class="cls-1" x="50.38" y="31.69" width="12.72" height="4.11"/><polyline class="cls-1" points="50.38 31.69 50.38 19.18 42.13 19.18 42.13 30.14 43.87 31.69 46.2 33.77 46.2 40.01 50.38 40.01 50.38 31.69"/><rect class="cls-1" x="50.38" y="19.18" width="8.25" height="12.52"/><path class="cls-2" d="M28.48,11.89V28.16H26.8c-1.46-.53-3-1-4.26-1.35-.5-.15-.94-.27-1.3-.36a1.18,1.18,0,0,1-.86-1.13v-2a13.74,13.74,0,0,0,4.39-10.51,7.29,7.29,0,0,1-1.23.1,7.93,7.93,0,0,1-6.4-3.23,7.9,7.9,0,0,1-6.38,3.23,7.62,7.62,0,0,1-1.18-.09,15.7,15.7,0,0,0,1.47,6.75,12.38,12.38,0,0,0,2.82,3.75v2a1.77,1.77,0,0,1-1.51,1.75l-4.25.66a9.17,9.17,0,0,0-1.75.45H5.69V11.89a11.4,11.4,0,0,1,22.79,0Z"/><path class="cls-1" d="M28.48,11.89V28.16H26.8c-1.46-.53-3-1-4.26-1.35-.5-.15-.94-.27-1.3-.36a1.18,1.18,0,0,1-.86-1.13v-2a13.74,13.74,0,0,0,4.39-10.51,7.29,7.29,0,0,1-1.23.1,7.93,7.93,0,0,1-6.4-3.23,7.9,7.9,0,0,1-6.38,3.23,7.62,7.62,0,0,1-1.18-.09,15.7,15.7,0,0,0,1.47,6.75,12.38,12.38,0,0,0,2.82,3.75v2a1.77,1.77,0,0,1-1.51,1.75l-4.25.66a9.17,9.17,0,0,0-1.75.45H5.69V11.89a11.4,11.4,0,0,1,22.79,0Z"/><path class="cls-1" d="M24.77,12.83a13.74,13.74,0,0,1-4.39,10.51h0a11.2,11.2,0,0,1-3.2,2.09,10.41,10.41,0,0,1-3.31-2.09,12.38,12.38,0,0,1-2.82-3.75,15.7,15.7,0,0,1-1.47-6.75,7.62,7.62,0,0,0,1.18.09A7.9,7.9,0,0,0,17.14,9.7a7.93,7.93,0,0,0,6.4,3.23A7.29,7.29,0,0,0,24.77,12.83Z"/><path class="cls-2" d="M21.35,44.47a3.12,3.12,0,0,0-1.11-.2H6.63v-6.2H21.34Z"/><rect class="cls-2" x="6.55" y="50.48" width="14.69" height="6.2"/><path class="cls-1" d="M21.35,44.47a3.12,3.12,0,0,0-1.11-.2H6.63v-6.2H21.34Z"/><path class="cls-1" d="M21.35,44.51v0a3.11,3.11,0,0,1-1.11,6"/><path class="cls-1" d="M6.36,28.16A9,9,0,0,0,.5,36.58V47.37a3.11,3.11,0,0,0,3.11,3.11H6.55"/><path class="cls-1" d="M26.8,28.16c2.2.8,4.13,1.73,4.22,2.51"/><polygon class="cls-2" points="20.58 31.89 18.21 38.07 15.91 38.07 13.92 31.89 20.58 31.89"/><polygon class="cls-1" points="20.58 31.89 18.21 38.07 15.91 38.07 13.92 31.89 20.58 31.89"/><path class="cls-1" d="M22.54,26.8l-1.95,5.09H13.92l-1.56-4.84a1.78,1.78,0,0,0,1.51-1.76V23.34a10.64,10.64,0,0,0,3.31,2.09,11.2,11.2,0,0,0,3.2-2.09v2a1.17,1.17,0,0,0,.86,1.12Z"/><line class="cls-1" x1="20.59" y1="31.89" x2="20.58" y2="31.89"/><rect class="cls-1" x="6.55" y="50.48" width="14.69" height="6.2"/><line class="cls-1" x1="21.24" y1="56.69" x2="27.55" y2="56.69"/><rect class="cls-3" x="45.21" y="22.38" width="2.17" height="2.17"/><rect class="cls-3" x="53.42" y="22.38" width="2.17" height="2.17"/><rect class="cls-3" x="45.21" y="26.4" width="2.17" height="2.17"/><rect class="cls-3" x="53.42" y="26.4" width="2.17" height="2.17"/><rect class="cls-3" x="30.65" y="36.89" width="2.16" height="2.16"/><rect class="cls-3" x="34.71" y="36.89" width="2.16" height="2.16"/><rect class="cls-3" x="30.65" y="40.97" width="2.16" height="2.16"/><rect class="cls-3" x="34.71" y="40.97" width="2.16" height="2.16"/><rect class="cls-3" x="30.65" y="45.06" width="2.16" height="2.16"/><rect class="cls-3" x="34.71" y="45.06" width="2.16" height="2.16"/><rect class="cls-3" x="30.65" y="49.14" width="2.16" height="2.16"/><rect class="cls-3" x="34.71" y="49.14" width="2.16" height="2.16"/><rect class="cls-3" x="30.65" y="53.23" width="2.16" height="2.16"/><rect class="cls-3" x="34.71" y="53.23" width="2.16" height="2.16"/><rect class="cls-3" x="30.65" y="57.31" width="2.16" height="2.16"/><rect class="cls-3" x="34.71" y="57.31" width="2.16" height="2.16"/><rect class="cls-3" x="43.14" y="47.19" width="2.16" height="2.16"/><rect class="cls-3" x="47.3" y="47.19" width="2.16" height="2.16"/><rect class="cls-3" x="51.46" y="47.19" width="2.16" height="2.16"/><rect class="cls-3" x="43.14" y="51.3" width="2.16" height="2.16"/><rect class="cls-3" x="47.3" y="51.3" width="2.16" height="2.16"/><rect class="cls-3" x="51.46" y="51.3" width="2.16" height="2.16"/></g></g></svg>