<svg xmlns="http://www.w3.org/2000/svg" viewBox="0 0 70.92 66.4"><defs><style>.cls-1{fill:none;stroke:#102f3a;stroke-linecap:round;stroke-linejoin:round;stroke-width:1.5px;}.cls-2{fill:#ffd3ae;}</style></defs><g id="Layer_2" data-name="Layer 2"><g id="Layer_1-2" data-name="Layer 1"><path class="cls-1" d="M23.18,8.49v3.12l-6.69,6.26h-.1V8.49a.71.71,0,0,1,.71-.71h5.37A.71.71,0,0,1,23.18,8.49Z"/><path class="cls-2" d="M62.23,30.26a2.79,2.79,0,0,1-3.94.13l-4.3-4L52.21,24.7,34.79,8.39,17.36,24.7l-1.3,1.22-4.92,4.6a2.79,2.79,0,0,1-3.81-4.08l9.16-8.57,6.69-6.26,7.52-7L34.79.75l3.19,3L62.1,26.31A2.8,2.8,0,0,1,62.23,30.26Z"/><path class="cls-1" d="M62.23,30.26a2.79,2.79,0,0,1-3.94.13l-4.3-4L52.21,24.7,34.79,8.39,17.36,24.7l-1.3,1.22-4.92,4.6a2.79,2.79,0,0,1-3.81-4.08l9.16-8.57,6.69-6.26,7.52-7L34.79.75l3.19,3L62.1,26.31A2.8,2.8,0,0,1,62.23,30.26Z"/><path class="cls-1" d="M54,26.37V49.58l-3.31,2.24L46,51.48c-.09-7.32-5.37-6.83-12-7.48s-6.35-.65-13.51-3.75a30.88,30.88,0,0,0-4.48-1.55V25.92l1.3-1.22L34.79,8.39,52.21,24.7Z"/><path class="cls-1" d="M40.65,31.46V44.71c-1.89-.39-4.15-.47-6.6-.71-2.18-.22-3.6-.36-4.8-.57v-12A1.46,1.46,0,0,1,30.71,30h8.47A1.46,1.46,0,0,1,40.65,31.46Z"/><rect class="cls-1" x="0.75" y="34.07" width="8.48" height="28.98" rx="3.13"/><path class="cls-2" d="M69.09,47.25l-16,14.41-26.78,4L9.23,59.22V38.14s2.45-.58,6.83.56a30.88,30.88,0,0,1,4.48,1.55c4.8,2.07,6.27,2.76,8.71,3.18,1.2.21,2.62.35,4.8.57,2.45.24,4.71.32,6.6.71,3.2.65,5.32,2.16,5.37,6.77l4.66.34L54,49.58l11.09-7.47a3.28,3.28,0,0,1,4.57.93h0A3.27,3.27,0,0,1,69.09,47.25Z"/><path class="cls-1" d="M69.09,47.25l-16,14.41-26.78,4L9.23,59.22V38.14s2.45-.58,6.83.56a30.88,30.88,0,0,1,4.48,1.55c4.8,2.07,6.27,2.76,8.71,3.18,1.2.21,2.62.35,4.8.57,2.45.24,4.71.32,6.6.71,3.2.65,5.32,2.16,5.37,6.77l4.66.34L54,49.58l11.09-7.47a3.28,3.28,0,0,1,4.57.93h0A3.27,3.27,0,0,1,69.09,47.25Z"/><line class="cls-1" x1="46.02" y1="51.48" x2="23.18" y2="49.37"/></g></g></svg>