<svg xmlns="http://www.w3.org/2000/svg" viewBox="0 0 52.48 53.86"><defs><style>.cls-1{fill:#102f3a;}.cls-2{fill:#ffd3ae;}</style></defs><g id="Layer_2" data-name="Layer 2"><g id="Layer_1-2" data-name="Layer 1"><path class="cls-1" d="M21.36,47.28l-9.27,6.16c-.93.61-1.14.58-1.92-.2L.56,43.62c-.7-.69-.71-.92-.21-1.75.73-1.19,1.43-2.4,2.13-3.61,1.28-2.19,1.73-4.68,2.41-7.07a1,1,0,0,0-.33-.71A7.64,7.64,0,0,1,2.1,25.94a6.89,6.89,0,0,1,1.78-5.81c1.28-1.4,2.66-2.71,4-4L21.08,2.88a7.22,7.22,0,0,1,10.76,0c2.23,2.23,4.47,4.45,6.69,6.7a.86.86,0,0,0,1,.27c.41-.13.7-.28.8-.77.27-1.32.62-2.63.92-3.95.13-.54.38-.93,1-.92s.81.41.93.91c.31,1.32.65,2.63.93,4a.86.86,0,0,0,.72.74c1.46.4,2.89.86,4.34,1.28.5.14.89.38.9.95s-.37.82-.87,1l-4.4,1.31c-.77.23-.88.62-.33,1.18l4.07,4.07a7.23,7.23,0,0,1,0,10.8C43,35.86,37.4,41.33,32,46.91a7.36,7.36,0,0,1-10.53.41S21.31,47.25,21.36,47.28ZM34.48,27.82c2.65,1.4,2.41,4.08.64,5.77-3.85,3.67-7.56,7.49-11.33,11.26l-1.07,1.09a5.3,5.3,0,0,0,7.63-.08q8.53-8.49,17-17a5.34,5.34,0,0,0,0-7.8c-1.13-1.16-2.29-2.3-3.44-3.44-.1-.1-.23-.17-.39-.3-.14.6-.28,1.12-.4,1.65s-.37.94-1,.93-.81-.39-.93-.91c-.31-1.31-.64-2.62-.93-3.94a.87.87,0,0,0-.72-.76c-1.45-.4-2.89-.85-4.34-1.27-.49-.14-.89-.37-.9-.94s.4-.85.92-1,1-.3,1.61-.48L36.38,10,30.54,4.18a5.38,5.38,0,0,0-8.14,0L15,11.53Q10.32,16.26,5.61,21a5.35,5.35,0,0,0-1.7,4.51,5.06,5.06,0,0,0,1.67,3.36c.82-2.9,1.6-5.69,2.38-8.48a3.36,3.36,0,0,1,2.87-2.51,3.4,3.4,0,0,1,3.76,4.24c-.31,1.41-.64,2.82-1,4.24a1.84,1.84,0,0,0,.64-.43c3.34-3.34,6.66-6.68,10-10a3.44,3.44,0,0,1,1.49-1,5,5,0,0,1,2.18,0,2.88,2.88,0,0,1,1.88,1.83l.72-.68a3.24,3.24,0,0,1,4.47.08,3.19,3.19,0,0,1,0,4.46c-.38.41-.83.76-1.28,1.16C36.48,23.17,36.64,26,34.48,27.82ZM11.35,51.71l1.31-.84a56.24,56.24,0,0,0,10.57-8c3.52-3.6,7.11-7.12,10.66-10.68.21-.2.51-.41.56-.66a2.1,2.1,0,0,0,0-1.32,1.63,1.63,0,0,0-1.16-.61,1.74,1.74,0,0,0-1.08.57c-2.18,2.14-4.32,4.3-6.48,6.45-.17.17-.35.45-.55.47-.37,0-.88,0-1.08-.17a1.55,1.55,0,0,1-.12-1.09c0-.2.3-.37.48-.55q4.47-4.47,8.95-8.95c.19-.19.48-.38.52-.6a3.13,3.13,0,0,0,0-1.46,1.08,1.08,0,0,0-1.29-.64,2.38,2.38,0,0,0-1.08.63c-2,1.95-4,3.94-5.95,5.92-1,1-2,2-3,3a.87.87,0,0,1-1.32.07.89.89,0,0,1,0-1.37c.29-.32.61-.61.91-.92L33.56,19.53a1.38,1.38,0,0,0,.16-2,1.37,1.37,0,0,0-2.08.11l-.39.38L19.67,29.56c-.17.18-.35.44-.56.47s-.84.07-1-.13a1.5,1.5,0,0,1-.2-1.07c0-.2.29-.38.46-.56q4.51-4.53,9-9c.18-.18.44-.34.49-.55A2.29,2.29,0,0,0,28,17.3a1.65,1.65,0,0,0-1.16-.72,1.79,1.79,0,0,0-1.16.56c-1.92,1.88-3.8,3.79-5.7,5.68L12.81,30c-.57.57-1.18.7-1.49.22a1.86,1.86,0,0,1-.19-1.25c.51-2.38,1.08-4.74,1.63-7.11a1.58,1.58,0,0,0-1.13-2.11A1.57,1.57,0,0,0,9.7,21Q8.23,26.26,6.75,31.49c-.82,2.88-1.45,5.82-3,8.42-.54.87-1,1.77-1.54,2.61ZM42.14,9.44a3.74,3.74,0,0,0-.12.45,1.6,1.6,0,0,1-1.48,1.56c-.59.12-1.16.34-1.74.51a5.82,5.82,0,0,0,1.69.63A1.65,1.65,0,0,1,42,14.17a3.21,3.21,0,0,0,.19.62,3.69,3.69,0,0,0,.16-.61,1.66,1.66,0,0,1,1.55-1.59c.57-.11,1.12-.33,1.68-.49a2,2,0,0,0-.91-.42C43.39,11.48,42.37,11,42.14,9.44Z"/><path class="cls-1" d="M44.48,51.71a3.23,3.23,0,0,1,0-6.45,3.23,3.23,0,1,1,0,6.45Zm-1.36-3.25a1.38,1.38,0,0,0,1.35,1.41,1.39,1.39,0,0,0,0-2.77A1.38,1.38,0,0,0,43.12,48.46Z"/><path class="cls-1" d="M2.39,5.53a8.58,8.58,0,0,1-.88,0,.87.87,0,0,1-.89-.91.82.82,0,0,1,.8-.91,13.62,13.62,0,0,1,2,0,.84.84,0,0,1,.84.89.88.88,0,0,1-.88.93c-.34,0-.68,0-1,0Z"/><path class="cls-1" d="M8,5.53c-.33,0-.67,0-1,0a.86.86,0,0,1-.86-.87.86.86,0,0,1,.84-1A14.1,14.1,0,0,1,9,3.69a.86.86,0,0,1,.87.93.87.87,0,0,1-.91.9A8.58,8.58,0,0,1,8,5.53Z"/><path class="cls-1" d="M6.12,1.83a8.49,8.49,0,0,1,0,1,.84.84,0,0,1-.9.82.82.82,0,0,1-.89-.82,15.13,15.13,0,0,1,0-2A.83.83,0,0,1,5.22,0,.81.81,0,0,1,6.1.76a9.55,9.55,0,0,1,0,1.07Z"/><path class="cls-1" d="M6.12,7.38a8.53,8.53,0,0,1,0,1,.83.83,0,0,1-.9.81.81.81,0,0,1-.89-.82,15.13,15.13,0,0,1,0-2,.83.83,0,0,1,.9-.82.83.83,0,0,1,.88.76,9.73,9.73,0,0,1,0,1.08Z"/><path class="cls-1" d="M52.48,40.23a1,1,0,1,1-1-.95A1,1,0,0,1,52.48,40.23Z"/><path class="cls-2" d="M34.48,27.82c2.16-1.84,2-4.65-.69-6,.45-.4.9-.75,1.28-1.16a3.19,3.19,0,0,0,0-4.46,3.24,3.24,0,0,0-4.47-.08l-.72.68A2.88,2.88,0,0,0,28,14.93a5,5,0,0,0-2.18,0,3.44,3.44,0,0,0-1.49,1c-3.36,3.31-6.68,6.65-10,10a1.84,1.84,0,0,1-.64.43c.33-1.42.66-2.83,1-4.24a3.4,3.4,0,0,0-3.76-4.24A3.36,3.36,0,0,0,8,20.35c-.78,2.79-1.56,5.58-2.38,8.48a5.06,5.06,0,0,1-1.67-3.36A5.35,5.35,0,0,1,5.61,21q4.73-4.71,9.42-9.43L22.4,4.17a5.38,5.38,0,0,1,8.14,0L36.38,10l.52.57c-.59.18-1.09.35-1.61.48s-.93.38-.92,1,.41.8.9.94c1.45.42,2.89.87,4.34,1.27a.87.87,0,0,1,.72.76c.29,1.32.62,2.63.93,3.94.12.52.37.9.93.91s.86-.4,1-.93.26-1.05.4-1.65c.16.13.29.2.39.3,1.15,1.14,2.31,2.28,3.44,3.44a5.34,5.34,0,0,1,0,7.8q-8.51,8.54-17,17a5.3,5.3,0,0,1-7.63.08l1.07-1.09c3.77-3.77,7.48-7.59,11.33-11.26C36.89,31.9,37.13,29.22,34.48,27.82Z"/></g></g></svg>