<svg xmlns="http://www.w3.org/2000/svg" viewBox="0 0 122.7 138.26"><defs><style>.cls-1{isolation:isolate;}.cls-2{fill:#e87503;}.cls-3{fill:#fff;}.cls-4{fill:#074ea3;}.cls-5{fill:#090028;}.cls-6{fill:#d0d1de;}.cls-7{fill:#110239;}.cls-8{fill:#e5e6ed;}.cls-9{fill:#fbb040;}.cls-10{fill:#f88667;}.cls-11{fill:#00547a;opacity:0.52;mix-blend-mode:multiply;}.cls-12{fill:#e45940;}</style></defs><g class="cls-1"><g id="Layer_2" data-name="Layer 2"><g id="Layer_1-2" data-name="Layer 1"><path class="cls-2" d="M0,0H122.7a0,0,0,0,1,0,0V76.91a61.35,61.35,0,0,1-61.35,61.35h0A61.35,61.35,0,0,1,0,76.91V0A0,0,0,0,1,0,0Z"/><circle class="cls-3" cx="61.35" cy="72.96" r="52.1"/><path class="cls-4" d="M50.09,75.52l-.28,28.28c0,1.46-.43,2.32-2.52,2.59-2.61.33-3.4-.13-3.79-.84-.73-1.35-7.85-28.38-9-30.21S50.09,75.52,50.09,75.52Z"/><path class="cls-5" d="M50,81.61l.06-6.09s-16.79-2-15.62-.18c.28.43,1.38,3.91,2.2,6.61Z"/><path class="cls-6" d="M23.65,65.78a3.2,3.2,0,0,0-3.13,2.45,15.67,15.67,0,0,0-.35,3.29,8.17,8.17,0,0,0,.5,3.54,3.12,3.12,0,0,0,2.74,1.78c5.74.21,26.42,1,30.73,2,5,1.18,21.82,8.64,21.82,8.64l-3.2-37.8S57.32,62.22,47.52,64.16C39.89,65.68,28.38,65.8,23.65,65.78Z"/><path class="cls-7" d="M34.16,77.29c2.14.1,4.36.21,6.55.34a25.59,25.59,0,0,1-.13-12.51c-2.19.2-4.42.35-6.56.45A23.07,23.07,0,0,0,34.16,77.29Z"/><path class="cls-8" d="M92.36,67.35C92.47,81,86,92.14,77.82,92.21S63,81.24,62.9,67.58s6.4-24.8,14.53-24.86S92.25,53.68,92.36,67.35Z"/><path class="cls-7" d="M91.26,67.35C91.36,79,85.82,88.45,78.9,88.5s-12.61-9.32-12.7-21S71.64,46.46,78.57,46.4,91.17,55.73,91.26,67.35Z"/><path class="cls-9" d="M76.08,69.49c.3-4.14-2.41-7.71-6.06-8a6,6,0,0,0-3.46.86,34,34,0,0,0,.81,13.78,6,6,0,0,0,1.58.36C72.59,76.78,75.78,73.63,76.08,69.49Z"/><path class="cls-10" d="M54.21,54.37a1.91,1.91,0,0,1,.16-1.26c-.22,0-.53.06-.51-.06s.06-.41-.07-.39a.84.84,0,0,0-.31.16,1.45,1.45,0,0,1-.74.18c-.09.29-.33.73-.17,1,.08.16.51.08.7.15A3.41,3.41,0,0,0,54.21,54.37Z"/><path class="cls-9" d="M48.16,41a9.77,9.77,0,0,0-4.29,1.07l1.15,5a5.27,5.27,0,0,1,2.8-.61Z"/><path class="cls-2" d="M47,43.65c0-.83.06-1.67.08-2.5A8.57,8.57,0,0,1,48.16,41l-.34,5.45c-.47-.72-.69-.56-.78-.64C47,45.11,47,44.36,47,43.65Z"/><path class="cls-9" d="M58.11,41.28s-6.52-2.56-10.79-1.68L47,45.83s3.78-.84,9,1.45Z"/><rect class="cls-7" x="47.71" y="48.38" width="15.63" height="0.56" transform="translate(-8.66 85.14) rotate(-70.85)"/><path class="cls-4" d="M53.07,54.41V52.64s-5.26,0-7.47-.59-5.16-3.23-6.34-2.81-1.93,1.62-.47,2.77,4.93,2.14,6.44,2.37C46.27,54.54,52.24,54.4,53.07,54.41Z"/><path class="cls-11" d="M44.27,53.3a16.74,16.74,0,0,1-5.12-4c-1.11.45-1.78,1.61-.36,2.73s4.93,2.14,6.44,2.37c.51.08,2.21.08,3.91.07A17.06,17.06,0,0,1,44.27,53.3Z"/><path class="cls-7" d="M44.22,74.84s-1,1.66-.88,2.06,3.73,2.47,4.21,2.3.57-.73-.07-1.3-1.13-.66-1.52-1.16,0-1.57,0-1.57Z"/><path class="cls-9" d="M38.21,60.76a2.24,2.24,0,0,0,1.47.48c.76-.09,8.12.67,8.88,1.29s-2.34,13.09-2.34,13.09l-2.56-.43s.92-9.11.77-9.17-4-.06-10.62-.06c-1.61,0-3.4-3.38-1.37-5.74Z"/><path class="cls-10" d="M39.36,46.88a2.61,2.61,0,0,1-.69-.44,5.21,5.21,0,0,1-1.16,2.89,5.78,5.78,0,0,0,2.91.37,9.2,9.2,0,0,1,.12-2.65A2.5,2.5,0,0,1,39.36,46.88Z"/><path class="cls-12" d="M38.58,49a1.94,1.94,0,0,1,1.83-1.28,2.9,2.9,0,0,1,.13-.71,2.5,2.5,0,0,1-1.18-.17,2.61,2.61,0,0,1-.69-.44,5.21,5.21,0,0,1-1.16,2.89,6.83,6.83,0,0,0,1,.29A2.07,2.07,0,0,1,38.58,49Z"/><path class="cls-10" d="M38.9,42.56s1.89-.59,2.49-.22a2.7,2.7,0,0,1,1,2.23c-.1.69.69,1.48.71,1.73s-.6.34-.62.42,0,1.32-.88,1.53a3.74,3.74,0,0,1-3.26-1.34C37.76,46.21,37.13,43,38.9,42.56Z"/><path class="cls-7" d="M42.42,42.64c-.1-.1-.36-.26-.42-.39a3.09,3.09,0,0,0-.14-.32c-.21-.31-.26-.53-1.13-.8a2.65,2.65,0,0,0-2.3.51,2.21,2.21,0,0,0-.55.63c0,.08-.17.28-.14.36s.32.16.41.21a3.39,3.39,0,0,1,.42.35c.87.69,2.21,1.44,3.16.47a3.52,3.52,0,0,0,.36-.41,2.62,2.62,0,0,1,.26,1.26,1.08,1.08,0,0,0,.38-.61A1.29,1.29,0,0,0,42.42,42.64Z"/><path class="cls-7" d="M38.43,42.58a1.62,1.62,0,0,0-.9,0,1.1,1.1,0,0,0-.85,1,5.37,5.37,0,0,0-.09.89,3.4,3.4,0,0,0,.22,1.34A3.21,3.21,0,0,0,37.6,47c.34.31,1,.66,1.32.52a2.45,2.45,0,0,0,.27-1.2c0-.22-.14-.23-.32-.33s-.64-.5-.42-.87c.32-.52.9-.28,1.11.44,0,0,.23.4.36.34A2.61,2.61,0,0,0,38.43,42.58Z"/><path class="cls-12" d="M38.66,45.17a.51.51,0,0,1,.56.15c.23.26.12.69-.1.53s-.13-.3-.17-.43A.44.44,0,0,0,38.66,45.17Z"/><path class="cls-4" d="M31.54,60.07s2.66,2.06,8.19,1.14a12.31,12.31,0,0,1,.45-3.14,30,30,0,0,0,1.18-6.17,3.37,3.37,0,0,0-1-2.62s-1,1-2.58-.29a6.79,6.79,0,0,0-4.31,4A36.4,36.4,0,0,0,31.54,60.07Z"/><path class="cls-11" d="M38.19,51.59c-1.42,1.54,0,5.33,1.76,7.45a9.66,9.66,0,0,1,.23-1c.24-.82.55-2,.79-3.25a2.89,2.89,0,0,1-1.15-1.38C39.26,52.1,38.9,51.19,38.19,51.59Z"/><path class="cls-10" d="M49.76,62.19a1.4,1.4,0,0,0,.67.35,1,1,0,0,1,.34.09,2.24,2.24,0,0,0,.39.14.64.64,0,0,1,.36.17c.11.13-.1.17-.25.17s-.57-.26-.69-.15.4.41.5.47.43,0,.69,0,.22,0,.11.19-.22.1-.34.11a1.47,1.47,0,0,1-.74-.12,2,2,0,0,0,.68.19c.13,0,.7,0,.7.16,0,.42-1.26.15-1.45,0a2.11,2.11,0,0,0,.67.22c.13,0,.46.09.28.27s-.89-.17-1.21-.31a2.39,2.39,0,0,0,.58.34c.26.14.07.29-.23.19a3.08,3.08,0,0,1-.4-.19,2.23,2.23,0,0,1-1-1.06c-.11-.19-.48-.41-.44-.59C49.05,62.53,49.51,62.36,49.76,62.19Z"/><path class="cls-4" d="M50.15,61.94l-1.07,1.45s-6.85-3-7.47-3.75a40.44,40.44,0,0,1-3-4.42c-.73-1.78-1.63-3.89,0-4.26.9-.21,1.47,0,2,1.34a36.36,36.36,0,0,0,3,5.48C44,58.11,50.15,61.94,50.15,61.94Z"/><path class="cls-10" d="M55,53.13c.1.16-.17.82-.42,1.1a.49.49,0,0,1-.64,0c-.21-.13-.46-.17-.5-.3,0-.49.41-.12.62,0,0,0-.55-.27-.55-.51,0-.44.7.07.89.15a1.09,1.09,0,0,1-.52-.34.17.17,0,0,1,0-.26c.14-.14.72.27.72.27S54,53,54.2,52.81s.28,0,.38,0A.61.61,0,0,1,55,53.13Z"/><path class="cls-10" d="M53.67,53.11l.19,0h0c0-.17.66-.21.8-.29.43-.22.26-.49.07-.43s-.44.13-.56.18a1.65,1.65,0,0,1-.44.05,2.9,2.9,0,0,0-.55.39C53,53.09,53.44,53.21,53.67,53.11Z"/><path class="cls-6" d="M101.58,58.16c.14.39-1.14,1.21-2.85,1.84s-3.23.84-3.37.45,1.13-1.21,2.85-1.84S101.44,57.78,101.58,58.16Z"/><path class="cls-6" d="M98.45,50.42c.17.38-1.06,1.28-2.74,2s-3.18,1-3.34.63,1.06-1.27,2.75-2S98.29,50.05,98.45,50.42Z"/><path class="cls-6" d="M100.77,78.82c-.12.4-1.64.28-3.39-.27s-3.07-1.3-2.95-1.69,1.64-.27,3.39.27S100.89,78.43,100.77,78.82Z"/><path class="cls-6" d="M97.59,87.2c-.16.38-1.66.13-3.36-.55s-3-1.55-2.79-1.93,1.65-.14,3.35.55S97.74,86.82,97.59,87.2Z"/><path class="cls-6" d="M102.53,68.59c0,.41-1.52.67-3.35.57s-3.29-.5-3.27-.91,1.52-.67,3.35-.58S102.55,68.18,102.53,68.59Z"/></g></g></g></svg>