<svg xmlns="http://www.w3.org/2000/svg" xmlns:xlink="http://www.w3.org/1999/xlink" viewBox="0 0 168.85 213.65"><defs><style>.cls-1{fill:none;}.cls-2{isolation:isolate;}.cls-3{clip-path:url(#clip-path);}.cls-4{fill:#14a800;}.cls-5,.cls-7{opacity:0.4;mix-blend-mode:multiply;}.cls-6,.cls-7{fill:#742e3d;}.cls-8{fill:#dcc9d7;}.cls-10,.cls-9{fill:#fff;}.cls-10{opacity:0.5;mix-blend-mode:screen;}</style><clipPath id="clip-path" transform="translate(-16.45 -22.39)"><rect class="cls-1" width="212.35" height="192.52"/></clipPath></defs><g class="cls-2"><g id="Layer_2" data-name="Layer 2"><g id="Layer_1-2" data-name="Layer 1"><g class="cls-3"><path class="cls-4" d="M98.81,236l-9.08-4.71L83.29,228l-13.46-7h0l-6.74-3.49-13.86-7.19-7.17-3.71-14.39-7.47h0l-8-4.12h0l-3.26-1.69L18.26,186l1.27-5.18L22,170.51l1.31-5.34L26,154.28l.35-1.44,1-4,2.78-11.33,1.37-5.57.53-2.15,1.7-6.95.63-2.58,1.39-5.65L40.6,94.83l2.49-10.16s19.1,2.49,45.13,10.73c.88.27,1.76.56,2.65.85,1.51.49,3,1,4.6,1.53,4.68,1.6,9.52,3.38,14.48,5.35q3.18,1.28,6.41,2.64c2.74,1.16,5.51,2.39,8.28,3.67q2.31,1.07,4.62,2.19,2.87,1.38,5.73,2.87c3.85,2,7.71,4.09,11.55,6.34q2.58,1.5,5.14,3.08c3.48,2.16,6.94,4.43,10.35,6.81q2.31,1.62,4.59,3.31,3.15,2.33,6.22,4.8L168.18,145l-2.69,3.52-3.75,4.92h0l-4.05,5.33L148.37,171h0L143.75,177l-1.5,2-12.69,16.66h0l-.89,1.16-4.91,6.45-11.9,15.63h0l-5.44,7.14Z" transform="translate(-16.45 -22.39)"/><g class="cls-5"><path class="cls-6" d="M95.47,97.78l-4.12,1.69c-19.57,8-38.16,14.77-55.27,20.22l-1.71.54,1.39-5.65c19-6.11,37.32-13,52.46-19.18.88.27,1.76.56,2.65.85C92.38,96.74,93.92,97.25,95.47,97.78Z" transform="translate(-16.45 -22.39)"/><path class="cls-6" d="M116.36,105.77c-5.4,2.33-11.15,4.76-17.15,7.22-19.92,8.16-38.73,15-55.89,20.5q-6.76,2.14-13.18,4l1.37-5.57c23.55-6.94,47.12-15.84,65.82-23.5q6.54-2.68,12.62-5.28Q113.13,104.41,116.36,105.77Z" transform="translate(-16.45 -22.39)"/><path class="cls-6" d="M135,114.5c-8.31,3.72-17.77,7.83-27.92,12-20.28,8.35-39.3,15.34-56.52,20.78q-12.93,4.08-24.53,7l.35-1.44,1-4c27.07-7,55.71-17.77,77.82-26.88,8.62-3.55,16.75-7.05,24.08-10.3Q132.13,113,135,114.5Z" transform="translate(-16.45 -22.39)"/><path class="cls-6" d="M151.68,123.92c-10.26,4.74-22.91,10.38-36.76,16.11-20.63,8.55-39.85,15.63-57.13,21.05A359.28,359.28,0,0,1,22,170.51l1.31-5.34C47.68,160,78.18,149.89,113,135.46c12.43-5.15,23.89-10.22,33.51-14.62Q149.12,122.34,151.68,123.92Z" transform="translate(-16.45 -22.39)"/><path class="cls-6" d="M166.62,134c-11.42,5.4-26.77,12.41-43.84,19.51-21,8.74-40.42,15.92-57.76,21.33-17.85,5.58-33.53,9.29-46.76,11.08l1.27-5.18C44.94,177,79.65,166.14,120.84,149c15.8-6.58,30.13-13.07,41.19-18.27Q164.34,132.35,166.62,134Z" transform="translate(-16.45 -22.39)"/><path class="cls-6" d="M161.74,153.41h0c-9.23,4.24-19.82,8.94-31.1,13.66-21.34,8.93-41,16.2-58.39,21.61-17,5.29-32,8.81-44.58,10.48h0l-8-4.12c25.22-2,62.81-13.2,109-32.52,14.89-6.23,28.55-12.42,39.49-17.55l-2.69,3.52Z" transform="translate(-16.45 -22.39)"/><path class="cls-6" d="M142.25,179l-3.76,1.58c-21.69,9.13-41.54,16.49-59,21.88a308.74,308.74,0,0,1-30.26,7.87l-7.17-3.71c23.89-4,56.07-14.43,94.48-30.59,4-1.69,8-3.39,11.83-5.06L143.75,177Z" transform="translate(-16.45 -22.39)"/><path class="cls-6" d="M123.76,203.28c-13.31,5.16-25.71,9.51-37,13Q77.84,219,69.83,221h0l-6.74-3.49c18.39-4.22,40.77-11.58,66.47-21.86l-.89,1.16Z" transform="translate(-16.45 -22.39)"/><path class="cls-6" d="M106.42,226.05q-6.44,2.17-12.46,4-2.14.66-4.23,1.26L83.29,228c8.76-2.41,18.31-5.45,28.57-9.08Z" transform="translate(-16.45 -22.39)"/></g><path class="cls-7" d="M165.49,148.49l-7.8,10.25c-24.8-14-81-39.27-123.95-35.93l6.86-28C62.93,101.67,148.82,128.94,165.49,148.49Z" transform="translate(-16.45 -22.39)"/><path class="cls-8" d="M143.75,177l-15.08,19.79c-20.4-10.17-69.79-34.08-102.29-44L32,129.76C53.08,137.07,101.45,154.78,143.75,177Z" transform="translate(-16.45 -22.39)"/><path class="cls-9" d="M68.48,220.32l-16.79-8.7c11.89-31.35,21.8-60.44,29.3-83.72h0c1.08-3.34,2.11-6.57,3.09-9.66.23-.74.47-1.48.69-2.2,2.35-7.45,4.39-14.1,6.1-19.79q1-3.36,1.87-6.26A253.05,253.05,0,0,1,128,103.92c-1.07,1.71-2.18,3.56-3.34,5.52-3.39,5.77-7.15,12.54-11.07,19.89q-1.93,3.61-3.91,7.39l0,.06C94,166.55,76.75,202.77,68.48,220.32Z" transform="translate(-16.45 -22.39)"/><path class="cls-8" d="M115.77,125.24l-6.14,11.54C98.09,132.3,81.24,128,81,127.9h0q2-6.21,3.78-11.86Z" transform="translate(-16.45 -22.39)"/><path class="cls-4" d="M178.33,137.94l-14.56,20.67c-15.08-12.13-32.79-21.75-50.2-29.28-10.12-4.38-20.14-8.05-29.49-11.09A362.64,362.64,0,0,0,33.46,105.5l4.21-26.69A279.69,279.69,0,0,1,92.74,90,253.05,253.05,0,0,1,128,103.92C161.53,120.21,178.33,137.94,178.33,137.94Z" transform="translate(-16.45 -22.39)"/><path class="cls-9" d="M84.08,118.24,92.74,90a181.37,181.37,0,0,1,34.31,13.48l-13.48,25.86Z" transform="translate(-16.45 -22.39)"/><path class="cls-10" d="M40.89,82.86s44.28,3.22,75,21.9c0,0-51.85-18.53-70.13-14L37.41,102.1Z" transform="translate(-16.45 -22.39)"/><path class="cls-9" d="M158.31,59.33c-.38,0-.75-.08-1.13-.11s-.65,0-1,0h-.39c-19.22-.14-44.06,27.56-49.66,34.1-.75.88-1.15,1.38-1.15,1.38l4.26,2.21h-.12c-3.18-.13-5.16-.26-5.16-.26l6.54,4.37s45.5,15.13,65.81.36C196.29,86.8,179.69,61.83,158.31,59.33Zm-9.19,35.59c-9.75,2.42-26.52,2.35-36.64,2l-2.08-.07.23-.18h0l.17-.14.2-.15c.11-.08.21-.17.33-.25l.13-.1.4-.3.63-.48.69-.5c.57-.42,1.21-.89,1.91-1.38l.61-.44.73-.51.58-.4c.84-.59,1.74-1.21,2.7-1.84l.4-.27,1.84-1.2.42-.27,1.76-1.12.4-.24.57-.36.32-.19.3-.18.39-.24c2-1.24,4.21-2.47,6.43-3.65l.5-.26.5-.26c1.17-.61,2.36-1.2,3.56-1.77l1-.44c1.69-.77,3.4-1.48,5.09-2.11l.51-.19.87-.3.64-.22.51-.16.5-.16c.84-.26,1.67-.49,2.5-.7l.93-.22c1.11-.24,2.2-.44,3.26-.57l.39,0L154,75l.34,0h0l.42,0,.34,0h1a18.48,18.48,0,0,1,2.5.19l.21,0,.27,0,.46.09.35.07.4.1.35.1.28.09.14,0,.38.13a12.74,12.74,0,0,1,2.17,1c3.64,2.23,5.07,5.37,3.26,8.58C165,88.87,159.5,92.34,149.12,94.92Z" transform="translate(-16.45 -22.39)"/><path class="cls-8" d="M167,85.47c1.81-3.21.38-6.35-3.26-8.58a12.74,12.74,0,0,0-2.17-1l-.38-.13-.14,0-.28-.09-.35-.1-.4-.1-.35-.07-.46-.09-.27,0-.21,0a18.48,18.48,0,0,0-2.5-.19h-1l-.34,0-.42,0h0L154,75l-.75.07-.39,0c-1.06.13-2.15.33-3.26.57l-.93.22c-.83.21-1.66.44-2.5.7l-.5.16-.51.16-.64.22-.87.3-.51.19c-1.69.63-3.4,1.34-5.09,2.11l-1,.44c-1.2.57-2.39,1.16-3.56,1.77l-.5.26-.5.26c-2.22,1.18-4.38,2.41-6.43,3.65l-.39.24-.3.18-.32.19-.57.36-.4.24-1.76,1.12-.42.27L120.12,90l-.4.27c-1,.63-1.86,1.25-2.7,1.84l-.58.4-.73.51-.61.44c-.7.49-1.34,1-1.91,1.38l-.69.5-.63.48-.4.3-.13.1c-.12.08-.22.17-.33.25l-.2.15-.41.32h0a2.52,2.52,0,0,1-1.14-.05L105,94.64s.4-.5,1.15-1.38c5.6-6.54,30.44-34.24,49.66-34.1h.39c.33,0,.65,0,1,0s.75.06,1.13.11C175.35,69,169.21,81.81,167,85.47Z" transform="translate(-16.45 -22.39)"/><path class="cls-9" d="M63.14,42.64c-.37,25.11,38.23,53.57,38.23,53.57L108.7,99s-1.24-1.54-3.18-4.06l-.08-.1,4.27,2.21s.17-.61.46-1.73c2.12-8.35,10.43-44.61-.75-60.24l-.23-.31c-.2-.27-.41-.52-.61-.77s-.49-.58-.74-.86C93.46,17.13,63.5,18,63.14,42.64Zm18.35-1.46c1.58-3.34,5-4,8.89-2.29a11.75,11.75,0,0,1,2.1,1.18l.32.23.12.09.24.18.28.23.31.27.27.24.33.32.19.2.16.15a22.08,22.08,0,0,1,1.59,1.93c.07.09.13.19.2.29a2.14,2.14,0,0,1,.13.19c.08.11.16.23.23.35L97,45l.22.36,0,0a2.75,2.75,0,0,1,.17.29c.13.21.25.43.38.65s.12.23.19.34q.75,1.42,1.41,3l.36.88c.3.8.6,1.61.87,2.45,0,.17.11.33.16.5s.11.34.16.51l.19.64c.09.3.17.6.25.9s.1.34.14.52c.47,1.74.87,3.54,1.21,5.37.07.35.14.7.2,1.05.23,1.31.43,2.62.61,3.93,0,.19,0,.37.08.56s0,.37.07.55c.32,2.5.55,5,.73,7.37l0,.45c0,.12,0,.23,0,.35s0,.25,0,.37,0,.45,0,.68a3.55,3.55,0,0,1,0,.46c0,.71.08,1.4.11,2.09,0,.16,0,.33,0,.49,0,.75.06,1.49.08,2.2,0,.16,0,.32,0,.48,0,1.15,0,2.24,0,3.27,0,.24,0,.47,0,.7v1.64c0,.86,0,1.65,0,2.36,0,.3,0,.58,0,.85s0,.54,0,.79,0,.35,0,.51v.16c0,.14,0,.28,0,.41a2,2,0,0,1,0,.25,1.55,1.55,0,0,1,0,.22h0a2.81,2.81,0,0,1,0,.3l-1.25-1.66c-6.09-8.09-15.81-21.76-19.45-31.13C80.17,51.22,79.82,44.7,81.49,41.18Z" transform="translate(-16.45 -22.39)"/><path class="cls-8" d="M81.49,41.18c1.58-3.34,5-4,8.89-2.29a11.75,11.75,0,0,1,2.1,1.18l.32.23.12.09.24.18.28.23.31.27.27.24.33.32.19.2.16.15a22.08,22.08,0,0,1,1.59,1.93c.07.09.13.19.2.29a2.14,2.14,0,0,1,.13.19c.08.11.16.23.23.35L97,45l.22.36,0,0a2.75,2.75,0,0,1,.17.29c.13.21.25.43.38.65s.12.23.19.34q.75,1.42,1.41,3l.36.88c.3.8.6,1.61.87,2.45,0,.17.11.33.16.5s.11.34.16.51l.19.64c.09.3.17.6.25.9s.1.34.14.52c.47,1.74.87,3.54,1.21,5.37.07.35.14.7.2,1.05.23,1.31.43,2.62.61,3.93,0,.19,0,.37.08.56s0,.37.07.55c.32,2.5.55,5,.73,7.37l0,.45c0,.12,0,.23,0,.35s0,.25,0,.37,0,.45,0,.68a3.55,3.55,0,0,1,0,.46c0,.71.08,1.4.11,2.09,0,.16,0,.33,0,.49,0,.75.06,1.49.08,2.2,0,.16,0,.32,0,.48,0,1.15,0,2.24,0,3.27,0,.24,0,.47,0,.7v1.64c0,.86,0,1.65,0,2.36,0,.3,0,.58,0,.85s0,.54,0,.79,0,.35,0,.51v.16c0,.14,0,.28,0,.41a2,2,0,0,1,0,.25c0,.08,0,.45,0,.52h0a2.59,2.59,0,0,0,.69.9l4.27,2.21s.17-.61.46-1.73c2.12-8.35,10.43-44.61-.75-60.24l-.23-.31c-.2-.27-.41-.52-.61-.77s-.49-.58-.74-.86C90.08,24.83,83.18,37.21,81.49,41.18Z" transform="translate(-16.45 -22.39)"/></g></g></g></g></svg>