<svg xmlns="http://www.w3.org/2000/svg" viewBox="0 0 47.2 54.92"><defs><style>.cls-1{fill:#102f3a;}.cls-2{fill:#ffd3ae;}</style></defs><g id="Layer_2" data-name="Layer 2"><g id="Layer_1-2" data-name="Layer 1"><path class="cls-1" d="M4.5,54.92c-.31-.09-.61-.17-.91-.27A5.28,5.28,0,0,1,0,49.89c0-.1,0-.21,0-.32Q0,27.48,0,5.38A5,5,0,0,1,3.18.46,5.23,5.23,0,0,1,5.25,0Q23.6,0,41.94,0a5.16,5.16,0,0,1,5.22,5.05c.07,3,0,6,0,9.06a.81.81,0,0,1-.84.91c-.47,0-.76-.34-.76-.91,0-.75,0-1.5,0-2.35h-36a3,3,0,0,1-.74-.06.78.78,0,0,1,.15-1.52,3.84,3.84,0,0,1,.59,0h36V8.79c0-1.16,0-2.32,0-3.48a3.63,3.63,0,0,0-3.71-3.7c-3.17,0-6.33,0-9.5,0H5.65a3.68,3.68,0,0,0-4,4v4.52l.59,0H5.47c.59,0,1,.31.94.79s-.36.8-.94.8H1.64V41h7c.46,0,.82.12.95.61s-.25,1-.92,1h-7v7H45.54v-7H38.8a2.33,2.33,0,0,1-.53,0,.76.76,0,0,1-.64-.86.72.72,0,0,1,.73-.71c.41,0,.82,0,1.23,0h6V18c0-.71.3-1.1.82-1.09s.79.4.79,1.07q0,15.83,0,31.64a5.22,5.22,0,0,1-4.31,5.26l-.18.09ZM45.18,51.3H2a3.76,3.76,0,0,0,3.47,2H42.15A3.67,3.67,0,0,0,45.18,51.3Z"/><path class="cls-1" d="M24.17,43.44C16.8,43.46,11,38.2,10.49,31.52A13.11,13.11,0,0,1,35,23.85a1.42,1.42,0,0,1-.86,2.21c-1.31.42-1.2.19-1.2,1.64,0,1.91,0,3.82,0,5.74,0,.55.15.89.71,1,1.54.28,2.1,1.32,1.06,2.88A13,13,0,0,1,24.17,43.44Zm7.11-12.68c-.27,0-.44.08-.62.09-.87,0-1.74.1-2.61.07a14,14,0,0,1-4.41-1.23,8.63,8.63,0,0,0-6.53.08c-1.54.62-3.06,1.27-4.6,1.88-.31.13-.39.27-.32.6a11.14,11.14,0,0,0,7.55,8.9,11.08,11.08,0,0,0,11.49-2.29,10,10,0,0,0,2.24-2.76,2.28,2.28,0,0,0-.3-.12c-1.5-.5-1.89-1-1.89-2.63Zm2.17-6.23a11.45,11.45,0,0,0-13.93-5c-4.35,1.62-8.21,7.09-7.4,10.52l.45-.16,3.91-1.61a10.52,10.52,0,0,1,5.09-.75,15.34,15.34,0,0,1,4,1.15,9.22,9.22,0,0,0,4.73.59c1-.14,1-.13,1-1.13v-.32C31.28,25.58,31.39,25.41,33.45,24.53Z"/><path class="cls-1" d="M22.73,14c8.86.07,15.65,5.85,16.94,13.72A16.34,16.34,0,0,1,7.42,33c0-.23-.07-.46-.1-.69a.8.8,0,0,1,.66-1,.77.77,0,0,1,.92.74A15.08,15.08,0,0,0,11,38.11,14.74,14.74,0,1,0,9,28.15c0,.18-.05.35-.08.53a.81.81,0,0,1-.91.77.84.84,0,0,1-.68-1,15.26,15.26,0,0,1,1.33-4.78C11.66,17.4,16.71,14.29,22.73,14Z"/><path class="cls-1" d="M40.45,13.41h1.72a1.45,1.45,0,0,1,1.55,1.44,20.18,20.18,0,0,1,0,2.2,1.41,1.41,0,0,1-1.5,1.42c-1.19,0-2.39,0-3.59,0a1.45,1.45,0,0,1-1.51-1.53q0-1,0-2a1.49,1.49,0,0,1,1.56-1.55Zm1.65,1.65H38.77v1.76H42.1Z"/><path class="cls-1" d="M31,8.7a2.74,2.74,0,1,1,0-5.47A2.74,2.74,0,0,1,31,8.7ZM29.9,6A1.1,1.1,0,0,0,31,7.08,1.13,1.13,0,0,0,32.15,6,1.15,1.15,0,0,0,31,4.84,1.11,1.11,0,0,0,29.9,6Z"/><path class="cls-1" d="M18.79,6A2.72,2.72,0,0,1,16.06,8.7a2.74,2.74,0,1,1,0-5.47A2.72,2.72,0,0,1,18.79,6ZM17.18,6a1.12,1.12,0,0,0-1.12-1.12A1.15,1.15,0,0,0,14.93,6a1.14,1.14,0,0,0,1.13,1.12A1.1,1.1,0,0,0,17.18,6Z"/><path class="cls-1" d="M8.58,8.7a2.74,2.74,0,0,1,0-5.47,2.74,2.74,0,1,1,0,5.47ZM7.47,6A1.1,1.1,0,0,0,8.6,7.08,1.13,1.13,0,0,0,9.72,6,1.15,1.15,0,0,0,8.57,4.84,1.12,1.12,0,0,0,7.47,6Z"/><path class="cls-1" d="M41.22,6A2.73,2.73,0,0,1,38.51,8.7a2.74,2.74,0,1,1,0-5.47A2.72,2.72,0,0,1,41.22,6ZM39.61,6a1.12,1.12,0,0,0-1.12-1.13,1.12,1.12,0,1,0,0,2.24A1.1,1.1,0,0,0,39.61,6Z"/><path class="cls-1" d="M23.54,8.7A2.74,2.74,0,1,1,26.27,6,2.75,2.75,0,0,1,23.54,8.7Zm0-1.61A1.13,1.13,0,1,0,22.41,6,1.13,1.13,0,0,0,23.54,7.09Z"/><path class="cls-1" d="M36.3,30.36c0,.73,0,1.47,0,2.2,0,.56-.3.89-.77.91a.82.82,0,0,1-.83-.92c0-1.44,0-2.89,0-4.33,0-.58.34-.95.81-.95s.78.37.79.95S36.3,29.65,36.3,30.36Z"/><path class="cls-2" d="M45.18,51.3a3.67,3.67,0,0,1-3,2H5.46A3.76,3.76,0,0,1,2,51.3Z"/><path class="cls-2" d="M31.28,30.76v2.59c0,1.58.39,2.13,1.89,2.63a2.28,2.28,0,0,1,.3.12,10,10,0,0,1-2.24,2.76,11.08,11.08,0,0,1-11.49,2.29,11.14,11.14,0,0,1-7.55-8.9c-.07-.33,0-.47.32-.6,1.54-.61,3.06-1.26,4.6-1.88a8.63,8.63,0,0,1,6.53-.08,14,14,0,0,0,4.41,1.23c.87,0,1.74,0,2.61-.07C30.84,30.84,31,30.8,31.28,30.76Z"/><path class="cls-2" d="M33.45,24.53c-2.06.88-2.17,1-2.17,3.3v.32c0,1,0,1-1,1.13a9.22,9.22,0,0,1-4.73-.59,15.34,15.34,0,0,0-4-1.15,10.52,10.52,0,0,0-5.09.75L12.57,29.9l-.45.16c-.81-3.43,3.05-8.9,7.4-10.52A11.45,11.45,0,0,1,33.45,24.53Z"/><path class="cls-2" d="M42.1,15.06v1.76H38.77V15.06Z"/><path class="cls-2" d="M29.9,6A1.11,1.11,0,0,1,31,4.84,1.15,1.15,0,0,1,32.15,6,1.13,1.13,0,0,1,31,7.08,1.1,1.1,0,0,1,29.9,6Z"/><path class="cls-2" d="M17.18,6a1.1,1.1,0,0,1-1.12,1.12A1.14,1.14,0,0,1,14.93,6a1.15,1.15,0,0,1,1.13-1.12A1.12,1.12,0,0,1,17.18,6Z"/><path class="cls-2" d="M7.47,6a1.12,1.12,0,0,1,1.1-1.14A1.15,1.15,0,0,1,9.72,6,1.13,1.13,0,0,1,8.6,7.08,1.1,1.1,0,0,1,7.47,6Z"/><path class="cls-2" d="M39.61,6a1.1,1.1,0,0,1-1.12,1.11,1.12,1.12,0,1,1,0-2.24A1.12,1.12,0,0,1,39.61,6Z"/><path class="cls-2" d="M23.54,7.09A1.13,1.13,0,1,1,24.66,6,1.14,1.14,0,0,1,23.54,7.09Z"/></g></g></svg>