<svg xmlns="http://www.w3.org/2000/svg" viewBox="0 0 122.7 138.26"><defs><style>.cls-1{isolation:isolate;}.cls-2{fill:#e87503;}.cls-3{fill:#fff;}.cls-4{fill:#fbb040;}.cls-5{fill:#110239;}.cls-6{fill:#d0d1de;}.cls-7{fill:#2d2d2d;}.cls-8{fill:#ededed;}.cls-9{fill:#f88667;}.cls-10{fill:#e45940;}.cls-11{fill:#074ea3;}.cls-12{fill:#00547a;opacity:0.52;mix-blend-mode:multiply;}.cls-13{fill:#fd425f;}.cls-14{fill:#ffbe83;}</style></defs><g class="cls-1"><g id="Layer_2" data-name="Layer 2"><g id="Layer_1-2" data-name="Layer 1"><path class="cls-2" d="M0,0H122.7a0,0,0,0,1,0,0V76.91a61.35,61.35,0,0,1-61.35,61.35h0A61.35,61.35,0,0,1,0,76.91V0A0,0,0,0,1,0,0Z"/><circle class="cls-3" cx="61.35" cy="72.96" r="52.1"/><path class="cls-4" d="M90.33,40.56a19.09,19.09,0,0,1,7.51,4.29L93,53.67a10.3,10.3,0,0,0-5-2.65Z"/><path class="cls-2" d="M91.2,46.16c.42-1.58.77-3.18,1.17-4.76a14.34,14.34,0,0,0-2-.84L88.06,51c1.27-1.1,1.6-.68,1.82-.8C90.26,48.86,90.83,47.51,91.2,46.16Z"/><path class="cls-4" d="M71.42,35.76s13.66-1.37,21.25,2.56l-2.79,11.9s-6.69-3.6-17.81-2.06Z"/><rect class="cls-5" x="71.41" y="34.69" width="1.09" height="46.81"/><rect class="cls-5" x="70.58" y="80.09" width="2.76" height="2.2"/><rect class="cls-5" x="69.5" y="81.8" width="4.92" height="1.1"/><path class="cls-6" d="M51.87,55.4v7.8h1.94V57.71a1,1,0,0,1,1-1h8.36a1,1,0,0,1,1,1V63.2h2V55.4a1,1,0,0,0-1-1H52.87A1,1,0,0,0,51.87,55.4Z"/><rect class="cls-2" x="27.09" y="60.56" width="63.83" height="41.03" rx="3.42"/><path class="cls-7" d="M90.92,72V64a3.42,3.42,0,0,0-3.42-3.42h-57A3.42,3.42,0,0,0,27.09,64v8A8.8,8.8,0,0,0,35.9,80.8H82.11A8.81,8.81,0,0,0,90.92,72Z"/><rect class="cls-8" x="56.97" y="78.95" width="4.06" height="4.61"/><rect class="cls-7" x="58.35" y="81.16" width="1.31" height="1.14"/><path class="cls-9" d="M42.35,40.24H40.22s-.31,2.91-.87,3.26c0,0-.69,3.44,1.93,3.44,3.18,0,1.94-3.44,1.94-3.44C42.66,43.15,42.35,40.24,42.35,40.24Z"/><path class="cls-10" d="M42.35,40.24H40.22s-.31,2.91-.87,3.26c0,0-.69,3.44,1.93,3.44,3.18,0,1.94-3.44,1.94-3.44C42.66,43.15,42.35,40.24,42.35,40.24Z"/><path class="cls-9" d="M44.06,40.81c-.29-.34-.65.18-.65.18s.49-1.92,0-2.77-2.07-.4-2.07-.4-1.59-.44-2.07.4,0,2.77,0,2.77-.36-.52-.65-.18.48,1.2.66,1.31c0,0,1.14,2.13,2.06,2.13s2.06-2.13,2.06-2.13C43.57,42,44.36,41.15,44.06,40.81Z"/><path class="cls-5" d="M40.94,38.59s-1.2.21-1.33.85a2.4,2.4,0,0,0,.06,1,5.63,5.63,0,0,1,.1,1.06.19.19,0,0,1-.15,0,2.73,2.73,0,0,1-.41-.49c-.22-.34-.55-.28-.65-.07,0,0-.26-3.16,1.06-3.27S40.94,38.59,40.94,38.59Z"/><path class="cls-5" d="M41.72,38.59s1.2.21,1.33.85a2.4,2.4,0,0,1-.06,1,5.63,5.63,0,0,0-.1,1.06.19.19,0,0,0,.15,0,2.73,2.73,0,0,0,.41-.49c.22-.34.55-.28.65-.07,0,0,.26-3.16-1.06-3.27S41.72,38.59,41.72,38.59Z"/><path class="cls-5" d="M43.7,38.05a1.48,1.48,0,0,0-.87-1,4,4,0,0,0-2.54-.15,1.66,1.66,0,0,0-1.07,2.69,2.09,2.09,0,0,0,1.55.59C43.09,40.13,44.06,38.76,43.7,38.05Z"/><path class="cls-11" d="M43.22,43.5c-.11,2.92-1.94,2.62-1.94,2.62s-1.82.3-1.93-2.62A19.22,19.22,0,0,0,35,45.25a28.43,28.43,0,0,1,.64,5.39l1.66,6.44,4,.19,4-.19,1.66-6.44a28.43,28.43,0,0,1,.64-5.39A19.41,19.41,0,0,0,43.22,43.5Z"/><path class="cls-12" d="M46.61,46.94c-1.8,1-2.68,3.18-4.44,4.27s-3.1-1.15-4-2.33a6.78,6.78,0,0,0-2.91-2.31,27.25,27.25,0,0,1,.39,4.07l1.66,6.44,4,.19,4-.19,1.66-6.44a26.92,26.92,0,0,1,.38-4C47.05,46.73,46.82,46.83,46.61,46.94Z"/><path class="cls-13" d="M48.62,59.69c0-2.26-2.81-3.75-2.81-3.75H36.4s-2.81,1.49-2.81,3.75a11.53,11.53,0,0,0,.23,1.74H37c-.13.23-.24.44-.33.62l-.09.16H38.8c.17,0,.12.07.07-.18s-.29-.56-.07-.94a2.19,2.19,0,0,1,1.35-.55h.22q.74,0,1.47,0a3.32,3.32,0,0,1,.55.09c.16,0,.63,0,.84.26a1.1,1.1,0,0,1,.16.54,5.42,5.42,0,0,1-.09.78h2.85a7.4,7.4,0,0,1-.54-.78h2.78A11.53,11.53,0,0,0,48.62,59.69Z"/><path class="cls-2" d="M48.62,59.69c0-2.26-2.81-3.75-2.81-3.75H36.4s-2.81,1.49-2.81,3.75a11.53,11.53,0,0,0,.23,1.74H37c-.13.23-.24.44-.33.62l-.09.16H38.8c.17,0,.12.07.07-.18s-.29-.56-.07-.94a2.19,2.19,0,0,1,1.35-.55h.22q.74,0,1.47,0a3.32,3.32,0,0,1,.55.09c.16,0,.63,0,.84.26a1.1,1.1,0,0,1,.16.54,5.42,5.42,0,0,1-.09.78h2.85a7.4,7.4,0,0,1-.54-.78h2.78A11.53,11.53,0,0,0,48.62,59.69Z"/><path class="cls-11" d="M35,45.25s-3.6,7.78-3.34,8.81c.07.26,4.44,2.9,6.5,2.52l.84-.15S36,45.2,35,45.25Z"/><path class="cls-11" d="M47.54,45.25s3.59,7.78,3.33,8.81c-.07.26-4.44,2.9-6.5,2.52l-.84-.15S46.59,45.2,47.54,45.25Z"/><path class="cls-12" d="M36.43,48a5.91,5.91,0,0,1-.14,1.14C36,50.51,35.47,52,36,53.4a21.47,21.47,0,0,0,1.62,3.21,2.62,2.62,0,0,0,.57,0l.84-.15S37.63,51.28,36.43,48Z"/><path class="cls-12" d="M45.57,56.54a5.16,5.16,0,0,0,.4-2.07c0-1.43-.06-2.87,0-4.3,0-.63,0-1.23.07-1.81-1.17,3.3-2.47,8.07-2.47,8.07l.84.15A3.52,3.52,0,0,0,45.57,56.54Z"/><path d="M37.7,73.13a38.48,38.48,0,0,0-2.55,3.3c-.27.57.38,1.3,1.27,1s1.41-.9,1.42-1.28.49-.6.7-.63,1.39-1.37,1.27-1.74S39.1,73,39.1,73Z"/><path d="M44.51,73.13a38.48,38.48,0,0,1,2.55,3.3c.27.57-.38,1.3-1.27,1s-1.41-.9-1.42-1.28-.49-.6-.7-.63-1.39-1.37-1.27-1.74a2.11,2.11,0,0,1,.71-.78Z"/><path class="cls-4" d="M38.49,59.57c-.27-.65-.32-2-2.15-2-3.53,0-2.7,2.83-2.65,3.25a110.66,110.66,0,0,0,3.09,12.59h3.53S39,63.11,38.83,61.53A10.92,10.92,0,0,0,38.49,59.57Z"/><path class="cls-4" d="M43.72,59.57c.28-.65.33-2,2.16-2,3.53,0,2.7,2.83,2.64,3.25a108.46,108.46,0,0,1-3.09,12.59H41.91s1.28-10.28,1.48-11.86A10.79,10.79,0,0,1,43.72,59.57Z"/><rect x="36.1" y="56.52" width="10.36" height="0.61"/><path class="cls-7" d="M48,49.33H34.58a.62.62,0,0,0-.6.81c.12.81,1.81,6.45,2.16,6.45H46.43c.3,0,2-5.64,2.16-6.45A.62.62,0,0,0,48,49.33Z"/><path class="cls-6" d="M41.84,53.24a.56.56,0,1,1-1.11,0,.56.56,0,0,1,1.11,0Z"/><polygon class="cls-14" points="35.47 89.78 36.49 92.91 39.78 92.91 37.12 94.85 38.14 97.98 35.47 96.04 32.81 97.98 33.83 94.85 31.16 92.91 34.46 92.91 35.47 89.78"/><polygon class="cls-14" points="47.24 89.78 48.26 92.91 51.55 92.91 48.88 94.85 49.9 97.98 47.24 96.04 44.57 97.98 45.59 94.85 42.93 92.91 46.22 92.91 47.24 89.78"/><polygon class="cls-14" points="59 84.6 60.66 89.71 66.04 89.71 61.69 92.87 63.35 97.98 59 94.82 54.65 97.98 56.31 92.87 51.97 89.71 57.34 89.71 59 84.6"/><polygon class="cls-14" points="70.77 89.78 71.78 92.91 75.08 92.91 72.41 94.85 73.43 97.98 70.77 96.04 68.1 97.98 69.12 94.85 66.45 92.91 69.75 92.91 70.77 89.78"/><polygon class="cls-14" points="82.53 89.78 83.55 92.91 86.84 92.91 84.18 94.85 85.19 97.98 82.53 96.04 79.87 97.98 80.88 94.85 78.22 92.91 81.51 92.91 82.53 89.78"/></g></g></g></svg>