<svg xmlns="http://www.w3.org/2000/svg" viewBox="0 0 62.78 53.88"><defs><style>.cls-1{fill:#ffd3ae;}.cls-2{fill:none;stroke:#102f3a;stroke-linecap:round;stroke-linejoin:round;}.cls-3{fill:#102f3a;}.cls-4{fill:#fff;}</style></defs><g id="Layer_2" data-name="Layer 2"><g id="Layer_1-2" data-name="Layer 1"><path class="cls-1" d="M62.28,25.5H.5L26,13.9a12.42,12.42,0,0,0,4.21,3.88,2.21,2.21,0,0,0,2.25,0c1.84-1.08,5.31-3.64,5.31-7.55a5.12,5.12,0,0,0-.23-1.59l6.7-3.06A22.41,22.41,0,0,1,62.28,25.5Z"/><path class="cls-2" d="M62.28,25.5H.5L26,13.9a12.42,12.42,0,0,0,4.21,3.88,2.21,2.21,0,0,0,2.25,0c1.84-1.08,5.31-3.64,5.31-7.55a5.12,5.12,0,0,0-.23-1.59l6.7-3.06A22.41,22.41,0,0,1,62.28,25.5Z"/><path class="cls-1" d="M62.28,25.5v5.11c-3.86,0-3.86,6-7.72,6s-3.87-6-7.73-6-3.86,6-7.72,6-3.86-6-7.73-6-3.86,6-7.72,6-3.86-6-7.72-6-3.86,6-7.72,6-3.86-6-7.72-6V25.5Z"/><path class="cls-2" d="M62.28,25.5v5.11c-3.86,0-3.86,6-7.72,6s-3.87-6-7.73-6-3.86,6-7.72,6-3.86-6-7.73-6-3.86,6-7.72,6-3.86-6-7.72-6-3.86,6-7.72,6-3.86-6-7.72-6V25.5Z"/><path class="cls-1" d="M62.28,39.63V53.38H.5V39.63c3.86,0,3.86,6,7.72,6s3.86-6,7.72-6,3.86,6,7.72,6,3.86-6,7.72-6,3.87,6,7.73,6,3.86-6,7.72-6,3.86,6,7.73,6S58.42,39.63,62.28,39.63Z"/><path class="cls-2" d="M62.28,39.63V53.38H.5V39.63c3.86,0,3.86,6,7.72,6s3.86-6,7.72-6,3.86,6,7.72,6,3.86-6,7.72-6,3.87,6,7.73,6,3.86-6,7.72-6,3.86,6,7.73,6S58.42,39.63,62.28,39.63Z"/><path class="cls-2" d="M62.28,30.61v9c-3.86,0-3.86,6-7.72,6s-3.87-6-7.73-6-3.86,6-7.72,6-3.86-6-7.73-6-3.86,6-7.72,6-3.86-6-7.72-6-3.86,6-7.72,6-3.86-6-7.72-6v-9c3.86,0,3.86,6,7.72,6s3.86-6,7.72-6,3.86,6,7.72,6,3.86-6,7.72-6,3.87,6,7.73,6,3.86-6,7.72-6,3.86,6,7.73,6S58.42,30.61,62.28,30.61Z"/><circle class="cls-3" cx="8.23" cy="48.48" r="1.01"/><circle class="cls-3" cx="23.84" cy="48.48" r="1.01"/><circle class="cls-3" cx="39.44" cy="48.48" r="1.01"/><circle class="cls-3" cx="55.05" cy="48.48" r="1.01"/><path class="cls-4" d="M37.72,10.23c0,3.91-3.47,6.47-5.31,7.55a2.21,2.21,0,0,1-2.25,0A12.42,12.42,0,0,1,26,13.9a6.9,6.9,0,0,1-1.1-3.67c0-5.33,6.43-4.77,6.43-4.77S36.34,5,37.49,8.64A5.12,5.12,0,0,1,37.72,10.23Z"/><path class="cls-2" d="M31.28,5.45s6.44-.56,6.44,4.77c0,3.92-3.47,6.47-5.31,7.55a2.21,2.21,0,0,1-2.25,0c-1.84-1.08-5.31-3.63-5.31-7.55C24.85,4.89,31.28,5.45,31.28,5.45Z"/><path class="cls-2" d="M31.28,5.45S30.6.5,35.19.5"/></g></g></svg>