<svg xmlns="http://www.w3.org/2000/svg" viewBox="0 0 62.83 63.32"><defs><style>.cls-1{fill:none;stroke:#102f3a;stroke-linecap:round;stroke-linejoin:round;}.cls-2{fill:#ffd3ae;}.cls-3{fill:#fff;}.cls-4{fill:#102f3a;}</style></defs><g id="Layer_2" data-name="Layer 2"><g id="Layer_1-2" data-name="Layer 1"><line class="cls-1" x1="61.67" y1="62.82" x2="52.52" y2="62.82"/><polyline class="cls-1" points="34.52 62.81 9.4 62.81 1.16 62.81"/><rect class="cls-2" x="22.08" y="12.39" width="40.25" height="5.45" rx="2.72"/><rect class="cls-1" x="22.08" y="12.39" width="40.25" height="5.45" rx="2.72"/><path class="cls-1" d="M45.58.5a5.7,5.7,0,0,0-5.7,5.69v6.2h4.58V7.12a2,2,0,0,1,2-2h8.36a2.28,2.28,0,0,0,2.29-2.29h0A2.29,2.29,0,0,0,54.86.5Z"/><path class="cls-2" d="M59.72,25.19l-1.9,27.9H42.45a3.28,3.28,0,0,0-2.39-5.51h-.91V43.24a3.4,3.4,0,0,0,2.59-4.4A20.4,20.4,0,0,0,24.56,25.22v0Z"/><path class="cls-1" d="M59.72,25.19l-1.9,27.9H42.45a3.28,3.28,0,0,0-2.39-5.51h-.91V43.24a3.4,3.4,0,0,0,2.59-4.4A20.4,20.4,0,0,0,24.56,25.22v0Z"/><path class="cls-1" d="M57.82,53.09l-.35,5.1a5,5,0,0,1-4.95,4.62h-18a5.61,5.61,0,0,0,5.62-5.62v-3a3.27,3.27,0,0,0,2.23-1l.08-.09Z"/><polyline class="cls-1" points="24.55 25.19 24.05 17.83 60.22 17.83 59.72 25.19"/><circle class="cls-3" cx="51.81" cy="32.8" r="3.36"/><path class="cls-3" d="M44.4,34.84a3.22,3.22,0,0,1-2.94,3.21,19.69,19.69,0,0,0-2.9-5.11,3.23,3.23,0,0,1,5.84,1.9Z"/><circle class="cls-3" cx="48.66" cy="45.69" r="2.39"/><circle class="cls-1" cx="51.81" cy="32.8" r="3.36"/><path class="cls-1" d="M44.4,34.84a3.22,3.22,0,0,1-2.94,3.21,19.69,19.69,0,0,0-2.9-5.11,3.23,3.23,0,0,1,5.84,1.9Z"/><circle class="cls-1" cx="48.66" cy="45.69" r="2.39"/><path class="cls-2" d="M39.15,43.24a3.28,3.28,0,0,1-.63.06H5.64a3.4,3.4,0,0,1-3.22-4.46A20.53,20.53,0,0,1,22.08,25.08a20.39,20.39,0,0,1,2.48.14,20.79,20.79,0,0,1,14,7.72,19.69,19.69,0,0,1,2.9,5.11c.1.26.19.52.28.79A3.4,3.4,0,0,1,39.15,43.24Z"/><path class="cls-1" d="M39.15,43.24a3.28,3.28,0,0,1-.63.06H5.64a3.4,3.4,0,0,1-3.22-4.46A20.53,20.53,0,0,1,22.08,25.08a20.39,20.39,0,0,1,2.48.14,20.79,20.79,0,0,1,14,7.72,19.69,19.69,0,0,1,2.9,5.11c.1.26.19.52.28.79A3.4,3.4,0,0,1,39.15,43.24Z"/><path class="cls-2" d="M14.06,54.14H3.78a3.27,3.27,0,0,1-2.32-5.59,3.23,3.23,0,0,1,2.32-1H7.71Z"/><path class="cls-2" d="M43.34,50.86a3.27,3.27,0,0,1-1,2.32,3.31,3.31,0,0,1-2.32,1H17.4l6.65-6.55h16A3.27,3.27,0,0,1,43.34,50.86Z"/><path class="cls-1" d="M14.06,54.14H3.78a3.27,3.27,0,0,1-2.32-5.59,3.23,3.23,0,0,1,2.32-1H7.71Z"/><path class="cls-2" d="M40.15,54.14v3a5.63,5.63,0,0,1-5.63,5.63H9.4a5.62,5.62,0,0,1-5.62-5.63v-3Z"/><path class="cls-1" d="M43.34,50.86a3.27,3.27,0,0,1-1,2.32,3.31,3.31,0,0,1-2.32,1H17.4l6.65-6.55h16A3.27,3.27,0,0,1,43.34,50.86Z"/><polyline class="cls-1" points="14.06 54.14 15.69 55.82 17.4 54.14"/><line class="cls-1" x1="4.8" y1="43.2" x2="4.8" y2="47.59"/><line class="cls-1" x1="39.15" y1="43.24" x2="39.15" y2="43.2"/><path class="cls-1" d="M40.15,54.14v3a5.63,5.63,0,0,1-5.63,5.63H9.4a5.62,5.62,0,0,1-5.62-5.63v-3Z"/><line class="cls-1" x1="42.45" y1="53.09" x2="42.37" y2="53.09"/><ellipse class="cls-2" cx="10.96" cy="18.15" rx="5.28" ry="3.69" transform="translate(-9.05 11.14) rotate(-39.57)"/><ellipse class="cls-1" cx="10.96" cy="18.15" rx="5.28" ry="3.69" transform="translate(-9.05 11.14) rotate(-39.57)"/><line class="cls-1" x1="13.16" y1="21.15" x2="19.82" y2="29.62"/><line class="cls-1" x1="7.27" y1="13.32" x2="9.94" y2="16.87"/><circle class="cls-4" cx="25.14" cy="29.49" r="1.15"/><circle class="cls-4" cx="16.63" cy="34.83" r="1.15"/><circle class="cls-4" cx="14.52" cy="30.63" r="1.15"/><circle class="cls-4" cx="10.23" cy="33.83" r="1.15"/><circle class="cls-4" cx="12.38" cy="38.05" r="1.15"/><circle class="cls-4" cx="7.04" cy="39.2" r="1.15"/></g></g></svg>