<svg xmlns="http://www.w3.org/2000/svg" viewBox="0 0 84.9 57.91"><defs><style>.cls-1{fill:none;stroke:#102f3a;stroke-linecap:round;stroke-linejoin:round;}.cls-2{fill:#ffd3ae;}.cls-3{fill:#fff;}</style></defs><g id="Layer_2" data-name="Layer 2"><g id="Layer_1-2" data-name="Layer 1"><path class="cls-1" d="M38.2,8.69a8.19,8.19,0,0,1-16,2.45,7.9,7.9,0,0,1-.37-2.45,8.19,8.19,0,0,1,16.38,0Z"/><path class="cls-1" d="M62.75,8.69a8.54,8.54,0,0,1-.37,2.45,8.21,8.21,0,0,1-15.66,0,8.54,8.54,0,0,1-.36-2.45,8.2,8.2,0,0,1,16.39,0Z"/><path class="cls-2" d="M24.54,16.89H35.87a3.75,3.75,0,0,1,3.75,3.75v1.48a0,0,0,0,1,0,0H20.79a0,0,0,0,1,0,0V20.64A3.75,3.75,0,0,1,24.54,16.89Z"/><path class="cls-1" d="M24.54,16.89H35.87a3.75,3.75,0,0,1,3.75,3.75v1.48a0,0,0,0,1,0,0H20.79a0,0,0,0,1,0,0V20.64A3.75,3.75,0,0,1,24.54,16.89Z"/><polygon class="cls-2" points="84.4 36.2 0.5 36.2 11.47 22.12 73.43 22.12 84.4 36.2"/><polygon class="cls-1" points="84.4 36.2 0.5 36.2 11.47 22.12 73.43 22.12 84.4 36.2"/><path class="cls-2" d="M49.15,16.89H60.48a3.75,3.75,0,0,1,3.75,3.75v1.48a0,0,0,0,1,0,0H45.4a0,0,0,0,1,0,0V20.64A3.75,3.75,0,0,1,49.15,16.89Z"/><path class="cls-1" d="M49.15,16.89H60.48a3.75,3.75,0,0,1,3.75,3.75v1.48a0,0,0,0,1,0,0H45.4a0,0,0,0,1,0,0V20.64A3.75,3.75,0,0,1,49.15,16.89Z"/><rect class="cls-1" x="3.51" y="36.2" width="2.35" height="21.21"/><rect class="cls-1" x="14.68" y="36.2" width="2.35" height="12.47"/><rect class="cls-1" x="78.81" y="36.2" width="2.35" height="21.21" transform="translate(159.97 93.61) rotate(-180)"/><rect class="cls-1" x="67.64" y="36.2" width="2.35" height="12.47" transform="translate(137.63 84.87) rotate(-180)"/><ellipse class="cls-3" cx="30.01" cy="26.76" rx="8.33" ry="1.6"/><ellipse class="cls-3" cx="55.9" cy="26.76" rx="8.33" ry="1.6"/><ellipse class="cls-1" cx="30.01" cy="26.76" rx="8.33" ry="1.6"/><ellipse class="cls-1" cx="55.9" cy="26.76" rx="8.33" ry="1.6"/><line class="cls-1" x1="40.01" y1="23.65" x2="40.51" y2="28.43"/><line class="cls-1" x1="20.02" y1="23.65" x2="18.93" y2="28.72"/><ellipse class="cls-1" cx="18.59" cy="30.14" rx="1.43" ry="1.04" transform="translate(-14.48 42.8) rotate(-79.29)"/><path class="cls-1" d="M39.2,31,39,29.06a.52.52,0,0,1,.46-.55l2-.16a.49.49,0,0,1,.54.46l.16,1.9"/><line class="cls-1" x1="40.51" y1="28.43" x2="40.71" y2="30.83"/></g></g></svg>