<svg xmlns="http://www.w3.org/2000/svg" viewBox="0 0 62.95 63.3"><defs><style>.cls-1{fill:none;stroke:#102f3a;stroke-linecap:round;stroke-linejoin:round;}.cls-2{fill:#ffd3ae;}</style></defs><g id="Layer_2" data-name="Layer 2"><g id="Layer_1-2" data-name="Layer 1"><path class="cls-1" d="M35.24,25.69H60.5a2,2,0,0,1,2,2v4.53a2,2,0,0,1-2,2h-58a2,2,0,0,1-2-2V27.65a2,2,0,0,1,2-2H29"/><path class="cls-2" d="M56.79,3.07A2.58,2.58,0,0,1,56,4.89L45.39,15.53,35.24,25.69,33.42,27.5A2.57,2.57,0,0,1,29,25.69h0a2.57,2.57,0,0,1,.75-1.82L52.39,1.25a2.58,2.58,0,0,1,3.64,0A2.61,2.61,0,0,1,56.79,3.07Z"/><path class="cls-1" d="M56.79,3.07A2.58,2.58,0,0,1,56,4.89L45.39,15.53,35.24,25.69,33.42,27.5A2.57,2.57,0,0,1,29,25.69h0a2.57,2.57,0,0,1,.75-1.82L52.39,1.25a2.58,2.58,0,0,1,3.64,0A2.61,2.61,0,0,1,56.79,3.07Z"/><path class="cls-2" d="M34,9.88v9.76l-4.22,4.22A2.57,2.57,0,0,0,29,25.68H28.5A11.57,11.57,0,0,0,28,23.05a11.13,11.13,0,0,0-6.57-6.81V9.88A1.86,1.86,0,0,1,23.25,8h8.89A1.86,1.86,0,0,1,34,9.88Z"/><path class="cls-1" d="M34,9.88v9.76l-4.22,4.22A2.57,2.57,0,0,0,29,25.68H28.5A11.57,11.57,0,0,0,28,23.05a11.13,11.13,0,0,0-6.57-6.81V9.88A1.86,1.86,0,0,1,23.25,8h8.89A1.86,1.86,0,0,1,34,9.88Z"/><path class="cls-1" d="M54.07,17.4v8.29H35.24L45.39,15.53h6.82A1.87,1.87,0,0,1,54.07,17.4Z"/><path class="cls-1" d="M28.5,25.69h-22A11.05,11.05,0,0,1,28,23.05,11.57,11.57,0,0,1,28.5,25.69Z"/><path class="cls-2" d="M53.44,62.8H9.51a1.86,1.86,0,0,1-1.83-1.53L2.86,34.13H60.1L55.27,61.27A1.86,1.86,0,0,1,53.44,62.8Z"/><path class="cls-1" d="M53.44,62.8H9.51a1.86,1.86,0,0,1-1.83-1.53L2.86,34.13H60.1L55.27,61.27A1.86,1.86,0,0,1,53.44,62.8Z"/><line class="cls-1" x1="16.04" y1="41.74" x2="16.04" y2="54.73"/><line class="cls-1" x1="23.76" y1="41.74" x2="23.76" y2="54.73"/><line class="cls-1" x1="31.48" y1="41.74" x2="31.48" y2="54.73"/><line class="cls-1" x1="39.19" y1="41.74" x2="39.19" y2="54.73"/><line class="cls-1" x1="46.91" y1="41.74" x2="46.91" y2="54.73"/></g></g></svg>