<svg xmlns="http://www.w3.org/2000/svg" viewBox="0 0 62.69 63.09"><defs><style>.cls-1{fill:#ffd3ae;}.cls-2{fill:none;stroke:#102f3a;stroke-linecap:round;stroke-linejoin:round;}</style></defs><g id="Layer_2" data-name="Layer 2"><g id="Layer_1-2" data-name="Layer 1"><path class="cls-1" d="M31.43,35.41H4.25a27.19,27.19,0,1,1,54.37,0Z"/><path class="cls-2" d="M31.43,35.41H4.25a27.19,27.19,0,1,1,54.37,0Z"/><circle class="cls-2" cx="31.43" cy="4.36" r="3.86"/><line class="cls-2" x1="0.5" y1="35.41" x2="62.19" y2="35.41"/><path class="cls-1" d="M57.55,49.54l-13,13.05H12.37V47.15s8-10.43,18.52-.52a1.91,1.91,0,0,0,1.32.52H39.4a3.86,3.86,0,0,1,3.12,6.13l9.39-9.38a4,4,0,0,1,5.64,5.64Z"/><rect class="cls-2" x="4.25" y="47.15" width="8.12" height="15.44"/><path class="cls-2" d="M28,56.43l.7-.7a2.94,2.94,0,0,1,2.08-.86H39.4a3.86,3.86,0,0,0,2.73-1.13,4.31,4.31,0,0,0,.39-.46"/><path class="cls-2" d="M57.55,49.54l-13,13.05H12.37V47.15s8-10.43,18.52-.52a1.91,1.91,0,0,0,1.32.52H39.4a3.86,3.86,0,0,1,3.12,6.13l9.39-9.38a4,4,0,0,1,5.64,5.64Z"/><line class="cls-2" x1="42.52" y1="53.28" x2="42.14" y2="53.66"/></g></g></svg>