<svg xmlns="http://www.w3.org/2000/svg" viewBox="0 0 45.71 62.83"><defs><style>.cls-1{fill:#ffd3ae;}.cls-2{fill:none;stroke:#102f3a;stroke-linecap:round;stroke-linejoin:round;}</style></defs><g id="Layer_2" data-name="Layer 2"><g id="Layer_1-2" data-name="Layer 1"><path class="cls-1" d="M45.21,30.65c0,11.7-8.58,23.22-12.74,25.21H13.23C9.08,53.87.5,42.35.5,30.65S13.23,13.23,13.23,13.23H32.47S45.21,19,45.21,30.65Z"/><path class="cls-2" d="M45.21,30.65c0,11.7-8.58,23.22-12.74,25.21H13.23C9.08,53.87.5,42.35.5,30.65S13.23,13.23,13.23,13.23H32.47S45.21,19,45.21,30.65Z"/><path class="cls-2" d="M36.68,4.79s-4.21,3.59-4.21,8.44H13.23C13.23,8.38,9,4.79,9,4.79Z"/><path class="cls-1" d="M38.64,2.27V3a1.78,1.78,0,0,1-1.77,1.78H8.9A1.78,1.78,0,0,1,7.13,3V2.27A1.77,1.77,0,0,1,8.9.5h28A1.77,1.77,0,0,1,38.64,2.27Z"/><path class="cls-2" d="M38.64,2.27V3a1.78,1.78,0,0,1-1.77,1.78H8.9A1.78,1.78,0,0,1,7.13,3V2.27A1.77,1.77,0,0,1,8.9.5h28A1.77,1.77,0,0,1,38.64,2.27Z"/><line class="cls-2" x1="17.74" y1="8.99" x2="28.18" y2="8.99"/><line class="cls-2" x1="5.69" y1="18.69" x2="17.28" y2="18.69"/><line class="cls-2" x1="22.07" y1="18.69" x2="40.01" y2="18.69"/><path class="cls-2" d="M2,23.87c3.51,0,3.38,5,6.89,5s3.51-5,7-5,3.51,5,7,5,3.5-5,7-5,3.51,5,7,5,3.17-5,6.68-5"/><path class="cls-2" d="M.71,33.27c3.71,0,3.71,5,7.41,5s3.71-5,7.42-5,3.71,5,7.42,5,3.71-5,7.41-5,3.71,5,7.42,5,3.57-5,7.28-5"/><line class="cls-2" x1="3.44" y1="43.26" x2="24.15" y2="43.26"/><line class="cls-2" x1="28.4" y1="43.26" x2="42.27" y2="43.26"/><path class="cls-2" d="M38.77,60.4v.83a1.1,1.1,0,0,1-1.1,1.1H8a1.11,1.11,0,0,1-1.11-1.1V60.4a2.4,2.4,0,0,1,1.36-2.17l4.94-2.37H32.47l4.94,2.37A2.4,2.4,0,0,1,38.77,60.4Z"/></g></g></svg>