<svg xmlns="http://www.w3.org/2000/svg" viewBox="0 0 63.21 58.56"><defs><style>.cls-1{fill:#ffd3ae;}.cls-2{fill:none;stroke:#102f3a;stroke-linecap:round;stroke-linejoin:round;}</style></defs><g id="Layer_2" data-name="Layer 2"><g id="Layer_1-2" data-name="Layer 1"><path class="cls-1" d="M62.71,32v2.36A17.17,17.17,0,0,0,45.54,51.51H43.17A17.17,17.17,0,0,0,26,34.34V32A17.17,17.17,0,0,0,43.17,14.81h2.37A17.17,17.17,0,0,0,62.71,32Z"/><path class="cls-2" d="M62.71,32v2.36A17.17,17.17,0,0,0,45.54,51.51H43.17A17.17,17.17,0,0,0,26,34.34V32A17.17,17.17,0,0,0,43.17,14.81h2.37A17.17,17.17,0,0,0,62.71,32Z"/><path class="cls-1" d="M20.81,47.25v1.31a9.51,9.51,0,0,0-9.5,9.5H10a9.5,9.5,0,0,0-9.5-9.5V47.25a9.5,9.5,0,0,0,9.5-9.5h1.31A9.5,9.5,0,0,0,20.81,47.25Z"/><path class="cls-2" d="M20.81,47.25v1.31a9.51,9.51,0,0,0-9.5,9.5H10a9.5,9.5,0,0,0-9.5-9.5V47.25a9.5,9.5,0,0,0,9.5-9.5h1.31A9.5,9.5,0,0,0,20.81,47.25Z"/><path class="cls-2" d="M30.79,10.41v1.36a9.92,9.92,0,0,0-9.91,9.92H19.52a9.92,9.92,0,0,0-9.91-9.92V10.41A9.91,9.91,0,0,0,19.52.5h1.36A9.91,9.91,0,0,0,30.79,10.41Z"/></g></g></svg>