<svg xmlns="http://www.w3.org/2000/svg" viewBox="0 0 60.66 60.6"><defs><style>.cls-1{fill:#ffd3ae;}.cls-2{fill:none;stroke:#102f3a;stroke-linecap:round;stroke-linejoin:round;}</style></defs><g id="Layer_2" data-name="Layer 2"><g id="Layer_1-2" data-name="Layer 1"><polygon class="cls-1" points="16.92 43.68 0.5 60.1 15.98 60.1 16.92 43.68"/><polygon class="cls-2" points="16.92 43.68 0.5 60.1 15.98 60.1 16.92 43.68"/><polygon class="cls-2" points="16.92 43.68 18.48 21 36.28 41.24 15.98 60.1 16.92 43.68"/><polygon class="cls-1" points="36.28 41.24 0.5 0.5 17.61 0.5 46.15 32.21 36.28 41.24"/><polygon class="cls-2" points="36.28 41.24 0.5 0.5 17.61 0.5 46.15 32.21 36.28 41.24"/><polyline class="cls-2" points="31.19 15.59 46.15 7.61 46.15 32.21"/><polygon class="cls-1" points="46.15 7.61 60.16 18.14 46.15 19.6 46.15 7.61"/><polygon class="cls-2" points="46.15 7.61 60.16 18.14 46.15 19.6 46.15 7.61"/></g></g></svg>