<svg xmlns="http://www.w3.org/2000/svg" viewBox="0 0 63.58 63.5"><defs><style>.cls-1{fill:none;stroke:#102f3a;stroke-linecap:round;stroke-linejoin:round;}.cls-2{fill:#ffd3ae;}</style></defs><g id="Layer_2" data-name="Layer 2"><g id="Layer_1-2" data-name="Layer 1"><path class="cls-1" d="M13.3,12.82c0,.15,0,.31,0,.46h0A3.54,3.54,0,0,0,13.3,12.82Z"/><path class="cls-1" d="M50.3,13.28h0a3.54,3.54,0,0,0,0-.46C50.28,13,50.29,13.13,50.3,13.28Z"/><path class="cls-2" d="M.6,14.49a5.29,5.29,0,0,0,5.15,4.43H7.22a6.1,6.1,0,0,0,6.06-5.64l0-.24,0,.24a6.11,6.11,0,0,0,12.18,0l.1-1.36.1,1.36a6.11,6.11,0,0,0,12.18,0l.1-1.34.1,1.34a6.11,6.11,0,0,0,12.18,0l0-.24,0,.24a6.11,6.11,0,0,0,6.07,5.64h1.46a5.46,5.46,0,0,0,4.67-8L57.36.5H6.23L1.08,11A5.54,5.54,0,0,0,.6,14.49Z"/><path class="cls-1" d="M.6,14.49a5.29,5.29,0,0,0,5.15,4.43H7.22a6.1,6.1,0,0,0,6.06-5.64l0-.24,0,.24a6.11,6.11,0,0,0,12.18,0l.1-1.36.1,1.36a6.11,6.11,0,0,0,12.18,0l.1-1.34.1,1.34a6.11,6.11,0,0,0,12.18,0l0-.24,0,.24a6.11,6.11,0,0,0,6.07,5.64h1.46a5.46,5.46,0,0,0,4.67-8L57.36.5H6.23L1.08,11A5.54,5.54,0,0,0,.6,14.49Z"/><polyline class="cls-1" points="58.72 18.81 58.72 63 4.68 63 4.68 18.81"/><line class="cls-1" x1="0.95" y1="63" x2="62.01" y2="63"/><path class="cls-2" d="M42.51,31.69l-.59.59a6.64,6.64,0,0,0-2.31-.08,7,7,0,0,0,.1-2.09l.61-.61a1.55,1.55,0,0,1,2.19,2.19Z"/><path class="cls-2" d="M46.88,35.64l-6.5,6.5a9,9,0,0,1-10.65,1.54l8-8a6.83,6.83,0,0,0,1.88-3.48,6.64,6.64,0,0,1,2.31.08,6.81,6.81,0,0,1,3.46,1.86Z"/><path class="cls-2" d="M37.73,35.68l-8,8a9,9,0,0,1,0-12.71l6.5-6.5L37.73,26a6.83,6.83,0,0,1,2,4.14,7,7,0,0,1-.1,2.09A6.83,6.83,0,0,1,37.73,35.68Z"/><line class="cls-2" x1="16.08" y1="57.34" x2="29.73" y2="43.68"/><path class="cls-2" d="M25.52,56.17c-2.54,0-4.18-.83-4.18-2.91s1.64-2.9,4.18-2.9,5.63,2.9,5.63,2.9S28.07,56.17,25.52,56.17Z"/><path class="cls-1" d="M42.51,31.69l-.59.59a6.64,6.64,0,0,0-2.31-.08,7,7,0,0,0,.1-2.09l.61-.61a1.55,1.55,0,0,1,2.19,2.19Z"/><path class="cls-1" d="M46.88,35.64l-6.5,6.5a9,9,0,0,1-10.65,1.54l8-8a6.83,6.83,0,0,0,1.88-3.48,6.64,6.64,0,0,1,2.31.08,6.81,6.81,0,0,1,3.46,1.86Z"/><path class="cls-1" d="M37.73,35.68l-8,8a9,9,0,0,1,0-12.71l6.5-6.5L37.73,26a6.83,6.83,0,0,1,2,4.14,7,7,0,0,1-.1,2.09A6.83,6.83,0,0,1,37.73,35.68Z"/><line class="cls-1" x1="16.08" y1="57.34" x2="29.73" y2="43.68"/><path class="cls-1" d="M25.52,56.17c-2.54,0-4.18-.83-4.18-2.91s1.64-2.9,4.18-2.9,5.63,2.9,5.63,2.9S28.07,56.17,25.52,56.17Z"/></g></g></svg>