<svg xmlns="http://www.w3.org/2000/svg" viewBox="0 0 64 64.83"><defs><style>.cls-1{fill:#ffd3ae;}.cls-2{fill:none;stroke:#102f3a;stroke-linecap:round;stroke-linejoin:round;stroke-width:1.5px;}</style></defs><g id="Layer_2" data-name="Layer 2"><g id="Layer_1-2" data-name="Layer 1"><path class="cls-1" d="M62.36,28.22a4.81,4.81,0,0,1-6.71,1.14L32,12.55,8.35,29.36a4.82,4.82,0,0,1-5.58-7.85L23.69,6.65,32,.75l8.31,5.9L61.23,21.51A4.82,4.82,0,0,1,62.36,28.22Z"/><path class="cls-2" d="M62.36,28.22a4.81,4.81,0,0,1-6.71,1.14L32,12.55,8.35,29.36a4.82,4.82,0,0,1-5.58-7.85L23.69,6.65,32,.75l8.31,5.9L61.23,21.51A4.82,4.82,0,0,1,62.36,28.22Z"/><path class="cls-2" d="M32,12.55,12.55,26.38v16a8.14,8.14,0,0,1,3.66,1.15A10,10,0,0,1,20,49.14c0-.08.05-.17.08-.27a9.87,9.87,0,0,1,3.7-5.32c3-1.89,7-1,7-1s-.86,4-3.85,5.89c-2.64,1.68-6.05,1.15-6.82,1v5.71h23.6V49.48l-.08,0c-.56.11-4.14.75-6.89-1-3-1.89-3.85-5.89-3.85-5.89s4-.92,7,1a10,10,0,0,1,3.77,5.59c0-.07.05-.16.08-.26a9.87,9.87,0,0,1,3.7-5.33,8.27,8.27,0,0,1,4.06-1.18v-16ZM20.06,42.35s-3.14-2.87-3.14-6.41,3.14-6.4,3.14-6.4,3.14,2.86,3.14,6.4S20.06,42.35,20.06,42.35Zm23.6,0s-3.14-2.87-3.14-6.41,3.14-6.4,3.14-6.4,3.15,2.86,3.15,6.4S43.66,42.35,43.66,42.35Z"/><polyline class="cls-2" points="12.54 48.09 12.54 55.19 20.06 55.19"/><polyline class="cls-2" points="51.42 47.75 51.42 55.19 43.66 55.19"/><path class="cls-1" d="M23.2,35.94c0,3.54-3.14,6.41-3.14,6.41s-3.14-2.87-3.14-6.41,3.14-6.4,3.14-6.4S23.2,32.4,23.2,35.94Z"/><path class="cls-1" d="M30.73,42.58s-.86,4-3.85,5.89c-2.64,1.68-6.05,1.15-6.82,1l-.08,0-.07,0s0-.11.07-.3.05-.17.08-.27a9.87,9.87,0,0,1,3.7-5.32C26.75,41.66,30.73,42.58,30.73,42.58Z"/><path class="cls-1" d="M20.06,49.44l-.08,0c-.57.12-4.15.75-6.89-1-.19-.12-.37-.25-.54-.38a10.66,10.66,0,0,1-3.31-5.51,11.76,11.76,0,0,1,3.31-.18,8.14,8.14,0,0,1,3.66,1.15A10,10,0,0,1,20,49.14,2.74,2.74,0,0,1,20.06,49.44Z"/><path class="cls-1" d="M46.81,35.94c0,3.54-3.15,6.41-3.15,6.41s-3.14-2.87-3.14-6.41,3.14-6.4,3.14-6.4S46.81,32.4,46.81,35.94Z"/><path class="cls-1" d="M54.33,42.58a10.93,10.93,0,0,1-2.91,5.17,6.86,6.86,0,0,1-.94.72c-2.64,1.68-6.06,1.15-6.82,1l-.08,0-.07,0s0-.11.07-.3.05-.16.08-.26a9.87,9.87,0,0,1,3.7-5.33,8.27,8.27,0,0,1,4.06-1.18A11.8,11.8,0,0,1,54.33,42.58Z"/><path class="cls-1" d="M43.66,49.44l-.08,0c-.56.11-4.14.75-6.89-1-3-1.89-3.85-5.89-3.85-5.89s4-.92,7,1a10,10,0,0,1,3.77,5.59A2.74,2.74,0,0,1,43.66,49.44Z"/><path class="cls-2" d="M23.2,35.94c0,3.54-3.14,6.41-3.14,6.41s-3.14-2.87-3.14-6.41,3.14-6.4,3.14-6.4S23.2,32.4,23.2,35.94Z"/><path class="cls-2" d="M30.73,42.58s-.86,4-3.85,5.89c-2.64,1.68-6.05,1.15-6.82,1l-.08,0-.07,0s0-.11.07-.3.05-.17.08-.27a9.87,9.87,0,0,1,3.7-5.32C26.75,41.66,30.73,42.58,30.73,42.58Z"/><path class="cls-2" d="M20.06,49.44l-.08,0c-.57.12-4.15.75-6.89-1-.19-.12-.37-.25-.54-.38a10.66,10.66,0,0,1-3.31-5.51,11.76,11.76,0,0,1,3.31-.18,8.14,8.14,0,0,1,3.66,1.15A10,10,0,0,1,20,49.14,2.74,2.74,0,0,1,20.06,49.44Z"/><line class="cls-2" x1="20.06" y1="58.54" x2="20.06" y2="55.19"/><polyline class="cls-2" points="20.06 49.48 20.06 49.44 20.06 48.87 20.06 42.35 20.06 36.8"/><path class="cls-1" d="M27.06,64.08h-14a7.19,7.19,0,0,1,14,0Z"/><path class="cls-1" d="M50.66,64.08h-14a7.19,7.19,0,0,1,14,0Z"/><path class="cls-2" d="M27.06,64.08h-14a7.19,7.19,0,0,1,14,0Z"/><path class="cls-2" d="M46.81,35.94c0,3.54-3.15,6.41-3.15,6.41s-3.14-2.87-3.14-6.41,3.14-6.4,3.14-6.4S46.81,32.4,46.81,35.94Z"/><path class="cls-2" d="M54.33,42.58a10.93,10.93,0,0,1-2.91,5.17,6.86,6.86,0,0,1-.94.72c-2.64,1.68-6.06,1.15-6.82,1l-.08,0-.07,0s0-.11.07-.3.05-.16.08-.26a9.87,9.87,0,0,1,3.7-5.33,8.27,8.27,0,0,1,4.06-1.18A11.8,11.8,0,0,1,54.33,42.58Z"/><path class="cls-2" d="M43.66,49.44l-.08,0c-.56.11-4.14.75-6.89-1-3-1.89-3.85-5.89-3.85-5.89s4-.92,7,1a10,10,0,0,1,3.77,5.59A2.74,2.74,0,0,1,43.66,49.44Z"/><line class="cls-2" x1="43.66" y1="58.54" x2="43.66" y2="55.19"/><polyline class="cls-2" points="43.66 49.48 43.66 49.44 43.66 48.88 43.66 42.35 43.66 36.8"/><path class="cls-2" d="M50.66,64.08h-14a7.19,7.19,0,0,1,14,0Z"/></g></g></svg>