<svg xmlns="http://www.w3.org/2000/svg" viewBox="0 0 55.82 63.01"><defs><style>.cls-1{fill:none;}.cls-1,.cls-2{stroke:#102f3a;stroke-linecap:round;stroke-linejoin:round;}.cls-2{fill:#ffd3ae;}</style></defs><g id="Layer_2" data-name="Layer 2"><g id="Layer_1-2" data-name="Layer 1"><rect class="cls-1" x="5.42" y="16.62" width="45.77" height="15.91" rx="2.11"/><path class="cls-2" d="M37.92,1.73V16.62H7.53a2.11,2.11,0,0,0-2.11,2.11v4.75H1.73A1.24,1.24,0,0,1,.5,22.24V1.73A1.23,1.23,0,0,1,1.73.5h35A1.23,1.23,0,0,1,37.92,1.73Z"/><path class="cls-1" d="M37.92,1.73V16.62H7.53a2.11,2.11,0,0,0-2.11,2.11v4.75H1.73A1.24,1.24,0,0,1,.5,22.24V1.73A1.23,1.23,0,0,1,1.73.5h35A1.23,1.23,0,0,1,37.92,1.73Z"/><path class="cls-2" d="M15.77,23.46a1.67,1.67,0,0,1-1.67,1.67H13a2.77,2.77,0,0,1-2.76-2.76V16.62h5.52"/><path class="cls-2" d="M15.77,23.46V25.3a3.46,3.46,0,0,0,6.91,0V22.69h9.8a2.05,2.05,0,0,0,2.06-2.05v-.51a2.56,2.56,0,0,0,2.55,2.56H38A1.07,1.07,0,0,0,39,21.62v.22a3.46,3.46,0,0,0,6.91,0V16.62H15.77"/><path class="cls-1" d="M15.77,23.46a1.67,1.67,0,0,1-1.67,1.67H13a2.77,2.77,0,0,1-2.76-2.76V16.62h5.52"/><path class="cls-1" d="M15.77,23.46V25.3a3.46,3.46,0,0,0,6.91,0V22.69h9.8a2.05,2.05,0,0,0,2.06-2.05v-.51a2.56,2.56,0,0,0,2.55,2.56H38A1.07,1.07,0,0,0,39,21.62v.22a3.46,3.46,0,0,0,6.91,0V16.62H15.77"/><path class="cls-1" d="M51.19,24.58H52.5a2.81,2.81,0,0,1,2.82,2.81v4.73a2.82,2.82,0,0,1-2.42,2.79L31.21,38a3.37,3.37,0,0,0-2.9,3.35v.54"/><path class="cls-2" d="M31.62,41.92H24.81a1,1,0,0,0-1,1v2.64l1.36,3.78V61.61a.9.9,0,0,0,.9.9h4.3a.9.9,0,0,0,.91-.9V49.35l1.36-3.78V42.93A1,1,0,0,0,31.62,41.92Z"/><path class="cls-1" d="M31.62,41.92H24.81a1,1,0,0,0-1,1v2.64l1.36,3.78V61.61a.9.9,0,0,0,.9.9h4.3a.9.9,0,0,0,.91-.9V49.35l1.36-3.78V42.93A1,1,0,0,0,31.62,41.92Z"/></g></g></svg>