<svg xmlns="http://www.w3.org/2000/svg" viewBox="0 0 59.79 59.6"><defs><style>.cls-1{fill:#ffd3ae;}.cls-2{fill:none;stroke:#102f3a;stroke-linecap:round;stroke-linejoin:round;}</style></defs><g id="Layer_2" data-name="Layer 2"><g id="Layer_1-2" data-name="Layer 1"><rect class="cls-1" x="0.5" y="27.9" width="58.79" height="5.21"/><rect class="cls-2" x="0.5" y="27.9" width="58.79" height="5.21"/><rect class="cls-2" x="2.92" y="33.11" width="53.94" height="20.64"/><polygon class="cls-2" points="11.41 59.1 5.93 59.1 5.05 53.75 12.29 53.75 11.41 59.1"/><polygon class="cls-2" points="53.72 59.1 48.25 59.1 47.37 53.75 54.6 53.75 53.72 59.1"/><rect class="cls-2" x="2.92" y="33.11" width="17.61" height="10.64"/><rect class="cls-2" x="20.53" y="33.11" width="18.52" height="10.64"/><rect class="cls-2" x="39.06" y="33.11" width="17.81" height="10.64"/><rect class="cls-1" x="2.92" y="43.75" width="17.61" height="10"/><rect class="cls-1" x="20.53" y="43.75" width="18.52" height="10"/><rect class="cls-1" x="39.06" y="43.75" width="17.81" height="10"/><rect class="cls-2" x="2.92" y="43.75" width="17.61" height="10"/><rect class="cls-2" x="20.53" y="43.75" width="18.52" height="10"/><rect class="cls-2" x="39.06" y="43.75" width="17.81" height="10"/><polygon class="cls-1" points="20.36 12.17 2.68 12.17 3.75 0.5 19.29 0.5 20.36 12.17"/><polygon class="cls-2" points="20.36 12.17 2.68 12.17 3.75 0.5 19.29 0.5 20.36 12.17"/><line class="cls-2" x1="11.52" y1="12.17" x2="11.52" y2="14.97"/><path class="cls-2" d="M13.11,24.61H9.94L8.69,17.28a2,2,0,0,1,2-2.31h1.77a2,2,0,0,1,1.95,2.31Z"/><path class="cls-1" d="M10.49,24.61h2.07a3.29,3.29,0,0,1,3.29,3.29v0a0,0,0,0,1,0,0H7.2a0,0,0,0,1,0,0v0A3.29,3.29,0,0,1,10.49,24.61Z"/><path class="cls-2" d="M10.49,24.61h2.07a3.29,3.29,0,0,1,3.29,3.29v0a0,0,0,0,1,0,0H7.2a0,0,0,0,1,0,0v0A3.29,3.29,0,0,1,10.49,24.61Z"/><path class="cls-1" d="M43.22,27.9H41.69a2,2,0,0,1-1.95-1.79L39.06,18h6.8l-.69,8.08A2,2,0,0,1,43.22,27.9Z"/><path class="cls-1" d="M53.45,27.9H51.68a2.28,2.28,0,0,1-2.26-2.09l-.8-9.46h7.89l-.8,9.46A2.27,2.27,0,0,1,53.45,27.9Z"/><path class="cls-2" d="M43.22,27.9H41.69a2,2,0,0,1-1.95-1.79L39.06,18h6.8l-.69,8.08A2,2,0,0,1,43.22,27.9Z"/><path class="cls-2" d="M53.45,27.9H51.68a2.28,2.28,0,0,1-2.26-2.09l-.8-9.46h7.89l-.8,9.46A2.27,2.27,0,0,1,53.45,27.9Z"/><line class="cls-2" x1="10.22" y1="38.43" x2="12.82" y2="38.43"/><line class="cls-2" x1="10.22" y1="48.88" x2="12.82" y2="48.88"/><line class="cls-2" x1="46.51" y1="38.43" x2="49.11" y2="38.43"/><line class="cls-2" x1="46.51" y1="48.88" x2="49.11" y2="48.88"/><line class="cls-2" x1="28.33" y1="38.43" x2="30.93" y2="38.43"/><line class="cls-2" x1="28.33" y1="48.88" x2="30.93" y2="48.88"/></g></g></svg>