<svg xmlns="http://www.w3.org/2000/svg" viewBox="0 0 73.31 52.29"><defs><style>.cls-1{fill:#ffd3ae;}.cls-2{fill:none;stroke:#102f3a;stroke-linecap:round;stroke-linejoin:round;}.cls-3{fill:#fff;}</style></defs><g id="Layer_2" data-name="Layer 2"><g id="Layer_1-2" data-name="Layer 1"><polygon class="cls-1" points="50.72 35.64 50.72 51.79 5.46 51.79 5.46 17.34 28.09 0.5 50.05 16.84 50.05 29.88 44.28 29.88 44.28 26.22 36.33 32.76 44.28 39.3 44.28 35.64 50.72 35.64"/><polyline class="cls-2" points="35.8 37.42 35.8 40.47 20.38 40.47 20.38 24.7 35.8 24.7 35.8 28.42"/><rect class="cls-3" x="24.56" y="28.97" width="7.07" height="7.23"/><rect class="cls-2" x="24.56" y="28.97" width="7.07" height="7.23"/><polygon class="cls-2" points="50.72 35.64 50.72 51.79 5.46 51.79 5.46 17.34 28.09 0.5 50.05 16.84 50.05 29.88 44.28 29.88 44.28 26.22 36.33 32.76 44.28 39.3 44.28 35.64 50.72 35.64"/><line class="cls-2" x1="55.73" y1="21.07" x2="50.05" y2="16.84"/><line class="cls-2" x1="5.46" y1="17.34" x2="0.5" y2="21.03"/><polyline class="cls-2" points="17.77 15.07 28.1 7.39 38.31 14.99"/><polygon class="cls-2" points="72.81 38.58 72.81 27.32 63.07 21.7 53.32 27.32 53.32 38.58 63.07 44.21 72.81 38.58"/><polyline class="cls-2" points="53.32 27.32 62.86 32.95 72.81 27.32"/><line class="cls-2" x1="62.86" y1="32.95" x2="62.86" y2="39.95"/></g></g></svg>