<svg xmlns="http://www.w3.org/2000/svg" viewBox="0 0 62.51 61.51"><defs><style>.cls-1{fill:none;stroke:#102f3a;stroke-linecap:round;stroke-linejoin:round;}.cls-2{fill:#ffd3ae;}</style></defs><g id="Layer_2" data-name="Layer 2"><g id="Layer_1-2" data-name="Layer 1"><line class="cls-1" x1="2.04" y1="29.61" x2="10.82" y2="29.61"/><line class="cls-1" x1="2.04" y1="34.7" x2="10.82" y2="34.7"/><line class="cls-1" x1="17.46" y1="34.7" x2="27.94" y2="34.7"/><line class="cls-1" x1="34.5" y1="34.7" x2="44.98" y2="34.7"/><line class="cls-1" x1="51.53" y1="34.7" x2="62.01" y2="34.7"/><line class="cls-1" x1="3.85" y1="37.3" x2="6.1" y2="37.3"/><line class="cls-1" x1="6.1" y1="40.08" x2="8.35" y2="40.08"/><line class="cls-1" x1="3.85" y1="46.32" x2="6.1" y2="46.32"/><line class="cls-1" x1="8.35" y1="52.84" x2="10.6" y2="52.84"/><line class="cls-1" x1="3.73" y1="55.81" x2="5.98" y2="55.81"/><line class="cls-1" x1="13.44" y1="58.44" x2="15.69" y2="58.44"/><line class="cls-1" x1="19.28" y1="53.19" x2="21.53" y2="53.19"/><line class="cls-1" x1="26.82" y1="57.97" x2="29.07" y2="57.97"/><line class="cls-1" x1="31.51" y1="53.84" x2="33.76" y2="53.84"/><line class="cls-1" x1="38.86" y1="57.59" x2="41.11" y2="57.59"/><line class="cls-1" x1="49.68" y1="57.98" x2="51.93" y2="57.98"/><line class="cls-1" x1="54.68" y1="53.94" x2="56.93" y2="53.94"/><line class="cls-1" x1="41.6" y1="52.1" x2="43.86" y2="52.1"/><line class="cls-1" x1="56.93" y1="47.94" x2="59.18" y2="47.94"/><line class="cls-1" x1="54.68" y1="42.9" x2="56.93" y2="42.9"/><line class="cls-1" x1="39.88" y1="42.9" x2="42.13" y2="42.9"/><line class="cls-1" x1="37.26" y1="38.28" x2="39.51" y2="38.28"/><line class="cls-1" x1="23.52" y1="37.3" x2="25.77" y2="37.3"/><line class="cls-1" x1="15.16" y1="34.88" x2="15.16" y2="36.55"/><line class="cls-1" x1="31.91" y1="31.14" x2="31.91" y2="32.81"/><line class="cls-1" x1="30.52" y1="34.2" x2="30.52" y2="35.87"/><line class="cls-1" x1="49.01" y1="31.76" x2="49.01" y2="33.43"/><line class="cls-1" x1="47.55" y1="35.87" x2="47.55" y2="37.53"/><line class="cls-1" x1="13.44" y1="31.76" x2="13.44" y2="33.43"/><line class="cls-1" x1="20.33" y1="41.48" x2="22.58" y2="41.48"/><line class="cls-1" x1="22.7" y1="45.11" x2="24.95" y2="45.11"/><line class="cls-1" x1="55.8" y1="37.5" x2="58.05" y2="37.5"/><line class="cls-1" x1="37.26" y1="45.32" x2="39.51" y2="45.32"/><path class="cls-2" d="M34.49,37.49V47a3,3,0,0,1-3,3h-.59a3,3,0,0,1-3-3V37.49Z"/><path class="cls-2" d="M51.53,39.81V47a3,3,0,0,1-3,3H48a3,3,0,0,1-3-3V39.81Z"/><path class="cls-2" d="M17.46,40.07V47a3,3,0,0,1-3,3h-.6a3,3,0,0,1-3-3V40.07Z"/><path class="cls-1" d="M34.49,37.49V47a3,3,0,0,1-3,3h-.59a3,3,0,0,1-3-3V37.49Z"/><path class="cls-1" d="M51.53,39.81V47a3,3,0,0,1-3,3H48a3,3,0,0,1-3-3V39.81Z"/><polyline class="cls-1" points="51.53 39.81 51.53 29.61 59.85 29.61"/><polyline class="cls-1" points="34.49 37.49 34.49 29.61 44.97 29.61 44.97 39.81"/><path class="cls-1" d="M17.46,40.07V47a3,3,0,0,1-3,3h-.6a3,3,0,0,1-3-3V40.07Z"/><polyline class="cls-1" points="17.46 40.07 17.46 29.61 27.94 29.61 27.94 37.49"/><line class="cls-1" x1="10.82" y1="40.07" x2="10.82" y2="29.61"/><path class="cls-2" d="M3.09,29.61S2.38,18.82.5,15.31A9.87,9.87,0,0,1,3.33,17.7s-.24-7.86-2.07-11A9,9,0,0,1,4.13,10.8S4.73,3,6.25.5c0,0-.52,7.58.76,13,0,0,1.32-4.55,3.81-6.78a64.83,64.83,0,0,0-1.9,11s1.64-3.07,3.43-3.79A37.89,37.89,0,0,0,9.57,29.61Z"/><path class="cls-2" d="M19.37,29.61s-.72-10.79-2.59-14.3a10,10,0,0,1,2.83,2.39s-.24-7.86-2.08-11a9,9,0,0,1,2.88,4.11S21,3,22.52.5c0,0-.52,7.58.76,13,0,0,1.33-4.55,3.82-6.78a64.83,64.83,0,0,0-1.9,11s1.63-3.07,3.43-3.79a37.89,37.89,0,0,0-2.78,15.74Z"/><path class="cls-2" d="M36.59,29.61s-.72-10.79-2.6-14.3a10,10,0,0,1,2.84,2.39s-.24-7.86-2.08-11a8.91,8.91,0,0,1,2.87,4.11S38.22,3,39.74.5c0,0-.52,7.58.76,13,0,0,1.32-4.55,3.81-6.78a64.83,64.83,0,0,0-1.9,11s1.64-3.07,3.44-3.79a37.7,37.7,0,0,0-2.78,15.74Z"/><path class="cls-2" d="M52.44,29.61s-.71-10.79-2.59-14.3a9.87,9.87,0,0,1,2.83,2.39s-.24-7.86-2.07-11a9,9,0,0,1,2.87,4.11S54.08,3,55.6.5c0,0-.52,7.58.76,13,0,0,1.32-4.55,3.81-6.78a64.83,64.83,0,0,0-1.9,11s1.64-3.07,3.43-3.79a37.89,37.89,0,0,0-2.78,15.74Z"/><path class="cls-1" d="M3.09,29.61S2.38,18.82.5,15.31A9.87,9.87,0,0,1,3.33,17.7s-.24-7.86-2.07-11A9,9,0,0,1,4.13,10.8S4.73,3,6.25.5c0,0-.52,7.58.76,13,0,0,1.32-4.55,3.81-6.78a64.83,64.83,0,0,0-1.9,11s1.64-3.07,3.43-3.79A37.89,37.89,0,0,0,9.57,29.61Z"/><path class="cls-1" d="M19.37,29.61s-.72-10.79-2.59-14.3a10,10,0,0,1,2.83,2.39s-.24-7.86-2.08-11a9,9,0,0,1,2.88,4.11S21,3,22.52.5c0,0-.52,7.58.76,13,0,0,1.33-4.55,3.82-6.78a64.83,64.83,0,0,0-1.9,11s1.63-3.07,3.43-3.79a37.89,37.89,0,0,0-2.78,15.74Z"/><path class="cls-1" d="M36.59,29.61s-.72-10.79-2.6-14.3a10,10,0,0,1,2.84,2.39s-.24-7.86-2.08-11a8.91,8.91,0,0,1,2.87,4.11S38.22,3,39.74.5c0,0-.52,7.58.76,13,0,0,1.32-4.55,3.81-6.78a64.83,64.83,0,0,0-1.9,11s1.64-3.07,3.44-3.79a37.7,37.7,0,0,0-2.78,15.74Z"/><path class="cls-1" d="M52.44,29.61s-.71-10.79-2.59-14.3a9.87,9.87,0,0,1,2.83,2.39s-.24-7.86-2.07-11a9,9,0,0,1,2.87,4.11S54.08,3,55.6.5c0,0-.52,7.58.76,13,0,0,1.32-4.55,3.81-6.78a64.83,64.83,0,0,0-1.9,11s1.64-3.07,3.43-3.79a37.89,37.89,0,0,0-2.78,15.74Z"/><line class="cls-1" x1="2.04" y1="61.01" x2="40.38" y2="61.01"/><line class="cls-1" x1="42.93" y1="61.01" x2="60.27" y2="61.01"/></g></g></svg>