<svg xmlns="http://www.w3.org/2000/svg" viewBox="0 0 62.97 62.98"><defs><style>.cls-1{fill:#ffd3ae;}.cls-2{fill:none;stroke:#102f3a;stroke-linecap:round;stroke-linejoin:round;}</style></defs><g id="Layer_2" data-name="Layer 2"><g id="Layer_1-2" data-name="Layer 1"><path class="cls-1" d="M31.48.5a31,31,0,1,0,31,31A31,31,0,0,0,31.48.5Zm0,58.89a27.9,27.9,0,1,1,27.91-27.9A27.9,27.9,0,0,1,31.48,59.39Z"/><path class="cls-2" d="M31.48.5a31,31,0,1,0,31,31A31,31,0,0,0,31.48.5Zm0,58.89a27.9,27.9,0,1,1,27.91-27.9A27.9,27.9,0,0,1,31.48,59.39Z"/><path class="cls-2" d="M59.39,31.49A27.91,27.91,0,1,1,31.48,3.59,27.91,27.91,0,0,1,59.39,31.49Z"/><path class="cls-2" d="M59.39,31.49A27.91,27.91,0,1,1,31.48,3.59,27.91,27.91,0,0,1,59.39,31.49Z"/><path class="cls-1" d="M33.75,24.71v2.17H29.16V24.71a1.37,1.37,0,0,1,1.38-1.37h1.83A1.37,1.37,0,0,1,33.75,24.71Z"/><path class="cls-2" d="M33.75,24.71v2.17H29.16V24.71a1.37,1.37,0,0,1,1.38-1.37h1.83A1.37,1.37,0,0,1,33.75,24.71Z"/><line class="cls-2" x1="22.61" y1="11.79" x2="29.33" y2="23.95"/><line class="cls-2" x1="40.29" y1="11.79" x2="33.57" y2="23.95"/><path class="cls-1" d="M37.43,39.12A20.48,20.48,0,0,1,31.48,53.9a20.23,20.23,0,0,1-5.94-14.78c0-6.38,2.28-10.24,4-12.24H33.3A18.52,18.52,0,0,1,37.43,39.12Z"/><path class="cls-2" d="M37.43,39.12A20.48,20.48,0,0,1,31.48,53.9a20.23,20.23,0,0,1-5.94-14.78c0-6.38,2.28-10.24,4-12.24H33.3A18.52,18.52,0,0,1,37.43,39.12Z"/><path class="cls-2" d="M37.43,39.12A20.48,20.48,0,0,1,31.48,53.9a20.23,20.23,0,0,1-5.94-14.78c0-6.38,2.28-10.24,4-12.24H33.3A18.52,18.52,0,0,1,37.43,39.12Z"/><polyline class="cls-2" points="27.31 30.39 32.53 31.49 34.9 49.31"/><line class="cls-2" x1="35.46" y1="30.2" x2="32.53" y2="31.49"/><polyline class="cls-2" points="21.33 24.55 24.35 28.52 28.33 28.52"/><polyline class="cls-2" points="41.54 24.55 38.52 28.52 34.49 28.52"/><polyline class="cls-2" points="26.48 32.53 24.54 31.49 21.52 34.52 16.52 35.58"/><polyline class="cls-2" points="36.28 32.53 38.22 31.49 41.25 34.52 46.25 35.58"/><polyline class="cls-2" points="25.67 36.55 22.34 38.66 23.57 44.63 20.59 50.44"/><polyline class="cls-2" points="37.25 36.55 40.58 38.66 39.34 44.63 42.33 50.44"/><line class="cls-2" x1="51.24" y1="11.79" x2="11.77" y2="51.24"/></g></g></svg>