<svg xmlns="http://www.w3.org/2000/svg" viewBox="0 0 63.29 63.19"><defs><style>.cls-1{fill:#ffd3ae;}.cls-2{fill:none;stroke:#102f3a;stroke-linecap:round;stroke-linejoin:round;}</style></defs><g id="Layer_2" data-name="Layer 2"><g id="Layer_1-2" data-name="Layer 1"><rect class="cls-1" x="0.9" y="15.82" width="61.89" height="4.5" rx="1.29"/><rect class="cls-2" x="0.9" y="15.82" width="61.89" height="4.5" rx="1.29"/><path class="cls-2" d="M37.17,24.77V3.8a3.3,3.3,0,1,1,6.6,0"/><line class="cls-2" x1="37.17" y1="33.47" x2="37.17" y2="29.12"/><line class="cls-2" x1="37.17" y1="39.77" x2="37.17" y2="37.82"/><path class="cls-2" d="M52.78,24.77V3.8a3.3,3.3,0,1,1,6.6,0"/><rect class="cls-1" x="37.17" y="33.47" width="15.61" height="4.35"/><rect class="cls-2" x="37.17" y="33.47" width="15.61" height="4.35"/><line class="cls-2" x1="52.78" y1="33.47" x2="52.78" y2="29.12"/><line class="cls-2" x1="52.78" y1="39.77" x2="52.78" y2="37.82"/><rect class="cls-1" x="37.17" y="24.77" width="15.61" height="4.35"/><rect class="cls-2" x="37.17" y="24.77" width="15.61" height="4.35"/><path class="cls-2" d="M.5,43.55C4,43.55,4,47.41,7.42,47.41s3.46-3.86,6.92-3.86,3.46,3.86,6.92,3.86,3.46-3.86,6.92-3.86,3.46,3.86,6.92,3.86,3.46-3.86,6.93-3.86,3.46,3.86,6.92,3.86,3.46-3.86,6.92-3.86,3.46,3.86,6.92,3.86"/><path class="cls-2" d="M.5,51.19C4,51.19,4,55.05,7.42,55.05s3.46-3.86,6.92-3.86,3.46,3.86,6.92,3.86,3.46-3.86,6.92-3.86,3.46,3.86,6.92,3.86,3.46-3.86,6.93-3.86,3.46,3.86,6.92,3.86,3.46-3.86,6.92-3.86,3.46,3.86,6.92,3.86"/><path class="cls-2" d="M.5,58.83C4,58.83,4,62.69,7.42,62.69s3.46-3.86,6.92-3.86,3.46,3.86,6.92,3.86,3.46-3.86,6.92-3.86,3.46,3.86,6.92,3.86,3.46-3.86,6.93-3.86,3.46,3.86,6.92,3.86,3.46-3.86,6.92-3.86,3.46,3.86,6.92,3.86"/></g></g></svg>