<svg xmlns="http://www.w3.org/2000/svg" viewBox="0 0 63.23 63.19"><defs><style>.cls-1{fill:#ffd3ae;}.cls-2{fill:none;stroke:#102f3a;stroke-linecap:round;stroke-linejoin:round;}</style></defs><g id="Layer_2" data-name="Layer 2"><g id="Layer_1-2" data-name="Layer 1"><path class="cls-1" d="M57.05,22.16l-.11,0L35,31,33,31.82l-2.71,1.09a1.08,1.08,0,0,1-.73,0L10.26,26.31,2,23.48a2.21,2.21,0,0,1-.11-4.15L48.39.62a1.7,1.7,0,0,1,2.21,1L58,19.94A1.71,1.71,0,0,1,57.05,22.16Z"/><path class="cls-2" d="M57.05,22.16l-.11,0L35,31,33,31.82l-2.71,1.09a1.08,1.08,0,0,1-.73,0L10.26,26.31,2,23.48a2.21,2.21,0,0,1-.11-4.15L48.39.62a1.7,1.7,0,0,1,2.21,1L58,19.94A1.71,1.71,0,0,1,57.05,22.16Z"/><path class="cls-2" d="M56.69,29l-14,5.71L30,39.88,19.76,44.07A2.14,2.14,0,0,1,17,42.9L10.26,26.31l19.32,6.62a1.08,1.08,0,0,0,.73,0L33,31.82,35,31l22-8.84,1.29,3.21A2.78,2.78,0,0,1,56.69,29Z"/><rect class="cls-2" x="9.81" y="30.58" width="4.18" height="10.79" transform="translate(-12.61 7.08) rotate(-22)"/><rect class="cls-1" x="3.95" y="30.7" width="6.29" height="14.7" rx="2.53" transform="translate(-13.74 5.43) rotate(-22)"/><rect class="cls-2" x="3.95" y="30.7" width="6.29" height="14.7" rx="2.53" transform="translate(-13.74 5.43) rotate(-22)"/><path class="cls-1" d="M43.35,37.69A6.83,6.83,0,0,1,30,39.88l12.63-5.15A6.7,6.7,0,0,1,43.35,37.69Z"/><path class="cls-2" d="M43.35,37.69A6.83,6.83,0,0,1,30,39.88l12.63-5.15A6.7,6.7,0,0,1,43.35,37.69Z"/><path class="cls-1" d="M59.7,39h1.46a1.57,1.57,0,0,1,1.57,1.57V61.13a1.57,1.57,0,0,1-1.57,1.57H59.7a4.52,4.52,0,0,1-4.52-4.52V43.53A4.52,4.52,0,0,1,59.7,39Z"/><path class="cls-2" d="M59.7,39h1.46a1.57,1.57,0,0,1,1.57,1.57V61.13a1.57,1.57,0,0,1-1.57,1.57H59.7a4.52,4.52,0,0,1-4.52-4.52V43.53A4.52,4.52,0,0,1,59.7,39Z"/><path class="cls-2" d="M35.93,44.5l2.76,6.13A5.77,5.77,0,0,0,44,54H55.17"/><polyline class="cls-2" points="41.73 42.11 44.36 47.51 55.17 47.51"/></g></g></svg>