<svg xmlns="http://www.w3.org/2000/svg" xmlns:xlink="http://www.w3.org/1999/xlink" viewBox="0 0 31.69 37.09"><defs><style>.cls-1{isolation:isolate;}.cls-2{fill:#b5b5b5;mix-blend-mode:multiply;}.cls-3{fill:#ffa62e;}.cls-4{fill:#ba6b00;}.cls-5{fill:url(#Áåçûìÿííûé_ãðàäèåíò_15);}.cls-6{fill:#ff8b00;}.cls-7{fill:#4d4d4d;}.cls-8{fill:#1f1f1f;}.cls-9{fill:#292929;}.cls-10{fill:#42484d;}.cls-11{fill:#2c3033;}.cls-12{fill:#212426;}.cls-13{fill:#9c4317;}.cls-14{fill:#ffa266;}.cls-15{fill:#bf8456;}.cls-16{fill:#ffbc87;}.cls-17{fill:#e4af05;}.cls-18{fill:#cc9b00;}.cls-19{fill:#ffc817;}.cls-20{fill:#daa600;}</style><linearGradient id="Áåçûìÿííûé_ãðàäèåíò_15" x1="17.81" y1="0.58" x2="14.81" y2="16.9" gradientUnits="userSpaceOnUse"><stop offset="0" stop-color="#d67700"/><stop offset="1" stop-color="#ba6b00"/></linearGradient></defs><g class="cls-1"><g id="Layer_2" data-name="Layer 2"><g id="Layer_1-2" data-name="Layer 1"><path class="cls-2" d="M19.57,7.82,17.18,6.39a28.51,28.51,0,0,0-3.63-2,7.91,7.91,0,0,0-3.46-.28A12.69,12.69,0,0,0,3.55,6.54,9.11,9.11,0,0,0,1,9.23,4.28,4.28,0,0,0,1,12.7a8.55,8.55,0,0,0,3.74,4c1.68,1.06,3.76,1.24,5.68,1.58a53.84,53.84,0,0,1,6.06,1.9,12.48,12.48,0,0,0,6.22.26,18,18,0,0,0,4.74-1.66c.6-.31,1.23-.73,1.35-1.39a.29.29,0,0,0,0-.16c0-.08-.14-.1-.23-.11-1.2-.18-2.61.09-3.74-.45a18,18,0,0,1-3.26-2.38c-1.1-.88-1.08-2.62-1.37-3.94C19.94,9.5,19.75,8.66,19.57,7.82Z"/><path class="cls-3" d="M30.11,12.47a6.52,6.52,0,0,0-.57-.87,14.5,14.5,0,0,0-3.6-3,18.74,18.74,0,0,0-4-2,21.32,21.32,0,0,0-9.32-1.3A12.86,12.86,0,0,0,11,5.6a12.13,12.13,0,0,0-1.89.57A6.41,6.41,0,0,0,6.52,7.93a.74.74,0,0,1-.06-.44,7.15,7.15,0,0,0-1.34,4.26,5.13,5.13,0,0,0,.76,2.17,6.86,6.86,0,0,0,1.76,1.84,8.67,8.67,0,0,0,1.48.84,8.34,8.34,0,0,0,3.41.89,1.73,1.73,0,0,1,.6.06c1.31.51,2.36,1.43,3.75,1.82a22.33,22.33,0,0,0,4.3.64,12.4,12.4,0,0,0,6.18-1.33A5.56,5.56,0,0,0,29,17.52C30.09,16.32,31,14.05,30.11,12.47Z"/><path class="cls-4" d="M6.46,7.92a.74.74,0,0,0,.06.44A6.41,6.41,0,0,1,9.09,6.6,12.16,12.16,0,0,1,11,6a14.94,14.94,0,0,1,1.63-.26,21.48,21.48,0,0,1,9.32,1.31,18.74,18.74,0,0,1,4,2,14.07,14.07,0,0,1,3.6,3,6.52,6.52,0,0,1,.57.87,3,3,0,0,1,.33,1.25,3.21,3.21,0,0,0-.33-1.68,6.52,6.52,0,0,0-.57-.87,14.5,14.5,0,0,0-3.6-3,18.74,18.74,0,0,0-4-2,21.32,21.32,0,0,0-9.32-1.3A12.86,12.86,0,0,0,11,5.6a12.13,12.13,0,0,0-1.89.57A6.41,6.41,0,0,0,6.52,7.93a.74.74,0,0,1-.06-.44,7.41,7.41,0,0,0-1.35,4.06A8,8,0,0,1,6.46,7.92Z"/><path class="cls-4" d="M29,17a5.38,5.38,0,0,1-1.6,1.16,12.19,12.19,0,0,1-6.18,1.33,21.56,21.56,0,0,1-4.3-.63c-1.39-.39-2.44-1.31-3.75-1.82a1.73,1.73,0,0,0-.6-.06,8.2,8.2,0,0,1-3.41-.9,8,8,0,0,1-1.48-.83,6.9,6.9,0,0,1-1.76-1.85,5.08,5.08,0,0,1-.76-2.17v-.14a4,4,0,0,0,0,.69,5.13,5.13,0,0,0,.76,2.17,6.86,6.86,0,0,0,1.76,1.84,8.67,8.67,0,0,0,1.48.84,8.34,8.34,0,0,0,3.41.89,1.73,1.73,0,0,1,.6.06c1.31.51,2.36,1.43,3.75,1.82a22.33,22.33,0,0,0,4.3.64,12.4,12.4,0,0,0,6.18-1.33A5.56,5.56,0,0,0,29,17.52a5.5,5.5,0,0,0,1.48-3.86A5.71,5.71,0,0,1,29,17Z"/><path class="cls-5" d="M25.29,7.48c-.47-.92-1-1.8-1.6-2.7A9.72,9.72,0,0,0,21.6,2.4,9.28,9.28,0,0,0,18.66.79,10.29,10.29,0,0,0,15.41.26a10.42,10.42,0,0,0-2.78.38A9.23,9.23,0,0,0,8.21,3.36,10.8,10.8,0,0,0,5.68,10.8a4.64,4.64,0,0,0,1.77,3.73C11,17.22,16.58,17.37,20.71,16c1.9-.62,4.78-1.69,5.46-3.82a3.56,3.56,0,0,0,.12-1.34A8.67,8.67,0,0,0,25.29,7.48Z"/><path class="cls-6" d="M26.6,12.53a1,1,0,0,1,.07.51,1.66,1.66,0,0,1-.3.49,4.79,4.79,0,0,1-1.59,1.23c-.24.12-.49.24-.74.34a2.61,2.61,0,0,1-.27.06,1.6,1.6,0,0,0-.33.07c.08-.1.19-.18.08-.3a2.46,2.46,0,0,1-.22-.34L23,14.15l-.83-1.91-1.39-2.3L19.45,7.76,17,5.25,15.14,3.42,12,2.69l-4.1.87A14,14,0,0,1,11.46.85s0,0,0,0l.46-.23A7.1,7.1,0,0,1,14.51,0,6.75,6.75,0,0,1,17,.36l.81.33a9.79,9.79,0,0,1,1.55.93,11.55,11.55,0,0,1,1.41,1.21A15.39,15.39,0,0,1,22,4.23c.4.49.77,1,1.13,1.52s.66,1,1,1.55.56,1,.83,1.5.45.91.66,1.37.34.75.51,1.14S26.57,12.46,26.6,12.53Z"/><path class="cls-4" d="M22.77,15.2a1.45,1.45,0,0,1-.09-.22l-.12-.31c-.11-.29-.24-.58-.36-.87s-.35-.79-.53-1.19-.46-.93-.7-1.39-.56-1-.86-1.52-.66-1-1-1.55-.75-1-1.16-1.49a14.85,14.85,0,0,0-1.3-1.33,10.7,10.7,0,0,0-1.42-1.09,7.43,7.43,0,0,0-1.56-.74c-.21-.07-.42-.13-.64-.18s-.42-.07-.63-.09A6.64,6.64,0,0,0,7.3,4.9a3.33,3.33,0,0,0-.39.36,7.05,7.05,0,0,1,.3-.76,3.61,3.61,0,0,1,.85-1.09,3.41,3.41,0,0,1,.81-.5,7.15,7.15,0,0,1,2.65-.63A6.5,6.5,0,0,1,14,2.64a8.18,8.18,0,0,1,.82.32,9.79,9.79,0,0,1,1.55.93A11.55,11.55,0,0,1,17.73,5.1,17,17,0,0,1,19,6.5c.39.49.77,1,1.12,1.52s.67,1,1,1.55.56,1,.82,1.5.46.91.67,1.37.34.76.5,1.14.23.56.34.84.11.25.15.38.12.25.07.35-.24.16-.36.17H23C22.91,15.3,22.8,15.28,22.77,15.2Z"/><path class="cls-2" d="M29.54,37.09H27.36L8.81,26.56,6.52,27.82.31,28.93A.26.26,0,0,1,0,28.56l1.56-3.11,6.53-3.53L29.76,35.79Z"/><path class="cls-7" d="M14.06,22.25h0a.12.12,0,0,1-.07.12h0l-.14.08L6.18,26.9,2,27.8c-.19,0-.39-.06-.41-.17h0a.06.06,0,0,1,0,0l.4-.94.18-.44,1-1,7.13-4.12a.43.43,0,0,1,.41,0l2.07.4h0l1.14.65h0A.15.15,0,0,1,14.06,22.25Z"/><path class="cls-8" d="M2,26.17v1.64H1.93a.37.37,0,0,1-.34-.16h0V26Z"/><path class="cls-9" d="M14.06,20.66v1.6a.12.12,0,0,1-.07.12h0V20.81h0l.07-.14Z"/><path class="cls-10" d="M3.22,23.6,1.6,26c-.06.13.17.26.4.23l4.18-.91,7.8-4.5a.16.16,0,0,0,0-.27l-2.53-1.46a.38.38,0,0,0-.41,0Z"/><polygon class="cls-11" points="13.99 20.79 13.99 22.39 13.98 22.39 13.98 22.39 13.85 22.47 6.18 26.9 6.18 25.31 12.84 21.46 13.99 20.8 13.99 20.79"/><polygon class="cls-12" points="6.18 25.31 2 26.22 2 27.81 6.18 26.9 6.18 25.31"/><path class="cls-13" d="M11,23v.73a.64.64,0,0,1-.27.52l-.33.19-.6.35-.62.36-.05,0a.16.16,0,0,1-.16,0h0A.25.25,0,0,1,8.81,25v-.73a.68.68,0,0,1,.27-.53l1.6-.92a.19.19,0,0,1,.14,0h0l0,0A.22.22,0,0,1,11,23Z"/><path class="cls-14" d="M21.69,30.9l-.28.53L9.75,24.83l-.94-.55a.68.68,0,0,1,.27-.53l1.27.73Z"/><path class="cls-14" d="M23.46,30h-.18L11,23l-.27-.16a.19.19,0,0,1,.14,0h0l0,0Z"/><path class="cls-15" d="M21.49,32.36,8.92,25.24h0A.25.25,0,0,1,8.81,25l.32.18,12.28,7Z"/><path class="cls-15" d="M23.28,31.44l-1.59.92c-.15.09-.28,0-.28-.21v-.72a.68.68,0,0,1,.28-.53L23.28,30c.16-.09.28,0,.28.21v.72A.64.64,0,0,1,23.28,31.44Z"/><polygon class="cls-16" points="21.69 30.9 9.08 23.75 10.68 22.83 23.28 29.98 21.69 30.9"/><polygon class="cls-15" points="21.41 31.43 21.41 32.15 8.81 25 8.81 24.28 21.41 31.43"/><path class="cls-13" d="M23.65,30.08v.8a.76.76,0,0,1-.3.58l-.37.21-.65.37-.69.4-.05,0a.17.17,0,0,1-.18,0h0a.27.27,0,0,1-.1-.24v-.8a.69.69,0,0,1,.3-.57l1.76-1a.21.21,0,0,1,.15,0h0l0,0a.25.25,0,0,1,.08.17A.13.13,0,0,1,23.65,30.08Z"/><path class="cls-17" d="M29.64,35.4l-.3.58-7-3.94-1-.6a.69.69,0,0,1,.3-.57Z"/><path class="cls-17" d="M31.59,34.37l-.2,0L23.64,30l-.29-.17a.21.21,0,0,1,.15,0h0l0,0Z"/><path class="cls-18" d="M29.42,37l-8-4.51h0a.27.27,0,0,1-.1-.24l.35.2,7.7,4.33Z"/><path class="cls-18" d="M31.39,36l-1.75,1c-.17.1-.3,0-.3-.23V36a.7.7,0,0,1,.3-.58l1.75-1c.17-.1.3,0,.3.22v.8A.73.73,0,0,1,31.39,36Z"/><polygon class="cls-19" points="29.64 35.4 21.59 30.86 23.34 29.85 31.39 34.39 29.64 35.4"/><polygon class="cls-20" points="29.34 35.98 29.34 36.77 21.29 32.24 21.29 31.44 29.34 35.98"/></g></g></g></svg>