<svg xmlns="http://www.w3.org/2000/svg" viewBox="0 0 63.19 63.19"><defs><style>.cls-1{fill:none;stroke:#102f3a;stroke-linecap:round;stroke-linejoin:round;}.cls-2{fill:#ffd3ae;}</style></defs><g id="Layer_2" data-name="Layer 2"><g id="Layer_1-2" data-name="Layer 1"><circle class="cls-1" cx="31.6" cy="31.6" r="16.7"/><line class="cls-1" x1="31.6" y1="7.52" x2="31.6" y2="14.9"/><circle class="cls-1" cx="31.6" cy="4.01" r="3.51"/><circle class="cls-1" cx="31.6" cy="31.6" r="16.7"/><line class="cls-1" x1="14.57" y1="14.57" x2="19.79" y2="19.79"/><circle class="cls-1" cx="12.09" cy="12.09" r="3.51"/><circle class="cls-1" cx="31.6" cy="31.6" r="16.7"/><line class="cls-1" x1="7.52" y1="31.6" x2="14.9" y2="31.6"/><circle class="cls-1" cx="4.01" cy="31.6" r="3.51"/><circle class="cls-1" cx="31.6" cy="31.6" r="16.7"/><line class="cls-1" x1="14.57" y1="48.62" x2="19.79" y2="43.4"/><circle class="cls-1" cx="12.09" cy="51.1" r="3.51"/><circle class="cls-1" cx="31.6" cy="31.6" r="16.7"/><line class="cls-1" x1="31.6" y1="55.67" x2="31.6" y2="48.29"/><circle class="cls-1" cx="31.6" cy="59.18" r="3.51"/><circle class="cls-1" cx="31.6" cy="31.6" r="16.7"/><line class="cls-1" x1="48.62" y1="48.62" x2="43.4" y2="43.4"/><circle class="cls-1" cx="51.1" cy="51.1" r="3.51"/><circle class="cls-1" cx="31.6" cy="31.6" r="16.7"/><line class="cls-1" x1="55.67" y1="31.6" x2="48.29" y2="31.6"/><circle class="cls-1" cx="59.18" cy="31.6" r="3.51"/><circle class="cls-1" cx="31.6" cy="31.6" r="16.7"/><line class="cls-1" x1="48.62" y1="14.57" x2="43.4" y2="19.79"/><circle class="cls-1" cx="51.1" cy="12.09" r="3.51"/><polygon class="cls-2" points="31.6 31.6 31.6 43.73 21.09 37.66 21.09 25.53 26.12 28.43 31.6 31.6"/><polygon class="cls-2" points="42.1 25.53 42.1 37.66 31.6 43.73 31.6 31.6 42.1 25.53"/><polygon class="cls-2" points="42.1 25.53 31.6 31.6 26.12 28.43 36.63 22.37 42.1 25.53"/><polygon class="cls-2" points="36.63 22.37 26.12 28.43 21.09 25.53 31.6 19.47 36.63 22.37"/><polygon class="cls-1" points="31.6 31.6 31.6 43.73 21.09 37.66 21.09 25.53 26.12 28.43 31.6 31.6"/><polygon class="cls-1" points="42.1 25.53 42.1 37.66 31.6 43.73 31.6 31.6 42.1 25.53"/><polygon class="cls-1" points="42.1 25.53 31.6 31.6 26.12 28.43 36.63 22.37 42.1 25.53"/><polygon class="cls-1" points="36.63 22.37 26.12 28.43 21.09 25.53 31.6 19.47 36.63 22.37"/></g></g></svg>