<svg xmlns="http://www.w3.org/2000/svg" viewBox="0 0 66.55 64.94"><defs><style>.cls-1{fill:none;stroke:#102f3a;stroke-linecap:round;stroke-linejoin:round;stroke-width:1.5px;}.cls-2{fill:#ffd3ae;}.cls-3{fill:#102f3a;}</style></defs><g id="Layer_2" data-name="Layer 2"><g id="Layer_1-2" data-name="Layer 1"><polygon class="cls-1" points="61.98 64.19 4.84 64.19 4.84 16.98 33.41 0.75 61.98 16.98 61.98 64.19"/><polygon class="cls-2" points="39.13 18.19 28.09 18.19 28.09 10.36 33.61 7.32 39.13 10.36 39.13 18.19"/><line class="cls-2" x1="33.61" y1="7.32" x2="33.61" y2="18.19"/><polygon class="cls-1" points="39.13 18.19 28.09 18.19 28.09 10.36 33.61 7.32 39.13 10.36 39.13 18.19"/><line class="cls-1" x1="33.61" y1="7.32" x2="33.61" y2="18.19"/><path class="cls-1" d="M12.64,59.63H9.13a1.94,1.94,0,0,1-1.94-2V49.91H55.56a1.94,1.94,0,0,1,1.95,1.94v5.83a2,2,0,0,1-1.95,2H49.83"/><line class="cls-1" x1="41.1" y1="59.63" x2="21.37" y2="59.63"/><path class="cls-2" d="M23.66,49.88H7.19l8.48-15.67a1.55,1.55,0,0,1,1.35-.8h6.64Z"/><path class="cls-1" d="M23.66,49.88H7.19l8.48-15.67a1.55,1.55,0,0,1,1.35-.8h6.64Z"/><line class="cls-1" x1="23.66" y1="30.39" x2="23.66" y2="33.41"/><circle class="cls-2" cx="17" cy="59.69" r="4.37"/><circle class="cls-2" cx="45.46" cy="59.69" r="4.37"/><circle class="cls-1" cx="17" cy="59.69" r="4.37"/><circle class="cls-1" cx="45.46" cy="59.69" r="4.37"/><rect class="cls-3" x="44.45" y="58.68" width="2.01" height="2.01"/><rect class="cls-3" x="15.82" y="58.68" width="2.01" height="2.01"/><path class="cls-2" d="M29.67,23.52a1.59,1.59,0,0,0-1.59,1.59v7.36h13V23.52ZM36.79,29H32.34V27h4.45Z"/><path class="cls-2" d="M52.67,23.52H41.09v9H54.26V25.11A1.59,1.59,0,0,0,52.67,23.52ZM49.93,29H45.49V27h4.44Z"/><path class="cls-2" d="M28.08,41.19v8.7h13v-8.7Zm8.71,5.17H32.34V44.45h4.45Z"/><path class="cls-2" d="M41.09,41.19v8.7H54.26v-8.7Zm8.84,5.17H45.49V44.45h4.44Z"/><path class="cls-1" d="M29.67,23.52a1.59,1.59,0,0,0-1.59,1.59v7.36h13V23.52ZM36.79,29H32.34V27h4.45Z"/><path class="cls-1" d="M52.67,23.52H41.09v9H54.26V25.11A1.59,1.59,0,0,0,52.67,23.52ZM49.93,29H45.49V27h4.44Z"/><path class="cls-1" d="M41.09,32.47v8.72H54.26V32.47Zm8.84,5.81H45.49V35.37h4.44Z"/><path class="cls-1" d="M28.08,32.47v8.72h13V32.47Zm8.71,5.81H32.34V35.37h4.45Z"/><path class="cls-1" d="M28.08,41.19v8.7h13v-8.7Zm8.71,5.17H32.34V44.45h4.45Z"/><path class="cls-1" d="M41.09,41.19v8.7H54.26v-8.7Zm8.84,5.17H45.49V44.45h4.44Z"/><line class="cls-1" x1="0.75" y1="64.19" x2="65.8" y2="64.19"/></g></g></svg>