<svg xmlns="http://www.w3.org/2000/svg" viewBox="0 0 65.4 56.74"><defs><style>.cls-1{fill:#ffd3ae;}.cls-2{fill:none;stroke:#102f3a;stroke-linecap:round;stroke-linejoin:round;}</style></defs><g id="Layer_2" data-name="Layer 2"><g id="Layer_1-2" data-name="Layer 1"><rect class="cls-1" x="27.14" y="0.5" width="26.7" height="9.69"/><path class="cls-2" d="M22.3.5v9.69c-3.34,0-6-1.21-6-2.69V3.19C16.26,1.71,19,.51,22.3.5Z"/><rect class="cls-2" x="27.14" y="0.5" width="26.7" height="9.69"/><path class="cls-2" d="M64.9,3.19V7.5c0,1.48-2.72,2.69-6.07,2.69h-.14V.5h.14C62.18.5,64.9,1.7,64.9,3.19Z"/><rect class="cls-2" x="38.11" y="6.65" width="4.85" height="11.93" rx="1.61" transform="translate(53.14 -27.92) rotate(90)"/><rect class="cls-2" x="33.21" y="18.68" width="14.65" height="7.35" transform="translate(62.89 -18.18) rotate(90)"/><path class="cls-1" d="M47.48,34.49H46.4a2.41,2.41,0,0,1,2.41,2.41,2.46,2.46,0,0,1-2.41,2.41H45.21a2.4,2.4,0,0,1,1.71,4.1,2.44,2.44,0,0,1-1.71.7h-1a2.41,2.41,0,0,1,2.39,2.41,2.44,2.44,0,0,1-.7,1.71,2.41,2.41,0,0,1-1.69.7H32.3a17.27,17.27,0,0,1-8.95-2.41H20.09V32.08h1.36c1.77,0,3.4-1.55,4.2-3.13,1.08-2.11,1.94-4.19,5.61-4.19,4.43,0,5,4.91,5,4.91H47.48a2.41,2.41,0,0,1,2.41,2.41,2.39,2.39,0,0,1-2.41,2.41Z"/><path class="cls-2" d="M47.48,34.49H46.4a2.41,2.41,0,0,1,2.41,2.41,2.46,2.46,0,0,1-2.41,2.41H45.21a2.4,2.4,0,0,1,1.71,4.1,2.44,2.44,0,0,1-1.71.7h-1a2.41,2.41,0,0,1,2.39,2.41,2.44,2.44,0,0,1-.7,1.71,2.41,2.41,0,0,1-1.69.7H32.3a17.27,17.27,0,0,1-8.95-2.41H20.09V32.08h1.36c1.77,0,3.4-1.55,4.2-3.13,1.08-2.11,1.94-4.19,5.61-4.19,4.43,0,5,4.91,5,4.91H47.48a2.41,2.41,0,0,1,2.41,2.41,2.39,2.39,0,0,1-2.41,2.41Z"/><line class="cls-2" x1="46.4" y1="34.49" x2="39.37" y2="34.49"/><line class="cls-2" x1="36.25" y1="29.67" x2="32.3" y2="29.67"/><line class="cls-2" x1="45.21" y1="39.31" x2="38.13" y2="39.31"/><line class="cls-2" x1="46.4" y1="34.49" x2="39.37" y2="34.49"/><polyline class="cls-2" points="36.86 44.11 37.03 44.11 44.23 44.11"/><line class="cls-2" x1="45.21" y1="39.31" x2="38.13" y2="39.31"/><line class="cls-2" x1="44.23" y1="44.11" x2="37.03" y2="44.11"/><path class="cls-2" d="M20.09,46.52v2.26a.57.57,0,0,1-.56.57H.5"/><path class="cls-2" d="M.5,29.67h19a.57.57,0,0,1,.56.57v1.84"/><rect class="cls-2" x="13.89" y="42.93" width="2.37" height="2.37"/><path class="cls-2" d="M36.86,48.93h7.31a0,0,0,0,1,0,0v4.89a2.43,2.43,0,0,1-2.43,2.43H39.29a2.43,2.43,0,0,1-2.43-2.43V48.93A0,0,0,0,1,36.86,48.93Z"/></g></g></svg>