<svg xmlns="http://www.w3.org/2000/svg" viewBox="0 0 61.69 63.19"><defs><style>.cls-1{fill:#ffd3ae;}.cls-2{fill:none;stroke:#102f3a;stroke-linecap:round;stroke-linejoin:round;}</style></defs><g id="Layer_2" data-name="Layer 2"><g id="Layer_1-2" data-name="Layer 1"><rect class="cls-1" x="8.83" y="9.42" width="22.35" height="22.35"/><rect class="cls-1" x="31.18" y="9.42" width="22.35" height="22.35"/><rect class="cls-1" x="8.83" y="31.77" width="22.35" height="22.05"/><rect class="cls-1" x="31.18" y="31.77" width="22.35" height="22.05"/><rect class="cls-2" x="8.83" y="9.42" width="22.35" height="22.35"/><rect class="cls-2" x="31.18" y="9.42" width="22.35" height="22.35"/><rect class="cls-2" x="8.83" y="31.77" width="22.35" height="22.05"/><rect class="cls-2" x="31.18" y="31.77" width="22.35" height="22.05"/><polyline class="cls-2" points="0.5 0.5 8.83 0.5 8.83 9.42"/><line class="cls-2" x1="53.53" y1="53.82" x2="61.19" y2="53.82"/><circle class="cls-2" cx="20" cy="58.27" r="4.43"/><circle class="cls-2" cx="42.35" cy="58.27" r="4.43"/><line class="cls-2" x1="16.97" y1="13.66" x2="23.18" y2="13.66"/><line class="cls-2" x1="39.06" y1="13.66" x2="45.27" y2="13.66"/><line class="cls-2" x1="16.97" y1="35.94" x2="23.18" y2="35.94"/><line class="cls-2" x1="39.06" y1="35.94" x2="45.27" y2="35.94"/></g></g></svg>