<svg xmlns="http://www.w3.org/2000/svg" viewBox="0 0 69.02 63.19"><defs><style>.cls-1{fill:none;stroke:#102f3a;stroke-linecap:round;stroke-linejoin:round;}.cls-2{fill:#ffd3ae;}</style></defs><g id="Layer_2" data-name="Layer 2"><g id="Layer_1-2" data-name="Layer 1"><path class="cls-1" d="M20.35,26a8.58,8.58,0,0,1-8.5,8.58h-.08A8.58,8.58,0,1,1,20.35,26Z"/><path class="cls-1" d="M42.86,34.39a8.58,8.58,0,0,1-7.31,8.49,8.83,8.83,0,0,1-1.27.09,8.47,8.47,0,0,1-1.13-.07,8.58,8.58,0,0,1-7.45-8.51,8.37,8.37,0,0,1,.83-3.67A8.57,8.57,0,0,1,32.63,26a8.19,8.19,0,0,1,3.22,0,8.58,8.58,0,0,1,7,8.43Z"/><path class="cls-1" d="M65.74,25.81a8.57,8.57,0,1,1-8.57-8.58A8.58,8.58,0,0,1,65.74,25.81Z"/><circle class="cls-2" cx="45.43" cy="7.55" r="7.05"/><circle class="cls-2" cx="23.15" cy="7.55" r="7.05"/><circle class="cls-1" cx="45.43" cy="7.55" r="7.05"/><circle class="cls-1" cx="23.15" cy="7.55" r="7.05"/><path class="cls-2" d="M23.21,45.24v7l-.2.12c-.76.41-3.8,1.73-11.24,1.73C3,54.13.5,52.28.5,52.28v-7c0-5.87,5-10.64,11.27-10.68h.08a11.69,11.69,0,0,1,8,3.13A10.31,10.31,0,0,1,23.21,45.24Z"/><path class="cls-2" d="M46,53.66v7.15s-2.68,1.88-11.61,1.88-11.43-1.88-11.43-1.88V53.66A9,9,0,0,1,23,52.39a10.68,10.68,0,0,1,.2-1.13,11.68,11.68,0,0,1,11.24-8.43,10,10,0,0,1,1.1.05A11.79,11.79,0,0,1,42.6,46a10.66,10.66,0,0,1,3.21,5.84c0,.1,0,.21,0,.31A9.42,9.42,0,0,1,46,53.66Z"/><path class="cls-2" d="M68.52,45.07v7S65.87,54,57.08,54C49,54,46.25,52.4,45.86,52.15l0,0v-7c0-5.9,5.08-10.68,11.36-10.68a11.68,11.68,0,0,1,8,3.13A10.31,10.31,0,0,1,68.52,45.07Z"/><path class="cls-1" d="M23.21,45.24v7l-.2.12c-.76.41-3.8,1.73-11.24,1.73C3,54.13.5,52.28.5,52.28v-7c0-5.87,5-10.64,11.27-10.68h.08a11.69,11.69,0,0,1,8,3.13A10.31,10.31,0,0,1,23.21,45.24Z"/><path class="cls-1" d="M34.28,43a11.22,11.22,0,0,0-11.07,8.31v-6a10.31,10.31,0,0,0-3.33-7.55,11.69,11.69,0,0,0-8-3.13,8.58,8.58,0,0,0,3.71-16.28,9.8,9.8,0,0,1,14.31-1.09,8.57,8.57,0,0,1,2.76,6.27V26a8.57,8.57,0,0,0-6.1,4.74,8.37,8.37,0,0,0-.83,3.67A8.58,8.58,0,0,0,34.28,43Z"/><path class="cls-1" d="M46,53.66v7.15s-2.68,1.88-11.61,1.88-11.43-1.88-11.43-1.88V53.66A9,9,0,0,1,23,52.39a10.68,10.68,0,0,1,.2-1.13,11.68,11.68,0,0,1,11.24-8.43,10,10,0,0,1,1.1.05A11.79,11.79,0,0,1,42.6,46a10.66,10.66,0,0,1,3.21,5.84c0,.1,0,.21,0,.31A9.42,9.42,0,0,1,46,53.66Z"/><path class="cls-1" d="M68.52,45.07v7S65.87,54,57.08,54C49,54,46.25,52.4,45.86,52.15l0,0v-7c0-5.9,5.08-10.68,11.36-10.68a11.68,11.68,0,0,1,8,3.13A10.31,10.31,0,0,1,68.52,45.07Z"/><path class="cls-1" d="M57.17,34.39c-6.28,0-11.36,4.78-11.36,10.68v6.77A10.66,10.66,0,0,0,42.6,46a11.79,11.79,0,0,0-7.05-3.12A8.58,8.58,0,0,0,35.85,26V23.61a9.31,9.31,0,0,1,9.58-9,9.85,9.85,0,0,1,6.78,2.65,8.72,8.72,0,0,1,.92,1,8.58,8.58,0,0,0,4,16.15Z"/><path class="cls-1" d="M53.13,18.24a8.57,8.57,0,0,0-2.92,12.6"/></g></g></svg>