<svg xmlns="http://www.w3.org/2000/svg" viewBox="0 0 86.7 63.3"><defs><style>.cls-1{fill:#ffd3ae;}.cls-2{fill:none;stroke:#102f3a;stroke-linecap:round;stroke-linejoin:round;}.cls-3{fill:#fff;}</style></defs><g id="Layer_2" data-name="Layer 2"><g id="Layer_1-2" data-name="Layer 1"><path class="cls-1" d="M13.54.5H42A5.06,5.06,0,0,1,47,5.56V47.7a0,0,0,0,1,0,0H8.47a0,0,0,0,1,0,0V5.56A5.06,5.06,0,0,1,13.54.5Z"/><path class="cls-2" d="M13.54.5H42A5.06,5.06,0,0,1,47,5.56V47.7a0,0,0,0,1,0,0H8.47a0,0,0,0,1,0,0V5.56A5.06,5.06,0,0,1,13.54.5Z"/><rect class="cls-2" x="5.14" y="47.7" width="45.22" height="4.94"/><path class="cls-1" d="M2.39,52.64H84.31a1.89,1.89,0,0,1,1.89,1.89V62.8a0,0,0,0,1,0,0H.5a0,0,0,0,1,0,0V54.53A1.89,1.89,0,0,1,2.39,52.64Z"/><path class="cls-2" d="M2.39,52.64H84.31a1.89,1.89,0,0,1,1.89,1.89V62.8a0,0,0,0,1,0,0H.5a0,0,0,0,1,0,0V54.53A1.89,1.89,0,0,1,2.39,52.64Z"/><line class="cls-2" x1="15.39" y1="31.87" x2="39.58" y2="31.87"/><line class="cls-2" x1="15.39" y1="37" x2="31.66" y2="37"/><rect class="cls-2" x="58.39" y="47.7" width="23.27" height="4.94"/><path class="cls-1" d="M80.31,19.11H74.19V13.33a2.59,2.59,0,0,0-2.59-2.58H68.46a2.59,2.59,0,0,0-2.59,2.58v5.78H60a2.52,2.52,0,0,0-2.52,2.53v3.21A2.52,2.52,0,0,0,60,27.38h5.88V47.7h8.32V27.38h6.12a2.53,2.53,0,0,0,2.53-2.53V21.64A2.53,2.53,0,0,0,80.31,19.11Z"/><path class="cls-2" d="M80.31,19.11H74.19V13.33a2.59,2.59,0,0,0-2.59-2.58H68.46a2.59,2.59,0,0,0-2.59,2.58v5.78H60a2.52,2.52,0,0,0-2.52,2.53v3.21A2.52,2.52,0,0,0,60,27.38h5.88V47.7h8.32V27.38h6.12a2.53,2.53,0,0,0,2.53-2.53V21.64A2.53,2.53,0,0,0,80.31,19.11Z"/><path class="cls-3" d="M17.29,17.51h-.87v3.94a1.63,1.63,0,0,1-.35,1.15,1.16,1.16,0,0,1-.89.37,1.12,1.12,0,0,1-.92-.39,1.68,1.68,0,0,1-.33-1.13V12a1.58,1.58,0,0,1,.36-1.16,1.6,1.6,0,0,1,1.16-.36H19.5a11.87,11.87,0,0,1,1.43.07,3.59,3.59,0,0,1,1.07.29,3,3,0,0,1,1,.69,3.07,3.07,0,0,1,.68,1.05,3.58,3.58,0,0,1,.23,1.27,3,3,0,0,1-.78,2.19,4.46,4.46,0,0,1-2.35,1.17,4.58,4.58,0,0,1,1.27,1,9.6,9.6,0,0,1,1.07,1.46,10.2,10.2,0,0,1,.74,1.4,2.58,2.58,0,0,1,.26.85.85.85,0,0,1-.15.48,1.18,1.18,0,0,1-.42.38A1.38,1.38,0,0,1,23,23a1.24,1.24,0,0,1-.71-.2,1.8,1.8,0,0,1-.49-.5c-.13-.2-.32-.49-.55-.88l-1-1.66a9.48,9.48,0,0,0-1-1.39,2.25,2.25,0,0,0-.86-.65A2.85,2.85,0,0,0,17.29,17.51Zm1.42-5.16H16.42v3.38h2.22a5.92,5.92,0,0,0,1.51-.16,1.75,1.75,0,0,0,.93-.52,1.5,1.5,0,0,0,.33-1,1.61,1.61,0,0,0-.26-.9,1.65,1.65,0,0,0-.72-.58A5.25,5.25,0,0,0,18.71,12.35Z"/><path class="cls-3" d="M26.38,21.45V11.78a1.64,1.64,0,0,1,.34-1.13,1.16,1.16,0,0,1,.89-.37,1.18,1.18,0,0,1,.91.37,1.63,1.63,0,0,1,.35,1.13v9.67a1.64,1.64,0,0,1-.35,1.14,1.19,1.19,0,0,1-.91.38,1.14,1.14,0,0,1-.88-.38A1.61,1.61,0,0,1,26.38,21.45Z"/><path class="cls-3" d="M36.41,18H34.13v3.47a1.63,1.63,0,0,1-.35,1.13,1.14,1.14,0,0,1-.89.39,1.17,1.17,0,0,1-.9-.38,1.63,1.63,0,0,1-.35-1.12V12A1.54,1.54,0,0,1,32,10.84a1.69,1.69,0,0,1,1.2-.35h3.19a8.71,8.71,0,0,1,2.18.21,3.34,3.34,0,0,1,1.3.7,3.16,3.16,0,0,1,.83,1.19A4.16,4.16,0,0,1,41,14.17,3.48,3.48,0,0,1,39.85,17,5.23,5.23,0,0,1,36.41,18Zm-.6-5.63H34.13V16.1h1.68a5.05,5.05,0,0,0,1.46-.18,1.64,1.64,0,0,0,.9-.6,1.79,1.79,0,0,0,.31-1.1A1.84,1.84,0,0,0,38,12.9,3.19,3.19,0,0,0,35.81,12.35Z"/><path class="cls-2" d="M17.29,17.51h-.87v3.94a1.63,1.63,0,0,1-.35,1.15,1.16,1.16,0,0,1-.89.37,1.12,1.12,0,0,1-.92-.39,1.68,1.68,0,0,1-.33-1.13V12a1.58,1.58,0,0,1,.36-1.16,1.6,1.6,0,0,1,1.16-.36H19.5a11.87,11.87,0,0,1,1.43.07,3.59,3.59,0,0,1,1.07.29,3,3,0,0,1,1,.69,3.07,3.07,0,0,1,.68,1.05,3.58,3.58,0,0,1,.23,1.27,3,3,0,0,1-.78,2.19,4.46,4.46,0,0,1-2.35,1.17,4.58,4.58,0,0,1,1.27,1,9.6,9.6,0,0,1,1.07,1.46,10.2,10.2,0,0,1,.74,1.4,2.58,2.58,0,0,1,.26.85.85.85,0,0,1-.15.48,1.18,1.18,0,0,1-.42.38A1.38,1.38,0,0,1,23,23a1.24,1.24,0,0,1-.71-.2,1.8,1.8,0,0,1-.49-.5c-.13-.2-.32-.49-.55-.88l-1-1.66a9.48,9.48,0,0,0-1-1.39,2.25,2.25,0,0,0-.86-.65A2.85,2.85,0,0,0,17.29,17.51Zm1.42-5.16H16.42v3.38h2.22a5.92,5.92,0,0,0,1.51-.16,1.75,1.75,0,0,0,.93-.52,1.5,1.5,0,0,0,.33-1,1.61,1.61,0,0,0-.26-.9,1.65,1.65,0,0,0-.72-.58A5.25,5.25,0,0,0,18.71,12.35Z"/><path class="cls-2" d="M26.38,21.45V11.78a1.64,1.64,0,0,1,.34-1.13,1.16,1.16,0,0,1,.89-.37,1.18,1.18,0,0,1,.91.37,1.63,1.63,0,0,1,.35,1.13v9.67a1.64,1.64,0,0,1-.35,1.14,1.19,1.19,0,0,1-.91.38,1.14,1.14,0,0,1-.88-.38A1.61,1.61,0,0,1,26.38,21.45Z"/><path class="cls-2" d="M36.41,18H34.13v3.47a1.63,1.63,0,0,1-.35,1.13,1.14,1.14,0,0,1-.89.39,1.17,1.17,0,0,1-.9-.38,1.63,1.63,0,0,1-.35-1.12V12A1.54,1.54,0,0,1,32,10.84a1.69,1.69,0,0,1,1.2-.35h3.19a8.71,8.71,0,0,1,2.18.21,3.34,3.34,0,0,1,1.3.7,3.16,3.16,0,0,1,.83,1.19A4.16,4.16,0,0,1,41,14.17,3.48,3.48,0,0,1,39.85,17,5.23,5.23,0,0,1,36.41,18Zm-.6-5.63H34.13V16.1h1.68a5.05,5.05,0,0,0,1.46-.18,1.64,1.64,0,0,0,.9-.6,1.79,1.79,0,0,0,.31-1.1A1.84,1.84,0,0,0,38,12.9,3.19,3.19,0,0,0,35.81,12.35Z"/></g></g></svg>