<svg xmlns="http://www.w3.org/2000/svg" viewBox="0 0 63.57 63.98"><defs><style>.cls-1{fill:#ffd3ae;}.cls-2{fill:none;stroke:#102f3a;stroke-linecap:round;stroke-linejoin:round;}.cls-3{fill:#102f3a;}</style></defs><g id="Layer_2" data-name="Layer 2"><g id="Layer_1-2" data-name="Layer 1"><path class="cls-1" d="M46,23,40.4,25.14l2.16-5.67L34.33,17V16.7l8.23-2.49L40.4,8.53,46,10.69,48.69.5l2.67,10.2L57,8.53,54.82,14.2,63,16.69l0,.26-8.25,2.52L57,25.12,51.36,23c-.86,3.31-1.71,6.54-2.55,9.76l-.22,0Z"/><path class="cls-2" d="M46,23,40.4,25.14l2.16-5.67L34.33,17V16.7l8.23-2.49L40.4,8.53,46,10.69,48.69.5l2.67,10.2L57,8.53,54.82,14.2,63,16.69l0,.26-8.25,2.52L57,25.12,51.36,23c-.86,3.31-1.71,6.54-2.55,9.76l-.22,0Z"/><path class="cls-1" d="M23.16,39.28,21,44.94l8.25,2.51v.26L21,50.22l2.17,5.65-5.62-2.15L15,63.43l-.23,0-2.57-9.75L6.56,55.89l2.18-5.67L.55,47.73.5,47.46,8.73,45,6.56,39.28l5.63,2.16,2.55-9.73H15l2.55,9.74Z"/><path class="cls-2" d="M23.16,39.28,21,44.94l8.25,2.51v.26L21,50.22l2.17,5.65-5.62-2.15L15,63.43l-.23,0-2.57-9.75L6.56,55.89l2.18-5.67L.55,47.73.5,47.46,8.73,45,6.56,39.28l5.63,2.16,2.55-9.73H15l2.55,9.74Z"/><path class="cls-2" d="M28,9.58l3.24-1-1,3.45,3.19,1.7-3.19,1.72,1,3.43-3.26-1-1.9,6.83L24.24,18l-3.27,1L22,15.46l-3.21-1.7,3.2-1.7L21,8.59l3.27,1,1.89-6.83Z"/><path class="cls-2" d="M34.21,51.69,37.4,50l-1-3.43,3.27.94,1.89-6.8,1.9,6.82,3.25-1-1,3.45,3.19,1.71-3.2,1.7,1,3.42-3.27-.93-1.79,6.43h-.21c-.58-2.1-1.16-4.2-1.79-6.43l-3.26.94,1-3.45Z"/><path class="cls-1" d="M38.38,31.24v1.91c-3.64.45-5.73,2.49-6.17,6.19H30.3c-.41-3.69-2.49-5.73-6.17-6.19V31.31c4.15-1,5.64-2.46,6.15-6.21h1.91C32.64,28.65,34.62,30.8,38.38,31.24Z"/><path class="cls-2" d="M38.38,31.24v1.91c-3.64.45-5.73,2.49-6.17,6.19H30.3c-.41-3.69-2.49-5.73-6.17-6.19V31.31c4.15-1,5.64-2.46,6.15-6.21h1.91C32.64,28.65,34.62,30.8,38.38,31.24Z"/><path class="cls-1" d="M8.63,15.76H6.73C6.31,12.06,4.22,10,.55,9.57V7.71C4.11,7.23,6.3,5.3,6.71,1.53H8.62c.45,3.56,2.44,5.69,6.16,6.14v1.9C11.15,10,9.07,12.08,8.63,15.76Z"/><path class="cls-2" d="M8.63,15.76H6.73C6.31,12.06,4.22,10,.55,9.57V7.71C4.11,7.23,6.3,5.3,6.71,1.53H8.62c.45,3.56,2.44,5.69,6.16,6.14v1.9C11.15,10,9.07,12.08,8.63,15.76Z"/><path class="cls-1" d="M57.89,62.93h-2a4.34,4.34,0,0,0-4.1-4.12V57.09a11.66,11.66,0,0,0,2.69-1.46,13.16,13.16,0,0,0,1.69-2.79h1.64a4.29,4.29,0,0,0,4.06,4v1.92C59.66,59.16,58.12,60.37,57.89,62.93Z"/><path class="cls-2" d="M57.89,62.93h-2a4.34,4.34,0,0,0-4.1-4.12V57.09a11.66,11.66,0,0,0,2.69-1.46,13.16,13.16,0,0,0,1.69-2.79h1.64a4.29,4.29,0,0,0,4.06,4v1.92C59.66,59.16,58.12,60.37,57.89,62.93Z"/><path class="cls-3" d="M10.72,34.33v1.91H8.78V34.33Z"/><path class="cls-3" d="M48.64,39.46v1.88H46.7V39.46Z"/><path class="cls-3" d="M38.51,4.58h1.88V6.51H38.51Z"/><path class="cls-3" d="M16.78,21.91H15V20h1.83Z"/><path class="cls-3" d="M8.6,26H6.74V24.1H8.6Z"/><path class="cls-3" d="M54.75,33.29v1.9h-1.9v-1.9Z"/><path class="cls-3" d="M29.31,55.84h1.87v1.91H29.31Z"/></g></g></svg>