<svg xmlns="http://www.w3.org/2000/svg" viewBox="0 0 65.28 65.15"><defs><style>.cls-1{fill:none;stroke:#102f3a;stroke-linecap:round;stroke-linejoin:round;stroke-width:1.5px;}.cls-2{fill:#ffd3ae;}</style></defs><g id="Layer_2" data-name="Layer 2"><g id="Layer_1-2" data-name="Layer 1"><rect class="cls-1" x="0.75" y="0.75" width="59.44" height="12.71"/><path class="cls-2" d="M2.78,13.46v36.1H30.5V43.11h2.14V32.47H43.31v-4H53.85v8.29l4.31-4.32v-19ZM40.17,25.24a3.22,3.22,0,0,1-2.31,1H23.14a3.27,3.27,0,0,1-3.27-3.27,3.28,3.28,0,0,1,3.27-3.26H37.86a3.26,3.26,0,0,1,2.31,5.57Z"/><path class="cls-1" d="M2.78,13.46v36.1H30.5V43.11h2.14V32.47H43.31v-4H53.85v8.29l4.31-4.32v-19ZM40.17,25.24a3.22,3.22,0,0,1-2.31,1H23.14a3.27,3.27,0,0,1-3.27-3.27,3.28,3.28,0,0,1,3.27-3.26H37.86a3.26,3.26,0,0,1,2.31,5.57Z"/><path class="cls-2" d="M30.5,43.11V64.4h34V43.11Zm22.71,8a2.11,2.11,0,0,1-1.52.63h-8.4a2.16,2.16,0,1,1,0-4.31h8.44a2.16,2.16,0,0,1,2.12,2.15A2.12,2.12,0,0,1,53.21,51.09Z"/><path class="cls-1" d="M30.5,43.11V64.4h34V43.11Zm22.71,8a2.11,2.11,0,0,1-1.52.63h-8.4a2.16,2.16,0,1,1,0-4.31h8.44a2.16,2.16,0,0,1,2.12,2.15A2.12,2.12,0,0,1,53.21,51.09Z"/><polygon class="cls-1" points="47.49 32.47 47.49 43.11 47.48 43.11 32.64 43.11 32.64 32.47 47.49 32.47"/><polygon class="cls-1" points="47.49 43.11 47.49 43.11 47.48 43.11 47.49 43.11"/><polygon class="cls-1" points="53.85 28.46 53.85 36.75 51.49 39.1 47.49 39.1 47.49 32.47 43.31 32.47 43.31 28.46 53.85 28.46"/><polygon class="cls-1" points="62.31 39.79 62.31 43.11 58.16 43.11 58.16 40.98 59.34 39.79 62.31 39.79"/><polygon class="cls-2" points="64.41 34.73 56.03 43.11 47.49 43.11 47.49 43.11 60.14 30.45 64.41 34.73"/><polygon class="cls-1" points="64.41 34.73 56.03 43.11 47.49 43.11 47.49 43.11 60.14 30.45 64.41 34.73"/><path class="cls-1" d="M41.13,22.93a3.28,3.28,0,0,1-3.27,3.27H23.14a3.27,3.27,0,0,1-3.27-3.27,3.28,3.28,0,0,1,3.27-3.26H37.86A3.26,3.26,0,0,1,41.13,22.93Z"/><path class="cls-1" d="M53.85,49.56a2.17,2.17,0,0,1-2.16,2.16h-8.4a2.16,2.16,0,1,1,0-4.31h8.44A2.16,2.16,0,0,1,53.85,49.56Z"/></g></g></svg>