<svg xmlns="http://www.w3.org/2000/svg" viewBox="0 0 60.37 60.62"><defs><style>.cls-1{fill:#ffd3ae;}.cls-2{fill:none;stroke:#102f3a;stroke-linecap:round;stroke-linejoin:round;}.cls-3{fill:#fff;}</style></defs><g id="Layer_2" data-name="Layer 2"><g id="Layer_1-2" data-name="Layer 1"><path class="cls-1" d="M30.18.89C27,3,23.87,7,23,10.12a7.46,7.46,0,1,0,14.22,4.51,8.69,8.69,0,0,0-1-6.94A22.57,22.57,0,0,0,30.18.89Z"/><path class="cls-2" d="M30.18.89C27,3,23.87,7,23,10.12a7.46,7.46,0,1,0,14.22,4.51,8.69,8.69,0,0,0-1-6.94A22.57,22.57,0,0,0,30.18.89Z"/><path class="cls-1" d="M45.89,14a22.34,22.34,0,0,0,1.59,3,7,7,0,0,0,7.7,2.34,6.2,6.2,0,0,0,4.67-5.5C60,11.51,58.7,10,57,8.65s-3.38-2.82-4.09-5c-.17-.52-.3-1-.46-1.63-2.22,2.1-2.5,4.51-.9,6.88a3.44,3.44,0,0,1-2.48,5.56A13.63,13.63,0,0,1,45.89,14Z"/><path class="cls-2" d="M45.89,14a22.34,22.34,0,0,0,1.59,3,7,7,0,0,0,7.7,2.34,6.2,6.2,0,0,0,4.67-5.5C60,11.51,58.7,10,57,8.65s-3.38-2.82-4.09-5c-.17-.52-.3-1-.46-1.63-2.22,2.1-2.5,4.51-.9,6.88a3.44,3.44,0,0,1-2.48,5.56A13.63,13.63,0,0,1,45.89,14Z"/><path class="cls-1" d="M3.2,19.55l.3.22,9.42-8.32a14.37,14.37,0,0,0-3.37-.28c-.89,0-1.3-.48-1.17-1.36s.28-1.46.42-2.19q.7-3.45,1.4-6.9L9.89.5.5,8.79a12.84,12.84,0,0,0,3.15.29c1.22,0,1.55.43,1.35,1.61-.06.37-.14.74-.22,1.1C4.26,14.38,3.73,17,3.2,19.55Z"/><path class="cls-2" d="M3.2,19.55l.3.22,9.42-8.32a14.37,14.37,0,0,0-3.37-.28c-.89,0-1.3-.48-1.17-1.36s.28-1.46.42-2.19q.7-3.45,1.4-6.9L9.89.5.5,8.79a12.84,12.84,0,0,0,3.15.29c1.22,0,1.55.43,1.35,1.61-.06.37-.14.74-.22,1.1C4.26,14.38,3.73,17,3.2,19.55Z"/><path class="cls-2" d="M3.2,19.55l.3.22,9.42-8.32a14.37,14.37,0,0,0-3.37-.28c-.89,0-1.3-.48-1.17-1.36s.28-1.46.42-2.19q.7-3.45,1.4-6.9L9.89.5.5,8.79a12.84,12.84,0,0,0,3.15.29c1.22,0,1.55.43,1.35,1.61-.06.37-.14.74-.22,1.1C4.26,14.38,3.73,17,3.2,19.55Z"/><path class="cls-1" d="M23.25,36.61l-5-3.06a15.39,15.39,0,0,0-4,9.43h8.35Z"/><path class="cls-1" d="M37.65,43H46a15.36,15.36,0,0,0-4-9.41c-1.62.94-3.13,1.8-4.61,2.7A1,1,0,0,0,37,37C37.17,39,37.42,41,37.65,43Z"/><path class="cls-1" d="M18.21,54.75c1.62-1,3.11-1.81,4.6-2.7.2-.12.47-.41.45-.6-.2-2-.46-4.08-.7-6.09H14.23A15.71,15.71,0,0,0,18.21,54.75Z"/><path class="cls-1" d="M42,54.77a15.64,15.64,0,0,0,4-9.42H37.62L37,51.71Z"/><path class="cls-1" d="M35.46,43l-.55-5.49H25.28L24.77,43Z"/><path class="cls-1" d="M34.91,51.17l.52-5.81H24.75l.58,5.83A18.42,18.42,0,0,1,34.91,51.17Z"/><path class="cls-1" d="M25.55,35a16.38,16.38,0,0,0,9.08-.08,56.2,56.2,0,0,0-2.56-5.33c-1.16-1.88-2.76-1.89-3.91,0A54.27,54.27,0,0,0,25.55,35Z"/><path class="cls-1" d="M25.58,53.53c1,1.92,1.76,3.84,2.86,5.56.91,1.4,2.25,1.33,3.33.06a13.78,13.78,0,0,0,2.58-5.79A13.73,13.73,0,0,0,25.58,53.53Z"/><path class="cls-1" d="M23.63,34.36l2.17-5.42-.18-.29-5.74,3,.08.43Z"/><path class="cls-1" d="M36.59,34.36,40.41,32a14.94,14.94,0,0,0-6-3.13Z"/><path class="cls-1" d="M19.54,56.49l6.11,3.18.15-.3L23.62,54Z"/><path class="cls-1" d="M36.59,54l-2.18,5.43.21.27,6.06-3.19Z"/><path class="cls-2" d="M23.25,36.61l-5-3.06a15.39,15.39,0,0,0-4,9.43h8.35Z"/><path class="cls-2" d="M37.65,43H46a15.36,15.36,0,0,0-4-9.41c-1.62.94-3.13,1.8-4.61,2.7A1,1,0,0,0,37,37C37.17,39,37.42,41,37.65,43Z"/><path class="cls-2" d="M18.21,54.75c1.62-1,3.11-1.81,4.6-2.7.2-.12.47-.41.45-.6-.2-2-.46-4.08-.7-6.09H14.23A15.71,15.71,0,0,0,18.21,54.75Z"/><path class="cls-2" d="M42,54.77a15.64,15.64,0,0,0,4-9.42H37.62L37,51.71Z"/><path class="cls-2" d="M35.46,43l-.55-5.49H25.28L24.77,43Z"/><path class="cls-2" d="M34.91,51.17l.52-5.81H24.75l.58,5.83A18.42,18.42,0,0,1,34.91,51.17Z"/><path class="cls-2" d="M25.55,35a16.38,16.38,0,0,0,9.08-.08,56.2,56.2,0,0,0-2.56-5.33c-1.16-1.88-2.76-1.89-3.91,0A54.27,54.27,0,0,0,25.55,35Z"/><path class="cls-2" d="M25.58,53.53c1,1.92,1.76,3.84,2.86,5.56.91,1.4,2.25,1.33,3.33.06a13.78,13.78,0,0,0,2.58-5.79A13.73,13.73,0,0,0,25.58,53.53Z"/><path class="cls-2" d="M23.63,34.36l2.17-5.42-.18-.29-5.74,3,.08.43Z"/><path class="cls-2" d="M36.59,34.36,40.41,32a14.94,14.94,0,0,0-6-3.13Z"/><path class="cls-2" d="M19.54,56.49l6.11,3.18.15-.3L23.62,54Z"/><path class="cls-2" d="M36.59,54l-2.18,5.43.21.27,6.06-3.19Z"/><path class="cls-3" d="M24.83,12.28c.17-.17.52-.8.89-.81a1.52,1.52,0,0,1,1.13.94,3.35,3.35,0,0,0,3.21,3.06c.39,0,.72.71,1.07,1.08-.43.35-.85,1-1.3,1C27.3,17.65,24.81,15.16,24.83,12.28Z"/><path class="cls-2" d="M24.83,12.28c.17-.17.52-.8.89-.81a1.52,1.52,0,0,1,1.13.94,3.35,3.35,0,0,0,3.21,3.06c.39,0,.72.71,1.07,1.08-.43.35-.85,1-1.3,1C27.3,17.65,24.81,15.16,24.83,12.28Z"/></g></g></svg>