<svg xmlns="http://www.w3.org/2000/svg" viewBox="0 0 62.85 63.19"><defs><style>.cls-1{fill:#ffd3ae;}.cls-2{fill:none;stroke:#102f3a;stroke-linecap:round;stroke-linejoin:round;}.cls-3{fill:#fff;}</style></defs><g id="Layer_2" data-name="Layer 2"><g id="Layer_1-2" data-name="Layer 1"><path class="cls-1" d="M12.31,14.91C12.31,21.37,7,25,7,25A12.62,12.62,0,0,1,1.64,14.91C1.64,8.62,7,4.73,7,4.73S12.31,9.1,12.31,14.91Z"/><path class="cls-2" d="M12.31,14.91C12.31,21.37,7,25,7,25A12.62,12.62,0,0,1,1.64,14.91C1.64,8.62,7,4.73,7,4.73S12.31,9.1,12.31,14.91Z"/><line class="cls-2" x1="6.98" y1="14.5" x2="6.98" y2="31.09"/><path class="cls-1" d="M56.53,13.83c0,8.47-7,13.28-7,13.28a16.54,16.54,0,0,1-7-13.28c0-8.23,7-13.33,7-13.33S56.53,6.22,56.53,13.83Z"/><path class="cls-2" d="M56.53,13.83c0,8.47-7,13.28-7,13.28a16.54,16.54,0,0,1-7-13.28c0-8.23,7-13.33,7-13.33S56.53,6.22,56.53,13.83Z"/><line class="cls-2" x1="49.54" y1="14.5" x2="49.54" y2="32.36"/><circle class="cls-2" cx="39.71" cy="45.23" r="1.06"/><path class="cls-2" d="M.83,49.94a40.77,40.77,0,0,1,14.75,3.4"/><path class="cls-2" d="M.5,40a50.68,50.68,0,0,1,22.24,5.79"/><path class="cls-2" d="M11.81,32A61,61,0,0,0,.5,30.64"/><path class="cls-2" d="M9.47,62.69A59.38,59.38,0,0,1,31,39.74"/><path class="cls-2" d="M40.35,35.1a58.85,58.85,0,0,1,21.43-4h.57"/><path class="cls-2" d="M45.43,42.76a47.76,47.76,0,0,1,15.83-2.87"/><path class="cls-2" d="M21.78,61.56c.72-1.1,1.48-2.17,2.29-3.21a48,48,0,0,1,6.87-7.16q1.69-1.44,3.52-2.72"/><path class="cls-2" d="M34.51,61.56a38.11,38.11,0,0,1,11.7-8.31,35.61,35.61,0,0,1,15-3.33"/><polygon class="cls-1" points="11.81 25.76 18.87 18.52 25.92 25.76 11.81 25.76"/><polygon class="cls-2" points="11.81 25.76 18.87 18.52 25.92 25.76 11.81 25.76"/><path class="cls-1" d="M25.92,25.76V36.9A59.6,59.6,0,0,0,11.81,32V25.76Z"/><path class="cls-2" d="M25.92,25.76V36.9A59.6,59.6,0,0,0,11.81,32V25.76Z"/><path class="cls-2" d="M25.92,36.9c-1.36-.68-2.75-1.3-4.17-1.88"/><path class="cls-2" d="M16.31,33.12c-1.48-.44-3-.82-4.5-1.15"/><path class="cls-3" d="M21.75,30V35c-1.77-.72-3.59-1.35-5.44-1.9V30Z"/><path class="cls-2" d="M21.75,30V35c-1.77-.72-3.59-1.35-5.44-1.9V30Z"/><polygon class="cls-1" points="18.87 18.52 33.1 18.52 40.35 25.77 25.92 25.77 18.87 18.52"/><polygon class="cls-2" points="18.87 18.52 33.1 18.52 40.35 25.77 25.92 25.77 18.87 18.52"/><path class="cls-1" d="M40.35,25.77V35.1A58.65,58.65,0,0,0,31,39.74c-1.64-1-3.33-2-5.07-2.84V25.77Z"/><path class="cls-2" d="M40.35,25.77V35.1A58.65,58.65,0,0,0,31,39.74c-1.64-1-3.33-2-5.07-2.84V25.77Z"/></g></g></svg>