<svg xmlns="http://www.w3.org/2000/svg" viewBox="0 0 56.78 62.98"><defs><style>.cls-1{fill:#ffd3ae;}.cls-2{fill:#fff;}.cls-3{fill:none;stroke:#102f3a;stroke-linecap:round;stroke-linejoin:round;}</style></defs><g id="Layer_2" data-name="Layer 2"><g id="Layer_1-2" data-name="Layer 1"><circle class="cls-1" cx="25.43" cy="6.46" r="5.96"/><circle class="cls-2" cx="25.43" cy="6.46" r="2.23"/><circle class="cls-3" cx="25.43" cy="6.46" r="2.23"/><circle class="cls-3" cx="25.43" cy="6.46" r="5.96"/><polyline class="cls-3" points="22.71 11.76 22.71 11.76 0.5 24.67 0.5 17.08 19.48 6.24 19.48 6.24"/><path class="cls-3" d="M29,11.23a19.76,19.76,0,0,1-2.41,18"/><path class="cls-3" d="M22.65,32.36,23.08,30a2,2,0,0,1,4,.36,2.31,2.31,0,0,1,0,.37l-.45,2.39"/><circle class="cls-1" cx="23.18" cy="39.75" r="7.41"/><circle class="cls-3" cx="23.18" cy="39.75" r="7.41"/><path class="cls-3" d="M11.75,41.15a10.85,10.85,0,0,1-.09-1.4,11.45,11.45,0,0,1,1.79-6.16"/><path class="cls-3" d="M8.45,38A14.41,14.41,0,0,1,9,35.32"/><path class="cls-1" d="M39.83,31.72H53.35a2.93,2.93,0,0,1,2.93,2.93V60.09a2.39,2.39,0,0,1-2.39,2.39H39.29a2.39,2.39,0,0,1-2.39-2.39V34.65A2.93,2.93,0,0,1,39.83,31.72Z"/><path class="cls-3" d="M39.83,31.72H53.35a2.93,2.93,0,0,1,2.93,2.93V60.09a2.39,2.39,0,0,1-2.39,2.39H39.29a2.39,2.39,0,0,1-2.39-2.39V34.65A2.93,2.93,0,0,1,39.83,31.72Z"/><path class="cls-3" d="M44.06,27.69h5.06a2.41,2.41,0,0,1,2.41,2.41v1.62a0,0,0,0,1,0,0H41.65a0,0,0,0,1,0,0V30.1A2.41,2.41,0,0,1,44.06,27.69Z"/><rect class="cls-2" x="41.65" y="36.64" width="9.89" height="4.03" rx="1.55"/><rect class="cls-2" x="41.65" y="45.29" width="9.89" height="4.03" rx="1.55"/><path class="cls-2" d="M46,54.14H47.2a2,2,0,0,1,2,2v6.3a0,0,0,0,1,0,0H43.94a0,0,0,0,1,0,0v-6.3A2,2,0,0,1,46,54.14Z"/><rect class="cls-3" x="41.65" y="36.64" width="9.89" height="4.03" rx="1.55"/><rect class="cls-3" x="41.65" y="45.29" width="9.89" height="4.03" rx="1.55"/><path class="cls-3" d="M46,54.14H47.2a2,2,0,0,1,2,2v6.3a0,0,0,0,1,0,0H43.94a0,0,0,0,1,0,0v-6.3A2,2,0,0,1,46,54.14Z"/></g></g></svg>