<svg xmlns="http://www.w3.org/2000/svg" viewBox="0 0 66.2 62.77"><defs><style>.cls-1{fill:#ffd3ae;}.cls-2{fill:none;stroke:#102f3a;stroke-linecap:round;stroke-linejoin:round;}.cls-3{fill:#fff;}.cls-4{fill:#102f3a;}</style></defs><g id="Layer_2" data-name="Layer 2"><g id="Layer_1-2" data-name="Layer 1"><path class="cls-1" d="M65.7,29V40.3H57.65a6.31,6.31,0,0,0-9.73,0H40.2V11.68H51.06a5.12,5.12,0,0,1,4.22,2.22Z"/><path class="cls-2" d="M65.7,29V40.3H57.65a6.31,6.31,0,0,0-9.73,0H40.2V11.68H51.06a5.12,5.12,0,0,1,4.22,2.22Z"/><circle class="cls-2" cx="52.78" cy="44.32" r="2.1"/><circle class="cls-2" cx="52.78" cy="44.32" r="2.1"/><path class="cls-2" d="M59.09,44.31a6.3,6.3,0,1,1-1.44-4A6.3,6.3,0,0,1,59.09,44.31Z"/><circle class="cls-2" cx="12.87" cy="44.32" r="2.1"/><path class="cls-2" d="M19.18,44.32a6.3,6.3,0,1,1-1.44-4A6.31,6.31,0,0,1,19.18,44.32Z"/><path class="cls-1" d="M37,33.93V40.3H17.74A6.31,6.31,0,0,0,8,40.3H2.43V33.93Z"/><path class="cls-2" d="M37,33.93V40.3H17.74A6.31,6.31,0,0,0,8,40.3H2.43V33.93Z"/><polygon class="cls-1" points="36.68 13.84 31.8 30.76 5.38 30.76 0.5 13.84 36.68 13.84"/><polygon class="cls-2" points="36.68 13.84 31.8 30.76 5.38 30.76 0.5 13.84 36.68 13.84"/><polygon class="cls-3" points="54.95 24.47 44.46 24.47 44.46 15.94 50.61 15.94 54.95 21.07 54.95 24.47"/><polygon class="cls-2" points="54.95 24.47 44.46 24.47 44.46 15.94 50.61 15.94 54.95 21.07 54.95 24.47"/><line class="cls-2" x1="44.46" y1="27.58" x2="46.8" y2="27.58"/><line class="cls-2" x1="7.83" y1="18.02" x2="10.36" y2="26.36"/><line class="cls-2" x1="14.22" y1="18.02" x2="16.75" y2="26.36"/><line class="cls-2" x1="20.49" y1="18.02" x2="23.02" y2="26.36"/><line class="cls-2" x1="26.76" y1="18.02" x2="29.29" y2="26.36"/><polygon class="cls-2" points="18.32 13.84 3.23 13.84 10.77 5.33 14.39 9.41 18.32 13.84"/><polygon class="cls-2" points="34.11 13.84 18.32 13.84 14.39 9.41 22.29 0.5 34.11 13.84"/><path class="cls-2" d="M61.67,30.58h4a0,0,0,0,1,0,0v5.31a0,0,0,0,1,0,0h-4a1.35,1.35,0,0,1-1.35-1.35V31.93A1.35,1.35,0,0,1,61.67,30.58Z"/><line class="cls-2" x1="0.5" y1="51.68" x2="65.3" y2="51.68"/><line class="cls-2" x1="0.5" y1="62.27" x2="65.3" y2="62.27"/><circle class="cls-4" cx="5.38" cy="55.9" r="1.02"/><circle class="cls-4" cx="14.97" cy="55.9" r="1.02"/><circle class="cls-4" cx="26.58" cy="58.09" r="1.02"/><circle class="cls-4" cx="37.07" cy="57.07" r="1.02"/><circle class="cls-4" cx="50.8" cy="56.04" r="1.02"/><circle class="cls-4" cx="60.3" cy="58.09" r="1.02"/></g></g></svg>