<svg xmlns="http://www.w3.org/2000/svg" viewBox="0 0 58.46 63.19"><defs><style>.cls-1{fill:#ffd3ae;}.cls-2{fill:none;stroke:#102f3a;stroke-linecap:round;stroke-linejoin:round;}.cls-3{fill:#fff;}</style></defs><g id="Layer_2" data-name="Layer 2"><g id="Layer_1-2" data-name="Layer 1"><rect class="cls-1" x="14.79" y="13.65" width="28.58" height="49.04"/><rect class="cls-2" x="14.79" y="13.65" width="28.58" height="49.04"/><rect class="cls-2" x="19.88" y="7.38" width="18.4" height="6.27"/><rect class="cls-3" x="23.03" y="20.6" width="11.53" height="6.17"/><rect class="cls-2" x="23.03" y="20.6" width="11.53" height="6.17"/><rect class="cls-3" x="23.03" y="34.62" width="11.53" height="6.17"/><rect class="cls-2" x="23.03" y="34.62" width="11.53" height="6.17"/><rect class="cls-3" x="24.95" y="51.21" width="8.26" height="11.48"/><rect class="cls-2" x="24.95" y="51.21" width="8.26" height="11.48"/><rect class="cls-1" x="0.5" y="32.54" width="14.29" height="30.15"/><rect class="cls-2" x="0.5" y="32.54" width="14.29" height="30.15"/><line class="cls-2" x1="7.32" y1="25.3" x2="7.32" y2="32.54"/><rect class="cls-1" x="43.38" y="32.54" width="14.59" height="30.15"/><rect class="cls-2" x="43.38" y="32.54" width="14.59" height="30.15"/><line class="cls-2" x1="50.67" y1="25.3" x2="50.67" y2="32.54"/><line class="cls-2" x1="29.08" y1="0.5" x2="29.08" y2="7.38"/><rect class="cls-3" x="4.67" y="39.54" width="5.62" height="2.79"/><rect class="cls-3" x="4.67" y="46.22" width="5.62" height="2.79"/><rect class="cls-3" x="4.67" y="52.9" width="5.62" height="2.79"/><rect class="cls-2" x="4.67" y="39.54" width="5.62" height="2.79"/><rect class="cls-2" x="4.67" y="46.22" width="5.62" height="2.79"/><rect class="cls-2" x="4.67" y="52.9" width="5.62" height="2.79"/><rect class="cls-3" x="47.86" y="39.54" width="5.62" height="2.79"/><rect class="cls-3" x="47.86" y="46.22" width="5.62" height="2.79"/><rect class="cls-3" x="47.86" y="52.9" width="5.62" height="2.79"/><rect class="cls-2" x="47.86" y="39.54" width="5.62" height="2.79"/><rect class="cls-2" x="47.86" y="46.22" width="5.62" height="2.79"/><rect class="cls-2" x="47.86" y="52.9" width="5.62" height="2.79"/></g></g></svg>