<svg xmlns="http://www.w3.org/2000/svg" viewBox="0 0 44.77 64.01"><defs><style>.cls-1{fill:#ffd3ae;}.cls-2{fill:none;stroke:#102f3a;stroke-linecap:round;stroke-linejoin:round;stroke-width:1.5px;}.cls-3{fill:#fff;}</style></defs><g id="Layer_2" data-name="Layer 2"><g id="Layer_1-2" data-name="Layer 1"><path class="cls-1" d="M36.44,18H8.26C8.45,9.88,14.68,3.35,22.35,3.35S36.26,9.88,36.44,18Z"/><path class="cls-2" d="M36.44,18H8.26C8.45,9.88,14.68,3.35,22.35,3.35S36.26,9.88,36.44,18Z"/><line class="cls-2" x1="36.44" y1="18.01" x2="8.26" y2="18.01"/><rect class="cls-2" x="7.05" y="18.01" width="30.67" height="3.15"/><rect class="cls-3" x="13.72" y="6.97" width="17.26" height="4.82" transform="translate(31.73 -12.97) rotate(90)"/><rect class="cls-2" x="13.72" y="6.97" width="17.26" height="4.82" transform="translate(31.73 -12.97) rotate(90)"/><line class="cls-2" x1="14.89" y1="11.4" x2="14.89" y2="18.01"/><line class="cls-2" x1="29.72" y1="11.4" x2="29.72" y2="18.01"/><path class="cls-2" d="M9.44,21.16H35.17a0,0,0,0,1,0,0v3.39A12.87,12.87,0,0,1,22.3,37.41h0A12.87,12.87,0,0,1,9.44,24.55V21.16A0,0,0,0,1,9.44,21.16Z"/><path class="cls-2" d="M15.84,35.67v3.7a6.62,6.62,0,0,0,.29,2"/><path class="cls-2" d="M28.77,35.67v3.7a6.42,6.42,0,0,1-.29,1.92"/><path class="cls-1" d="M8.52,42.54V63.26H.75V49.7a6.94,6.94,0,0,1,5.84-6.85Z"/><path class="cls-2" d="M8.52,42.54V63.26H.75V49.7a6.94,6.94,0,0,1,5.84-6.85Z"/><path class="cls-1" d="M44,49.7V63.26H36.09V42.51l2.09.34A6.94,6.94,0,0,1,44,49.7Z"/><path class="cls-2" d="M44,49.7V63.26H36.09V42.51l2.09.34A6.94,6.94,0,0,1,44,49.7Z"/><path class="cls-2" d="M36.09,42.51V63.26H8.52V42.54l7.61-1.22a6.47,6.47,0,0,0,12.35,0Z"/><line class="cls-2" x1="22.3" y1="45.84" x2="22.3" y2="63.26"/><line class="cls-2" x1="12.86" y1="51.33" x2="18.1" y2="51.33"/><line class="cls-2" x1="40.66" y1="53.45" x2="40.66" y2="57.35"/></g></g></svg>