<svg xmlns="http://www.w3.org/2000/svg" viewBox="0 0 49.89 63.19"><defs><style>.cls-1{fill:none;stroke:#102f3a;stroke-linecap:round;stroke-linejoin:round;}.cls-2{fill:#ffd3ae;}.cls-3{fill:#fff;}</style></defs><g id="Layer_2" data-name="Layer 2"><g id="Layer_1-2" data-name="Layer 1"><line class="cls-1" x1="42.78" y1="38.92" x2="42.78" y2="38.92"/><path class="cls-2" d="M47.27,26.84a18.64,18.64,0,0,1-.18,2.38H2.91a18.55,18.55,0,0,1-.18-3A19.32,19.32,0,0,1,15.33,8.42V7.64a1.41,1.41,0,0,1,1.42-1.42h2.79V2.43A1.92,1.92,0,0,1,21.46.5h6.68a1.92,1.92,0,0,1,1.92,1.93V6h2.88a1.43,1.43,0,0,1,1.42,1.42v.88A19.3,19.3,0,0,1,47.27,26.84Z"/><path class="cls-1" d="M47.27,26.84a18.64,18.64,0,0,1-.18,2.38H2.91a18.55,18.55,0,0,1-.18-3A19.32,19.32,0,0,1,15.33,8.42V7.64a1.41,1.41,0,0,1,1.42-1.42h2.79V2.43A1.92,1.92,0,0,1,21.46.5h6.68a1.92,1.92,0,0,1,1.92,1.93V6h2.88a1.43,1.43,0,0,1,1.42,1.42v.88A19.3,19.3,0,0,1,47.27,26.84Z"/><line class="cls-1" x1="15.33" y1="12.8" x2="15.33" y2="8.42"/><line class="cls-1" x1="34.36" y1="12.8" x2="34.36" y2="8.31"/><polygon class="cls-3" points="27 8 18.93 16.59 22.97 16.59 22.23 25.09 30.26 16.81 27.05 16.81 27 8"/><polygon class="cls-1" points="27 8 18.93 16.59 22.97 16.59 22.23 25.09 30.26 16.81 27.05 16.81 27 8"/><line class="cls-1" x1="12.08" y1="29.22" x2="37.85" y2="29.22"/><line class="cls-1" x1="15.28" y1="25.09" x2="15.28" y2="29.22"/><line class="cls-1" x1="34.41" y1="25.09" x2="34.41" y2="29.22"/><path class="cls-2" d="M49.39,31.46v4.06a1.1,1.1,0,0,1-1.1,1.1H1.61A1.1,1.1,0,0,1,.5,35.52V31.46a2.24,2.24,0,0,1,2.25-2.24h44.4A2.24,2.24,0,0,1,49.39,31.46Z"/><path class="cls-1" d="M49.39,31.46v4.06a1.1,1.1,0,0,1-1.1,1.1H1.61A1.1,1.1,0,0,1,.5,35.52V31.46a2.24,2.24,0,0,1,2.25-2.24h44.4A2.24,2.24,0,0,1,49.39,31.46Z"/><path class="cls-1" d="M6.94,36.62v8.69H6.88a4.49,4.49,0,0,1-4.49-4.49v-4.2Z"/><path class="cls-1" d="M42.78,36.62v8.69h.07a4.49,4.49,0,0,0,4.49-4.49v-4.2Z"/><path class="cls-1" d="M42.78,36.62V47.74a6.38,6.38,0,0,1-1.22,3.74l-5.41,7.41a9.25,9.25,0,0,1-7.48,3.8H21.05a9.24,9.24,0,0,1-7.47-3.8L8.16,51.48a6.38,6.38,0,0,1-1.22-3.74V36.62Z"/></g></g></svg>