<svg xmlns="http://www.w3.org/2000/svg" viewBox="0 0 63.03 62.91"><defs><style>.cls-1{fill:#ffd3ae;}.cls-2{fill:none;stroke:#102f3a;stroke-linecap:round;stroke-linejoin:round;}.cls-3{fill:#fff;}</style></defs><g id="Layer_2" data-name="Layer 2"><g id="Layer_1-2" data-name="Layer 1"><path class="cls-1" d="M34.79,15.38H9.11A12.84,12.84,0,0,1,18.8,3.07V.5h6.31V3.07A12.84,12.84,0,0,1,34.79,15.38Z"/><path class="cls-2" d="M34.79,15.38H9.11A12.84,12.84,0,0,1,18.8,3.07V.5h6.31V3.07A12.84,12.84,0,0,1,34.79,15.38Z"/><line class="cls-2" x1="25.11" y1="8.79" x2="25.11" y2="3.07"/><line class="cls-2" x1="18.8" y1="8.79" x2="18.8" y2="3.07"/><line class="cls-2" x1="35.63" y1="15.38" x2="34.79" y2="15.38"/><line class="cls-2" x1="9.11" y1="15.38" x2="8.27" y2="15.38"/><path class="cls-2" d="M31.67,15.38v5.2A9.71,9.71,0,0,1,22,30.31h0a9.73,9.73,0,0,1-9.73-9.73v-5.2Z"/><path class="cls-2" d="M28.35,27.91v4.51a6.41,6.41,0,0,1-6.4,6.4h0a6.41,6.41,0,0,1-6.4-6.4V27.91a9.72,9.72,0,0,0,6.4,2.4h0A9.74,9.74,0,0,0,28.35,27.91Z"/><line class="cls-2" x1="15.56" y1="32.62" x2="15.55" y2="32.62"/><path class="cls-2" d="M9.07,62.41H2.28A1.78,1.78,0,0,1,.5,60.63V41a8.4,8.4,0,0,1,8.4-8.4h.17"/><rect class="cls-1" x="28.35" y="32.62" width="6.39" height="29.79"/><rect class="cls-1" x="9.07" y="32.62" width="6.48" height="29.79"/><rect class="cls-2" x="28.35" y="32.62" width="6.39" height="29.79"/><line class="cls-2" x1="28.35" y1="62.41" x2="15.55" y2="62.41"/><path class="cls-2" d="M34.74,32.62H35A8.4,8.4,0,0,1,43.4,41V60.63a1.77,1.77,0,0,1-1.78,1.78H34.74"/><line class="cls-2" x1="28.35" y1="32.62" x2="28.34" y2="32.62"/><rect class="cls-2" x="9.07" y="32.62" width="6.48" height="29.79"/><rect class="cls-1" x="47.48" y="5.93" width="15.05" height="21.17" rx="6.57"/><rect class="cls-2" x="47.48" y="5.93" width="15.05" height="21.17" rx="6.57"/><path class="cls-2" d="M49.51,27.1h11a0,0,0,0,1,0,0v.21a4,4,0,0,1-4,4h-3a4,4,0,0,1-4-4V27.1A0,0,0,0,1,49.51,27.1Z"/><rect class="cls-1" x="50.7" y="31.33" width="8.52" height="4.23"/><rect class="cls-2" x="50.7" y="31.33" width="8.52" height="4.23"/><line class="cls-2" x1="50.7" y1="35.56" x2="47.49" y2="62.41"/><line class="cls-2" x1="59.22" y1="35.56" x2="62.42" y2="62.41"/><line class="cls-2" x1="54.96" y1="35.56" x2="54.96" y2="62.41"/><line class="cls-2" x1="53.25" y1="49.59" x2="56.67" y2="49.59"/><circle class="cls-3" cx="55.01" cy="12.25" r="2.2"/><circle class="cls-3" cx="55.01" cy="20.78" r="2.2"/><circle class="cls-2" cx="55.01" cy="12.25" r="2.2"/><circle class="cls-2" cx="55.01" cy="20.78" r="2.2"/></g></g></svg>