<svg xmlns="http://www.w3.org/2000/svg" viewBox="0 0 63.19 62.96"><defs><style>.cls-1{fill:#ffd3ae;}.cls-2{fill:none;stroke:#102f3a;stroke-linecap:round;stroke-linejoin:round;}</style></defs><g id="Layer_2" data-name="Layer 2"><g id="Layer_1-2" data-name="Layer 1"><path class="cls-1" d="M29.93,18.82c.07,2.54-1.72,2.62-3.12,6.67s.1,6.2-2.51,9.9-8.93,3.27-8.93,3.27A18.12,18.12,0,0,1,26.81,13.92S29.88,16.29,29.93,18.82Z"/><path class="cls-2" d="M29.93,18.82c.07,2.54-1.72,2.62-3.12,6.67s.1,6.2-2.51,9.9-8.93,3.27-8.93,3.27A18.12,18.12,0,0,1,26.81,13.92S29.88,16.29,29.93,18.82Z"/><path class="cls-1" d="M18.34,62.06S8,63.6,3,58.6a8.5,8.5,0,0,1,12-12C19.81,51.39,18.34,62.06,18.34,62.06Z"/><path class="cls-2" d="M50,31.28A18,18,0,0,1,47.77,40c-5.55-9.09-10.83-8.62-14-6.43s-2.89,6.49-1.65,9.81a18.66,18.66,0,0,1,1.22,6c-.47,0-.93.06-1.4.06A18.14,18.14,0,0,1,15.37,38.66s6.31.42,8.93-3.27,1.11-5.86,2.51-9.9,3.19-4.13,3.12-6.67-3.12-4.9-3.12-4.9a18.27,18.27,0,0,1,5.1-.73,17.94,17.94,0,0,1,7.22,1.5c-.84.34-5.32,2.38-4.32,6.3,1.08,4.33,3.52,1.74,5.78,3.48s4.15,2.72,8.55,1.29A17.76,17.76,0,0,1,50,31.28Z"/><path class="cls-2" d="M8.38,51.87A31,31,0,1,1,31.71,62.46"/><path class="cls-1" d="M49.14,25.76c-4.4,1.43-6.3.44-8.55-1.29s-4.69.85-5.78-3.47c-1-3.93,3.48-6,4.32-6.31a18.13,18.13,0,0,1,10,11.06Z"/><path class="cls-2" d="M49.14,25.76c-4.4,1.43-6.3.44-8.55-1.29s-4.69.85-5.78-3.47c-1-3.93,3.48-6,4.32-6.31a18.13,18.13,0,0,1,10,11.06Z"/><path class="cls-1" d="M47.78,40a18.13,18.13,0,0,1-14.47,9.34,18.46,18.46,0,0,0-1.21-6c-1.26-3.32-1.56-7.63,1.64-9.82S42.22,30.9,47.78,40Z"/><path class="cls-2" d="M47.78,40a18.13,18.13,0,0,1-14.47,9.34,18.46,18.46,0,0,0-1.21-6c-1.26-3.32-1.56-7.63,1.64-9.82S42.22,30.9,47.78,40Z"/><path class="cls-2" d="M18.34,62.06S8,63.6,3,58.6a8.5,8.5,0,0,1,12-12C19.81,51.39,18.34,62.06,18.34,62.06Z"/></g></g></svg>