<svg xmlns="http://www.w3.org/2000/svg" viewBox="0 0 62.63 62.7"><defs><style>.cls-1{fill:none;stroke:#102f3a;stroke-linecap:round;stroke-linejoin:round;}.cls-2{fill:#ffd3ae;}.cls-3{fill:#fff;}</style></defs><g id="Layer_2" data-name="Layer 2"><g id="Layer_1-2" data-name="Layer 1"><circle class="cls-1" cx="26.88" cy="26.88" r="26.38"/><path class="cls-1" d="M27.93,38.35V48.87l-1.05,0a22.39,22.39,0,0,1-3.19-.23V38.35a.85.85,0,0,1,.85-.85h2.54A.85.85,0,0,1,27.93,38.35Z"/><path class="cls-2" d="M32.11,18.22V48.27a22.89,22.89,0,0,1-4.18.6V38.35a.85.85,0,0,0-.85-.85H24.54a.85.85,0,0,0-.85.85V48.66A22,22,0,0,1,11.17,42.3V18.22a1.81,1.81,0,0,1,1.8-1.8H30.31A1.8,1.8,0,0,1,32.11,18.22Z"/><path class="cls-1" d="M32.11,18.22V48.27a22.89,22.89,0,0,1-4.18.6V38.35a.85.85,0,0,0-.85-.85H24.54a.85.85,0,0,0-.85.85V48.66A22,22,0,0,1,11.17,42.3V18.22a1.81,1.81,0,0,1,1.8-1.8H30.31A1.8,1.8,0,0,1,32.11,18.22Z"/><path class="cls-2" d="M44.84,23.71v15.9a22.09,22.09,0,0,1-12.73,8.66V21.69H42.83A2,2,0,0,1,44.84,23.71Z"/><path class="cls-1" d="M44.84,23.71v15.9a22.09,22.09,0,0,1-12.73,8.66V21.69H42.83A2,2,0,0,1,44.84,23.71Z"/><path class="cls-1" d="M44.84,39.61V23.71a2,2,0,0,0-2-2H32.11V18.22a1.8,1.8,0,0,0-1.8-1.8H13a1.81,1.81,0,0,0-1.8,1.8V42.3a22,22,0,1,1,33.67-2.69Z"/><rect class="cls-3" x="15.27" y="20.68" width="4.24" height="4.24" rx="1.24"/><rect class="cls-3" x="23.69" y="20.68" width="4.24" height="4.24" rx="1.24"/><rect class="cls-3" x="15.27" y="29.09" width="4.24" height="4.24" rx="1.24"/><rect class="cls-3" x="23.69" y="29.09" width="4.24" height="4.24" rx="1.24"/><rect class="cls-3" x="15.27" y="37.5" width="4.24" height="4.24" rx="1.24"/><rect class="cls-1" x="15.27" y="20.68" width="4.24" height="4.24" rx="1.24"/><rect class="cls-1" x="23.69" y="20.68" width="4.24" height="4.24" rx="1.24"/><rect class="cls-3" x="36.35" y="25.83" width="4.24" height="4.24" rx="1.24"/><rect class="cls-3" x="36.35" y="34.1" width="4.24" height="4.24" rx="1.24"/><rect class="cls-1" x="36.35" y="25.83" width="4.24" height="4.24" rx="1.24"/><rect class="cls-1" x="36.35" y="34.1" width="4.24" height="4.24" rx="1.24"/><rect class="cls-1" x="15.27" y="29.09" width="4.24" height="4.24" rx="1.24"/><rect class="cls-1" x="23.69" y="29.09" width="4.24" height="4.24" rx="1.24"/><rect class="cls-1" x="15.27" y="37.5" width="4.24" height="4.24" rx="1.24"/><rect class="cls-2" x="46.4" y="51.71" width="16.73" height="6.24" rx="1.82" transform="translate(54.81 -22.66) rotate(45)"/><rect class="cls-1" x="46.4" y="51.71" width="16.73" height="6.24" rx="1.82" transform="translate(54.81 -22.66) rotate(45)"/><line class="cls-1" x1="50.23" y1="47.47" x2="46.87" y2="44.1"/><line class="cls-1" x1="47.4" y1="50.3" x2="44.03" y2="46.93"/></g></g></svg>