<svg xmlns="http://www.w3.org/2000/svg" viewBox="0 0 63.24 63.24"><defs><style>.cls-1,.cls-3{fill:#ffd3ae;}.cls-1,.cls-2{stroke:#102f3a;stroke-linecap:round;stroke-linejoin:round;}.cls-2{fill:none;}</style></defs><g id="Layer_2" data-name="Layer 2"><g id="Layer_1-2" data-name="Layer 1"><path class="cls-1" d="M23.82,39.34a4.59,4.59,0,0,0,4.33,6.13h-26A1.65,1.65,0,0,1,.5,43.82V2.16A1.66,1.66,0,0,1,2.16.5H14.47V14.28a9.83,9.83,0,0,0,9.82,9.83h4.95l-.06.12Z"/><path class="cls-2" d="M61.09.5H14.47V14.28a9.83,9.83,0,0,0,9.82,9.83h4.95l-.06.12L23.82,39.34a4.59,4.59,0,0,0,4.33,6.13H61.09a1.65,1.65,0,0,0,1.65-1.65V2.16A1.65,1.65,0,0,0,61.09.5ZM37.72,44.61h0a4.57,4.57,0,0,0,1.66-5.32L33.83,24.21l0-.1a10.64,10.64,0,0,1,3.94,20.5Z"/><path class="cls-1" d="M44.35,34.58a10.75,10.75,0,0,1-6.63,10h0a4.57,4.57,0,0,0,1.66-5.32L33.83,24.21l0-.1A10.67,10.67,0,0,1,44.35,34.58Z"/><path class="cls-2" d="M37.69,44.62a11.05,11.05,0,0,1-4.23.85H28.15"/><path class="cls-3" d="M37.69,44.62a4.54,4.54,0,0,1-2.66.85H28.15a4.59,4.59,0,0,1-4.33-6.13l5.36-15.11.06-.12a2.67,2.67,0,0,1,4.54,0l0,.1L39.35,39.3A4.57,4.57,0,0,1,37.69,44.62Z"/><path class="cls-2" d="M35,45.47H28.15a4.59,4.59,0,0,1-4.33-6.13l5.36-15.11a2.66,2.66,0,0,1,4.65,0L39.35,39.3A4.59,4.59,0,0,1,35,45.47Z"/><line class="cls-2" x1="8.87" y1="31.46" x2="11.41" y2="31.46"/><line class="cls-2" x1="13.2" y1="36.88" x2="15.74" y2="36.88"/><line class="cls-2" x1="21.01" y1="36.88" x2="24.69" y2="36.88"/><line class="cls-2" x1="16.81" y1="31.46" x2="26.61" y2="31.46"/><rect class="cls-2" x="29.38" y="45.47" width="4.38" height="4.1"/><path class="cls-3" d="M31.57,62.74h0a4,4,0,0,1-4-4.4l.68-8.77h6.57l.68,8.77A4,4,0,0,1,31.57,62.74Z"/><path class="cls-2" d="M31.57,62.74h0a4,4,0,0,1-4-4.4l.68-8.77h6.57l.68,8.77A4,4,0,0,1,31.57,62.74Z"/><line class="cls-2" x1="14.47" y1="6.79" x2="62.74" y2="6.79"/><line class="cls-2" x1="16.15" y1="19.78" x2="62.74" y2="19.78"/><line class="cls-2" x1="44.12" y1="32.55" x2="62.74" y2="32.55"/><line class="cls-2" x1="48.67" y1="0.5" x2="48.67" y2="6.79"/><line class="cls-2" x1="31.62" y1="6.79" x2="31.62" y2="19.78"/><line class="cls-2" x1="48.7" y1="19.78" x2="48.7" y2="32.55"/></g></g></svg>