<svg xmlns="http://www.w3.org/2000/svg" viewBox="0 0 63.13 62.91"><defs><style>.cls-1{fill:#ffd3ae;}.cls-2{fill:none;stroke:#102f3a;stroke-linecap:round;stroke-linejoin:round;}.cls-3{fill:#fff;}</style></defs><g id="Layer_2" data-name="Layer 2"><g id="Layer_1-2" data-name="Layer 1"><path class="cls-1" d="M34.79,15.38H9.11A12.84,12.84,0,0,1,18.8,3.07V.5h6.31V3.07A12.84,12.84,0,0,1,34.79,15.38Z"/><path class="cls-2" d="M34.79,15.38H9.11A12.84,12.84,0,0,1,18.8,3.07V.5h6.31V3.07A12.84,12.84,0,0,1,34.79,15.38Z"/><line class="cls-2" x1="25.11" y1="8.79" x2="25.11" y2="3.07"/><line class="cls-2" x1="18.8" y1="8.79" x2="18.8" y2="3.07"/><line class="cls-2" x1="35.63" y1="15.38" x2="34.79" y2="15.38"/><line class="cls-2" x1="9.11" y1="15.38" x2="8.27" y2="15.38"/><path class="cls-2" d="M31.67,15.38v5.2A9.71,9.71,0,0,1,22,30.31h0a9.73,9.73,0,0,1-9.73-9.73v-5.2Z"/><path class="cls-2" d="M28.35,27.91v4.51a6.41,6.41,0,0,1-6.4,6.4h0a6.41,6.41,0,0,1-6.4-6.4V27.91a9.72,9.72,0,0,0,6.4,2.4h0A9.74,9.74,0,0,0,28.35,27.91Z"/><line class="cls-2" x1="15.56" y1="32.62" x2="15.55" y2="32.62"/><path class="cls-2" d="M9.07,62.41H2.28A1.78,1.78,0,0,1,.5,60.63V41a8.4,8.4,0,0,1,8.4-8.4h.17"/><rect class="cls-1" x="28.35" y="32.62" width="6.39" height="29.79"/><rect class="cls-1" x="9.07" y="32.62" width="6.48" height="29.79"/><rect class="cls-2" x="28.35" y="32.62" width="6.39" height="29.79"/><path class="cls-2" d="M34.74,32.62H35A8.4,8.4,0,0,1,43.4,41V60.63a1.77,1.77,0,0,1-1.78,1.78H34.74"/><line class="cls-2" x1="28.35" y1="32.62" x2="28.34" y2="32.62"/><rect class="cls-2" x="9.07" y="32.62" width="6.48" height="29.79"/><path class="cls-1" d="M62.63,13.07a10,10,0,0,1-6.92,9.53,10.14,10.14,0,0,1-3.09.48,10,10,0,1,1,0-20c.33,0,.66,0,1,0L47.82,8.89l1.9,7.1,7.1,1.9,5.76-5.76C62.61,12.44,62.63,12.75,62.63,13.07Z"/><path class="cls-2" d="M62.63,13.07a10,10,0,0,1-6.92,9.53,10.14,10.14,0,0,1-3.09.48,10,10,0,1,1,0-20c.33,0,.66,0,1,0L47.82,8.89l1.9,7.1,7.1,1.9,5.76-5.76C62.61,12.44,62.63,12.75,62.63,13.07Z"/><path class="cls-2" d="M55.71,22.6V49.38a7.08,7.08,0,0,0-8.12,0V21.73a10,10,0,0,0,5,1.35A10.14,10.14,0,0,0,55.71,22.6Z"/><path class="cls-1" d="M58.74,55.19a7.09,7.09,0,1,1-11.15-5.81,7.09,7.09,0,0,1,11.15,5.81Z"/><path class="cls-2" d="M58.74,55.19a7.09,7.09,0,1,1-11.15-5.81,7.09,7.09,0,0,1,11.15,5.81Z"/><polygon class="cls-3" points="53.43 52.1 49.87 52.1 48.09 55.19 49.87 58.27 53.43 58.27 55.21 55.19 53.43 52.1"/><polygon class="cls-2" points="53.43 52.1 49.87 52.1 48.09 55.19 49.87 58.27 53.43 58.27 55.21 55.19 53.43 52.1"/></g></g></svg>