<svg xmlns="http://www.w3.org/2000/svg" viewBox="0 18.417 244 42.75"><path fill="#007DB5" d="M36.36 27.892c-3.738 0-6.881 1.266-9.412 3.795-2.529 2.531-3.793 5.669-3.793 9.412 0 3.73 1.269 6.859 3.805 9.387 2.541 2.531 5.673 3.796 9.4 3.796 3.729 0 6.863-1.265 9.389-3.796 2.532-2.528 3.797-5.657 3.797-9.387 0-3.743-1.261-6.881-3.785-9.412-2.519-2.529-5.655-3.795-9.401-3.795m5.659 18.865c-1.507 1.504-3.395 2.257-5.658 2.257-2.257 0-4.153-.752-5.667-2.257-1.513-1.504-2.27-3.386-2.27-5.645 0-2.276.752-4.166 2.257-5.67 1.51-1.505 3.404-2.256 5.68-2.256 2.263 0 4.151.756 5.658 2.267 1.505 1.513 2.26 3.398 2.26 5.659-.001 2.26-.755 4.141-2.26 5.645m79.205-18.787c-3.734 0-6.863 1.263-9.383 3.783-2.519 2.523-3.78 5.651-3.78 9.382 0 3.718 1.267 6.837 3.793 9.358 2.532 2.522 5.656 3.782 9.37 3.782 3.713 0 6.839-1.26 9.362-3.782 2.515-2.521 3.778-5.641 3.778-9.358 0-3.731-1.256-6.859-3.769-9.382-2.514-2.52-5.637-3.783-9.371-3.783m5.636 18.806c-1.502 1.5-3.379 2.249-5.635 2.249-2.255 0-4.137-.75-5.645-2.249-1.513-1.5-2.265-3.374-2.265-5.627 0-2.268.749-4.152 2.246-5.652 1.503-1.5 3.393-2.249 5.664-2.249 2.257 0 4.133.754 5.635 2.259 1.504 1.508 2.253 3.388 2.253 5.641-.001 2.255-.749 4.129-2.253 5.628m-30.74-18.89a9.55 9.55 0 0 0-6.982 3.032 9.552 9.552 0 0 0-6.985-3.032c-5.296 0-9.587 4.293-9.587 9.588v16.78h5.209v-16.78a4.383 4.383 0 0 1 4.378-4.378 4.383 4.383 0 0 1 4.379 4.378v16.78h5.21v-16.78a4.383 4.383 0 0 1 4.377-4.378 4.383 4.383 0 0 1 4.38 4.378v16.78h5.208v-16.78a9.586 9.586 0 0 0-9.587-9.588m-26.97 7.306s1.913-2.086.562-4.856c-1.217-2.489-4.069-2.424-4.069-2.424l-13.74-.002v5.246l12.115-.003-11.224 14.1s-1.512 1.89-.491 4.317c1.106 2.632 3.93 2.688 3.93 2.688l13.971-.023v-5.252l-12.042.001L69.15 35.192zM13.215 49.028c-2.267 0-4.157-.753-5.669-2.261-1.518-1.506-2.277-3.392-2.277-5.656 0-2.265.759-4.15 2.277-5.658 1.511-1.506 3.402-2.26 5.669-2.26 2.523 0 4.556.984 6.114 2.927l3.737-3.755c-2.61-2.969-5.892-4.465-9.852-4.465-3.75 0-6.887 1.266-9.417 3.793C1.266 34.226 0 37.364 0 41.111c0 3.745 1.266 6.881 3.798 9.402 2.53 2.522 5.667 3.785 9.417 3.785 3.942 0 7.233-1.473 9.864-4.421l-3.744-3.746c-1.585 1.932-3.625 2.897-6.12 2.897"/><path fill="#626469" d="M142.171 23.759h-3.14v4.154h-2.32v3.361h2.322v22.998h3.138V31.274h4.034v-3.361h-4.034zm93.008 0h3.139v30.513h-3.139zm6.599 2.358a.686.686 0 0 0-.165-.103c.198-.027.344-.09.439-.191a.52.52 0 0 0 .142-.369.587.587 0 0 0-.086-.311.458.458 0 0 0-.229-.196 1.217 1.217 0 0 0-.418-.056h-.913v2.059h.272v-.915h.317c.07 0 .12.003.151.01a.414.414 0 0 1 .124.055.634.634 0 0 1 .138.138c.051.066.117.16.197.284l.272.428h.342l-.358-.561c-.07-.108-.145-.2-.225-.272m-.372-.316h-.585v-.681h.652c.152 0 .264.031.335.094a.31.31 0 0 1 .106.241.336.336 0 0 1-.055.184.307.307 0 0 1-.16.123.908.908 0 0 1-.293.039"/><path fill="#626469" d="M241.336 23.759a2.15 2.15 0 0 0-2.148 2.147 2.15 2.15 0 0 0 2.148 2.148 2.149 2.149 0 0 0 0-4.295m0 3.962a1.818 1.818 0 0 1-1.816-1.816 1.817 1.817 0 0 1 3.631 0 1.817 1.817 0 0 1-1.815 1.816m-80.648.203c-.579-.005-1.17.021-1.784.103-2.913.391-5.288 1.498-7.221 3.342v-3.443h-3.139v26.347h3.139v-14.15c.028-1.43-.046-2.634.157-3.52.144-.63.29-1.095.694-1.631 1.599-2.11 3.446-3.133 6.212-3.505.468-.063 1.494-.061 1.941-.059v-3.484zm43.895-.018l-7.805 21.98-7.877-21.98h-3.347l8.883 24.723c.026.077.052.156.085.226.168.407.446.75.789 1.009.407.304.912.491 1.468.491.55 0 1.054-.181 1.462-.491a2.34 2.34 0 0 0 .788-1.009c.033-.071.059-.149.084-.226l8.811-24.723h-3.341zm-21.477 3.749c-2.519-2.557-5.569-3.803-9.325-3.803-3.757 0-6.812 1.245-9.34 3.805-2.526 2.561-3.753 5.655-3.753 9.459 0 3.784 1.232 6.87 3.765 9.43 2.539 2.561 5.59 3.805 9.328 3.805 3.741 0 6.788-1.245 9.315-3.802.198-.201.373-.411.555-.618l.001 4.34h3.199l-.004-13.21c-.013-3.778-1.235-6.856-3.741-9.406m.544 9.543c-.015 2.804-.965 5.179-2.826 7.058-1.877 1.9-4.246 2.862-7.043 2.862-2.797 0-5.168-.962-7.05-2.857-1.887-1.896-2.845-4.296-2.845-7.131 0-2.847.949-5.252 2.821-7.154 1.878-1.897 4.257-2.859 7.074-2.859 2.796 0 5.166.967 7.045 2.873 1.861 1.891 2.809 4.269 2.825 7.071v.137zm45.445-9.542c-2.519-2.558-5.569-3.803-9.325-3.803-3.757 0-6.813 1.245-9.34 3.805-2.525 2.561-3.753 5.655-3.753 9.459 0 3.784 1.231 6.87 3.765 9.429 2.538 2.561 5.59 3.806 9.328 3.806 3.741 0 6.788-1.245 9.315-3.803 1.291-1.311 2.227-2.767 2.845-4.377l-2.909-1.405a9.457 9.457 0 0 1-2.208 3.488c-1.877 1.899-4.246 2.862-7.043 2.862-2.797 0-5.169-.963-7.05-2.857-1.717-1.724-2.656-3.869-2.813-6.374h22.9c.011-.256.032-.508.032-.77 0-.825-.069-1.61-.185-2.37-.42-2.744-1.587-5.084-3.559-7.09m-18.968 7.092a9.516 9.516 0 0 1 2.568-4.772c1.877-1.896 4.257-2.859 7.074-2.859 2.796 0 5.166.967 7.044 2.874a9.556 9.556 0 0 1 2.57 4.755l-19.256.002z"/></svg>