<?xml version="1.0" encoding="utf-8"?>
<!-- Generator: Adobe Illustrator 22.1.0, SVG Export Plug-In . SVG Version: 6.00 Build 0)  -->
<svg version="1.1" id="Layer_1" xmlns="http://www.w3.org/2000/svg" xmlns:xlink="http://www.w3.org/1999/xlink" x="0px" y="0px"
	 viewBox="0 0 109.7 29.8" style="enable-background:new 0 0 109.7 29.8;" xml:space="preserve">
<style type="text/css">
	.st0{fill:#27A5DD;}
	.st1{clip-path:url(#SVGID_2_);fill:#FDC63F;}
	.st2{clip-path:url(#SVGID_2_);fill:#27A5DD;}
</style>
<g>
	<polygon class="st0" points="17.7,15.7 17.7,15.7 10.7,8.3 9.6,8.3 9.6,21.3 12.5,21.3 12.5,14 19.5,21.5 20.6,21.5 20.6,8.5 
		17.7,8.5 	"/>
	<g>
		<defs>
			<rect id="SVGID_1_" x="0.4" y="0.2" width="109" height="29.4"/>
		</defs>
		<clipPath id="SVGID_2_">
			<use xlink:href="#SVGID_1_"  style="overflow:visible;"/>
		</clipPath>
		<path class="st1" d="M27.9,21.3c-2.8,6.7-10.4,9.8-17.1,7.1S0.9,18,3.7,11.3c0.5-1.2,1.1-2.2,1.9-3.1c0.9-1.3,2.1-2.3,3.4-3
			c3.4-2.1,7.8-2.5,11.8-0.9C27.5,7,30.6,14.7,27.9,21.3 M28.7,20.6c3.1-7.5-0.4-16.1-7.9-19.2C13.2-1.8,4.6,1.8,1.5,9.3
			c-3.1,7.5,0.4,16.1,7.9,19.2C17,31.6,25.6,28.1,28.7,20.6"/>
		<path class="st1" d="M20.5,4.8c-1.7-0.7-3.5-1-5.3-0.9c0.9,0.1,1.7,0.2,2.6,0.5c0.3,0.1,0.6,0.2,0.9,0.3c0.2,0.1,0.3,0.1,0.5,0.2
			c5.4,2.5,7.8,8.8,5.5,14.2c-2.3,5.6-8.8,8.3-14.4,6c-4.5-1.9-7.1-6.4-6.8-11c-1,5.6,2,11.4,7.5,13.7c6.3,2.6,13.6-0.4,16.3-6.7
			C29.9,14.7,26.9,7.4,20.5,4.8"/>
		<path class="st1" d="M27.9,21.3c-2.8,6.7-10.4,9.8-17.1,7.1S0.9,18,3.7,11.3c0.5-1.2,1.1-2.2,1.9-3.1c0.9-1.3,2.1-2.3,3.4-3
			c3.4-2.1,7.8-2.5,11.8-0.9C27.5,7,30.6,14.7,27.9,21.3 M28.7,20.6c3.1-7.5-0.4-16.1-7.9-19.2C13.2-1.8,4.6,1.8,1.5,9.3
			c-3.1,7.5,0.4,16.1,7.9,19.2C17,31.6,25.6,28.1,28.7,20.6"/>
		<polygon class="st2" points="41.5,12.2 41.5,12.2 34.7,5 33.7,5 33.7,17.6 36.5,17.6 36.5,10.6 43.2,17.8 44.3,17.8 44.3,5.3 
			41.5,5.3 		"/>
		<polygon class="st2" points="46.7,17.6 46.7,17.6 49.5,17.6 49.5,5.3 46.7,5.3 		"/>
		<path class="st2" d="M58.3,9.3c0,1-0.6,1.6-1.7,1.6h-1.9V7.7h1.9C57.6,7.7,58.3,8.3,58.3,9.3 M61.1,9.3c0-1.2-0.5-2.2-1.3-2.9
			c-0.8-0.7-1.9-1.1-3.2-1.1h-4.7v12.3h2.8v-4.2h1.6l3.1,4.2h3.1L59,12.8C60.3,12.1,61.1,10.8,61.1,9.3"/>
		<polygon class="st2" points="70.6,5.3 70.6,5.3 67.7,12.3 64.8,5.3 61.7,5.3 67.2,17.8 68.2,17.8 73.7,5.3 		"/>
		<path class="st2" d="M79.7,13.7L79.7,13.7h-2.8l1.4-3.5L79.7,13.7z M78.8,5L78.8,5h-1l-5.4,12.3l-0.1,0.2h3l0.7-1.6h4.7l0.7,1.6h3
			L78.8,5L78.8,5z"/>
		<polygon class="st2" points="93.3,12.2 93.3,12.2 86.6,5 85.6,5 85.6,17.6 88.3,17.6 88.3,10.6 95.1,17.8 96.1,17.8 96.1,5.3 
			93.3,5.3 		"/>
		<path class="st2" d="M104.7,13.7L104.7,13.7h-2.8l1.4-3.5L104.7,13.7z M103.9,5.1L103.9,5.1L103.9,5.1l-1-0.1l-5.5,12.5h3L101,16
			h4.7l0.7,1.6h3L103.9,5.1z"/>
		<polygon class="st2" points="35.2,22.7 35.2,22.7 33.7,22.7 33.7,22 37.4,22 37.4,22.7 35.9,22.7 35.9,26.4 35.2,26.4 		"/>
		<path class="st2" d="M39.2,24.1L39.2,24.1h0.9c0.5,0,0.8-0.3,0.8-0.7c0-0.4-0.3-0.7-0.8-0.7h-0.9V24.1z M41.2,26.4L41.2,26.4
			L40,24.7h-0.8v1.7h-0.7V22h1.6c0.9,0,1.5,0.6,1.5,1.4c0,0.6-0.3,1-0.8,1.2l1.3,1.8H41.2z"/>
		<path class="st2" d="M44.8,23.3L44.8,23.3L44,25.1h1.5L44.8,23.3z M45.8,25.7L45.8,25.7h-2l-0.3,0.7h-0.8l1.9-4.5h0.2l1.9,4.5
			h-0.8L45.8,25.7z"/>
		<polygon class="st2" points="51.2,22 51.2,22 49.2,26.5 49,26.5 47,22 47.8,22 49.1,25.1 50.4,22 		"/>
		<polygon class="st2" points="52.3,22 52.3,22 55.2,22 55.2,22.7 53,22.7 53,23.8 54.6,23.8 54.6,24.4 53,24.4 53,25.8 55.3,25.8 
			55.3,26.4 52.3,26.4 		"/>
		<polygon class="st2" points="56.5,22 56.5,22 57.2,22 57.2,25.8 59.3,25.8 59.3,26.4 56.5,26.4 		"/>
		<path class="st2" d="M63.7,23.3L63.7,23.3L63,25.1h1.5L63.7,23.3z M64.7,25.7L64.7,25.7h-2l-0.3,0.7h-0.8l1.9-4.5h0.2l1.9,4.5H65
			L64.7,25.7z"/>
		<polygon class="st2" points="70.5,22 70.5,22 70.5,26.5 70.3,26.5 67.6,23.4 67.6,26.4 66.9,26.4 66.9,21.9 67.1,21.9 69.8,25 
			69.8,22 		"/>
		<path class="st2" d="M73.5,25.8c1,0,1.7-0.7,1.7-1.6c0-0.9-0.6-1.6-1.7-1.6h-0.7v3.1H73.5z M72.1,22L72.1,22h1.4
			c1.4,0,2.4,0.9,2.4,2.2c0,1.3-1,2.2-2.4,2.2h-1.4V22z"/>
		<polygon class="st2" points="80.2,22.7 80.2,22.7 78.7,22.7 78.7,22 82.4,22 82.4,22.7 80.9,22.7 80.9,26.4 80.2,26.4 		"/>
		<path class="st2" d="M85.4,22.6c-0.9,0-1.6,0.7-1.6,1.6c0,0.9,0.7,1.6,1.6,1.6c0.9,0,1.6-0.7,1.6-1.6C87,23.3,86.3,22.6,85.4,22.6
			 M85.4,21.9c1.3,0,2.3,1,2.3,2.3c0,1.3-1.1,2.3-2.3,2.3c-1.3,0-2.3-1-2.3-2.3C83.1,23,84.1,21.9,85.4,21.9"/>
		<path class="st2" d="M89,22L89,22h0.7v2.7c0,0.7,0.5,1.2,1.1,1.2c0.6,0,1.1-0.4,1.1-1.2V22h0.7v2.6c0,1.2-0.8,1.9-1.8,1.9
			c-1.1,0-1.8-0.7-1.8-1.9V22z"/>
		<path class="st2" d="M94.8,24.1L94.8,24.1h0.9c0.5,0,0.8-0.3,0.8-0.7c0-0.4-0.3-0.7-0.8-0.7h-0.9V24.1z M96.8,26.4L96.8,26.4
			l-1.3-1.7h-0.8v1.7h-0.7V22h1.6c0.9,0,1.5,0.6,1.5,1.4c0,0.6-0.3,1-0.8,1.2l1.3,1.8H96.8z"/>
		<polygon class="st2" points="98.7,22 98.7,22 99.4,22 99.4,26.4 98.7,26.4 		"/>
		<path class="st2" d="M101.2,25.2c0.3,0.4,0.6,0.7,1.2,0.7c0.5,0,0.8-0.2,0.8-0.6c0-0.3-0.2-0.4-0.6-0.7l-0.5-0.2
			c-0.6-0.3-1-0.6-1-1.2c0-0.7,0.6-1.2,1.4-1.2c0.6,0,1.1,0.3,1.4,0.8l-0.5,0.4c-0.2-0.3-0.6-0.5-0.9-0.5c-0.4,0-0.7,0.2-0.7,0.5
			c0,0.3,0.2,0.4,0.6,0.6l0.5,0.2c0.7,0.3,1.1,0.7,1.1,1.3c0,0.8-0.6,1.3-1.5,1.3c-0.7,0-1.3-0.4-1.7-1L101.2,25.2z"/>
		<polygon class="st2" points="109.3,21.9 109.3,21.9 109.3,26.4 108.6,26.4 108.6,23.7 107.4,25.3 107.1,25.3 105.9,23.7 
			105.9,26.4 105.1,26.4 105.1,21.9 105.4,21.9 107.2,24.4 109.1,21.9 		"/>
	</g>
</g>
</svg>
