<?xml version="1.0" encoding="utf-8"?>
<!-- Generator: Adobe Illustrator 16.0.0, SVG Export Plug-In . SVG Version: 6.00 Build 0)  -->
<!DOCTYPE svg PUBLIC "-//W3C//DTD SVG 1.1//EN" "http://www.w3.org/Graphics/SVG/1.1/DTD/svg11.dtd">
<svg version="1.1" id="Layer_1" xmlns="http://www.w3.org/2000/svg" xmlns:xlink="http://www.w3.org/1999/xlink" x="0px" y="0px"
	 width="262.686px" height="98.777px" viewBox="0 0 262.686 98.777" enable-background="new 0 0 262.686 98.777"
	 xml:space="preserve">
<polygon fill="#F58120" points="262.685,96.359 204.135,96.359 194.686,74.117 262.685,74.117 "/>
<g>
	<path fill="#FFFFFF" d="M208.08,81.885h-3.377v-1.988h9.197v1.988h-3.377v8.564h-2.442L208.08,81.885L208.08,81.885z"/>
	<path fill="#FFFFFF" d="M217.21,89.922c-0.88-0.472-1.567-1.123-2.065-1.953c-0.498-0.826-0.747-1.762-0.747-2.797
		c0-1.036,0.249-1.968,0.747-2.797s1.187-1.479,2.065-1.953c0.879-0.472,1.867-0.708,2.963-0.708c1.097,0,2.081,0.236,2.955,0.708
		c0.875,0.476,1.563,1.124,2.065,1.953c0.502,0.83,0.755,1.765,0.755,2.797c0,1.035-0.251,1.971-0.755,2.797
		c-0.502,0.83-1.19,1.48-2.065,1.953c-0.875,0.476-1.858,0.709-2.955,0.709C219.077,90.631,218.09,90.395,217.21,89.922z
		 M221.862,88.12c0.504-0.287,0.896-0.686,1.185-1.199c0.286-0.513,0.431-1.096,0.431-1.749c0-0.65-0.145-1.234-0.431-1.75
		c-0.287-0.513-0.681-0.912-1.185-1.196c-0.502-0.286-1.064-0.433-1.688-0.433c-0.624,0-1.188,0.146-1.688,0.433
		c-0.503,0.284-0.896,0.686-1.185,1.196c-0.286,0.516-0.43,1.099-0.43,1.75c0,0.654,0.144,1.236,0.43,1.749
		c0.287,0.516,0.682,0.912,1.185,1.199c0.502,0.287,1.064,0.43,1.688,0.43C220.796,88.55,221.359,88.407,221.862,88.12z"/>
	<path fill="#FFFFFF" d="M228.956,89.379c-0.839-0.834-1.259-2.022-1.259-3.57v-5.911h2.442v5.817c0,1.893,0.783,2.835,2.353,2.835
		c0.764,0,1.347-0.229,1.749-0.686c0.401-0.457,0.603-1.174,0.603-2.149v-5.817h2.413v5.911c0,1.548-0.419,2.736-1.259,3.57
		c-0.839,0.835-2.014,1.252-3.521,1.252S229.795,90.214,228.956,89.379z"/>
	<path fill="#FFFFFF" d="M246.395,90.45l-2.036-2.94h-0.12h-2.127v2.94h-2.442V79.895h4.569c0.935,0,1.746,0.153,2.435,0.468
		c0.688,0.312,1.22,0.754,1.592,1.327c0.371,0.573,0.559,1.251,0.559,2.036c0,0.782-0.188,1.46-0.565,2.025
		c-0.377,0.568-0.912,1.002-1.605,1.307l2.367,3.393L246.395,90.45L246.395,90.45z M245.776,82.36
		c-0.382-0.316-0.939-0.478-1.674-0.478h-1.99v3.682h1.99c0.733,0,1.292-0.161,1.674-0.483c0.383-0.321,0.573-0.771,0.573-1.354
		C246.349,83.132,246.158,82.677,245.776,82.36z"/>
	<path fill="#FFFFFF" d="M251.799,90.292c-0.777-0.226-1.403-0.521-1.877-0.882l0.83-1.839c0.453,0.332,0.99,0.598,1.613,0.799
		s1.245,0.302,1.868,0.302c0.693,0,1.207-0.103,1.538-0.309c0.332-0.206,0.498-0.48,0.498-0.822c0-0.251-0.1-0.46-0.294-0.626
		s-0.447-0.299-0.754-0.396c-0.308-0.103-0.724-0.211-1.244-0.332c-0.806-0.191-1.463-0.385-1.978-0.573
		c-0.513-0.191-0.951-0.498-1.317-0.92c-0.367-0.422-0.552-0.985-0.552-1.688c0-0.61,0.166-1.169,0.498-1.667s0.832-0.892,1.5-1.184
		c0.67-0.292,1.486-0.438,2.451-0.438c0.674,0,1.332,0.081,1.977,0.241s1.206,0.395,1.688,0.693l-0.754,1.854
		c-0.977-0.553-1.951-0.83-2.927-0.83c-0.685,0-1.188,0.111-1.517,0.332c-0.325,0.224-0.489,0.516-0.489,0.875
		c0,0.362,0.188,0.634,0.563,0.81s0.953,0.349,1.729,0.52c0.807,0.191,1.463,0.382,1.977,0.573s0.953,0.493,1.318,0.905
		c0.367,0.412,0.553,0.97,0.553,1.673c0,0.604-0.171,1.154-0.508,1.648c-0.337,0.497-0.842,0.895-1.516,1.187
		s-1.492,0.438-2.459,0.438C253.385,90.631,252.579,90.518,251.799,90.292z"/>
</g>
<g>
	<path d="M171.587,49.493c-2.729,0-4.943-2.22-4.943-4.946c0-2.729,2.215-4.943,4.943-4.943c2.727,0,4.946,2.216,4.946,4.943
		C176.533,47.272,174.313,49.493,171.587,49.493 M171.587,40.381c-2.294,0-4.161,1.871-4.161,4.165s1.867,4.166,4.161,4.166
		c2.301,0,4.161-1.871,4.161-4.166C175.748,42.252,173.886,40.381,171.587,40.381"/>
	<path d="M169.123,47.608V41.48h2.479c0.5,0,0.879,0.052,1.137,0.161c0.262,0.111,0.469,0.306,0.626,0.589
		c0.156,0.276,0.232,0.584,0.232,0.925c0,0.432-0.129,0.803-0.389,1.099c-0.257,0.296-0.656,0.488-1.188,0.567
		c0.195,0.104,0.346,0.201,0.446,0.305c0.217,0.214,0.426,0.489,0.615,0.813l0.972,1.67h-0.93l-0.741-1.273
		c-0.218-0.367-0.4-0.647-0.533-0.846c-0.141-0.196-0.27-0.332-0.377-0.41c-0.108-0.074-0.224-0.131-0.346-0.166
		c-0.079-0.013-0.216-0.023-0.407-0.023h-0.856v2.722L169.123,47.608L169.123,47.608z M169.862,44.185h1.595
		c0.335,0,0.603-0.039,0.793-0.113c0.188-0.079,0.332-0.201,0.435-0.367c0.102-0.17,0.152-0.353,0.152-0.549
		c0-0.292-0.104-0.528-0.292-0.715c-0.193-0.188-0.493-0.283-0.909-0.283h-1.772L169.862,44.185L169.862,44.185z"/>
</g>
<path d="M88.613,79.55H77.884L72.35,93.35c-0.383,0.982-0.58,1.593-0.58,1.827c0,0.546,0.41,0.82,1.235,0.82v0.362h-5.449v-0.362
	c0.727,0,1.324-0.177,1.832-0.543c0.497-0.347,1.035-1.271,1.643-2.755l13.252-33.447h0.665l13.021,32.291
	c0,0.171,0.342,0.945,1.008,2.352c0.676,1.399,1.689,2.104,3.063,2.104v0.362H93.5V96c0.769,0,1.148-0.323,1.148-0.92
	c0-0.412-0.18-1.086-0.563-1.979c-0.064-0.071-0.113-0.184-0.172-0.333c-0.021-0.155-0.06-0.251-0.067-0.251L88.613,79.55z
	 M78.222,78.514h9.9l-4.938-12.468L78.222,78.514z"/>
<path d="M121.789,59.81h5.489v0.382c-0.7,0.046-1.257,0.196-1.712,0.478c-0.445,0.305-0.963,0.87-1.548,1.755l-8.934,13.531v16.753
	c0,1.351,0.177,2.232,0.528,2.655c0.35,0.417,1.121,0.634,2.267,0.634v0.362h-9.763v-0.362c1.872,0.12,2.808-0.624,2.808-2.203
	l-0.053-1.051V77.293l-8.967-14.833c-0.938-1.566-1.991-2.32-3.146-2.268V59.81h8.637v0.382c-0.823,0-1.212,0.296-1.212,0.905
	c0,0.314,0.207,0.801,0.616,1.463l7.389,12.155l8.052-12.258c0.147-0.131,0.303-0.372,0.504-0.714
	c0.179-0.362,0.26-0.605,0.26-0.744c0-0.548-0.357-0.81-1.068-0.81h-0.146L121.789,59.81L121.789,59.81z"/>
<path d="M159.573,59.81h7.066v0.382c-1.074,0.031-1.82,0.257-2.229,0.669c-0.417,0.427-0.626,1.312-0.626,2.669v33.282
	l-29.167-31.057v27.036c0,0.853,0.071,1.494,0.192,1.906c0.144,0.417,0.321,0.705,0.579,0.854c0.255,0.142,0.871,0.285,1.856,0.441
	v0.362h-7.016v-0.362c1.252,0,2.044-0.229,2.331-0.68c0.334-0.447,0.477-1.508,0.477-3.192V67.396c0-2.172-0.294-3.941-0.908-5.312
	c-0.61-1.36-2.003-2.006-4.188-1.896v-0.38h6.869l27.411,29.179V63.177c0-1.386-0.237-2.232-0.742-2.534
	c-0.506-0.316-1.134-0.453-1.908-0.453L159.573,59.81L159.573,59.81z"/>
<path d="M188.398,79.55h-10.745l-5.523,13.801c-0.386,0.982-0.563,1.593-0.563,1.827c0,0.546,0.392,0.82,1.209,0.82v0.362h-5.45
	v-0.362c0.734,0,1.352-0.177,1.838-0.543c0.499-0.347,1.044-1.271,1.635-2.755l13.269-33.447h0.637l13.045,32.291
	c0,0.171,0.333,0.945,1.009,2.352c0.661,1.399,1.694,2.104,3.053,2.104v0.362h-8.527V96c0.771,0,1.158-0.323,1.158-0.92
	c0-0.412-0.185-1.086-0.576-1.979c-0.07-0.071-0.115-0.184-0.175-0.333c-0.021-0.155-0.048-0.251-0.048-0.251L188.398,79.55z
	 M178.023,78.514h9.883l-4.957-12.468L178.023,78.514z"/>
<path d="M0,34.02v-0.647h18.271c4.658,0,8.009,0.085,10.054,0.291c2.089,0.201,4.193,0.884,6.377,2.026
	c2.168,1.161,3.815,2.726,4.922,4.693c1.1,1.952,1.66,4.37,1.66,7.241c0,3.265-0.974,6.38-2.95,9.337
	c-1.978,2.974-4.754,5.46-8.332,7.502l4.542,6.994c0.999,1.75,3.624,5.576,7.899,11.495c4.271,5.917,7.561,9.508,9.896,10.806
	c2.343,1.309,4.6,1.945,6.789,1.945c2.157,0,4.627-0.834,7.432-2.488l0.271,0.865c-3.507,2.866-8.055,4.294-13.638,4.294
	c-3.73,0-6.938-1.104-9.609-3.31C40.89,92.859,36.24,86.811,29.591,76.9c-0.06-0.063-0.092-0.121-0.092-0.183l-6.477-9.943
	l-5.729,0.156H12.07v24.637c0,1.976,0.279,3.395,0.768,4.265c0.525,0.854,1.787,1.281,3.793,1.281v0.645H0v-0.645
	c2.074-0.085,3.367-0.522,3.869-1.308C4.375,95.017,4.635,93.409,4.635,91V39.828c0-1.659-0.208-3.042-0.651-4.146
	C3.548,34.613,2.218,34.041,0,34.02 M12.07,35.052v30.222h6.75c5.32,0,9.247-1.242,11.845-3.776c2.555-2.49,3.837-5.771,3.837-9.86
	c0-3.963-1.259-7.718-3.783-11.264c-2.521-3.54-6.972-5.318-13.343-5.318L12.07,35.052L12.07,35.052z"/>
<g>
	<path fill="#FBD10C" d="M109.839,0l4.4,50.754c0,0,7.164-0.692,11.093,0.648c3.314,1.136,3.117,4.853,3.128,4.356
		c0.48-20.801-0.38-45.715-0.38-45.715S115.139,7.417,109.839,0"/>
	<path fill="#F58120" d="M127.234,0.714l6.812,46.885l7.807-1.624l-0.696-45.249C141.154,0.724,132.745,4.641,127.234,0.714"/>
	<path fill="#23A1D1" d="M113.289,50.19c-2.715-13.872-5.729-29.133-5.934-29.625c-4.467-1.723-10.453,9.161-16.706,3.198
		c-3.563-3.382,5.688,12.933,14.316,27.625L113.289,50.19z"/>
	<path fill="#DD2431" d="M139.55,23.376c0,0,22.326,5.4,20.771,11.252c-1.488,5.632-6.91,21.918-10.337,32.109
		c-1.732-3.982-5.551-6.908-10.192-7.28L139.55,23.376z"/>
	<path fill="#FBD10C" d="M109.839,0l4.4,50.754c0,0,7.164-0.692,11.093,0.648c3.314,1.136,3.117,4.853,3.128,4.356
		c0.48-20.801-0.38-45.715-0.38-45.715S115.139,7.417,109.839,0"/>
	<path fill="#F58120" d="M127.234,0.714l6.812,46.885l7.807-1.624l-0.696-45.249C141.154,0.724,132.745,4.641,127.234,0.714"/>
	<path fill="#23A1D1" d="M113.289,50.19c-2.715-13.872-5.729-29.133-5.934-29.625c-4.467-1.723-10.453,9.161-16.706,3.198
		c-3.563-3.382,5.688,12.933,14.316,27.625L113.289,50.19z"/>
	<path fill="#DD2431" d="M139.55,23.376c0,0,22.326,5.4,20.771,11.252c-1.488,5.632-6.91,21.918-10.337,32.109
		c-1.732-3.982-5.551-6.908-10.192-7.28L139.55,23.376z"/>
</g>
<path d="M88.613,79.55H77.884L72.35,93.35c-0.383,0.982-0.58,1.593-0.58,1.827c0,0.546,0.41,0.82,1.235,0.82v0.362h-5.449v-0.362
	c0.727,0,1.324-0.177,1.832-0.543c0.497-0.347,1.035-1.271,1.643-2.755l13.252-33.447h0.665l13.021,32.291
	c0,0.171,0.342,0.945,1.008,2.352c0.676,1.399,1.689,2.104,3.063,2.104v0.362H93.5V96c0.769,0,1.148-0.323,1.148-0.92
	c0-0.412-0.18-1.086-0.563-1.979c-0.064-0.071-0.113-0.184-0.172-0.333c-0.021-0.155-0.06-0.251-0.067-0.251L88.613,79.55z
	 M78.222,78.514h9.9l-4.938-12.468L78.222,78.514z"/>
<path d="M121.789,59.81h5.489v0.382c-0.7,0.046-1.257,0.196-1.712,0.478c-0.445,0.305-0.963,0.87-1.548,1.755l-8.934,13.531v16.753
	c0,1.351,0.177,2.232,0.528,2.655c0.35,0.417,1.121,0.634,2.267,0.634v0.362h-9.763v-0.362c1.872,0.12,2.808-0.624,2.808-2.203
	l-0.053-1.051V77.293l-8.967-14.833c-0.938-1.566-1.991-2.32-3.146-2.268V59.81h8.637v0.382c-0.823,0-1.212,0.296-1.212,0.905
	c0,0.314,0.207,0.801,0.616,1.463l7.389,12.155l8.052-12.258c0.147-0.131,0.303-0.372,0.504-0.714
	c0.179-0.362,0.26-0.605,0.26-0.744c0-0.548-0.357-0.81-1.068-0.81h-0.146L121.789,59.81L121.789,59.81z"/>
<path d="M159.573,59.81h7.066v0.382c-1.074,0.031-1.82,0.257-2.229,0.669c-0.417,0.427-0.626,1.312-0.626,2.669v33.282
	l-29.167-31.057v27.036c0,0.853,0.071,1.494,0.192,1.906c0.144,0.417,0.321,0.705,0.579,0.854c0.255,0.142,0.871,0.285,1.856,0.441
	v0.362h-7.016v-0.362c1.252,0,2.044-0.229,2.331-0.68c0.334-0.447,0.477-1.508,0.477-3.192V67.396c0-2.172-0.294-3.941-0.908-5.312
	c-0.61-1.36-2.003-2.006-4.188-1.896v-0.38h6.869l27.411,29.179V63.177c0-1.386-0.237-2.232-0.742-2.534
	c-0.506-0.316-1.134-0.453-1.908-0.453L159.573,59.81L159.573,59.81z"/>
<path d="M188.398,79.55h-10.745l-5.523,13.801c-0.386,0.982-0.563,1.593-0.563,1.827c0,0.546,0.392,0.82,1.209,0.82v0.362h-5.45
	v-0.362c0.734,0,1.352-0.177,1.838-0.543c0.499-0.347,1.044-1.271,1.635-2.755l13.269-33.447h0.637l13.045,32.291
	c0,0.171,0.333,0.945,1.009,2.352c0.661,1.399,1.694,2.104,3.053,2.104v0.362h-8.527V96c0.771,0,1.158-0.323,1.158-0.92
	c0-0.412-0.185-1.086-0.576-1.979c-0.07-0.071-0.115-0.184-0.175-0.333c-0.021-0.155-0.048-0.251-0.048-0.251L188.398,79.55z
	 M178.023,78.514h9.883l-4.957-12.468L178.023,78.514z"/>
<path d="M0,34.02v-0.647h18.271c4.658,0,8.009,0.085,10.054,0.291c2.089,0.201,4.193,0.884,6.377,2.026
	c2.168,1.161,3.815,2.726,4.922,4.693c1.1,1.952,1.66,4.37,1.66,7.241c0,3.265-0.974,6.38-2.95,9.337
	c-1.978,2.974-4.754,5.46-8.332,7.502l4.542,6.994c0.999,1.75,3.624,5.576,7.899,11.495c4.271,5.917,7.561,9.508,9.896,10.806
	c2.343,1.309,4.6,1.945,6.789,1.945c2.157,0,4.627-0.834,7.432-2.488l0.271,0.865c-3.507,2.866-8.055,4.294-13.638,4.294
	c-3.73,0-6.938-1.104-9.609-3.31C40.89,92.859,36.24,86.811,29.591,76.9c-0.06-0.063-0.092-0.121-0.092-0.183l-6.477-9.943
	l-5.729,0.156H12.07v24.637c0,1.976,0.279,3.395,0.768,4.265c0.525,0.854,1.787,1.281,3.793,1.281v0.645H0v-0.645
	c2.074-0.085,3.367-0.522,3.869-1.308C4.375,95.017,4.635,93.409,4.635,91V39.828c0-1.659-0.208-3.042-0.651-4.146
	C3.548,34.613,2.218,34.041,0,34.02 M12.07,35.052v30.222h6.75c5.32,0,9.247-1.242,11.845-3.776c2.555-2.49,3.837-5.771,3.837-9.86
	c0-3.963-1.259-7.718-3.783-11.264c-2.521-3.54-6.972-5.318-13.343-5.318L12.07,35.052L12.07,35.052z"/>
</svg>
