<?xml version="1.0" encoding="UTF-8"?>
<!DOCTYPE svg PUBLIC "-//W3C//DTD SVG 1.1//EN" "http://www.w3.org/Graphics/SVG/1.1/DTD/svg11.dtd">
<!-- Creator: CorelDRAW 2020 (64-Bit) -->
<svg xmlns="http://www.w3.org/2000/svg" xml:space="preserve" width="222.575mm" height="157.879mm" version="1.1" style="shape-rendering:geometricPrecision; text-rendering:geometricPrecision; image-rendering:optimizeQuality; fill-rule:evenodd; clip-rule:evenodd"
viewBox="0 0 22066.32 15652.27"
 xmlns:xlink="http://www.w3.org/1999/xlink"
 xmlns:xodm="http://www.corel.com/coreldraw/odm/2003">
 <defs>
  <style type="text/css">
   <![CDATA[
    .fil1 {fill:#2E318E}
    .fil2 {fill:#2F338F}
    .fil0 {fill:#F6D705}
   ]]>
  </style>
 </defs>
 <g id="Слой_x0020_1">
  <metadata id="CorelCorpID_0Corel-Layer"/>
  <path class="fil0" d="M16016.61 4939.92c0,47.01 2.33,94.03 2.33,141.38 0,10.67 -0.34,21.67 -0.34,32.34 -274.08,0.34 -645.85,-5 -913.92,-16 0.34,-20.01 0.34,-40.34 1,-60.68 131.03,-4556.96 -6852.6,-5809.65 -8374.03,-1259.69 -266.74,-40.01 -709.2,-101.02 -980.94,-130.03 1881.53,-5696.61 10276.57,-4301.89 10265.9,1292.7l0 -0.01zm-2451.36 358.44c-1.34,12.67 -2,24.34 -2.67,36.01 -1,13.01 -1.67,26.34 -3,38.35 -1.67,27.01 -5.67,55.01 -8.66,82.02l-64.02 -4.01c-71.02,-4.33 -166.05,-11.67 -260.74,-19.34 -101.7,-8.34 -202.72,-17.67 -274.41,-25l-67.02 -6.67 10.34 -98.03 3 -35.68 2.33 -36.01c35.68,-699.19 -256.07,-1271.03 -704.54,-1659.47 -279.75,-242.4 -620.51,-413.79 -981.28,-500.47 -360.44,-86.69 -740.55,-89.03 -1098.31,6.34 -561.16,149.71 -1070.3,540.82 -1368.72,1225.01l-22.01 50.68 -53.35 -11.67c-81.02,-17.34 -185.72,-38.67 -281.41,-57.68 -80.69,-16 -161.71,-31.01 -227.06,-42.34l-84.36 -14.34 34.01 -78.35c416.78,-965.27 1157.32,-1503.75 1961.56,-1690.14 464.47,-107.7 950.27,-97.36 1406.73,16 456.79,113.7 884.59,330.76 1233.02,636.84 578.16,507.47 937.94,1259.02 850.57,2187.95l0 0.01zm1101.31 -198.39c-1,35.68 -0.34,71.35 -1.34,107.36 -0.34,8.34 -0.66,16.68 -1,24.68 -208.39,0.34 -476.47,-0.34 -680.19,-8.34 0.66,-15.34 1.34,-31.01 2,-46.35 1,-35.68 1.34,-71.35 1,-106.7 -36.67,-3351.28 -5016.08,-4429.25 -6266.44,-995.95 -201.72,-30.34 -537.15,-76.69 -743.21,-99.03 1560.44,-4334.23 7823.88,-3132.55 7689.17,1124.32l0 0.01z"/>
  <path class="fil1" d="M232.49 4815.88c3.33,15 2463.7,-769.55 4989.07,-411.12 467.46,66.36 989.94,155.37 1550.44,257.74 -11.33,131.7 -17.34,265.41 -17.34,400.11 0,2545.38 2220.96,4608.3 4607.96,4608.3 2387,0 4139.5,-1582.78 4566.96,-3685.38 43.34,-0.34 35.68,-0.34 78.69,-1 1634.46,-19.67 5445.88,-976.27 6058.04,-2406.68 -1305.04,1270.69 -4434.25,1646.13 -7079,1509.42 -2753.78,-142.04 -5236.48,-1073.64 -8019.27,-1363.72 -2236.3,-233.06 -4789.02,-95.69 -6735.57,1092.31l0.01 0.01zm13268.75 1003.62c-14.01,28.67 -28.67,57.35 -43.68,85.36 -409.78,761.22 -1169.67,1289.7 -2094.92,1289.7 -1236.01,0 -2256.31,-923.93 -2408.01,-2118.94 -119.03,-22.67 -237.4,-45.35 -355.1,-67.68 122.03,1419.07 1312.37,2532.71 2763.12,2532.71 1115.65,0 2032.91,-669.52 2473.03,-1619.12 9.67,-20.34 19.01,-41.01 28.01,-61.69 -120.03,-12.67 -240.73,-26 -362.44,-40.34l0.01 0zm-3798.08 -602.16c223.73,728.54 901.92,1258.36 1703.81,1258.36 592.5,0 1117.31,-289.09 1441.4,-733.87 -1032.29,-141.7 -2104.26,-330.09 -3145.23,-524.48l0.01 -0.01zm-1711.15 -323.43c-0.66,15 -1,30.01 -1.34,44.68 -0.66,24.34 -1,48.35 -1,72.35 0,1834.18 1696.81,3328.61 3372.95,3328.61 1676.14,0 2798.12,-1018.29 3194.24,-2409.35 163.05,12.67 323.76,23.34 481.81,32.01 -419.46,1639.13 -1906.21,2850.81 -3676.04,2850.81 -2095.59,0 -3794.4,-1698.81 -3794.4,-3794.74 0,-69.02 2,-138.03 5.67,-206.39 154.71,29.35 259.74,51.68 418.12,82.02l-0.01 0z"/>
  <path class="fil2" d="M682.94 13412.98c266.41,-261.08 716.21,-600.17 1043.29,-448.13 454.13,210.72 210.4,987.94 -231.4,1314.37 -219.4,162.38 -561.5,243.06 -817.23,58.68 -329.76,-238.07 -277.74,-647.85 5.33,-924.93zm18758.96 2208.96c331.43,15.67 1129.65,-256.07 1303.37,-528.82 335.42,-527.48 -31.01,-988.28 -363.77,-1345.38 -747.88,-701.86 458.13,-1330.04 528.48,-930.26 16,91.02 6.34,156.71 -9.34,205.39 -85.36,259.08 187.05,110.03 258.07,30.34 173.72,-195.39 131.03,-387.11 -93.69,-543.82 -472.47,-329.09 -2049.91,640.51 -875.25,1690.48 15,13.33 55.01,49.02 59.02,52.68l52.68 57.68c632.51,684.19 -307.42,1144.33 -896.92,1247.02 -171.71,29.67 -59.68,60.02 37.35,64.69l-0.01 0zm-4085.15 -2220.96l392.11 -914.59c-165.38,-26.34 -339.43,-23.01 -509.14,-10 -47.35,3.67 -81.69,3.33 -124.7,20.34 -105.37,41.68 -154.71,218.73 24.34,272.75l125.7 38.01c0.66,84.36 -182.72,493.48 -227.73,571.83 -179.71,313.43 -307.75,694.53 -243.4,1041.29 56.01,302.42 216.4,308.76 493.8,189.72 511.14,-219.06 1168.99,-1115.98 1006.95,-453.12 -127.04,519.82 81.36,629.84 540.82,585.16 135.7,-13.33 273.07,-70.02 325.42,-181.72 55.01,-117.36 28.01,-126.7 -62.69,-154.37 -155.37,-47.68 -445.46,-155.05 -302.08,-490.47 3.33,-7.67 8.66,-16.68 12.01,-24l371.44 -734.87c185.06,-457.47 88.69,-742.21 -187.39,-329.76 -388.45,580.16 -2264.97,1903.87 -1635.46,573.83l0 -0.01zm-10427.61 2250.63c331.76,15.67 1129.98,-256.07 1303.37,-528.82 335.76,-527.48 -31.01,-988.28 -363.77,-1345.71 -747.88,-701.53 458.46,-1329.71 528.48,-929.92 16,91.02 6.67,156.71 -9.34,205.05 -85.36,259.08 187.39,110.36 258.07,30.67 174.05,-195.39 131.03,-387.11 -93.69,-543.82 -472.47,-329.09 -2049.91,640.51 -875.25,1690.48 15,13.33 55.01,48.68 59.02,52.68l52.68 57.68c632.85,684.19 -307.42,1144.33 -896.92,1246.68 -171.39,30.01 -59.68,60.35 37.35,65.02l-0.01 0.01zm8925.19 -2904.48c256.74,57.35 390.11,410.12 376.1,651.85 -18.34,308.42 -174.38,679.86 -360.1,854.58 -225.73,212.39 -575.49,247.73 -855.24,109.36l-83.02 -64.35c-210.4,-200.39 -202.06,-501.14 -112.69,-724.53 174.72,-437.12 498.47,-947.26 1034.95,-826.9l0 -0.01zm-1242.35 1756.16c821.9,609.51 1721.15,90.03 1889.21,-805.56 40.34,-216.06 71.02,-838.24 -25.34,-1019.29 -632.51,-1191.34 -2689.76,1029.62 -1863.86,1824.85zm6498.84 -1225.01c-85.02,141.04 -338.77,589.17 78.35,398.45 70.02,-32.01 136.37,-83.36 208.72,-144.04 190.39,-159.72 451.13,-640.18 143.38,-818.9 -201.72,-117.04 -300.75,-22.34 -491.47,23.67 -269.08,64.69 -429.12,127.37 -702.86,94.03 4.33,-614.17 -587.16,-157.71 -637.84,-21.34 -75.68,204.39 30.67,220.06 183.38,330.09 36.67,71.69 24.34,806.56 -94.36,1119.31 -67.36,110.36 -254.07,330.09 -280.41,434.12 34.68,250.74 813.9,232.07 1025.29,132.04 118.04,-55.68 277.41,-324.43 -25,-340.43 -358.1,-18.67 -493.48,-92.02 -338.77,-663.85 32.34,-120.37 -6.34,42.34 36.01,-102.03 38.35,-130.71 87.69,-424.45 199.39,-503.48 223.07,-157.71 914.26,-303.08 696.2,62.35zm-6686.22 -2845.81c6,-76.69 23.34,-208.72 -84.69,-108.36 -219.4,204.73 -730.2,1120.98 -768.55,1477.75l-735.21 44.01c-252.07,15.34 -327.1,104.69 -49.68,233.06 137.04,63.35 411.45,26.68 577.83,27.34 -23.01,158.38 -206.06,723.54 -266.08,894.25l-110.7 439.79c-50.02,232.4 -69.02,1173.34 105.03,1286.69 107.03,21.34 141.38,38.35 253.07,3 106.36,-34.01 200.39,-147.05 292.75,-232.07 121.03,-189.72 -2,-224.73 -121.37,-521.15 -156.38,-388.11 -77.02,-410.78 -18,-762.54 39.01,-233.74 253.4,-862.92 274.74,-1094.31 290.08,-47.35 477.14,0.66 790.89,-95.69 268.41,-82.69 88.03,-176.05 -82.02,-199.39 -190.05,-26 -434.12,-1.67 -599.51,-23.01 48.01,-123.03 541.15,-1364.72 541.49,-1369.39l0 0.01zm-9316.96 2968.51l392.11 -914.59c-165.38,-26.34 -339.77,-23.01 -509.48,-10 -47.01,3.67 -81.36,3.33 -124.37,20.34 -105.37,41.68 -154.71,218.73 24.34,272.75l125.7 38.01c0.66,84.36 -182.72,493.48 -227.73,571.83 -179.71,313.43 -307.75,694.53 -243.74,1041.29 56.01,302.42 216.73,308.76 494.14,189.72 511.14,-219.06 1168.99,-1115.98 1006.95,-453.12 -127.04,519.82 81.36,629.84 540.82,585.16 135.7,-13.33 272.75,-70.02 325.42,-181.72 55.01,-117.36 27.67,-126.7 -63.01,-154.37 -155.05,-47.68 -445.12,-155.05 -301.76,-490.47 3,-7.67 8.66,-16.68 12.01,-24l371.44 -734.87c184.72,-457.47 88.69,-742.21 -187.39,-329.76 -388.77,580.16 -2264.97,1903.87 -1635.46,573.83l0.01 -0.01zm4166.51 836.57c153.71,-422.79 54.01,-1162.33 522.15,-1431.4 766.55,-440.79 1226.01,-92.36 286.08,539.49 -551.49,276.74 -311.09,190.05 -137.71,501.14 247.07,451.8 246.41,778.22 855.58,730.54 202.06,-15.67 433.46,-68.02 451.46,-283.08 -467.13,-14.34 -855.58,-178.05 -942.93,-673.19l107.03 -128.37c4.67,-6 10,-15.67 14.67,-21.67 266.08,-306.42 791.55,-686.52 512.48,-1066.63 -171.71,-234.06 -535.82,-241.4 -764.88,-110.36 -257.74,147.37 -294.42,149.71 -530.15,321.75 -8.34,4.67 -16,10.67 -25,15.34 -9.34,5 -18,10 -28.01,14.67 -170.71,59.35 -126.04,-70.69 -93.02,-249.07 272.41,-964.94 338.43,-1530.43 1064.64,-2263.64 747.54,-690.19 539.15,766.89 779.88,558.49 73.02,-63.35 114.37,-198.72 149.71,-297.75 370.1,-1034.95 -590.83,-1234.01 -1277.37,-425.12 -666.85,785.56 -1130.98,2741.77 -1393.06,3853.76 -45.01,181.39 -66.02,539.82 -34.68,727.87 80.35,482.47 415.11,-125.7 483.13,-312.75l-0.01 -0.02zm-5845.32 -4931.39c-460.46,493.14 -786.89,710.87 -746.54,1468.41 9.34,173.38 26.68,191.72 97.36,364.11 161.71,365.77 791.89,1124.32 555.49,1305.37 -6.34,5 -16,10.67 -22.67,15.34 -6.67,5 -15.34,11.33 -22.01,16 -6.67,4.67 -15.34,11.33 -22.01,16 -2512.04,1389.06 -748.21,3095.87 630.18,2003.24 183.05,-145.37 293.08,-337.1 414.11,-774.89 89.03,-321.75 39.35,-1028.29 -180.05,-1468.75 -84.02,-169.05 -312.42,-439.13 -424.12,-601.5 -623.85,-905.59 -778.56,-1274.36 -279.75,-2343.33l0.01 0z"/>
 </g>
</svg>
