<?xml version="1.0" encoding="utf-8"?>
<!-- Generator: Adobe Illustrator 19.0.0, SVG Export Plug-In . SVG Version: 6.00 Build 0)  -->
<svg version="1.1" id="Layer_1" xmlns="http://www.w3.org/2000/svg" xmlns:xlink="http://www.w3.org/1999/xlink" x="0px" y="0px"
	 viewBox="0 0 338 149.5" style="enable-background:new 0 0 338 149.5;" xml:space="preserve">
<style type="text/css">
	.st0{fill:none;}
	.st1{clip-path:url(#SVGID_2_);fill:url(#SVGID_3_);}
	.st2{clip-path:url(#SVGID_5_);fill:url(#SVGID_6_);}
	.st3{clip-path:url(#SVGID_8_);fill:url(#SVGID_9_);}
	.st4{clip-path:url(#SVGID_11_);fill:url(#SVGID_12_);}
	.st5{clip-path:url(#SVGID_14_);fill:url(#SVGID_15_);}
	.st6{clip-path:url(#SVGID_17_);fill:url(#SVGID_18_);}
	.st7{clip-path:url(#SVGID_20_);fill:url(#SVGID_21_);}
	.st8{clip-path:url(#SVGID_23_);fill:url(#SVGID_24_);}
	.st9{clip-path:url(#SVGID_26_);fill:url(#SVGID_27_);}
	.st10{clip-path:url(#SVGID_29_);fill:url(#SVGID_30_);}
	.st11{clip-path:url(#SVGID_32_);fill:#B47B2B;}
</style>
<rect x="-111" y="-264" class="st0" width="612" height="792"/>
<g>
	<defs>
		<path id="SVGID_1_" d="M26.7,30C1.8,56.8,2.3,98,28,121.8c16.1,14.9,38.2,19.6,58.7,14.4c-17,1-34.3-4.6-47.6-16.9
			c-26.2-24.4-27.2-66-2.2-92.9c6.6-7.1,14.3-12.4,22.7-16C47.4,13.5,35.9,20,26.7,30 M59.5,10.3C80,5,102.2,9.6,118.4,24.6
			c25.6,23.8,26.2,65,1.3,91.8c-9.3,10-20.8,16.6-33,19.7c16.5-1,32.9-8.2,45.2-21.4c25-26.9,24-68.5-2.2-92.9
			c-12.3-11.4-27.9-17-43.6-17C77,4.8,68,6.7,59.5,10.3"/>
	</defs>
	<clipPath id="SVGID_2_">
		<use xlink:href="#SVGID_1_"  style="overflow:visible;"/>
	</clipPath>
	
		<linearGradient id="SVGID_3_" gradientUnits="userSpaceOnUse" x1="-111.0047" y1="527.9889" x2="-110.0047" y2="527.9889" gradientTransform="matrix(141.5667 0 0 -141.5667 15722.9355 74818.7578)">
		<stop  offset="0" style="stop-color:#B47B2B"/>
		<stop  offset="4.935721e-002" style="stop-color:#B7802C"/>
		<stop  offset="0.1203" style="stop-color:#C18E31"/>
		<stop  offset="0.2042" style="stop-color:#D3A83C"/>
		<stop  offset="0.2974" style="stop-color:#EFD050"/>
		<stop  offset="0.3333" style="stop-color:#FFE55B"/>
		<stop  offset="0.5161" style="stop-color:#FEEB87"/>
		<stop  offset="0.6613" style="stop-color:#FFE55B"/>
		<stop  offset="1" style="stop-color:#B47B2B"/>
	</linearGradient>
	<rect x="1.8" y="4.8" class="st1" width="155" height="136.5"/>
</g>
<g>
	<defs>
		<path id="SVGID_4_" d="M40.5,109.2c-19.9-19.9-19.6-52.6,0.5-72.7c20.2-20.1,52.8-20.3,72.7-0.3s19.6,52.5-0.5,72.7
			C103.1,119,89.8,124,76.5,124C63.5,124,50.4,119.1,40.5,109.2 M40.4,35.9c-20.5,20.5-20.8,53.6-0.5,73.9
			c20.2,20.3,53.4,20.2,73.9-0.3c20.5-20.5,20.8-53.7,0.5-74c-10.1-10.1-23.3-15.1-36.6-15.1C64.3,20.4,50.8,25.6,40.4,35.9"/>
	</defs>
	<clipPath id="SVGID_5_">
		<use xlink:href="#SVGID_4_"  style="overflow:visible;"/>
	</clipPath>
	
		<linearGradient id="SVGID_6_" gradientUnits="userSpaceOnUse" x1="-111.0047" y1="527.9953" x2="-110.0047" y2="527.9953" gradientTransform="matrix(104.5395 0 0 -104.5395 11629.25 55269.5469)">
		<stop  offset="0" style="stop-color:#B47B2B"/>
		<stop  offset="4.935721e-002" style="stop-color:#B7802C"/>
		<stop  offset="0.1203" style="stop-color:#C18E31"/>
		<stop  offset="0.2042" style="stop-color:#D3A83C"/>
		<stop  offset="0.2974" style="stop-color:#EFD050"/>
		<stop  offset="0.3333" style="stop-color:#FFE55B"/>
		<stop  offset="0.5161" style="stop-color:#FEEB87"/>
		<stop  offset="0.6613" style="stop-color:#FFE55B"/>
		<stop  offset="1" style="stop-color:#B47B2B"/>
	</linearGradient>
	<rect x="19.7" y="16.2" class="st2" width="115" height="113.9"/>
</g>
<g>
	<defs>
		<path id="SVGID_7_" d="M80.3,33.7c-6.7,3.1-12.6,7.3-17.7,12.3c-5.2,5.1-7.7,10-7.7,14.6c0,2.9,1.1,5.5,3.3,7.9
			c2.2,2.4,4.9,4.5,8.1,6.2c3.2,1.7,6.4,3.3,9.6,4.9c3.2,1.6,5.9,3.4,8.1,5.5c2.2,2.1,3.3,4.4,3.3,7.1c0,2.6-1.1,5.2-3.2,7.6
			c-2.1,2.5-5.2,3.7-9.2,3.7c-4,0-8-0.8-12.1-2.5c-4.1-1.6-7.4-3.3-10.1-4.9c-2.7-1.6-4.3-2.5-5-2.5s-2.5,1.4-5.5,4.1
			c-2,1.8-2.9,3.2-2.9,4.2c0,6.7,5.7,10,17.1,10c8.4,0,17.7-1.6,28.1-4.9c10.4-3.3,17.4-6.7,21.2-10.3c0.8-0.5,1.3-0.9,1.3-1.4
			c0-0.5-0.1-0.9-0.4-1.3c-0.3-0.4-0.5-0.6-0.7-0.6c-0.2,0-0.6,0.1-1,0.4l-1,0.7c-6.9,4.4-12.4,6.6-16.4,6.6c-0.2,0-0.3,0-0.3-0.1
			c0-0.1,0.9-1,2.7-2.6c1.8-1.6,3.6-3.6,5.4-6c1.8-2.4,2.7-4.8,2.7-7.4c0-2.5-1-5-3.1-7.4c-2.1-2.4-4.7-4.5-7.7-6.3
			c-3.1-1.8-6.2-3.5-9.3-5.2c-3.1-1.7-5.9-3.8-8.3-6.2c-2.4-2.4-3.7-5-4.1-7.7c0.9-4.6,4-8.5,9.3-11.8c5.3-3.3,10.3-4.9,15.1-4.9
			c1.6,0,3.2,0.3,4.8,1c1.5,0.7,2.3,1.8,2.3,3.3c0,0.5-0.2,1.1-0.5,1.7c-0.3,0.6-0.5,1-0.5,1.4c0,0.3,0.1,0.6,0.4,0.9
			c0.3,0.3,0.7,0.4,1.1,0.4c1.4,0,3.2-1,5.3-3.1c2.1-2.1,3.2-4.3,3.2-6.6c0-3.9-2.9-5.9-8.8-5.9C92.6,28.9,86.9,30.5,80.3,33.7"/>
	</defs>
	<clipPath id="SVGID_8_">
		<use xlink:href="#SVGID_7_"  style="overflow:visible;"/>
	</clipPath>
	
		<radialGradient id="SVGID_9_" cx="-111.0046" cy="528.0001" r="1" gradientTransform="matrix(37.9278 0 0 -37.9278 4283.3164 20096.416)" gradientUnits="userSpaceOnUse">
		<stop  offset="0" style="stop-color:#0B4045"/>
		<stop  offset="0.8355" style="stop-color:#0A3D42"/>
		<stop  offset="0.8595" style="stop-color:#113336"/>
		<stop  offset="0.8936" style="stop-color:#122729"/>
		<stop  offset="0.9283" style="stop-color:#0F1D1E"/>
		<stop  offset="0.9634" style="stop-color:#0C1517"/>
		<stop  offset="1" style="stop-color:#0A1314"/>
	</radialGradient>
	<rect x="39.3" y="28.9" class="st3" width="67.7" height="83.2"/>
</g>
<g>
	<defs>
		<path id="SVGID_10_" d="M158.8,87.7c0.6-1.6,1.4-2.9,2.5-4c1.1-1.1,2.4-1.4,3.8-0.9c1,0.4,1.2,1.3,0.8,2.6
			c-0.5,1.3-1.6,2.8-3.4,4.4c-1.8,1.6-3.3,2.4-4.4,2.4C158,90.8,158.2,89.3,158.8,87.7 M158,82.3c-5.2,3.7-8.7,7.8-10.3,12.5
			c-1,2.7-1,5.1,0,7.3c0.9,2.2,3.1,3.8,6.5,5c3.4,1.2,7,1.1,10.9-0.4c3.9-1.4,7.4-3.4,10.6-6c0.4-0.4,0.7-0.8,0.8-1.2
			c0.2-0.6,0-0.9-0.6-1.1c-0.6-0.2-1.6,0.1-3.1,1c-1.5,0.9-2.9,1.5-4.3,1.9c-1.4,0.4-3,0.2-4.7-0.4c-2.8-1-4.6-3-5.4-6.1
			c5-2.7,8.6-4.9,10.8-6.7c2.2-1.8,3.6-3.8,4.4-6c0.6-1.6-0.1-2.8-2.1-3.4c-1-0.4-2-0.5-3.2-0.5C165.3,78.2,161.9,79.6,158,82.3"/>
	</defs>
	<clipPath id="SVGID_11_">
		<use xlink:href="#SVGID_10_"  style="overflow:visible;"/>
	</clipPath>
	
		<radialGradient id="SVGID_12_" cx="-111.0043" cy="528.0003" r="1" gradientTransform="matrix(14.9566 0.9712 0.9712 -14.9566 1309.5886 8097.9004)" gradientUnits="userSpaceOnUse">
		<stop  offset="0" style="stop-color:#0B4045"/>
		<stop  offset="0.8355" style="stop-color:#0A3D42"/>
		<stop  offset="0.8595" style="stop-color:#113336"/>
		<stop  offset="0.8936" style="stop-color:#122729"/>
		<stop  offset="0.9283" style="stop-color:#0F1D1E"/>
		<stop  offset="0.9634" style="stop-color:#0C1517"/>
		<stop  offset="1" style="stop-color:#0A1314"/>
	</radialGradient>
	<polygon class="st4" points="146.8,76.3 178.7,78.4 176.6,110.3 144.8,108.2 	"/>
</g>
<g>
	<defs>
		<path id="SVGID_13_" d="M172.5,86.6c-2.3,2.6-3.5,4.3-3.5,5.2c0,0.6,0.6,0.9,1.8,0.9l2.6-0.2c2.2,0,3.3,1,3.3,3l-2.7,11.9
			c0,0.9,0.5,1.6,1.5,2.2c1,0.5,2.3,0.8,3.9,0.8c1.6,0,3.1-0.4,4.4-1.1c1.3-0.8,2-1.8,2-3.1c0-0.5-0.5-2.2-1.6-5
			c-1.1-2.8-1.6-4.8-1.6-6c0-1.6,0.8-2.4,2.3-2.4c0.4,0,1,0.6,1.9,1.7c0.8,1.1,1.9,1.7,3.1,1.7c1.2,0,3.1-1.2,5.7-3.6
			c2.5-2.4,3.8-4,3.8-4.9c0-0.9-0.4-1.3-1.1-1.3c-0.5,0-0.9,0.1-1.4,0.3c-0.1-0.1-0.4-0.5-1.1-1.2c-0.7-0.8-1.3-1.3-1.8-1.5
			c-0.5-0.3-1.2-0.4-2.1-0.4c-2.2,0-4.6,1.6-7.4,4.8c-0.9,1-1.4,1.6-1.6,1.6c-0.2,0-0.4-0.1-0.6-0.4l-0.5-4.4
			c-0.1-0.7-0.4-1.2-1-1.7c-0.6-0.5-1.3-0.7-2.1-0.7C176.9,82.7,174.8,84,172.5,86.6"/>
	</defs>
	<clipPath id="SVGID_14_">
		<use xlink:href="#SVGID_13_"  style="overflow:visible;"/>
	</clipPath>
	
		<radialGradient id="SVGID_15_" cx="-111.0043" cy="528.0002" r="1" gradientTransform="matrix(14.4946 0 0 -14.4946 1793.0983 7749.6548)" gradientUnits="userSpaceOnUse">
		<stop  offset="0" style="stop-color:#0B4045"/>
		<stop  offset="0.8355" style="stop-color:#0A3D42"/>
		<stop  offset="0.8595" style="stop-color:#113336"/>
		<stop  offset="0.8936" style="stop-color:#122729"/>
		<stop  offset="0.9283" style="stop-color:#0F1D1E"/>
		<stop  offset="0.9634" style="stop-color:#0C1517"/>
		<stop  offset="1" style="stop-color:#0A1314"/>
	</radialGradient>
	<rect x="169" y="82.7" class="st5" width="30.3" height="27.6"/>
</g>
<g>
	<defs>
		<path id="SVGID_16_" d="M202.3,89.6c0-1.7,0.3-3.2,1-4.6c0.7-1.4,1.8-2.1,3.3-2.1c1,0.1,1.6,0.8,1.6,2.2s-0.6,3.1-1.7,5.2
			c-1.1,2.1-2.3,3.4-3.4,3.8C202.6,92.8,202.3,91.3,202.3,89.6 M199.8,84.7c-3.7,5.2-5.6,10.3-5.6,15.2c0,2.9,0.8,5.2,2.4,6.9
			c1.6,1.7,4.2,2.6,7.8,2.6c3.6,0,7-1.3,10.2-4c3.2-2.6,5.9-5.7,8-9.2c0.3-0.5,0.4-1,0.4-1.4c0-0.6-0.3-0.9-0.9-0.9
			c-0.6,0-1.5,0.7-2.5,2c-1.1,1.3-2.2,2.4-3.4,3.2c-1.2,0.8-2.7,1.2-4.6,1.2c-3,0-5.4-1.3-7.2-3.9c3.9-4.2,6.5-7.5,7.9-9.9
			c1.4-2.5,2.2-4.8,2.2-7.1c0-1.7-1-2.5-3.1-2.5C207.3,76.9,203.5,79.5,199.8,84.7"/>
	</defs>
	<clipPath id="SVGID_17_">
		<use xlink:href="#SVGID_16_"  style="overflow:visible;"/>
	</clipPath>
	
		<radialGradient id="SVGID_18_" cx="-111.0043" cy="528.0002" r="1" gradientTransform="matrix(15.3651 0 0 -15.3651 1914.1871 8205.9941)" gradientUnits="userSpaceOnUse">
		<stop  offset="0" style="stop-color:#0B4045"/>
		<stop  offset="0.8355" style="stop-color:#0A3D42"/>
		<stop  offset="0.8595" style="stop-color:#113336"/>
		<stop  offset="0.8936" style="stop-color:#122729"/>
		<stop  offset="0.9283" style="stop-color:#0F1D1E"/>
		<stop  offset="0.9634" style="stop-color:#0C1517"/>
		<stop  offset="1" style="stop-color:#0A1314"/>
	</radialGradient>
	<rect x="194.2" y="76.9" class="st6" width="28.8" height="32.5"/>
</g>
<g>
	<defs>
		<path id="SVGID_19_" d="M238.5,88.7c-1,1.1-1.8,2.3-2.4,3.6c-0.6,1.3-1.4,2.5-2.3,3.6c-0.9,1.1-2,1.6-3.2,1.6
			c-1.2,0-2.1-0.5-2.7-1.5c-0.6-1-1-2.1-1.1-3.2c-0.1-1.2-0.5-2.3-1.1-3.2c-0.6-1-1.6-1.5-2.8-1.5c-1.3,0-2.9,1.2-4.9,3.6
			c-2,2.4-3,4.1-3,5.1c1.9,0,3.1,2,3.7,5.9c0.3,1.4,0.8,2.8,1.8,4.2c0.9,1.3,2.2,2.1,3.7,2.3c1.5,0,3.2-1,5.1-3.1
			c1.9-2.1,3.7-4.2,5.2-6.2c1.5-2.1,2.6-3.1,3.1-3.1c0.3,0,0.6,0.8,0.9,2.4c0.3,1.6,0.8,3.2,1.4,4.9c0.6,1.7,1.8,3.3,3.4,4.9
			c1.7,1.6,3.7,2.4,6.1,2.4c2.4,0,4.8-0.9,7.1-2.6c2.3-1.8,3.5-3.8,3.5-6c0-1.2-0.4-1.9-1.2-1.9c-0.3,0-0.7,0.1-1.2,0.3
			c-0.5,0.2-1.1,0.3-1.8,0.3c-4.2,0-8.3-4.3-12.3-13c-0.4-0.8-1.1-1.2-2-1.2C240.4,87.1,239.5,87.7,238.5,88.7"/>
	</defs>
	<clipPath id="SVGID_20_">
		<use xlink:href="#SVGID_19_"  style="overflow:visible;"/>
	</clipPath>
	
		<radialGradient id="SVGID_21_" cx="-111.0044" cy="528.0002" r="1" gradientTransform="matrix(18.074 0 0 -18.074 2243.6006 9642.2676)" gradientUnits="userSpaceOnUse">
		<stop  offset="0" style="stop-color:#0B4045"/>
		<stop  offset="0.8355" style="stop-color:#0A3D42"/>
		<stop  offset="0.8595" style="stop-color:#113336"/>
		<stop  offset="0.8936" style="stop-color:#122729"/>
		<stop  offset="0.9283" style="stop-color:#0F1D1E"/>
		<stop  offset="0.9634" style="stop-color:#0C1517"/>
		<stop  offset="1" style="stop-color:#0A1314"/>
	</radialGradient>
	<rect x="214.8" y="87.1" class="st7" width="45.1" height="24.1"/>
</g>
<g>
	<defs>
		<path id="SVGID_22_" d="M260.2,88.6c-0.8,3.1-1.2,6.3-1.2,9.6c0,3.3,0.6,6,1.8,8.1c1.2,2.1,2.9,3.1,5.1,3.1c2.2,0,4.8-1.6,7.9-4.9
			c3-3.2,4.6-5.7,4.6-7.3c0-1.2-0.3-1.8-1-1.8c-0.4,0-0.8,0.3-1.3,0.8c-1.8,2-3.6,2.9-5.5,2.9c-1.8,0-3.3-0.8-4.5-2.5
			c-1.2-1.7-1.9-3.4-2.2-5.2c-0.3-1.8-0.5-3.5-0.5-5c0-1.5-0.2-2.3-0.6-2.4C261.9,84,261,85.5,260.2,88.6 M254.9,66.6
			c-1,1.1-1.5,2.5-1.5,4.1c0,1.6,0.5,3,1.5,4.1c1,1.1,2.3,1.7,3.8,1.7s2.8-0.6,3.8-1.7c1-1.1,1.5-2.5,1.5-4.1c0-1.6-0.5-3-1.5-4.1
			c-1-1.1-2.3-1.7-3.8-1.7S255.9,65.5,254.9,66.6"/>
	</defs>
	<clipPath id="SVGID_23_">
		<use xlink:href="#SVGID_22_"  style="overflow:visible;"/>
	</clipPath>
	
		<radialGradient id="SVGID_24_" cx="-111.0044" cy="528.0002" r="1" gradientTransform="matrix(18.0116 0 0 -18.0116 2265.23 9597.2705)" gradientUnits="userSpaceOnUse">
		<stop  offset="0" style="stop-color:#0B4045"/>
		<stop  offset="0.8355" style="stop-color:#0A3D42"/>
		<stop  offset="0.8595" style="stop-color:#113336"/>
		<stop  offset="0.8936" style="stop-color:#122729"/>
		<stop  offset="0.9283" style="stop-color:#0F1D1E"/>
		<stop  offset="0.9634" style="stop-color:#0C1517"/>
		<stop  offset="1" style="stop-color:#0A1314"/>
	</radialGradient>
	<rect x="253.4" y="65" class="st8" width="25" height="44.4"/>
</g>
<g>
	<defs>
		<path id="SVGID_25_" d="M276.5,68.9c-6.3,2.8-10.9,4.9-13.7,6.2c-1.8,0.6-2.7,1.6-2.7,2.9c0,0.6,0.1,1.3,0.4,1.9
			c0.3,0.6,0.6,1,1,1c0.4,0,1.7-0.6,4-1.9c2.2-1.3,5.7-2.9,10.5-5c-0.7,7.6-1,14.6-1,21.1c0,10.4,2.9,15.6,8.6,15.6
			c2.9,0,5.9-1.4,9.1-4.1c3.2-2.7,4.8-5.4,4.8-8c0-0.8-0.2-1.2-0.7-1.2c-0.2,0-0.5,0.2-0.9,0.6c-1.8,1.9-3.7,2.9-5.5,2.9
			c-1.9,0-3.5-0.4-4.7-1.3c-1.3-0.9-2.3-1.9-2.9-3.1c-1.5-2.5-2.3-7.4-2.6-14.7c1.3-2.2,2.3-5.7,3-10.7c7.4-2.7,12.7-4.6,16-5.5
			c1.6-0.4,2.6-0.7,3.2-0.7c0.5,0,1,0.1,1.4,0.4c0.4,0.3,0.7,0.4,0.9,0.4c0.9,0,3-1,6.6-3c0.8-0.4,1.2-1,1.2-1.7
			c0-2.2-1.3-3.2-4-3.2c-1.8,0-4.1,0.4-7.1,1.2c-3,0.8-8.8,3.1-17.4,6.8c0.1-0.8,0.1-1.9,0.1-3.4c0-5.3-0.7-7.9-2.2-7.9
			C279.4,54.4,277.7,59.2,276.5,68.9"/>
	</defs>
	<clipPath id="SVGID_26_">
		<use xlink:href="#SVGID_25_"  style="overflow:visible;"/>
	</clipPath>
	
		<radialGradient id="SVGID_27_" cx="-111.0045" cy="528.0001" r="1" gradientTransform="matrix(27.1367 0 0 -27.1367 3298.5369 14410.7432)" gradientUnits="userSpaceOnUse">
		<stop  offset="0" style="stop-color:#0B4045"/>
		<stop  offset="0.8355" style="stop-color:#0A3D42"/>
		<stop  offset="0.8595" style="stop-color:#113336"/>
		<stop  offset="0.8936" style="stop-color:#122729"/>
		<stop  offset="0.9283" style="stop-color:#0F1D1E"/>
		<stop  offset="0.9634" style="stop-color:#0C1517"/>
		<stop  offset="1" style="stop-color:#0A1314"/>
	</radialGradient>
	<rect x="260.2" y="54.4" class="st9" width="52.2" height="56.3"/>
</g>
<g>
	<defs>
		<path id="SVGID_28_" d="M314.9,132c-0.6-2.2-0.9-4.6-0.9-7.2c0-4.4,2.1-9.4,6.2-15c0.1,1.3,0.1,3.3,0.1,6.1
			c0,12.9-0.8,19.4-2.4,19.4C316.5,135.3,315.5,134.2,314.9,132 M297.4,87.8c-1.3,2.9-2,6.1-2,9.6c0,3.5,0.8,6.2,2.5,8.1
			c1.7,1.9,3.9,2.8,6.8,2.8c2.8,0,5.7-1.4,8.5-4.1c1-1,2.7-2.7,5-5.1c0.5-0.7,0.9-1,1.2-1c0.4,0,0.5,0.2,0.5,0.7
			c0,0.5,0.1,3,0.2,7.7c-4.4,4.3-7.8,8.6-10.1,12.8c-2.4,4.2-3.6,9.2-3.6,14.9c0,3,0.8,5.8,2.5,8.3c1.6,2.5,3.7,3.8,6.2,3.8
			c3.1,0,5.2-2.1,6.3-6.3c1.1-4.2,1.7-10.3,1.7-18.4l-0.3-15c4.6-5,7.8-8.3,9.8-9.9c0.8-0.7,1.3-1.3,1.3-1.8c0-0.5-0.2-0.7-0.7-0.7
			c-0.5,0-1.2,0.3-2,1c-1.8,2.3-4.6,5.2-8.4,8.8c-0.1-2.4-0.1-6.1-0.1-11.2l0.8-1.3c1.5-2.3,2.3-3.8,2.3-4.6c0-1.8-0.4-2.9-1.1-3.1
			h-0.3c-1.2,0-2.3,1.3-3.2,3.8c-0.6,1.5-0.9,3.4-1,5.6l-0.8,1.3c-0.6,0.8-1.6,1.6-3,2.5c-1.4,0.9-2.9,1.4-4.6,1.4
			c-2.7-0.1-4.9-1.1-6.8-3c-1.9-1.9-2.8-4.3-2.8-7.1l0.4-3.9c0-0.7-0.4-1.1-1.2-1.1C300,83.4,298.8,84.9,297.4,87.8"/>
	</defs>
	<clipPath id="SVGID_29_">
		<use xlink:href="#SVGID_28_"  style="overflow:visible;"/>
	</clipPath>
	
		<radialGradient id="SVGID_30_" cx="-111.0045" cy="528.0001" r="1" gradientTransform="matrix(26.0744 0 0 -26.0744 3208.9487 13882.1914)" gradientUnits="userSpaceOnUse">
		<stop  offset="0" style="stop-color:#0B4045"/>
		<stop  offset="0.8355" style="stop-color:#0A3D42"/>
		<stop  offset="0.8595" style="stop-color:#113336"/>
		<stop  offset="0.8936" style="stop-color:#122729"/>
		<stop  offset="0.9283" style="stop-color:#0F1D1E"/>
		<stop  offset="0.9634" style="stop-color:#0C1517"/>
		<stop  offset="1" style="stop-color:#0A1314"/>
	</radialGradient>
	<rect x="295.4" y="83.4" class="st10" width="38.3" height="63"/>
</g>
<g>
	<defs>
		<rect id="SVGID_31_" x="-111" y="-264" width="612" height="792"/>
	</defs>
	<clipPath id="SVGID_32_">
		<use xlink:href="#SVGID_31_"  style="overflow:visible;"/>
	</clipPath>
	<path class="st11" d="M188,135.1c0.5-0.1,0.9-0.1,1.2-0.3c0.3-0.1,0.5-0.4,0.7-0.6c0.2-0.3,0.2-0.7,0.3-1.1c0-0.5,0.1-1.1,0.1-1.8
		v-11.9c-0.8,0-1.4,0-2,0.1c-0.5,0.1-1,0.2-1.4,0.5c-0.4,0.3-0.7,0.7-1,1.3c-0.3,0.6-0.6,1.4-0.8,2.4l-0.3-0.1l0.3-5
		c0.6,0,1.2,0.1,1.8,0.1c0.6,0,1.2,0,1.8,0h5.2c0.6,0,1.2,0,1.7,0c0.6,0,1.2,0,1.7-0.1l0.3,5l-0.3,0.1c-0.3-1-0.6-1.8-0.8-2.4
		c-0.3-0.6-0.6-1-1-1.3c-0.4-0.3-0.8-0.5-1.4-0.5c-0.5-0.1-1.2-0.1-2-0.1v11.9c0,0.7,0,1.3,0.1,1.8c0,0.5,0.1,0.9,0.3,1.1
		c0.2,0.3,0.4,0.5,0.7,0.6c0.3,0.1,0.7,0.2,1.3,0.3v0.3c-0.6,0-1.1-0.1-1.7-0.1c-0.6,0-1.1,0-1.7,0c-0.5,0-1.1,0-1.6,0
		c-0.5,0-1.1,0-1.6,0.1V135.1z"/>
	<path class="st11" d="M214.7,135.3h-4c-0.9-1.2-1.8-2.4-2.6-3.6c-0.8-1.2-1.5-2.6-2.1-3.9c-0.1,0-0.3,0-0.6-0.1
		c-0.2,0-0.5-0.1-0.7-0.1c-0.2,0-0.5-0.1-0.7-0.2c-0.2-0.1-0.4-0.1-0.6-0.2v4c0,0.7,0,1.3,0.1,1.8c0,0.5,0.1,0.9,0.3,1.1
		c0.2,0.3,0.4,0.5,0.7,0.6c0.3,0.1,0.7,0.2,1.3,0.3v0.3c-0.6,0-1.1-0.1-1.7-0.1c-0.6,0-1.1,0-1.7,0c-0.5,0-1.1,0-1.6,0
		c-0.5,0-1.1,0-1.6,0.1v-0.3c0.5-0.1,0.9-0.1,1.2-0.3c0.3-0.1,0.5-0.4,0.7-0.6c0.2-0.3,0.2-0.7,0.3-1.1c0-0.5,0.1-1.1,0.1-1.8v-8.6
		c0-0.7,0-1.3-0.1-1.8c0-0.5-0.1-0.9-0.3-1.1c-0.2-0.3-0.4-0.5-0.7-0.6c-0.3-0.1-0.7-0.2-1.2-0.3v-0.3c0.5,0,0.9,0.1,1.4,0.1
		c0.5,0,0.9,0,1.4,0c0.2,0,0.5,0,0.8,0c0.3,0,0.6-0.1,1-0.1c0.3,0,0.7-0.1,1-0.1c0.4,0,0.7,0,0.9,0c0.6,0,1.3,0.1,1.9,0.3
		c0.7,0.2,1.3,0.5,1.8,0.9c0.5,0.4,1,0.9,1.3,1.6c0.3,0.6,0.5,1.4,0.5,2.3c0,0.6-0.1,1.1-0.3,1.6c-0.2,0.5-0.4,0.9-0.7,1.2
		c-0.3,0.3-0.7,0.6-1.1,0.8c-0.4,0.2-0.9,0.4-1.3,0.5c0.2,0.4,0.4,0.9,0.7,1.4c0.3,0.5,0.6,1,0.9,1.6c0.3,0.5,0.7,1.1,1.1,1.6
		c0.4,0.5,0.8,1,1.2,1.4c0.4,0.4,0.9,0.8,1.3,1.1c0.5,0.3,0.9,0.4,1.4,0.5V135.3z M203.5,126.4c0.7,0.3,1.3,0.4,2,0.4
		c1.1,0,2-0.3,2.7-0.9c0.6-0.6,0.9-1.6,0.9-3c0-0.6-0.1-1.1-0.3-1.5c-0.2-0.5-0.4-0.8-0.8-1.2c-0.3-0.3-0.7-0.6-1.1-0.8
		c-0.4-0.2-0.9-0.3-1.3-0.3c-0.4,0-0.7,0-1.1,0.1c-0.4,0-0.7,0.1-1,0.2c0,0.8-0.1,1.7-0.1,2.5c0,0.8,0,1.7,0,2.7V126.4z"/>
	<path class="st11" d="M219.1,127.9l-1.5,4.7c0,0.1-0.1,0.3-0.1,0.4c0,0.1-0.1,0.2-0.1,0.3c0,0.3,0.1,0.6,0.2,0.8
		c0.2,0.2,0.3,0.4,0.6,0.6c0.2,0.1,0.4,0.3,0.7,0.3c0.2,0.1,0.4,0.1,0.6,0.2v0.3c-0.4,0-0.9-0.1-1.3-0.1c-0.4,0-0.9,0-1.3,0
		c-0.4,0-0.9,0-1.3,0c-0.4,0-0.9,0-1.3,0.1v-0.3c0.5-0.1,0.8-0.3,1.1-0.6c0.3-0.2,0.6-0.5,0.8-0.9c0.2-0.3,0.4-0.7,0.5-1.1
		c0.2-0.4,0.3-0.8,0.5-1.3l3.8-10.9c0-0.1,0.1-0.2,0.1-0.3c0-0.1,0.1-0.2,0.1-0.3c0-0.1,0-0.2-0.1-0.4c0-0.2-0.1-0.3-0.2-0.5
		c0.4-0.1,0.7-0.2,1-0.3c0.3-0.1,0.6-0.3,0.9-0.4l4.6,14.7c0.2,0.7,0.5,1.2,0.9,1.6c0.4,0.4,0.9,0.6,1.6,0.7v0.3
		c-0.6,0-1.2-0.1-1.7-0.1c-0.6,0-1.2,0-1.8,0h-1c-0.3,0-0.6,0-0.8,0c-0.2,0-0.5,0-0.7,0c-0.2,0-0.4,0-0.7,0.1v-0.3
		c0.6-0.1,1.1-0.3,1.6-0.6c0.4-0.3,0.6-0.7,0.6-1.1c0-0.1,0-0.3-0.1-0.4c0-0.1-0.1-0.3-0.1-0.4l-1.4-4.7H219.1z M221.5,120.6
		l-2.2,6.5h4.1L221.5,120.6z"/>
	<path class="st11" d="M227.5,118.5c0.5,0,1,0.1,1.5,0.1c0.5,0,1,0,1.5,0c0.6,0,1.2,0,1.8,0c0.6,0,1.2,0,1.8-0.1v0.3
		c-0.2,0-0.4,0.1-0.7,0.1c-0.2,0.1-0.5,0.1-0.7,0.2c-0.2,0.1-0.4,0.3-0.5,0.5c-0.1,0.2-0.2,0.4-0.2,0.8c0,0.3,0.2,1.1,0.6,2.3
		l3.5,9.8l2.9-7.9c0.7-2.1,1.1-3.5,1.1-4.2c0-0.3-0.1-0.5-0.2-0.7c-0.1-0.2-0.2-0.3-0.4-0.5c-0.2-0.1-0.4-0.2-0.6-0.3
		c-0.2-0.1-0.4-0.1-0.6-0.1v-0.3c0.5,0,1,0.1,1.5,0.1c0.5,0,1,0,1.5,0c0.4,0,0.8,0,1.2,0c0.4,0,0.8,0,1.2-0.1v0.3
		c-0.5,0.1-0.9,0.3-1.3,0.6c-0.4,0.3-0.7,0.7-0.9,1.2c-0.2,0.5-0.5,1-0.7,1.5c-0.2,0.5-0.4,1-0.5,1.5l-4.6,12h-0.5l-5.1-14.1
		c-0.3-0.7-0.6-1.3-1-1.8c-0.4-0.5-0.9-0.8-1.6-0.8V118.5z"/>
	<path class="st11" d="M248.3,134.3c0.1,0,0.3,0.1,0.5,0.1c0.2,0,0.4,0.1,0.6,0.1c0.2,0,0.4,0.1,0.7,0.1c0.2,0,0.5,0,0.7,0
		c0.9,0,1.7-0.1,2.4-0.3c0.7-0.2,1.3-0.4,1.9-0.8c0.6-0.4,1.1-0.9,1.6-1.4c0.5-0.6,1-1.3,1.6-2.1l0.2,0.2l-2,5.2
		c-0.3,0-0.5-0.1-0.8-0.1c-0.3,0-0.5,0-0.8,0h-8.3c-0.4,0-0.9,0-1.3,0c-0.4,0-0.9,0-1.3,0.1v-0.3c0.5-0.1,0.9-0.1,1.2-0.3
		c0.3-0.1,0.5-0.4,0.7-0.6c0.1-0.3,0.2-0.7,0.3-1.1c0-0.5,0.1-1.1,0.1-1.8v-8.6c0-0.7,0-1.3-0.1-1.8c0-0.5-0.1-0.9-0.3-1.1
		c-0.1-0.3-0.4-0.5-0.7-0.6c-0.3-0.1-0.7-0.2-1.3-0.3v-0.3c0.5,0,1,0,1.4,0.1c0.4,0,0.9,0,1.4,0c0.5,0,1,0,1.5,0h1.8
		c1,0,2.1,0,3.1,0c1,0,2.1,0,3.1-0.1c0,0.2,0,0.4,0,0.6c0,0.2,0,0.4,0,0.5v1c0,0.4,0,0.8,0,1.1c0,0.4,0.1,0.8,0.1,1.3l-0.3,0.1
		c-0.2-0.8-0.4-1.5-0.8-2c-0.3-0.5-0.7-0.9-1.1-1.2c-0.4-0.3-0.9-0.5-1.4-0.6c-0.5-0.1-1-0.2-1.6-0.2c-1,0-2.1,0.1-3.1,0.2v6.4
		c0.3,0,0.6,0,0.8,0c0.3,0,0.6,0,0.8,0c1,0,1.8-0.2,2.4-0.7c0.6-0.5,1-1.3,1.1-2.6h0.3c0,0.6,0,1.2,0,1.9c0,0.6,0,1.2,0,1.8
		c0,0.6,0,1.2,0,1.9c0,0.6,0,1.2,0,1.9h-0.3c-0.1-0.7-0.3-1.3-0.5-1.8c-0.2-0.5-0.4-0.8-0.7-1c-0.3-0.2-0.6-0.4-1.1-0.5
		c-0.4-0.1-0.9-0.1-1.5-0.1h-1.4V134.3z"/>
	<path class="st11" d="M266.3,118.8c-0.7,0.1-1.3,0.3-1.7,0.4c-0.4,0.2-0.7,0.3-0.9,0.6c-0.2,0.2-0.3,0.5-0.3,0.9
		c0,0.4-0.1,0.8-0.1,1.3v12.3c0.4,0.1,0.8,0.2,1.2,0.2c0.4,0.1,0.8,0.1,1.1,0.1c0.9,0,1.6-0.1,2.3-0.3c0.6-0.2,1.2-0.5,1.7-0.9
		c0.5-0.4,1-0.9,1.4-1.6c0.4-0.6,0.9-1.4,1.3-2.2h0.3l-1.7,5.8c-0.5,0-1.1-0.1-1.6-0.1c-0.5,0-1.1,0-1.6,0h-6.5c-0.4,0-0.7,0-1.1,0
		c-0.4,0-0.7,0-1.1,0.1v-0.3c0.5,0,0.9-0.1,1.2-0.3c0.3-0.1,0.5-0.3,0.7-0.5c0.2-0.2,0.3-0.4,0.3-0.7c0.1-0.3,0.1-0.6,0.1-0.9v-10.2
		c0-0.7,0-1.3-0.1-1.8c0-0.5-0.1-0.9-0.3-1.1c-0.1-0.3-0.4-0.5-0.7-0.6c-0.3-0.1-0.7-0.2-1.2-0.3v-0.3c0.6,0,1.1,0.1,1.7,0.1
		c0.6,0,1.1,0,1.7,0c0.6,0,1.2,0,1.9,0c0.6,0,1.2,0,1.9-0.1V118.8z"/>
</g>
</svg>
