<svg xmlns="http://www.w3.org/2000/svg" xmlns:xlink="http://www.w3.org/1999/xlink" viewBox="0 0 845.45 201.33"><defs><style>.a{fill:none;}.b,.d{fill:#fff;}.c{clip-path:url(#a);}.d,.e{fill-rule:evenodd;}.e,.f{fill:#00aff0;}</style><clipPath id="a" transform="translate(-0.27 -0.08)"><rect class="a" x="-117" y="-439.25" width="1080" height="1080"/></clipPath></defs><title>OceanAir Travels LOGO 2019 no text</title><rect class="b" x="46.73" y="44" width="93.33" height="98"/><g class="c"><path class="d" d="M444.81,187.39c0.08-.1.19-0.22,0.3-0.11s0,0.22-.11.3l-0.19-.19" transform="translate(-0.27 -0.08)"/><path class="e" d="M820.3,123.95A12.71,12.71,0,1,1,833,136.68a12.7,12.7,0,0,1-12.69-12.73M833,134.26A10.3,10.3,0,1,0,822.71,124,10.3,10.3,0,0,0,833,134.26" transform="translate(-0.27 -0.08)"/><path class="e" d="M835.72,127.7l-2-5.71v5.69h-1.49v-7.45h2.33a0.26,0.26,0,0,1,.17.14q0.84,2.46,1.67,4.92c0,0.11,0,.22.07,0.32,0.58-1.7,1.17-3.4,1.74-5.1a0.36,0.36,0,0,1,.43-0.3c0.68,0,1.37,0,2.07,0v7.45h-1.63V121.9c-0.17.54-.34,1.05-0.52,1.57-0.45,1.32-.91,2.64-1.36,4a0.31,0.31,0,0,1-.36.27c-0.36,0-.73,0-1.12,0" transform="translate(-0.27 -0.08)"/><polygon class="e" points="828.84 127.6 827.14 127.6 827.14 121.53 825.04 121.53 825.04 120.17 830.94 120.17 830.94 121.52 828.84 121.52 828.84 127.6"/><path class="e" d="M765.07,141.15c0.45,0,.9,0,1.35,0h0a14.86,14.86,0,0,0,1.89,0c6.48-.84,11.47-4.06,13.83-10.17,2.07-5.37.07-8-4.43-8.56a20.37,20.37,0,0,0-17.86,6.39,7.43,7.43,0,0,0-1.54,8.28c1.14,2.86,3.77,3.94,6.77,4.07" transform="translate(-0.27 -0.08)"/><path class="e" d="M257.14,126.63h0a24.37,24.37,0,0,0-3.05-1.58,27.2,27.2,0,0,0-5.35-1.67,38.68,38.68,0,0,0-18.56,0,35.9,35.9,0,0,0-5.65,1.77l-0.16.06-0.27.11a28.41,28.41,0,0,0-3.41,1.62l-1.12.62a50.74,50.74,0,0,0-10.19,7.76,64,64,0,0,0-8,9.69c-0.32.46-1.09,1-.49,1.59a0.58,0.58,0,0,0,.42.16,2.68,2.68,0,0,0,1.12-.8l0.47-.38a35.74,35.74,0,0,1,27.38-6.42c2.51,0.49,7.21,1.9,10,5.79a14.56,14.56,0,0,1,1.78,3.89,16.75,16.75,0,0,1-.78,11.39c-4.44,10.67-12.32,16.53-22.76,21.16a15.66,15.66,0,0,1-7.68,1.58,10.16,10.16,0,0,1-4-1c-4.42-2.27-4.21-6.84-3.62-9.5,1.17-4.6,4.4-12,13.24-15.18,1.1-.37,6.57-2,9.44,1.91,0.11,0.16.22,0.32,0.32,0.48l0.1,0.15a14.23,14.23,0,0,1,1.79,5.28c0.15,1,1.23.64,2.07,0.21,5-2.56,8.79-6,9.45-11.78a12.34,12.34,0,0,0,.05-2.27s0,0,0,0a12.29,12.29,0,0,0-.21-1.56c-1.39-7.45-7.58-9.14-11.72-9.4l-0.36,0-0.4,0c-0.6,0-1.2,0-1.8,0l-0.8.07h0l-0.51.06h0a19,19,0,0,0-3.69.89A46.78,46.78,0,0,0,202.51,152a48.55,48.55,0,0,0-11.38,14.87,25.17,25.17,0,0,0-2.44,16.18c1.36,7.45,5.83,12.43,13.44,14.7,5.6,1.67,11.19,1.15,16.67-.58,8.34-2.63,15.37-7.33,21.88-12.79a82.25,82.25,0,0,0,20.19-25.7c2.66-5.14,4.66-10.5,4.56-16,0.15-7.24-2.61-12.54-8.27-16" transform="translate(-0.27 -0.08)"/><path class="e" d="M844.54,172.38c-1.62-2-3-.11-4.28.64-6,3.62-11.83,7.71-18.46,10.27a14.62,14.62,0,0,1-6.34,1.3c-4.21-.33-5.65-3-3.55-6.55a22.67,22.67,0,0,1,4.41-5.21A77.38,77.38,0,0,1,826.75,165a42.79,42.79,0,0,0,4.82-3.39,7.68,7.68,0,0,0,2.27-9.28c-1.36-3.27-4.25-7.26-8.32-6.78-2,.23-3.94.15-5.9,0.34-6.29.62-12.58,1.32-18.87,2-0.73.08-1.6,0.51-1.64-1-0.14-4.89-2.08-6.31-6.87-4.78a43.16,43.16,0,0,0-19.57,12.74,24.57,24.57,0,0,0-2.55,3.89c-1.08,1.86-1,3.94-1.12,6-0.14,2.62,1.73,3.61,3.83,4.89-4,1.33-7,3.54-10.2,5.37-5.34,3-10.7,6-16.89,6.89a16.4,16.4,0,0,1-9.46-1.05,4.66,4.66,0,0,1-2.9-4.09c-0.16-2,1.13-2.66,2.53-3.46A100.91,100.91,0,0,0,755,159.38c2.57-2.41,5.11-4.9,6.18-8.43,0.93-3.07,0-5-3-6.12a14.44,14.44,0,0,0-8-.82c-16.13,3.47-27.36,13-34.23,27.92-0.49,1.06-.44,2.33-1.87,3-5.52,2.65-11,5.38-17,6.81a12.25,12.25,0,0,1-6.47,0c-2.77-.85-3.29-2.2-1.71-4.62a37.07,37.07,0,0,1,6.64-7c2.93-2.63,5.89-5.24,8.72-8a5.62,5.62,0,0,0,1.51-6.25c-0.49-1.48-1.87-2.24-2.67-3.39,1.64-1.12,4-1.07,4.22-3.48s-1.66-3.92-3.4-5.21a14.05,14.05,0,0,0-4.78-2.17,28,28,0,0,0-10.52-.49,154.37,154.37,0,0,0-58.58,18.43,45.29,45.29,0,0,0-12.91,10.09c-2.87,3.4-4.16,7.31-2.87,11.57,0.68,2.25,0,2.92-1.83,3.57a62.39,62.39,0,0,1-21.62,3.54c-3.16,0-6.1-.37-7.63-3.59s0.31-5.83,2.22-8.18A67.57,67.57,0,0,1,595.63,167c4.43-3.6,9.09-6.92,13.18-10.92,3.4-3.33,3.4-5.55.14-9-1.34-1.45-3-2.68-4-4.32-1.79-2.89-4-3.39-7.13-2.55a165.81,165.81,0,0,0-25.23,9.52c-14.35,6.52-28.56,13.3-40.63,23.75-0.86.74-1.85,1.79-3.32,0.94,0.23-1.53,1.47-2.24,2.48-3.06,3.69-3,7.45-6,11.17-9,3.47-2.8,7.06-5.49,9.77-9.1,1.82-2.44,1.55-5.52-.68-6-6.58-1.5-13.33-2.91-19.54,1.17-7.63,5-14.28,11.29-18.52,19.38-2.37,4.53-5.7,7-10,9s-8.59,4.22-13.42,4.8c-2.33.29-4.93,0.27-6.17-1.92-1.1-1.94.79-3.63,2-5.08a64.76,64.76,0,0,1,4.9-5.21c2.14-2.11,4.46-4.06,6.51-6.25,1.6-1.69,3.4-3.26,3.57-6s-1.3-4.31-3.09-5.92c5.43-2.69,5.58-5.68.76-9.07-3.6-2.54-7.68-2.9-11.88-2.63-16.78,1.09-32.48,6.18-47.6,13.2-7.54,3.51-15.06,7.38-20.5,13.78-3.4,4-7.47,6.37-12,8.36-3.51,1.54-7,3.17-10.58,4.51-7.91,3-16,5.33-24.58,4.5-3-.3-6-0.92-8.36-3-1.44-1.22-1.49-2.78-1.18-4.53s1.69-1.56,2.83-1.81c12.16-2.7,24.19-5.84,35.58-11,5.2-2.37,10.24-5.05,14.13-9.39,5.65-6.29,3.65-12.8-4.61-14.37-9.61-1.82-19.2-1-28.64,1.26-13.61,3.31-26.31,8.74-35.94,19.21-4.15,4.51-8.92,7.51-14.14,10.21-9.14,4.72-18.47,8.95-28.59,11.1-6.29,1.33-12.57,1.72-18.72-.66-2.85-1.11-5.93-2.56-6.34-5.82s2.44-5.1,5-6.53c6.5-3.65,13.1-7.14,19.64-10.72,1-.57,1.42-0.41,2,0.74,1.92,3.87,5.18,5.9,9.11,4.72,9.87-3,18.24-8.46,22.51-18.11,2.87-6.49-.25-11.38-7.87-11.72-7.89-.35-15.39,1.45-22.78,3.82q-3.55,1.13-7,2.4c-3.42,1.19-6.54,2.44-9.38,3.74l-0.11,0c-24.34,11.19-28.28,25.87-28,34.84h0a15.15,15.15,0,0,0,.16,2.26,0.37,0.37,0,0,1,0,.06,19.22,19.22,0,0,0,6.29,12L267,193a17.09,17.09,0,0,0,1.55,1.12l0.28,0.18,0.07,0a27.38,27.38,0,0,0,9.9,3.65,47.34,47.34,0,0,0,20.07-1.17c12.69-3.18,24.11-9.18,35.16-16,0.81-.5,1.49-1.38,2.63-1.24,0.78,9.38,7.09,16.25,17.07,18.49,6.49,1.46,13,1.1,19.5,0,13.67-2.25,26.13-7.73,38.07-14.51,1.87-1.06,2.7-1,3.74,1,1.55,3,4,5.23,6.57,7.41,5.23,4.51,10.69,5.71,17.17,2.36,6.81-3.53,13.42-7.36,20-11.21l9.05-5.26c-2.06,4.45-4.21,7.88-4.83,11.95-0.86,5.71,2.19,9.73,8,10.35a24.28,24.28,0,0,0,11.27-1.81c8.77-3.3,16.84-8,24.81-12.82,1.67-1,2.28-1.09,2.91,1,2.93,9.8,10.51,12.47,19,6.74a70.6,70.6,0,0,0,8.78-7.42c10.28-9.77,21.09-18.77,34.84-23.37l0.7-.1-0.35.51c-2.66,2.75-5.35,5.47-8,8.26-3.48,3.71-6.92,7.48-9.05,12.18-2.85,6.27-.78,11.54,5.55,14.23a24.09,24.09,0,0,0,7.84,1.87,105.69,105.69,0,0,0,47.7-8.1c2.47-1,4-.94,6,0.78,5.45,4.68,11.43,5.74,18.13,2.37,4.62-2.32,9.3-4.52,13.84-7,5.3-2.88,10.62-5.74,16.64-9-1.86,4.13-4,7.16-4.8,10.83-1.22,5.83,1.67,10,7.59,10.8a25.26,25.26,0,0,0,11.34-1.34c9.38-3.12,18.08-7.72,26.65-12.55,1.89-1.06,2.55-1.15,3.4,1.18,2.77,7.6,8.6,11.38,16.73,11.39a35.18,35.18,0,0,0,17.29-4.54c13-7.24,25.92-14.71,36.83-25.09a2.94,2.94,0,0,1,1.2-.92c5.35-.83,10.6-2.42,16.09-2.27l0,0,0.07-.07c0-.1,0-0.21,0-0.32l0.26,0-0.29.29s0,0.07,0,.11h-0.1c-0.57.56-1.13,1.13-1.71,1.67-4.64,4.31-9.52,8.43-12.17,14.39-4.51,10.16,1.31,19.14,12.41,19.37a24.28,24.28,0,0,0,10-2.06c11.77-4.92,22.13-12.15,32.18-19.87,1.48-1.14,1.48-5.2-.09-7.1m-455.73-22c0.2-.06.41-0.06,0.62-0.1,1.73-.37,4.24-1.83,5-0.23,0.63,1.36-2,2.72-3.5,3.78A70.38,70.38,0,0,1,365.55,165c6.11-7.5,14.21-11.8,23.25-14.58m50.09,31.52a26.44,26.44,0,0,1-5.92,1.86c-2.27.47-3.77-1.13-3.45-3.46,0.4-2.83,2.1-4.92,4.17-6.71a42.54,42.54,0,0,1,11.18-6.66,162.67,162.67,0,0,1,31.65-9.54c-12,9-24,18.1-37.64,24.51m233.67-17.44c-9.55,6.19-19.1,12.38-29.48,17.13a26.13,26.13,0,0,1-8.27,2.52c-2.81.28-4.19-1.42-3.36-4.15,1-3.29,3.52-5.3,6.21-7.08,5.57-3.71,11.8-6,18.09-8.06,7.53-2.49,15.24-4.34,22.94-6.25a19.78,19.78,0,0,1,2.91-.16c-3.43,2.3-6.21,4.21-9,6" transform="translate(-0.27 -0.08)"/><path class="b" d="M123.71,53a40.25,40.25,0,0,0-24.34-1.09,44.11,44.11,0,0,0-5.52,1.9h0l-0.07,0a50.07,50.07,0,0,0-11.35,6.74l-0.69.54c-0.44.35-.88,0.71-1.31,1.08s-1,.83-1.44,1.24l-0.24.21-0.28.26c-0.43.39-.85,0.78-1.26,1.17,0,0-1.28,1.17-3.08,3.14l-0.31.34c-0.55.61-1.13,1.28-1.74,2l-0.56.69c-0.2.25-.4,0.54-0.6,0.8-0.49.63-1,1.24-1.35,1.79l-0.29.38c-0.1.14-.2,0.27-0.3,0.41l-0.14.22-0.15.23c-1.18,1.72-1.79,2.8-1.79,2.8a27.83,27.83,0,0,1,2.18-1.79l0.78-.55A44,44,0,0,1,77,71.43l0.53-.23q1.61-.71,3.26-1.28l0.39-.13a38.36,38.36,0,0,1,20.26-.92c7.12,1.52,12.23,5.64,13.72,13.12a22.53,22.53,0,0,1-1.62,13.45c-3.52,8.21-9.22,14.63-16.35,19.85-5.39,3.94-11.19,7-18,7.53s-11.86-3.62-12.78-9.11a20.63,20.63,0,0,1,.35-7.85c2.07-9.7,12.91-18.06,21.16-19.46,4.07-.69,7.2,1.12,8.89,4.93a13.84,13.84,0,0,1,1,3.37c0.2,1.2.38,2.4,0.58,3.62A17.61,17.61,0,0,0,108,89.14c3.17-7.87-.92-16.13-8.88-17.66a20.2,20.2,0,0,0-10.82,1.32A53.68,53.68,0,0,0,59.92,96.46c-3.76,6.34-6,13.13-5,20.64,0.73,5.44,2.61,10.37,7.09,13.92a23.48,23.48,0,0,0,19.4,4.7,45.81,45.81,0,0,0,16.15-6.41c16.16-9.9,27.65-23.86,35.45-41a38,38,0,0,0,3.74-17.14,19.62,19.62,0,0,0-13-18.15" transform="translate(-0.27 -0.08)"/><path class="f" d="M189.32,114.9c-4-18.62-13.16-34.65-25.88-48.69a3.76,3.76,0,0,1-1.11-3.14c0.69-7.81,1.22-15.64,1.31-23.48a125.6,125.6,0,0,0-.85-15.79,49.83,49.83,0,0,0-3.62-14.68,11.11,11.11,0,0,0-7.43-6.67A62.8,62.8,0,0,0,123.92,1a111.62,111.62,0,0,0-23.76,6.67,159,159,0,0,0-29.84,15.6,2.69,2.69,0,0,1-3.33.16,44.79,44.79,0,0,0-6.58-3.09c-11.88-4.71-24-6.51-36.67-3.61a9,9,0,0,0-3.87,1.4C4.73,30.32-1.67,46.1.79,65.38a87.43,87.43,0,0,0,8.7,27.43,129.88,129.88,0,0,0,14.9,23.79,2,2,0,0,1,.56,2.21,52.64,52.64,0,0,0-2.62,16.56c-0.26,9.89.84,19.67,2.1,29.45a23.05,23.05,0,0,0,10.37,17c6,4,12.89,5,19.91,4.77,8.37-.22,16.47-2.12,24.43-4.65a204.73,204.73,0,0,0,40-18,3.3,3.3,0,0,1,3.23-.28c12.4,4.71,25,8.76,38.31,9.92,5,0.44,10,.38,14.8-1.42a11,11,0,0,0,6.25-4.91c8.85-16.54,11.6-34,7.61-52.38M132.93,88.32c-7.8,17.12-19.29,31.08-35.45,41a45.77,45.77,0,0,1-16.15,6.41,23.48,23.48,0,0,1-19.4-4.7c-4.48-3.55-6.36-8.48-7.09-13.92-1-7.51,1.28-14.3,5-20.64A53.68,53.68,0,0,1,88.26,72.8a20.2,20.2,0,0,1,10.83-1.32c8,1.52,12,9.79,8.88,17.65a17.6,17.6,0,0,1-9.58,9.18l-0.58-3.62a13.85,13.85,0,0,0-1-3.37c-1.69-3.81-4.81-5.62-8.89-4.93-8.25,1.39-19.09,9.76-21.16,19.46a20.69,20.69,0,0,0-.34,7.85c0.92,5.49,6.11,9.66,12.78,9.11s12.61-3.59,18-7.53c7.13-5.22,12.84-11.64,16.35-19.85A22.51,22.51,0,0,0,115.13,82c-1.49-7.48-6.6-11.6-13.72-13.12a38.37,38.37,0,0,0-20.26.92l-0.39.13c-1.1.37-2.18,0.8-3.26,1.28L77,71.42a44.25,44.25,0,0,0-7.15,4.15L69,76.12a27.32,27.32,0,0,0-2.18,1.78s0.6-1.08,1.78-2.8l0.15-.23,0.14-.22c0.09-.14.2-0.27,0.3-0.41l0.28-.38c0.4-.55.86-1.16,1.35-1.79,0.2-.26.41-0.55,0.6-0.8l0.56-.7c0.61-.74,1.2-1.41,1.74-2l0.31-.34c1.8-2,3.08-3.14,3.08-3.14,0.4-.39.83-0.78,1.26-1.17l0.27-.26,0.24-.21q0.7-.62,1.44-1.24t1.31-1.08l0.69-.54a50.07,50.07,0,0,1,11.35-6.74l0.07,0h0a44.07,44.07,0,0,1,5.52-1.9A40.26,40.26,0,0,1,123.66,53a19.62,19.62,0,0,1,13,18.15,38,38,0,0,1-3.74,17.14" transform="translate(-0.27 -0.08)"/></g></svg>