<?xml version="1.0" encoding="UTF-8"?> <!-- Generator: Adobe Illustrator 25.2.3, SVG Export Plug-In . SVG Version: 6.00 Build 0) --> <svg xmlns="http://www.w3.org/2000/svg" xmlns:xlink="http://www.w3.org/1999/xlink" version="1.1" id="Layer_1" x="0px" y="0px" viewBox="0 0 283.05 90.38" style="enable-background:new 0 0 283.05 90.38;" xml:space="preserve"> <style type="text/css"> .st0{fill:#BA9B30;} .st1{fill:#282828;} </style> <path class="st0" d="M49.11,63.58c0,0.8-0.64,1.45-1.44,1.45H11.39c-4.81,0-8.71-3.89-8.71-8.69V11.8c0-4.81,3.9-8.71,8.71-8.71 H48.6L33.3,8.28c-0.02,0.01-0.04,0.02-0.06,0.02l-0.59,0.2v0.02c-5.5,2-9.44,7.25-9.44,13.44c0,3.2,1.06,6.14,2.83,8.53v0.01 l22.81,32.27C49.01,63,49.11,63.29,49.11,63.58z"></path> <path class="st1" d="M73.25,35.31v44.53c0,4.81-3.9,8.69-8.71,8.69H27.34l15.31-5.19c0.01,0,0.04-0.01,0.06-0.02l0.58-0.2l0.01-0.01 c5.49-2.01,9.43-7.26,9.43-13.45c0-3.2-1.06-6.14-2.83-8.53l0.01-0.01L27.09,28.86c-0.15-0.24-0.25-0.51-0.25-0.81 c0-0.79,0.65-1.44,1.44-1.44h36.26C69.35,26.6,73.25,30.5,73.25,35.31z"></path> <g> <path class="st1" d="M83.84,31.94v-1.06l4.34-0.47v1.11c0,2.17,1.11,3.49,2.89,3.49s2.89-1.11,2.89-2.85 c0-1.87-0.77-3.23-4.13-6.42c-4.46-4.21-5.74-6.51-5.74-9.78c0-4.42,2.55-7.31,6.85-7.31c4.29,0,6.85,2.89,6.85,7.36v0.77 l-4.34,0.47v-0.85c0-2.3-0.89-3.49-2.47-3.49c-1.57,0-2.47,0.98-2.47,2.85s0.94,3.23,4.12,6.42c4.34,4.34,5.74,6.51,5.74,9.78 c0,4.25-2.98,7.31-7.27,7.31C86.82,39.26,83.84,36.2,83.84,31.94z"></path> <path class="st1" d="M112.16,32.24h-4.85l-0.98,6.59h-4.51l4.93-29.77h6.04l4.93,29.77h-4.59L112.16,32.24z M111.57,27.9 l-1.83-12.46l-1.83,12.46H111.57z"></path> <path class="st1" d="M122.28,9.06h4.51v29.77h-4.51V9.06z"></path> <path class="st1" d="M132.78,9.06h12.59v4.25h-8.08v8.72h6.38v4.25h-6.38v12.55h-4.51V9.06z"></path> <path class="st1" d="M149.54,32.2V15.7c0-4.17,2.85-7.06,7.06-7.06c4.21,0,7.06,2.89,7.06,7.06v3.49h-4.42V15.7 c0-1.74-1.06-2.81-2.59-2.81s-2.59,1.06-2.59,2.81v16.5c0,1.74,1.06,2.81,2.59,2.81s2.59-1.06,2.59-2.81v-4.25h4.42v4.25 c0,4.17-2.85,7.06-7.06,7.06C152.39,39.26,149.54,36.37,149.54,32.2z"></path> <path class="st1" d="M168.63,32.07V15.83c0-4.29,2.89-7.19,7.23-7.19s7.23,2.89,7.23,7.19v16.25c0,4.3-2.89,7.19-7.23,7.19 S168.63,36.37,168.63,32.07z M178.58,32.07V15.83c0-1.87-1.06-2.93-2.72-2.93c-1.66,0-2.72,1.06-2.72,2.93v16.25 c0,1.87,1.06,2.93,2.72,2.93C177.52,35.01,178.58,33.94,178.58,32.07z"></path> <path class="st1" d="M83.11,53.6h9.98v2.95h-3.43v17.72h-3.13V56.55h-3.43V53.6z"></path> <path class="st1" d="M103.27,74.27L101,65.73h-1.62v8.53h-3.13V53.6h4.9c2.98,0,4.9,1.95,4.9,4.93v2.27c0,1.92-0.8,3.4-2.16,4.22 l2.63,9.24H103.27z M99.38,62.78H101c1.21,0,1.92-0.71,1.92-1.92v-2.39c0-1.21-0.71-1.92-1.92-1.92h-1.62V62.78z"></path> <path class="st1" d="M116,69.69h-3.37l-0.68,4.58h-3.13l3.43-20.67h4.19l3.43,20.67h-3.19L116,69.69z M115.59,66.68l-1.27-8.65 l-1.27,8.65H115.59z"></path> <path class="st1" d="M132.42,53.6l-3.43,20.67h-4.19l-3.43-20.67h3.19l2.36,16.24l2.36-16.24H132.42z"></path> <path class="st1" d="M135.58,53.6h8.89v2.95h-5.76v5.76h4.58v2.95h-4.58v6.05h5.76v2.95h-8.89V53.6z"></path> <path class="st1" d="M147.83,53.6h3.13v17.72h5.58v2.95h-8.71V53.6z"></path> <path class="st1" d="M175.26,74.27l-0.89-1.45c-1.12,1.18-2.42,1.74-3.9,1.74c-2.57,0-4.61-1.68-4.61-5.2c0-2.45,1-3.99,2.75-5.82 l-0.44-0.71c-0.77-1.27-1.65-2.92-1.65-4.87c0-2.69,1.8-4.67,4.58-4.67c2.63,0,4.4,1.74,4.4,4.46c0,2.21-0.68,3.28-3.22,6.05 l1.98,3.07c0.24-0.83,0.44-1.8,0.68-2.95h3.13c-0.53,2.45-1.12,4.43-1.86,5.99l2.8,4.34H175.26z M172.93,70.49l-2.72-4.34 c-0.83,1.03-1.21,1.83-1.21,3.07c0,1.8,0.92,2.39,2.07,2.39C171.78,71.61,172.37,71.34,172.93,70.49z M169.54,57.97 c0,0.92,0.32,2.04,1.21,3.45c1.27-1.27,1.89-2.16,1.89-3.45c0-1.21-0.53-1.86-1.51-1.86C170.13,56.11,169.54,56.85,169.54,57.97z"></path> <path class="st1" d="M188.02,53.6H198v2.95h-3.42v17.72h-3.13V56.55h-3.42V53.6z"></path> <path class="st1" d="M200.89,69.57V58.29c0-2.98,2.01-4.99,5.02-4.99s5.02,2.01,5.02,4.99v11.28c0,2.98-2.01,4.99-5.02,4.99 S200.89,72.55,200.89,69.57z M207.8,69.57V58.29c0-1.3-0.74-2.04-1.89-2.04s-1.89,0.74-1.89,2.04v11.28c0,1.3,0.74,2.04,1.89,2.04 S207.8,70.87,207.8,69.57z"></path> <path class="st1" d="M214.71,69.72V53.6h3.13v16.12c0,1.21,0.74,1.89,1.74,1.89s1.74-0.68,1.74-1.89V53.6h3.07v16.12 c0,2.89-1.95,4.84-4.81,4.84C216.72,74.56,214.71,72.61,214.71,69.72z"></path> <path class="st1" d="M235.47,74.27l-2.27-8.53h-1.62v8.53h-3.13V53.6h4.9c2.98,0,4.9,1.95,4.9,4.93v2.27c0,1.92-0.8,3.4-2.16,4.22 l2.63,9.24H235.47z M231.57,62.78h1.62c1.21,0,1.92-0.71,1.92-1.92v-2.39c0-1.21-0.71-1.92-1.92-1.92h-1.62V62.78z"></path> <path class="st1" d="M242.03,53.6h3.13v20.67h-3.13V53.6z"></path> <path class="st1" d="M248.61,69.48v-0.74l3.01-0.32v0.77c0,1.51,0.77,2.42,2.01,2.42s2.01-0.77,2.01-1.98 c0-1.3-0.53-2.24-2.86-4.46c-3.1-2.92-3.99-4.52-3.99-6.79c0-3.07,1.77-5.08,4.75-5.08c2.98,0,4.75,2.01,4.75,5.11v0.53l-3.01,0.33 v-0.59c0-1.59-0.62-2.42-1.71-2.42c-1.09,0-1.71,0.68-1.71,1.98c0,1.3,0.65,2.24,2.86,4.46c3.01,3.01,3.99,4.52,3.99,6.79 c0,2.95-2.07,5.08-5.05,5.08C250.68,74.56,248.61,72.44,248.61,69.48z"></path> <path class="st1" d="M276.34,53.6v20.67h-3.13V60.09l-2.92,14.17h-2.19l-2.92-14.17v14.17h-3.07V53.6h4.43l2.72,13.2l2.6-13.2 H276.34z"></path> </g> </svg> 