<?xml version="1.0" encoding="utf-8"?>
<!-- Generator: Adobe Illustrator 22.0.0, SVG Export Plug-In . SVG Version: 6.00 Build 0)  -->
<svg version="1.1" id="Layer_1" xmlns="http://www.w3.org/2000/svg" xmlns:xlink="http://www.w3.org/1999/xlink" x="0px" y="0px"
	 viewBox="0 0 200 52" style="enable-background:new 0 0 200 52;" xml:space="preserve">
<style type="text/css">
	.st0{fill:#00AEEF;}
	.st1{fill:#E6E7E8;}
	.st2{fill:#FFFFFF;}
	.st3{fill:#ED1C24;}
	.st4{fill:#0072BC;}
	.st5{fill:#FFFBCC;}
	.st6{fill:#6B926D;}
	.st7{fill:#FFCE51;}
	.st8{fill:#FAAC56;}
	.st9{fill:#FFE0BF;}
	.st10{fill:#EEF6EA;}
	.st11{display:none;fill:#FEC340;}
	.st12{display:none;fill:#FFFBCC;}
	.st13{fill:#0DB14B;}
	.st14{fill:#A7A9AC;}
	.st15{fill:#F04E23;}
	.st16{fill:none;stroke:#000000;}
	.st17{enable-background:new    ;}
	.st18{fill:#2E358F;}
	.st19{fill:#F19430;}
	.st20{fill:#F9F9F9;}
	.st21{fill:#AAAAAA;}
</style>
<g>
	<g>
		<path class="st0" d="M2.4,23.4c0,0,1.4-1.2,6.7-1.9c0,0-7.9-3.8-6-11.5c0,0,1.6-7.5,11.7-7.5c0,0,9.7-0.1,13.6,10.1
			c0,0,0.8-0.1,1.7,0.3c0,0,0.6-8,12.3-6.2c0,0,6,1.4,8.7,5.8c0,0,2.2-5.7,11-5.5c0,0,6.5-0.1,10.2,3.1c0,0,3.8,1.6,6.8,2.2
			c0,0,1.1,0.4,1.3-0.4c0,0-0.7-3,3-4.3c0,0,10.1-3.7,17.7-2.1c0,0,2.2,0.6,2.1,1.7c0,0,4.9-1.9,8.9,0.8c0,0,5.2,3.8,6.9,3.8
			c0,0,3.3,0.5,9.2-0.8c0,0,3.5-0.8,5,2.2v0.1c0,0,0.5-5.4,5.1-4.4c0,0,4.4,0.6,11.1,2.5c0,0,0.8,0.6,8.2,0.4c0,0,2.7-0.2,2.8,1.9
			s0.7-6.9,12.9-5c0,0,3.8,0.9,3.9,3.9c0,0,1.5,0.9,2-0.8c0,0,1.5-3.6,3.6-4.8c0,0,2.1-3.3,3.5-3.3c0,0,11.4,3.3,10.7,9.6
			c0,0,0,5.5-4.3,7.7l-11.1,3.7c0,0-2.3,0.1-4.9-0.4l-54.2-2.5l-18.3,1.7H92.1l-14.9-1L58,22.8l-6.3,1.1l-11.8-0.2L32,22.9l-3.2,0.4
			h-6.6c0,0-1.3,0.6-5.1,0.6H4.9C4.9,23.9,3.3,24.1,2.4,23.4z"/>
		<path d="M81.4,22.2l-2.9-0.6V17h0.7v-1.1L68.7,13v-0.7h-1.2l-0.6,0.4l-5.2-1.4l-3.1,2.3L58,13.4l-4.3,2.1V17h1.1v3.8l-0.6,1
			l-1.3,0.7h-2.2v-0.9H50v-0.7h-1.3v1.2h-1V21h-1.1v0.7h-1.1V21H45l0.4-0.3L45,20.3l1-1.7l-0.5-0.4l1.3-2.3l-0.4-0.6l1-1.6L47,13.1
			l0.9-1.5L47.6,11l1-1.4c-0.4-0.4-1-0.8-1-0.8l0.6-2.2C48.1,5.9,47,5.7,47,5.7l0.4-1.2h-1.9l-0.4,0.9c-2,0-2.3,0.4-2.3,0.4
			l-0.7,2.5h-1l-0.2,2.2h-0.5V13h-0.6l-0.2,1.9L39.1,15l-0.3,2.3l-0.6,0.1L37.6,20l-0.4,0.2l-0.3,1.6h-2.5v-0.4H33v-1h-1.7
			c-1.2-0.4-3.5-3.7-3.5-3.7h-1.7v0.9c-1.4,1.2-3.1,0.3-3.1,0.3c-2.4-0.7-6.3-9.4-6.3-9.4V5.4l-5.6,0.4v0.6c-3.3,3.5-7.2,4-7.2,4
			v1.1c4.3-1.6,6.8-4.1,6.8-4.1v2.8c-2.4,1.5-7.6,3.6-7.6,3.6l1.4,0.1c2.9-1.1,5.9-2.7,5.9-2.7v4l-7.7-0.9C2.6,16.2,3,16.8,3,16.8
			c2,0,7.2,0.7,7.2,0.7v3.3H9.8v0.7H7.7v-0.8H6.8v1.2h-1V21h-1v1H3.9v0.5h5.6v0.8H20v-0.7h11.4v1.9h19.8L68,23l11.7,0.5l0.2,0.4
			 M104,24h0.3c0.7,0.4,2.9,0.1,2.9,0.1c1.7-0.5,4.7-0.7,4.7-0.7h2.3c0.7,0,0.7-0.5,0.7-0.5h7.6l0.6,0.3h4.8
			c0.5,0.6,2.4,0.5,2.4,0.5c1.6,0.8,11.6,0.6,11.6,0.6h22.9c2.5,0.8,11.4,0,11.4,0v-0.9h1.3c1.5-1.3,2.9-0.9,2.9-0.9
			c2.7,0.2,1.6,2.4,1.6,2.4c1.7-1.1,3.5,0.7,3.5,0.7c2-1.8,5.3-0.2,5.3-0.2c0.6-1.5,2.2-2,2.2-2v-7.6c0-1.2-1.3-1.4-1.3-1.4v-0.7
			c0-1.4-0.7-1.7-0.7-1.7v-1.2c0-0.8-0.6-1-0.8-1V9.7c0-1.4-0.5-1.6-0.5-1.6c0-1.3-1.2-2.1-1.2-2.1V4.4h-0.6V1.7h-1v1.8h-0.6v0.9
			h-0.6v1.2c-1.2,1.4-1.1,2.6-1.1,2.6h-0.8v2H183V13l-0.5,0.3v1.4h-1.7v6.1h-0.5V20h-1v0.8h-1.1v-0.9H177v-1.8h-1.3v-2.5h-1.5v-1
			h0.5v-0.8h-0.3c0-3.4-3.4-4.4-3.4-4.4V6.8h1c0-1.6-2.5-1.8-2.5-1.8v1.1c-1,0.8-0.7,1.7-0.7,1.7v1.4c-3.7,1.9-3.6,4.8-3.6,4.8h-0.6
			v0.7h0.6v1.2h-1.8v0.8h0.6v1.8h-1.1v0.8l-3.4-0.8H156l-7.4-5.9l-7.1,6.2l-3.8-2.5l-4.5,3.7H130v0.7h-0.7v-1l-0.7-0.2l0.3-5.6
			l-1.2-0.2l-0.5,5.9h-0.8l0.1-1.2l-0.5,0.1l0.2-7.6l-0.9-1.7l-0.7,1.1l-0.3,0.5l-0.5,6.4c-0.7-0.5-1.7-1.2-1.7-1.2
			c-0.5,0.6-1.2,1.2-1.2,1.2h-0.8l0.3-0.3c1.2-1.9-0.7-2.3-0.7-2.3c-2.9-1.1-4.8-2.9-4.8-2.9c-1,1.4-4.8,3.6-4.8,3.6
			c-1.3,1.3-0.5,2.8-0.5,2.8h-0.4c-0.4-0.8-1.3-1.2-1.3-1.2l-1,1.7l-1.6-6.7l-0.5-0.6l-0.6-0.1l-0.9,0.7l0.3,0.8l2,9.1l-0.8,0.1
			l-0.3,0.6h-1.4 M80,23.8V24h24 M12.3,6.9l2.6-0.1c0,0-0.5,0.9-1.6,1.5l-1.1,0.1L12.3,6.9z M15.7,9.7v1.7l-0.8-0.1
			c-1.2-0.7-1.7-1.6-1.7-1.6L15.7,9.7z M12.2,9.8l0.4-0.1c0.4,1,1.5,1.7,1.5,1.7l-1.9-0.1V9.8z M15.7,20.3l-0.4,0.2v-1.2h-0.9v1.3
			h-0.8v-1.4H12l0.1-1.6l3.6,0.7C15.7,18.3,15.7,20.3,15.7,20.3z M15.8,16.3l-3.9-0.8v-0.4h4L15.8,16.3L15.8,16.3z M15.9,13.8h-4.1
			v-1.3h4.1V13.8z M14.1,8.3c0.6,0,1.5-1.5,1.5-1.5h0.3L16,8.3H14.1z M17,10.3l1.8,3.5c1.1,2.4,3.7,4.7,3.7,4.7
			c-1.9-0.6-5.4-3.4-5.4-3.4v-4.8H17z M17.2,15.9c0.5,0.8,2.8,2,2.8,2c-1-0.4-2.8-1.1-2.8-1.1V15.9z M26.2,21.7H25v-1.4h-1.6v1.3
			h-1.2v-1.1h-0.8v1.2h-1.5v-1.2H19v0.8h-0.7v-1.2h-1v-1.7c2.3,0.4,8.9,1.6,8.9,1.6S26.2,21.7,26.2,21.7z M26.3,19.3L24,18.8
			c1.8,0.1,2.3-0.6,2.3-0.6V19.3z M27.7,21.4h-0.6V22h-0.6v-1.8l1.2,0.3V21.4z M28.1,19.6v-1.7c0.9,1.8,1.3,2,1.3,2L28.1,19.6z
			 M32.9,22.4H32v-0.7h-0.8v0.4h-0.4v-0.8H30V22h-0.4v-1.2c1.4,0,3.2,0.4,3.2,0.4v1.2H32.9z M57.6,21.6l-0.9,0.1l-0.1-4.4l1,0.1
			V21.6z M60.1,21l-1,0.3v-3.6h1V21z M62.9,20.7L61.8,21v-3.1l1.1,0.1C62.9,18,62.9,20.7,62.9,20.7z M66.2,20l-1.6,0.3v-1.9l1.6,0.1
			V20z M68.7,19.8h-1v-0.6l1-0.1V19.8z M71.6,20.1l-1-0.1v-1.1l1.1-0.3L71.6,20.1L71.6,20.1z M74.3,20.8l-0.9-0.2v-2.3l0.9-0.3V20.8
			z M76.6,21.2L76,20.8v-3l0.7-0.3L76.6,21.2L76.6,21.2z"/>
		<path class="st1" d="M187.2,6.7c0.8,0,1.8,0.8,1.8,0.8c0-1.3-1.9-1.8-1.9-1.8c-1.7,0.4-2,1.8-2,1.8C186.2,6.6,187.2,6.7,187.2,6.7
			z M187,8.5c1.5,0,2.6,1,2.6,1c0.1-0.5-0.2-1-0.2-1c-0.4-0.8-2.3-1.4-2.3-1.4c-1.9,0.5-2.3,1.4-2.3,1.4v1
			C185.6,8.9,187,8.5,187,8.5z M187.1,4.9c0,0,0.3,0.3,0.3,0.7h0.6V4.5h-0.4V1.8H187l0.2,0.1v1.8h-0.5v0.7h-0.6v1.2h0.6
			C186.8,5.6,186.7,5.2,187.1,4.9z M190.4,11.7v-1.5c-1.3-0.9-3.1-1.3-3.1-1.3c-2.3,0.3-3.4,1.7-3.4,1.7v1.2c1.9-1,3.4-1.1,3.4-1.1
			C188.7,10.9,190.4,11.7,190.4,11.7z M191.7,14.7V24c0,0,0.3-0.5,1.1-0.8v-7.8C192.9,15.3,192.4,14.5,191.7,14.7z M187.2,11.3
			c-2.9,0.3-4.1,2.5-4.1,2.5V24c1.8,0.2,2.7,1.2,2.7,1.2c1.9-1.5,5-0.3,5-0.3l0.5-0.5V13C190.4,12.1,187.2,11.3,187.2,11.3z
			 M181.1,22.1c0,0,0.9,0.1,1.4,0.9v-8.2H181v7.3H181.1z"/>
		<g>
			<path d="M184.5,23.9v-9.3c0,0,1.3-1.6,2.5-1.9c0,0,2.2,0.5,2.7,1.4v9h-0.5v-8.6c0,0-0.1-0.9-2.2-1.3c0,0-1.2,0.3-1.9,1.6v9.8
				C185.3,24.6,185.2,24.3,184.5,23.9z"/>
			<path d="M183.5,19.5h0.6v-0.7h-0.6V19.5z M183.5,22.1h0.6v-0.7h-0.6V22.1z M183.5,20.7h0.6V20h-0.6V20.7z M183.5,16.3V17h0.6
				v-0.7H183.5z M183.5,18.2h0.6v-0.7h-0.6V18.2z M183.5,23.3h0.6v-0.7h-0.6V23.3z"/>
			<path d="M190.3,19.1h0.6v-0.7h-0.6V19.1z M190.3,21.7h0.6V21h-0.6V21.7z M190.3,20.3h0.6v-0.7h-0.6V20.3z M190.3,15.9v0.7h0.6
				v-0.7C190.9,15.9,190.3,15.9,190.3,15.9z M190.3,17.8h0.6v-0.7h-0.6V17.8z M190.3,22.9h0.6v-0.7h-0.6V22.9z"/>
			<path d="M191.8,19.5h0.6v-0.7h-0.6V19.5z M191.8,22.1h0.6v-0.7h-0.6V22.1z M191.8,20.7h0.6V20h-0.6V20.7z M191.8,16.3V17h0.6
				v-0.7H191.8z M191.8,18.2h0.6v-0.7h-0.6V18.2z M191.8,23.3h0.6v-0.7h-0.6V23.3z"/>
			<path d="M181.7,18.6h0.6V18h-0.6V18.6z M181.7,21.2h0.6v-0.7h-0.6V21.2z M181.7,19.9h0.6v-0.7h-0.6V19.9z M181.7,15.5v0.7h0.6
				v-0.7C182.3,15.5,181.7,15.5,181.7,15.5z M181.7,17.4h0.6v-0.7h-0.6V17.4z M181.7,22.4h0.6v-0.7h-0.6V22.4z"/>
			<g>
				<path d="M186.1,18.5h0.6v-0.7h-0.6V18.5z M186.1,21.1h0.6v-0.7h-0.6V21.1z M186.1,19.8h0.6v-0.7h-0.6V19.8z M186.1,15.4v0.7h0.6
					v-0.7C186.7,15.4,186.1,15.4,186.1,15.4z M186.1,17.3h0.6v-0.7h-0.6V17.3z M186.1,22.4h0.6v-0.7h-0.6V22.4z"/>
				<path d="M187.1,18.5h0.6v-0.7h-0.6V18.5z M187.1,21.1h0.6v-0.7h-0.6V21.1z M187.1,19.8h0.6v-0.7h-0.6V19.8z M187.1,15.4v0.7h0.6
					v-0.7C187.7,15.4,187.1,15.4,187.1,15.4z M187.1,17.3h0.6v-0.7h-0.6V17.3z M187.1,22.4h0.6v-0.7h-0.6V22.4z"/>
				<path d="M188.2,18.5h0.6v-0.7h-0.6V18.5z M188.2,21.1h0.6v-0.7h-0.6V21.1z M188.2,19.8h0.6v-0.7h-0.6V19.8z M188.2,15.4v0.7h0.6
					v-0.7C188.8,15.4,188.2,15.4,188.2,15.4z M188.2,17.3h0.6v-0.7h-0.6V17.3z M188.2,22.4h0.6v-0.7h-0.6V22.4z"/>
			</g>
		</g>
		<path class="st2" d="M174.4,14.4v-0.3c0,0-7.6-0.1-9.5,0l0.1,0.3H174.4z M174,15.8v-1.2c0,0-6.1,0-8.5,0v1
			C165.5,15.6,171.1,15.7,174,15.8z M173.9,14c0.3-3.6-4.1-4.6-4.1-4.6c-3.4,0.6-4.3,4.4-4.3,4.4C170.7,13.7,173.9,14,173.9,14z
			 M165,19.3v0.4c0.9,0,11.5,0.2,11.5,0.2v-1.5l-12.4,0.1v0.4h5.2v0.5H165V19.3z M175.2,15.9c0,0-8.1-0.1-11.5,0.1v0.3
			c0,0,11.1-0.1,11.5-0.1V15.9z M177,20.2v0.6h-2v-0.6h-0.8v0.6h-1.6v-0.7h-1.1v0.6H170V20h-0.6v0.7h-2.2v-0.6h-1v0.6h0.7v0.6h10.9
			V20L177,20.2z M164.3,16.7v1.6c0,0,8.7-0.1,11.1-0.1v-1.4C175.4,16.7,170.4,16.6,164.3,16.7z M170.6,6.8c0,0,0-0.4-0.8-0.5
			c0,0-0.5,0.1-0.6,0.8v1.8c0,0,1.1,0.1,1.4,0.3L170.6,6.8L170.6,6.8z"/>
		<path class="st3" d="M170.4,5.7h-0.6v0.4c0,0,0.7,0.3,1.1,0.7h1c0,0-0.2-0.9-1.1-1.3l-0.1,0.2H170.4z"/>
		<path class="st4" d="M169.7,5.1v0.4h0.9C170.6,5.6,170.7,5.4,169.7,5.1z"/>
		<path class="st5" d="M156.4,18.9l3.5,2.6l4.9,0.4v-1c0,0,0.7-0.2,1.2-0.2h0.4v-0.6c0,0-1.7,0-3-0.3
			C163.4,19.8,159.8,18.7,156.4,18.9z"/>
		<path class="st6" d="M165.1,24c0,0-0.5-0.7,0-1.1c0,0-1.5-0.3-0.3-1.2c0,0-0.7-0.8,0.8-0.8c0,0,1.3,0.1,0.5,1.3
			c0,0,0.5-0.3,0.6,0.4c0,0,0.2-0.7,1.3-0.5c0,0,0.6,0.2,0.4,0.6c0,0,0-0.8,1-0.8c0,0,1,0.3,0.1,0.8c0,0,0.5,0.5-0.1,0.7
			c0,0,1.9-0.2,1.9,0.5V24c-0.2,0.8,1-0.1,1-0.1s0.5-0.7,1.7-0.1c0,0,1.4-0.5,1.3,0.2l-0.1,0.2C175.1,24.2,166.1,25,165.1,24z"/>
		<path class="st5" d="M179.6,21.3h-1.2v0.6h-1.5v1h0.6c0.5-0.5,2.1-1.4,2.1-1.4L179.6,21.3z M170,23.1h0.5v-1h0.5v1.3h1.1v-1.3h0.8
			v1.2h1v-1h0.5v1h0.9v-1.1h0.7v0.7h0.6v-1.2h-6.5v1.4H170z"/>
		<g>
			<polygon class="st7" points="148.9,13.3 151.8,21.4 158.7,21.6 			"/>
			<polygon class="st8" points="148.3,13.2 143,18.1 137.1,22.4 137.2,22.7 141.9,22.4 147.6,21.7 151.1,21.3 149.8,17.2 			"/>
			<polygon class="st8" points="137.4,16.9 134.7,19.3 131.9,21.5 136.8,21.9 139.2,20.3 			"/>
			<polygon class="st7" points="137.9,16.8 139.5,20.1 140.9,18.9 			"/>
		</g>
		<path class="st9" d="M163.9,22.2c0,0-11.2-0.4-12.5-0.2l-7.5,0.4l-1.8,0.4c0,0,1.4,0.5,6.3,0.5c0,0-7.7,0.3-13-0.6
			c0,0-3.9-0.2-5.4,0.5c0,0,0,0.7,5.7,0.8c0,0,11.8,0.1,18.2,0h10.9c0,0,0-0.6,0-0.9C164.8,23.1,164,22.7,163.9,22.2z"/>
		<polygon class="st10" points="125.3,9.9 124.6,10.8 125.8,10.8 		"/>
		<path class="st10" d="M136,22.3c0,0-4.6-0.3-5.1-0.5l1.9-1.7h-2.7v0.6h-0.7v0.9h-0.5v-0.8h-0.6v-0.9h-0.8v1h-2l0.1-9.8h-0.9
			l-0.7,9.8h-0.3l0.1-2.4h-0.9c0,0,1.7-0.6-0.5-2c0,0-2,0.8-1.1,1.9h-0.7v-0.7h-1.8l-1.4-0.4v4.4h-0.5v-4.3l-6.9,1.2l-0.8,0.2
			l0.2,4.5l2.1-0.3l3.3-0.5l4.6,0.2v-1.1h0.9v1.1h1.3v-1h0.7v0.9h0.9v-1h0.7v1h1.1v-0.7h0.3v0.8h0.7v-0.6h0.5V23h1.4
			c0,0,0.9,0.6,2.3,0.6C130.1,23.4,128.2,22.3,136,22.3z M109.7,21.7V21l0.7-0.2v0.6L109.7,21.7z M110.5,19.7l-0.8,0.2v-0.7l0.9-0.2
			L110.5,19.7z M114.7,19.6c-2.1-0.5-2.8,0.5-2.8,0.5v1.5l-0.6,0.2v-2c-0.1-1.4,1.7-1.5,1.7-1.5C114.9,18.4,114.7,19.6,114.7,19.6z
			 M116,20.3l-0.7,0.3v-0.9l0.7-0.1V20.3z M116.1,18.7l-0.8,0.2v-0.7l0.8-0.2V18.7z"/>
		<path class="st10" d="M110.7,17.8c0,0-1.6-1.3,0.5-2.6c0,0,3.2-1.5,3.8-2.9c0,0,2.2,1.9,4.1,2.3c0,0,1.6,0.6,1,1.6
			c0,0-0.6,0.7-0.9,0.9l-2-0.3L110.7,17.8z"/>
		<path class="st10" d="M104.4,11.4l-0.6,0.7l2.3,9.5l-0.9,0.4l-0.3,0.3l0.2,1.3V24h1.4l1.6-0.4l0.9-0.2l-0.1-3.6l-1.4,0.2l0.3,2.5
			h-0.5l-2.1-10.1C105.1,12.4,105.1,12,104.4,11.4z"/>
		<path class="st10" d="M108.1,17.2l-0.7,1.1c0,0-0.8,1.1,0.2,1.1l1.3-0.2v-0.7l0.2-0.2C109,18.3,108.7,17.6,108.1,17.2z"/>
		<path class="st11" d="M99.7,12.4l-3.9-0.8v0.7l3.9,0.9V12.4z M99.3,13.4l-3.5-0.8v4.6l3.3,0.3L99.3,13.4z M99.3,21v-2.8l-3.4-0.5
			v3.7h3.7L99.3,21z M99.8,21.5l-3.7,0.2v2.1h3.8v-0.5h0.6v-1.1L99.8,21.5z M99.8,11.4L99,10.9l-3.2-0.6v1l4,0.8V11.4z M90.1,21.9
			v-4c0,0,0.6-1,0.1-1.4c0,0-2.2-0.2-2.4,1.9l1.5,0.6h-1.5v4.6h0.9v-1.7h0.8l0.9,1.3H91v-0.7h-0.5L90.1,21.9z"/>
		<path class="st12" d="M84.8,15.7l10-2l0.2-0.8L84.8,15V15.7z M86.9,15.5l-2.3,0.6v3l2.4-0.2L86.9,15.5z M95.5,21.5l0.1-3.8
			l-3.3,0.7v3h0.9v-2c0,0,0.1-0.6,0.7-0.5v2.6C93.9,21.5,95.5,21.5,95.5,21.5z M95.4,10.4h-1l-9.1,2.1v0.9l10.1-2.2V10.4z
			 M94.9,11.7l-10.2,2.2l-0.1,0.8l10.3-2.2C94.9,12.5,94.9,11.7,94.9,11.7z M95.3,17.3l-0.1-3.4L93,14.4l0.1,0.4l-0.8,0.1v-0.3
			l-4.7,0.9v1.6c0,0,0.8-1.5,3.7-1.5c0,0,1.3-0.1,1.3,2.2L95.3,17.3z M94.7,21.8v1h-0.5v-1l-1.9,0.1v2h3.5v-2.1H94.7z M84.4,19.5
			l-0.1,1L84,21.4v0.8h1.9v1.7h1.5v-4.8l-0.3,0.1L84.4,19.5z M85.3,22.5h-1.7v1.3h2l-0.1-1.3H85.3z"/>
		<path class="st13" d="M100.7,21.8c0,0,1.6-0.7,2.4,0.6h1.4c0,0,0.3,1.1,0.1,1.7H100c0,0-0.8-0.7,0.6-0.7L100.7,21.8z"/>
		<path class="st13" d="M83.8,21c-0.4,0.3-0.8,0.6-1.3,0.8c-0.6,0.3-1.2,0.6-1.6,0.7c0,0-1.5,0.3-0.7,1.3h3c4.5,0.4,6.8,0.1,7-0.6
			c0.1-0.4-0.4-0.9-1.4-1.6c-0.9-0.2-1.8-0.4-2.7-0.6C85.4,21,84.6,21,83.8,21z"/>
		<path class="st2" d="M68.8,13.3L79,16.1l-0.1,0.8l-10.3-3C68.5,13.9,68.4,13.3,68.8,13.3z"/>
		<path class="st2" d="M60.6,17.5l0.1,3.7l0.9-0.2l0.1-4.6C61,16.3,60.6,17.5,60.6,17.5z M63.3,16.9l-0.1,3.8l1-0.1l0.3-4.9
			C64.6,15.6,63.6,16,63.3,16.9z M57.8,17.6l0.1,3.9l0.8-0.3l0.1-4.5C58.5,16.8,57.8,17.6,57.8,17.6z M66.6,15.9
			c-0.1,0.8,0.1,0.1,0.1,0.1v4h0.9v-5.4C67.6,14.6,66.7,15.1,66.6,15.9z M72.2,16.2L72,20.5c0,0,1.2,0.4,1.2,0.1l0.1-4.3l-0.1-0.8
			C73.1,15.5,72.2,15.5,72.2,16.2z M74.7,17.3l-0.1,3.5c0,0,0.4,0.2,1,0.1l0.1-4.3C75.7,16.7,74.9,16.6,74.7,17.3z M78.1,17.3
			l-0.9,0.3l-0.1,3.8l1,0.1V17.3z M69.2,16.1L69.1,20h1.3l0.1-4.9C70.5,15,69.4,15.3,69.2,16.1z M55.2,22.3l1.1-0.5v-4.4
			c-0.3,0-0.8,0.2-0.8,0.2L55.2,22.3z"/>
		<polygon class="st2" points="61.7,11.8 58.7,14 58,14 54.5,15.9 55,16 63.9,13.6 64,13.8 54.9,16.4 55.2,16.7 68.1,13.6 68.1,13 
			66.9,13.1 		"/>
		<path class="st14" d="M67.8,14.6v4.1H69v-2.9c0,0,0.5-1.1,1.1-1.1l-1.4-0.4C68.6,14.3,67.8,13.8,67.8,14.6z M67.3,13.9l-11.5,3
			l2,0.2c0.8-0.8,1.5-0.5,1.5-0.5l0.1,0.8l0.8,0.1l0.1-0.9c1-1,1.8-0.8,1.8-0.8v1.8l1,0.1v-1.4c0.4-1.3,2-1.2,2-1.2v3l1.3-0.2V15
			C64.7,14.8,67.3,13.9,67.3,13.9z M70.8,15.3v3.5l1-0.5v-2.5l0.8-0.6l-1.5-0.4L70.8,15.3z M73.6,18l0.7-0.4l0.3-0.9l1.1-0.5l-2-0.6
			L73.6,18L73.6,18z M76.3,16.4l0.1,0.8L78,17L76.3,16.4z"/>
		<polygon class="st2" points="68.4,20.2 68.4,20.9 67.8,20.9 67.8,21.6 67.1,21.6 67.1,22.2 66.6,22.6 79.8,23.2 80.3,22.7 
			79.4,22.7 79.4,22.1 78.6,22.1 78.3,21.9 77.1,21.9 77.1,21.4 75.1,21.4 74.3,21.4 74.3,21.2 72.7,21.2 72.4,20.9 70,20.9 
			70,20.4 		"/>
		<polygon class="st14" points="67.9,20.4 67.9,20.8 67.1,20.8 67.1,21.6 66.4,21.6 66.4,22.5 63.8,22.5 63.8,23 60.3,23 60.3,23.6 
			51.5,24.5 52.1,24.1 52.9,24.1 52.9,23.4 53.9,23.4 53.9,22.9 54.6,22.9 54.6,22.5 55.6,22.5 57.1,22 65.5,20.6 67.2,20.3 		"/>
		<polygon class="st14" points="44.2,24.1 44.2,22.9 44.8,22.9 44.8,22.3 46,22.3 46,22.8 46.7,22.8 46.7,23.2 47.2,23.2 47.2,22.7 
			48.9,22.7 48.9,21.5 49.7,21.5 49.7,23.1 51.8,23.1 51.8,24.1 		"/>
		<polyline class="st14" points="32.2,24.2 32.2,23.2 32.9,23.2 32.9,21.7 33.9,21.7 33.9,22.8 34.9,22.8 34.9,22.1 36.1,22.1 
			36.1,22.9 36.6,22.9 36.6,23.7 36.3,24 32.2,24.1 		"/>
		<path class="st15" d="M10.8,19.5v1.4h1l-0.1-1.6L10.8,19.5z M16.6,20.6V5.7L12,6.1l0.1,0.6l3.8,0.1v1.8h-1.8l-1.4,1H16v2.1
			l-4.2-0.1l0.1-1.1h-0.8l-0.2,6.1h0.8V15l4.2-0.1v5.8l-0.6,0.1v1H18v-1.1L16.6,20.6L16.6,20.6z M11.8,14.1l0.1-1.8h4l0.1,1.6
			L11.8,14.1z M11.8,8.7l0.1,0.9l1.2-1L11.8,8.7z"/>
		<polygon class="st16" points="10.5,22.2 10.5,23 18.6,23 18.6,21.8 		"/>
		<path class="st2" d="M37.6,20.7l-0.8,2.6l-0.1,0.8l1.4-1.9c0,0,0.9-0.7,1.3,0.3l-0.9,1.7h1l0.8-1.8c0,0,1.3-0.8,1.9,0.2l-1,1.6
			h0.7l0.8-1.4c0,0,0.4-0.7,1.4-0.3v-1.3C44.3,21.3,43.4,20.8,37.6,20.7z"/>
		<path class="st2" d="M38.7,18.1l-0.9,2.2c0,0,4.6-0.1,6.8,0.6l-0.1-0.5l0.8-1.5C45.3,18.9,43.4,18.1,38.7,18.1z"/>
		<path class="st2" d="M39.5,15.5l-0.4,1.9c0,0,3.5,0.3,5.8,0.8l1.2-2.2C46.1,16.1,42.8,15.1,39.5,15.5z"/>
		<path class="st2" d="M40.1,13.3l-0.3,1.6c0,0,3.3,0.1,5.9,0.7l0.8-1.7C46.6,13.9,44.7,13,40.1,13.3z"/>
		<path class="st2" d="M40.7,11.1l0.1,1.7c0,0,3.6,0,5.7,0.5l0.7-1.6C47.2,11.6,43.5,10.8,40.7,11.1z"/>
		<path class="st2" d="M41.5,8.8l-0.4,1.9c0,0,3.5,0,5.9,0.7l0.9-1.5C47.9,9.9,46.2,8.9,41.5,8.8z"/>
		<path class="st2" d="M42.6,8.4l0.6-1.9c0,0,1.9-0.7,4.3,0.4L46.9,9C46.9,9,44.1,8.2,42.6,8.4z"/>
		<path d="M44.4,14.3c0.2-0.7-0.6-0.3-0.6-0.3l-0.5,0.8h0.8L44.4,14.3z M44.2,7.9c0.7-0.9,0.2-1.2,0.2-1.2C43.2,6.3,43,8.2,43,8.2
			h1.3L44.2,7.9L44.2,7.9z M44.9,12c0.2-0.7-0.6-0.3-0.6-0.3l-0.5,0.8h0.8L44.9,12z M41.7,14c0.2-0.7-0.6-0.3-0.6-0.3l-0.5,0.8h0.8
			L41.7,14z M42.8,9.8c0.2-0.7-0.6-0.3-0.6-0.3l-0.5,0.8h0.8L42.8,9.8z M42.3,11.8c0.2-0.7-0.6-0.3-0.6-0.3l-0.5,0.8H42L42.3,11.8z
			 M44.2,9.9c0.2-0.7-0.6-0.3-0.6-0.3l-0.5,0.8h0.8L44.2,9.9z M43.6,11.9c0.2-0.7-0.6-0.3-0.6-0.3l-0.5,0.8h0.8L43.6,11.9z
			 M45.2,10.5l0.3-0.5C45.7,9.4,45,9.7,45,9.7l-0.5,0.8H45.2z M42.5,13.8L42,14.6h0.8l0.3-0.5C43.2,13.5,42.5,13.8,42.5,13.8z
			 M41.8,19l-0.4,0.8h0.8l0.3-0.5C42.6,18.6,41.8,19,41.8,19z M43.1,19.1L42.7,20h0.8l0.3-0.5C43.9,18.8,43.1,19.1,43.1,19.1z
			 M44.5,16.7L44,17.5h0.8l0.3-0.5C45.3,16.4,44.5,16.7,44.5,16.7z M39.1,18.8l-0.4,0.8h0.8l0.3-0.5C39.9,18.4,39.1,18.8,39.1,18.8z
			 M45.7,11.9l-0.5,0.8H46l0.3-0.5C46.5,11.6,45.7,11.9,45.7,11.9z M45.1,14.1L44.6,15h0.8l0.3-0.5C45.9,13.8,45.1,14.1,45.1,14.1z
			 M43.2,16.4l-0.5,0.8h0.8l0.3-0.5C43.9,16.1,43.2,16.4,43.2,16.4z M40.5,16.2L40,17h0.8l0.3-0.5C41.3,15.9,40.5,16.2,40.5,16.2z
			 M41.8,16.3l-0.5,0.8h0.8l0.3-0.5C42.6,16,41.8,16.3,41.8,16.3z M40.5,18.9L40,19.7h0.8l0.3-0.5C41.2,18.5,40.5,18.9,40.5,18.9z
			 M46.3,9.9l-0.5,0.8h0.8l0.3-0.5C47.1,9.6,46.3,9.9,46.3,9.9z M46.4,8c0.7-0.9,0.2-1.2,0.2-1.2c-1.2-0.4-1.5,1.5-1.5,1.5h1.3V8z"
			/>
		<path class="st2" d="M50.3,17c-2.3-1.5-3.5-0.8-3.5-0.8c-0.4,0.1-1,1.4-1,1.4c1-1.3,3.3-0.3,3.3-0.3c1.5,0.6-0.2,1-0.2,1
			c-0.3,1.3,0.9,0.9,0.9,0.9C52.1,18,50.3,17,50.3,17z M56.3,9.8c-1.2-0.6-2.6,0.6-2.6,0.6c-0.8,1.3,0.6,1.6,0.6,1.6
			c1.5,0.2,1-0.6,1-0.6c-1.1-0.1-0.8-0.7-0.8-0.7C54.7,10,56.3,9.8,56.3,9.8z M37.3,10.8c0-1.5-2.7-1.7-2.7-1.7
			c-3.8,0-2.7,2.2-2.7,2.2c0.3-1.9,2.3-1.6,2.3-1.6c3,0.2,1.7,1.6,1.7,1.6c-0.6,0.8,0,1,0,1c1.4,0,1.2-1,1.2-1c1.9-0.4,3.3,1,3.3,1
			v-0.8C39,10.2,37.3,10.8,37.3,10.8z M22.4,8.7c-2.8-0.2-3,1.4-3,1.4c0.3,1.4,2,0.9,2,0.9c-1.4-0.4-0.7-1.3-0.7-1.3
			c1.2-0.8,1.9-0.1,1.9-0.1c0.8,0.4,0.8,0,0.8,0C23,8,25.3,7.7,25.3,7.7l-0.1-0.4C22.5,7.2,22.4,8.7,22.4,8.7z M110.6,11.5
			c0.3-0.4-0.1-0.8-0.1-0.8c-1.3-1.6-3.4-1-3.4-1c-0.9-2.3-3.3-1.5-3.3-1.5c-2.5,0.8-1,2.4-1,2.4c-0.4-2.1,1.4-2,1.4-2
			c2.3,0.1,2,1.7,2,1.7c0.1,1.4,0.9,0,0.9,0l0.8-0.2c2.8,0.4,1.5,1.6,1.5,1.6c-0.8,0.4-0.4,0.7-0.4,0.7l1.2-0.4
			C112,11.8,110.6,11.5,110.6,11.5z M124,11.8c-2.4,0.1-2.9,1-2.9,1c-2.6,0.1-2.4,1-2.4,1c0,0.5,0.5,0.2,0.5,0.2
			c1-1,2.5,0.2,2.5-0.5v-0.1c0.2-0.6,1.8-0.9,1.8-0.9C124.5,11.9,124,11.8,124,11.8z M90.8,7.9c-2.9-0.2-2.6,1.5-2.6,1.5
			c-2.5-0.8-3.2,0.7-3.2,0.7c-2.9-0.1-2.5,1.8-2.5,1.8c1.1-1.5,2.2-1.1,2.2-1.1c1.1,0.2,0.8-0.4,0.8-0.4c1-1.3,2.4-0.5,2.4-0.5
			c0.2,0.5,0.8,0.1,0.8,0.1c-0.2-1.3,1.6-1.6,1.6-1.6c1.8,0,1.4,1.4,1.4,1.4C93.2,8.2,90.8,7.9,90.8,7.9z M64.6,10.8
			c-0.6-1-2.8-0.7-2.8-0.7c0.9-2-2.2-1.9-2.2-1.9c-2.5,0-2.7,1.4-2.7,1.4c-0.1,1.5,0.8,1.3,0.8,1.3c0.9-0.2,0-0.8,0-0.8l-0.1-0.2
			c0.4-1.6,2.3-1.2,2.3-1.2c2.5,0.7,0.9,1.8,0.9,1.8c-0.4,0.6,0.4,0.7,0.4,0.7c1.5-1.1,3.1,0.4,3.1,0.4c0.3,0.6,1,0.2,1,0.2
			c0-2.3,3.3-2.5,3.3-2.5C65.1,8.9,64.6,10.8,64.6,10.8z M157.8,14.4c0.5-1.4-2-1.2-2-1.2c-1.4,0-1,1.2-1,1.2c0,0.8,1.4,0.9,1.4,0.9
			C158.6,15.4,157.8,14.4,157.8,14.4z"/>
	</g>
	<g class="st17">
		<path class="st18" d="M5.1,34.8l4.1-0.2c0.1,0.6,0.3,1,0.5,1.3c0.4,0.5,1.1,0.7,1.9,0.7c0.6,0,1.1-0.1,1.4-0.4
			c0.3-0.2,0.5-0.5,0.5-0.8c0-0.3-0.2-0.6-0.5-0.8c-0.3-0.2-1.1-0.5-2.2-0.7c-1.9-0.4-3.2-0.8-4-1.4C6,31.8,5.6,31,5.6,30.1
			c0-0.6,0.2-1.2,0.6-1.7c0.4-0.5,1-1,1.9-1.3c0.8-0.3,2-0.5,3.4-0.5c1.8,0,3.1,0.3,4.1,0.8c0.9,0.6,1.5,1.5,1.7,2.7l-4.1,0.2
			c-0.1-0.5-0.3-0.9-0.7-1.2c-0.3-0.2-0.8-0.4-1.4-0.4c-0.5,0-0.9,0.1-1.1,0.3c-0.3,0.2-0.4,0.4-0.4,0.7c0,0.2,0.1,0.4,0.3,0.5
			c0.2,0.2,0.7,0.3,1.4,0.4c1.9,0.3,3.2,0.7,4,1s1.4,0.8,1.8,1.3c0.4,0.5,0.6,1.1,0.6,1.7c0,0.8-0.2,1.5-0.7,2.1
			c-0.5,0.6-1.2,1.1-2.1,1.5s-2,0.5-3.3,0.5c-2.4,0-4-0.4-4.9-1.2C5.7,36.9,5.2,36,5.1,34.8z"/>
		<path class="st18" d="M19.1,34.4c0-1.3,0.5-2.4,1.6-3.2c1-0.8,2.4-1.3,4.2-1.3c2,0,3.5,0.5,4.6,1.5c0.8,0.8,1.2,1.8,1.2,3
			c0,1.3-0.5,2.4-1.5,3.2c-1,0.8-2.4,1.3-4.3,1.3c-1.6,0-2.9-0.3-3.9-1C19.7,37,19.1,35.8,19.1,34.4z M23,34.4
			c0,0.8,0.2,1.3,0.5,1.7s0.8,0.5,1.4,0.5c0.6,0,1-0.2,1.4-0.5s0.5-0.9,0.5-1.7c0-0.7-0.2-1.3-0.5-1.7c-0.4-0.4-0.8-0.5-1.3-0.5
			c-0.6,0-1,0.2-1.4,0.6C23.2,33.1,23,33.7,23,34.4z"/>
		<path class="st18" d="M43.2,38.7h-3.6v-1.4c-0.5,0.6-1.1,1-1.6,1.2c-0.5,0.2-1.2,0.4-2,0.4c-1.1,0-1.9-0.3-2.5-0.8
			c-0.6-0.5-0.9-1.4-0.9-2.5v-5.4h3.9v4.7c0,0.5,0.1,0.9,0.4,1.1c0.2,0.2,0.6,0.3,1,0.3c0.5,0,0.8-0.2,1.1-0.5
			c0.3-0.3,0.4-0.8,0.4-1.6v-4.1h3.9V38.7z"/>
		<path class="st18" d="M50.2,26.9v3.3h2.1v2.4h-2.1v3c0,0.4,0,0.6,0.1,0.7c0.1,0.2,0.3,0.3,0.7,0.3c0.3,0,0.7-0.1,1.2-0.2l0.3,2.3
			c-1,0.2-1.8,0.3-2.7,0.3c-1,0-1.7-0.1-2.1-0.3c-0.5-0.2-0.8-0.5-1-1c-0.2-0.4-0.3-1.1-0.3-2.1v-3h-1.4v-2.4h1.4v-1.6L50.2,26.9z"
			/>
		<path class="st18" d="M54.1,26.9H58v4.3c0.5-0.5,1-0.8,1.6-1s1.1-0.3,1.8-0.3c1.1,0,1.9,0.3,2.5,0.8c0.6,0.5,0.9,1.4,0.9,2.5v5.4
			h-3.9V34c0-0.5-0.1-0.9-0.4-1.1c-0.2-0.2-0.6-0.3-1-0.3c-0.5,0-0.8,0.2-1.1,0.5c-0.3,0.3-0.4,0.8-0.4,1.6v4.1h-3.9V26.9z"/>
		<path class="st18" d="M66.4,26.9h13.1v2.9h-4.4v8.9h-4.3v-8.9h-4.4V26.9z"/>
		<path class="st18" d="M80.3,30.1H84v1.4c0.3-0.6,0.7-1,1.1-1.3s0.8-0.3,1.4-0.3c0.6,0,1.2,0.2,1.9,0.5l-1.2,2.3
			c-0.5-0.2-0.8-0.2-1.1-0.2c-0.5,0-0.9,0.2-1.2,0.5c-0.4,0.5-0.6,1.4-0.6,2.8v2.9h-3.9V30.1z"/>
		<path class="st18" d="M92.8,32.9l-3.7-0.3c0.1-0.5,0.3-1,0.6-1.3c0.3-0.3,0.6-0.6,1.1-0.8c0.4-0.2,0.8-0.3,1.5-0.4
			c0.6-0.1,1.3-0.1,2-0.1c1.2,0,2.1,0.1,2.8,0.2s1.3,0.3,1.8,0.7c0.3,0.2,0.6,0.6,0.8,1c0.2,0.4,0.3,0.9,0.3,1.3v3.8
			c0,0.4,0,0.7,0.1,0.9c0.1,0.2,0.2,0.5,0.4,0.9h-3.6c-0.1-0.2-0.2-0.4-0.3-0.5c0-0.1-0.1-0.3-0.1-0.5c-0.5,0.4-1,0.7-1.5,0.9
			c-0.7,0.2-1.5,0.4-2.4,0.4c-1.2,0-2.1-0.2-2.7-0.7c-0.6-0.5-0.9-1.1-0.9-1.7c0-0.7,0.2-1.2,0.7-1.6c0.4-0.4,1.3-0.7,2.5-0.9
			c1.4-0.2,2.4-0.4,2.8-0.5c0.4-0.1,0.9-0.2,1.4-0.4c0-0.4-0.1-0.7-0.3-0.8c-0.2-0.2-0.5-0.2-1-0.2c-0.6,0-1.1,0.1-1.4,0.3
			C93.1,32.3,92.9,32.5,92.8,32.9z M96.1,34.6c-0.5,0.2-1.1,0.3-1.7,0.4c-0.8,0.2-1.3,0.4-1.5,0.5c-0.2,0.2-0.3,0.4-0.3,0.6
			c0,0.3,0.1,0.5,0.3,0.6c0.2,0.2,0.5,0.2,0.9,0.2c0.4,0,0.8-0.1,1.2-0.3s0.6-0.4,0.8-0.6c0.2-0.3,0.2-0.6,0.2-1V34.6z"/>
		<path class="st18" d="M100.7,30.1h4l2,5.4l2-5.4h3.9l-4.3,8.6h-3.4L100.7,30.1z"/>
		<path class="st18" d="M124.4,35.2h-7.7c0.1,0.5,0.2,0.9,0.5,1.2c0.4,0.4,0.9,0.6,1.5,0.6c0.4,0,0.7-0.1,1.1-0.2
			c0.2-0.1,0.4-0.3,0.7-0.5l3.8,0.3c-0.6,0.9-1.3,1.5-2.1,1.8c-0.8,0.4-2,0.6-3.5,0.6c-1.3,0-2.4-0.2-3.2-0.5s-1.4-0.8-1.9-1.5
			s-0.8-1.5-0.8-2.5c0-1.3,0.5-2.4,1.5-3.2c1-0.8,2.4-1.2,4.2-1.2c1.4,0,2.6,0.2,3.4,0.6c0.8,0.4,1.5,0.9,1.9,1.6s0.7,1.6,0.7,2.7
			V35.2z M120.5,33.6c-0.1-0.6-0.3-1.1-0.6-1.4c-0.3-0.3-0.8-0.4-1.3-0.4c-0.6,0-1.1,0.2-1.5,0.6c-0.2,0.3-0.4,0.6-0.4,1.2H120.5z"
			/>
		<path class="st18" d="M126.4,26.9h3.9v11.8h-3.9V26.9z"/>
		<path class="st18" d="M132,36.3l3.8-0.3c0.2,0.4,0.4,0.7,0.7,0.8c0.3,0.2,0.7,0.2,1.1,0.2c0.5,0,0.9-0.1,1.2-0.3
			c0.2-0.1,0.3-0.3,0.3-0.5c0-0.2-0.1-0.4-0.4-0.5c-0.2-0.1-0.8-0.2-1.7-0.3c-1.3-0.2-2.3-0.4-2.8-0.6c-0.5-0.2-1-0.5-1.3-0.9
			c-0.4-0.4-0.5-0.9-0.5-1.4c0-0.6,0.2-1,0.6-1.5c0.4-0.4,0.9-0.7,1.6-0.9c0.7-0.2,1.6-0.3,2.7-0.3c1.2,0,2.1,0.1,2.7,0.2
			s1,0.4,1.4,0.7s0.7,0.8,1,1.3l-3.7,0.3c-0.1-0.3-0.3-0.5-0.5-0.6c-0.3-0.2-0.7-0.3-1.1-0.3c-0.4,0-0.8,0.1-1,0.2
			c-0.2,0.1-0.3,0.3-0.3,0.5c0,0.2,0.1,0.4,0.4,0.5s0.8,0.2,1.7,0.3c1.3,0.1,2.2,0.3,2.9,0.5c0.6,0.2,1.1,0.5,1.4,0.9
			c0.3,0.4,0.5,0.9,0.5,1.3c0,0.5-0.2,1-0.5,1.4c-0.4,0.5-0.9,0.8-1.7,1.1c-0.8,0.3-1.8,0.4-3.1,0.4c-1.8,0-3.2-0.2-3.9-0.7
			S132.2,37.1,132,36.3z"/>
		<path class="st18" d="M144.6,35.4h4.1v3.3h-4.1V35.4z"/>
		<path class="st18" d="M158.5,35.3l3.7,0.4c-0.2,0.6-0.5,1.2-1,1.7c-0.5,0.5-1.1,0.8-1.8,1.1c-0.7,0.3-1.6,0.4-2.7,0.4
			c-1.1,0-2-0.1-2.7-0.3s-1.3-0.4-1.8-0.8c-0.5-0.4-0.9-0.8-1.2-1.3c-0.3-0.5-0.4-1.2-0.4-2c0-0.9,0.2-1.6,0.5-2.2
			c0.3-0.4,0.6-0.8,1.1-1.2c0.4-0.3,0.9-0.6,1.4-0.8c0.8-0.3,1.7-0.4,2.9-0.4c1.6,0,2.9,0.2,3.8,0.7c0.9,0.5,1.5,1.2,1.8,2.2
			l-3.6,0.4c-0.1-0.4-0.3-0.6-0.6-0.8c-0.3-0.2-0.7-0.3-1.2-0.3c-0.6,0-1.2,0.2-1.6,0.6c-0.4,0.4-0.6,1-0.6,1.8
			c0,0.7,0.2,1.2,0.6,1.6c0.4,0.4,0.9,0.5,1.5,0.5c0.5,0,0.9-0.1,1.3-0.3C158.1,36.1,158.4,35.8,158.5,35.3z"/>
		<path class="st18" d="M163.5,34.4c0-1.3,0.5-2.4,1.6-3.2c1-0.8,2.4-1.3,4.2-1.3c2,0,3.5,0.5,4.6,1.5c0.8,0.8,1.2,1.8,1.2,3
			c0,1.3-0.5,2.4-1.5,3.2c-1,0.8-2.5,1.3-4.3,1.3c-1.6,0-2.9-0.3-3.9-1C164.1,37,163.5,35.8,163.5,34.4z M167.4,34.4
			c0,0.8,0.2,1.3,0.5,1.7c0.4,0.4,0.8,0.5,1.4,0.5c0.6,0,1-0.2,1.4-0.5c0.4-0.4,0.5-0.9,0.5-1.7c0-0.7-0.2-1.3-0.5-1.7
			c-0.4-0.4-0.8-0.5-1.3-0.5c-0.6,0-1,0.2-1.4,0.6C167.6,33.1,167.4,33.7,167.4,34.4z"/>
		<path class="st18" d="M177,30.1h3.6v1.2c0.5-0.5,1-0.9,1.6-1.1s1.2-0.3,1.9-0.3c0.8,0,1.4,0.1,1.9,0.4s0.9,0.6,1.1,1.1
			c0.6-0.6,1.2-0.9,1.7-1.1s1.1-0.3,1.8-0.3c1.1,0,1.9,0.3,2.5,0.8c0.6,0.5,0.9,1.4,0.9,2.6v5.4h-3.9v-4.9c0-0.4-0.1-0.7-0.3-0.9
			c-0.3-0.3-0.6-0.4-1-0.4c-0.5,0-0.8,0.1-1.1,0.4s-0.4,0.7-0.4,1.3v4.4h-3.9V34c0-0.4,0-0.6-0.1-0.8c-0.1-0.2-0.2-0.4-0.4-0.5
			c-0.2-0.1-0.4-0.2-0.7-0.2c-0.4,0-0.8,0.1-1.1,0.4c-0.3,0.3-0.4,0.8-0.4,1.4v4.4H177V30.1z"/>
	</g>
	<g class="st17">
		<path class="st19" d="M6.8,46l1.3,0.4c-0.1,0.4-0.2,0.8-0.4,1C7.5,47.7,7.3,48,7,48.1s-0.6,0.2-1,0.2c-0.5,0-0.9-0.1-1.3-0.3
			c-0.3-0.2-0.6-0.5-0.8-0.9c-0.2-0.4-0.4-1-0.4-1.7c0-0.9,0.2-1.6,0.6-2.1c0.4-0.5,1-0.7,1.8-0.7c0.6,0,1.1,0.1,1.4,0.4
			s0.6,0.7,0.8,1.3l-1.3,0.3c0-0.2-0.1-0.3-0.1-0.4c-0.1-0.1-0.2-0.2-0.3-0.3c-0.1-0.1-0.2-0.1-0.4-0.1c-0.3,0-0.6,0.2-0.8,0.5
			C5,44.6,5,45,5,45.4c0,0.6,0.1,1,0.2,1.3C5.4,46.9,5.6,47,5.9,47c0.3,0,0.5-0.1,0.6-0.3C6.6,46.6,6.7,46.3,6.8,46z"/>
		<path class="st19" d="M12.3,48.2h-1.2v-0.6c-0.2,0.3-0.4,0.5-0.6,0.6c-0.2,0.1-0.4,0.2-0.7,0.2c-0.4,0-0.6-0.1-0.8-0.4
			c-0.2-0.3-0.3-0.6-0.3-1.2v-2.5H10v2.2c0,0.2,0,0.4,0.1,0.5c0.1,0.1,0.2,0.2,0.3,0.2c0.2,0,0.3-0.1,0.4-0.2
			c0.1-0.1,0.1-0.4,0.1-0.8v-1.9h1.3V48.2z"/>
		<path class="st19" d="M12.9,47.1l1.3-0.1c0.1,0.2,0.1,0.3,0.2,0.4c0.1,0.1,0.2,0.1,0.4,0.1c0.2,0,0.3,0,0.4-0.1
			c0.1-0.1,0.1-0.1,0.1-0.2c0-0.1,0-0.2-0.1-0.3c-0.1,0-0.3-0.1-0.6-0.2c-0.5-0.1-0.8-0.2-0.9-0.3c-0.2-0.1-0.3-0.2-0.4-0.4
			c-0.1-0.2-0.2-0.4-0.2-0.6c0-0.3,0.1-0.5,0.2-0.7s0.3-0.3,0.5-0.4c0.2-0.1,0.5-0.1,0.9-0.1c0.4,0,0.7,0,0.9,0.1
			c0.2,0.1,0.4,0.2,0.5,0.3c0.1,0.2,0.2,0.4,0.3,0.6l-1.2,0.1c0-0.1-0.1-0.2-0.2-0.3C14.9,45,14.7,45,14.6,45c-0.1,0-0.3,0-0.3,0.1
			c-0.1,0.1-0.1,0.1-0.1,0.2c0,0.1,0,0.2,0.1,0.2c0.1,0,0.3,0.1,0.6,0.1c0.4,0.1,0.8,0.1,1,0.2c0.2,0.1,0.4,0.2,0.5,0.4
			c0.1,0.2,0.2,0.4,0.2,0.6c0,0.2-0.1,0.5-0.2,0.7c-0.1,0.2-0.3,0.4-0.6,0.5c-0.3,0.1-0.6,0.2-1,0.2c-0.6,0-1.1-0.1-1.3-0.3
			C13.1,47.8,12.9,47.5,12.9,47.1z"/>
		<path class="st19" d="M18.7,42.7v1.5h0.7v1.1h-0.7v1.4c0,0.2,0,0.3,0,0.3c0,0.1,0.1,0.1,0.2,0.1c0.1,0,0.2,0,0.4-0.1l0.1,1.1
			c-0.3,0.1-0.6,0.1-0.9,0.1c-0.3,0-0.6,0-0.7-0.1c-0.2-0.1-0.3-0.2-0.3-0.4c-0.1-0.2-0.1-0.5-0.1-1v-1.4h-0.5v-1.1h0.5v-0.7
			L18.7,42.7z"/>
		<path class="st19" d="M19.9,46.2c0-0.6,0.2-1.1,0.5-1.5c0.4-0.4,0.8-0.6,1.4-0.6c0.7,0,1.2,0.2,1.5,0.7c0.3,0.4,0.4,0.8,0.4,1.4
			c0,0.6-0.2,1.1-0.5,1.5c-0.3,0.4-0.8,0.6-1.4,0.6c-0.5,0-1-0.2-1.3-0.5C20.1,47.4,19.9,46.9,19.9,46.2z M21.2,46.2
			c0,0.4,0.1,0.6,0.2,0.8s0.3,0.3,0.5,0.3c0.2,0,0.3-0.1,0.5-0.2c0.1-0.2,0.2-0.4,0.2-0.8c0-0.3-0.1-0.6-0.2-0.8
			c-0.1-0.2-0.3-0.3-0.5-0.3c-0.2,0-0.3,0.1-0.5,0.3C21.2,45.6,21.2,45.9,21.2,46.2z"/>
		<path class="st19" d="M24.4,44.2h1.2v0.6c0.2-0.2,0.4-0.4,0.5-0.5s0.4-0.2,0.6-0.2c0.3,0,0.5,0.1,0.6,0.2c0.2,0.1,0.3,0.3,0.4,0.5
			c0.2-0.3,0.4-0.4,0.6-0.5s0.4-0.1,0.6-0.1c0.4,0,0.7,0.1,0.9,0.4c0.2,0.3,0.3,0.6,0.3,1.2v2.5h-1.3v-2.3c0-0.2,0-0.3-0.1-0.4
			c-0.1-0.1-0.2-0.2-0.3-0.2c-0.2,0-0.3,0.1-0.4,0.2S28,45.9,28,46.2v2.1h-1.3V46c0-0.2,0-0.3,0-0.4c0-0.1-0.1-0.2-0.1-0.2
			c-0.1-0.1-0.1-0.1-0.2-0.1c-0.2,0-0.3,0.1-0.4,0.2s-0.1,0.3-0.1,0.7v2h-1.3V44.2z"/>
		<path class="st19" d="M34.8,46.6h-2.6c0,0.2,0.1,0.4,0.2,0.5c0.1,0.2,0.3,0.3,0.5,0.3c0.1,0,0.3,0,0.4-0.1c0.1,0,0.1-0.1,0.2-0.3
			l1.3,0.1c-0.2,0.4-0.4,0.7-0.7,0.9c-0.3,0.2-0.7,0.3-1.2,0.3c-0.5,0-0.8-0.1-1.1-0.2s-0.5-0.4-0.6-0.7s-0.3-0.7-0.3-1.1
			c0-0.6,0.2-1.1,0.5-1.5c0.3-0.4,0.8-0.6,1.4-0.6c0.5,0,0.9,0.1,1.2,0.3c0.3,0.2,0.5,0.4,0.6,0.8c0.1,0.3,0.2,0.8,0.2,1.3V46.6z
			 M33.5,45.9c0-0.3-0.1-0.5-0.2-0.6S33,45,32.8,45c-0.2,0-0.4,0.1-0.5,0.3c-0.1,0.1-0.1,0.3-0.2,0.5H33.5z"/>
		<path class="st19" d="M35.4,44.2h1.2v0.7c0.1-0.3,0.2-0.5,0.4-0.6c0.1-0.1,0.3-0.2,0.5-0.2c0.2,0,0.4,0.1,0.6,0.2l-0.4,1.1
			c-0.2-0.1-0.3-0.1-0.4-0.1c-0.2,0-0.3,0.1-0.4,0.2c-0.1,0.2-0.2,0.7-0.2,1.3v1.3h-1.3V44.2z"/>
		<path class="st19" d="M40.3,46.4l1.4-0.1c0,0.3,0.1,0.5,0.2,0.6c0.1,0.2,0.4,0.3,0.6,0.3c0.2,0,0.4-0.1,0.5-0.2
			c0.1-0.1,0.2-0.2,0.2-0.4c0-0.1-0.1-0.3-0.2-0.4s-0.4-0.2-0.7-0.3c-0.6-0.2-1.1-0.4-1.4-0.7c-0.3-0.3-0.4-0.6-0.4-1.1
			c0-0.3,0.1-0.5,0.2-0.8s0.4-0.4,0.6-0.6s0.7-0.2,1.2-0.2c0.6,0,1.1,0.1,1.4,0.4c0.3,0.3,0.5,0.7,0.6,1.2l-1.4,0.1
			c0-0.2-0.1-0.4-0.2-0.5c-0.1-0.1-0.3-0.2-0.5-0.2c-0.2,0-0.3,0-0.4,0.1s-0.1,0.2-0.1,0.3c0,0.1,0,0.2,0.1,0.2
			c0.1,0.1,0.2,0.1,0.5,0.2c0.6,0.2,1.1,0.3,1.4,0.5c0.3,0.2,0.5,0.4,0.6,0.6c0.1,0.2,0.2,0.5,0.2,0.8c0,0.4-0.1,0.7-0.3,1
			c-0.2,0.3-0.4,0.5-0.7,0.7c-0.3,0.2-0.7,0.2-1.1,0.2c-0.8,0-1.4-0.2-1.7-0.5C40.6,47.4,40.4,47,40.3,46.4z"/>
		<path class="st19" d="M46.4,45.5l-1.2-0.2c0-0.3,0.1-0.5,0.2-0.6c0.1-0.1,0.2-0.3,0.4-0.4c0.1-0.1,0.3-0.1,0.5-0.2
			s0.4-0.1,0.7-0.1c0.4,0,0.7,0,0.9,0.1c0.2,0.1,0.4,0.2,0.6,0.3c0.1,0.1,0.2,0.3,0.3,0.5c0.1,0.2,0.1,0.4,0.1,0.6v1.8
			c0,0.2,0,0.3,0,0.4S49,48,49,48.2h-1.2c0-0.1-0.1-0.2-0.1-0.2c0-0.1,0-0.1,0-0.3c-0.2,0.2-0.3,0.3-0.5,0.4
			c-0.2,0.1-0.5,0.2-0.8,0.2c-0.4,0-0.7-0.1-0.9-0.3c-0.2-0.2-0.3-0.5-0.3-0.8c0-0.3,0.1-0.6,0.2-0.7c0.2-0.2,0.4-0.3,0.8-0.4
			c0.5-0.1,0.8-0.2,1-0.2c0.1,0,0.3-0.1,0.5-0.2c0-0.2,0-0.3-0.1-0.4s-0.2-0.1-0.4-0.1c-0.2,0-0.4,0-0.5,0.1
			C46.6,45.2,46.5,45.4,46.4,45.5z M47.6,46.3c-0.2,0.1-0.4,0.1-0.6,0.2c-0.3,0.1-0.4,0.2-0.5,0.2c-0.1,0.1-0.1,0.2-0.1,0.3
			c0,0.1,0,0.2,0.1,0.3s0.2,0.1,0.3,0.1c0.1,0,0.3,0,0.4-0.1c0.1-0.1,0.2-0.2,0.3-0.3c0.1-0.1,0.1-0.3,0.1-0.5V46.3z"/>
		<path class="st19" d="M51.1,42.7v1.5h0.7v1.1h-0.7v1.4c0,0.2,0,0.3,0,0.3c0,0.1,0.1,0.1,0.2,0.1c0.1,0,0.2,0,0.4-0.1l0.1,1.1
			c-0.3,0.1-0.6,0.1-0.9,0.1c-0.3,0-0.6,0-0.7-0.1c-0.2-0.1-0.3-0.2-0.3-0.4c-0.1-0.2-0.1-0.5-0.1-1v-1.4h-0.5v-1.1h0.5v-0.7
			L51.1,42.7z"/>
		<path class="st19" d="M52.5,42.7h1.3v1h-1.3V42.7z M52.5,44.2h1.3v4h-1.3V44.2z"/>
		<path class="st19" d="M54.4,47.1l1.3-0.1c0.1,0.2,0.1,0.3,0.2,0.4c0.1,0.1,0.2,0.1,0.4,0.1c0.2,0,0.3,0,0.4-0.1
			c0.1-0.1,0.1-0.1,0.1-0.2c0-0.1,0-0.2-0.1-0.3c-0.1,0-0.3-0.1-0.6-0.2c-0.5-0.1-0.8-0.2-0.9-0.3c-0.2-0.1-0.3-0.2-0.4-0.4
			c-0.1-0.2-0.2-0.4-0.2-0.6c0-0.3,0.1-0.5,0.2-0.7s0.3-0.3,0.5-0.4c0.2-0.1,0.5-0.1,0.9-0.1c0.4,0,0.7,0,0.9,0.1
			c0.2,0.1,0.4,0.2,0.5,0.3c0.1,0.2,0.2,0.4,0.3,0.6l-1.2,0.1c0-0.1-0.1-0.2-0.2-0.3C56.4,45,56.3,45,56.2,45c-0.1,0-0.3,0-0.3,0.1
			c-0.1,0.1-0.1,0.1-0.1,0.2c0,0.1,0,0.2,0.1,0.2c0.1,0,0.3,0.1,0.6,0.1c0.4,0.1,0.8,0.1,1,0.2c0.2,0.1,0.4,0.2,0.5,0.4
			c0.1,0.2,0.2,0.4,0.2,0.6c0,0.2-0.1,0.5-0.2,0.7c-0.1,0.2-0.3,0.4-0.6,0.5c-0.3,0.1-0.6,0.2-1,0.2c-0.6,0-1.1-0.1-1.3-0.3
			C54.7,47.8,54.5,47.5,54.4,47.1z"/>
		<path class="st19" d="M60.1,44.2h0.6v1.1h-0.6v2.9h-1.3v-2.9h-0.5v-1.1h0.5v-0.2c0-0.2,0-0.3,0-0.5c0-0.2,0.1-0.4,0.2-0.5
			c0.1-0.1,0.2-0.2,0.3-0.3c0.1-0.1,0.4-0.1,0.7-0.1c0.2,0,0.6,0,1,0.1l-0.1,0.9c-0.2,0-0.3,0-0.4,0c-0.1,0-0.2,0-0.3,0.1
			c-0.1,0-0.1,0.1-0.1,0.2C60.1,43.9,60.1,44.1,60.1,44.2z"/>
		<path class="st19" d="M62.4,45.5l-1.2-0.2c0-0.3,0.1-0.5,0.2-0.6c0.1-0.1,0.2-0.3,0.4-0.4c0.1-0.1,0.3-0.1,0.5-0.2
			s0.4-0.1,0.7-0.1c0.4,0,0.7,0,0.9,0.1c0.2,0.1,0.4,0.2,0.6,0.3c0.1,0.1,0.2,0.3,0.3,0.5c0.1,0.2,0.1,0.4,0.1,0.6v1.8
			c0,0.2,0,0.3,0,0.4s0.1,0.2,0.1,0.4h-1.2c0-0.1-0.1-0.2-0.1-0.2c0-0.1,0-0.1,0-0.3c-0.2,0.2-0.3,0.3-0.5,0.4
			c-0.2,0.1-0.5,0.2-0.8,0.2c-0.4,0-0.7-0.1-0.9-0.3c-0.2-0.2-0.3-0.5-0.3-0.8c0-0.3,0.1-0.6,0.2-0.7c0.2-0.2,0.4-0.3,0.8-0.4
			c0.5-0.1,0.8-0.2,1-0.2c0.1,0,0.3-0.1,0.5-0.2c0-0.2,0-0.3-0.1-0.4s-0.2-0.1-0.4-0.1c-0.2,0-0.4,0-0.5,0.1
			C62.5,45.2,62.4,45.4,62.4,45.5z M63.5,46.3c-0.2,0.1-0.4,0.1-0.6,0.2c-0.3,0.1-0.4,0.2-0.5,0.2c-0.1,0.1-0.1,0.2-0.1,0.3
			c0,0.1,0,0.2,0.1,0.3s0.2,0.1,0.3,0.1c0.1,0,0.3,0,0.4-0.1c0.1-0.1,0.2-0.2,0.3-0.3c0.1-0.1,0.1-0.3,0.1-0.5V46.3z"/>
		<path class="st19" d="M68.1,46.7l1.2,0.2c-0.1,0.3-0.2,0.6-0.3,0.8s-0.4,0.4-0.6,0.5s-0.6,0.2-0.9,0.2c-0.4,0-0.7,0-0.9-0.1
			c-0.2-0.1-0.4-0.2-0.6-0.4s-0.3-0.4-0.4-0.6c-0.1-0.2-0.1-0.6-0.1-0.9c0-0.4,0.1-0.8,0.2-1c0.1-0.2,0.2-0.4,0.4-0.5
			c0.2-0.2,0.3-0.3,0.5-0.4c0.3-0.1,0.6-0.2,1-0.2c0.6,0,1,0.1,1.3,0.3c0.3,0.2,0.5,0.6,0.6,1L68,45.7c0-0.2-0.1-0.3-0.2-0.4
			c-0.1-0.1-0.2-0.1-0.4-0.1c-0.2,0-0.4,0.1-0.5,0.3c-0.1,0.2-0.2,0.5-0.2,0.8c0,0.3,0.1,0.6,0.2,0.7s0.3,0.3,0.5,0.3
			c0.2,0,0.3-0.1,0.4-0.2S68,46.9,68.1,46.7z"/>
		<path class="st19" d="M71.5,42.7v1.5h0.7v1.1h-0.7v1.4c0,0.2,0,0.3,0,0.3c0,0.1,0.1,0.1,0.2,0.1c0.1,0,0.2,0,0.4-0.1l0.1,1.1
			c-0.3,0.1-0.6,0.1-0.9,0.1c-0.3,0-0.6,0-0.7-0.1c-0.2-0.1-0.3-0.2-0.3-0.4c-0.1-0.2-0.1-0.5-0.1-1v-1.4h-0.5v-1.1h0.5v-0.7
			L71.5,42.7z"/>
		<path class="st19" d="M72.9,42.7h1.3v1h-1.3V42.7z M72.9,44.2h1.3v4h-1.3V44.2z"/>
		<path class="st19" d="M74.9,46.2c0-0.6,0.2-1.1,0.5-1.5c0.4-0.4,0.8-0.6,1.4-0.6c0.7,0,1.2,0.2,1.5,0.7c0.3,0.4,0.4,0.8,0.4,1.4
			c0,0.6-0.2,1.1-0.5,1.5c-0.3,0.4-0.8,0.6-1.4,0.6c-0.5,0-1-0.2-1.3-0.5C75.1,47.4,74.9,46.9,74.9,46.2z M76.2,46.2
			c0,0.4,0.1,0.6,0.2,0.8s0.3,0.3,0.5,0.3c0.2,0,0.3-0.1,0.5-0.2c0.1-0.2,0.2-0.4,0.2-0.8c0-0.3-0.1-0.6-0.2-0.8
			c-0.1-0.2-0.3-0.3-0.5-0.3c-0.2,0-0.3,0.1-0.5,0.3C76.3,45.6,76.2,45.9,76.2,46.2z"/>
		<path class="st19" d="M79.4,44.2h1.2v0.6c0.2-0.3,0.4-0.5,0.6-0.6c0.2-0.1,0.4-0.2,0.7-0.2c0.4,0,0.6,0.1,0.8,0.4
			c0.2,0.2,0.3,0.6,0.3,1.2v2.5h-1.3V46c0-0.2,0-0.4-0.1-0.5c-0.1-0.1-0.2-0.2-0.3-0.2c-0.2,0-0.3,0.1-0.4,0.2
			c-0.1,0.1-0.1,0.4-0.1,0.8v1.9h-1.3V44.2z"/>
		<path class="st19" d="M86.1,42.7h1.3v1h-1.3V42.7z M86.1,44.2h1.3v4h-1.3V44.2z"/>
		<path class="st19" d="M88,47.1l1.3-0.1c0.1,0.2,0.1,0.3,0.2,0.4c0.1,0.1,0.2,0.1,0.4,0.1c0.2,0,0.3,0,0.4-0.1
			c0.1-0.1,0.1-0.1,0.1-0.2c0-0.1,0-0.2-0.1-0.3c-0.1,0-0.3-0.1-0.6-0.2c-0.5-0.1-0.8-0.2-0.9-0.3c-0.2-0.1-0.3-0.2-0.4-0.4
			c-0.1-0.2-0.2-0.4-0.2-0.6c0-0.3,0.1-0.5,0.2-0.7s0.3-0.3,0.5-0.4c0.2-0.1,0.5-0.1,0.9-0.1c0.4,0,0.7,0,0.9,0.1
			c0.2,0.1,0.4,0.2,0.5,0.3c0.1,0.2,0.2,0.4,0.3,0.6l-1.2,0.1c0-0.1-0.1-0.2-0.2-0.3C90,45,89.9,45,89.7,45c-0.1,0-0.3,0-0.3,0.1
			c-0.1,0.1-0.1,0.1-0.1,0.2c0,0.1,0,0.2,0.1,0.2c0.1,0,0.3,0.1,0.6,0.1c0.4,0.1,0.8,0.1,1,0.2c0.2,0.1,0.4,0.2,0.5,0.4
			c0.1,0.2,0.2,0.4,0.2,0.6c0,0.2-0.1,0.5-0.2,0.7c-0.1,0.2-0.3,0.4-0.6,0.5c-0.3,0.1-0.6,0.2-1,0.2c-0.6,0-1.1-0.1-1.3-0.3
			C88.2,47.8,88.1,47.5,88,47.1z"/>
		<path class="st19" d="M96,42.7v1.5h0.7v1.1H96v1.4c0,0.2,0,0.3,0,0.3c0,0.1,0.1,0.1,0.2,0.1c0.1,0,0.2,0,0.4-0.1l0.1,1.1
			c-0.3,0.1-0.6,0.1-0.9,0.1c-0.3,0-0.6,0-0.7-0.1c-0.2-0.1-0.3-0.2-0.3-0.4c-0.1-0.2-0.1-0.5-0.1-1v-1.4h-0.5v-1.1h0.5v-0.7
			L96,42.7z"/>
		<path class="st19" d="M97.3,42.7h1.3v2c0.2-0.2,0.4-0.4,0.5-0.5c0.2-0.1,0.4-0.1,0.6-0.1c0.4,0,0.6,0.1,0.8,0.4
			c0.2,0.3,0.3,0.6,0.3,1.2v2.5h-1.3V46c0-0.2,0-0.4-0.1-0.5c-0.1-0.1-0.2-0.2-0.3-0.2c-0.2,0-0.3,0.1-0.4,0.2
			c-0.1,0.1-0.1,0.4-0.1,0.8v1.9h-1.3V42.7z"/>
		<path class="st19" d="M105.5,46.6h-2.6c0,0.2,0.1,0.4,0.2,0.5c0.1,0.2,0.3,0.3,0.5,0.3c0.1,0,0.2,0,0.4-0.1c0.1,0,0.1-0.1,0.2-0.3
			l1.3,0.1c-0.2,0.4-0.4,0.7-0.7,0.9c-0.3,0.2-0.7,0.3-1.2,0.3c-0.5,0-0.8-0.1-1.1-0.2s-0.5-0.4-0.6-0.7c-0.2-0.3-0.3-0.7-0.3-1.1
			c0-0.6,0.2-1.1,0.5-1.5c0.3-0.4,0.8-0.6,1.4-0.6c0.5,0,0.9,0.1,1.2,0.3c0.3,0.2,0.5,0.4,0.6,0.8c0.1,0.3,0.2,0.8,0.2,1.3V46.6z
			 M104.2,45.9c0-0.3-0.1-0.5-0.2-0.6s-0.3-0.2-0.4-0.2c-0.2,0-0.4,0.1-0.5,0.3c-0.1,0.1-0.1,0.3-0.2,0.5H104.2z"/>
		<path class="st19" d="M108.2,46.4l1.4-0.1c0,0.3,0.1,0.5,0.2,0.6c0.2,0.2,0.4,0.3,0.6,0.3c0.2,0,0.4-0.1,0.5-0.2s0.2-0.2,0.2-0.4
			c0-0.1-0.1-0.3-0.2-0.4s-0.4-0.2-0.7-0.3c-0.6-0.2-1.1-0.4-1.4-0.7c-0.3-0.3-0.4-0.6-0.4-1.1c0-0.3,0.1-0.5,0.2-0.8
			s0.4-0.4,0.6-0.6s0.7-0.2,1.2-0.2c0.6,0,1.1,0.1,1.4,0.4c0.3,0.3,0.5,0.7,0.6,1.2l-1.4,0.1c0-0.2-0.1-0.4-0.2-0.5
			c-0.1-0.1-0.3-0.2-0.5-0.2c-0.2,0-0.3,0-0.4,0.1c-0.1,0.1-0.1,0.2-0.1,0.3c0,0.1,0,0.2,0.1,0.2c0.1,0.1,0.2,0.1,0.5,0.2
			c0.6,0.2,1.1,0.3,1.4,0.5c0.3,0.2,0.5,0.4,0.6,0.6c0.1,0.2,0.2,0.5,0.2,0.8c0,0.4-0.1,0.7-0.3,1c-0.2,0.3-0.4,0.5-0.7,0.7
			s-0.7,0.2-1.1,0.2c-0.8,0-1.4-0.2-1.7-0.5C108.4,47.4,108.2,47,108.2,46.4z"/>
		<path class="st19" d="M116.7,48.2h-1.2v-0.6c-0.2,0.3-0.4,0.5-0.6,0.6c-0.2,0.1-0.4,0.2-0.7,0.2c-0.4,0-0.6-0.1-0.8-0.4
			c-0.2-0.3-0.3-0.6-0.3-1.2v-2.5h1.3v2.2c0,0.2,0,0.4,0.1,0.5c0.1,0.1,0.2,0.2,0.3,0.2c0.2,0,0.3-0.1,0.4-0.2
			c0.1-0.1,0.1-0.4,0.1-0.8v-1.9h1.3V48.2z"/>
		<path class="st19" d="M120,46.7l1.2,0.2c-0.1,0.3-0.2,0.6-0.3,0.8s-0.4,0.4-0.6,0.5s-0.6,0.2-0.9,0.2c-0.4,0-0.7,0-0.9-0.1
			c-0.2-0.1-0.4-0.2-0.6-0.4c-0.2-0.2-0.3-0.4-0.4-0.6c-0.1-0.2-0.1-0.6-0.1-0.9c0-0.4,0.1-0.8,0.2-1c0.1-0.2,0.2-0.4,0.4-0.5
			s0.3-0.3,0.5-0.4c0.3-0.1,0.6-0.2,1-0.2c0.6,0,1,0.1,1.3,0.3c0.3,0.2,0.5,0.6,0.6,1l-1.2,0.2c0-0.2-0.1-0.3-0.2-0.4
			s-0.2-0.1-0.4-0.1c-0.2,0-0.4,0.1-0.5,0.3c-0.1,0.2-0.2,0.5-0.2,0.8c0,0.3,0.1,0.6,0.2,0.7s0.3,0.3,0.5,0.3c0.2,0,0.3-0.1,0.4-0.2
			C119.9,47,119.9,46.9,120,46.7z"/>
		<path class="st19" d="M124.4,46.7l1.2,0.2c-0.1,0.3-0.2,0.6-0.3,0.8s-0.4,0.4-0.6,0.5s-0.6,0.2-0.9,0.2c-0.4,0-0.7,0-0.9-0.1
			c-0.2-0.1-0.4-0.2-0.6-0.4c-0.2-0.2-0.3-0.4-0.4-0.6c-0.1-0.2-0.1-0.6-0.1-0.9c0-0.4,0.1-0.8,0.2-1c0.1-0.2,0.2-0.4,0.4-0.5
			s0.3-0.3,0.5-0.4c0.3-0.1,0.6-0.2,1-0.2c0.6,0,1,0.1,1.3,0.3c0.3,0.2,0.5,0.6,0.6,1l-1.2,0.2c0-0.2-0.1-0.3-0.2-0.4
			s-0.2-0.1-0.4-0.1c-0.2,0-0.4,0.1-0.5,0.3c-0.1,0.2-0.2,0.5-0.2,0.8c0,0.3,0.1,0.6,0.2,0.7s0.3,0.3,0.5,0.3c0.2,0,0.3-0.1,0.4-0.2
			C124.2,47,124.3,46.9,124.4,46.7z"/>
		<path class="st19" d="M130,46.6h-2.6c0,0.2,0.1,0.4,0.2,0.5c0.1,0.2,0.3,0.3,0.5,0.3c0.1,0,0.2,0,0.4-0.1c0.1,0,0.1-0.1,0.2-0.3
			l1.3,0.1c-0.2,0.4-0.4,0.7-0.7,0.9c-0.3,0.2-0.7,0.3-1.2,0.3c-0.5,0-0.8-0.1-1.1-0.2s-0.5-0.4-0.6-0.7c-0.2-0.3-0.3-0.7-0.3-1.1
			c0-0.6,0.2-1.1,0.5-1.5c0.3-0.4,0.8-0.6,1.4-0.6c0.5,0,0.9,0.1,1.2,0.3c0.3,0.2,0.5,0.4,0.6,0.8c0.1,0.3,0.2,0.8,0.2,1.3V46.6z
			 M128.7,45.9c0-0.3-0.1-0.5-0.2-0.6s-0.3-0.2-0.4-0.2c-0.2,0-0.4,0.1-0.5,0.3c-0.1,0.1-0.1,0.3-0.2,0.5H128.7z"/>
		<path class="st19" d="M130.4,47.1l1.3-0.1c0.1,0.2,0.1,0.3,0.2,0.4s0.2,0.1,0.4,0.1c0.2,0,0.3,0,0.4-0.1c0.1-0.1,0.1-0.1,0.1-0.2
			c0-0.1,0-0.2-0.1-0.3c-0.1,0-0.3-0.1-0.6-0.2c-0.5-0.1-0.8-0.2-0.9-0.3c-0.2-0.1-0.3-0.2-0.4-0.4s-0.2-0.4-0.2-0.6
			c0-0.3,0.1-0.5,0.2-0.7c0.1-0.2,0.3-0.3,0.5-0.4s0.5-0.1,0.9-0.1c0.4,0,0.7,0,0.9,0.1c0.2,0.1,0.4,0.2,0.5,0.3s0.2,0.4,0.3,0.6
			l-1.2,0.1c0-0.1-0.1-0.2-0.2-0.3c-0.1-0.1-0.2-0.1-0.4-0.1c-0.1,0-0.3,0-0.3,0.1c-0.1,0.1-0.1,0.1-0.1,0.2c0,0.1,0,0.2,0.1,0.2
			s0.3,0.1,0.6,0.1c0.4,0.1,0.8,0.1,1,0.2s0.4,0.2,0.5,0.4s0.2,0.4,0.2,0.6c0,0.2-0.1,0.5-0.2,0.7c-0.1,0.2-0.3,0.4-0.6,0.5
			c-0.3,0.1-0.6,0.2-1,0.2c-0.6,0-1.1-0.1-1.3-0.3C130.6,47.8,130.5,47.5,130.4,47.1z"/>
		<path class="st19" d="M134.4,47.1l1.3-0.1c0.1,0.2,0.1,0.3,0.2,0.4s0.2,0.1,0.4,0.1c0.2,0,0.3,0,0.4-0.1c0.1-0.1,0.1-0.1,0.1-0.2
			c0-0.1,0-0.2-0.1-0.3c-0.1,0-0.3-0.1-0.6-0.2c-0.5-0.1-0.8-0.2-0.9-0.3c-0.2-0.1-0.3-0.2-0.4-0.4s-0.2-0.4-0.2-0.6
			c0-0.3,0.1-0.5,0.2-0.7c0.1-0.2,0.3-0.3,0.5-0.4s0.5-0.1,0.9-0.1c0.4,0,0.7,0,0.9,0.1c0.2,0.1,0.4,0.2,0.5,0.3s0.2,0.4,0.3,0.6
			l-1.2,0.1c0-0.1-0.1-0.2-0.2-0.3c-0.1-0.1-0.2-0.1-0.4-0.1c-0.1,0-0.3,0-0.3,0.1c-0.1,0.1-0.1,0.1-0.1,0.2c0,0.1,0,0.2,0.1,0.2
			s0.3,0.1,0.6,0.1c0.4,0.1,0.8,0.1,1,0.2s0.4,0.2,0.5,0.4s0.2,0.4,0.2,0.6c0,0.2-0.1,0.5-0.2,0.7c-0.1,0.2-0.3,0.4-0.6,0.5
			c-0.3,0.1-0.6,0.2-1,0.2c-0.6,0-1.1-0.1-1.3-0.3C134.7,47.8,134.5,47.5,134.4,47.1z"/>
		<path class="st19" d="M140.7,46.2c0-0.6,0.2-1.1,0.5-1.5c0.4-0.4,0.8-0.6,1.4-0.6c0.7,0,1.2,0.2,1.5,0.7c0.3,0.4,0.4,0.8,0.4,1.4
			c0,0.6-0.2,1.1-0.5,1.5c-0.3,0.4-0.8,0.6-1.4,0.6c-0.5,0-1-0.2-1.3-0.5C140.9,47.4,140.7,46.9,140.7,46.2z M142,46.2
			c0,0.4,0.1,0.6,0.2,0.8c0.1,0.2,0.3,0.3,0.5,0.3c0.2,0,0.3-0.1,0.5-0.2c0.1-0.2,0.2-0.4,0.2-0.8c0-0.3-0.1-0.6-0.2-0.8
			c-0.1-0.2-0.3-0.3-0.5-0.3c-0.2,0-0.3,0.1-0.5,0.3C142.1,45.6,142,45.9,142,46.2z"/>
		<path class="st19" d="M146.7,44.2h0.6v1.1h-0.6v2.9h-1.3v-2.9h-0.5v-1.1h0.5v-0.2c0-0.2,0-0.3,0-0.5c0-0.2,0.1-0.4,0.2-0.5
			c0.1-0.1,0.2-0.2,0.3-0.3c0.1-0.1,0.4-0.1,0.7-0.1c0.2,0,0.6,0,1,0.1l-0.1,0.9c-0.2,0-0.3,0-0.4,0c-0.1,0-0.2,0-0.3,0.1
			c-0.1,0-0.1,0.1-0.1,0.2C146.7,43.9,146.7,44.1,146.7,44.2z"/>
		<path class="st19" d="M150.2,46.2c0-0.6,0.2-1.1,0.5-1.5c0.4-0.4,0.8-0.6,1.4-0.6c0.7,0,1.2,0.2,1.5,0.7c0.3,0.4,0.4,0.8,0.4,1.4
			c0,0.6-0.2,1.1-0.5,1.5c-0.3,0.4-0.8,0.6-1.4,0.6c-0.5,0-1-0.2-1.3-0.5C150.4,47.4,150.2,46.9,150.2,46.2z M151.5,46.2
			c0,0.4,0.1,0.6,0.2,0.8c0.1,0.2,0.3,0.3,0.5,0.3c0.2,0,0.3-0.1,0.5-0.2c0.1-0.2,0.2-0.4,0.2-0.8c0-0.3-0.1-0.6-0.2-0.8
			c-0.1-0.2-0.3-0.3-0.5-0.3c-0.2,0-0.3,0.1-0.5,0.3C151.6,45.6,151.5,45.9,151.5,46.2z"/>
		<path class="st19" d="M158.4,48.2h-1.2v-0.6c-0.2,0.3-0.4,0.5-0.6,0.6c-0.2,0.1-0.4,0.2-0.7,0.2c-0.4,0-0.6-0.1-0.8-0.4
			c-0.2-0.3-0.3-0.6-0.3-1.2v-2.5h1.3v2.2c0,0.2,0,0.4,0.1,0.5c0.1,0.1,0.2,0.2,0.3,0.2c0.2,0,0.3-0.1,0.4-0.2
			c0.1-0.1,0.1-0.4,0.1-0.8v-1.9h1.3V48.2z"/>
		<path class="st19" d="M159.2,44.2h1.2v0.7c0.1-0.3,0.2-0.5,0.4-0.6c0.1-0.1,0.3-0.2,0.5-0.2c0.2,0,0.4,0.1,0.6,0.2l-0.4,1.1
			c-0.2-0.1-0.3-0.1-0.4-0.1c-0.2,0-0.3,0.1-0.4,0.2c-0.1,0.2-0.2,0.7-0.2,1.3v1.3h-1.3V44.2z"/>
		<path class="st19" d="M164.4,42.7h2.7c0.5,0,0.8,0.1,1,0.4c0.2,0.3,0.4,0.6,0.4,1c0,0.3-0.1,0.6-0.3,0.8c-0.1,0.2-0.3,0.3-0.5,0.4
			c0.3,0.1,0.6,0.3,0.7,0.5c0.2,0.2,0.2,0.5,0.2,0.9c0,0.3-0.1,0.5-0.2,0.8s-0.3,0.4-0.5,0.5c-0.1,0.1-0.3,0.1-0.6,0.2
			c-0.3,0.1-0.5,0.1-0.7,0.1h-2.5V42.7z M165.8,44.9h0.6c0.2,0,0.4,0,0.5-0.1c0.1-0.1,0.1-0.2,0.1-0.4c0-0.2,0-0.3-0.1-0.4
			s-0.2-0.1-0.5-0.1h-0.6V44.9z M165.8,47h0.7c0.3,0,0.4-0.1,0.5-0.2s0.2-0.2,0.2-0.4c0-0.2-0.1-0.3-0.2-0.4
			c-0.1-0.1-0.3-0.1-0.5-0.1h-0.7V47z"/>
		<path class="st19" d="M173,48.2h-1.2v-0.6c-0.2,0.3-0.4,0.5-0.6,0.6c-0.2,0.1-0.4,0.2-0.7,0.2c-0.4,0-0.6-0.1-0.8-0.4
			c-0.2-0.3-0.3-0.6-0.3-1.2v-2.5h1.3v2.2c0,0.2,0,0.4,0.1,0.5c0.1,0.1,0.2,0.2,0.3,0.2c0.2,0,0.3-0.1,0.4-0.2
			c0.1-0.1,0.1-0.4,0.1-0.8v-1.9h1.3V48.2z"/>
		<path class="st19" d="M173.5,47.1l1.3-0.1c0.1,0.2,0.1,0.3,0.2,0.4s0.2,0.1,0.4,0.1c0.2,0,0.3,0,0.4-0.1c0.1-0.1,0.1-0.1,0.1-0.2
			c0-0.1,0-0.2-0.1-0.3c-0.1,0-0.3-0.1-0.6-0.2c-0.5-0.1-0.8-0.2-0.9-0.3c-0.2-0.1-0.3-0.2-0.4-0.4s-0.2-0.4-0.2-0.6
			c0-0.3,0.1-0.5,0.2-0.7c0.1-0.2,0.3-0.3,0.5-0.4s0.5-0.1,0.9-0.1c0.4,0,0.7,0,0.9,0.1c0.2,0.1,0.4,0.2,0.5,0.3s0.2,0.4,0.3,0.6
			l-1.2,0.1c0-0.1-0.1-0.2-0.2-0.3c-0.1-0.1-0.2-0.1-0.4-0.1c-0.1,0-0.3,0-0.3,0.1c-0.1,0.1-0.1,0.1-0.1,0.2c0,0.1,0,0.2,0.1,0.2
			s0.3,0.1,0.6,0.1c0.4,0.1,0.8,0.1,1,0.2s0.4,0.2,0.5,0.4s0.2,0.4,0.2,0.6c0,0.2-0.1,0.5-0.2,0.7c-0.1,0.2-0.3,0.4-0.6,0.5
			c-0.3,0.1-0.6,0.2-1,0.2c-0.6,0-1.1-0.1-1.3-0.3C173.8,47.8,173.6,47.5,173.5,47.1z"/>
		<path class="st19" d="M177.8,42.7h1.3v1h-1.3V42.7z M177.8,44.2h1.3v4h-1.3V44.2z"/>
		<path class="st19" d="M180,44.2h1.2v0.6c0.2-0.3,0.4-0.5,0.6-0.6c0.2-0.1,0.4-0.2,0.7-0.2c0.4,0,0.6,0.1,0.8,0.4
			c0.2,0.2,0.3,0.6,0.3,1.2v2.5h-1.3V46c0-0.2,0-0.4-0.1-0.5s-0.2-0.2-0.3-0.2c-0.2,0-0.3,0.1-0.4,0.2c-0.1,0.1-0.1,0.4-0.1,0.8v1.9
			H180V44.2z"/>
		<path class="st19" d="M188.2,46.6h-2.6c0,0.2,0.1,0.4,0.2,0.5c0.1,0.2,0.3,0.3,0.5,0.3c0.1,0,0.2,0,0.4-0.1c0.1,0,0.1-0.1,0.2-0.3
			l1.3,0.1c-0.2,0.4-0.4,0.7-0.7,0.9c-0.3,0.2-0.7,0.3-1.2,0.3c-0.5,0-0.8-0.1-1.1-0.2s-0.5-0.4-0.6-0.7c-0.2-0.3-0.3-0.7-0.3-1.1
			c0-0.6,0.2-1.1,0.5-1.5c0.3-0.4,0.8-0.6,1.4-0.6c0.5,0,0.9,0.1,1.2,0.3c0.3,0.2,0.5,0.4,0.6,0.8c0.1,0.3,0.2,0.8,0.2,1.3V46.6z
			 M186.8,45.9c0-0.3-0.1-0.5-0.2-0.6s-0.3-0.2-0.4-0.2c-0.2,0-0.4,0.1-0.5,0.3c-0.1,0.1-0.1,0.3-0.2,0.5H186.8z"/>
		<path class="st19" d="M188.5,47.1l1.3-0.1c0.1,0.2,0.1,0.3,0.2,0.4s0.2,0.1,0.4,0.1c0.2,0,0.3,0,0.4-0.1c0.1-0.1,0.1-0.1,0.1-0.2
			c0-0.1,0-0.2-0.1-0.3c-0.1,0-0.3-0.1-0.6-0.2c-0.5-0.1-0.8-0.2-0.9-0.3c-0.2-0.1-0.3-0.2-0.4-0.4s-0.2-0.4-0.2-0.6
			c0-0.3,0.1-0.5,0.2-0.7c0.1-0.2,0.3-0.3,0.5-0.4s0.5-0.1,0.9-0.1c0.4,0,0.7,0,0.9,0.1c0.2,0.1,0.4,0.2,0.5,0.3s0.2,0.4,0.3,0.6
			l-1.2,0.1c0-0.1-0.1-0.2-0.2-0.3c-0.1-0.1-0.2-0.1-0.4-0.1c-0.1,0-0.3,0-0.3,0.1c-0.1,0.1-0.1,0.1-0.1,0.2c0,0.1,0,0.2,0.1,0.2
			s0.3,0.1,0.6,0.1c0.4,0.1,0.8,0.1,1,0.2s0.4,0.2,0.5,0.4s0.2,0.4,0.2,0.6c0,0.2-0.1,0.5-0.2,0.7c-0.1,0.2-0.3,0.4-0.6,0.5
			c-0.3,0.1-0.6,0.2-1,0.2c-0.6,0-1.1-0.1-1.3-0.3C188.8,47.8,188.6,47.5,188.5,47.1z"/>
		<path class="st19" d="M192.6,47.1l1.3-0.1c0.1,0.2,0.1,0.3,0.2,0.4s0.2,0.1,0.4,0.1c0.2,0,0.3,0,0.4-0.1c0.1-0.1,0.1-0.1,0.1-0.2
			c0-0.1,0-0.2-0.1-0.3c-0.1,0-0.3-0.1-0.6-0.2c-0.5-0.1-0.8-0.2-0.9-0.3c-0.2-0.1-0.3-0.2-0.4-0.4s-0.2-0.4-0.2-0.6
			c0-0.3,0.1-0.5,0.2-0.7c0.1-0.2,0.3-0.3,0.5-0.4s0.5-0.1,0.9-0.1c0.4,0,0.7,0,0.9,0.1c0.2,0.1,0.4,0.2,0.5,0.3s0.2,0.4,0.3,0.6
			l-1.2,0.1c0-0.1-0.1-0.2-0.2-0.3c-0.1-0.1-0.2-0.1-0.4-0.1c-0.1,0-0.3,0-0.3,0.1c-0.1,0.1-0.1,0.1-0.1,0.2c0,0.1,0,0.2,0.1,0.2
			s0.3,0.1,0.6,0.1c0.4,0.1,0.8,0.1,1,0.2s0.4,0.2,0.5,0.4s0.2,0.4,0.2,0.6c0,0.2-0.1,0.5-0.2,0.7c-0.1,0.2-0.3,0.4-0.6,0.5
			c-0.3,0.1-0.6,0.2-1,0.2c-0.6,0-1.1-0.1-1.3-0.3C192.8,47.8,192.6,47.5,192.6,47.1z"/>
	</g>
	<polyline class="st20" points="89.3,25 99.7,25.1 99.6,21.2 98.3,20.8 98.4,18.1 97.8,18 97.8,14.6 96.9,14.3 96.7,10.7 95.8,10.5 
		95.6,7 95,6.9 95.1,6.5 94,6 93.2,6.4 93.1,9 92.1,9.3 92.4,13.3 91.4,13.5 91.4,16.8 91.1,16.9 90.5,17.1 90.8,20.3 89.5,20.7 
		89.3,25 	"/>
	<g>
		<polyline class="st21" points="94.2,5.8 93.9,7.1 93.9,24.9 99.5,25.1 99,21.3 98.4,21.1 98.2,18.2 97.5,18.1 97.7,14.6 
			96.5,14.4 96.6,10.7 95.7,10.5 95.6,7 94.9,7 95,6.5 94.2,6.2 		"/>
		<g>
			<polygon points="99.5,25.1 99.4,21.3 98.5,21.1 98.4,18.2 97.7,18 97.9,14.6 96.8,14.4 96.8,10.7 95.9,10.4 95.8,7 95.2,6.9 
				95.3,6.6 94.6,6.3 94.3,1.9 93.8,6.3 93.2,6.5 92.8,9 92,9.2 92,13.4 91.2,13.5 91.2,17 90.4,17.1 90.4,20.3 89.4,20.6 89.4,25 
				98.4,25 89.9,24.8 89.9,20.7 90.9,20.3 90.6,17.1 91.5,17 91.5,13.6 92.4,13.3 92.2,9.3 93.1,9 93.3,6.5 94.1,6.2 95,6.6 94.9,7 
				95.5,7.1 95.6,10.5 96.5,10.7 96.5,14.4 97.7,14.6 97.5,18.1 98.2,18.2 98.3,21.1 99,21.3 			"/>
			<polygon points="97.8,21 97.3,21.2 97.4,24.8 97.7,21.3 98.2,21.2 			"/>
			<polygon points="90.8,20.5 91,24.7 91.3,20.4 90.9,20.3 			"/>
			<polygon points="97.3,18.1 97.6,18.3 97,18.2 96.8,18.3 96.7,24.8 96.5,18 			"/>
			<polygon points="91.2,17.1 91.9,17.1 92.1,24.7 92.3,17.1 91.8,16.9 			"/>
			<polygon points="96,14.4 95.6,14.6 95.8,24.9 95.9,14.7 96.2,14.5 96.9,14.6 			"/>
			<polygon points="92.2,13.5 93,13.5 93,24.7 93.3,13.4 93,13.3 			"/>
			<polygon points="95.1,10.5 94.7,10.6 94.8,24.8 95.1,10.7 95.2,10.6 95.6,10.6 			"/>
			<polygon points="93,9.2 93.7,9.1 93.9,24.7 94,9 93.4,9 			"/>
			<polygon points="94.6,7 94.1,7 93.9,8.9 93.9,7 94.3,6.8 			"/>
		</g>
	</g>
</g>
</svg>
