<svg xmlns="http://www.w3.org/2000/svg" viewBox="0 0 58.75 63.09"><defs><style>.cls-1{fill:#ffd3ae;}.cls-2{fill:none;stroke:#102f3a;stroke-linecap:round;stroke-linejoin:round;}</style></defs><g id="Layer_2" data-name="Layer 2"><g id="Layer_1-2" data-name="Layer 1"><path class="cls-1" d="M40.67,17A16.73,16.73,0,0,1,34,30.46a15.15,15.15,0,0,1-18.18,0A16.7,16.7,0,0,1,9.19,17C9.19,7.88,16.23.5,24.93.5S40.67,7.88,40.67,17Z"/><path class="cls-2" d="M40.67,17A16.73,16.73,0,0,1,34,30.46a15.15,15.15,0,0,1-18.18,0A16.7,16.7,0,0,1,9.19,17C9.19,7.88,16.23.5,24.93.5S40.67,7.88,40.67,17Z"/><path class="cls-1" d="M48.16,62.57v0H.5V49.68A19.71,19.71,0,0,1,15.84,30.46a15.15,15.15,0,0,0,18.18,0A20,20,0,0,1,48.31,43.69H47.16c-4.65,0-8.41.52-8.41,1.06v2.6c0,.29.94.55,2.67.73V50.3c-1.72.18-2.8.44-2.8.73v2.6c0,.2.54.39,1.46.55V56.4h0v5.19C40.08,62.12,43.67,62.55,48.16,62.57Z"/><path class="cls-2" d="M48.16,62.57v0H.5V49.68A19.71,19.71,0,0,1,15.84,30.46a15.15,15.15,0,0,0,18.18,0A20,20,0,0,1,48.31,43.69H47.16c-4.65,0-8.41.52-8.41,1.06v2.6c0,.29.94.55,2.67.73V50.3c-1.72.18-2.8.44-2.8.73v2.6c0,.2.54.39,1.46.55V56.4h0v5.19C40.08,62.12,43.67,62.55,48.16,62.57Z"/><line class="cls-2" x1="11.92" y1="55.47" x2="11.92" y2="62.59"/><path class="cls-2" d="M55.58,44.67c0,.54-3.77,1-8.42,1s-8.41-.45-8.41-1,3.76-1,8.41-1S55.58,44.13,55.58,44.67Z"/><path class="cls-1" d="M55.58,44.67v2.6c0,.06,0,.12-.14.17-.71.46-4.15.81-8.28.81A55.17,55.17,0,0,1,41.55,48c-1.72-.18-2.8-.44-2.8-.73v-2.6c0,.54,3.76,1,8.41,1S55.58,45.21,55.58,44.67Z"/><path class="cls-2" d="M55.58,44.67v2.6c0,.06,0,.12-.14.17-.71.46-4.15.81-8.28.81A55.17,55.17,0,0,1,41.55,48c-1.72-.18-2.8-.44-2.8-.73v-2.6c0,.54,3.76,1,8.41,1S55.58,45.21,55.58,44.67Z"/><path class="cls-2" d="M58.25,48.18c0,.54-3.77,1-8.42,1s-8.42-.44-8.42-1c0-.06.05-.12.14-.18a55.17,55.17,0,0,0,5.61.25c4.13,0,7.57-.35,8.28-.81C57.17,47.63,58.25,47.89,58.25,48.18Z"/><path class="cls-1" d="M58.25,48.18v2.59c0,.29-1.08.55-2.8.73-.87.1-1.92.17-3.06.21h0c-.81,0-1.66,0-2.55,0-4.65,0-8.42-.44-8.42-1V48.18c0,.54,3.77,1,8.42,1S58.25,48.72,58.25,48.18Z"/><path class="cls-2" d="M58.25,48.18v2.59c0,.29-1.08.55-2.8.73-.87.1-1.92.17-3.06.21h0c-.81,0-1.66,0-2.55,0-4.65,0-8.42-.44-8.42-1V48.18c0,.54,3.77,1,8.42,1S58.25,48.72,58.25,48.18Z"/><path class="cls-2" d="M52.38,51.71l-.82.07H51.4l-.5,0-1,0-.35,0-.63,0H47c-4.65,0-8.41-.44-8.41-1,0-.29,1.08-.55,2.79-.73v.55c0,.55,3.77,1,8.42,1C50.72,51.76,51.57,51.74,52.38,51.71Z"/><path class="cls-1" d="M55.45,51.5v2c0,.54-3.77,1-8.42,1-2,0-3.89-.09-5.34-.23h0c-.61-.06-1.15-.12-1.6-.2-.93-.16-1.46-.35-1.46-.55V51c0,.54,3.76,1,8.41,1H49l.63,0,.35,0,1,0,.5,0h.16l.82-.07h0C53.53,51.67,54.58,51.6,55.45,51.5Z"/><path class="cls-2" d="M55.45,51.5v2c0,.54-3.77,1-8.42,1-2,0-3.89-.09-5.34-.23h0c-.61-.06-1.15-.12-1.6-.2-.93-.16-1.46-.35-1.46-.55V51c0,.54,3.76,1,8.41,1H49l.63,0,.35,0,1,0,.5,0h.16l.82-.07h0C53.53,51.67,54.58,51.6,55.45,51.5Z"/><path class="cls-2" d="M56.91,53.72c0,.55-3.77,1-8.42,1l-1.53,0-.93,0c-.57,0-1.12-.05-1.63-.09h-.27l-.15,0-.4,0h-.2l-1-.11-.26,0h0l-.38-.06h-.06c1.45.14,3.31.23,5.34.23,4.65,0,8.42-.44,8.42-1v-.38C56.37,53.33,56.91,53.52,56.91,53.72Z"/><path class="cls-1" d="M56.91,53.72v2.62h0c-.12.54-3.84,1-8.42,1s-8.29-.42-8.41-1h0V54.1c.45.08,1,.14,1.6.2h.07l.38.06h0l.26,0,1,.11h.2l.4,0,.15,0h.27c.51,0,1.06.07,1.63.09l.93,0,1.53,0C53.14,54.71,56.91,54.27,56.91,53.72Z"/><path class="cls-2" d="M56.91,53.72v2.62h0c-.12.54-3.84,1-8.42,1s-8.29-.42-8.41-1h0V54.1c.45.08,1,.14,1.6.2h.07l.38.06h0l.26,0,1,.11h.2l.4,0,.15,0h.27c.51,0,1.06.07,1.63.09l.93,0,1.53,0C53.14,54.71,56.91,54.27,56.91,53.72Z"/><path class="cls-1" d="M56.91,56.32v2.62h0c-.12.53-3.84,1-8.42,1s-8.29-.43-8.41-1h0V56.32c0,.54,3.77,1,8.41,1S56.91,56.86,56.91,56.32Z"/><path class="cls-2" d="M56.91,56.32v2.62h0c-.12.53-3.84,1-8.42,1s-8.29-.43-8.41-1h0V56.32c0,.54,3.77,1,8.41,1S56.91,56.86,56.91,56.32Z"/><path class="cls-1" d="M56.91,58.91v2.6c0,.54-3.77,1-8.42,1s-8.41-.44-8.41-1v-2.6c0,.55,3.77,1,8.41,1S56.91,59.46,56.91,58.91Z"/><path class="cls-2" d="M56.91,58.91v2.6c0,.54-3.77,1-8.42,1s-8.41-.44-8.41-1v-2.6c0,.55,3.77,1,8.41,1S56.91,59.46,56.91,58.91Z"/></g></g></svg>