<svg xmlns="http://www.w3.org/2000/svg" viewBox="0 0 57.97 63.19"><defs><style>.cls-1{fill:#ffd3ae;}.cls-2{fill:none;stroke:#102f3a;stroke-linecap:round;stroke-linejoin:round;}</style></defs><g id="Layer_2" data-name="Layer 2"><g id="Layer_1-2" data-name="Layer 1"><path class="cls-1" d="M19.78,2.6V22a5.36,5.36,0,0,1-5.34-5.37V8A5.36,5.36,0,0,1,19.78,2.6Z"/><rect class="cls-1" x="24.07" y="2.6" width="23.62" height="19.36"/><path class="cls-1" d="M57.47,8v8.61A5.37,5.37,0,0,1,52.1,22H52V2.6h.12A5.37,5.37,0,0,1,57.47,8Z"/><path class="cls-2" d="M19.78,2.6V22a5.36,5.36,0,0,1-5.34-5.37V8A5.36,5.36,0,0,1,19.78,2.6Z"/><rect class="cls-2" x="24.07" y="2.6" width="23.62" height="19.36"/><path class="cls-2" d="M57.47,8v8.61A5.37,5.37,0,0,1,52.1,22H52V2.6h.12A5.37,5.37,0,0,1,57.47,8Z"/><path class="cls-2" d="M19.78,2.6A2.15,2.15,0,0,1,21.93.5a2.12,2.12,0,0,1,1.51.63,2.09,2.09,0,0,1,.63,1.47"/><path class="cls-2" d="M24.07,22v0a2.15,2.15,0,0,1-4.29,0v0"/><path class="cls-2" d="M52,2.6V22a2.15,2.15,0,0,1-4.29,0V2.6A2.15,2.15,0,0,1,52,2.6Z"/><rect class="cls-2" x="33.77" y="18.82" width="4.29" height="10.55" rx="1.61" transform="translate(60.01 -11.82) rotate(90)"/><rect class="cls-2" x="29.43" y="29.47" width="12.96" height="6.5" transform="translate(68.63 -3.19) rotate(90)"/><path class="cls-1" d="M42.06,43.45h-1a2.13,2.13,0,0,1,2.13,2.13,2.15,2.15,0,0,1-2.13,2.13H40.05a2.13,2.13,0,0,1,1.51,3.63,2.16,2.16,0,0,1-1.51.62h-.87a2.13,2.13,0,0,1,2.12,2.13,2.16,2.16,0,0,1-.62,1.51,2.13,2.13,0,0,1-1.5.62H28.63a15.31,15.31,0,0,1-7.92-2.13H17.83V41.32H19c1.57,0,3-1.37,3.72-2.77.95-1.87,1.71-3.71,5-3.71,3.92,0,4.41,4.35,4.41,4.35h9.94a2.13,2.13,0,0,1,2.13,2.13,2.12,2.12,0,0,1-2.13,2.13Z"/><path class="cls-2" d="M42.06,43.45h-1a2.13,2.13,0,0,1,2.13,2.13,2.15,2.15,0,0,1-2.13,2.13H40.05a2.13,2.13,0,0,1,1.51,3.63,2.16,2.16,0,0,1-1.51.62h-.87a2.13,2.13,0,0,1,2.12,2.13,2.16,2.16,0,0,1-.62,1.51,2.13,2.13,0,0,1-1.5.62H28.63a15.31,15.31,0,0,1-7.92-2.13H17.83V41.32H19c1.57,0,3-1.37,3.72-2.77.95-1.87,1.71-3.71,5-3.71,3.92,0,4.41,4.35,4.41,4.35h9.94a2.13,2.13,0,0,1,2.13,2.13,2.12,2.12,0,0,1-2.13,2.13Z"/><line class="cls-2" x1="41.1" y1="43.45" x2="34.88" y2="43.45"/><line class="cls-2" x1="32.12" y1="39.19" x2="28.63" y2="39.19"/><line class="cls-2" x1="40.05" y1="47.71" x2="33.79" y2="47.71"/><line class="cls-2" x1="41.1" y1="43.45" x2="34.88" y2="43.45"/><polyline class="cls-2" points="32.66 51.96 32.81 51.96 39.18 51.96"/><line class="cls-2" x1="40.05" y1="47.71" x2="33.79" y2="47.71"/><line class="cls-2" x1="39.18" y1="51.96" x2="32.81" y2="51.96"/><path class="cls-2" d="M17.83,54.09v2a.51.51,0,0,1-.5.5H.5"/><path class="cls-2" d="M.5,39.19H17.33a.51.51,0,0,1,.5.5v1.63"/><rect class="cls-2" x="12.34" y="50.92" width="2.1" height="2.1"/><path class="cls-2" d="M32.66,56.22h6.47a0,0,0,0,1,0,0v4a2.43,2.43,0,0,1-2.43,2.43H35.09a2.43,2.43,0,0,1-2.43-2.43v-4A0,0,0,0,1,32.66,56.22Z"/></g></g></svg>