<svg xmlns="http://www.w3.org/2000/svg" viewBox="0 0 63.63 63.19"><defs><style>.cls-1{fill:#ffd3ae;}.cls-2{fill:none;stroke:#102f3a;stroke-linecap:round;stroke-linejoin:round;}.cls-3{fill:#fff;}</style></defs><g id="Layer_2" data-name="Layer 2"><g id="Layer_1-2" data-name="Layer 1"><polygon class="cls-1" points="1.3 22.36 31.95 0.5 62.87 22.36 1.3 22.36"/><polygon class="cls-1" points="1.3 22.36 31.95 0.5 62.87 22.36 1.3 22.36"/><polygon class="cls-2" points="1.3 22.36 31.95 0.5 62.87 22.36 1.3 22.36"/><polygon class="cls-2" points="1.3 22.36 31.95 0.5 62.87 22.36 1.3 22.36"/><polygon class="cls-2" points="62.23 25.53 1.94 25.53 1.3 22.36 62.87 22.36 62.23 25.53"/><rect class="cls-1" x="5.89" y="25.53" width="9.99" height="3.07" rx="1.4"/><rect class="cls-1" x="19.93" y="25.53" width="9.99" height="3.07" rx="1.4"/><rect class="cls-1" x="33.97" y="25.53" width="9.99" height="3.07" rx="1.4"/><rect class="cls-1" x="48.01" y="25.53" width="9.99" height="3.07" rx="1.4"/><rect class="cls-1" x="5.89" y="49.24" width="9.99" height="3.07" rx="1.4"/><rect class="cls-1" x="19.93" y="49.24" width="9.99" height="3.07" rx="1.4"/><rect class="cls-1" x="33.97" y="49.24" width="9.99" height="3.07" rx="1.4"/><rect class="cls-1" x="48.01" y="49.24" width="9.99" height="3.07" rx="1.4"/><rect class="cls-2" x="5.89" y="25.53" width="9.99" height="3.07" rx="1.4"/><rect class="cls-2" x="19.93" y="25.53" width="9.99" height="3.07" rx="1.4"/><rect class="cls-2" x="33.97" y="25.53" width="9.99" height="3.07" rx="1.4"/><rect class="cls-2" x="48.01" y="25.53" width="9.99" height="3.07" rx="1.4"/><rect class="cls-2" x="5.89" y="49.24" width="9.99" height="3.07" rx="1.4"/><rect class="cls-2" x="19.93" y="49.24" width="9.99" height="3.07" rx="1.4"/><rect class="cls-2" x="33.97" y="49.24" width="9.99" height="3.07" rx="1.4"/><rect class="cls-2" x="48.01" y="49.24" width="9.99" height="3.07" rx="1.4"/><rect class="cls-2" x="7.31" y="28.6" width="7.15" height="20.64"/><rect class="cls-2" x="21.35" y="28.6" width="7.15" height="20.64"/><rect class="cls-2" x="35.39" y="28.6" width="7.15" height="20.64"/><rect class="cls-2" x="49.43" y="28.6" width="7.15" height="20.64"/><rect class="cls-2" x="4.16" y="52.31" width="55.31" height="4.51" rx="2.06"/><polygon class="cls-2" points="63.13 58.84 0.5 58.84 4.16 56.81 59.47 56.81 63.13 58.84"/><rect class="cls-2" x="0.5" y="58.84" width="62.63" height="3.85"/><rect class="cls-1" x="0.5" y="58.84" width="62.63" height="3.85"/><rect class="cls-2" x="0.5" y="58.84" width="62.63" height="3.85"/><path class="cls-3" d="M32.61,19.05v1H31v-1a3,3,0,0,1-2.28-3v-.46l1.86-.2v.48c0,.92.47,1.49,1.24,1.49A1.14,1.14,0,0,0,33,16.1c0-.89-.83-1.66-1.82-2.48-1.16-1-2.33-2.11-2.33-3.73a2.84,2.84,0,0,1,2.1-3v-1h1.63v1a2.83,2.83,0,0,1,2.13,3.05v.33l-1.85.2v-.36c0-1-.38-1.5-1.06-1.5s-1,.42-1,1.22.85,1.64,1.82,2.48c1.14,1,2.33,2.11,2.33,3.73A3,3,0,0,1,32.61,19.05Z"/><path class="cls-2" d="M32.61,19.05v1H31v-1a3,3,0,0,1-2.28-3v-.46l1.86-.2v.48c0,.92.47,1.49,1.24,1.49A1.14,1.14,0,0,0,33,16.1c0-.89-.83-1.66-1.82-2.48-1.16-1-2.33-2.11-2.33-3.73a2.84,2.84,0,0,1,2.1-3v-1h1.63v1a2.83,2.83,0,0,1,2.13,3.05v.33l-1.85.2v-.36c0-1-.38-1.5-1.06-1.5s-1,.42-1,1.22.85,1.64,1.82,2.48c1.14,1,2.33,2.11,2.33,3.73A3,3,0,0,1,32.61,19.05Z"/></g></g></svg>