<svg xmlns="http://www.w3.org/2000/svg" viewBox="0 0 52.03 63.19"><defs><style>.cls-1{fill:#ffd3ae;}.cls-2,.cls-3{fill:none;stroke:#102f3a;stroke-linecap:round;stroke-linejoin:round;}.cls-3{stroke-width:3px;}</style></defs><g id="Layer_2" data-name="Layer 2"><g id="Layer_1-2" data-name="Layer 1"><path class="cls-1" d="M26,.5V62.69L5.37,48.3A11.2,11.2,0,0,1,.51,39.63c0-.15,0-.31,0-.45V2.11a19.24,19.24,0,0,0,20.41,1.2Z"/><path class="cls-2" d="M26,.5V62.69L5.37,48.3A11.2,11.2,0,0,1,.51,39.63c0-.15,0-.31,0-.45V2.11a19.24,19.24,0,0,0,20.41,1.2Z"/><path class="cls-2" d="M51.53,2.11V39.63a11.2,11.2,0,0,1-4.86,8.67L26,62.69V.5l5.11,2.81A19.22,19.22,0,0,0,51.53,2.11Z"/><polyline class="cls-3" points="12.5 26.86 22.61 36.97 38.83 20.75"/></g></g></svg>