<svg xmlns="http://www.w3.org/2000/svg" viewBox="0 0 64.69 64.88"><defs><style>.cls-1{fill:#ffd3ae;}.cls-2{fill:none;stroke:#102f3a;stroke-linecap:round;stroke-linejoin:round;stroke-width:1.5px;}</style></defs><g id="Layer_2" data-name="Layer 2"><g id="Layer_1-2" data-name="Layer 1"><path class="cls-1" d="M20.45,59.46H44.17a3.07,3.07,0,0,1,3.07,3.07v.87a.73.73,0,0,1-.73.73H18.11a.73.73,0,0,1-.73-.73v-.87a3.07,3.07,0,0,1,3.07-3.07Z"/><path class="cls-2" d="M20.45,59.46H44.17a3.07,3.07,0,0,1,3.07,3.07v.87a.73.73,0,0,1-.73.73H18.11a.73.73,0,0,1-.73-.73v-.87a3.07,3.07,0,0,1,3.07-3.07Z"/><polygon class="cls-2" points="38.98 59.46 25.65 59.46 30.13 55.08 34.5 55.08 38.98 59.46"/><rect class="cls-1" x="30.1" y="13.88" width="4.4" height="41.2"/><rect class="cls-2" x="30.1" y="13.88" width="4.4" height="41.2"/><path class="cls-2" d="M32.3,13.88H20.45a5.61,5.61,0,0,0-2.18.43l-.87.36a9.4,9.4,0,0,1-8.76-.79h0"/><path class="cls-2" d="M32.3,13.88H44.16a5.6,5.6,0,0,1,2.17.43l.87.36A9.42,9.42,0,0,0,56,13.88h0"/><path class="cls-2" d="M12,15.1.75,39.7H25L13.75,15.1A.94.94,0,0,0,12,15.1Z"/><path class="cls-1" d="M.75,39.7H25a0,0,0,0,1,0,0v1.21a5.3,5.3,0,0,1-5.3,5.3H6.05a5.3,5.3,0,0,1-5.3-5.3V39.7a0,0,0,0,1,0,0Z"/><path class="cls-1" d="M39.65,39.7H63.94a0,0,0,0,1,0,0v1.21a5.3,5.3,0,0,1-5.3,5.3H45a5.3,5.3,0,0,1-5.3-5.3V39.7A0,0,0,0,1,39.65,39.7Z"/><path class="cls-2" d="M.75,39.7H25a0,0,0,0,1,0,0v1.21a5.3,5.3,0,0,1-5.3,5.3H6.05a5.3,5.3,0,0,1-5.3-5.3V39.7a0,0,0,0,1,0,0Z"/><path class="cls-2" d="M50.93,15.1,39.65,39.7H63.94L52.65,15.1A.94.94,0,0,0,50.93,15.1Z"/><path class="cls-2" d="M39.65,39.7H63.94a0,0,0,0,1,0,0v1.21a5.3,5.3,0,0,1-5.3,5.3H45a5.3,5.3,0,0,1-5.3-5.3V39.7A0,0,0,0,1,39.65,39.7Z"/><path class="cls-1" d="M35.53,4.37a12.93,12.93,0,0,1-1,4.85v.26H30.1V9.22a12.93,12.93,0,0,1-1-4.85c0-2.62,1.57-3.62,3.23-3.62S35.53,1.75,35.53,4.37Z"/><path class="cls-2" d="M35.53,4.37a12.93,12.93,0,0,1-1,4.85v.26H30.1V9.22a12.93,12.93,0,0,1-1-4.85c0-2.62,1.57-3.62,3.23-3.62S35.53,1.75,35.53,4.37Z"/><line class="cls-2" x1="30.1" y1="13.88" x2="30.1" y2="9.48"/><line class="cls-2" x1="34.5" y1="13.88" x2="34.5" y2="9.48"/><line class="cls-2" x1="37.51" y1="9.48" x2="34.5" y2="9.48"/><line class="cls-2" x1="30.1" y1="9.48" x2="27.09" y2="9.48"/></g></g></svg>