<svg xmlns="http://www.w3.org/2000/svg" viewBox="0 0 63.19 45.72"><defs><style>.cls-1{fill:#ffd3ae;}.cls-1,.cls-2{stroke:#102f3a;stroke-linecap:round;stroke-linejoin:round;}.cls-2{fill:none;}.cls-3{fill:#fff;}</style></defs><g id="Layer_2" data-name="Layer 2"><g id="Layer_1-2" data-name="Layer 1"><path class="cls-1" d="M62.69,16.29V44.36a.85.85,0,0,1-.86.86H17.17V16.29Z"/><path class="cls-1" d="M17.17,16.29V45.22H1.37a.86.86,0,0,1-.87-.86V16.29Z"/><path class="cls-2" d="M62.69,16.29V44.36a.85.85,0,0,1-.86.86H17.17V16.29Z"/><path class="cls-2" d="M17.17,16.29V45.22H1.37a.86.86,0,0,1-.87-.86V16.29Z"/><path class="cls-2" d="M62.69,16.29V44.36a.85.85,0,0,1-.86.86H17.17V16.29Z"/><path class="cls-2" d="M17.17,16.29V45.22H1.37a.86.86,0,0,1-.87-.86V16.29Z"/><path class="cls-2" d="M62.69,1.36V16.29H.5V1.36A.87.87,0,0,1,1.37.5H61.83A.86.86,0,0,1,62.69,1.36Z"/><line class="cls-2" x1="17.17" y1="16.29" x2="17.17" y2="0.5"/><path class="cls-2" d="M11.94,6.61h.39a4.84,4.84,0,0,1,4.84,4.84v3.84a1,1,0,0,1-1,1H11.94A4.84,4.84,0,0,1,7.1,11.45v0a4.84,4.84,0,0,1,4.84-4.84Z"/><path class="cls-2" d="M22,6.61h5.23a0,0,0,0,1,0,0v4.84a4.84,4.84,0,0,1-4.84,4.84H22a4.84,4.84,0,0,1-4.84-4.84v0A4.84,4.84,0,0,1,22,6.61Z" transform="translate(44.41 22.9) rotate(-180)"/><line class="cls-2" x1="17.17" y1="16.29" x2="11.71" y2="22.15"/><line class="cls-2" x1="17.17" y1="16.29" x2="26.23" y2="25.74"/><rect class="cls-3" x="36.44" y="35.68" width="19.22" height="4.82" rx="1.61"/><rect class="cls-2" x="36.44" y="35.68" width="19.22" height="4.82" rx="1.61"/><rect class="cls-2" x="36.44" y="35.68" width="19.22" height="4.82" rx="1.61"/></g></g></svg>