<svg xmlns="http://www.w3.org/2000/svg" viewBox="0 0 63.16 58.45"><defs><style>.cls-1{fill:#ffd3ae;}.cls-2{fill:none;stroke:#102f3a;stroke-linecap:round;stroke-linejoin:round;}</style></defs><g id="Layer_2" data-name="Layer 2"><g id="Layer_1-2" data-name="Layer 1"><path class="cls-1" d="M62.66,15.77,52.08,26.82V58h-41V26.82L.5,15.77,14.15,3.67,23.3.5a8.22,8.22,0,0,0,8.22,8.22h.12A8.22,8.22,0,0,0,39.86.5L49,3.67Z"/><line class="cls-2" x1="11.08" y1="26.82" x2="11.08" y2="18.24"/><line class="cls-2" x1="52.08" y1="26.82" x2="52.08" y2="18.24"/><path class="cls-2" d="M62.66,15.77,52.08,26.82V58h-41V26.82L.5,15.77,14.15,3.67,23.3.5a8.22,8.22,0,0,0,8.22,8.22h.12A8.22,8.22,0,0,0,39.86.5L49,3.67Z"/></g></g></svg>