<svg xmlns="http://www.w3.org/2000/svg" viewBox="0 0 62.39 62.84"><defs><style>.cls-1{fill:#ffd3ae;}.cls-2{fill:none;stroke:#102f3a;stroke-linecap:round;stroke-linejoin:round;}</style></defs><g id="Layer_2" data-name="Layer 2"><g id="Layer_1-2" data-name="Layer 1"><path class="cls-1" d="M53.14,1.79V12.9H9.25V1.79A1.29,1.29,0,0,1,10.54.5H51.86A1.29,1.29,0,0,1,53.14,1.79Z"/><path class="cls-2" d="M53.14,1.79V12.9H9.25V1.79A1.29,1.29,0,0,1,10.54.5H51.86A1.29,1.29,0,0,1,53.14,1.79Z"/><path class="cls-2" d="M9.25,7.78V12.9H3.93V9.07A1.29,1.29,0,0,1,5.22,7.78Z"/><path class="cls-2" d="M58.46,9.07V12.9H53.14V7.78h4A1.29,1.29,0,0,1,58.46,9.07Z"/><rect class="cls-1" x="0.5" y="12.9" width="61.39" height="4.3" rx="1.02"/><rect class="cls-2" x="0.5" y="12.9" width="61.39" height="4.3" rx="1.02"/><path class="cls-2" d="M2.13,17.2H60.26a0,0,0,0,1,0,0V61.32a1,1,0,0,1-1,1H3.15a1,1,0,0,1-1-1V17.2A0,0,0,0,1,2.13,17.2Z"/><path class="cls-2" d="M6.59,22.44H23a0,0,0,0,1,0,0V61.32a1,1,0,0,1-1,1H7.61a1,1,0,0,1-1-1V22.44A0,0,0,0,1,6.59,22.44Z"/><rect class="cls-1" x="6.59" y="31.38" width="16.38" height="22.03"/><rect class="cls-2" x="6.59" y="31.38" width="16.38" height="22.03"/><path class="cls-2" d="M6.59,53.4H23a0,0,0,0,1,0,0v7.92a1,1,0,0,1-1,1H7.61a1,1,0,0,1-1-1V53.4A0,0,0,0,1,6.59,53.4Z"/><path class="cls-2" d="M39.42,22.44H55.8a0,0,0,0,1,0,0V61.32a1,1,0,0,1-1,1H40.44a1,1,0,0,1-1-1V22.44A0,0,0,0,1,39.42,22.44Z"/><rect class="cls-1" x="39.42" y="31.38" width="16.38" height="22.03"/><rect class="cls-2" x="39.42" y="31.38" width="16.38" height="22.03"/><path class="cls-2" d="M39.42,53.4H55.8a0,0,0,0,1,0,0v7.92a1,1,0,0,1-1,1H40.44a1,1,0,0,1-1-1V53.4A0,0,0,0,1,39.42,53.4Z"/><line class="cls-2" x1="22.97" y1="22.44" x2="25.77" y2="22.44"/><line class="cls-2" x1="30.56" y1="22.44" x2="39.42" y2="22.44"/><line class="cls-2" x1="35.79" y1="36.97" x2="35.79" y2="47.44"/></g></g></svg>