<svg xmlns="http://www.w3.org/2000/svg" viewBox="0 0 62.97 62.98"><defs><style>.cls-1{fill:#ffd3ae;}.cls-2{fill:none;stroke:#102f3a;stroke-linecap:round;stroke-linejoin:round;}</style></defs><g id="Layer_2" data-name="Layer 2"><g id="Layer_1-2" data-name="Layer 1"><path class="cls-1" d="M31.48.5a31,31,0,1,0,31,31A31,31,0,0,0,31.48.5Zm0,58.89a27.9,27.9,0,1,1,27.91-27.9A27.9,27.9,0,0,1,31.48,59.39Z"/><path class="cls-2" d="M31.48.5a31,31,0,1,0,31,31A31,31,0,0,0,31.48.5Zm0,58.89a27.9,27.9,0,1,1,27.91-27.9A27.9,27.9,0,0,1,31.48,59.39Z"/><path class="cls-2" d="M59.39,31.49A27.91,27.91,0,1,1,31.48,3.59,27.91,27.91,0,0,1,59.39,31.49Z"/><path class="cls-2" d="M56,31.49A24.48,24.48,0,1,1,31.48,7,24.47,24.47,0,0,1,56,31.49Z"/><path class="cls-1" d="M26.67,42.39a2.49,2.49,0,0,1-1.77-.73l-7.54-7.55a2.5,2.5,0,0,1,3.53-3.53l5.78,5.77L42.08,21a2.5,2.5,0,0,1,3.53,3.53L28.44,41.66A2.49,2.49,0,0,1,26.67,42.39Z"/><path class="cls-2" d="M26.67,42.39a2.49,2.49,0,0,1-1.77-.73l-7.54-7.55a2.5,2.5,0,0,1,3.53-3.53l5.78,5.77L42.08,21a2.5,2.5,0,0,1,3.53,3.53L28.44,41.66A2.49,2.49,0,0,1,26.67,42.39Z"/></g></g></svg>