<svg xmlns="http://www.w3.org/2000/svg" viewBox="0 0 57.01 63.19"><defs><style>.cls-1{fill:none;stroke:#102f3a;stroke-linecap:round;stroke-linejoin:round;}.cls-2{fill:#ffd3ae;}.cls-3{fill:#fff;}</style></defs><g id="Layer_2" data-name="Layer 2"><g id="Layer_1-2" data-name="Layer 1"><path class="cls-1" d="M.5,17.34A7.72,7.72,0,0,0,8.22,9.62V6.23A5.74,5.74,0,0,1,14,.5h0a5.73,5.73,0,0,1,5.73,5.73V16.89"/><circle class="cls-1" cx="19.68" cy="20.92" r="4.03"/><path class="cls-2" d="M19.68,25s-9.35,16.72-9.35,21.88a9.35,9.35,0,0,0,18.7,0C29,41.68,19.68,25,19.68,25Zm0,26.51a5.19,5.19,0,0,1-5.19-5.19c0-2.87,5.19-12.15,5.19-12.15s5.19,9.28,5.19,12.15A5.19,5.19,0,0,1,19.68,51.47Z"/><path class="cls-2" d="M24.87,46.28a5.19,5.19,0,0,1-10.38,0c0-2.87,5.19-12.15,5.19-12.15S24.87,43.41,24.87,46.28Z"/><path class="cls-2" d="M24.87,46.28a5.19,5.19,0,0,1-10.38,0c0-2.87,5.19-12.15,5.19-12.15S24.87,43.41,24.87,46.28Z"/><path class="cls-2" d="M47.16,31.46s-9.35,16.72-9.35,21.88a9.35,9.35,0,1,0,18.7,0C56.51,48.18,47.16,31.46,47.16,31.46Zm0,26.51A5.19,5.19,0,0,1,42,52.78c0-2.87,5.19-12.15,5.19-12.15s5.19,9.28,5.19,12.15A5.2,5.2,0,0,1,47.16,58Z"/><path class="cls-2" d="M52.35,52.78a5.19,5.19,0,1,1-10.38,0c0-2.87,5.19-12.15,5.19-12.15S52.35,49.91,52.35,52.78Z"/><path class="cls-2" d="M52.35,52.78a5.19,5.19,0,1,1-10.38,0c0-2.87,5.19-12.15,5.19-12.15S52.35,49.91,52.35,52.78Z"/><path class="cls-1" d="M19.68,25s-9.35,16.72-9.35,21.88a9.35,9.35,0,0,0,18.7,0C29,41.68,19.68,25,19.68,25Zm0,26.51a5.19,5.19,0,0,1-5.19-5.19c0-2.87,5.19-12.15,5.19-12.15s5.19,9.28,5.19,12.15A5.19,5.19,0,0,1,19.68,51.47Z"/><path class="cls-1" d="M24.87,46.28a5.19,5.19,0,0,1-10.38,0c0-2.87,5.19-12.15,5.19-12.15S24.87,43.41,24.87,46.28Z"/><path class="cls-3" d="M24.87,46.28a5.19,5.19,0,0,1-10.38,0c0-2.87,5.19-12.15,5.19-12.15S24.87,43.41,24.87,46.28Z"/><path class="cls-3" d="M52.35,52.78a5.19,5.19,0,1,1-10.38,0c0-2.87,5.19-12.15,5.19-12.15S52.35,49.91,52.35,52.78Z"/><path class="cls-1" d="M24.87,46.28a5.19,5.19,0,0,1-10.38,0c0-2.87,5.19-12.15,5.19-12.15S24.87,43.41,24.87,46.28Z"/><path class="cls-1" d="M28,23.84a7.72,7.72,0,0,0,7.72-7.72V12.73A5.74,5.74,0,0,1,41.43,7h0a5.74,5.74,0,0,1,5.73,5.73V23.39"/><circle class="cls-1" cx="47.16" cy="27.42" r="4.03"/><path class="cls-1" d="M47.16,31.46s-9.35,16.72-9.35,21.88a9.35,9.35,0,1,0,18.7,0C56.51,48.18,47.16,31.46,47.16,31.46Zm0,26.51A5.19,5.19,0,0,1,42,52.78c0-2.87,5.19-12.15,5.19-12.15s5.19,9.28,5.19,12.15A5.2,5.2,0,0,1,47.16,58Z"/><path class="cls-1" d="M52.35,52.78a5.19,5.19,0,1,1-10.38,0c0-2.87,5.19-12.15,5.19-12.15S52.35,49.91,52.35,52.78Z"/><path class="cls-1" d="M52.35,52.78a5.19,5.19,0,1,1-10.38,0c0-2.87,5.19-12.15,5.19-12.15S52.35,49.91,52.35,52.78Z"/></g></g></svg>