<svg xmlns="http://www.w3.org/2000/svg" viewBox="0 0 64.26 64.13"><defs><style>.cls-1{fill:#ffd3ae;}.cls-2{fill:none;stroke:#102f3a;stroke-linecap:round;stroke-linejoin:round;stroke-width:1.5px;}</style></defs><g id="Layer_2" data-name="Layer 2"><g id="Layer_1-2" data-name="Layer 1"><path class="cls-1" d="M47.72,52.1V63.38H16.15V52.1A15.79,15.79,0,0,1,31.53,36.31h.69A15.78,15.78,0,0,1,47.72,52.1Z"/><path class="cls-2" d="M47.72,52.1V63.38H16.15V52.1A15.79,15.79,0,0,1,31.53,36.31h.69A15.78,15.78,0,0,1,47.72,52.1Z"/><path class="cls-2" d="M31.53,36.31A15.79,15.79,0,0,0,16.15,52.1V63.38H4a3.19,3.19,0,0,1-3.2-3.19V26.46a9.53,9.53,0,0,0,19.05,0V24.24A12.08,12.08,0,0,0,31.53,36.31Z"/><path class="cls-2" d="M63.51,26.46V60.19a3.19,3.19,0,0,1-3.2,3.19H47.72V52.1a15.78,15.78,0,0,0-15.5-15.79A12.07,12.07,0,0,0,44,24.24v2.22A9.53,9.53,0,0,0,53.49,36H54A9.52,9.52,0,0,0,63.51,26.46Z"/><path class="cls-1" d="M63.51,24.24v2.22A9.52,9.52,0,0,1,54,36h-.5A9.53,9.53,0,0,1,44,26.46V24.24a12.08,12.08,0,0,0-24.16,0v2.22a9.53,9.53,0,0,1-19,0V24.24L12.43.75H51.84Z"/><path class="cls-2" d="M63.51,24.24v2.22A9.52,9.52,0,0,1,54,36h-.5A9.53,9.53,0,0,1,44,26.46V24.24a12.08,12.08,0,0,0-24.16,0v2.22a9.53,9.53,0,0,1-19,0V24.24L12.43.75H51.84Z"/></g></g></svg>