<svg xmlns="http://www.w3.org/2000/svg" viewBox="0 0 63.09 59.69"><defs><style>.cls-1{fill:none;stroke:#102f3a;stroke-linecap:round;stroke-linejoin:round;}.cls-2{fill:#ffd3ae;}</style></defs><g id="Layer_2" data-name="Layer 2"><g id="Layer_1-2" data-name="Layer 1"><path class="cls-1" d="M60.38,39.8h0"/><path class="cls-2" d="M60.37,39.8c-.42.08-11,2.09-15.75,11.62l-4.21,1.13c-.71-.69-5.93-5.58-9.63-4.78l-8,1.71a1,1,0,0,1-1.22-.72L20.08,43.7l19.68-12C41.52,33.1,42.88,34.16,44,35c2.85,2,4.28,2.41,7,2.41A14.8,14.8,0,0,0,58.16,35,17.36,17.36,0,0,1,60.37,39.8Z"/><path class="cls-1" d="M60.37,39.8c-.42.08-11,2.09-15.75,11.62l-4.21,1.13c-.71-.69-5.93-5.58-9.63-4.78l-8,1.71a1,1,0,0,1-1.22-.72L20.08,43.7l19.68-12C41.52,33.1,42.88,34.16,44,35c2.85,2,4.28,2.41,7,2.41A14.8,14.8,0,0,0,58.16,35,17.36,17.36,0,0,1,60.37,39.8Z"/><path class="cls-2" d="M62.59,51.42h-18C49.38,41.89,60,39.88,60.37,39.8A60.36,60.36,0,0,1,62.59,51.42Z"/><path class="cls-2" d="M40.41,52.55,28.78,55.07H.5V51.93a4.89,4.89,0,0,1,3.84-4.78L20.08,43.7l1.53,5.06a1,1,0,0,0,1.22.72l8-1.71C34.48,47,39.7,51.86,40.41,52.55Z"/><path class="cls-1" d="M62.59,51.42h-18C49.38,41.89,60,39.88,60.37,39.8A60.36,60.36,0,0,1,62.59,51.42Z"/><polygon class="cls-1" points="62.59 51.42 62.59 59.19 44.32 59.19 44.32 55.85 44.62 51.42 62.59 51.42"/><path class="cls-1" d="M40.41,52.55,28.78,55.07H.5V51.93a4.89,4.89,0,0,1,3.84-4.78L20.08,43.7l1.53,5.06a1,1,0,0,0,1.22.72l8-1.71C34.48,47,39.7,51.86,40.41,52.55Z"/><line class="cls-1" x1="23.16" y1="38.46" x2="26.15" y2="43.47"/><line class="cls-1" x1="26.69" y1="36.18" x2="29.68" y2="41.2"/><line class="cls-1" x1="30.37" y1="33.92" x2="33.36" y2="38.94"/><line class="cls-1" x1="33.98" y1="31.71" x2="36.97" y2="36.73"/><polygon class="cls-1" points="44.62 51.42 44.32 55.85 28.87 59.19 0.5 59.19 0.5 55.07 28.78 55.07 40.41 52.55 44.62 51.42"/><path class="cls-2" d="M2.72,8.58c.42.08,11,2.09,15.75,11.62l4.21,1.13c.71-.69,5.93-5.58,9.63-4.78l7.95,1.71a1,1,0,0,0,1.22-.72L43,12.48,23.33.5c-1.76,1.38-3.12,2.44-4.25,3.23-2.85,2-4.28,2.41-6.95,2.41A14.8,14.8,0,0,1,4.93,3.8,17.36,17.36,0,0,0,2.72,8.58Z"/><path class="cls-1" d="M2.72,8.58c.42.08,11,2.09,15.75,11.62l4.21,1.13c.71-.69,5.93-5.58,9.63-4.78l7.95,1.71a1,1,0,0,0,1.22-.72L43,12.48,23.33.5c-1.76,1.38-3.12,2.44-4.25,3.23-2.85,2-4.28,2.41-6.95,2.41A14.8,14.8,0,0,1,4.93,3.8,17.36,17.36,0,0,0,2.72,8.58Z"/><path class="cls-2" d="M.5,20.2h18C13.71,10.67,3.14,8.66,2.72,8.58A60.36,60.36,0,0,0,.5,20.2Z"/><path class="cls-2" d="M22.68,21.33l11.63,2.52H62.59V20.71a4.89,4.89,0,0,0-3.84-4.78L43,12.48l-1.53,5.06a1,1,0,0,1-1.22.72l-7.95-1.71C28.61,15.75,23.39,20.64,22.68,21.33Z"/><path class="cls-1" d="M.5,20.2h18C13.71,10.67,3.14,8.66,2.72,8.58A60.36,60.36,0,0,0,.5,20.2Z"/><polygon class="cls-1" points="0.5 20.2 0.5 27.97 18.77 27.97 18.77 24.63 18.47 20.2 0.5 20.2"/><path class="cls-1" d="M22.68,21.33l11.63,2.52H62.59V20.71a4.89,4.89,0,0,0-3.84-4.78L43,12.48l-1.53,5.06a1,1,0,0,1-1.22.72l-7.95-1.71C28.61,15.75,23.39,20.64,22.68,21.33Z"/><line class="cls-1" x1="39.93" y1="7.25" x2="36.94" y2="12.26"/><line class="cls-1" x1="36.4" y1="4.97" x2="33.41" y2="9.98"/><line class="cls-1" x1="32.72" y1="2.71" x2="29.73" y2="7.72"/><line class="cls-1" x1="29.11" y1="0.5" x2="26.12" y2="5.51"/><polygon class="cls-1" points="18.47 20.2 18.77 24.63 34.22 27.97 62.59 27.97 62.59 23.85 34.31 23.85 22.68 21.33 18.47 20.2"/></g></g></svg>