<svg xmlns="http://www.w3.org/2000/svg" viewBox="0 0 151.68 151.7"><defs><style>.cls-1{fill:#efba89;}.cls-2{fill:none;stroke:#000;stroke-linecap:round;stroke-linejoin:round;stroke-width:3px;}</style></defs><g id="Layer_2" data-name="Layer 2"><g id="Layer_1-2" data-name="Layer 1"><path class="cls-1" d="M150.18,75.85a74.16,74.16,0,0,1-27.39,57.64A48.83,48.83,0,0,0,85.06,96.62a33.08,33.08,0,1,0-18.44,0A48.82,48.82,0,0,0,28.9,133.49,74.34,74.34,0,1,1,150.18,75.85Z"/><path class="cls-2" d="M150.18,75.85a74.16,74.16,0,0,1-27.39,57.64A48.83,48.83,0,0,0,85.06,96.62a33.08,33.08,0,1,0-18.44,0A48.82,48.82,0,0,0,28.9,133.49,74.34,74.34,0,1,1,150.18,75.85Z"/><path class="cls-2" d="M108.92,64.85A33.08,33.08,0,1,1,75.84,31.76,33.08,33.08,0,0,1,108.92,64.85Z"/><path class="cls-2" d="M108.92,64.85A33.08,33.08,0,1,1,75.84,31.76,33.08,33.08,0,0,1,108.92,64.85Z"/><path class="cls-2" d="M122.79,133.49a74.3,74.3,0,0,1-93.89,0A48.82,48.82,0,0,1,66.62,96.62a33.35,33.35,0,0,0,18.44,0A48.83,48.83,0,0,1,122.79,133.49Z"/></g></g></svg>