<svg xmlns="http://www.w3.org/2000/svg" viewBox="0 0 151.66 144.39"><defs><style>.cls-1{fill:#efba89;}.cls-2{fill:none;stroke:#000;stroke-linecap:round;stroke-linejoin:round;stroke-width:3px;}.cls-3{fill:#fff;}</style></defs><g id="Layer_2" data-name="Layer 2"><g id="Layer_1-2" data-name="Layer 1"><path class="cls-1" d="M112.81,67.2v58.53a17.16,17.16,0,1,1-34.32,0V114.88H22.18V25.58H85.4A33,33,0,0,0,112.81,67.2Z"/><path class="cls-2" d="M112.8,67.19v58.54a17.16,17.16,0,1,1-34.32,0V114.88H22.17V25.58H85.39"/><path class="cls-2" d="M96.68,142.89H18.35A16.84,16.84,0,0,1,1.5,126V114.88h77"/><path class="cls-2" d="M150.16,34.49a33,33,0,0,1-33,33,34.71,34.71,0,0,1-4.36-.28,33,33,0,1,1,37.35-32.71Z"/><line class="cls-2" x1="61.42" y1="50.79" x2="88.48" y2="50.79"/><line class="cls-2" x1="61.42" y1="72.72" x2="94.39" y2="72.72"/><line class="cls-2" x1="61.42" y1="94.33" x2="94.39" y2="94.33"/><circle class="cls-3" cx="45.25" cy="72.72" r="5.33"/><circle class="cls-3" cx="45.25" cy="51.1" r="5.33"/><circle class="cls-3" cx="45.25" cy="94.33" r="5.33"/><circle class="cls-2" cx="45.25" cy="72.72" r="5.33"/><circle class="cls-2" cx="45.25" cy="51.1" r="5.33"/><circle class="cls-2" cx="45.25" cy="94.33" r="5.33"/><path class="cls-2" d="M108.83,42.82a8.34,8.34,0,1,0,8.33-8.33,8.14,8.14,0,1,1,8.14-8.14"/><line class="cls-2" x1="117.16" y1="18.21" x2="117.16" y2="13.35"/><line class="cls-2" x1="117.16" y1="51.16" x2="117.16" y2="55.25"/></g></g></svg>