<svg xmlns="http://www.w3.org/2000/svg" viewBox="0 0 151.69 151.29"><defs><style>.cls-1{fill:none;stroke:#000;stroke-linecap:round;stroke-linejoin:round;stroke-width:3px;}</style></defs><g id="Layer_2" data-name="Layer 2"><g id="Layer_1-2" data-name="Layer 1"><path class="cls-1" d="M136.36,124.62H66.85L37.19,148a8.24,8.24,0,0,1-13.34-6.47V124.62H15.33A13.83,13.83,0,0,1,1.5,110.79V15.33A13.83,13.83,0,0,1,15.33,1.5h121a13.83,13.83,0,0,1,13.83,13.83v95.46A13.83,13.83,0,0,1,136.36,124.62Z"/><path class="cls-1" d="M59.73,108.34,68.34,76a2.34,2.34,0,0,0-2.26-2.94H47A2,2,0,0,1,45,70.7l11.54-54a2.68,2.68,0,0,1,2.62-2.12h40.3a2.68,2.68,0,0,1,2.41,3.87L84.87,53a1.54,1.54,0,0,0,1.39,2.22h15.35a3.52,3.52,0,0,1,2.75,5.71l-39.7,49.88A2.82,2.82,0,0,1,59.73,108.34Z"/></g></g></svg>