<svg xmlns="http://www.w3.org/2000/svg" viewBox="0 0 151.86 144.09"><defs><style>.cls-1{fill:none;stroke:#000;stroke-linecap:round;stroke-linejoin:round;stroke-width:3px;}.cls-2{fill:#efba89;}.cls-3{fill:#fff;}</style></defs><g id="Layer_2" data-name="Layer 2"><g id="Layer_1-2" data-name="Layer 1"><path class="cls-1" d="M87.31,1.5V17H51.45V6.86A5.36,5.36,0,0,1,56.8,1.5Z"/><path class="cls-1" d="M144.65,6.86V17H108.33V1.5h31A5.36,5.36,0,0,1,144.65,6.86Z"/><path class="cls-2" d="M144.65,17V79.91a7.63,7.63,0,0,0-4.73.27l-6.3,2.44H108.27a7.82,7.82,0,0,0-1.62-.5l-15.52-3h0a60.92,60.92,0,0,0-7.92-1.54h-.11a74.76,74.76,0,0,0-9.62-.6,62.3,62.3,0,0,0-22,3.89V17H87.31V1.5h21V17Z"/><path class="cls-1" d="M144.65,17V79.91a7.63,7.63,0,0,0-4.73.27l-6.3,2.44H108.27a7.82,7.82,0,0,0-1.62-.5l-15.52-3h0a60.92,60.92,0,0,0-7.92-1.54h-.11a74.76,74.76,0,0,0-9.62-.6,62.3,62.3,0,0,0-22,3.89V17H87.31V1.5h21V17Z"/><rect class="cls-2" x="12.14" y="91.36" width="30.82" height="46.6" transform="translate(-61.27 37.09) rotate(-35.35)"/><rect class="cls-1" x="12.14" y="91.36" width="30.82" height="46.6" transform="translate(-61.27 37.09) rotate(-35.35)"/><path class="cls-1" d="M31.51,93.61s6.78-7.85,19.94-12.77"/><path class="cls-1" d="M50.87,120.91l5.83-4s9.28-3.55,15-2.28,11.37,3.89,22-.28,15.51-5.8,15.51-5.8"/><path class="cls-1" d="M144.65,79.91a7.64,7.64,0,0,1,5.19,4.63,7.77,7.77,0,0,1,.52,2.78,7.69,7.69,0,0,1-4.89,7.15l-36.38,14.14-.07,0-.1,0-15.51,6-.07-.2"/><line class="cls-1" x1="133.62" y1="82.62" x2="112.97" y2="90.65"/><line class="cls-1" x1="91.09" y1="79.1" x2="83.17" y2="77.56"/><path class="cls-1" d="M108.27,82.62a7.87,7.87,0,0,1,4.7,8c0,.23-.06.45-.1.68a7.87,7.87,0,0,1-7.71,6.36,7.78,7.78,0,0,1-1.5-.15L98,96.45,76.9,92.35a.18.18,0,0,1-.14-.22"/><polygon class="cls-3" points="108.33 1.5 108.33 32.47 97.81 21.65 87.31 32.47 87.31 1.5 108.33 1.5"/><polygon class="cls-1" points="108.33 1.5 108.33 32.47 97.81 21.65 87.31 32.47 87.31 1.5 108.33 1.5"/></g></g></svg>