<svg xmlns="http://www.w3.org/2000/svg" viewBox="0 0 151.84 106.83"><defs><style>.cls-1{fill:#efba89;}.cls-2{fill:none;stroke:#000;stroke-linecap:round;stroke-linejoin:round;stroke-width:3px;}.cls-3{fill:#fff;}</style></defs><g id="Layer_2" data-name="Layer 2"><g id="Layer_1-2" data-name="Layer 1"><path class="cls-1" d="M145,86.55H90.19L75.92,105.33l-16-18.78h-53A5.38,5.38,0,0,1,1.5,81.17V6.89A5.39,5.39,0,0,1,6.89,1.5H145a5.38,5.38,0,0,1,5.38,5.39V81.17A5.38,5.38,0,0,1,145,86.55Z"/><path class="cls-2" d="M145,86.55H90.19L75.92,105.33l-16-18.78h-53A5.38,5.38,0,0,1,1.5,81.17V6.89A5.39,5.39,0,0,1,6.89,1.5H145a5.38,5.38,0,0,1,5.38,5.39V81.17A5.38,5.38,0,0,1,145,86.55Z"/><path class="cls-3" d="M35.43,29l4,7.48L47.8,38a1.55,1.55,0,0,1,.85,2.6l-5.87,6.13,1.39,10.25a.55.55,0,0,1-.79.57L34.07,53,26.42,56.7a1.55,1.55,0,0,1-2.21-1.6l1.14-8.42-5.87-6.13a1.55,1.55,0,0,1,.85-2.6l8.35-1.51,4-7.48A1.56,1.56,0,0,1,35.43,29Z"/><path class="cls-3" d="M77.28,29l4,7.48L89.66,38a1.55,1.55,0,0,1,.84,2.6l-5.87,6.13L86,56.93a.55.55,0,0,1-.79.57L75.92,53,68.27,56.7a1.54,1.54,0,0,1-2.2-1.6l1.14-8.42-5.87-6.13a1.55,1.55,0,0,1,.84-2.6l8.36-1.51,4-7.48A1.55,1.55,0,0,1,77.28,29Z"/><path class="cls-3" d="M119.14,29l4,7.48L131.52,38a1.55,1.55,0,0,1,.84,2.6l-5.87,6.13,1.39,10.25a.55.55,0,0,1-.79.57L117.78,53l-7.65,3.69a1.55,1.55,0,0,1-2.21-1.6l1.14-8.42-5.86-6.13A1.55,1.55,0,0,1,104,38l8.35-1.51,4-7.48A1.56,1.56,0,0,1,119.14,29Z"/><path class="cls-2" d="M35.43,29l4,7.48L47.8,38a1.55,1.55,0,0,1,.85,2.6l-5.87,6.13,1.39,10.25a.55.55,0,0,1-.79.57L34.07,53,26.42,56.7a1.55,1.55,0,0,1-2.21-1.6l1.14-8.42-5.87-6.13a1.55,1.55,0,0,1,.85-2.6l8.35-1.51,4-7.48A1.56,1.56,0,0,1,35.43,29Z"/><path class="cls-2" d="M77.28,29l4,7.48L89.66,38a1.55,1.55,0,0,1,.84,2.6l-5.87,6.13L86,56.93a.55.55,0,0,1-.79.57L75.92,53,68.27,56.7a1.54,1.54,0,0,1-2.2-1.6l1.14-8.42-5.87-6.13a1.55,1.55,0,0,1,.84-2.6l8.36-1.51,4-7.48A1.55,1.55,0,0,1,77.28,29Z"/><path class="cls-2" d="M119.14,29l4,7.48L131.52,38a1.55,1.55,0,0,1,.84,2.6l-5.87,6.13,1.39,10.25a.55.55,0,0,1-.79.57L117.78,53l-7.65,3.69a1.55,1.55,0,0,1-2.21-1.6l1.14-8.42-5.86-6.13A1.55,1.55,0,0,1,104,38l8.35-1.51,4-7.48A1.56,1.56,0,0,1,119.14,29Z"/></g></g></svg>