<svg xmlns="http://www.w3.org/2000/svg" viewBox="0 0 60.24 63.2"><defs><style>.cls-1{fill:#ffd3ae;}.cls-2{fill:none;stroke:#102f3a;stroke-linecap:round;stroke-linejoin:round;}.cls-3{fill:#fff;}</style></defs><g id="Layer_2" data-name="Layer 2"><g id="Layer_1-2" data-name="Layer 1"><rect class="cls-1" x="0.5" y="37" width="25.7" height="25.7" rx="3.65"/><rect class="cls-2" x="0.5" y="37" width="25.7" height="25.7" rx="3.65"/><rect class="cls-1" x="31.99" y="33.51" width="25.7" height="25.7" rx="3.65" transform="matrix(0.97, 0.26, -0.26, 0.97, 13.34, -9.93)"/><rect class="cls-2" x="31.99" y="33.51" width="25.7" height="25.7" rx="3.65" transform="matrix(0.97, 0.26, -0.26, 0.97, 13.34, -9.93)"/><rect class="cls-1" x="15.86" y="3.22" width="25.7" height="25.7" rx="3.65" transform="translate(61.31 20.57) rotate(158.6)"/><rect class="cls-2" x="15.86" y="3.22" width="25.7" height="25.7" rx="3.65" transform="translate(61.31 20.57) rotate(158.6)"/><path class="cls-3" d="M18.61,46.86A2.57,2.57,0,0,1,17,49.3a3.1,3.1,0,0,1,2,2.82c0,2.82-2.11,3.73-4.73,3.73h-6V43.2h6C16.75,43.2,18.61,44.32,18.61,46.86Zm-8,1.41h3.65c1.5,0,2-.63,2-1.35s-.47-1.56-2-1.56H10.61Zm0,5.35h3.65c1,0,2.37-.32,2.37-1.51s-1.4-1.74-2.37-1.74H10.61Z"/><path class="cls-2" d="M18.61,46.86A2.57,2.57,0,0,1,17,49.3a3.1,3.1,0,0,1,2,2.82c0,2.82-2.11,3.73-4.73,3.73h-6V43.2h6C16.75,43.2,18.61,44.32,18.61,46.86Zm-8,1.41h3.65c1.5,0,2-.63,2-1.35s-.47-1.56-2-1.56H10.61Zm0,5.35h3.65c1,0,2.37-.32,2.37-1.51s-1.4-1.74-2.37-1.74H10.61Z"/><path class="cls-3" d="M49.46,51.89a6.64,6.64,0,0,1-5.13.59c-4.54-1.2-5.63-4.84-4.81-8a6.37,6.37,0,0,1,8.19-4.73,6.52,6.52,0,0,1,4,3.05l-1.93,1.08a4.31,4.31,0,0,0-2.65-1.93,4.14,4.14,0,0,0-5.33,3.13,4,4,0,0,0,3.12,5.25,4.62,4.62,0,0,0,3.4-.42Z"/><path class="cls-2" d="M49.46,51.89a6.64,6.64,0,0,1-5.13.59c-4.54-1.2-5.63-4.84-4.81-8a6.37,6.37,0,0,1,8.19-4.73,6.52,6.52,0,0,1,4,3.05l-1.93,1.08a4.31,4.31,0,0,0-2.65-1.93,4.14,4.14,0,0,0-5.33,3.13,4,4,0,0,0,3.12,5.25,4.62,4.62,0,0,0,3.4-.42Z"/><path class="cls-3" d="M33.48,17.65l-6.07,2.63,0,2.62-2.37,1,.16-13.86,2.39-1,10.24,9.34-2.38,1ZM27.41,12v5.87L31.71,16Z"/><path class="cls-2" d="M33.48,17.65l-6.07,2.63,0,2.62-2.37,1,.16-13.86,2.39-1,10.24,9.34-2.38,1ZM27.41,12v5.87L31.71,16Z"/></g></g></svg>