<svg xmlns="http://www.w3.org/2000/svg" viewBox="0 0 63.25 63.76"><defs><style>.cls-1{fill:none;stroke:#102f3a;stroke-linecap:round;stroke-linejoin:round;stroke-width:1.5px;}.cls-2{fill:#ffd3ae;}.cls-3{fill:#fff;}</style></defs><g id="Layer_2" data-name="Layer 2"><g id="Layer_1-2" data-name="Layer 1"><line class="cls-1" x1="51.31" y1="17.58" x2="46.3" y2="19.43"/><path class="cls-1" d="M16.77,19.09,2,13.93a1.39,1.39,0,0,1,0-2.62L30.89.87a2,2,0,0,1,1.37,0L61,11.37a1.4,1.4,0,0,1,0,2.62l-5.64,2.08"/><path class="cls-1" d="M46.3,26.46c0,1.71-6.61,3.1-14.76,3.1s-14.77-1.39-14.77-3.1,6.61-3.1,14.77-3.1S46.3,24.75,46.3,26.46Z"/><path class="cls-1" d="M5.25,44.54c0,5.56-.93,10.11-2.1,10.47L3,55C1.76,55,.75,50.33.75,44.54S1.76,34.05,3,34.05h.12C4.3,34.34,5.25,38.93,5.25,44.54Z"/><path class="cls-1" d="M62.5,44.54c0,5.85-1,10.59-2.25,10.59l-.13,0h0c-1.18-.36-2.11-5-2.11-10.57S58.93,34.31,60.11,34h.14C61.49,34,62.5,38.7,62.5,44.54Z"/><path class="cls-2" d="M46.3,14.77V26.46c0-1.71-6.61-3.1-14.76-3.1s-14.77,1.39-14.77,3.1V14.77a.75.75,0,0,1,0-.2c.5-1.62,6.9-2.9,14.74-2.9S45.78,13,46.27,14.57A.75.75,0,0,1,46.3,14.77Z"/><path class="cls-1" d="M46.3,14.77V26.46c0-1.71-6.61-3.1-14.76-3.1s-14.77,1.39-14.77,3.1V14.77a.75.75,0,0,1,0-.2c.5-1.62,6.9-2.9,14.74-2.9S45.78,13,46.27,14.57A.75.75,0,0,1,46.3,14.77Z"/><line class="cls-1" x1="53.76" y1="8.66" x2="53.76" y2="15.92"/><path class="cls-2" d="M53.32,15.92h.9a1.71,1.71,0,0,1,1.71,1.71v3.82a.66.66,0,0,1-.66.66h-3a.66.66,0,0,1-.66-.66V17.63a1.71,1.71,0,0,1,1.71-1.71Z"/><path class="cls-1" d="M53.32,15.92h.9a1.71,1.71,0,0,1,1.71,1.71v3.82a.66.66,0,0,1-.66.66h-3a.66.66,0,0,1-.66-.66V17.63a1.71,1.71,0,0,1,1.71-1.71Z"/><path class="cls-2" d="M60.1,55.11c-1.36-.15-11.88-1.34-21.32-1.86l-.57-1.45a6.33,6.33,0,1,0-11.85-3.11,6.2,6.2,0,0,0,.54,2.55c-.13.61-.28,1.23-.45,1.87-9.93.4-21.85,1.74-23.3,1.9,1.17-.36,2.1-4.91,2.1-10.47s-1-10.2-2.13-10.48c1.57.18,18,2,28.42,2S58.43,34.18,60.11,34C58.93,34.31,58,38.92,58,44.54S58.92,54.75,60.1,55.11Z"/><path class="cls-3" d="M37,44a6.34,6.34,0,0,0-9.43.94,28.81,28.81,0,0,0-1.21-9c1.82.08,3.57.12,5.18.12,1.4,0,2.9,0,4.47-.09A29,29,0,0,1,37,44Z"/><path class="cls-1" d="M37,44a6.34,6.34,0,0,0-9.43.94,28.81,28.81,0,0,0-1.21-9c1.82.08,3.57.12,5.18.12,1.4,0,2.9,0,4.47-.09A29,29,0,0,1,37,44Z"/><path class="cls-1" d="M27.57,45a6.29,6.29,0,0,0-.67,6.26c-.13.61-.28,1.23-.45,1.87-9.93.4-21.85,1.74-23.3,1.9,1.17-.36,2.1-4.91,2.1-10.47s-1-10.2-2.13-10.48c1.33.15,13.26,1.5,23.24,1.91A28.81,28.81,0,0,1,27.57,45Z"/><path class="cls-1" d="M60.1,55.11c-1.36-.15-11.88-1.34-21.32-1.86l-.57-1.45A6.33,6.33,0,0,0,37,44a29,29,0,0,0-1-8c10.1-.39,22.65-1.85,24.1-2C58.93,34.31,58,38.92,58,44.54S58.92,54.75,60.1,55.11Z"/><path class="cls-1" d="M60.25,34h-.14"/><path class="cls-1" d="M3,34.05h.12"/><path class="cls-1" d="M60.25,55.13l-.13,0h0"/><path class="cls-1" d="M3.15,55,3,55"/><path class="cls-1" d="M39,48.69A6.35,6.35,0,0,1,32.7,55h-.32a6.32,6.32,0,0,1-5.48-3.78,6.2,6.2,0,0,1-.54-2.55,6.34,6.34,0,0,1,12.67,0Z"/><path class="cls-1" d="M26.45,53.11a32.6,32.6,0,0,1-2.67,6.83l3.79-.88L28.31,63l4.07-8"/><path class="cls-1" d="M36,36h0"/><polyline class="cls-1" points="38.78 53.25 41.7 60.62 38.34 59.89 36.14 62.74 32.7 55.03"/></g></g></svg>