<svg xmlns="http://www.w3.org/2000/svg" viewBox="0 0 63.84 58.77"><defs><style>.cls-1{fill:#ffd3ae;}.cls-2{fill:none;stroke:#102f3a;stroke-linecap:round;stroke-linejoin:round;}</style></defs><g id="Layer_2" data-name="Layer 2"><g id="Layer_1-2" data-name="Layer 1"><rect class="cls-1" x="11.83" y="0.5" width="17.83" height="23.42" rx="0.95"/><rect class="cls-2" x="11.83" y="0.5" width="17.83" height="23.42" rx="0.95"/><path class="cls-2" d="M15.41,23.92v9.72a1,1,0,0,1-.95,1H2.14a1,1,0,0,1-1-1V16.41a1,1,0,0,1,1-.95h9.69V23a1,1,0,0,0,.95,1Z"/><line class="cls-2" x1="16.69" y1="11.25" x2="22.2" y2="11.25"/><line class="cls-2" x1="5.54" y1="21.03" x2="8.43" y2="21.03"/><line class="cls-2" x1="5.54" y1="25.39" x2="9.59" y2="25.39"/><line class="cls-2" x1="16.69" y1="5.86" x2="22.2" y2="5.86"/><path class="cls-1" d="M51.61,38.5V58.27H19V30.71a1,1,0,0,1,1-1H42.79A28.61,28.61,0,0,0,51.61,38.5Z"/><path class="cls-2" d="M51.61,38.5V58.27H19V30.71a1,1,0,0,1,1-1H42.79A28.61,28.61,0,0,0,51.61,38.5Z"/><line class="cls-2" x1="0.5" y1="58.27" x2="57.67" y2="58.27"/><path class="cls-2" d="M19,51.51H11.88a.38.38,0,0,0-.31.59l4.29,6.17"/><polygon class="cls-1" points="43.43 17.66 48.69 32.59 63.34 38.21 58.08 23.92 43.43 17.66"/><polygon class="cls-2" points="43.43 17.66 48.69 32.59 63.34 38.21 58.08 23.92 43.43 17.66"/><path class="cls-2" d="M57.07,35.81h0l-3.69,3.68c-.61-.31-1.21-.64-1.77-1"/><path class="cls-2" d="M42.79,29.68a19.9,19.9,0,0,1-1-1.74l4-3.7"/><line class="cls-2" x1="59.34" y1="36.68" x2="59.34" y2="45.04"/><circle class="cls-1" cx="59.34" cy="48.28" r="3.18"/><circle class="cls-2" cx="59.34" cy="48.28" r="3.18"/><path class="cls-2" d="M30,44.73a6.33,6.33,0,0,1,0-.76,5.4,5.4,0,0,1,5.4-5.4,5.17,5.17,0,0,1,1.19.13,3.41,3.41,0,0,0-.11.85,3.34,3.34,0,0,0,4.19,3.23A5.17,5.17,0,0,1,40.73,44,5.41,5.41,0,0,1,30,44.73Z"/></g></g></svg>