<svg xmlns="http://www.w3.org/2000/svg" viewBox="0 0 62.98 63.2"><defs><style>.cls-1{fill:none;stroke:#102f3a;stroke-linecap:round;stroke-linejoin:round;}.cls-2{fill:#ffd3ae;}</style></defs><g id="Layer_2" data-name="Layer 2"><g id="Layer_1-2" data-name="Layer 1"><line class="cls-1" x1="28.82" y1="0.5" x2="57.81" y2="0.5"/><line class="cls-1" x1="31.48" y1="7.73" x2="31.48" y2="27.01"/><line class="cls-1" x1="54.81" y1="0.5" x2="54.81" y2="27.01"/><line class="cls-1" x1="29.08" y1="27.01" x2="57.16" y2="27.01"/><line class="cls-1" x1="38.49" y1="7.47" x2="47.93" y2="7.47"/><line class="cls-1" x1="38.49" y1="13.76" x2="47.93" y2="13.76"/><line class="cls-1" x1="38.49" y1="20.05" x2="44.62" y2="20.05"/><circle class="cls-1" cx="48.19" cy="19.96" r="0.98"/><circle class="cls-1" cx="31.48" cy="3.68" r="0.98"/><circle class="cls-1" cx="10.49" cy="11.45" r="5.66"/><circle class="cls-1" cx="32.19" cy="37.93" r="4.95"/><circle class="cls-1" cx="55.97" cy="37.93" r="4.95"/><line class="cls-1" x1="4.48" y1="39.4" x2="4.48" y2="33.46"/><line class="cls-1" x1="16.56" y1="39.14" x2="16.56" y2="33.46"/><path class="cls-2" d="M16.56,39.14v23a.53.53,0,0,1-.53.53H5a.54.54,0,0,1-.54-.53V39.4a9.25,9.25,0,0,1-4-7.7V25.23S.26,20,5.64,20l4.85,8.69L15.59,20s4.66.81,4.66,4.5V32A8.53,8.53,0,0,1,16.56,39.14Z"/><line class="cls-1" x1="10.53" y1="40.25" x2="10.53" y2="62.69"/><path class="cls-1" d="M16.56,39.14v23a.53.53,0,0,1-.53.53H5a.54.54,0,0,1-.54-.53V39.4a9.25,9.25,0,0,1-4-7.7V25.23S.26,20,5.64,20l4.85,8.69L15.59,20s4.66.81,4.66,4.5V32A8.53,8.53,0,0,1,16.56,39.14Z"/><path class="cls-2" d="M29.51,46.91h5.54a3.74,3.74,0,0,1,3.74,3.74V62.36a0,0,0,0,1,0,0h-13a0,0,0,0,1,0,0V50.65a3.74,3.74,0,0,1,3.74-3.74Z"/><path class="cls-2" d="M53.2,46.91h5.54a3.74,3.74,0,0,1,3.74,3.74V62.36a0,0,0,0,1,0,0h-13a0,0,0,0,1,0,0V50.65a3.74,3.74,0,0,1,3.74-3.74Z"/><path class="cls-1" d="M29.51,46.91h5.54a3.74,3.74,0,0,1,3.74,3.74V62.36a0,0,0,0,1,0,0h-13a0,0,0,0,1,0,0V50.65a3.74,3.74,0,0,1,3.74-3.74Z"/><path class="cls-1" d="M53.2,46.91h5.54a3.74,3.74,0,0,1,3.74,3.74V62.36a0,0,0,0,1,0,0h-13a0,0,0,0,1,0,0V50.65a3.74,3.74,0,0,1,3.74-3.74Z"/></g></g></svg>