<svg xmlns="http://www.w3.org/2000/svg" viewBox="0 0 63.19 43.94"><defs><style>.cls-1{fill:#ffd3ae;}.cls-2{fill:none;stroke:#102f3a;stroke-linecap:round;stroke-linejoin:round;}</style></defs><g id="Layer_2" data-name="Layer 2"><g id="Layer_1-2" data-name="Layer 1"><circle class="cls-1" cx="6.06" cy="11.34" r="5.56"/><circle class="cls-2" cx="6.06" cy="11.34" r="5.56"/><rect class="cls-2" x="0.5" y="16.9" width="11.13" height="7.15"/><rect class="cls-2" x="17.21" y="16.9" width="45.48" height="7.15"/><polyline class="cls-2" points="10.94 32.12 10.94 43.44 4.96 43.44 4.96 24.05 10.94 24.05 10.94 25.36"/><rect class="cls-2" x="52.62" y="24.06" width="5.98" height="19.38"/><path class="cls-1" d="M62.69,16.32v.58H17.21v7.62l-.1.24-2.64,6a2.7,2.7,0,0,1-3.53,1.39h0a2.71,2.71,0,0,1-1.38-3.56l1.41-3.2.68-1.54v-12a3.69,3.69,0,0,1,3.69-3.69H38.43a9.65,9.65,0,0,1,4.78,1.26l3.2,1.79H57.53A5.16,5.16,0,0,1,62.69,16.32Z"/><path class="cls-2" d="M62.69,16.32v.58H17.21v7.62l-.1.24-2.64,6a2.7,2.7,0,0,1-3.53,1.39h0a2.71,2.71,0,0,1-1.38-3.56l1.41-3.2.68-1.54v-12a3.69,3.69,0,0,1,3.69-3.69H38.43a9.65,9.65,0,0,1,4.78,1.26l3.2,1.79H57.53A5.16,5.16,0,0,1,62.69,16.32Z"/><path class="cls-1" d="M18.49.5h.63A1.28,1.28,0,0,1,20.4,1.78V4.91a0,0,0,0,1,0,0H17.21a0,0,0,0,1,0,0V1.78A1.28,1.28,0,0,1,18.49.5Z"/><path class="cls-1" d="M26.82.5h.63a1.28,1.28,0,0,1,1.28,1.28V4.91a0,0,0,0,1,0,0H25.54a0,0,0,0,1,0,0V1.78A1.28,1.28,0,0,1,26.82.5Z"/><path class="cls-1" d="M35.15.5h.63a1.28,1.28,0,0,1,1.28,1.28V4.91a0,0,0,0,1,0,0H33.88a0,0,0,0,1,0,0V1.78A1.28,1.28,0,0,1,35.15.5Z"/><path class="cls-2" d="M18.49.5h.63A1.28,1.28,0,0,1,20.4,1.78V4.91a0,0,0,0,1,0,0H17.21a0,0,0,0,1,0,0V1.78A1.28,1.28,0,0,1,18.49.5Z"/><line class="cls-2" x1="18.81" y1="4.91" x2="18.81" y2="8.11"/><path class="cls-2" d="M26.82.5h.63a1.28,1.28,0,0,1,1.28,1.28V4.91a0,0,0,0,1,0,0H25.54a0,0,0,0,1,0,0V1.78A1.28,1.28,0,0,1,26.82.5Z"/><line class="cls-2" x1="27.14" y1="4.91" x2="27.14" y2="8.11"/><path class="cls-2" d="M35.15.5h.63a1.28,1.28,0,0,1,1.28,1.28V4.91a0,0,0,0,1,0,0H33.88a0,0,0,0,1,0,0V1.78A1.28,1.28,0,0,1,35.15.5Z"/><line class="cls-2" x1="35.47" y1="4.91" x2="35.47" y2="8.11"/></g></g></svg>