<svg xmlns="http://www.w3.org/2000/svg" viewBox="0 0 54.12 61.99"><defs><style>.cls-1{fill:none;stroke:#102f3a;stroke-linecap:round;stroke-linejoin:round;}.cls-2{fill:#ffd3ae;}.cls-3{fill:#fff;}</style></defs><g id="Layer_2" data-name="Layer 2"><g id="Layer_1-2" data-name="Layer 1"><path class="cls-1" d="M26.94,45.21V61.36l-6.69.13V45.21a1.34,1.34,0,0,1,1.34-1.34h4A1.34,1.34,0,0,1,26.94,45.21Z"/><path class="cls-2" d="M33.53,13.46V61.37H27V45.21a1.34,1.34,0,0,0-1.34-1.34h-4a1.34,1.34,0,0,0-1.34,1.34v16L.5,61.26V13.46a2.83,2.83,0,0,1,2.84-2.84H14.62v5.32H19.4V10.62H30.7A2.83,2.83,0,0,1,33.53,13.46Z"/><path class="cls-1" d="M19.4,10.62H30.7a2.83,2.83,0,0,1,2.83,2.84V61.37H27V45.21a1.34,1.34,0,0,0-1.34-1.34h-4a1.34,1.34,0,0,0-1.34,1.34V61.49L.5,61.26V13.46a2.83,2.83,0,0,1,2.84-2.84H14.62"/><path class="cls-2" d="M53.62,22.11V61.42l-20.09-.06V18.93H50.44A3.18,3.18,0,0,1,53.62,22.11Z"/><path class="cls-1" d="M53.62,22.11V61.42H33.53V18.93H50.44A3.18,3.18,0,0,1,53.62,22.11Z"/><rect class="cls-3" x="6.96" y="17.34" width="6.7" height="6.7" rx="1.24"/><rect class="cls-3" x="20.25" y="17.34" width="6.7" height="6.7" rx="1.24"/><rect class="cls-3" x="6.96" y="30.6" width="6.7" height="6.7" rx="1.24"/><rect class="cls-3" x="20.25" y="30.6" width="6.7" height="6.7" rx="1.24"/><rect class="cls-3" x="6.96" y="43.87" width="6.7" height="6.7" rx="1.24"/><rect class="cls-1" x="6.96" y="17.34" width="6.7" height="6.7" rx="1.24"/><rect class="cls-1" x="20.25" y="17.34" width="6.7" height="6.7" rx="1.24"/><rect class="cls-3" x="40.23" y="25.45" width="6.7" height="6.7" rx="1.24"/><rect class="cls-3" x="40.23" y="38.51" width="6.7" height="6.7" rx="1.24"/><rect class="cls-1" x="40.23" y="25.45" width="6.7" height="6.7" rx="1.24"/><rect class="cls-1" x="40.23" y="38.51" width="6.7" height="6.7" rx="1.24"/><rect class="cls-1" x="6.96" y="30.6" width="6.7" height="6.7" rx="1.24"/><rect class="cls-1" x="20.25" y="30.6" width="6.7" height="6.7" rx="1.24"/><rect class="cls-1" x="6.96" y="43.87" width="6.7" height="6.7" rx="1.24"/><polygon class="cls-1" points="24.73 5.83 19.4 5.83 19.4 0.5 14.63 0.5 14.63 5.83 9.3 5.83 9.3 10.61 14.63 10.61 14.63 15.94 19.4 15.94 19.4 10.61 24.73 10.61 24.73 5.83"/></g></g></svg>