<svg xmlns="http://www.w3.org/2000/svg" viewBox="0 0 65.83 62.64"><defs><style>.cls-1{fill:#ffd3ae;}.cls-2{fill:none;stroke:#102f3a;stroke-linecap:round;stroke-linejoin:round;}.cls-3{fill:#fff;}</style></defs><g id="Layer_2" data-name="Layer 2"><g id="Layer_1-2" data-name="Layer 1"><path class="cls-1" d="M39.86,14.28v3.2H8v-3.2A13.78,13.78,0,0,1,21.72.5h4.37A13.78,13.78,0,0,1,39.86,14.28Z"/><path class="cls-2" d="M39.86,14.28v3.2H8v-3.2A13.78,13.78,0,0,1,21.72.5h4.37A13.78,13.78,0,0,1,39.86,14.28Z"/><rect class="cls-2" x="7.95" y="17.48" width="31.91" height="8.59"/><line class="cls-2" x1="41" y1="26.07" x2="39.82" y2="26.07"/><line class="cls-2" x1="7.99" y1="26.07" x2="6.77" y2="26.07"/><path class="cls-2" d="M14.25,37.71h0v0S14.24,37.71,14.25,37.71Z"/><path class="cls-1" d="M33.55,26.07V37.71H14.25s0,0,0,0V26.07Z"/><line class="cls-2" x1="18.69" y1="30.23" x2="29.08" y2="30.23"/><line class="cls-2" x1="18.69" y1="33.45" x2="29.08" y2="33.45"/><path class="cls-2" d="M33.55,26.07V37.71H14.25s0,0,0,0V26.07Z"/><path class="cls-2" d="M8,26.07h6.23V37.69A15.87,15.87,0,0,1,8,26.07Z"/><path class="cls-2" d="M39.82,26.07A15.93,15.93,0,0,1,35.19,36.3a14.59,14.59,0,0,1-1.63,1.41,15,15,0,0,1-2.28,1.46,16,16,0,0,1-15-.12h0a14.74,14.74,0,0,1-2.05-1.34h19.3V26.07Z"/><polyline class="cls-2" points="34.95 37.71 33.56 37.71 33.55 37.71"/><polyline class="cls-2" points="14.25 37.71 14.22 37.71 12.82 37.71"/><path class="cls-2" d="M31.28,39.17v6.24L23.9,52.47l-7.6-7.06V39.05h0a16,16,0,0,0,15,.12Z"/><path class="cls-2" d="M16.3,45.2H9.09A8.58,8.58,0,0,0,.5,53.78v8.36"/><line class="cls-2" x1="27.95" y1="8.61" x2="19.86" y2="8.61"/><line class="cls-2" x1="23.9" y1="4.57" x2="23.9" y2="12.65"/><line class="cls-2" x1="31.28" y1="45.41" x2="40.17" y2="45.41"/><circle class="cls-1" cx="52.58" cy="49.38" r="12.76"/><circle class="cls-2" cx="52.58" cy="49.38" r="12.76"/><path class="cls-3" d="M56.73,56.59c-1.88.82-2.67-.05-4.19,0s-2.3.82-4.18,0a3,3,0,0,1-1-4.56A10.75,10.75,0,0,0,50,48.36a2.82,2.82,0,0,1,5.11,0A10.63,10.63,0,0,0,57.69,52,3,3,0,0,1,56.73,56.59Z"/><path class="cls-2" d="M56.73,56.59c-1.88.82-2.67-.05-4.19,0s-2.3.82-4.18,0a3,3,0,0,1-1-4.56A10.75,10.75,0,0,0,50,48.36a2.82,2.82,0,0,1,5.11,0A10.63,10.63,0,0,0,57.69,52,3,3,0,0,1,56.73,56.59Z"/><ellipse class="cls-3" cx="49.9" cy="43.9" rx="1.39" ry="2.09" transform="translate(-5.15 6.65) rotate(-7.26)"/><ellipse class="cls-3" cx="46.01" cy="48.44" rx="1.55" ry="2.09" transform="translate(-18.06 29.49) rotate(-30)"/><ellipse class="cls-3" cx="55.26" cy="43.9" rx="2.09" ry="1.39" transform="translate(4.2 92.63) rotate(-82.12)"/><ellipse class="cls-3" cx="59.14" cy="48.42" rx="2.09" ry="1.58" transform="translate(-11.4 77.85) rotate(-61.95)"/><ellipse class="cls-2" cx="49.9" cy="43.9" rx="1.39" ry="2.09" transform="translate(-5.15 6.65) rotate(-7.26)"/><ellipse class="cls-2" cx="46.01" cy="48.44" rx="1.55" ry="2.09" transform="translate(-18.06 29.49) rotate(-30)"/><ellipse class="cls-2" cx="55.26" cy="43.9" rx="2.09" ry="1.39" transform="translate(4.2 92.63) rotate(-82.12)"/><ellipse class="cls-2" cx="59.14" cy="48.42" rx="2.09" ry="1.58" transform="translate(-11.4 77.85) rotate(-61.95)"/></g></g></svg>