<svg xmlns="http://www.w3.org/2000/svg" viewBox="0 0 63.78 63.19"><defs><style>.cls-1{fill:none;stroke:#102f3a;stroke-linecap:round;stroke-linejoin:round;}.cls-2{fill:#ffd3ae;}</style></defs><g id="Layer_2" data-name="Layer 2"><g id="Layer_1-2" data-name="Layer 1"><polyline class="cls-1" points="13.49 37.85 13.49 20.53 21.46 20.53"/><polyline class="cls-1" points="33.1 20.53 50.31 20.53 50.31 45.68"/><path class="cls-2" d="M52.78,20.53H33.1v-.37a5.44,5.44,0,0,1-5.44-5.45h-.75a5.45,5.45,0,0,1-5.45,5.45v.37H10.59a.78.78,0,0,1-.51-1.37L31.68.5,42.49,9.83,50,16.29l3.33,2.87A.78.78,0,0,1,52.78,20.53Z"/><path class="cls-1" d="M52.78,20.53H33.1v-.37a5.44,5.44,0,0,1-5.44-5.45h-.75a5.45,5.45,0,0,1-5.45,5.45v.37H10.59a.78.78,0,0,1-.51-1.37L31.68.5,42.49,9.83,50,16.29l3.33,2.87A.78.78,0,0,1,52.78,20.53Z"/><path class="cls-1" d="M33.1,20.16v.75a5.43,5.43,0,0,0-5.44,5.44h-.75a5.44,5.44,0,0,0-5.45-5.44v-.75a5.45,5.45,0,0,0,5.45-5.45h.75A5.44,5.44,0,0,0,33.1,20.16Z"/><path class="cls-2" d="M10.21,37.64v23a2.21,2.21,0,0,1-.15.78h0a2,2,0,0,1-1.86,1.24H2.52a2,2,0,0,1-2-2v-23a2,2,0,0,1,2-2H8.19A2,2,0,0,1,10.21,37.64Z"/><path class="cls-1" d="M10.21,37.64v23a2.21,2.21,0,0,1-.15.78h0a2,2,0,0,1-1.86,1.24H2.52a2,2,0,0,1-2-2v-23a2,2,0,0,1,2-2H8.19A2,2,0,0,1,10.21,37.64Z"/><path class="cls-1" d="M22,51.89l3.54-2.36h8.66a1.76,1.76,0,0,0,.33,0"/><path class="cls-1" d="M63.28,45.35a2.88,2.88,0,0,1-1.41,2.48L39.14,61.45H10.06a2.21,2.21,0,0,0,.15-.78V37.85h4.24a7.94,7.94,0,0,1,4.41,1.34l3,2a3.24,3.24,0,0,0,1.12.46,3.05,3.05,0,0,0,.6.06H31a5.12,5.12,0,0,1,5.12,5.12v.78a1.93,1.93,0,0,1-1.6,1.9h4.33L40.25,49l19.23-6.42a2.88,2.88,0,0,1,3.58,1.64A2.83,2.83,0,0,1,63.28,45.35Z"/><line class="cls-1" x1="10.06" y1="61.45" x2="10.05" y2="61.45"/><line class="cls-1" x1="34.55" y1="49.5" x2="34.54" y2="49.5"/><path class="cls-2" d="M40.25,39V49l-1.37.46H34.55a1.93,1.93,0,0,0,1.6-1.9v-.78A5.12,5.12,0,0,0,31,41.7H23.57a3.05,3.05,0,0,1-.6-.06V39a8.64,8.64,0,1,1,17.28,0Z"/><path class="cls-1" d="M40.25,39V49l-1.37.46H34.55a1.93,1.93,0,0,0,1.6-1.9v-.78A5.12,5.12,0,0,0,31,41.7H23.57a3.05,3.05,0,0,1-.6-.06V39a8.64,8.64,0,1,1,17.28,0Z"/><line class="cls-1" x1="12.31" y1="1.46" x2="12.31" y2="3.52"/><line class="cls-1" x1="12.31" y1="7.98" x2="12.31" y2="10.03"/><line class="cls-1" x1="16.59" y1="5.75" x2="14.54" y2="5.75"/><line class="cls-1" x1="10.08" y1="5.75" x2="8.02" y2="5.75"/><line class="cls-1" x1="60.39" y1="28.24" x2="58.93" y2="29.69"/><line class="cls-1" x1="55.78" y1="32.85" x2="54.33" y2="34.3"/><line class="cls-1" x1="60.39" y1="34.3" x2="58.93" y2="32.85"/><line class="cls-1" x1="55.78" y1="29.69" x2="54.33" y2="28.24"/><path class="cls-2" d="M50,3.61V16.29L42.49,9.83V3.61a1.13,1.13,0,0,1,1.13-1.14h5.21A1.13,1.13,0,0,1,50,3.61Z"/><path class="cls-1" d="M50,3.61V16.29L42.49,9.83V3.61a1.13,1.13,0,0,1,1.13-1.14h5.21A1.13,1.13,0,0,1,50,3.61Z"/></g></g></svg>