<svg xmlns="http://www.w3.org/2000/svg" viewBox="0 0 61.23 63.19"><defs><style>.cls-1{fill:none;stroke:#102f3a;stroke-linecap:round;stroke-linejoin:round;}.cls-2{fill:#ffd3ae;}</style></defs><g id="Layer_2" data-name="Layer 2"><g id="Layer_1-2" data-name="Layer 1"><path class="cls-1" d="M22.87,17.15S28.91.5,44.38.5,66,17.68,55.52,28.82s-11.27,14.42-11,23.6-6.43,11.14-12.85,10a6.34,6.34,0,0,1-4.59-5.24"/><path class="cls-2" d="M39.08,38a27.85,27.85,0,0,0-1.39,4.85c-1.58,8.14-7.21,7-7.21,3s0-4.73-1.06-6.17-4.13-4.22,0-8.11c3.74-3.48,4.83-3.2,6.73-.86a9.82,9.82,0,0,1,1.22,1.95A18.93,18.93,0,0,1,39.08,38Z"/><path class="cls-1" d="M39.08,38a27.85,27.85,0,0,0-1.39,4.85c-1.58,8.14-7.21,7-7.21,3s0-4.73-1.06-6.17-4.13-4.22,0-8.11c3.74-3.48,4.83-3.2,6.73-.86a9.82,9.82,0,0,1,1.22,1.95A18.93,18.93,0,0,1,39.08,38Z"/><path class="cls-1" d="M30.48,17.29S35.19,8.11,44,8.11s10.48,9.44,8.25,12.71A61.63,61.63,0,0,1,46,28.55c-2.32,2.62-5,4.85-6.87,9.44"/><path class="cls-1" d="M21.71,41.23a8.53,8.53,0,0,1,.9-14.31"/><path class="cls-1" d="M14,45.31a15.39,15.39,0,0,1,2.21-23.7"/><path class="cls-1" d="M7.63,50.49a21.79,21.79,0,0,1,2.8-34.4"/></g></g></svg>