<svg xmlns="http://www.w3.org/2000/svg" viewBox="0 0 62.79 63.19"><defs><style>.cls-1,.cls-3{fill:none;stroke:#102f3a;stroke-linecap:round;stroke-linejoin:round;}.cls-2{fill:#ffd3ae;}.cls-3{stroke-dasharray:6;}.cls-4{fill:#102f3a;}</style></defs><g id="Layer_2" data-name="Layer 2"><g id="Layer_1-2" data-name="Layer 1"><path class="cls-1" d="M49.13,13.28a22.94,22.94,0,0,1-1,7.77"/><path class="cls-1" d="M14.51,21.33a34.67,34.67,0,0,1-.85-8"/><path class="cls-2" d="M46.15,27c-3.15,8.49-2.62,16.29.09,21.81s2.89,13.84,2.89,13.84H14a24.59,24.59,0,0,1,.19-6.08,11.56,11.56,0,0,0,3.44.45h9a2,2,0,0,0,2-2V49a2,2,0,0,0-2-2H23.75s-.65-5.18-5.16-5.18l.06-.27c.88-4.56.18-8.06-2.54-14.89a33.2,33.2,0,0,1-1.6-5.27L7.72,39.39.5,37.48S4.64,21.45,6.61,14s6.26-8.1,13.05-8.1,7-5.43,7-5.43h9.54s.18,5.43,7,5.43,11.08.68,13,8.1,6.11,23.45,6.11,23.45l-7.23,1.91L48.17,21.05C47.72,22.61,47.08,24.53,46.15,27Z"/><path class="cls-1" d="M46.15,27c-3.15,8.49-2.62,16.29.09,21.81s2.89,13.84,2.89,13.84H14a24.59,24.59,0,0,1,.19-6.08,11.56,11.56,0,0,0,3.44.45h9a2,2,0,0,0,2-2V49a2,2,0,0,0-2-2H23.75s-.65-5.18-5.16-5.18l.06-.27c.88-4.56.18-8.06-2.54-14.89a33.2,33.2,0,0,1-1.6-5.27L7.72,39.39.5,37.48S4.64,21.45,6.61,14s6.26-8.1,13.05-8.1,7-5.43,7-5.43h9.54s.18,5.43,7,5.43,11.08.68,13,8.1,6.11,23.45,6.11,23.45l-7.23,1.91L48.17,21.05C47.72,22.61,47.08,24.53,46.15,27Z"/><path class="cls-3" d="M31.39.5s-4.51,11.65-2,23.47,7.18,16.91,2,38.72"/><line class="cls-1" x1="41.42" y1="16.63" x2="35.45" y2="16.63"/><polygon class="cls-4" points="38.76 12.54 39.44 13.27 35.83 16.63 39.44 19.98 38.76 20.72 34.36 16.63 38.76 12.54"/><path class="cls-2" d="M28.65,49v6.1a2,2,0,0,1-2,2h-9c-5.52,0-6.3-2.63-6.3-2.63H.5V44.51H11s2-2.75,7.58-2.75c4.51,0,5.16,5.19,5.16,5.19h2.89A2,2,0,0,1,28.65,49Z"/><path class="cls-1" d="M28.65,49v6.1a2,2,0,0,1-2,2h-9a11.56,11.56,0,0,1-3.44-.45c-2.44-.75-2.86-2.18-2.86-2.18H.5V44.51H11s2-2.75,7.58-2.75c4.51,0,5.16,5.18,5.16,5.18h2.89A2,2,0,0,1,28.65,49Z"/><line class="cls-1" x1="23.75" y1="46.95" x2="18.3" y2="46.95"/></g></g></svg>