<svg xmlns="http://www.w3.org/2000/svg" viewBox="0 0 63.22 52.35"><defs><style>.cls-1{fill:#ffd3ae;}.cls-2{fill:none;}.cls-2,.cls-3{stroke:#102f3a;stroke-linecap:round;stroke-linejoin:round;}.cls-3,.cls-4{fill:#fff;}</style></defs><g id="Layer_2" data-name="Layer 2"><g id="Layer_1-2" data-name="Layer 1"><path class="cls-1" d="M42.42,8.78V51.85H20.79V8.78a1.37,1.37,0,0,1,1.37-1.37H24.7v1.4a.74.74,0,0,0,.74.74h4v4a.74.74,0,0,0,.74.74H33a.74.74,0,0,0,.74-.74v-4h4a.74.74,0,0,0,.74-.74V7.41h2.55A1.36,1.36,0,0,1,42.42,8.78Z"/><path class="cls-2" d="M42.42,8.78V51.85H20.79V8.78a1.37,1.37,0,0,1,1.37-1.37H24.7v1.4a.74.74,0,0,0,.74.74h4v4a.74.74,0,0,0,.74.74H33a.74.74,0,0,0,.74-.74v-4h4a.74.74,0,0,0,.74-.74V7.41h2.55A1.36,1.36,0,0,1,42.42,8.78Z"/><path class="cls-2" d="M3,14.48H20.8a0,0,0,0,1,0,0v5.75a0,0,0,0,1,0,0H3A2.49,2.49,0,0,1,.5,17.74V17A2.49,2.49,0,0,1,3,14.48Z"/><path class="cls-2" d="M44.91,14.48H62.72a0,0,0,0,1,0,0v5.75a0,0,0,0,1,0,0H44.91a2.49,2.49,0,0,1-2.49-2.49V17A2.49,2.49,0,0,1,44.91,14.48Z" transform="translate(105.14 34.72) rotate(-180)"/><rect class="cls-1" x="4.86" y="20.23" width="15.94" height="31.61"/><rect class="cls-2" x="4.86" y="20.23" width="15.94" height="31.61"/><path class="cls-3" d="M13.91,26.12h6.88a0,0,0,0,1,0,0V37.8a0,0,0,0,1,0,0H13.91a4.7,4.7,0,0,1-4.7-4.7V30.81A4.7,4.7,0,0,1,13.91,26.12Z"/><path class="cls-4" d="M26.48,35.7H41.35a0,0,0,0,1,0,0V48.43a0,0,0,0,1,0,0H26.48a4.7,4.7,0,0,1-4.7-4.7V40.4A4.7,4.7,0,0,1,26.48,35.7Z" transform="translate(73.64 10.5) rotate(90)"/><path class="cls-2" d="M26.48,35.7H41.35a0,0,0,0,1,0,0V48.43a0,0,0,0,1,0,0H26.48a4.7,4.7,0,0,1-4.7-4.7V40.4A4.7,4.7,0,0,1,26.48,35.7Z" transform="translate(73.64 10.5) rotate(90)"/><path class="cls-2" d="M38.51,6V8.81a.74.74,0,0,1-.74.74h-4v4a.74.74,0,0,1-.74.74H30.21a.74.74,0,0,1-.74-.74v-4h-4a.74.74,0,0,1-.74-.74V6a.74.74,0,0,1,.74-.74h4v-4A.75.75,0,0,1,30.21.5H33a.75.75,0,0,1,.74.75v4h4A.74.74,0,0,1,38.51,6Z"/><rect class="cls-1" x="42.42" y="20.23" width="15.94" height="31.61"/><path class="cls-3" d="M47.12,26.12h7a0,0,0,0,1,0,0V37.8a0,0,0,0,1,0,0h-7a4.7,4.7,0,0,1-4.7-4.7V30.81a4.7,4.7,0,0,1,4.7-4.7Z" transform="translate(96.52 63.91) rotate(-180)"/><rect class="cls-2" x="42.42" y="20.23" width="15.94" height="31.61"/><line class="cls-2" x1="0.76" y1="51.85" x2="62.01" y2="51.85"/></g></g></svg>