<svg xmlns="http://www.w3.org/2000/svg" viewBox="0 0 63.25 47.64"><defs><style>.cls-1{fill:none;stroke:#102f3a;stroke-linecap:round;stroke-linejoin:round;}.cls-2{fill:#ffd3ae;}.cls-3{fill:#fff;}</style></defs><g id="Layer_2" data-name="Layer 2"><g id="Layer_1-2" data-name="Layer 1"><path class="cls-1" d="M49.55,15.87c0,.13,0,.27,0,.41a13.94,13.94,0,0,0-2-.14A15.27,15.27,0,0,0,37.28,42.75l-.46.7s-1.32,3.69-4,3.69S29.44,45.73,28,38.53c-.74-3.8-1.51-6.92-2.07-9a.82.82,0,0,0-1.59,0L20.65,43.71s-1,3.43-3.16,3.43-3.16-.88-5.62-6.06S1.78,22.77,1.07,19.47c-1.5-6.89.44-11.15.44-11.15A12.12,12.12,0,0,1,13.19.5c5.79,0,8,4.39,11.86,4.39S29.79.5,37.17.5,49.55,7.09,49.55,15.87Z"/><path class="cls-1" d="M22.64,4.33s3.24,5.9,9.17,2.47"/><path class="cls-2" d="M62.75,31.4A15.26,15.26,0,1,1,47.49,16.14a13.94,13.94,0,0,1,2,.14A15.26,15.26,0,0,1,62.75,31.4Z"/><path class="cls-1" d="M62.75,31.4A15.26,15.26,0,1,1,47.49,16.14a13.94,13.94,0,0,1,2,.14A15.26,15.26,0,0,1,62.75,31.4Z"/><path class="cls-3" d="M54,28.54H51.13a.78.78,0,0,1-.78-.78v-2.9a1,1,0,0,0-1-1H45.37a1,1,0,0,0-1,1v2.9a.77.77,0,0,1-.77.78h-2.9a1,1,0,0,0-1,1v3.94a1,1,0,0,0,1,1h2.9a.77.77,0,0,1,.77.78v2.9a1,1,0,0,0,1,1h3.94a1,1,0,0,0,1-1v-2.9a.78.78,0,0,1,.78-.78H54a1,1,0,0,0,1-1V29.58A1,1,0,0,0,54,28.54Z"/><path class="cls-1" d="M54,28.54H51.13a.78.78,0,0,1-.78-.78v-2.9a1,1,0,0,0-1-1H45.37a1,1,0,0,0-1,1v2.9a.77.77,0,0,1-.77.78h-2.9a1,1,0,0,0-1,1v3.94a1,1,0,0,0,1,1h2.9a.77.77,0,0,1,.77.78v2.9a1,1,0,0,0,1,1h3.94a1,1,0,0,0,1-1v-2.9a.78.78,0,0,1,.78-.78H54a1,1,0,0,0,1-1V29.58A1,1,0,0,0,54,28.54Z"/></g></g></svg>