<svg xmlns="http://www.w3.org/2000/svg" viewBox="0 0 70.4 62.87"><defs><style>.cls-1{fill:none;stroke:#102f3a;stroke-linecap:round;stroke-linejoin:round;}.cls-2{fill:#ffd3ae;}.cls-3{fill:#fff;}</style></defs><g id="Layer_2" data-name="Layer 2"><g id="Layer_1-2" data-name="Layer 1"><line class="cls-1" x1="34.34" y1="16.33" x2="34.27" y2="16.33"/><path class="cls-1" d="M37.75,3.92V15.2a18.28,18.28,0,0,0-3.45,1.12,18.16,18.16,0,0,0-3.37-1.11V3.92a3.41,3.41,0,1,1,6.82,0Z"/><path class="cls-2" d="M58.24,47a27.45,27.45,0,0,1-1.9,4.31c-5.24,9.55-9.85,10.95-22,11-12.19-.08-16.8-1.48-22-11A28.3,28.3,0,0,1,9,35.09a91.06,91.06,0,0,0,16,7.24C38.2,46.94,53.14,47.13,58.24,47Z"/><path class="cls-2" d="M45.52,29.25a12,12,0,0,0,1.24,5.35A90.16,90.16,0,0,1,12.32,23.73c5.23-10,13.85-9.64,18.61-8.52a18.16,18.16,0,0,1,3.37,1.11,18.28,18.28,0,0,1,3.45-1.12,20.24,20.24,0,0,1,4.48-.53,15.69,15.69,0,0,1,5.1.82,14.13,14.13,0,0,1,4.89,2.88A12.18,12.18,0,0,0,45.52,29.25Z"/><path class="cls-1" d="M58.24,47a27.45,27.45,0,0,1-1.9,4.31c-5.24,9.55-9.85,10.95-22,11-12.19-.08-16.8-1.48-22-11A28.3,28.3,0,0,1,9,35.09a91.06,91.06,0,0,0,16,7.24C38.2,46.94,53.14,47.13,58.24,47Z"/><line class="cls-1" x1="59.54" y1="41.3" x2="59.54" y2="41.3"/><path class="cls-1" d="M45.52,29.25a12,12,0,0,0,1.24,5.35A90.16,90.16,0,0,1,12.32,23.73c5.23-10,13.85-9.64,18.61-8.52a18.16,18.16,0,0,1,3.37,1.11,18.28,18.28,0,0,1,3.45-1.12,20.24,20.24,0,0,1,4.48-.53,15.69,15.69,0,0,1,5.1.82,14.13,14.13,0,0,1,4.89,2.88A12.18,12.18,0,0,0,45.52,29.25Z"/><path class="cls-1" d="M34.34,16.33h0"/><path class="cls-1" d="M34.31,16.32h0"/><path class="cls-2" d="M54.31,5s-2.69,5.48-3.7,7-1.91,3.13-3.28,3.55a15.69,15.69,0,0,0-5.1-.82,20.24,20.24,0,0,0-4.48.53V6a12.13,12.13,0,0,1,8.43-1.89Z"/><path class="cls-1" d="M54.31,5s-2.69,5.48-3.7,7-1.91,3.13-3.28,3.55a15.69,15.69,0,0,0-5.1-.82,20.24,20.24,0,0,0-4.48.53V6a12.13,12.13,0,0,1,8.43-1.89Z"/><circle class="cls-3" cx="57.71" cy="29.25" r="12.19"/><path class="cls-1" d="M69.9,29.25a12.18,12.18,0,0,1-8.1,11.48,12,12,0,0,1-4.09.71,12.18,12.18,0,0,1-11-6.84,12,12,0,0,1-1.24-5.35,12.18,12.18,0,0,1,6.7-10.88,12,12,0,0,1,5.49-1.31A12.19,12.19,0,0,1,69.9,29.25Z"/><polyline class="cls-1" points="52.21 30.93 55.31 33.49 62.52 25.34"/><path class="cls-1" d="M46.76,34.6A90.23,90.23,0,0,1,12.32,23.73c-1.11-.63-1.7-1-1.7-1a34.53,34.53,0,0,0-3,11.51s.47.32,1.38.86a90.85,90.85,0,0,0,16,7.24C38.2,46.94,53.14,47.13,58.24,47h0c1.16,0,1.81-.05,1.81-.05a29.9,29.9,0,0,0,1.76-6.25h0"/><path class="cls-1" d="M9,35.09c-.91-.54-1.38-.86-1.38-.86a34.81,34.81,0,0,1,3-11.51s.6.38,1.71,1"/><path class="cls-1" d="M58.24,47c1.16,0,1.81-.05,1.81-.05a29.39,29.39,0,0,0,1.75-6.25"/><line class="cls-1" x1="21.89" y1="28.33" x2="20.79" y2="31.73"/><line class="cls-1" x1="35.76" y1="32.79" x2="35.07" y2="36.38"/><polyline class="cls-1" points="7.62 34.23 0.5 37.59 2.75 47.34 9.58 44.26"/><polyline class="cls-1" points="61.31 43 68.04 46.5 65.52 56.21 55.94 52.07"/></g></g></svg>