<svg xmlns="http://www.w3.org/2000/svg" viewBox="0 0 102.21 64.4"><defs><style>.cls-1{fill:none;stroke:#102f3a;stroke-linecap:round;stroke-linejoin:round;stroke-width:1.5px;}.cls-2{fill:#ffd3ae;}</style></defs><g id="Layer_2" data-name="Layer 2"><g id="Layer_1-2" data-name="Layer 1"><line class="cls-1" x1="15.62" y1="18.3" x2="0.75" y2="18.3"/><path class="cls-2" d="M91.78,32l-.17.17H82.78l-3.71-7-4.67,6L69.14,15,59.68,44.8,50.1,20.14,42.56,33.67H30.17L28.53,32A18.33,18.33,0,0,1,54.45,6.11l5.71,5.72,5.71-5.72A18.32,18.32,0,0,1,91.78,32Z"/><path class="cls-1" d="M91.78,32l-.17.17H82.78l-3.71-7-4.67,6L69.14,15,59.68,44.8,50.1,20.14,42.56,33.67H30.17L28.53,32A18.33,18.33,0,0,1,54.45,6.11l5.71,5.72,5.71-5.72A18.32,18.32,0,0,1,91.78,32Z"/><polygon class="cls-1" points="91.61 32.2 60.16 63.65 34.25 37.74 30.17 33.67 42.56 33.67 50.1 20.14 59.68 44.8 69.14 14.99 74.4 31.28 79.07 25.24 82.78 32.2 91.61 32.2"/><line class="cls-1" x1="101.46" y1="32.2" x2="91.61" y2="32.2"/><line class="cls-1" x1="30.17" y1="33.67" x2="17.42" y2="33.67"/><line class="cls-1" x1="90.4" y1="42.74" x2="90.4" y2="53.7"/><line class="cls-1" x1="95.88" y1="48.22" x2="84.92" y2="48.22"/><line class="cls-1" x1="8.18" y1="10.87" x2="8.18" y2="25.74"/></g></g></svg>