<svg xmlns="http://www.w3.org/2000/svg" viewBox="0 0 45.11 63.56"><defs><style>.cls-1{fill:none;}.cls-1,.cls-2{stroke:#102f3a;stroke-linecap:round;stroke-linejoin:round;}.cls-2{fill:#ffd3ae;}</style></defs><g id="Layer_2" data-name="Layer 2"><g id="Layer_1-2" data-name="Layer 1"><line class="cls-1" x1="15.58" y1="19.69" x2="15.58" y2="5.76"/><line class="cls-1" x1="29.51" y1="19.69" x2="29.51" y2="5.76"/><path class="cls-2" d="M39.65,63.06H5.45a5,5,0,0,1-4.59-6.8l9.91-24.61H34.33l9.91,24.61A5,5,0,0,1,39.65,63.06Z"/><path class="cls-1" d="M39.65,63.06H5.45a5,5,0,0,1-4.59-6.8l9.91-24.61H34.33l9.91,24.61A5,5,0,0,1,39.65,63.06Z"/><line class="cls-1" x1="15.58" y1="19.69" x2="10.77" y2="31.65"/><line class="cls-1" x1="34.33" y1="31.65" x2="29.51" y2="19.69"/><polyline class="cls-1" points="15.58 5.76 13.81 2.67 13.81 0.5 31.29 0.5 31.29 2.67 29.51 5.76"/><line class="cls-1" x1="8.32" y1="37.75" x2="11.47" y2="37.75"/><line class="cls-1" x1="5.85" y1="43.84" x2="9" y2="43.84"/><line class="cls-1" x1="3.44" y1="49.94" x2="6.59" y2="49.94"/><line class="cls-1" x1="0.87" y1="56.03" x2="4.03" y2="56.03"/><line class="cls-1" x1="31.68" y1="40.52" x2="36.06" y2="51.13"/><circle class="cls-1" cx="37.98" cy="56" r="1.16"/></g></g></svg>