<svg xmlns="http://www.w3.org/2000/svg" viewBox="0 0 49.51 63.32"><defs><style>.cls-1{fill:none;stroke:#102f3a;stroke-linecap:round;stroke-linejoin:round;}.cls-2{fill:#ffd3ae;}</style></defs><g id="Layer_2" data-name="Layer 2"><g id="Layer_1-2" data-name="Layer 1"><path class="cls-1" d="M18.4,43.93A16.28,16.28,0,0,0,31.15,44"/><path class="cls-1" d="M31.16,44v4.7a1.82,1.82,0,0,1-.4,1.14l-2.65,3.34a4.2,4.2,0,0,1-6.57,0l-2.73-3.36a1.89,1.89,0,0,1-.41-1.16V43.93A16.31,16.31,0,0,0,31.16,44Z"/><path class="cls-1" d="M31.15,46.18h0"/><path class="cls-2" d="M47.15,62.82H2.37A1.85,1.85,0,0,1,.54,60.61a29.68,29.68,0,0,1,2.59-7.67,5.64,5.64,0,0,1,2.23-2.21,26.68,26.68,0,0,1,2.89-1.38A69.17,69.17,0,0,1,18.4,46.17v2.51a1.89,1.89,0,0,0,.41,1.16l2.73,3.36a4.2,4.2,0,0,0,6.57,0l2.65-3.34a1.82,1.82,0,0,0,.4-1.14V46.18a68.56,68.56,0,0,1,10.11,3.17,26.68,26.68,0,0,1,2.89,1.38,5.64,5.64,0,0,1,2.23,2.21A29.68,29.68,0,0,1,49,60.61,1.86,1.86,0,0,1,47.15,62.82Z"/><path class="cls-1" d="M47.15,62.82H2.37A1.85,1.85,0,0,1,.54,60.61a29.68,29.68,0,0,1,2.59-7.67,5.64,5.64,0,0,1,2.23-2.21,26.68,26.68,0,0,1,2.89-1.38A69.17,69.17,0,0,1,18.4,46.17v2.51a1.89,1.89,0,0,0,.41,1.16l2.73,3.36a4.2,4.2,0,0,0,6.57,0l2.65-3.34a1.82,1.82,0,0,0,.4-1.14V46.18a68.56,68.56,0,0,1,10.11,3.17,26.68,26.68,0,0,1,2.89,1.38,5.64,5.64,0,0,1,2.23,2.21A29.68,29.68,0,0,1,49,60.61,1.86,1.86,0,0,1,47.15,62.82Z"/><line class="cls-1" x1="8.58" y1="57.34" x2="8.58" y2="62.82"/><line class="cls-1" x1="41.1" y1="57.34" x2="41.1" y2="62.82"/><path class="cls-1" d="M14,26s.65,1.33,3.1,1.33a4.32,4.32,0,0,0,3.5-1.47"/><path class="cls-1" d="M29.06,26s.66,1.33,3.11,1.33a4.31,4.31,0,0,0,3.49-1.47"/><path class="cls-1" d="M26.73,29.58v1.11a1.94,1.94,0,0,1-1.94,1.94h0a1.94,1.94,0,0,1-1.95-1.94V29.58"/><rect class="cls-1" x="23.43" y="35.92" width="2.87" height="3.87" rx="1.44"/><path class="cls-2" d="M41.27,49.35a68.53,68.53,0,0,0-10.12-3.17V44a16.27,16.27,0,0,0,10-15V22.35c-6,0-18.5-7.82-20.35-10.92h-.61c-.22.93-2.13,3.09-4.54,5a2.06,2.06,0,0,0-.65-1,13.7,13.7,0,0,1-3.43-4,4.07,4.07,0,0,0-1-2.68V6A21.09,21.09,0,0,1,39,6.18V8.75a4.07,4.07,0,0,0-1,2.68,13.76,13.76,0,0,1-3.42,4,2.08,2.08,0,0,0-.66,1,2,2,0,0,0,.41,1.92A2,2,0,0,0,35.8,19a2.08,2.08,0,0,0,.77-.16c.2-.09.42-.19.65-.32a14.18,14.18,0,0,0,3.87-3.29.72.72,0,0,1,1.21.2l1.11,2.75L41.5,24.11a2.08,2.08,0,0,0,1.15,2.53,2.19,2.19,0,0,0,.82.17,2.06,2.06,0,0,0,1.78-1l1.45-2.47.07-.1C46.91,30.64,45.6,40.93,41.27,49.35Z"/><path class="cls-2" d="M18.4,43.93v2.24A69.51,69.51,0,0,0,8.24,49.35c-.09-.22-5.61-13.24-5.43-26l1.45,2.47a2.06,2.06,0,0,0,1.78,1,2.19,2.19,0,0,0,.82-.17A2.07,2.07,0,0,0,8,24.11L6.1,18.16l1.12-2.75a.72.72,0,0,1,1.2-.2,14.18,14.18,0,0,0,3.87,3.29,8.54,8.54,0,0,1-3.71,1.06V29A16.25,16.25,0,0,0,18.4,43.93Z"/><path class="cls-1" d="M41.27,49.35a68.56,68.56,0,0,0-10.11-3.17V44a16.28,16.28,0,0,0,10-15V22.35c-6,0-18.5-7.82-20.36-10.92h-.61c-.22.93-2.12,3.09-4.54,5a2,2,0,0,0-.65-1,13.7,13.7,0,0,1-3.43-4,4.09,4.09,0,0,0-1-2.68V6A21.08,21.08,0,0,1,39,6.18V8.75a4.09,4.09,0,0,0-1,2.68,13.7,13.7,0,0,1-3.43,4,2,2,0,0,0-.65,1,2,2,0,0,0,.41,1.92,2,2,0,0,0,1.48.67,2.08,2.08,0,0,0,.77-.16c.2-.09.41-.19.64-.32a14,14,0,0,0,3.87-3.29.72.72,0,0,1,1.21.2l1.12,2.75-1.91,5.95a2.06,2.06,0,0,0,1.15,2.53,2.1,2.1,0,0,0,.81.17,2.07,2.07,0,0,0,1.79-1l1.45-2.47.06-.1C46.91,30.64,45.6,40.93,41.27,49.35Z"/><line class="cls-1" x1="41.27" y1="49.35" x2="41.27" y2="49.35"/><path class="cls-1" d="M18.4,43.93v2.24A69.17,69.17,0,0,0,8.25,49.35c-.09-.22-5.61-13.24-5.44-26l1.45,2.47a2.06,2.06,0,0,0,1.78,1,2.11,2.11,0,0,0,.82-.17A2.06,2.06,0,0,0,8,24.11L6.1,18.16l1.12-2.75a.72.72,0,0,1,1.21-.2A14,14,0,0,0,12.3,18.5a8.58,8.58,0,0,1-3.72,1.06V29A16.27,16.27,0,0,0,18.4,43.93Z"/><path class="cls-1" d="M8.24,49.35h0"/><path class="cls-1" d="M15.19,18.31a2,2,0,0,1-1.48.67,2.08,2.08,0,0,1-.77-.16c-.2-.09-.42-.19-.65-.32a14.18,14.18,0,0,1-3.87-3.29.72.72,0,0,0-1.2.2L6.1,18.16,8,24.11a2.07,2.07,0,0,1-1.15,2.53,2.19,2.19,0,0,1-.82.17,2.06,2.06,0,0,1-1.78-1L2.81,23.32,1.28,20.71A5.57,5.57,0,0,1,.5,17.87V15.35l.31-3.53a6.64,6.64,0,0,1,1.7-4.18V.5h8V8.75a4.07,4.07,0,0,1,1,2.68,13.7,13.7,0,0,0,3.43,4,2.06,2.06,0,0,1,.65,1A2,2,0,0,1,15.19,18.31Z"/><path class="cls-1" d="M49,15.35v2.52a5.57,5.57,0,0,1-.78,2.84l-1.46,2.51-.07.1-1.45,2.47a2.06,2.06,0,0,1-1.78,1,2.19,2.19,0,0,1-.82-.17,2.08,2.08,0,0,1-1.15-2.53l1.91-5.95L42.3,15.41a.72.72,0,0,0-1.21-.2,14.18,14.18,0,0,1-3.87,3.29c-.23.13-.45.23-.65.32a2.08,2.08,0,0,1-.77.16,2,2,0,0,1-1.48-.67,2,2,0,0,1-.41-1.92,2.08,2.08,0,0,1,.66-1,13.76,13.76,0,0,0,3.42-4,4.07,4.07,0,0,1,1-2.68V.5h8V7.64a6.65,6.65,0,0,1,1.69,4.18Z"/></g></g></svg>