<svg xmlns="http://www.w3.org/2000/svg" viewBox="0 0 62.43 63.19"><defs><style>.cls-1{fill:#ffd3ae;}.cls-2{fill:none;stroke:#102f3a;stroke-linecap:round;stroke-linejoin:round;}</style></defs><g id="Layer_2" data-name="Layer 2"><g id="Layer_1-2" data-name="Layer 1"><polygon class="cls-1" points="28.04 10.42 18.13 10.42 18.13 0.5 10.42 0.5 10.42 10.42 0.5 10.42 0.5 18.13 10.42 18.13 10.42 28.04 18.13 28.04 18.13 18.13 28.04 18.13 28.04 10.42"/><polygon class="cls-2" points="28.04 10.42 18.13 10.42 18.13 0.5 10.42 0.5 10.42 10.42 0.5 10.42 0.5 18.13 10.42 18.13 10.42 28.04 18.13 28.04 18.13 18.13 28.04 18.13 28.04 10.42"/><path class="cls-2" d="M12.22,55.35a30.77,30.77,0,0,1-10.71-32"/><path class="cls-2" d="M22.84,1.66a30.72,30.72,0,0,1,32,49.15"/><path class="cls-2" d="M47.14,15.5S46,29.79,30.32,33.47V30.53s.38-4.63-4.21-4.63-4.24,4.1-4.24,6.8,2.63,1.69,2.63,4.1C24.5,39.53,29,39.64,29,36"/><path class="cls-2" d="M25.27,31.42s0-1.68,1.37-1.68,1.92,2.55,1.92,2.55"/><path class="cls-2" d="M50.29,13.18a11.27,11.27,0,0,1-1.1,11.2"/><path class="cls-2" d="M45.93,20.24a5.87,5.87,0,0,0,.89,5.91c2.31,2.8,7.08,7.78,6.8,9.25s-4,2.94-4,2.94.77,3,1.71,3.65c0,0-.6,2.15-1.71,2.57a4.56,4.56,0,0,1,1.09,2.58l-2.58,2s1,2.47.16,4.2-1.84,2.77-5.31,2-10.82-2.22-10.82-2.22"/><path class="cls-2" d="M44.46,43.56s1.33,1.53,5.11,1"/><path class="cls-2" d="M40.27,54.77s-4.06-.69-4.8,5.35"/><line class="cls-2" x1="14.27" y1="39.01" x2="14.27" y2="40.34"/><line class="cls-2" x1="14.27" y1="44.12" x2="14.27" y2="45.45"/><line class="cls-2" x1="17.49" y1="42.23" x2="16.16" y2="42.23"/><line class="cls-2" x1="12.38" y1="42.23" x2="11.05" y2="42.23"/><line class="cls-2" x1="22.35" y1="52.61" x2="22.35" y2="53.94"/><line class="cls-2" x1="22.35" y1="57.72" x2="22.35" y2="59.05"/><line class="cls-2" x1="25.57" y1="55.83" x2="24.24" y2="55.83"/><line class="cls-2" x1="20.47" y1="55.83" x2="19.13" y2="55.83"/><line class="cls-2" x1="6.5" y1="56.25" x2="6.5" y2="57.58"/><line class="cls-2" x1="6.5" y1="61.36" x2="6.5" y2="62.69"/><line class="cls-2" x1="9.72" y1="59.47" x2="8.39" y2="59.47"/><line class="cls-2" x1="4.61" y1="59.47" x2="3.28" y2="59.47"/></g></g></svg>