<svg xmlns="http://www.w3.org/2000/svg" viewBox="0 0 47.91 62.57"><defs><style>.cls-1{fill:#ffd3ae;}.cls-2{fill:none;stroke:#102f3a;stroke-linecap:round;stroke-linejoin:round;}</style></defs><g id="Layer_2" data-name="Layer 2"><g id="Layer_1-2" data-name="Layer 1"><path class="cls-1" d="M12,11.59C10.91,8.66,9.66,5.36,9.65,5.32A24.37,24.37,0,0,1,38.34,5L34.2,15.89a28.49,28.49,0,0,0-20.48.19S12.91,14,12,11.59Z"/><path class="cls-2" d="M12,11.59C10.91,8.66,9.66,5.36,9.65,5.32A24.37,24.37,0,0,1,38.34,5L34.2,15.89a28.49,28.49,0,0,0-20.48.19S12.91,14,12,11.59Z"/><line class="cls-2" x1="23.99" y1="3.58" x2="23.99" y2="10.48"/><line class="cls-2" x1="27.44" y1="7.03" x2="20.54" y2="7.03"/><path class="cls-2" d="M10.07,16.08a28,28,0,0,0-1.78,8.78A42.22,42.22,0,0,1,5.51,39.23a.36.36,0,0,0,.49.46,20.69,20.69,0,0,1,7-1.86"/><path class="cls-2" d="M37.7,16.08a28,28,0,0,1,1.78,8.78,42.22,42.22,0,0,0,2.78,14.37.36.36,0,0,1-.49.46,20.77,20.77,0,0,0-7-1.86"/><path class="cls-2" d="M31.34,18.21a38.08,38.08,0,0,1-23,6"/><path class="cls-2" d="M33.23,23.65a17.55,17.55,0,0,1,.3,3.28C33.53,34.15,29.27,40,24,40S14.5,34.15,14.5,26.93A18.18,18.18,0,0,1,14.73,24"/><path class="cls-1" d="M47.4,58.94v3.13H.52V58.94c-.16-5.42.82-8.69,3.71-11.33,3.43-3.14,10.59-3.14,10.59-3.14l1.52-2.2,5.88,12.45L24,56.27l1.62-1.55,5.88-12.45L33,44.47s7.29,0,10.72,3.14C46.58,50.25,47.56,53.52,47.4,58.94Z"/><polyline class="cls-2" points="32.97 44.47 36.25 49.23 32.85 50.16"/><polyline class="cls-2" points="14.94 50.16 11.54 49.23 14.82 44.47"/><path class="cls-2" d="M47.4,58.94v3.13H.52V58.94c-.16-5.42.82-8.69,3.71-11.33,3.43-3.14,10.59-3.14,10.59-3.14l1.52-2.2,5.88,12.45L24,56.27l1.62-1.55,5.88-12.45L33,44.47s7.29,0,10.72,3.14C46.58,50.25,47.56,53.52,47.4,58.94Z"/></g></g></svg>