<svg xmlns="http://www.w3.org/2000/svg" viewBox="0 0 57.17 50.57"><defs><style>.cls-1{fill:#ffd3ae;}.cls-2{fill:none;stroke:#102f3a;stroke-linecap:round;stroke-linejoin:round;}</style></defs><g id="Layer_2" data-name="Layer 2"><g id="Layer_1-2" data-name="Layer 1"><circle class="cls-1" cx="14.91" cy="23.13" r="9.53"/><circle class="cls-1" cx="42.26" cy="23.13" r="9.53"/><circle class="cls-2" cx="14.91" cy="23.13" r="9.53"/><path class="cls-2" d="M16.16,17.49a5.78,5.78,0,0,1,4.44,4.63"/><path class="cls-2" d="M43.81,17.49a5.77,5.77,0,0,1,4.43,4.63"/><circle class="cls-2" cx="42.26" cy="23.13" r="9.53"/><line class="cls-2" x1="24.44" y1="23.13" x2="32.73" y2="23.13"/><line class="cls-2" x1="0.5" y1="23.13" x2="5.38" y2="23.13"/><line class="cls-2" x1="51.8" y1="23.13" x2="56.67" y2="23.13"/><path class="cls-2" d="M17.12.5H40.28A16.39,16.39,0,0,1,56.67,16.89V50.07a0,0,0,0,1,0,0H.72a0,0,0,0,1,0,0V16.89A16.39,16.39,0,0,1,17.12.5Z"/></g></g></svg>