<svg xmlns="http://www.w3.org/2000/svg" viewBox="0 0 62.48 53.79"><defs><style>.cls-1{fill:#ffd3ae;}.cls-2{fill:none;stroke:#102f3a;stroke-linecap:round;stroke-linejoin:round;}.cls-3{fill:#fff;}.cls-4{fill:#102f3a;}</style></defs><g id="Layer_2" data-name="Layer 2"><g id="Layer_1-2" data-name="Layer 1"><path class="cls-1" d="M1,47.11C-1.57,21.92,6.13,7.06,21.52,2.5s40.36.1,40.36.1l.1,0v.11S58.83,27.94,49.81,41.21s-25.51,16.1-48.74,6"/><path class="cls-2" d="M1,47.11C-1.57,21.92,6.13,7.06,21.52,2.5s40.36.1,40.36.1l.1,0v.11S58.83,27.94,49.81,41.21s-25.51,16.1-48.74,6"/><circle class="cls-3" cx="17.11" cy="22.35" r="9.12"/><circle class="cls-3" cx="40.07" cy="15.18" r="10.89"/><circle class="cls-3" cx="33.11" cy="38.17" r="9.09"/><circle class="cls-2" cx="17.11" cy="22.35" r="9.12"/><circle class="cls-2" cx="40.07" cy="15.18" r="10.89"/><circle class="cls-2" cx="33.11" cy="38.17" r="9.09"/><path class="cls-4" d="M19.59,25.11l-.45-1.19H15.31l-.45,1.21a4.92,4.92,0,0,1-.45,1,.74.74,0,0,1-.61.24.88.88,0,0,1-.64-.26.84.84,0,0,1-.28-.6,1.16,1.16,0,0,1,.07-.4c0-.13.11-.33.21-.57l2.41-6.12.25-.64a3.45,3.45,0,0,1,.31-.61,1.27,1.27,0,0,1,.43-.4,1.34,1.34,0,0,1,.66-.15,1.32,1.32,0,0,1,.66.15,1.28,1.28,0,0,1,.44.39,3.1,3.1,0,0,1,.27.51c.08.19.17.43.29.73l2.46,6.09a2.88,2.88,0,0,1,.29,1,.83.83,0,0,1-.27.6.9.9,0,0,1-.66.27A.78.78,0,0,1,20,26a1.91,1.91,0,0,1-.23-.42C19.72,25.42,19.65,25.25,19.59,25.11Zm-3.78-2.62h2.82L17.21,18.6Z"/><path class="cls-4" d="M40.31,19.77H37.43a1.2,1.2,0,0,1-.89-.28,1.26,1.26,0,0,1-.27-.89V11.51a1.24,1.24,0,0,1,.27-.9,1.23,1.23,0,0,1,.89-.27h3a6.71,6.71,0,0,1,1.17.08,2.55,2.55,0,0,1,.89.32,2.38,2.38,0,0,1,.59.51,2.26,2.26,0,0,1,.39.67,2.07,2.07,0,0,1,.14.78,2.17,2.17,0,0,1-1.42,2.08,2.3,2.3,0,0,1,1.86,2.3,2.56,2.56,0,0,1-.4,1.42,2.4,2.4,0,0,1-1.1.94,3.77,3.77,0,0,1-1,.25A9.73,9.73,0,0,1,40.31,19.77Zm-2.13-8v2.44h1.75a3.46,3.46,0,0,0,1.1-.14,1.07,1.07,0,0,0,.6-.51,1.22,1.22,0,0,0,.16-.6.93.93,0,0,0-.51-1,3.82,3.82,0,0,0-1.55-.24Zm2,3.81h-2v2.75h2c1.29,0,1.94-.46,1.94-1.39a1.16,1.16,0,0,0-.5-1A2.88,2.88,0,0,0,40.17,15.58Z"/><path class="cls-4" d="M31.4,33.64h2.49a6.69,6.69,0,0,1,1.66.18,3,3,0,0,1,1.26.68,4.75,4.75,0,0,1,1.48,3.83,7.34,7.34,0,0,1-.15,1.55,4.56,4.56,0,0,1-.46,1.27,4,4,0,0,1-.79,1,3.48,3.48,0,0,1-.83.54,3.42,3.42,0,0,1-1,.29,6.75,6.75,0,0,1-1.16.09H31.44a1.64,1.64,0,0,1-.79-.16.76.76,0,0,1-.34-.45,2.53,2.53,0,0,1-.08-.74V34.82a1.26,1.26,0,0,1,.27-.9A1.27,1.27,0,0,1,31.4,33.64Zm.74,1.52v6.4h1.44a7.2,7.2,0,0,0,.75,0,2.38,2.38,0,0,0,.56-.13,1.46,1.46,0,0,0,.5-.29,3.48,3.48,0,0,0,1-2.79,4.11,4.11,0,0,0-.42-2.09,1.86,1.86,0,0,0-1-.88,5,5,0,0,0-1.49-.19Z"/></g></g></svg>