<svg xmlns="http://www.w3.org/2000/svg" viewBox="0 0 61.82 62.63"><defs><style>.cls-1{fill:#ffd3ae;}.cls-2{fill:none;}.cls-2,.cls-3{stroke:#102f3a;stroke-linecap:round;stroke-linejoin:round;}.cls-3,.cls-4{fill:#fff;}</style></defs><g id="Layer_2" data-name="Layer 2"><g id="Layer_1-2" data-name="Layer 1"><path class="cls-1" d="M57.45,39.5H44.8a4.64,4.64,0,0,1-4.54-3.68,14.28,14.28,0,0,0,4.93-9.61c0-.41.05-.83.05-1.25V18.41a30.28,30.28,0,0,1-4.85,0L40.5,4.18a5.63,5.63,0,0,1,10.91,2V33.47A6,6,0,0,0,57.45,39.5Z"/><path class="cls-1" d="M45.24,14.82v3.59c-16.1,1.27-21.43-9.36-21.43-9.36a10.35,10.35,0,0,1-7.22,8.79v-3a14.33,14.33,0,0,1,28.65,0Z"/><path class="cls-2" d="M45.24,14.82v3.59a30.28,30.28,0,0,1-4.85,0c-12.34-.92-16.58-9.38-16.58-9.38a10.35,10.35,0,0,1-7.22,8.79v-3A14.32,14.32,0,0,1,40.5,4.18l.55.52A14.27,14.27,0,0,1,45.24,14.82Z"/><line class="cls-2" x1="45.24" y1="19.2" x2="45.24" y2="18.41"/><path class="cls-2" d="M16.59,17.84V25A14.32,14.32,0,0,0,27.87,39"/><path class="cls-2" d="M45.19,26.21A14.33,14.33,0,0,1,34,39"/><path class="cls-2" d="M40.5,4.18a5.63,5.63,0,0,1,10.91,2V33.47a6,6,0,0,0,6,6H44.8a4.64,4.64,0,0,1-4.54-3.68"/><path class="cls-3" d="M49.43,22a4.19,4.19,0,0,1-4.19,4.18h-.05c0-.41.05-.83.05-1.25V17.84A4.2,4.2,0,0,1,49.43,22Z"/><path class="cls-2" d="M12.35,22a4.18,4.18,0,0,0,4.18,4.18h.06c0-.41-.06-.83-.06-1.25V17.84A4.19,4.19,0,0,0,12.35,22Z"/><line class="cls-2" x1="45.25" y1="18.41" x2="45.24" y2="18.41"/><path class="cls-2" d="M34.06,39v4.56a3.1,3.1,0,1,1-6.2,0V39h0A14.21,14.21,0,0,0,34,39Z"/><path class="cls-1" d="M18.82,44l9-.53V62.13H10.35V53A9,9,0,0,1,18.82,44Z"/><path class="cls-1" d="M51.48,53v9.18H34.06V43.43L43,44A9,9,0,0,1,51.48,53Z"/><path class="cls-2" d="M18.82,44l9-.53V62.13H10.35V53A9,9,0,0,1,18.82,44Z"/><path class="cls-2" d="M51.48,53v9.18H34.06V43.43L43,44A9,9,0,0,1,51.48,53Z"/><line class="cls-2" x1="0.5" y1="62.13" x2="61.32" y2="62.13"/><path class="cls-2" d="M34.06,43.52V62.13h-6.2V43.52a3.1,3.1,0,1,0,6.2,0Z"/><line class="cls-2" x1="34.06" y1="43.52" x2="34.06" y2="43.45"/><line class="cls-2" x1="27.86" y1="43.52" x2="27.86" y2="43.45"/><line class="cls-2" x1="19.73" y1="43.93" x2="19.73" y2="48.59"/><path class="cls-2" d="M16.59,59h-2V53.75a5.16,5.16,0,0,1,5.16-5.16h0a5.15,5.15,0,0,1,5.15,5.16V59H22.8"/><line class="cls-2" x1="42.35" y1="43.93" x2="42.35" y2="52.78"/><circle class="cls-4" cx="42.35" cy="55.94" r="3.25"/><circle class="cls-2" cx="42.35" cy="55.94" r="3.25"/></g></g></svg>