<svg xmlns="http://www.w3.org/2000/svg" viewBox="0 0 63.33 63.3"><defs><style>.cls-1{fill:#ffd3ae;}.cls-2{fill:none;stroke:#102f3a;stroke-linecap:round;stroke-linejoin:round;}</style></defs><g id="Layer_2" data-name="Layer 2"><g id="Layer_1-2" data-name="Layer 1"><path class="cls-1" d="M42.66,2.21h0A1.71,1.71,0,0,0,41,.5H35.29a2.58,2.58,0,0,0-2.58,2.57V8.76H35.5A6.32,6.32,0,0,0,41,5.61h0v0a4.33,4.33,0,0,0,4.15,3.12h0V4.68a1.51,1.51,0,0,0-1.5-1.51h0A1,1,0,0,1,42.66,2.21Z"/><path class="cls-2" d="M42.66,2.21h0A1.71,1.71,0,0,0,41,.5H35.29a2.58,2.58,0,0,0-2.58,2.57V8.76H35.5A6.32,6.32,0,0,0,41,5.61h0v0a4.33,4.33,0,0,0,4.15,3.12h0V4.68a1.51,1.51,0,0,0-1.5-1.51h0A1,1,0,0,1,42.66,2.21Z"/><path class="cls-2" d="M45.11,8.76h0v.89a6.25,6.25,0,0,1-3.28,5.48"/><path class="cls-2" d="M32.71,8.76v.89A6.2,6.2,0,0,0,35.8,15"/><path class="cls-1" d="M51.41,25v4.38H38.72a2.46,2.46,0,0,0-.65-1.14,2.6,2.6,0,0,0-1.82-.75H34.61v5.14h-7a1.25,1.25,0,0,1-1.26-1.26V25a6,6,0,0,1,3.05-5.25l6.44-3.67v.22a3,3,0,0,0,6.05,0v-.22l6.51,3.67A6,6,0,0,1,51.41,25Z"/><path class="cls-2" d="M41.85,15.13v1.16a3,3,0,0,1-6.05,0V15a6.22,6.22,0,0,0,3.12.84A6.15,6.15,0,0,0,41.85,15.13Z"/><line class="cls-2" x1="34.61" y1="27.48" x2="29.55" y2="27.48"/><path class="cls-2" d="M38.72,29.37a2.15,2.15,0,0,1,.1.68,2.57,2.57,0,0,1-2,2.52"/><path class="cls-2" d="M51.41,25v4.38H38.72a2.46,2.46,0,0,0-.65-1.14,2.6,2.6,0,0,0-1.82-.75H34.61v5.14h-7a1.25,1.25,0,0,1-1.26-1.26V25a6,6,0,0,1,3.05-5.25l6.44-3.67v.22a3,3,0,0,0,6.05,0v-.22l6.51,3.67A6,6,0,0,1,51.41,25Z"/><line class="cls-2" x1="31.59" y1="23.69" x2="31.59" y2="27.48"/><path class="cls-1" d="M36.77,32.57v5.32H31.58V32.62h4.67A3,3,0,0,0,36.77,32.57Z"/><path class="cls-2" d="M36.77,32.57v5.32H31.58V32.62h4.67A3,3,0,0,0,36.77,32.57Z"/><line class="cls-2" x1="46.07" y1="23.29" x2="46.07" y2="29.38"/><path class="cls-1" d="M37.74,43v5.12H20.11a5.13,5.13,0,1,1,0-10.25H36.77V43Z"/><path class="cls-2" d="M37.74,43v5.12H20.11a5.13,5.13,0,1,1,0-10.25H36.77V43Z"/><path class="cls-2" d="M42,45.58a2.56,2.56,0,0,1-2.56,2.56H37.74V43h1.72A2.56,2.56,0,0,1,42,45.58Z"/><line class="cls-2" x1="36.77" y1="38.05" x2="36.77" y2="37.89"/><line class="cls-2" x1="21.34" y1="43.02" x2="36.77" y2="43.02"/><rect class="cls-2" x="45.07" y="33.73" width="5.24" height="3.99" rx="1.5"/><path class="cls-2" d="M55.67,27.48h1.06a0,0,0,0,1,0,0v8.25a0,0,0,0,1,0,0H52.48a0,0,0,0,1,0,0v-5A3.2,3.2,0,0,1,55.67,27.48Z"/><line class="cls-2" x1="50.31" y1="35.73" x2="52.64" y2="35.73"/><path class="cls-2" d="M45.07,35.73H43.41a.37.37,0,0,0-.38.37v5.58a.37.37,0,0,0,.38.37H58.6v6.09h-19"/><path class="cls-2" d="M61.77,41.07h1.06a0,0,0,0,1,0,0v7.07a0,0,0,0,1,0,0H58.6a0,0,0,0,1,0,0v-3.9A3.17,3.17,0,0,1,61.77,41.07Z"/><path class="cls-1" d="M12.71,46.88a3.79,3.79,0,0,1-2.84,1.26H5.11A3.84,3.84,0,0,1,1.27,44.3V41.74a3.84,3.84,0,0,1,3.84-3.85h.31V43H8.85Z"/><path class="cls-2" d="M12.71,46.88a3.79,3.79,0,0,1-2.84,1.26H5.11A3.84,3.84,0,0,1,1.27,44.3V41.74a3.84,3.84,0,0,1,3.84-3.85h.31V43H8.85Z"/><path class="cls-2" d="M13.72,41.74V44.3a3.77,3.77,0,0,1-1,2.58L8.85,43H5.42V37.89H9.87A3.85,3.85,0,0,1,13.72,41.74Z"/><line class="cls-2" x1="12.72" y1="46.89" x2="12.71" y2="46.88"/><rect class="cls-2" x="0.5" y="48.14" width="62.33" height="4.02"/><polygon class="cls-2" points="9.7 62.8 6.5 62.8 6.5 52.16 10.99 52.16 9.7 62.8"/><polygon class="cls-2" points="53.28 62.8 56.49 62.8 56.49 52.16 52 52.16 53.28 62.8"/><rect class="cls-2" x="31.5" y="52.16" width="7.35" height="5.32"/><path class="cls-1" d="M38.85,61.72H30a.74.74,0,0,1-.73-.91l.38-1.59a2.24,2.24,0,0,1,2.19-1.74h7Z"/><path class="cls-1" d="M38.94,61.72h8.85a.74.74,0,0,0,.73-.91l-.38-1.59A2.24,2.24,0,0,0,46,57.48h-7Z"/><path class="cls-2" d="M38.85,61.72H30a.74.74,0,0,1-.73-.91l.38-1.59a2.24,2.24,0,0,1,2.19-1.74h7Z"/><path class="cls-2" d="M38.94,61.72h8.85a.74.74,0,0,0,.73-.91l-.38-1.59A2.24,2.24,0,0,0,46,57.48h-7Z"/><path class="cls-2" d="M38.85,61.72H30a.74.74,0,0,1-.73-.91l.38-1.59a2.24,2.24,0,0,1,2.19-1.74h7Z"/><path class="cls-2" d="M38.94,61.72h8.85a.74.74,0,0,0,.73-.91l-.38-1.59A2.24,2.24,0,0,0,46,57.48h-7Z"/><rect class="cls-2" x="38.85" y="52.16" width="7.35" height="5.32"/><line class="cls-2" x1="51.41" y1="29.37" x2="52.76" y2="29.37"/></g></g></svg>