<svg xmlns="http://www.w3.org/2000/svg" viewBox="0 0 45.94 62.86"><defs><style>.cls-1{fill:#ffd3ae;}.cls-2{fill:none;stroke:#102f3a;stroke-linecap:round;stroke-linejoin:round;}</style></defs><g id="Layer_2" data-name="Layer 2"><g id="Layer_1-2" data-name="Layer 1"><polygon class="cls-1" points="45.44 37.41 36.22 37.41 36.22 28.19 25.62 28.19 25.62 37.41 16.4 37.41 16.4 48 25.62 48 25.62 57.22 36.22 57.22 36.22 48 45.44 48 45.44 37.41"/><polygon class="cls-2" points="45.44 37.41 36.22 37.41 36.22 28.19 25.62 28.19 25.62 37.41 16.4 37.41 16.4 48 25.62 48 25.62 57.22 36.22 57.22 36.22 48 45.44 48 45.44 37.41"/><path class="cls-1" d="M7.59,11.38a32.05,32.05,0,0,0-4.24-.13C1.56,11.32.68,9.88.68,8.1V4.54c0-2.24,1.21-4,3.44-4L5.2.55A2.42,2.42,0,0,1,7.49,2.73,50.27,50.27,0,0,1,7.59,11.38Z"/><path class="cls-2" d="M7.59,11.38a32.05,32.05,0,0,0-4.24-.13C1.56,11.32.68,9.88.68,8.1V4.54c0-2.24,1.21-4,3.44-4L5.2.55A2.42,2.42,0,0,1,7.49,2.73,50.27,50.27,0,0,1,7.59,11.38Z"/><path class="cls-2" d="M8.05,11.43l-.46,0"/><path class="cls-2" d="M2.78,11.28s-9.23,11,9.44,16.91"/><path class="cls-2" d="M3.65,23.81A30.61,30.61,0,0,1,8.1,41.47C7.41,51.55,5.58,57.4,9.93,60.83s11.51.57,12.63-3.61"/><line class="cls-2" x1="13.11" y1="12.41" x2="13.11" y2="12.4"/><path class="cls-1" d="M13.11,12.4a31.51,31.51,0,0,0-5.06-1,31,31,0,0,1,.24-8.74A2.46,2.46,0,0,1,10.61.6H12a1.79,1.79,0,0,1,1.79,1.79A31.4,31.4,0,0,0,13.11,12.4Z"/><path class="cls-1" d="M18.81,5.48a29.42,29.42,0,0,0-.52,8.91,29,29,0,0,0-5.18-2h0a31.4,31.4,0,0,1,.63-10h2.51A2.57,2.57,0,0,1,18.81,5Z"/><path class="cls-1" d="M24.38,17.83a42.49,42.49,0,0,0-6.09-3.44,29.42,29.42,0,0,1,.52-8.91h2.25a2.05,2.05,0,0,1,2.05,2.05v1S22,13.94,24.38,17.83Z"/><path class="cls-2" d="M13.11,12.4a31.51,31.51,0,0,0-5.06-1,31,31,0,0,1,.24-8.74A2.46,2.46,0,0,1,10.61.6H12a1.79,1.79,0,0,1,1.79,1.79A31.4,31.4,0,0,0,13.11,12.4Z"/><path class="cls-2" d="M18.81,5.48a29.42,29.42,0,0,0-.52,8.91,29,29,0,0,0-5.18-2h0a31.4,31.4,0,0,1,.63-10h2.51A2.57,2.57,0,0,1,18.81,5Z"/><path class="cls-2" d="M24.38,17.83a42.49,42.49,0,0,0-6.09-3.44,29.42,29.42,0,0,1,.52-8.91h2.25a2.05,2.05,0,0,1,2.05,2.05v1S22,13.94,24.38,17.83Z"/><path class="cls-2" d="M23.11,8.49h2.44a2.1,2.1,0,0,1,2.11,2.1V23.44"/></g></g></svg>