<svg xmlns="http://www.w3.org/2000/svg" viewBox="0 0 67.99 63.3"><defs><style>.cls-1{fill:none;stroke:#102f3a;stroke-linecap:round;stroke-linejoin:round;}.cls-2{fill:#ffd3ae;}</style></defs><g id="Layer_2" data-name="Layer 2"><g id="Layer_1-2" data-name="Layer 1"><circle class="cls-1" cx="33.91" cy="7.26" r="6.76"/><path class="cls-1" d="M32.32,16.94h3.19a9.36,9.36,0,0,1,9.36,9.36v6.8a0,0,0,0,1,0,0H23a0,0,0,0,1,0,0V26.3A9.36,9.36,0,0,1,32.32,16.94Z"/><path class="cls-2" d="M31.39,47.48V62.8H16.76V54.91s-1-.35-8.38-4.26S.5,38.65.5,38.65V18a3.94,3.94,0,1,1,7.87,0V30.87a4.1,4.1,0,0,1,4.78.74l3,3s3.2,3.86,8,3.86S31.39,41.89,31.39,47.48Z"/><path class="cls-2" d="M67.49,18V38.65s-.49,8.1-7.88,12-8.38,4.26-8.38,4.26V62.8H36.6V47.48c0-5.59,2.51-9,7.29-9s8-3.86,8-3.86l3-3a4.1,4.1,0,0,1,4.77-.75V18a3.94,3.94,0,1,1,7.87,0Z"/><path class="cls-1" d="M31.39,47.48V62.8H16.76V54.91s-1-.35-8.38-4.26S.5,38.65.5,38.65V18a3.94,3.94,0,1,1,7.87,0V30.87a4.1,4.1,0,0,1,4.78.74l3,3s3.2,3.86,8,3.86S31.39,41.89,31.39,47.48Z"/><path class="cls-1" d="M8.38,30.87a3.79,3.79,0,0,0-1,.74,4.09,4.09,0,0,0,0,5.8l6.94,6.94"/><path class="cls-1" d="M67.49,18V38.65s-.49,8.1-7.88,12-8.38,4.26-8.38,4.26V62.8H36.6V47.48c0-5.59,2.51-9,7.29-9s8-3.86,8-3.86l3-3a4.1,4.1,0,0,1,4.77-.75V18a3.94,3.94,0,1,1,7.87,0Z"/><path class="cls-1" d="M59.61,30.87h0a4.1,4.1,0,0,1,1,6.55L53.7,44.35"/></g></g></svg>