<svg xmlns="http://www.w3.org/2000/svg" viewBox="0 0 63.26 57.95"><defs><style>.cls-1{fill:#ffd3ae;}.cls-2{fill:none;stroke:#102f3a;stroke-linecap:round;stroke-linejoin:round;}.cls-3{fill:#fff;}</style></defs><g id="Layer_2" data-name="Layer 2"><g id="Layer_1-2" data-name="Layer 1"><path class="cls-1" d="M47.27,56.13c-7.07,3.07-10.07-.2-15.76,0-5.69-.2-8.7,3.07-15.76,0s-7.91-13-3.59-17.2,6.54-7.06,9.74-13.8A10.1,10.1,0,0,1,31.51,19a10.1,10.1,0,0,1,9.61,6.14c3.2,6.74,5.43,9.62,9.74,13.8S54.33,53.05,47.27,56.13Z"/><ellipse class="cls-1" cx="21.55" cy="8.35" rx="5.23" ry="7.89" transform="translate(-0.88 2.79) rotate(-7.26)"/><ellipse class="cls-1" cx="6.9" cy="25.43" rx="5.82" ry="7.89" transform="translate(-11.79 6.86) rotate(-30)"/><ellipse class="cls-1" cx="41.74" cy="8.35" rx="7.89" ry="5.23" transform="translate(27.74 48.55) rotate(-82.12)"/><ellipse class="cls-1" cx="56.34" cy="25.36" rx="7.89" ry="5.93" transform="translate(7.47 63.16) rotate(-61.95)"/><path class="cls-2" d="M47.27,56.13c-7.07,3.07-10.07-.2-15.76,0-5.69-.2-8.7,3.07-15.76,0s-7.91-13-3.59-17.2,6.54-7.06,9.74-13.8A10.1,10.1,0,0,1,31.51,19a10.1,10.1,0,0,1,9.61,6.14c3.2,6.74,5.43,9.62,9.74,13.8S54.33,53.05,47.27,56.13Z"/><ellipse class="cls-2" cx="21.55" cy="8.35" rx="5.23" ry="7.89" transform="translate(-0.88 2.79) rotate(-7.26)"/><ellipse class="cls-2" cx="6.9" cy="25.43" rx="5.82" ry="7.89" transform="translate(-11.79 6.86) rotate(-30)"/><ellipse class="cls-2" cx="41.74" cy="8.35" rx="7.89" ry="5.23" transform="translate(27.74 48.55) rotate(-82.12)"/><ellipse class="cls-2" cx="56.34" cy="25.36" rx="7.89" ry="5.93" transform="translate(7.47 63.16) rotate(-61.95)"/><polygon class="cls-3" points="41 37.4 34.6 37.4 34.6 31 28.71 31 28.71 37.4 22.32 37.4 22.32 43.29 28.71 43.29 28.71 49.69 34.6 49.69 34.6 43.29 41 43.29 41 37.4"/><polygon class="cls-2" points="41 37.4 34.6 37.4 34.6 31 28.71 31 28.71 37.4 22.32 37.4 22.32 43.29 28.71 43.29 28.71 49.69 34.6 49.69 34.6 43.29 41 43.29 41 37.4"/></g></g></svg>