<svg xmlns="http://www.w3.org/2000/svg" viewBox="0 0 58.63 58.63"><defs><style>.cls-1{fill:#102f3a;}.cls-2{fill:#ffd3ae;}</style></defs><g id="Layer_2" data-name="Layer 2"><g id="Layer_1-2" data-name="Layer 1"><path class="cls-1" d="M29.35,0A29.32,29.32,0,1,1,0,29.11,29.31,29.31,0,0,1,29.35,0ZM29.3,22H41.24a3.83,3.83,0,0,0,4-2.88,2.61,2.61,0,0,0-.4-2.57A20.14,20.14,0,0,0,14,16.37,2.72,2.72,0,0,0,13.4,19a3.82,3.82,0,0,0,4,3.05C21.34,22,25.32,22,29.3,22ZM51,12.89l.08-.2C45,5.23,37.18,1.45,27.46,2.06c-8.22.52-14.8,4.28-19.9,10.66l.06.18H8.2c1.84,0,3.68,0,5.51,0a2.35,2.35,0,0,0,1.65-.59,21.46,21.46,0,0,1,13.8-5,21.69,21.69,0,0,1,14.41,5.21,1.28,1.28,0,0,0,.68.35C46.51,12.9,48.77,12.89,51,12.89ZM7.64,45.75l-.08.2C14,53.74,22.23,57.5,32.39,56.46c7.72-.8,13.93-4.5,18.82-10.71-2.35,0-4.51,0-6.68,0a1.76,1.76,0,0,0-1,.38,22,22,0,0,1-28.46-.07,1.19,1.19,0,0,0-.63-.32C12.16,45.74,9.9,45.75,7.64,45.75ZM41.46,31c-1,0-2,0-3,0a1.59,1.59,0,0,0-1.76,1.48c-.11.67-.25,1.33-.35,2a4.14,4.14,0,0,1-1.58,2.73.86.86,0,0,0-.32.53c0,2-.05,4.08,0,6.11a3.68,3.68,0,0,0,2.93,3.42,1.91,1.91,0,0,0,1.2-.15A19.69,19.69,0,0,0,48,36.56,4,4,0,0,0,44.27,31C43.33,30.94,42.39,31,41.46,31ZM17.24,31h0c-1,0-2,0-3,0a3.9,3.9,0,0,0-3.71,5.22,19.19,19.19,0,0,0,9.64,11,1.56,1.56,0,0,0,.93.11,3.84,3.84,0,0,0,3.11-3.79c0-1.87,0-3.75,0-5.63a1,1,0,0,0-.34-.68,4.17,4.17,0,0,1-1.51-2.51A22.35,22.35,0,0,1,22,32.36a1.31,1.31,0,0,0-1-1.26,2.9,2.9,0,0,0-.77-.14C19.19,31,18.21,31,17.24,31ZM46.1,14.86c7.06,9.69,7,19.3,0,28.93,1.89,0,3.81,0,5.72,0a1.1,1.1,0,0,0,1.14-.66,27.33,27.33,0,0,0,3.45-17.79A26.41,26.41,0,0,0,52.8,15.29a1,1,0,0,0-.58-.42C50.18,14.84,48.14,14.86,46.1,14.86ZM12.55,43.79c-7-9.69-7-19.28,0-28.93-1.92,0-3.85,0-5.79,0a1,1,0,0,0-1,.58,27.31,27.31,0,0,0-3.46,17.9,27,27,0,0,0,3.6,10.06c.1.16.31.38.48.38C8.44,43.8,10.52,43.79,12.55,43.79ZM21.8,24c0,1.48.06,2.89,0,4.29,0,.78.16,1.27.93,1.51a1.51,1.51,0,0,1,1,1.43c.12,1,.32,2,.5,2.95A2,2,0,0,0,26.38,36c2,0,4,0,5.93,0a2,2,0,0,0,2.08-1.77c.21-1.1.41-2.2.59-3.31a1.19,1.19,0,0,1,.73-1,6.42,6.42,0,0,0,.86-.46.52.52,0,0,0,.26-.35c0-1.69,0-3.38,0-5.11Zm13.32,24.5c0-.09,0-.11,0-.12a2.18,2.18,0,0,0-.22-.21,5.68,5.68,0,0,1-2.39-4.6c0-1.63,0-3.26,0-4.89,0-.23,0-.47,0-.7H26.18c0,1.57-.05,3.1,0,4.63a6.23,6.23,0,0,1-2.62,5.72s0,.07-.06.17A20,20,0,0,0,35.12,48.51Zm14.08-17c.68-2.94-.61-9.55-2.19-11.42A6,6,0,0,1,40.6,24c-.58,0-1.17,0-1.77,0v5h.69c1.35,0,2.7,0,4,0A6.25,6.25,0,0,1,49.2,31.49ZM11.6,20c-2,3.4-2.74,8.58-2.12,11.43A6.07,6.07,0,0,1,14.64,29c1.51,0,3,0,4.53,0,.21,0,.43,0,.62,0V24c-1,0-1.92,0-2.85,0a5.65,5.65,0,0,1-4.71-2.75C12,20.85,11.83,20.46,11.6,20Z"/><path class="cls-2" d="M51,12.89c-2.27,0-4.53,0-6.79,0a1.28,1.28,0,0,1-.68-.35A21.69,21.69,0,0,0,29.16,7.32a21.46,21.46,0,0,0-13.8,5,2.35,2.35,0,0,1-1.65.59c-1.83,0-3.67,0-5.51,0H7.62l-.06-.18c5.1-6.38,11.68-10.14,19.9-10.66C37.18,1.45,45,5.23,51.12,12.69Z"/><path class="cls-2" d="M7.64,45.75c2.26,0,4.52,0,6.78,0a1.19,1.19,0,0,1,.63.32,22,22,0,0,0,28.46.07,1.76,1.76,0,0,1,1-.38c2.17,0,4.33,0,6.68,0C46.32,52,40.11,55.66,32.39,56.46,22.23,57.5,14,53.74,7.56,46Z"/><path class="cls-2" d="M46.1,14.86c2,0,4.08,0,6.12,0a1,1,0,0,1,.58.42,26.41,26.41,0,0,1,3.59,10.06,27.33,27.33,0,0,1-3.45,17.79,1.1,1.1,0,0,1-1.14.66c-1.91,0-3.83,0-5.72,0C53.14,34.16,53.16,24.55,46.1,14.86Z"/><path class="cls-2" d="M12.55,43.79c-2,0-4.11,0-6.18,0-.17,0-.38-.22-.48-.38a27,27,0,0,1-3.6-10.06,27.31,27.31,0,0,1,3.46-17.9,1,1,0,0,1,1-.58c1.94,0,3.87,0,5.79,0C5.5,24.51,5.51,34.1,12.55,43.79Z"/><path class="cls-2" d="M21.8,24h15c0,1.73,0,3.42,0,5.11a.52.52,0,0,1-.26.35,6.42,6.42,0,0,1-.86.46,1.19,1.19,0,0,0-.73,1c-.18,1.11-.38,2.21-.59,3.31A2,2,0,0,1,32.31,36c-2,0-4,0-5.93,0a2,2,0,0,1-2.13-1.79c-.18-1-.38-2-.5-2.95a1.51,1.51,0,0,0-1-1.43c-.77-.24-1-.73-.93-1.51C21.86,26.9,21.8,25.49,21.8,24Zm3.37,5.31a4.15,4.15,0,0,0,4.14,4.17,4.17,4.17,0,1,0,0-8.33A4.13,4.13,0,0,0,25.17,29.32Z"/><path class="cls-2" d="M35.12,48.51a20,20,0,0,1-11.61,0c0-.1,0-.15.06-.17a6.23,6.23,0,0,0,2.62-5.72c-.06-1.53,0-3.06,0-4.63h6.25c0,.23,0,.47,0,.7,0,1.63,0,3.26,0,4.89a5.68,5.68,0,0,0,2.39,4.6,2.18,2.18,0,0,1,.22.21S35.12,48.42,35.12,48.51Z"/><path class="cls-2" d="M49.2,31.49A6.25,6.25,0,0,0,43.56,29c-1.34,0-2.69,0-4,0h-.69V24c.6,0,1.19,0,1.77,0A6,6,0,0,0,47,20.07C48.59,21.94,49.88,28.55,49.2,31.49Z"/><path class="cls-2" d="M11.6,20c.23.44.4.83.63,1.18A5.65,5.65,0,0,0,16.94,24c.93.05,1.87,0,2.85,0v5c-.19,0-.41,0-.62,0-1.51,0-3,0-4.53,0a6.07,6.07,0,0,0-5.16,2.46C8.86,28.6,9.64,23.42,11.6,20Z"/><path class="cls-1" d="M25.17,29.32a4.17,4.17,0,0,1,8.33,0,4.2,4.2,0,0,1-4.19,4.2A4.15,4.15,0,0,1,25.17,29.32Zm4.16-2.2a2.21,2.21,0,0,0,0,4.41,2.23,2.23,0,0,0,2.24-2.2A2.2,2.2,0,0,0,29.33,27.12Z"/></g></g></svg>