<svg xmlns="http://www.w3.org/2000/svg" viewBox="0 0 122.7 138.26"><defs><style>.cls-1{fill:#e87503;}.cls-2{fill:#fff;}.cls-3{fill:#110239;}.cls-4{fill:#d0d1de;}.cls-5{fill:#9698b5;}.cls-6{fill:#fbb040;}.cls-7{fill:#fd425f;}.cls-8{fill:#e5e6ed;}.cls-9{fill:#9a94ab;}.cls-10{fill:#f88667;}.cls-11{fill:#e45940;}.cls-12{fill:#b8b9cd;}</style></defs><g id="Layer_2" data-name="Layer 2"><g id="Layer_1-2" data-name="Layer 1"><path class="cls-1" d="M0,0H122.7a0,0,0,0,1,0,0V76.91a61.35,61.35,0,0,1-61.35,61.35h0A61.35,61.35,0,0,1,0,76.91V0A0,0,0,0,1,0,0Z"/><circle class="cls-2" cx="61.35" cy="72.96" r="52.1"/><polygon class="cls-3" points="66.51 102.13 54.19 102.13 55.21 87.29 65.49 87.29 66.51 102.13"/><path class="cls-3" d="M68.12,99.76a.82.82,0,0,0-.67-.36H53.25a.82.82,0,0,0-.67.36l-1.86,2.77a.81.81,0,0,0,.67,1.26H69.31a.81.81,0,0,0,.67-1.26Z"/><rect class="cls-3" x="26.74" y="46.17" width="67.23" height="45.06" rx="3.47"/><rect class="cls-1" x="29.83" y="49.16" width="61.03" height="38.63"/><rect class="cls-4" x="65.44" y="75.29" width="3.35" height="12.46"/><rect class="cls-5" x="65.44" y="75.29" width="3.35" height="3.9"/><path class="cls-6" d="M77.83,56H58.06v20.1H85.7V63.83A7.87,7.87,0,0,0,77.83,56Z"/><path class="cls-1" d="M66,76.06H50.11V63.83A7.87,7.87,0,0,1,58,56h.15A7.87,7.87,0,0,1,66,63.83Z"/><path class="cls-3" d="M64.64,74.34H51.47V64.2A6.52,6.52,0,0,1,58,57.68h.13a6.52,6.52,0,0,1,6.52,6.52Z"/><rect class="cls-7" x="44.88" y="74.52" width="15.07" height="1.55"/><path class="cls-2" d="M77.31,68.62c.47,0,.94-.76.94-1.85a3.64,3.64,0,0,0-3.78-3.88,3.91,3.91,0,0,0-3.91,3.92,3.66,3.66,0,0,0,3.77,3.72,3.82,3.82,0,0,0,2.16-.7l.53.92a4.85,4.85,0,0,1-2.69.85,4.74,4.74,0,0,1-4.91-4.79,5,5,0,0,1,5-5,4.78,4.78,0,0,1,4.91,4.9c0,1.71-.94,2.81-2.21,2.81a1.21,1.21,0,0,1-1.35-.88l0-.14a2.05,2.05,0,0,1-1.71.91,2.57,2.57,0,0,1-2.51-2.66,2.47,2.47,0,0,1,2.35-2.7,2,2,0,0,1,1.54.71v-.58h1.41v3.85C76.88,68.47,77.05,68.62,77.31,68.62Zm-4.18-1.89c0,.75.43,1.42,1.11,1.42s1.13-.64,1.13-1.41a1.14,1.14,0,1,0-2.24,0Z"/><path class="cls-8" d="M61.27,78.69c.12-3.13,2.25-5.78,3.37-7v-.67H54.3c-2.11,0-3.36,1.08-4.5,2.85a9.75,9.75,0,0,0-1.65,4.78c-.15,4.24.77,6.31-2,9.12s-4,4.42-3.17,9H56.1c-.81-4.58.41-6.19,3.18-9S61.12,82.93,61.27,78.69Z"/><path class="cls-9" d="M62.8,72H53.13l-.37.42h9.67Z"/><path class="cls-9" d="M61.27,74.06H51.6l-.25.42H61Z"/><path class="cls-9" d="M60.26,76.08H50.59l-.15.42h9.67Z"/><path class="cls-9" d="M59.76,78.1H50.09c0,.14,0,.28,0,.42h9.67C59.73,78.38,59.74,78.24,59.76,78.1Z"/><path class="cls-9" d="M59.7,80.12H50v.43H59.7Z"/><path class="cls-9" d="M59.74,82.14H50.07v.43h9.67Z"/><path class="cls-9" d="M59.65,84.17H50c0,.14,0,.28-.08.42h9.67C59.6,84.45,59.63,84.31,59.65,84.17Z"/><path class="cls-9" d="M59,86.19H49.3c-.08.14-.17.28-.26.42h9.67C58.8,86.47,58.89,86.33,59,86.19Z"/><path class="cls-9" d="M57.33,88.21H47.66l-.41.42h9.67Z"/><path class="cls-9" d="M55.58,90.23H45.91c-.1.14-.19.28-.28.43H55.3C55.39,90.51,55.48,90.37,55.58,90.23Z"/><path class="cls-9" d="M54.58,92.25H44.91c0,.14-.08.28-.12.43h9.67A3,3,0,0,1,54.58,92.25Z"/><path class="cls-9" d="M54.3,94.28H44.63c0,.13,0,.27,0,.42h9.67C54.3,94.55,54.3,94.41,54.3,94.28Z"/><path class="cls-10" d="M49.34,75.61c-.09-.13-.63.31-.7.43a2.93,2.93,0,0,0-.4.53l-.27.55a3.18,3.18,0,0,0-.08.33,1.66,1.66,0,0,1-.29.44s0,.06-.05.12a1.41,1.41,0,0,1,.35.59,2.13,2.13,0,0,1,.27-.22c.08,0,.63-.26.72-.3a2,2,0,0,0,.52-.31c.06,0,.3-.12.27-.21s-.36-.08-.43-.07a1.85,1.85,0,0,1-.59.13.29.29,0,0,1-.17-.38,1,1,0,0,1,.34-.48l.54-.49c.29-.25.16-.43-.1-.26-.06,0-.47.37-.51.39l.11-.12C49,76.09,49.45,75.78,49.34,75.61Z"/><path class="cls-10" d="M37.86,70.87l.06.11a5.75,5.75,0,0,0,.72,1c.16.17.45.33.59.5l.18.2a17,17,0,0,0-.89,2.51s-1.74-.52-2.22-1.39A18.74,18.74,0,0,0,37.86,70.87Z"/><path class="cls-11" d="M38.14,74.05a2.66,2.66,0,0,0-.5-1.52,4.79,4.79,0,0,0-.36-.41,9.66,9.66,0,0,0,.58-1.25l.06.11a5.75,5.75,0,0,0,.72,1c.16.17.45.33.59.5l.18.2a17,17,0,0,0-.89,2.51,6.26,6.26,0,0,1-.68-.26A1.33,1.33,0,0,0,38.14,74.05Z"/><path class="cls-3" d="M31.39,103s-.26,1.77,0,2,3.94.52,4.26.2.16-.89-.61-1.12-1.23,0-1.75-.28-.35-1-.35-1Z"/><path class="cls-3" d="M37.58,103s-.27,1.77,0,2,3.94.52,4.26.2.16-.89-.61-1.12-1.23,0-1.74-.28-.35-1-.35-1Z"/><path class="cls-6" d="M30.81,93.06A54.48,54.48,0,0,1,29.92,83a4.72,4.72,0,0,1,1.83,0c1.17.32,2.34.61,3.5.91a72.27,72.27,0,0,0-1.56,9.56c0,1.6-.43,10-.43,10l-2.12,0C31,102.33,30.89,93.48,30.81,93.06Z"/><path class="cls-1" d="M33.39,83.51a17.43,17.43,0,0,0,1.87.43,75.92,75.92,0,0,0-1.57,9.53c-.41-.78-2-3.57-2.86-5.69a11.82,11.82,0,0,1-.91-4.47v0A8.65,8.65,0,0,1,33.39,83.51Z"/><path class="cls-6" d="M32,83c.79.23,2.22.54,3.3.88.82,1.85,3.1,6.76,3.53,8.72.61,2.71.61,10.82.61,10.82l-2.06,0s-1.4-9.19-1.65-9.83c-1-2.57-2.83-4.36-3.54-5.57A15.32,15.32,0,0,1,30,82.58C30.65,82.73,31.3,82.79,32,83Z"/><path class="cls-4" d="M37,76c.44-.88.1-1.5,1-1.2,1.54.5,3,3.81,3.9,4,1.24.29,5.8-1.28,5.8-1.28l.47,1.16s-6,2.63-7,2.38-3.57-3.07-4.2-4A1.05,1.05,0,0,1,37,76Z"/><path class="cls-12" d="M37,76c.44-.88.1-1.5,1-1.2,1.54.5,3,3.81,3.9,4,1.24.29,5.8-1.28,5.8-1.28l.47,1.16s-6,2.63-7,2.38-3.57-3.07-4.2-4A1.05,1.05,0,0,1,37,76Z"/><path class="cls-4" d="M36.09,85.22a16.19,16.19,0,0,1-3.67-.69c-1.33-.44-2.48-1.19-2.67-1.76,0,0,2.11-5.49,3.57-7.36a4.51,4.51,0,0,1,3.16-1.91,5.64,5.64,0,0,0,2.15,1.24s-1,4.08-1.39,5.69S36.09,85.22,36.09,85.22Z"/><path class="cls-12" d="M35.65,79a8,8,0,0,1,.15-2.73,2.75,2.75,0,0,1,.26.22,5.87,5.87,0,0,0,1.59,1.22l.25.07c-.24,1-.49,2-.66,2.62-.45,1.61-1.15,4.79-1.15,4.79s-.52,0-1.28-.14A14.15,14.15,0,0,0,35.65,79Z"/><path class="cls-10" d="M38,68.39s1.47-1,2.33-.47,1.36,1,1.29,1.45a10.41,10.41,0,0,0-.38,2c0,.48.26,1.22.16,1.38s-.65-.08-.71,0-1,1-1.26,1.07a4.3,4.3,0,0,1-1.58-2.3C37.88,70.8,37.4,69.26,38,68.39Z"/><path class="cls-3" d="M39.77,69.53c.12.31.58.85,1.77,1s2-2.31-.07-3.27-2.4-.2-2.85-.24a1.58,1.58,0,0,0-1.25.31A2.2,2.2,0,0,0,36.68,70c.47,1.37,1.18,1.58,1.18,1.58.18-.23.39-.66.25-.91a1.48,1.48,0,0,1-.24-.36.45.45,0,0,1,.74-.44c.2.15.09.6.14.82s.17.24.26.26.53-.37.47-1C39.44,69.52,39.65,69.22,39.77,69.53Z"/><path class="cls-10" d="M45.47,85.37a1.29,1.29,0,0,1,.22.06.93.93,0,0,0,.49.13,1.94,1.94,0,0,1,.87.11c.12.08.84.57.52.82,0,0-.17.07-.19.05l-.27-.24a2.36,2.36,0,0,1,.18.17.91.91,0,0,1,.08.13c0,.08-.11.2-.18.2s-.11-.09-.15-.15h0c0,.06.15.14,0,.28s-.17,0-.24,0l-.08-.07a.91.91,0,0,1,.13.16c0,.09-.2.25-.34.18s-.25-.26-.31-.27L46,86.85a1.08,1.08,0,0,1-.49-.32l-.25-.24a1.59,1.59,0,0,1-.23-.31A1.17,1.17,0,0,0,45.47,85.37Z"/><path class="cls-4" d="M45.11,86.49l1-1.28S42.62,82,41.33,80.34s-2.53-4.75-3.62-5-2.25.18-1.78,1.78,3.49,4,4.08,4.73A66.22,66.22,0,0,0,45.11,86.49Z"/></g></g></svg>