<svg xmlns="http://www.w3.org/2000/svg" viewBox="0 0 76.52 45.39"><defs><style>.cls-1{fill:#ff3600;}</style></defs><g id="Layer_2" data-name="Layer 2"><g id="Layer_1-2" data-name="Layer 1"><path class="cls-1" d="M60.43,0,58.7,1H55.76L54,0H2.78A2.77,2.77,0,0,0,0,2.78V42.61a2.77,2.77,0,0,0,2.78,2.78H53.22l2.54-1H58.7l2.64,1h12.4a2.77,2.77,0,0,0,2.78-2.78V2.78A2.77,2.77,0,0,0,73.74,0ZM37,35l-8-4.19L21,35l1.52-8.87L16.12,19.8,25,18.51l4-8.07,4,8.07,8.91,1.29-6.44,6.28ZM58.7,43H55.76V41.91H58.7Zm0-4.39H55.76V37.52H58.7Zm0-4.4H55.76V33.12H58.7Zm0-4.39H55.76V28.73H58.7Zm0-4.4H55.76V24.33H58.7Zm0-4.39H55.76V19.94H58.7Zm0-4.4H55.76V15.54H58.7Zm0-4.39H55.76V11.15H58.7Zm0-4.4H55.76V6.75H58.7Zm0-4.39H55.76V2.36H58.7Z"/></g></g></svg>