<svg xmlns="http://www.w3.org/2000/svg" viewBox="0 0 52.31 51.85"><defs><style>.cls-1{fill:#102f3a;}.cls-2{fill:#ffd3ae;}.cls-3{fill:#fff;}</style></defs><g id="Layer_2" data-name="Layer 2"><g id="Layer_1-2" data-name="Layer 1"><path class="cls-1" d="M13,18.24c-1.65-.46-2.44-1.16-2.63-2.38a2.55,2.55,0,0,1,.54-2,1.22,1.22,0,0,0,.25-.66c.3-6.39,4.49-11.15,10.81-12,7.53-1,12.45,3.45,14,8.45a30.49,30.49,0,0,1,.6,3.46,2,2,0,0,0,.28.77,2.52,2.52,0,0,1-.74,3.79.79.79,0,0,0-.37.52.73.73,0,0,0,.37.5,2.94,2.94,0,0,1-.86,5.6.64.64,0,0,0-.6.5,12.66,12.66,0,0,1-6.11,7.25.78.78,0,0,0-.39.57.84.84,0,0,0,.44.55c2,.94,4.06,1.83,6.07,2.77A8.6,8.6,0,0,1,39.93,44c.06,2.25,0,4.5,0,6.75,0,.82-.26,1.07-1.08,1.07h-30c-.81,0-1.06-.27-1.07-1.09,0-2.25,0-4.51,0-6.75a8.5,8.5,0,0,1,5-7.92c2.07-1,4.2-1.91,6.3-2.89a1,1,0,0,0,.49-.58.77.77,0,0,0-.39-.93,12.3,12.3,0,0,1-5.33-6.83.66.66,0,0,0-.61-.55,3.07,3.07,0,0,1-2.5-2.5,3,3,0,0,1,1.7-3.09A2.56,2.56,0,0,0,13,18.24Zm6.15-.31a3.93,3.93,0,0,0-1.47.29,14.92,14.92,0,0,1-4.33,2,1.24,1.24,0,0,0-.87,1.39,1.42,1.42,0,0,0,1.34,1.08c1.18-.1,1.23-.05,1.53,1.05a10.79,10.79,0,0,0,6.56,7.48,5.34,5.34,0,0,0,3.93.14,10.85,10.85,0,0,0,7.41-7.81c.25-.9.48-1,1.37-.9a1.36,1.36,0,0,0,.6,0A1.27,1.27,0,0,0,36,20.91a1.47,1.47,0,0,0-1.89-.68,10.85,10.85,0,0,1-5.23,1,15.2,15.2,0,0,1-7.57-2.62A3.42,3.42,0,0,0,19.16,17.93Zm15.65-5a10.24,10.24,0,0,0-5.55-8.85,11.22,11.22,0,0,0-11.92.73,10.19,10.19,0,0,0-4.44,8.12ZM16.14,36.44l-2.2,1a7,7,0,0,0-4.43,6.89c0,1.73,0,3.46,0,5.2,0,.2,0,.4,0,.62h4.2v-.79c0-.86,0-1.73,0-2.59a.75.75,0,0,1,.84-.79.75.75,0,0,1,.81.76c0,.25,0,.5,0,.75v2.65H23V39.32c-.88,1.22-1.64,2.34-2.47,3.41a1.67,1.67,0,0,1-1,.63c-.5.08-.69-.41-.86-.82Zm15.52,0c-.13.26-.22.44-.3.63Q30.19,39.83,29,42.62c-.42,1-1.11,1.06-1.74.2l-1-1.36-1.5-2.1V50.13H33.2v-.67c0-.81,0-1.61,0-2.42S33.48,46,34,46s.85.36.86,1.11v3.07H38.2c0-2.33.1-4.62,0-6.9A6.34,6.34,0,0,0,35,38.1C34,37.44,32.81,37,31.66,36.41ZM23.87,14.65H13.4c-1,0-1.38.28-1.36.87s.43.83,1.35.83h21a3.07,3.07,0,0,0,.68-.05.77.77,0,0,0,.63-.87.79.79,0,0,0-.74-.77,3.51,3.51,0,0,0-.56,0Zm4,20.06a4.52,4.52,0,0,1-2.5,2.52l2.58,3.6,2.16-5.09Zm-8,6.12,2.58-3.61a4.42,4.42,0,0,1-2.5-2.5l-2.24,1ZM34,18.22l-.13-.15H24a10.08,10.08,0,0,0,2.21,1,9.65,9.65,0,0,0,7.4-.43A2.55,2.55,0,0,0,34,18.22ZM26.4,33a7,7,0,0,1-5-.15,2.57,2.57,0,0,0,1.08,2.53,2.38,2.38,0,0,0,2.74.09A2.49,2.49,0,0,0,26.4,33Z"/><path class="cls-1" d="M45.87,37.48c0-2.41,0-4.71,0-7a.94.94,0,0,0-.3-.57c-.58-.61-1.18-1.21-1.8-1.78a1.06,1.06,0,0,1-.28-1.28c.53-1.28,1-2.56,1.54-3.85a1,1,0,0,1,1.08-.73h.07c2.23,0,1.91-.14,2.68,1.76.37.93.73,1.87,1.12,2.8a1.06,1.06,0,0,1-.26,1.29c-.63.6-1.24,1.21-1.84,1.84a.88.88,0,0,0-.27.51c0,2.31,0,4.62,0,7h1.49c.73,0,1,.3,1,1,0,3.34,0,6.68,0,10a3.36,3.36,0,0,1-6.72.06c0-3.39,0-6.77,0-10.16,0-.64.31-.92,1-1h1.56ZM45,39.19v.67c0,2.73,0,5.45,0,8.17a3.56,3.56,0,0,0,.1.92,1.66,1.66,0,0,0,3.14.17,2.84,2.84,0,0,0,.15-1c0-2.81,0-5.61,0-8.42,0-.18,0-.35,0-.55Zm1.75-10.53c.44-.45.87-.87,1.27-1.32a.58.58,0,0,0,.11-.47c-.33-.89-.69-1.77-1.06-2.64a.46.46,0,0,0-.34-.26.57.57,0,0,0-.4.26c-.19.37-.32.76-.47,1.14C45.13,27.25,45.13,27.25,46.77,28.66Z"/><path class="cls-1" d="M0,29a5.14,5.14,0,0,1,3.83-5,5.31,5.31,0,0,1,6,2.41A4.94,4.94,0,0,1,9,32.6a3.77,3.77,0,0,0-.94,2.59c-.1.87-.17,1.75-.29,2.62A2.55,2.55,0,0,1,5.15,40a2.62,2.62,0,0,1-2.43-2.51,30.87,30.87,0,0,0-.44-3.59,2.87,2.87,0,0,0-.78-1.28A5.22,5.22,0,0,1,0,29Zm5.26.64c.38-.43.69-.81,1-1.16a.82.82,0,0,1,1.26-.06.84.84,0,0,1-.08,1.26,13.59,13.59,0,0,0-1,1,1.6,1.6,0,0,0-.37.84c0,1,0,1.94,0,2.91a3.78,3.78,0,0,0,.06.47h.16a1.77,1.77,0,0,0,.12-.37,4.5,4.5,0,0,1,1.49-3.28,3.08,3.08,0,0,0,.8-3.14,3.52,3.52,0,0,0-3.13-2.59A3.63,3.63,0,0,0,2,27.63a3.34,3.34,0,0,0,.84,3.9A3.8,3.8,0,0,1,4,34c0,.33.1.66.16,1,.13-.11.21-.15.21-.19,0-1.7.6-3.57-1.14-4.89A1.74,1.74,0,0,1,3,29.61.8.8,0,0,1,3,28.4a.79.79,0,0,1,1.2.11C4.55,28.84,4.84,29.19,5.26,29.66Zm-.82,7c0,.57-.2,1.17.39,1.49a1.05,1.05,0,0,0,.9,0c.57-.33.36-.93.35-1.48Z"/><path class="cls-1" d="M46.58,10.79c.52,0,1,0,1.38,0a.81.81,0,0,1,.69,1.28c-.08.14-.18.27-.28.41l-5.57,7.8-.18.25a.85.85,0,0,1-1.5-.81q.85-2.34,1.7-4.7c.08-.21.15-.42.26-.74H41.44c-.94,0-1.3-.66-.79-1.45,1.75-2.75,3.52-5.48,5.27-8.23a.88.88,0,0,1,1.15-.45c.49.2.56.63.46,1.14-.31,1.62-.6,3.24-.89,4.86C46.61,10.34,46.6,10.52,46.58,10.79ZM45.09,9.23,45,9.18l-2.15,3.35a7.56,7.56,0,0,1,1.82.2c.73.29.43,1,.35,1.55l1.27-1.78-.44,0c-1,0-1.27-.34-1.1-1.36C44.86,10.48,45,9.85,45.09,9.23Z"/><path class="cls-1" d="M5.68,9.57a3,3,0,0,1,0-5.92,3,3,0,1,1,0,5.92Zm0-1.71A1.23,1.23,0,0,0,7,6.61a1.26,1.26,0,0,0-2.51,0A1.23,1.23,0,0,0,5.7,7.86Z"/><path class="cls-1" d="M39.1,3.47c-.37.42-.63.75-.92,1a.8.8,0,0,1-1.21,0,.77.77,0,0,1,0-1.2c.28-.3.6-.56,1-.95-.38-.34-.71-.59-1-.88A.82.82,0,0,1,37,.24a.89.89,0,0,1,1.27.07c.15.14.3.29.44.44s.24.28.44.53c.33-.37.59-.68.88-1A.86.86,0,0,1,41.25.24a.83.83,0,0,1-.07,1.26c-.27.28-.59.51-1,.88.43.36.76.61,1,.9a.83.83,0,0,1,.06,1.26A.88.88,0,0,1,40,4.45C39.7,4.18,39.46,3.87,39.1,3.47Z"/><path class="cls-1" d="M51.36,3.34a.94.94,0,0,1-.93-.95.94.94,0,1,1,.93.95Z"/><path class="cls-2" d="M19.16,17.93a3.42,3.42,0,0,1,2.19.71,15.2,15.2,0,0,0,7.57,2.62,10.85,10.85,0,0,0,5.23-1,1.47,1.47,0,0,1,1.89.68,1.27,1.27,0,0,1-.81,1.69,1.36,1.36,0,0,1-.6,0c-.89-.14-1.12,0-1.37.9a10.85,10.85,0,0,1-7.41,7.81,5.34,5.34,0,0,1-3.93-.14,10.79,10.79,0,0,1-6.56-7.48c-.3-1.1-.35-1.15-1.53-1.05a1.42,1.42,0,0,1-1.34-1.08,1.24,1.24,0,0,1,.87-1.39,14.92,14.92,0,0,0,4.33-2A3.93,3.93,0,0,1,19.16,17.93Zm.93,3.91a.85.85,0,1,0,.83.82A.87.87,0,0,0,20.09,21.84Zm8.44,0a.85.85,0,0,0,0,1.69.87.87,0,0,0,.84-.82A.85.85,0,0,0,28.53,21.84Z"/><path class="cls-2" d="M23.87,14.65H34.4a3.51,3.51,0,0,1,.56,0,.79.79,0,0,1,.74.77.77.77,0,0,1-.63.87,3.07,3.07,0,0,1-.68.05h-21c-.92,0-1.33-.25-1.35-.83s.41-.87,1.36-.87Z"/><path class="cls-2" d="M27.84,34.71l2.24,1-2.16,5.09-2.58-3.6A4.52,4.52,0,0,0,27.84,34.71Z"/><path class="cls-2" d="M19.84,40.83l-2.16-5.09,2.24-1a4.42,4.42,0,0,0,2.5,2.5Z"/><path class="cls-2" d="M34,18.22a2.55,2.55,0,0,1-.47.4,9.65,9.65,0,0,1-7.4.43,10.08,10.08,0,0,1-2.21-1h10Z"/><path class="cls-2" d="M26.4,33a2.49,2.49,0,0,1-1.22,2.47,2.38,2.38,0,0,1-2.74-.09,2.57,2.57,0,0,1-1.08-2.53A7,7,0,0,0,26.4,33Z"/><path class="cls-2" d="M45,39.19h3.36c0,.2,0,.37,0,.55,0,2.81,0,5.61,0,8.42a2.84,2.84,0,0,1-.15,1A1.66,1.66,0,0,1,45.12,49,3.56,3.56,0,0,1,45,48c0-2.72,0-5.44,0-8.17Z"/><path class="cls-2" d="M46.77,28.66c-1.64-1.41-1.64-1.41-.89-3.29.15-.38.28-.77.47-1.14a.57.57,0,0,1,.4-.26.46.46,0,0,1,.34.26c.37.87.73,1.75,1.06,2.64a.58.58,0,0,1-.11.47C47.64,27.79,47.21,28.21,46.77,28.66Z"/><path class="cls-2" d="M5.26,29.66c-.42-.47-.71-.82-1-1.15A.79.79,0,0,0,3,28.4.8.8,0,0,0,3,29.61a1.74,1.74,0,0,0,.28.32C5,31.25,4.34,33.12,4.39,34.82c0,0-.08.08-.21.19-.06-.39-.13-.72-.16-1a3.8,3.8,0,0,0-1.2-2.43A3.34,3.34,0,0,1,2,27.63a3.63,3.63,0,0,1,3.63-2.07,3.52,3.52,0,0,1,3.13,2.59,3.08,3.08,0,0,1-.8,3.14,4.5,4.5,0,0,0-1.49,3.28,1.77,1.77,0,0,1-.12.37H6.17a3.78,3.78,0,0,1-.06-.47c0-1,0-1.94,0-2.91a1.6,1.6,0,0,1,.37-.84,13.59,13.59,0,0,1,1-1,.84.84,0,0,0,.08-1.26.82.82,0,0,0-1.26.06C6,28.85,5.64,29.23,5.26,29.66Z"/><path class="cls-3" d="M4.44,36.67H6.08c0,.55.22,1.15-.35,1.48a1.05,1.05,0,0,1-.9,0C4.24,37.84,4.47,37.24,4.44,36.67Z"/><path class="cls-2" d="M45.09,9.23c-.11.62-.23,1.25-.34,1.87-.17,1,.08,1.32,1.1,1.36l.44,0L45,14.28c.08-.59.38-1.26-.35-1.55a7.56,7.56,0,0,0-1.82-.2L45,9.18Z"/><path class="cls-2" d="M5.7,7.86a1.25,1.25,0,1,1,0-2.5A1.25,1.25,0,0,1,7,6.61,1.23,1.23,0,0,1,5.7,7.86Z"/><path class="cls-1" d="M20.09,21.84a.85.85,0,1,1-.86.8A.87.87,0,0,1,20.09,21.84Z"/><path class="cls-1" d="M28.53,21.84a.85.85,0,0,1,.84.87.87.87,0,0,1-.84.82.85.85,0,0,1,0-1.69Z"/><path class="cls-1" d="M24.15,7.83c.49,0,.86,0,1.23.09A.82.82,0,0,1,26,9.33c-.8.86-1.63,1.69-2.47,2.51a.79.79,0,0,1-1.17,0,.81.81,0,0,1,0-1.21c.32-.33.71-.61,1.06-.91l-.14-.18c-.31,0-.61,0-.92-.09a.8.8,0,0,1-.61-1.28c.77-1,1.58-2,2.4-3a.76.76,0,0,1,1.12-.07.78.78,0,0,1,.14,1.16C25,6.78,24.61,7.25,24.15,7.83Z"/><path class="cls-1" d="M29.38,45.11h2a.81.81,0,0,1,.91.8c.05.48-.34.85-.91.86q-2,0-4.08,0c-.58,0-1-.38-.91-.86a.81.81,0,0,1,.91-.8Z"/></g></g></svg>