<svg xmlns="http://www.w3.org/2000/svg" viewBox="0 0 58.36 49.01"><defs><style>.cls-1{fill:#102f3a;}.cls-2{fill:#ffd3ae;}</style></defs><g id="Layer_2" data-name="Layer 2"><g id="Layer_1-2" data-name="Layer 1"><path class="cls-1" d="M58.36,48.44a1.34,1.34,0,0,1-1.27.57H1.24a3.39,3.39,0,0,1-.45,0A.86.86,0,0,1,0,48.1a.8.8,0,0,1,.77-.83,13.59,13.59,0,0,1,1.43,0c.91,0,1.82,0,2.81,0V34.79c0-1,.25-1.27,1.28-1.27H13.7c.94,0,1.22.29,1.22,1.23V47.2h3V29.62c0-1,.23-1.26,1.28-1.26h7.35c1,0,1.21.25,1.21,1.21,0,5.63,0,11.25,0,16.87v.76h3V31.07c0-1.19.21-1.4,1.39-1.4h7.24c1,0,1.28.24,1.28,1.27V47.2h3V22.3c0-1.24.19-1.44,1.41-1.44h7.23c.94,0,1.21.28,1.21,1.23V47.24c1.3,0,2.54,0,3.79,0a1.21,1.21,0,0,1,1.12.53Zm-6.7-1.24V22.68H45.4V47.2ZM26,47.21V30.15H19.69V47.21Zm12.81,0V31.48H32.52V47.2Zm-25.69,0V35.35H6.79V47.2Z"/><path class="cls-1" d="M40.52,8a8,8,0,1,1,16,.23A8.07,8.07,0,0,1,48.45,16,8,8,0,0,1,40.52,8Zm8-6.19A6.24,6.24,0,1,0,54.77,8,6.27,6.27,0,0,0,48.48,1.77Z"/><path class="cls-1" d="M44.81,17.79a1.83,1.83,0,0,1-.4.58Q39.85,22,35.27,25.63A1.15,1.15,0,0,1,34,25.7c-3.55-1.48-7.11-2.94-10.66-4.43a1,1,0,0,0-1.12.13q-5.55,4-11.12,7.94a2.36,2.36,0,0,1-.42.28.77.77,0,0,1-1-.2.83.83,0,0,1,0-1.1,2,2,0,0,1,.47-.4c3.91-2.79,7.82-5.57,11.72-8.38a1.4,1.4,0,0,1,1.52-.18c3.51,1.48,7,2.93,10.54,4.41A.94.94,0,0,0,35,23.61c2.7-2.18,5.43-4.34,8.15-6.5a1.67,1.67,0,0,1,.75-.35C44.4,16.68,44.79,17.07,44.81,17.79Z"/><path class="cls-2" d="M51.66,47.2H45.4V22.68h6.26Z"/><path class="cls-2" d="M26,47.21H19.69V30.15H26Z"/><path class="cls-2" d="M38.76,47.2H32.52V31.48h6.24Z"/><path class="cls-2" d="M13.07,47.2H6.79V35.35h6.28Z"/><path class="cls-2" d="M48.48,1.77A6.24,6.24,0,1,1,42.22,8,6.27,6.27,0,0,1,48.48,1.77Zm-.71,1.08a3,3,0,0,1,0,.68.71.71,0,0,1-.29.46,2.34,2.34,0,0,0-1.38,2.24,2.22,2.22,0,0,0,1.44,2.12A13.68,13.68,0,0,1,48.81,9a1.22,1.22,0,0,1,.52.63.9.9,0,0,1-1,1.12,20.89,20.89,0,0,1-2.29-.36l-.14,1.33L47,12c.91.22.91.22,1,1.14,0,0,0,.06.06.08h1.22a3.78,3.78,0,0,0,0-.59.58.58,0,0,1,.42-.68,2.26,2.26,0,0,0,1.4-2.16,2.25,2.25,0,0,0-1.39-2.11A15.56,15.56,0,0,1,48.25,7a1.17,1.17,0,0,1-.49-.74c-.09-.75.46-1.12,1.34-1,.36.07.72.17,1.12.26l.16-1.37-1.29-.32v-1Z"/><path class="cls-1" d="M47.77,2.85h1.32v1l1.29.32-.16,1.37c-.4-.09-.76-.19-1.12-.26-.88-.15-1.43.22-1.34,1a1.17,1.17,0,0,0,.49.74,15.56,15.56,0,0,0,1.43.68,2.25,2.25,0,0,1,1.39,2.11,2.26,2.26,0,0,1-1.4,2.16.58.58,0,0,0-.42.68,3.78,3.78,0,0,1,0,.59H48s-.06,0-.06-.08c-.08-.92-.08-.92-1-1.14l-1.08-.28.14-1.33a20.89,20.89,0,0,0,2.29.36.9.9,0,0,0,1-1.12A1.22,1.22,0,0,0,48.81,9a13.68,13.68,0,0,0-1.28-.61,2.22,2.22,0,0,1-1.44-2.12A2.34,2.34,0,0,1,47.47,4a.71.71,0,0,0,.29-.46A3,3,0,0,0,47.77,2.85Z"/></g></g></svg>