<svg xmlns="http://www.w3.org/2000/svg" viewBox="0 0 43.79 45.54"><defs><style>.cls-1{fill:#ff3600;}</style></defs><g id="Layer_2" data-name="Layer 2"><g id="Layer_1-2" data-name="Layer 1"><path class="cls-1" d="M4.09,45.54a6.53,6.53,0,0,1-.7-.35,2.2,2.2,0,0,1-1-2q0-5,0-10c0-1.86,0-3.71,0-5.56a2.19,2.19,0,0,1,2.43-2.42H19c.86,0,1.07.22,1.07,1.08q0,9.14,0,18.28a3.34,3.34,0,0,1-.24.9Z"/><path class="cls-1" d="M24,45.54c-.11-.24-.33-.48-.33-.72,0-6.19,0-12.39,0-18.59,0-.7.24-.95.93-.95,4.84,0,9.67,0,14.5,0a2.13,2.13,0,0,1,2.25,2.27q0,7.85,0,15.7a2.15,2.15,0,0,1-1.55,2.19,1.1,1.1,0,0,0-.14.09Z"/><path class="cls-1" d="M10.66,22.89H2.48A2.2,2.2,0,0,1,0,20.39v-6A2.17,2.17,0,0,1,2.42,12H19.1c.79,0,1,.2,1,1q0,4.43,0,8.85c0,.94-.12,1.06-1,1.06Z"/><path class="cls-1" d="M33.09,12c2.74,0,5.49,0,8.23,0a2.29,2.29,0,0,1,2.47,2.48c-.06,2,0,4,0,6.05a2.16,2.16,0,0,1-2.35,2.39H24.7c-.89,0-1-.15-1-1.05V13c0-.79.17-1,1-1Z"/><path class="cls-1" d="M12.68,10.4a11.08,11.08,0,0,1-4.75-1A4.63,4.63,0,0,1,5.37,4,4.82,4.82,0,0,1,7.55.68,5.81,5.81,0,0,1,11.12,0,13.91,13.91,0,0,1,16.56,2,14,14,0,0,1,20.21,4.7a4.72,4.72,0,0,1,.65.89,2.26,2.26,0,0,1-.52,2.9,6.31,6.31,0,0,1-2.65,1.29A19.27,19.27,0,0,1,12.68,10.4ZM17,6.49,17,6.28c-.81-.51-1.59-1.06-2.42-1.53a9.06,9.06,0,0,0-4.1-1.32c-.51,0-1.13-.1-1.42.41-.58,1-.76,2.16.68,2.67a11,11,0,0,0,4.74.38C15.31,6.81,16.13,6.63,17,6.49Z"/><path class="cls-1" d="M31.71,10.42a19.34,19.34,0,0,1-6.69-1,8.34,8.34,0,0,1-.8-.38,2.53,2.53,0,0,1-.66-4.28A14.72,14.72,0,0,1,27.28,2,13.72,13.72,0,0,1,32.73,0a5.71,5.71,0,0,1,3.56.65,4.8,4.8,0,0,1,2.23,3.72,4.65,4.65,0,0,1-3.67,5.43A29.1,29.1,0,0,1,31.71,10.42ZM26.83,6.27l.05.22c.81.14,1.62.31,2.43.4a11.7,11.7,0,0,0,4.33-.23C35.1,6.26,35.45,5.6,35,4.2c0,0,0-.1,0-.12a3.56,3.56,0,0,0-.78-.59,2.14,2.14,0,0,0-.88-.06A9,9,0,0,0,29.34,4.7C28.48,5.18,27.66,5.75,26.83,6.27Z"/></g></g></svg>