<svg xmlns="http://www.w3.org/2000/svg" viewBox="0 0 51.39 53.27"><defs><style>.cls-1{fill:#102f3a;}.cls-2{fill:#ffd3ae;}</style></defs><g id="Layer_2" data-name="Layer 2"><g id="Layer_1-2" data-name="Layer 1"><path class="cls-1" d="M46.34,53.27c-1-.14-2-.25-3-.42a26.52,26.52,0,0,1-6.77-2.13,1.29,1.29,0,0,0-.78-.08,48.9,48.9,0,0,1-13.1,1.27A23.37,23.37,0,0,1,11,48.16c-1.94-1.24-3.83-2.56-5.68-3.93a14.57,14.57,0,0,0-3.62-2C.41,41.75.09,41.14,0,39.76a22.69,22.69,0,0,1,1.2-7.09c2.2-8.21,4.47-16.4,6.7-24.6A2.39,2.39,0,0,1,9.33,6.45L23,.2c.75-.34,1-.27,1.51.38C26,2.49,27.48,4.39,29,6.31a2.62,2.62,0,0,1-.14,3.74l-3.95,4.42a2.55,2.55,0,0,1-3.93.2l-.82-.75-2.4.73.82,13.79c4.81-2.86,9.48-2.48,13.88.27l2.12-1.83c4.14-3.61,8.72-4.07,13.64-1.84a20.62,20.62,0,0,1,2.68,1.57A.9.9,0,0,1,51.2,28c-.32.42-.83.45-1.37.06a13.15,13.15,0,0,0-6.56-2.54,10,10,0,0,0-8.12,3.25c-.4.4-.77.84-1.17,1.27.31.39.6.74.86,1.1a7.37,7.37,0,0,1,1.44,3c.14.72-.1,1.21-.66,1.3s-.88-.22-1.07-.91a7.37,7.37,0,0,0-3-4.18,10.58,10.58,0,0,0-12.71.12,1.5,1.5,0,0,0-.43.61c-.35.8-.61,1.66-1,2.43a2.87,2.87,0,0,1-1.08,1A.82.82,0,0,1,15.18,34a.91.91,0,0,1,.33-1.15,1.59,1.59,0,0,0,.48-.52,6.26,6.26,0,0,0,.81-3.27c-.29-4.41-.53-8.82-.77-13.24a2.35,2.35,0,0,0-.6-1.22,2.6,2.6,0,0,1-.42-.76c-.13-.6.33-1,1-1a13.55,13.55,0,0,0,2.21-.19A3,3,0,0,0,19.35,12a1,1,0,0,1,1.31,0c.51.45,1,.92,1.49,1.37s.88.47,1.34,0c1.36-1.52,2.73-3,4.08-4.57.42-.48.44-.76.07-1.25q-2.05-2.68-4.12-5.36L23.4,2,16.7,5c-2.16,1-4.31,2-6.48,3a1,1,0,0,0-.66.77C7.84,15,6.09,21.2,4.41,27.43c-.91,3.39-1.73,6.81-2.53,10.23a11,11,0,0,0-.07,2.44c0,.11.12.23.2.33s.09,0,.14.07c2.55.72,4.42,2.53,6.51,4a40.49,40.49,0,0,0,6.75,4,22.72,22.72,0,0,0,9.5,1.71,50.45,50.45,0,0,0,11-1.39,1.57,1.57,0,0,1,1,.11,25.06,25.06,0,0,0,12.91,2.51c.22,0,.45,0,.68,0a.86.86,0,0,1,.89.77.85.85,0,0,1-.7,1c-.4.09-.81.12-1.22.18Z"/><path class="cls-1" d="M42.1,5.23l.55-.5A4.52,4.52,0,0,1,49,11.12c-2,2.13-4.15,4.18-6.24,6.26a.88.88,0,0,1-1.41,0c-2-2-4.08-4.05-6.09-6.11a4.53,4.53,0,0,1,6.38-6.42Zm0,10.31c1.93-1.92,3.84-3.75,5.69-5.66a2.7,2.7,0,0,0-.11-3.76A2.75,2.75,0,0,0,43.84,6c-.36.33-.68.69-1,1a.89.89,0,0,1-1.41,0c-.27-.26-.53-.54-.81-.8a2.76,2.76,0,1,0-3.91,3.89l2.38,2.39C40.06,13.52,41.06,14.52,42.07,15.54Z"/><path class="cls-1" d="M25.16,47.45c-5.94-.22-10.29-2.13-13.64-6.14-.23-.28-.44-.57-.64-.87a.89.89,0,1,1,1.46-1,13.8,13.8,0,0,0,4.16,3.93,15.42,15.42,0,0,0,9.34,2.22c1-.07,2.06-.26,3.09-.41.61-.1,1.07.14,1.17.64a.86.86,0,0,1-.82,1.08C27.66,47.16,26,47.35,25.16,47.45Z"/><path class="cls-1" d="M50.36,44.25a11.28,11.28,0,0,1-4.82-1.68,3.84,3.84,0,0,1-1.07-1.23.93.93,0,0,1,.37-1.41c.51-.23.87,0,1.25.65a1.94,1.94,0,0,0,.9.8c1.08.41,2.19.72,3.29,1.06.15.05.31.06.45.1a.86.86,0,0,1,.64,1A.9.9,0,0,1,50.36,44.25Z"/><path class="cls-2" d="M42.07,15.54c-1-1-2-2-3-3l-2.38-2.39a2.76,2.76,0,1,1,3.91-3.89c.28.26.54.54.81.8a.89.89,0,0,0,1.41,0c.36-.33.68-.69,1-1a2.75,2.75,0,0,1,3.81.09,2.7,2.7,0,0,1,.11,3.76C45.91,11.79,44,13.62,42.07,15.54Z"/></g></g></svg>