<svg xmlns="http://www.w3.org/2000/svg" viewBox="0 0 55.08 54.19"><defs><style>.cls-1{fill:#102f3a;}.cls-2{fill:#ffd3ae;}</style></defs><g id="Layer_2" data-name="Layer 2"><g id="Layer_1-2" data-name="Layer 1"><path class="cls-1" d="M0,35.28a1.7,1.7,0,0,1,1.64-.77c1.94,0,3.87,0,5.81,0,1.09,0,1.34.17,1.71,1.2l3.35-.55.1-.17c-.53-.49-1.09-1-1.6-1.49A15.34,15.34,0,0,1,8.3,16.12a1.12,1.12,0,0,1,.61-.6.85.85,0,0,1,.78.23,1.24,1.24,0,0,1,.07,1,14.27,14.27,0,0,0-1.3,4.41,13.45,13.45,0,0,0,3.44,11c.77.85,1.59,1.66,2.41,2.46a.85.85,0,0,0,.64.18c2.2-.35,4.39-.71,6.57-1.1a16.73,16.73,0,0,1,6.46.27c.87.19,1.77.29,2.63.5a4.39,4.39,0,0,1,3.47,3,3.2,3.2,0,0,1-2.68,4,11.17,11.17,0,0,1-2.77,0c-1.29-.1-2.56-.3-3.84-.47-.82-.11-1.28.17-1.41.86s.31,1.13,1.09,1.26c2.52.45,5,1,7.57,1.28A13.67,13.67,0,0,0,35.53,44c.13,0,.25-.19.36-.3C39.62,39.84,43.41,36.1,47,32.21S51.53,23.56,50,18.42a1.19,1.19,0,0,0-.08-.2s0,0-.07-.08a9.69,9.69,0,0,1-13.7-6.55,12.92,12.92,0,0,0-1.89,1c-1.15.85-2.27,1.74-3.34,2.7s-1.61,1.13-2.73,0a13.84,13.84,0,0,0-6.73-4.11A9.41,9.41,0,0,0,12,13.6c-.44.44-.87.47-1.23.13s-.34-.83.09-1.27A10.81,10.81,0,0,1,20.47,9.3a14.49,14.49,0,0,1,8.26,4.25l.7.67s.06,0,.11.08l1.16-1.1a14.7,14.7,0,0,1,4.82-3.06A.56.56,0,0,0,36,9.52a9.26,9.26,0,0,1,.89-4q.44-.9,1.14-.6c.48.21.59.66.32,1.28a8,8,0,1,0,8.32-4.5,7.75,7.75,0,0,0-5.83,1.47l-.26.19a.8.8,0,0,1-1.14-.18.76.76,0,0,1,.18-1.1A14.18,14.18,0,0,1,42.08.66,9.54,9.54,0,0,1,51.61,16.9a.6.6,0,0,0-.2.77c1.93,6,.87,11.42-3.55,16-3,3.1-6,6.14-9,9.2l-.43.49,3.85-.75c.86-.17,1.71-.4,2.58-.51a4.82,4.82,0,0,1,1.65.08,3,3,0,0,1,1.91,4.57,4.59,4.59,0,0,1-2.67,1.95L33,52.8c-1.07.35-2.15.67-3.23,1a11.08,11.08,0,0,1-6.2-.09c-4.71-1.3-9.43-2.57-14.14-3.85-.1,0-.21,0-.31-.06C8.77,50.8,8.52,51,7.44,51c-2,0-3.94,0-5.91,0A1.48,1.48,0,0,1,0,50.12ZM9.08,48l.42.15,14.81,4a8.79,8.79,0,0,0,5,0Q37.48,49.68,45.65,47a2.84,2.84,0,0,0,1.27-.93,1.37,1.37,0,0,0-1-2.36,3.09,3.09,0,0,0-1,0c-.56.09-1.12.24-1.68.35-2.7.54-5.4,1.09-8.11,1.58a11.31,11.31,0,0,1-3.4.35c-2.69-.34-5.37-.86-8-1.39a2.67,2.67,0,0,1,1-5.24c1.27.15,2.52.36,3.79.47a9.84,9.84,0,0,0,2.71,0,1.61,1.61,0,0,0,.85-2.76A3.09,3.09,0,0,0,30.3,36c-.84-.18-1.69-.31-2.53-.48a15.58,15.58,0,0,0-6-.29c-4.05.71-8.11,1.38-12.18,2-.48.08-.55.26-.55.69,0,1.79,0,3.58,0,5.37ZM7.45,36.17H1.64V49.31H7.45Z"/><path class="cls-1" d="M29.64,22.78l-2.92,5.1c-.54.95-1.16,1-1.75,0s-1.12-1.77-1.73-2.75c-.47.78-.91,1.47-1.31,2.18A1.16,1.16,0,0,1,20.8,28c-1.51,0-3,0-4.52,0-.67,0-1-.3-1-.83s.35-.78,1-.79c1.33,0,2.66,0,4,0a.84.84,0,0,0,.58-.33c.55-.85,1.06-1.74,1.59-2.61s1.12-.79,1.62,0l1.78,2.82c.15-.25.26-.43.36-.61l2.67-4.66c.5-.86,1.18-.86,1.66,0l3.74,6.82.33.55c.66-1.11,1.31-2.16,1.92-3.23a1.21,1.21,0,0,1,1.21-.69c2,0,4.09,0,6.13,0,.69,0,1,.28,1.05.8s-.36.81-1,.81c-1.81,0-3.62,0-5.43,0a.89.89,0,0,0-.91.54c-.69,1.21-1.42,2.41-2.14,3.6-.51.86-1.18.85-1.66,0-1.24-2.24-2.46-4.49-3.69-6.73Z"/><path class="cls-1" d="M44.71,8.75V6.59c0-.66.27-1,.77-1s.83.34.84,1,0,1.39,0,2.15h2a1.9,1.9,0,0,1,.68.09.79.79,0,0,1-.33,1.51H46.32c0,.75,0,1.44,0,2.13a1.21,1.21,0,0,1-.21.75.94.94,0,0,1-.78.26,1,1,0,0,1-.58-.71,9.83,9.83,0,0,1,0-1.88c0-.41-.09-.58-.53-.55s-1.19,0-1.78,0a.8.8,0,0,1-.89-.79.81.81,0,0,1,.89-.81C43.16,8.73,43.9,8.75,44.71,8.75Z"/><path class="cls-2" d="M9.08,48V43.34c0-1.79,0-3.58,0-5.37,0-.43.07-.61.55-.69,4.07-.66,8.13-1.33,12.18-2a15.58,15.58,0,0,1,6,.29c.84.17,1.69.3,2.53.48a3.09,3.09,0,0,1,1.81,1.08,1.61,1.61,0,0,1-.85,2.76,9.84,9.84,0,0,1-2.71,0c-1.27-.11-2.52-.32-3.79-.47a2.67,2.67,0,0,0-1,5.24c2.66.53,5.34,1.05,8,1.39a11.31,11.31,0,0,0,3.4-.35c2.71-.49,5.41-1,8.11-1.58.56-.11,1.12-.26,1.68-.35a3.09,3.09,0,0,1,1,0,1.37,1.37,0,0,1,1,2.36,2.84,2.84,0,0,1-1.27.93q-8.16,2.65-16.36,5.23a8.79,8.79,0,0,1-5,0l-14.81-4Z"/><path class="cls-2" d="M7.45,36.17V49.31H1.64V36.17Z"/></g></g></svg>