<svg xmlns="http://www.w3.org/2000/svg" viewBox="0 0 51.94 55.43"><defs><style>.cls-1{fill:#102f3a;}.cls-2{fill:#ffd3ae;}.cls-3{fill:#fff;}</style></defs><g id="Layer_2" data-name="Layer 2"><g id="Layer_1-2" data-name="Layer 1"><path class="cls-1" d="M37.23,0c.1,0,.19.09.29.12a3.12,3.12,0,0,1,2.21,3.07v6c1,.28,1,.28,1.1,1.26s.24,1.67.4,2.5a1,1,0,0,0,.39.48,1.34,1.34,0,0,0,1.89-.21c.54-.5,1.18-.88,1.77-1.33a.75.75,0,0,1,1.14.09c.93.93,1.86,1.87,2.8,2.79a.77.77,0,0,1,.09,1.18c-.56.73-1.08,1.49-1.65,2.21a.71.71,0,0,0-.11.92,1.18,1.18,0,0,1,.17.4c.07.41.36.51.73.56.93.12,1.85.28,2.78.41a.74.74,0,0,1,.71.84c0,1.34,0,2.67,0,4a.76.76,0,0,1-.75.86c-.95.13-1.89.3-2.84.42-.35,0-.48.22-.64.52a1.31,1.31,0,0,0,.22,1.72,20.6,20.6,0,0,1,1.37,1.82c.37.51.36.73-.08,1.17-.94.95-1.89,1.88-2.82,2.84a.74.74,0,0,1-1.1.08c-.78-.59-1.57-1.15-2.35-1.74a.78.78,0,0,0-.77-.1c-.82.19-1,.71-1.08,1.47s-.2,1.28-.29,1.92c-.12.89-.17.94-1.08,1.1V52a3.12,3.12,0,0,1-3.44,3.41H11.88A3.13,3.13,0,0,1,8.43,52c0-2.45,0-4.9,0-7.36a2.36,2.36,0,0,0-.23-.71A4.11,4.11,0,0,1,8,43.34c-.09-.55-.16-1.11-.24-1.66a.72.72,0,0,0-1.23-.52l-1.48,1.1a.69.69,0,0,1-1-.09L2,40.11a.68.68,0,0,1-.06-1c.39-.52.78-1,1.15-1.57a.7.7,0,0,0-.44-1.1c-.6-.11-1.21-.19-1.82-.27S0,35.87,0,35.28c0-.92,0-1.84,0-2.76a.74.74,0,0,1,.71-.85c.63-.08,1.25-.18,1.87-.28a.71.71,0,0,0,.47-1.12L2,28.83c-.41-.57-.39-.74.11-1.25l1.84-1.84c.48-.47.68-.49,1.21-.11l1.4,1a.72.72,0,0,0,1.2-.51c.09-.51.14-1,.25-1.55.06-.28.23-.54.32-.82a2.17,2.17,0,0,0,.1-.62c0-6.42.05-12.84,0-19.26C8.39,2,9,.62,10.92,0ZM36.05,47.6V37.37c-.87-.16-.89-.17-1-1s-.27-1.74-.39-2.62c0-.31-.13-.54-.47-.62a1.86,1.86,0,0,1-.55-.22.57.57,0,0,0-.73.07c-.77.6-1.57,1.15-2.34,1.75a.76.76,0,0,1-1.14-.09c-.92-.94-1.86-1.87-2.79-2.8-.44-.44-.46-.68-.1-1.18s.86-1.25,1.36-1.82a1.31,1.31,0,0,0,.23-1.76c-.16-.26-.28-.44-.61-.49-1-.13-2-.29-2.94-.44a.68.68,0,0,1-.66-.76q0-2.09,0-4.17a.67.67,0,0,1,.67-.75c1-.13,1.89-.3,2.84-.42.36-.05.61-.15.69-.54a1.39,1.39,0,0,1,.19-.45c.23-.33.11-.58-.11-.86-.57-.74-1.11-1.51-1.68-2.26a.77.77,0,0,1,.09-1.14c1-.93,1.9-1.88,2.84-2.83a.74.74,0,0,1,1.1-.09c.59.44,1.22.84,1.77,1.33a1.41,1.41,0,0,0,1.9.27.77.77,0,0,0,.44-.6c.11-.82.24-1.64.35-2.46.08-.65.18-1.27,1.07-1.14V5.5H12.12c0,.11,0,.18,0,.25q0,8.82,0,17.64a1.18,1.18,0,0,0,.1.4,5,5,0,0,1,.32.77c.11.53.17,1.07.25,1.61a.71.71,0,0,0,1.2.48c.48-.35,1-.7,1.44-1.06a.74.74,0,0,1,1.1.08c.65.67,1.32,1.33,2,2a.74.74,0,0,1,.08,1.1c-.38.5-.76,1-1.13,1.52a.71.71,0,0,0,.49,1.11l1.87.29a.69.69,0,0,1,.68.8c0,.94,0,1.87,0,2.81a.75.75,0,0,1-.75.86c-.59.08-1.18.16-1.77.26a.72.72,0,0,0-.49,1.18l1.1,1.48a.7.7,0,0,1-.07,1l-2,2a.72.72,0,0,1-1.1.06c-.47-.36-1-.71-1.44-1.06a.71.71,0,0,0-1.2.5,6.6,6.6,0,0,1-.38,2.06,3.28,3.28,0,0,0-.28,1.58c0,.77,0,1.54,0,2.31ZM48,31.07c-.57-.78-1.16-1.6-1.78-2.4a1,1,0,0,1-.11-1.18,4.07,4.07,0,0,0,.48-1.14c.16-.74.61-1,1.3-1,.91-.09,1.81-.27,2.71-.41V21.66c-1-.15-2-.31-3-.44a1,1,0,0,1-.94-.73,5.47,5.47,0,0,0-.51-1.25,1.14,1.14,0,0,1,.14-1.47c.6-.75,1.15-1.55,1.65-2.22l-2.33-2.33c-.77.57-1.6,1.17-2.42,1.79a.89.89,0,0,1-1,.1c-.49-.24-1-.44-1.54-.64a.83.83,0,0,1-.62-.72q-.18-1.37-.42-2.73c0-.16-.21-.42-.33-.42-1,0-2,0-3,0-.16,1.05-.32,2-.45,3a1,1,0,0,1-.73.88,8.6,8.6,0,0,0-1.4.58A1,1,0,0,1,32.52,15c-.79-.61-1.62-1.19-2.39-1.76l-2.32,2.31c.58.78,1.18,1.62,1.8,2.43a1,1,0,0,1,.09,1.14,6.3,6.3,0,0,0-.54,1.29,1.06,1.06,0,0,1-1,.86c-1,.11-1.95.29-2.91.43v3.26c1,.15,1.95.3,2.91.43a1,1,0,0,1,1,.81,5.39,5.39,0,0,0,.53,1.29,1,1,0,0,1-.1,1.24c-.62.79-1.2,1.61-1.77,2.37l2.33,2.32c.72-.53,1.51-1.07,2.25-1.67a1.1,1.1,0,0,1,1.46-.15,4.88,4.88,0,0,0,1.2.49,1,1,0,0,1,.78,1c.13,1,.3,2,.46,3,1,0,1.88,0,2.8,0,.38,0,.49-.14.53-.49.1-.84.26-1.67.36-2.51a1,1,0,0,1,.83-1,5.15,5.15,0,0,0,1.24-.51,1,1,0,0,1,1.28.11c.79.62,1.61,1.2,2.36,1.76Zm-9.58,6.28h-1V47.67c0,1.09-.16,1.26-1.24,1.26H12.43c-1.65,0-1.65,0-1.65-1.66V44.19h-1V52a1.84,1.84,0,0,0,2.11,2.12H36.31A1.84,1.84,0,0,0,38.43,52V37.35ZM19.18,32.9c-.52-.08-1-.18-1.44-.21-.8,0-1.39-.3-1.53-1.19A1.54,1.54,0,0,0,16,31a.81.81,0,0,1,.09-1c.41-.54.81-1.09,1.19-1.61l-1.41-1.46a14.47,14.47,0,0,0-1.25.93,1.26,1.26,0,0,1-1.74.21,2,2,0,0,0-.6-.24.88.88,0,0,1-.7-.85c-.07-.65-.2-1.3-.3-2h-.83c-1.19,0-1.24,0-1.34,1.2-.08,1-.36,1.67-1.41,1.84a.8.8,0,0,0-.25.11A1,1,0,0,1,6.15,28c-.47-.38-1-.73-1.43-1.06L3.27,28.37a14,14,0,0,0,.85,1.14,1.34,1.34,0,0,1,.21,1.88,1.44,1.44,0,0,0-.19.5.86.86,0,0,1-.84.71c-.66.08-1.31.2-2,.31v1c0,1.07,0,1.12,1.06,1.2s1.87.35,2.05,1.53a.84.84,0,0,0,.13.29.8.8,0,0,1-.09,1c-.41.54-.8,1.09-1.16,1.58l1.38,1.5a12.5,12.5,0,0,0,1.14-.85,1.39,1.39,0,0,1,2-.23,1.23,1.23,0,0,0,.45.17A.89.89,0,0,1,9,40.9c.06.53.13,1.07.24,1.6a.52.52,0,0,0,.35.34c.56,0,1.11,0,1.7,0a13.36,13.36,0,0,0,.21-1.43c0-.82.32-1.42,1.22-1.57a1.86,1.86,0,0,0,.54-.24.8.8,0,0,1,1,.09c.54.41,1.1.81,1.76,1.29a8.67,8.67,0,0,1,.62-.74,10.12,10.12,0,0,1,.79-.65c-.5-.67-.92-1.19-1.27-1.75a1.06,1.06,0,0,1-.18-.78c.55-1.77.57-1.74,2.36-2,1.1-.16.9.1.92-1C19.19,33.66,19.18,33.32,19.18,32.9Zm-8.4-9.26V5.32c0-1,.17-1.16,1.17-1.16H35.87c1.47,0,1.51,0,1.51,1.53v3c0,.19,0,.38,0,.57h1V3.38a1.83,1.83,0,0,0-2.1-2.08H11.82A1.83,1.83,0,0,0,9.73,3.39V23.64Z"/><path class="cls-2" d="M48,31.07l-2.32,2.32c-.75-.56-1.57-1.14-2.36-1.76a1,1,0,0,0-1.28-.11,5.15,5.15,0,0,1-1.24.51A1,1,0,0,0,40,33c-.1.84-.26,1.67-.36,2.51,0,.35-.15.5-.53.49-.92,0-1.84,0-2.8,0-.16-1-.33-2-.46-3a1,1,0,0,0-.78-1,4.88,4.88,0,0,1-1.2-.49,1.1,1.1,0,0,0-1.46.15c-.74.6-1.53,1.14-2.25,1.67l-2.33-2.32c.57-.76,1.15-1.58,1.77-2.37a1,1,0,0,0,.1-1.24,5.39,5.39,0,0,1-.53-1.29,1,1,0,0,0-1-.81c-1-.13-1.92-.28-2.91-.43V21.66c1-.14,1.93-.32,2.91-.43a1.06,1.06,0,0,0,1-.86,6.3,6.3,0,0,1,.54-1.29,1,1,0,0,0-.09-1.14c-.62-.81-1.22-1.65-1.8-2.43l2.32-2.31c.77.57,1.6,1.15,2.39,1.76a1,1,0,0,0,1.18.12,8.6,8.6,0,0,1,1.4-.58,1,1,0,0,0,.73-.88c.13-1,.29-2,.45-3,1,0,2,0,3,0,.12,0,.3.26.33.42q.24,1.37.42,2.73a.83.83,0,0,0,.62.72c.52.2,1,.4,1.54.64a.89.89,0,0,0,1-.1c.82-.62,1.65-1.22,2.42-1.79L48,15.55c-.5.67-1,1.47-1.65,2.22a1.14,1.14,0,0,0-.14,1.47,5.47,5.47,0,0,1,.51,1.25,1,1,0,0,0,.94.73c1,.13,2,.29,3,.44v3.25c-.9.14-1.8.32-2.71.41-.69.07-1.14.29-1.3,1a4.07,4.07,0,0,1-.48,1.14,1,1,0,0,0,.11,1.18C46.85,29.47,47.44,30.29,48,31.07Zm-4.24-7.75a5.87,5.87,0,1,0-5.87,5.82A5.86,5.86,0,0,0,43.77,23.32Z"/><path class="cls-2" d="M38.43,37.35V52a1.84,1.84,0,0,1-2.12,2.11H11.84A1.84,1.84,0,0,1,9.73,52V44.19h1v3.08c0,1.66,0,1.66,1.65,1.66H36.14c1.08,0,1.24-.17,1.24-1.26V37.35ZM24.06,49.57a2,2,0,1,0,2,1.92A2,2,0,0,0,24.06,49.57Z"/><path class="cls-2" d="M19.18,32.9c0,.42,0,.76,0,1.1,0,1.15.18.89-.92,1-1.79.28-1.81.25-2.36,2a1.06,1.06,0,0,0,.18.78c.35.56.77,1.08,1.27,1.75a10.12,10.12,0,0,0-.79.65,8.67,8.67,0,0,0-.62.74c-.66-.48-1.22-.88-1.76-1.29a.8.8,0,0,0-1-.09,1.86,1.86,0,0,1-.54.24c-.9.15-1.18.75-1.22,1.57a13.36,13.36,0,0,1-.21,1.43c-.59,0-1.14,0-1.7,0a.52.52,0,0,1-.35-.34C9.09,42,9,41.43,9,40.9A.89.89,0,0,0,8.23,40a1.23,1.23,0,0,1-.45-.17,1.39,1.39,0,0,0-2,.23,12.5,12.5,0,0,1-1.14.85l-1.38-1.5c.36-.49.75-1,1.16-1.58a.8.8,0,0,0,.09-1,.84.84,0,0,1-.13-.29c-.18-1.18-1-1.46-2.05-1.53s-1.06-.13-1.06-1.2v-1c.69-.11,1.34-.23,2-.31a.86.86,0,0,0,.84-.71,1.44,1.44,0,0,1,.19-.5,1.34,1.34,0,0,0-.21-1.88,14,14,0,0,1-.85-1.14l1.45-1.44c.45.33,1,.68,1.43,1.06a1,1,0,0,0,1.27.13A.8.8,0,0,1,7.67,28c1.05-.17,1.33-.88,1.41-1.84.1-1.2.15-1.2,1.34-1.2h.83c.1.67.23,1.32.3,2a.88.88,0,0,0,.7.85,2,2,0,0,1,.6.24,1.26,1.26,0,0,0,1.74-.21,14.47,14.47,0,0,1,1.25-.93l1.41,1.46c-.38.52-.78,1.07-1.19,1.61A.81.81,0,0,0,16,31a1.54,1.54,0,0,1,.24.54c.14.89.73,1.15,1.53,1.19C18.2,32.72,18.66,32.82,19.18,32.9Zm-8.91-3.38a4.39,4.39,0,1,0,4.36,4.38A4.4,4.4,0,0,0,10.27,29.52Z"/><path class="cls-2" d="M10.78,23.64h-1V3.39A1.83,1.83,0,0,1,11.82,1.3H36.33a1.83,1.83,0,0,1,2.1,2.08V9.24h-1c0-.19,0-.38,0-.57v-3c0-1.49,0-1.53-1.51-1.53H12c-1,0-1.17.17-1.17,1.16V23.64ZM23,3.37h1.73c.43,0,.71-.2.72-.63a.62.62,0,0,0-.7-.66c-1.17,0-2.34,0-3.51,0a.62.62,0,0,0-.7.67c0,.43.3.62.73.62Zm3.91,0a.61.61,0,0,0,.64-.63.64.64,0,0,0-1.27-.05C26.29,3.09,26.52,3.32,26.94,3.37Z"/><path class="cls-1" d="M43.77,23.32a5.87,5.87,0,1,1-5.86-5.89A5.84,5.84,0,0,1,43.77,23.32Zm-5.93,4.53a4.56,4.56,0,1,0-4.5-4.64A4.55,4.55,0,0,0,37.84,27.85Z"/><path class="cls-1" d="M24.06,49.57a2,2,0,1,1-1.95,2A2,2,0,0,1,24.06,49.57Zm0,2.62a.64.64,0,0,0,.65-.65.62.62,0,0,0-.63-.67.64.64,0,0,0-.69.67A.66.66,0,0,0,24.09,52.19Z"/><path class="cls-1" d="M10.27,29.52a4.39,4.39,0,0,1,0,8.78,4.39,4.39,0,1,1,0-8.78Zm3.06,4.38a3.06,3.06,0,0,0-3.09-3.08,3.09,3.09,0,1,0,3.09,3.08Z"/><path class="cls-1" d="M23,3.37H21.3c-.43,0-.72-.19-.73-.62a.62.62,0,0,1,.7-.67c1.17,0,2.34,0,3.51,0a.62.62,0,0,1,.7.66c0,.43-.29.63-.72.63Z"/><path class="cls-1" d="M26.94,3.37c-.42-.05-.65-.28-.63-.68a.64.64,0,0,1,1.27.05A.61.61,0,0,1,26.94,3.37Z"/><path class="cls-3" d="M24.09,52.19a.66.66,0,0,1-.67-.65.64.64,0,0,1,.69-.67.62.62,0,0,1,.63.67A.64.64,0,0,1,24.09,52.19Z"/></g></g></svg>