<svg xmlns="http://www.w3.org/2000/svg" viewBox="0 0 58.54 37.04"><defs><style>.cls-1{fill:#102f3a;}.cls-2{fill:#ffd3ae;}</style></defs><g id="Layer_2" data-name="Layer 2"><g id="Layer_1-2" data-name="Layer 1"><path class="cls-1" d="M58.54,30.53a1.26,1.26,0,0,1-1.29.66c-.85,0-1.7,0-2.6,0a5.92,5.92,0,0,1-2.29,4.64A5.6,5.6,0,0,1,48.58,37,5.9,5.9,0,0,1,43,31.22H22.38A5.88,5.88,0,0,1,20,35.93,5.59,5.59,0,0,1,16.2,37a5.88,5.88,0,0,1-5.5-5.85h-.6c-1.37,0-2.74,0-4.11,0a1.93,1.93,0,0,1-2.1-2.11V27.25c-.86,0-1.65,0-2.45,0a5.1,5.1,0,0,1-.68,0A.83.83,0,0,1,0,26.42a.85.85,0,0,1,.66-.94,2.16,2.16,0,0,1,.57-.05H9.41a1.71,1.71,0,0,1,.39,0,.91.91,0,0,1,.82.94.88.88,0,0,1-.9.85c-1.1,0-2.21,0-3.31,0H5.76v2a3,3,0,0,0,.43.06c1.48,0,3,0,4.46,0a.56.56,0,0,0,.58-.41,5.57,5.57,0,0,1,5.3-3.5A5.55,5.55,0,0,1,21.88,29a.56.56,0,0,0,.6.39H40.6c.13,0,.26,0,.45,0V22.9a3.57,3.57,0,0,1,0-.46.93.93,0,0,1,.9-.92.91.91,0,0,1,.92,1c0,2.06,0,4.12,0,6.17a1.75,1.75,0,0,0,0,.4c0,.11.12.27.19.27s.23-.09.32-.16.05-.14.09-.21a5.8,5.8,0,0,1,10.66,0,.54.54,0,0,0,.59.39c.63,0,1.25,0,1.92,0V25.3h-1a2.85,2.85,0,0,1-2.88-2.92c0-.59,0-1.18,0-1.77a.94.94,0,0,1,1.07-1.05h2.64a2,2,0,0,0-.9-1.36,3.83,3.83,0,0,0-1.71-.67c-3.58-.07-7.17,0-10.75,0-.07,0-.14,0-.27.05,0,.33,0,.65,0,1a.91.91,0,0,1-.89.93.93.93,0,0,1-.93-.9,4.34,4.34,0,0,1,0-.51V1.87H5.73V18a5.43,5.43,0,0,1,0,.57.85.85,0,0,1-.85.84.85.85,0,0,1-.92-.7,2.52,2.52,0,0,1,0-.62V2.21A2,2,0,0,1,6.11,0H40.7a1.92,1.92,0,0,1,2.18,2.17c0,.55,0,1.1,0,1.71l.65,0c2,0,3.92.05,5.89,0,2.46-.07,4.61,1.63,4.18,5,0,.31-.36.57-.62,1,.43,1.74.9,3.64,1.39,5.54a.59.59,0,0,0,.35.36,4.8,4.8,0,0,1,3.74,3.88.44.44,0,0,0,.08.15Zm-6-14.9c0-.18-.06-.33-.09-.47-.41-1.65-.83-3.28-1.22-4.93-.1-.42-.26-.58-.72-.57-2.32,0-4.64,0-7,0l-.56,0v5.93ZM48.81,35.21a4,4,0,1,0-4-4A4,4,0,0,0,48.81,35.21Zm-32.23,0a4,4,0,1,0-4-3.93A4,4,0,0,0,16.58,35.21ZM51.75,7.78a1.92,1.92,0,0,0-2-2c-2.13,0-4.26,0-6.39,0a2.91,2.91,0,0,0-.4,0v2ZM56.67,23.4v-2h-2C54.46,23.19,54.94,23.66,56.67,23.4Z"/><path class="cls-1" d="M22.35,17.31l6.87-6.88c.43-.44.85-.88,1.29-1.29a.91.91,0,0,1,1.37,0,.92.92,0,0,1-.07,1.33q-4.33,4.35-8.7,8.69a.88.88,0,0,1-1.4,0q-2.4-2.37-4.77-4.77a.91.91,0,1,1,1.3-1.27c1.24,1.21,2.46,2.44,3.68,3.67A4.6,4.6,0,0,1,22.35,17.31Z"/><path class="cls-1" d="M31.21,27.25h-6.4a3.29,3.29,0,0,1-.63,0,.75.75,0,0,1-.69-.84,1.77,1.77,0,0,1,.59-.87c.14-.12.44-.08.66-.08h13a2.68,2.68,0,0,1,.4,0,.92.92,0,0,1,.86,1,.89.89,0,0,1-.91.84c-.71,0-1.41,0-2.12,0Z"/><path class="cls-1" d="M8.69,23.34H3.09C2.37,23.34,2,23,2,22.44s.43-.93,1.13-.93H14.39c.7,0,1.14.39,1.12.95s-.42.88-1.11.88Z"/><path class="cls-2" d="M52.5,15.63H42.94V9.7l.56,0c2.33,0,4.65,0,7,0,.46,0,.62.15.72.57.39,1.65.81,3.28,1.22,4.93C52.44,15.3,52.46,15.45,52.5,15.63Z"/><path class="cls-2" d="M48.81,35.21a4,4,0,1,1,4-3.95A4,4,0,0,1,48.81,35.21Zm0-5.85a1.87,1.87,0,0,0-1.86,1.9,1.89,1.89,0,1,0,3.78-.05A1.86,1.86,0,0,0,48.79,29.36Z"/><path class="cls-2" d="M16.58,35.21a4,4,0,1,1,3.94-4A4,4,0,0,1,16.58,35.21Zm0-5.85a1.88,1.88,0,0,0-1.89,1.89,1.93,1.93,0,0,0,1.91,1.89,1.89,1.89,0,0,0,1.87-1.91A1.85,1.85,0,0,0,16.54,29.36Z"/><path class="cls-2" d="M51.75,7.78H42.91v-2a2.91,2.91,0,0,1,.4,0c2.13,0,4.26,0,6.39,0A1.92,1.92,0,0,1,51.75,7.78Z"/><path class="cls-2" d="M56.67,23.4c-1.73.26-2.21-.21-2-2h2Z"/><path class="cls-1" d="M48.79,29.36a1.86,1.86,0,0,1,1.92,1.85,1.89,1.89,0,1,1-3.78.05A1.87,1.87,0,0,1,48.79,29.36Z"/><path class="cls-1" d="M16.54,29.36a1.85,1.85,0,0,1,1.89,1.87,1.89,1.89,0,0,1-1.87,1.91,1.93,1.93,0,0,1-1.91-1.89A1.88,1.88,0,0,1,16.54,29.36Z"/></g></g></svg>