<svg xmlns="http://www.w3.org/2000/svg" viewBox="0 0 25.69 23.77"><defs><style>.cls-1{fill:#e87503;}</style></defs><g id="Layer_2" data-name="Layer 2"><g id="Layer_1-2" data-name="Layer 1"><path class="cls-1" d="M23.48,2.46l-2.61,8.3c-.92,3-1.85,5.9-2.77,8.84l-.36-.17L14.65,18l-.48-.21-.5.1-.5.1-.33.39-1.78,2.06-.21.23L10.72,19l0-.57c0-.52-.07-1-.12-1.56l2.79-2.88,4.14-4.36-5.7,1.9L5.9,13.43,3,12l7.92-3.67L23.48,2.46M25.33,0A1,1,0,0,0,25,.12L.65,11.41c-.14.07-.29.13-.43.21a.37.37,0,0,0,0,.68,1,1,0,0,0,.18.09c2,1,3.32,1.63,5.16,2.55a.72.72,0,0,0,.29.06.71.71,0,0,0,.28-.06l6.13-2c-.2.21-1.34,1.41-3,3.08A.87.87,0,0,0,9,16.7c.08.78.13,1.57.19,2.36l.33,4.25c0,.2.07.38.29.44l.1,0a.5.5,0,0,0,.37-.23c.55-.63,1.1-1.26,1.64-1.9l2-2.33h0l4.42,2.11a.93.93,0,0,0,.39.12c.19,0,.3-.15.4-.47Q22.3,11.22,25.4,1.36c.09-.27.19-.54.29-.82V.24C25.54.07,25.45,0,25.33,0Z"/></g></g></svg>