<svg xmlns="http://www.w3.org/2000/svg" viewBox="0 0 122.7 138.26"><defs><style>.cls-1{isolation:isolate;}.cls-2{fill:#e87503;}.cls-3{fill:#fff;}.cls-4{fill:#110239;}.cls-5{fill:#616161;}.cls-6{fill:#00bad1;}.cls-7{fill:#fbb040;}.cls-8{fill:#00547a;opacity:0.32;mix-blend-mode:multiply;}.cls-9{fill:#e45940;}.cls-10{fill:#f88667;}.cls-11{fill:#d0d1de;}.cls-12{fill:#b8b9cd;}.cls-13{fill:#e5e6ed;}</style></defs><g class="cls-1"><g id="Layer_2" data-name="Layer 2"><g id="Layer_1-2" data-name="Layer 1"><path class="cls-2" d="M0,0H122.7a0,0,0,0,1,0,0V76.91a61.35,61.35,0,0,1-61.35,61.35h0A61.35,61.35,0,0,1,0,76.91V0A0,0,0,0,1,0,0Z"/><circle class="cls-3" cx="61.35" cy="72.96" r="52.1"/><polygon class="cls-4" points="67.48 104.2 55.22 104.2 56.22 89.41 66.48 89.41 67.48 104.2"/><path class="cls-4" d="M69.09,101.84a.79.79,0,0,0-.66-.36H54.27a.79.79,0,0,0-.66.36l-1.86,2.76a.81.81,0,0,0,.67,1.25H70.28A.81.81,0,0,0,71,104.6Z"/><rect class="cls-4" x="27.86" y="48.44" width="66.99" height="44.9" rx="3.45"/><rect class="cls-2" x="30.94" y="51.42" width="60.82" height="38.49"/><path class="cls-5" d="M83.81,101.33c-7.06-1.31-15.3-2.86-15.32-.13s3.11,4.59,5.81,5.88a22.9,22.9,0,0,1,4.69-.91c2.77-.43,5.48,0,8.25,0a11.16,11.16,0,0,0,4.42-3.27S89.26,102.34,83.81,101.33Z"/><path class="cls-6" d="M77.86,106.23c.23.12-2.48,1.4-2.26,1.5,1.16.37,12.54.43,13.59.16,1.8-.46-3.35-2.7-1.55-3.08,3-2.09,4.62-4.83,3-5.17-1.81-.38-4.63.57-6.46.76a6.88,6.88,0,0,1-3.52-.22l-4.45-.49c-4.55.91-5.49,2.55-5.54,2.52,0,.65,3.33,2,6.31,3.57A3.08,3.08,0,0,1,77.86,106.23Z"/><path class="cls-2" d="M77.86,106.23c.23.12-2.48,1.4-2.26,1.5,1.16.37,12.54.43,13.59.16,1.8-.46-3.35-2.7-1.55-3.08,3-2.09,4.62-4.83,3-5.17-1.81-.38-4.63.57-6.46.76a6.88,6.88,0,0,1-3.52-.22l-4.45-.49c-4.55.91-5.49,2.55-5.54,2.52,0,.65,3.33,2,6.31,3.57A3.08,3.08,0,0,1,77.86,106.23Z"/><path d="M76.16,104.49l1.45,2s-1.57,1.1-2,1.29-4,.34-4.91-.37-1.12-1.48-.7-1.87a5.28,5.28,0,0,1,2.52-.75C74,104.55,76.16,104.49,76.16,104.49Z"/><path class="cls-7" d="M75.29,104.56l.83,3s14-.21,15.46-2.36c1.88-1.94,2.64-5.75-1.14-5.83a8.2,8.2,0,0,0-2.44.49C82.86,101.54,75.29,104.56,75.29,104.56Z"/><path class="cls-8" d="M90.76,104.36a4.51,4.51,0,0,1-2.32-.87,9.54,9.54,0,0,0-2.9-1.14c-.89-.21-1.81-.52-2.52-.76-4.07,1.32-7.73,3-7.73,3l.65,2.31,1.07.28a6.71,6.71,0,0,1,1.27.19,2.61,2.61,0,0,0,.27.06c4-.22,12.13-.84,13.2-2.42a8.39,8.39,0,0,0,.66-1A7.22,7.22,0,0,1,90.76,104.36Z"/><path d="M87.34,104.66l-1.21,1.54s2,1.21,2.39,1.41,3.27.33,4.18-.32,1.11-1.38.72-1.77a5.06,5.06,0,0,0-2.37-.79A20.8,20.8,0,0,0,87.34,104.66Z"/><path class="cls-7" d="M88.75,104.28l-1.25,3.45S70.31,106.38,68.91,104c-.84-1.44-1-3.67.84-4.47a6.47,6.47,0,0,1,4.91,0C80.2,101.45,88.75,104.28,88.75,104.28Z"/><path class="cls-9" d="M82,81.42H79.55s-.35,3.31-1,3.71c0,0-.78,3.91,2.2,3.91,3.62,0,2.2-3.91,2.2-3.91C82.34,84.73,82,81.42,82,81.42Z"/><path class="cls-10" d="M83.94,82.07c-.34-.39-.75.2-.75.2s.56-2.19,0-3.16-2.36-.45-2.36-.45-1.8-.51-2.36.45,0,3.16,0,3.16-.4-.59-.74-.2.56,1.36.76,1.48c0,0,1.3,2.43,2.34,2.43s2.35-2.43,2.35-2.43C83.38,83.43,84.27,82.45,83.94,82.07Z"/><path class="cls-4" d="M80.38,79.53s-1.37.24-1.52,1a3.15,3.15,0,0,0,.07,1.1,6.53,6.53,0,0,1,.12,1.2.19.19,0,0,1-.18,0,2.45,2.45,0,0,1-.46-.55c-.26-.38-.63-.32-.74-.08,0,0-.3-3.6,1.2-3.73S80.38,79.53,80.38,79.53Z"/><path class="cls-4" d="M81.27,79.53s1.36.24,1.52,1a2.93,2.93,0,0,1-.08,1.1,7.37,7.37,0,0,0-.11,1.2s.14,0,.17,0a2.49,2.49,0,0,0,.47-.55c.26-.38.63-.32.74-.08,0,0,.3-3.6-1.21-3.73S81.27,79.53,81.27,79.53Z"/><path class="cls-4" d="M83.28,78.63a1.1,1.1,0,0,0-.65-1,3.63,3.63,0,0,0-3.07,0c-1.07.53-1.39.65-1.7.47s-.11-.35-.11-.35-.7,0-.66,1.07a3,3,0,0,0,3.09,2.42C82.83,81.28,83.69,79.43,83.28,78.63Z"/><path class="cls-11" d="M83,85.13c-.12,3.33-2.2,3-2.2,3s-2.07.35-2.2-3a21.91,21.91,0,0,0-4.93,2,31.7,31.7,0,0,1,.73,6.13l1.9,7.34,4.5-.82,4.51.82,1.89-7.34a32.64,32.64,0,0,1,.73-6.13A21.72,21.72,0,0,0,83,85.13Z"/><path class="cls-12" d="M86.85,89.05c-2.06,1.1-3.07,3.62-5.07,4.86s-3.53-1.31-4.54-2.65a7.9,7.9,0,0,0-3.31-2.64,31.4,31.4,0,0,1,.44,4.64l1.9,7.34,4.5-.55,4.51.55,1.89-7.34a32.19,32.19,0,0,1,.43-4.57C87.34,88.81,87.08,88.92,86.85,89.05Z"/><path class="cls-11" d="M73.64,87.13s-3.76,8.82-3.8,10c-.09,2.35,5.06,3.31,7.4,2.87l1-.17S74.72,87.06,73.64,87.13Z"/><path class="cls-11" d="M87.89,87.13s3.8,8.81,3.8,10c0,2.38-5,3.31-7.4,2.87l-1-.17S86.82,87.06,87.89,87.13Z"/><path class="cls-12" d="M75.24,90.22a6.88,6.88,0,0,1-.16,1.3c-.36,1.6-.93,3.27-.33,4.89a25.65,25.65,0,0,0,1.85,3.66,2.62,2.62,0,0,0,.64,0l1-.17S76.6,94,75.24,90.22Z"/><path class="cls-12" d="M85.65,100a5.74,5.74,0,0,0,.46-2.36c-.06-1.64-.07-3.27,0-4.91,0-.7,0-1.39.07-2.06-1.33,3.77-2.81,9.2-2.81,9.2l1,.17A3.72,3.72,0,0,0,85.65,100Z"/><rect class="cls-4" x="74.87" y="99.96" width="11.81" height="0.7"/><path class="cls-4" d="M88.41,91.77H73.13a.71.71,0,0,0-.68.92c.14.92,2.06,7.36,2.45,7.36H86.64c.34,0,2.32-6.44,2.46-7.36A.71.71,0,0,0,88.41,91.77Z"/><path class="cls-3" d="M81.4,96.23a.63.63,0,1,1-.63-.63A.63.63,0,0,1,81.4,96.23Z"/><path class="cls-4" d="M40.89,70.66S60,94.8,81.81,70.66C60,46.52,40.89,70.66,40.89,70.66Z"/><path class="cls-3" d="M43.76,70.66s16.45,20.76,35.18,0C60.21,49.9,43.76,70.66,43.76,70.66Z"/><circle class="cls-7" cx="61.35" cy="70.66" r="9.09" transform="translate(-21.33 114.48) rotate(-76.96)"/><path class="cls-4" d="M67.08,70.66a5.73,5.73,0,1,1-5.73-5.73A5.73,5.73,0,0,1,67.08,70.66Z"/><path class="cls-3" d="M68.13,67.05a2.33,2.33,0,1,1-2.33-2.33A2.33,2.33,0,0,1,68.13,67.05Z"/><rect class="cls-13" x="33.42" y="37.86" width="27.09" height="18.32" rx="1.23"/><rect class="cls-4" x="34.65" y="39.31" width="24.62" height="15.4"/><polygon class="cls-7" points="43.65 43.45 43.65 51 50.99 47.23 43.65 43.45"/></g></g></g></svg>