<svg xmlns="http://www.w3.org/2000/svg" viewBox="0 0 57.9 63.28"><defs><style>.cls-1{fill:#ffd3ae;}.cls-2{fill:none;stroke:#102f3a;stroke-linecap:round;stroke-linejoin:round;}</style></defs><g id="Layer_2" data-name="Layer 2"><g id="Layer_1-2" data-name="Layer 1"><path class="cls-1" d="M47.25,15.8a2.9,2.9,0,0,0-1.18-.25h-.4l-.89-.15V11.62a.42.42,0,0,0-.42-.42H40A5.43,5.43,0,0,1,36.63,10c-.34-.28-.73-.61-1.15-1-1.92-1.87-2.94-3.5-7.9-3.36V9.05s-.56,5-2.42,6.26l-.78.24h-.33a2.87,2.87,0,0,0-1.87.69s-3-9.71,1.48-12.37S26.84,3,30.85,1.2,44,.92,46.08,6.81A24.07,24.07,0,0,1,47.25,15.8Z"/><path class="cls-2" d="M47.25,15.8a2.9,2.9,0,0,0-1.18-.25h-.4l-.89-.15V11.62a.42.42,0,0,0-.42-.42H40A5.43,5.43,0,0,1,36.63,10c-.34-.28-.73-.61-1.15-1-1.92-1.87-2.94-3.5-7.9-3.36V9.05s-.56,5-2.42,6.26l-.78.24h-.33a2.87,2.87,0,0,0-1.87.69s-3-9.71,1.48-12.37S26.84,3,30.85,1.2,44,.92,46.08,6.81A24.07,24.07,0,0,1,47.25,15.8Z"/><path class="cls-2" d="M25.34,15.55V22H24.05a2.9,2.9,0,0,1-2.9-2.9v-.62a2.91,2.91,0,0,1,2.9-2.9Z"/><path class="cls-2" d="M49,18.45v.62a2.9,2.9,0,0,1-2.9,2.9H44.78V15.55h1.29a2.9,2.9,0,0,1,2.9,2.9Z"/><path class="cls-1" d="M25.34,15H30.9A1.92,1.92,0,0,1,32.82,17v.43a2.36,2.36,0,0,1-2.36,2.36H25.34a0,0,0,0,1,0,0V15A0,0,0,0,1,25.34,15Z"/><path class="cls-1" d="M37.3,15h5.13a2.36,2.36,0,0,1,2.36,2.36v.43a1.92,1.92,0,0,1-1.92,1.92H37.3a0,0,0,0,1,0,0V15a0,0,0,0,1,0,0Z" transform="translate(82.08 34.79) rotate(180)"/><path class="cls-2" d="M25.34,15H30.9A1.92,1.92,0,0,1,32.82,17v.43a2.36,2.36,0,0,1-2.36,2.36H25.34a0,0,0,0,1,0,0V15A0,0,0,0,1,25.34,15Z"/><path class="cls-2" d="M37.3,15h5.13a2.36,2.36,0,0,1,2.36,2.36v.43a1.92,1.92,0,0,1-1.92,1.92H37.3a0,0,0,0,1,0,0V15a0,0,0,0,1,0,0Z" transform="translate(82.08 34.79) rotate(180)"/><line class="cls-2" x1="32.82" y1="16.62" x2="37.3" y2="16.62"/><polygon class="cls-2" points="39.45 27 30.58 27 31 25.06 39.02 25.06 39.45 27"/><path class="cls-2" d="M44.78,19.05v5a9.72,9.72,0,1,1-19.44,0v-5"/><path class="cls-2" d="M42.66,36.71a8.14,8.14,0,0,1-14.68,0l.56-.08a1.25,1.25,0,0,0,1.07-1.24V32.09a9.73,9.73,0,0,0,10.9,0v3.48a1,1,0,0,0,.81.94Z"/><path class="cls-1" d="M57.4,44.51v3.2l-6.48-1.17L39.15,51.3,27.87,50.21S25.7,43.93,22.7,37.48L28,36.75a8.14,8.14,0,0,0,14.68,0l8.17,1.23A6.57,6.57,0,0,1,57.4,44.51Z"/><path class="cls-2" d="M57.4,44.51v3.2l-6.48-1.17L39.15,51.3,27.87,50.21S25.7,43.93,22.7,37.48L28,36.75a8.14,8.14,0,0,0,14.68,0l8.17,1.23A6.57,6.57,0,0,1,57.4,44.51Z"/><polygon class="cls-1" points="48.37 62.78 31.56 62.78 31.07 59.61 33.9 58.52 33.91 58.52 48.37 62.78"/><polygon class="cls-2" points="48.37 62.78 31.56 62.78 31.07 59.61 33.9 58.52 33.91 58.52 48.37 62.78"/><path class="cls-2" d="M57.4,47.71V60.38a2.4,2.4,0,0,1-2.4,2.4H48.37"/><polyline class="cls-2" points="12.5 56.23 18.01 53.85 33.9 58.52"/><line class="cls-2" x1="57.4" y1="53.07" x2="39.15" y2="51.3"/><path class="cls-2" d="M22.77,62.78H15.6a3.11,3.11,0,0,1-3.1-3.11V47.92L19,46.54,25.59,50l2.28.22"/><polygon class="cls-1" points="31.56 62.78 22.77 62.78 31.07 59.61 31.56 62.78"/><polygon class="cls-2" points="31.56 62.78 22.77 62.78 31.07 59.61 31.56 62.78"/><polygon class="cls-2" points="18.62 29.77 8.38 33.76 6.77 29.77 16.57 25.71 18.62 29.77"/><path class="cls-1" d="M27.87,50.21,25.59,50,19,46.54,12.5,47.92c-4-10.79-4.12-14.16-4.12-14.16l10.24-4a72.43,72.43,0,0,1,4.08,7.71C25.7,43.93,27.87,50.21,27.87,50.21Z"/><path class="cls-2" d="M27.87,50.21,25.59,50,19,46.54,12.5,47.92c-4-10.79-4.12-14.16-4.12-14.16l10.24-4a72.43,72.43,0,0,1,4.08,7.71C25.7,43.93,27.87,50.21,27.87,50.21Z"/><line class="cls-2" x1="15.41" y1="41.54" x2="17.44" y2="46.86"/><line class="cls-2" x1="13.99" y1="37.48" x2="14.67" y2="39.23"/><polygon class="cls-1" points="3.55 8.05 0.5 18.49 8.38 29.1 14.67 26.49 12.8 13.3 3.55 8.05"/><polygon class="cls-2" points="3.55 8.05 0.5 18.49 8.38 29.1 14.67 26.49 12.8 13.3 3.55 8.05"/><line class="cls-2" x1="8.38" y1="19.75" x2="3.55" y2="8.05"/><circle class="cls-2" cx="8.38" cy="19.75" r="2.01"/><line class="cls-2" x1="48.97" y1="62.78" x2="48.37" y2="62.78"/></g></g></svg>