<svg xmlns="http://www.w3.org/2000/svg" viewBox="0 0 64.74 64.29"><defs><style>.cls-1{fill:none;stroke:#102f3a;stroke-linecap:round;stroke-linejoin:round;}.cls-2{fill:#ffd3ae;}</style></defs><g id="Layer_2" data-name="Layer 2"><g id="Layer_1-2" data-name="Layer 1"><path class="cls-1" d="M64,2.36V33.44a1.85,1.85,0,0,1-1.85,1.86H48.42a6.83,6.83,0,0,0,.3-2,6.6,6.6,0,0,0-13.2,0,6.5,6.5,0,0,0,.3,2H28.65a6.83,6.83,0,0,0,.3-2,6.6,6.6,0,0,0-13.2,0,6.5,6.5,0,0,0,.3,2H2.35A1.85,1.85,0,0,1,.5,33.44V2.36A1.85,1.85,0,0,1,2.35.5H62.13A1.85,1.85,0,0,1,64,2.36Z"/><path class="cls-1" d="M16.05,35.3a6.61,6.61,0,0,0,12.6,0"/><path class="cls-1" d="M35.82,35.3a6.61,6.61,0,0,0,12.6,0"/><path class="cls-2" d="M18.68,39.92h7.66a3.75,3.75,0,0,1,3.75,3.75v.46a0,0,0,0,1,0,0H14.93a0,0,0,0,1,0,0v-.46A3.75,3.75,0,0,1,18.68,39.92Z"/><path class="cls-1" d="M18.68,39.92h7.66a3.75,3.75,0,0,1,3.75,3.75v.46a0,0,0,0,1,0,0H14.93a0,0,0,0,1,0,0v-.46A3.75,3.75,0,0,1,18.68,39.92Z"/><path class="cls-2" d="M6.66,49.89h.76a0,0,0,0,1,0,0V61.06a2.74,2.74,0,0,1-2.74,2.74H3.24A2.74,2.74,0,0,1,.5,61.06V56a6.16,6.16,0,0,1,6.16-6.16Z"/><path class="cls-2" d="M60.07,49.89h1.44a2.74,2.74,0,0,1,2.74,2.74V63.79a0,0,0,0,1,0,0h-.76a6.16,6.16,0,0,1-6.16-6.16v-5A2.74,2.74,0,0,1,60.07,49.89Z" transform="translate(121.57 113.68) rotate(-180)"/><path class="cls-2" d="M15.07,44.14H49.68a7.65,7.65,0,0,1,7.65,7.65v9.79a0,0,0,0,1,0,0H7.42a0,0,0,0,1,0,0V51.79A7.65,7.65,0,0,1,15.07,44.14Z"/><path class="cls-1" d="M6.66,49.89h.76a0,0,0,0,1,0,0V61.06a2.74,2.74,0,0,1-2.74,2.74H3.24A2.74,2.74,0,0,1,.5,61.06V56a6.16,6.16,0,0,1,6.16-6.16Z"/><path class="cls-1" d="M60.07,49.89h1.44a2.74,2.74,0,0,1,2.74,2.74V63.79a0,0,0,0,1,0,0h-.76a6.16,6.16,0,0,1-6.16-6.16v-5A2.74,2.74,0,0,1,60.07,49.89Z" transform="translate(121.57 113.68) rotate(-180)"/><path class="cls-1" d="M15.07,44.14H49.68a7.65,7.65,0,0,1,7.65,7.65v9.79a0,0,0,0,1,0,0H7.42a0,0,0,0,1,0,0V51.79A7.65,7.65,0,0,1,15.07,44.14Z"/><path class="cls-2" d="M38.5,39.92h7.66a3.75,3.75,0,0,1,3.75,3.75v.46a0,0,0,0,1,0,0H34.75a0,0,0,0,1,0,0v-.46A3.75,3.75,0,0,1,38.5,39.92Z"/><path class="cls-1" d="M38.5,39.92h7.66a3.75,3.75,0,0,1,3.75,3.75v.46a0,0,0,0,1,0,0H34.75a0,0,0,0,1,0,0v-.46A3.75,3.75,0,0,1,38.5,39.92Z"/><polygon class="cls-2" points="40.74 15.84 27.93 8.96 27.93 22.72 40.74 15.84"/><polygon class="cls-1" points="40.74 15.84 27.93 8.96 27.93 22.72 40.74 15.84"/><line class="cls-1" x1="59.76" y1="24.45" x2="57.61" y2="24.45"/><line class="cls-1" x1="59.76" y1="27.77" x2="55.78" y2="27.77"/><line class="cls-1" x1="59.76" y1="31.09" x2="53.91" y2="31.09"/><line class="cls-1" x1="8.37" y1="4.42" x2="4.61" y2="8.18"/><line class="cls-1" x1="11.67" y1="7.73" x2="7.92" y2="11.48"/></g></g></svg>