<svg xmlns="http://www.w3.org/2000/svg" viewBox="0 0 61.3 62.92"><defs><style>.cls-1{fill:#ffd3ae;}.cls-2{fill:none;stroke:#102f3a;stroke-linecap:round;stroke-linejoin:round;}.cls-3{fill:#fff;}</style></defs><g id="Layer_2" data-name="Layer 2"><g id="Layer_1-2" data-name="Layer 1"><path class="cls-1" d="M60.8,9.21V59.94a2.48,2.48,0,0,1-2.48,2.48H3A2.48,2.48,0,0,1,.5,59.94V9.21A2.49,2.49,0,0,1,3,6.72H9.05v3a3,3,0,1,0,6,0V6.72H27.64v3a3,3,0,1,0,6,0V6.72H46.22v3a3,3,0,1,0,6,0V6.72h6.07A2.49,2.49,0,0,1,60.8,9.21Z"/><path class="cls-2" d="M60.8,9.21V59.94a2.48,2.48,0,0,1-2.48,2.48H3A2.48,2.48,0,0,1,.5,59.94V9.21A2.49,2.49,0,0,1,3,6.72H9.05v3a3,3,0,1,0,6,0V6.72H27.64v3a3,3,0,1,0,6,0V6.72H46.22v3a3,3,0,1,0,6,0V6.72h6.07A2.49,2.49,0,0,1,60.8,9.21Z"/><path class="cls-2" d="M15.08,3.51V9.67a3,3,0,1,1-6,0V3.51a3,3,0,1,1,6,0Z"/><path class="cls-2" d="M33.67,3.51V9.67a3,3,0,1,1-6,0V3.51a3,3,0,0,1,6,0Z"/><path class="cls-2" d="M52.25,3.51V9.67a3,3,0,1,1-6,0V3.51a3,3,0,1,1,6,0Z"/><line class="cls-2" x1="0.5" y1="20.06" x2="38.1" y2="20.06"/><line class="cls-2" x1="42.79" y1="20.06" x2="60.8" y2="20.06"/><rect class="cls-1" x="6.59" y="27.14" width="11.34" height="11.34" rx="2.34"/><rect class="cls-2" x="6.59" y="27.14" width="11.34" height="11.34" rx="2.34"/><rect class="cls-1" x="24.98" y="27.14" width="11.34" height="11.34" rx="2.34"/><rect class="cls-2" x="24.98" y="27.14" width="11.34" height="11.34" rx="2.34"/><rect class="cls-3" x="43.37" y="27.14" width="11.34" height="11.34" rx="2.34"/><rect class="cls-3" x="6.59" y="44.26" width="11.34" height="11.34" rx="2.34"/><rect class="cls-3" x="24.98" y="44.26" width="11.34" height="11.34" rx="2.34"/><rect class="cls-3" x="43.37" y="44.26" width="11.34" height="11.34" rx="2.34"/><rect class="cls-2" x="43.37" y="27.14" width="11.34" height="11.34" rx="2.34"/><rect class="cls-2" x="6.59" y="44.26" width="11.34" height="11.34" rx="2.34"/><rect class="cls-2" x="24.98" y="44.26" width="11.34" height="11.34" rx="2.34"/><rect class="cls-2" x="43.37" y="44.26" width="11.34" height="11.34" rx="2.34"/><polyline class="cls-2" points="10.86 32.81 13.41 35.37 19.76 29.01"/><polyline class="cls-2" points="30.13 32.81 32.68 35.37 39.03 29.01"/></g></g></svg>