<svg xmlns="http://www.w3.org/2000/svg" viewBox="0 0 63 63.19"><defs><style>.cls-1{fill:#ffd3ae;}.cls-2{fill:none;stroke:#102f3a;stroke-linecap:round;stroke-linejoin:round;}.cls-3{fill:#102f3a;}</style></defs><g id="Layer_2" data-name="Layer 2"><g id="Layer_1-2" data-name="Layer 1"><rect class="cls-1" x="15.97" y="0.5" width="11.09" height="3.97" rx="1.34"/><rect class="cls-2" x="15.97" y="0.5" width="11.09" height="3.97" rx="1.34"/><rect class="cls-2" x="19.16" y="4.47" width="4.72" height="51.33"/><path class="cls-2" d="M23.88,55.7c-.76.07-1.55.1-2.36.1s-1.61,0-2.36-.1"/><polygon class="cls-1" points="23.88 29.4 23.88 8.2 47.21 18.8 23.88 29.4"/><polygon class="cls-2" points="23.88 29.4 23.88 8.2 47.21 18.8 23.88 29.4"/><path class="cls-1" d="M52,43.62a7.3,7.3,0,0,1-.49,2.65,7.44,7.44,0,0,1-14.4-2.65,6,6,0,0,1,.07-.95A7.44,7.44,0,0,1,52,43.62Z"/><circle class="cls-2" cx="44.58" cy="43.62" r="7.44"/><path class="cls-1" d="M62.5,51.77c0,3.09-6,5.59-13.48,5.59a32.08,32.08,0,0,1-4.26-.28c-4,3.35-11.77,5.61-20.64,5.61C11.07,62.69.5,57.8.5,51.77c0-5.24,8-9.63,18.66-10.69v6.64c-4.6.42-8,2.05-8,4s3.43,3.57,8,4v.1h4.72v-.1c4.6-.42,8-2.05,8-4s-3.42-3.57-8-4V40.84h.24A45.25,45.25,0,0,1,37.2,42.67a6,6,0,0,0-.07.95,7.44,7.44,0,0,0,14.4,2.65C57.78,46.76,62.5,49,62.5,51.77Z"/><path class="cls-2" d="M62.5,51.77c0,3.09-6,5.59-13.48,5.59a32.08,32.08,0,0,1-4.26-.28c-4,3.35-11.77,5.61-20.64,5.61C11.07,62.69.5,57.8.5,51.77c0-5.24,8-9.63,18.66-10.69v6.64c-4.6.42-8,2.05-8,4s3.43,3.57,8,4v.1h4.72v-.1c4.6-.42,8-2.05,8-4s-3.42-3.57-8-4V40.84h.24A45.25,45.25,0,0,1,37.2,42.67a6,6,0,0,0-.07.95,7.44,7.44,0,0,0,14.4,2.65C57.78,46.76,62.5,49,62.5,51.77Z"/><ellipse class="cls-3" cx="47.92" cy="41.15" rx="1.12" ry="0.84"/><ellipse class="cls-3" cx="44.14" cy="39.3" rx="1.12" ry="0.84"/><ellipse class="cls-3" cx="45.03" cy="43.31" rx="1.12" ry="0.84"/></g></g></svg>