<svg xmlns="http://www.w3.org/2000/svg" viewBox="0 0 56.66 57.09"><defs><style>.cls-1{fill:#ffd3ae;}.cls-2{fill:none;stroke:#102f3a;stroke-linecap:round;stroke-linejoin:round;}</style></defs><g id="Layer_2" data-name="Layer 2"><g id="Layer_1-2" data-name="Layer 1"><rect class="cls-1" x="6.56" y="32.51" width="21.77" height="24.08"/><rect class="cls-1" x="28.33" y="32.51" width="21.77" height="24.08"/><rect class="cls-2" x="6.56" y="32.51" width="21.77" height="24.08"/><rect class="cls-2" x="28.33" y="32.51" width="21.77" height="24.08"/><polygon class="cls-2" points="28.33 32.5 6.56 32.5 0.5 22.82 22.04 22.82 28.33 32.5"/><polygon class="cls-2" points="56.16 22.82 50.1 32.5 28.33 32.5 34.62 22.82 56.16 22.82"/><polygon class="cls-1" points="41.74 18.27 37.19 22.82 34.62 22.82 28.33 32.5 22.04 22.82 19.19 22.82 14.65 18.27 24.69 18.27 28.33 8.3 31.89 18.27 41.74 18.27"/><polygon class="cls-2" points="41.74 18.27 37.19 22.82 34.62 22.82 28.33 32.5 22.04 22.82 19.19 22.82 14.65 18.27 24.69 18.27 28.33 8.3 31.89 18.27 41.74 18.27"/><line class="cls-2" x1="37.19" y1="22.82" x2="37.13" y2="22.88"/><line class="cls-2" x1="28.19" y1="0.5" x2="28.19" y2="4.42"/><line class="cls-2" x1="17.32" y1="3.4" x2="19.35" y2="6.74"/><line class="cls-2" x1="9.38" y1="11.35" x2="12.73" y2="13.37"/><line class="cls-2" x1="39.3" y1="3.4" x2="37.26" y2="6.74"/><line class="cls-2" x1="47.23" y1="11.35" x2="43.88" y2="13.37"/></g></g></svg>