<svg xmlns="http://www.w3.org/2000/svg" viewBox="0 0 33.19 37.98"><defs><style>.cls-1{isolation:isolate;}.cls-2,.cls-8{fill:#c2c2c2;}.cls-3{fill:#820000;}.cls-4{fill:#dbdbdb;}.cls-5{fill:#a60000;}.cls-6{fill:#804e33;}.cls-7{fill:#69331a;}.cls-13,.cls-8{mix-blend-mode:multiply;}.cls-9{fill:#521a00;}.cls-10,.cls-13{fill:#cfcfcf;}.cls-11{fill:gray;}.cls-12{fill:#a8a8a8;}</style></defs><g class="cls-1"><g id="Layer_2" data-name="Layer 2"><g id="Layer_1-2" data-name="Layer 1"><polygon class="cls-2" points="16.68 14.99 17.46 15.43 17.71 15.58 18.1 15.8 18.35 15.95 18.74 16.17 18.99 16.31 19.38 16.54 19.63 16.68 20.02 16.9 20.27 17.05 20.65 17.27 20.91 17.42 21.29 17.64 21.55 17.79 21.93 18.01 21.93 18.01 22.19 18.16 22.57 18.38 22.82 18.52 23.21 18.75 23.46 18.89 23.85 19.11 24.1 19.26 24.1 19.26 24.49 19.48 24.74 19.63 25.13 19.85 25.38 20 25.76 20.22 26.02 20.36 26.4 20.59 26.66 20.73 26.66 20.73 27.04 20.95 27.04 20.95 27.29 21.1 27.68 21.32 27.93 21.47 28.32 21.69 28.57 21.84 28.96 22.06 29.21 22.21 29.59 22.43 29.6 22.43 29.85 22.57 30.23 22.8 30.49 22.94 30.87 23.17 31.13 23.31 31.51 23.53 31.76 23.68 31.77 23.68 32.26 23.97 32.26 23.48 31.54 23.07 31.29 22.92 30.9 22.7 30.65 22.55 30.26 22.33 30.01 22.19 30.01 22.19 29.63 21.96 29.37 21.82 28.98 21.59 28.73 21.45 28.35 21.23 28.09 21.08 27.71 20.86 27.46 20.71 27.45 20.71 27.07 20.49 27.07 20.49 26.82 20.34 26.43 20.12 26.18 19.98 25.79 19.75 25.54 19.61 25.15 19.38 24.9 19.24 24.9 19.24 24.52 19.02 24.52 19.02 24.26 18.87 24.26 18.87 23.88 18.65 23.62 18.5 23.24 18.28 22.99 18.13 22.98 18.13 22.6 17.91 22.35 17.77 21.96 17.54 21.96 17.54 21.71 17.4 21.32 17.18 21.07 17.03 20.68 16.81 20.43 16.66 20.05 16.44 19.79 16.29 19.41 16.07 19.15 15.92 18.77 15.7 18.52 15.55 18.13 15.33 17.88 15.19 17.49 14.96 17.24 14.82 16.68 14.51 16.68 14.99"/><polygon class="cls-3" points="17.24 14.82 17.46 15.43 17.71 15.58 17.49 14.96 17.24 14.82"/><polygon class="cls-3" points="17.88 15.19 18.1 15.8 18.35 15.95 18.13 15.33 17.88 15.19"/><polygon class="cls-3" points="18.52 15.55 18.74 16.17 18.99 16.31 18.77 15.7 18.52 15.55"/><polygon class="cls-3" points="19.15 15.92 19.38 16.54 19.63 16.68 19.41 16.07 19.15 15.92"/><polygon class="cls-3" points="19.79 16.29 20.02 16.9 20.27 17.05 20.05 16.44 19.79 16.29"/><polygon class="cls-3" points="20.43 16.66 20.65 17.27 20.91 17.42 20.68 16.81 20.43 16.66"/><polygon class="cls-3" points="21.07 17.03 21.29 17.64 21.55 17.79 21.32 17.18 21.07 17.03"/><polygon class="cls-3" points="21.71 17.4 21.93 18.01 21.93 18.01 22.19 18.16 21.96 17.54 21.96 17.54 21.71 17.4"/><polygon class="cls-3" points="22.35 17.77 22.57 18.38 22.82 18.52 22.6 17.91 22.35 17.77"/><polygon class="cls-3" points="22.99 18.13 23.21 18.75 23.46 18.89 23.24 18.28 22.99 18.13"/><polygon class="cls-3" points="23.62 18.5 23.85 19.11 24.1 19.26 23.88 18.65 23.62 18.5"/><polygon class="cls-3" points="24.26 18.87 24.49 19.48 24.74 19.63 24.52 19.02 24.52 19.02 24.26 18.87"/><polygon class="cls-3" points="24.9 19.24 25.13 19.85 25.38 20 25.15 19.38 24.9 19.24"/><polygon class="cls-3" points="25.54 19.61 25.76 20.22 26.02 20.36 25.79 19.75 25.54 19.61"/><polygon class="cls-3" points="26.18 19.98 26.4 20.59 26.66 20.73 26.43 20.12 26.18 19.98"/><polygon class="cls-3" points="26.82 20.34 27.04 20.95 27.04 20.95 27.29 21.1 27.07 20.49 27.07 20.49 26.82 20.34"/><polygon class="cls-3" points="27.46 20.71 27.68 21.32 27.93 21.47 27.71 20.86 27.46 20.71"/><polygon class="cls-3" points="28.09 21.08 28.32 21.69 28.57 21.84 28.35 21.23 28.09 21.08"/><polygon class="cls-3" points="28.73 21.45 28.96 22.06 29.21 22.21 28.98 21.59 28.73 21.45"/><polygon class="cls-3" points="29.37 21.82 29.59 22.43 29.6 22.43 29.85 22.57 29.63 21.96 29.37 21.82"/><polygon class="cls-3" points="30.01 22.19 30.23 22.8 30.49 22.94 30.26 22.33 30.01 22.19"/><polygon class="cls-3" points="30.65 22.55 30.87 23.17 31.13 23.31 30.9 22.7 30.65 22.55"/><polygon class="cls-3" points="31.29 22.92 31.51 23.53 31.76 23.68 31.54 23.07 31.29 22.92"/><polygon class="cls-4" points="16.75 15.02 16.03 15.43 15.78 15.58 15.39 15.8 15.14 15.95 14.75 16.17 14.5 16.31 14.12 16.54 13.86 16.68 13.48 16.9 13.22 17.05 12.84 17.27 12.58 17.42 12.2 17.64 11.95 17.79 11.56 18.01 11.56 18.01 11.31 18.15 10.92 18.38 10.67 18.52 10.28 18.75 10.03 18.89 9.64 19.11 9.39 19.26 9.39 19.26 9.01 19.48 8.75 19.63 8.37 19.85 8.11 20 7.73 20.22 7.48 20.36 7.09 20.59 6.84 20.73 6.84 20.73 6.45 20.95 6.45 20.95 6.2 21.1 5.81 21.32 5.56 21.47 5.17 21.69 4.92 21.84 4.54 22.06 4.28 22.21 3.9 22.43 3.9 22.43 3.65 22.57 3.26 22.8 3 22.94 2.62 23.16 2.37 23.31 1.98 23.53 1.73 23.68 1.73 23.68 1.23 23.97 1.23 23.48 1.95 23.07 2.21 22.92 2.59 22.7 2.85 22.55 3.23 22.33 3.48 22.18 3.48 22.18 3.87 21.96 4.12 21.82 4.51 21.59 4.76 21.45 5.14 21.23 5.4 21.08 5.79 20.86 6.04 20.71 6.04 20.71 6.42 20.49 6.42 20.49 6.68 20.34 7.06 20.12 7.31 19.98 7.7 19.75 7.95 19.61 8.34 19.38 8.59 19.24 8.59 19.24 8.98 19.02 8.98 19.02 9.23 18.87 9.23 18.87 9.62 18.65 9.87 18.5 10.26 18.28 10.51 18.13 10.51 18.13 10.89 17.91 11.15 17.77 11.53 17.54 11.53 17.54 11.79 17.4 12.17 17.17 12.42 17.03 12.81 16.81 13.06 16.66 13.45 16.44 13.7 16.29 14.09 16.07 14.34 15.92 14.72 15.7 14.98 15.55 15.36 15.33 15.62 15.19 16 14.96 16.25 14.82 16.75 14.54 16.75 15.02"/><polygon class="cls-5" points="16.25 14.82 16.03 15.43 15.78 15.58 16 14.96 16.25 14.82"/><polygon class="cls-5" points="15.62 15.19 15.39 15.8 15.14 15.95 15.36 15.33 15.62 15.19"/><polygon class="cls-5" points="14.98 15.55 14.75 16.17 14.5 16.31 14.72 15.7 14.98 15.55"/><polygon class="cls-5" points="14.34 15.92 14.12 16.54 13.86 16.68 14.09 16.07 14.34 15.92"/><polygon class="cls-5" points="13.7 16.29 13.48 16.9 13.22 17.05 13.45 16.44 13.7 16.29"/><polygon class="cls-5" points="13.06 16.66 12.84 17.27 12.58 17.42 12.81 16.81 13.06 16.66"/><polygon class="cls-5" points="12.42 17.03 12.2 17.64 11.95 17.79 12.17 17.17 12.42 17.03"/><polygon class="cls-5" points="11.79 17.4 11.56 18.01 11.56 18.01 11.31 18.15 11.53 17.54 11.53 17.54 11.79 17.4"/><polygon class="cls-5" points="11.15 17.77 10.92 18.38 10.67 18.52 10.89 17.91 11.15 17.77"/><polygon class="cls-5" points="10.51 18.13 10.28 18.75 10.03 18.89 10.26 18.28 10.51 18.13"/><polygon class="cls-5" points="9.87 18.5 9.64 19.11 9.39 19.26 9.62 18.65 9.87 18.5"/><polygon class="cls-5" points="9.23 18.87 9.01 19.48 8.75 19.63 8.98 19.02 8.98 19.02 9.23 18.87"/><polygon class="cls-5" points="8.59 19.24 8.37 19.85 8.11 20 8.34 19.38 8.59 19.24"/><polygon class="cls-5" points="7.95 19.61 7.73 20.22 7.48 20.36 7.7 19.75 7.95 19.61"/><polygon class="cls-5" points="7.31 19.98 7.09 20.59 6.84 20.73 7.06 20.12 7.31 19.98"/><polygon class="cls-5" points="6.68 20.34 6.45 20.95 6.45 20.95 6.2 21.1 6.42 20.49 6.42 20.49 6.68 20.34"/><polygon class="cls-5" points="6.04 20.71 5.81 21.32 5.56 21.47 5.79 20.86 6.04 20.71"/><polygon class="cls-5" points="5.4 21.08 5.17 21.69 4.92 21.84 5.14 21.23 5.4 21.08"/><polygon class="cls-5" points="4.76 21.45 4.54 22.06 4.28 22.21 4.51 21.59 4.76 21.45"/><polygon class="cls-5" points="4.12 21.82 3.9 22.43 3.9 22.43 3.65 22.57 3.87 21.96 4.12 21.82"/><polygon class="cls-5" points="3.48 22.18 3.26 22.8 3 22.94 3.23 22.33 3.48 22.18"/><polygon class="cls-5" points="2.85 22.55 2.62 23.16 2.37 23.31 2.59 22.7 2.85 22.55"/><polygon class="cls-5" points="2.21 22.92 1.98 23.53 1.73 23.68 1.95 23.07 2.21 22.92"/><polygon class="cls-6" points="33.19 27.85 16.71 37.22 0 27.51 16.48 18.14 33.19 27.85"/><path class="cls-7" d="M18.84,34.78a.82.82,0,0,1-.75-.07c-.17-.14-.12-.33.12-.42a.83.83,0,0,1,.74.07C19.13,34.5,19.08,34.69,18.84,34.78Z"/><path class="cls-7" d="M25.49,31.38a.82.82,0,0,1-.75-.07c-.17-.14-.12-.33.12-.42a.83.83,0,0,1,.74.07C25.77,31.1,25.72,31.29,25.49,31.38Z"/><path class="cls-7" d="M18.57,22.93a.82.82,0,0,1-.75-.07c-.17-.14-.12-.32.12-.42a.83.83,0,0,1,.74.07C18.85,22.65,18.8,22.84,18.57,22.93Z"/><path class="cls-7" d="M21.37,25.89a.8.8,0,0,1-.74-.07c-.18-.14-.13-.33.11-.42a.85.85,0,0,1,.75.07C21.66,25.61,21.61,25.8,21.37,25.89Z"/><path class="cls-7" d="M7.36,28.4a.88.88,0,0,1-.75-.07c-.17-.14-.12-.33.12-.42a.8.8,0,0,1,.74.07C7.65,28.11,7.6,28.3,7.36,28.4Z"/><path class="cls-7" d="M15,34.78a.82.82,0,0,1-.75-.07c-.17-.14-.12-.33.11-.42a.85.85,0,0,1,.75.07C15.24,34.5,15.19,34.69,15,34.78Z"/><path class="cls-7" d="M8.22,30.14a.85.85,0,0,1-.75-.07c-.17-.14-.12-.33.12-.42a.8.8,0,0,1,.74.07C8.51,29.86,8.46,30,8.22,30.14Z"/><path class="cls-7" d="M23,31.85a.85.85,0,0,1-.75-.08c-.17-.13-.12-.32.12-.42a.83.83,0,0,1,.74.08C23.32,31.56,23.27,31.75,23,31.85Z"/><path class="cls-7" d="M26.81,30a.82.82,0,0,1-.74-.07c-.18-.14-.13-.33.11-.42a.82.82,0,0,1,.74.07C27.1,29.73,27.05,29.92,26.81,30Z"/><path class="cls-7" d="M30.43,28.35a.85.85,0,0,1-.75-.07c-.17-.14-.12-.33.12-.42a.8.8,0,0,1,.74.07C30.72,28.07,30.66,28.25,30.43,28.35Z"/><path class="cls-7" d="M28.33,29.64a.6.6,0,0,1-.54-.05c-.13-.1-.09-.24.08-.31a.62.62,0,0,1,.55.06C28.54,29.44,28.51,29.57,28.33,29.64Z"/><path class="cls-7" d="M26.89,25.71a.62.62,0,0,1-.55-.05c-.13-.1-.09-.24.08-.31a.62.62,0,0,1,.55,0C27.1,25.5,27.06,25.64,26.89,25.71Z"/><path class="cls-7" d="M4.65,27.69a.6.6,0,0,1-.54-.05c-.13-.1-.09-.24.08-.31a.62.62,0,0,1,.55.05C4.86,27.48,4.83,27.62,4.65,27.69Z"/><path class="cls-7" d="M21.31,33.48a.62.62,0,0,1-.55-.06c-.12-.1-.09-.23.09-.3a.6.6,0,0,1,.54.05C21.52,33.27,21.48,33.41,21.31,33.48Z"/><path class="cls-7" d="M11.51,33.08A.62.62,0,0,1,11,33c-.13-.1-.09-.23.08-.3a.62.62,0,0,1,.55.05C11.72,32.87,11.68,33,11.51,33.08Z"/><path class="cls-7" d="M11.27,31.29a.62.62,0,0,1-.55-.05c-.13-.1-.09-.24.08-.31a.62.62,0,0,1,.55.06C11.48,31.09,11.44,31.22,11.27,31.29Z"/><path class="cls-7" d="M20.38,22a.62.62,0,0,1-.55,0c-.12-.1-.09-.24.09-.31a.6.6,0,0,1,.54.06C20.59,21.79,20.55,21.92,20.38,22Z"/><path class="cls-7" d="M14.73,25.71a.62.62,0,0,1-.55-.05c-.13-.1-.09-.24.08-.31a.62.62,0,0,1,.55,0C14.94,25.5,14.9,25.64,14.73,25.71Z"/><path class="cls-7" d="M17,35.54a.62.62,0,0,1-.55,0c-.13-.1-.09-.24.08-.31a.62.62,0,0,1,.55,0C17.19,35.33,17.15,35.47,17,35.54Z"/><path class="cls-7" d="M23,23.79a.6.6,0,0,1-.54-.06c-.13-.1-.09-.23.08-.3a.62.62,0,0,1,.55.05C23.23,23.58,23.2,23.72,23,23.79Z"/><path class="cls-7" d="M17,28.11a.62.62,0,0,1-.55-.05c-.13-.1-.09-.24.08-.31a.62.62,0,0,1,.55.05C17.24,27.9,17.2,28,17,28.11Z"/><path class="cls-7" d="M20.51,28.8a.6.6,0,0,1-.54-.06c-.13-.1-.09-.23.08-.3a.62.62,0,0,1,.55,0C20.72,28.59,20.69,28.73,20.51,28.8Z"/><path class="cls-7" d="M4.26,28.74a.6.6,0,0,1-.54-.06c-.13-.1-.09-.23.08-.3a.62.62,0,0,1,.55.05C4.47,28.53,4.44,28.67,4.26,28.74Z"/><path class="cls-7" d="M11.58,24.24a.6.6,0,0,1-.54-.06c-.13-.1-.09-.24.08-.31a.62.62,0,0,1,.55.06C11.79,24,11.76,24.16,11.58,24.24Z"/><path class="cls-7" d="M2.2,27.69a.62.62,0,0,1-.55-.05c-.12-.1-.09-.24.09-.31a.6.6,0,0,1,.54.05C2.41,27.48,2.37,27.62,2.2,27.69Z"/><path class="cls-7" d="M28.07,26.92a.6.6,0,0,1-.54-.05c-.13-.1-.09-.24.08-.31a.6.6,0,0,1,.54.05C28.28,26.71,28.24,26.85,28.07,26.92Z"/><path class="cls-7" d="M8.2,25.16a.6.6,0,0,1-.54-.05c-.13-.1-.09-.24.08-.31a.62.62,0,0,1,.55.05C8.41,25,8.38,25.09,8.2,25.16Z"/><path class="cls-7" d="M23.9,28.67a.62.62,0,0,1-.55-.05c-.13-.1-.09-.24.09-.31a.6.6,0,0,1,.54.06C24.11,28.47,24.07,28.6,23.9,28.67Z"/><path class="cls-7" d="M13.23,21.88a.62.62,0,0,1-.55-.05c-.13-.1-.09-.24.09-.31a.63.63,0,0,1,.54.05C13.44,21.67,13.4,21.81,13.23,21.88Z"/><path class="cls-7" d="M13.37,33.48a.6.6,0,0,1-.54-.06c-.13-.1-.09-.23.08-.3a.62.62,0,0,1,.55.05C13.59,33.27,13.55,33.41,13.37,33.48Z"/><polygon class="cls-8" points="32.26 27.68 16.54 36.74 16.72 36.84 32.45 27.79 32.26 27.68"/><polygon class="cls-8" points="16.17 18.41 32.45 27.79 32.26 27.9 15.99 18.52 16.17 18.41"/><polygon class="cls-8" points="0.44 27.26 16.71 36.63 16.53 36.74 0.26 27.36 0.44 27.26"/><polygon class="cls-9" points="0 27.5 0 28.27 16.71 37.98 16.71 37.22 0 27.5"/><polygon class="cls-7" points="33.19 27.85 33.19 28.61 16.71 37.98 16.71 37.22 33.19 27.85"/><polygon class="cls-8" points="10.92 22.13 16.78 18.76 16.6 18.65 10.82 21.98 10.46 21.49 1.54 26.64 2.14 26.98 0.88 27.71 1.06 27.81 2.32 27.09 12.78 33.13 14.47 33.13 16.14 32.19 16.94 32.61 18.4 32.61 10.92 22.13"/><polygon class="cls-10" points="17.07 22.07 9.34 26.55 9.33 26.54 7.62 25.57 7.31 25.39 7.6 25.22 15.04 20.91 17.07 22.07 17.07 22.07"/><polygon class="cls-11" points="7.31 25.38 7.31 26.22 9.34 27.39 9.34 26.55 7.31 25.38"/><polygon class="cls-12" points="17.07 22.07 17.07 22.91 9.34 27.39 9.34 26.55 17.07 22.07"/><polygon class="cls-10" points="25.52 25.31 24.39 25.96 24.1 26.13 16.66 30.44 14.47 31.7 7.4 27.66 7.7 27.49 9.33 26.54 17.07 22.07 18.46 21.27 23.81 24.33 25.52 25.31"/><polygon class="cls-11" points="7.4 27.66 7.4 28.5 14.47 32.54 14.47 31.7 7.4 27.66"/><polygon class="cls-12" points="25.52 25.31 25.52 26.15 14.47 32.54 14.47 31.7 25.52 25.31"/><polygon class="cls-10" points="26.13 27.29 18.4 31.77 16.37 30.61 16.66 30.44 24.1 26.13 24.42 26.32 26.13 27.29"/><path class="cls-13" d="M24.1,26.13l.29-.17-1.71-1,1.13-.65-5.35-3.06-1.39.8-2-1.16L7.6,25.22l.32.18-.3.16,1.71,1-1.63.95,5.35,3.06L15,29.46l1.7,1h0l.32.18,7.44-4.3Z"/><polygon class="cls-11" points="16.37 30.61 16.37 31.44 18.4 32.61 18.4 31.77 16.37 30.61"/><polygon class="cls-12" points="26.13 27.29 26.13 28.13 18.4 32.61 18.4 31.77 26.13 27.29"/><polygon class="cls-11" points="24.67 20.91 24.67 25.23 25 25.42 25 21.1 24.67 20.91"/><polygon class="cls-12" points="25.32 20.92 25.32 25.24 25 25.42 25 21.1 25.32 20.92"/><polygon class="cls-11" points="25 22.99 25 27.31 25.34 27.5 25.34 23.18 25 22.99"/><polygon class="cls-12" points="25.65 23 25.65 27.32 25.34 27.5 25.34 23.18 25.65 23"/><polygon class="cls-11" points="7.68 21.06 7.68 25.38 8.01 25.57 8.01 21.25 7.68 21.06"/><polygon class="cls-12" points="8.33 21.07 8.33 25.39 8.01 25.57 8.01 21.25 8.33 21.07"/><polygon class="cls-11" points="18.07 26.13 18.07 31.32 18.41 31.51 18.41 26.32 18.07 26.13"/><polygon class="cls-12" points="18.73 26.14 18.73 31.33 18.41 31.51 18.41 26.32 18.73 26.14"/><polygon class="cls-11" points="8 23.36 8 27.68 8.34 27.87 8.34 23.55 8 23.36"/><polygon class="cls-12" points="8.65 23.37 8.65 27.69 8.34 27.87 8.34 23.55 8.65 23.37"/><polygon class="cls-11" points="14.15 26.13 14.15 31.32 14.48 31.51 14.48 26.32 14.15 26.13"/><polygon class="cls-12" points="14.8 26.14 14.8 31.33 14.48 31.51 14.48 26.32 14.8 26.14"/><polygon class="cls-10" points="17.07 17.5 9.34 21.98 9.33 21.97 7.67 21.02 7.31 20.82 7.56 20.67 15.04 16.34 17.07 17.5 17.07 17.5"/><polygon class="cls-11" points="7.31 20.81 7.31 21.28 9.34 22.44 9.34 21.98 7.31 20.81"/><polygon class="cls-12" points="17.07 17.5 17.07 17.97 9.34 22.44 9.34 21.98 17.07 17.5"/><polygon class="cls-10" points="25.52 20.74 24.34 21.42 24.1 21.56 23.51 21.9 16.61 25.89 14.47 27.13 7.4 23.09 7.65 22.95 9.33 21.97 17.07 17.5 18.46 16.7 23.86 19.79 25.52 20.74"/><polygon class="cls-11" points="7.4 23.09 7.4 23.55 14.47 27.59 14.47 27.13 7.4 23.09"/><polygon class="cls-12" points="25.52 20.74 25.52 21.2 14.47 27.59 14.47 27.13 25.52 20.74"/><polygon class="cls-10" points="26.13 22.72 18.4 27.2 16.37 26.04 16.61 25.9 23.51 21.9 24.1 21.56 24.47 21.77 26.13 22.72"/><path class="cls-13" d="M24.1,21.56l.25-.14-1.67-1,1.18-.68-5.4-3.09-1.39.8-2-1.16L7.56,20.67l.36.21L7.67,21,9.33,22,7.65,23,13.05,26l1.9-1.1,1.66.95h0l.37.21,7.49-4.34Z"/><polygon class="cls-11" points="16.37 26.03 16.37 26.5 18.4 27.66 18.4 27.2 16.37 26.03"/><polygon class="cls-12" points="26.13 22.72 26.13 23.19 18.4 27.66 18.4 27.2 26.13 22.72"/><polygon class="cls-11" points="7.68 16.06 7.68 20.88 8.01 21.08 8.01 16.25 7.68 16.06"/><polygon class="cls-12" points="8.33 16.07 8.33 20.9 8.01 21.08 8.01 16.25 8.33 16.07"/><polygon class="cls-11" points="8 18.86 8 23.19 8.34 23.38 8.34 19.06 8 18.86"/><polygon class="cls-12" points="8.65 18.88 8.65 23.2 8.34 23.38 8.34 19.06 8.65 18.88"/><polygon class="cls-11" points="24.67 16.34 24.67 20.66 25 20.85 25 16.53 24.67 16.34"/><polygon class="cls-12" points="25.32 16.35 25.32 20.67 25 20.85 25 16.53 25.32 16.35"/><polygon class="cls-11" points="25 18.42 25 22.74 25.34 22.93 25.34 18.61 25 18.42"/><polygon class="cls-12" points="25.65 18.43 25.65 22.75 25.34 22.93 25.34 18.61 25.65 18.43"/><polygon class="cls-11" points="18.07 21.47 18.07 26.66 18.41 26.86 18.41 21.67 18.07 21.47"/><polygon class="cls-12" points="18.73 21.49 18.73 26.68 18.41 26.86 18.41 21.67 18.73 21.49"/><polygon class="cls-11" points="14.15 21.47 14.15 26.66 14.48 26.86 14.48 21.67 14.15 21.47"/><polygon class="cls-12" points="14.8 21.49 14.8 26.68 14.48 26.86 14.48 21.67 14.8 21.49"/><polygon class="cls-10" points="17.07 12.54 9.34 17.01 9.34 17.01 7.56 15.99 7.31 15.85 7.67 15.64 15.04 11.38 17.07 12.54 17.07 12.54"/><polygon class="cls-11" points="7.31 15.85 7.31 16.31 9.34 17.48 9.34 17.01 7.31 15.85"/><polygon class="cls-12" points="17.07 12.54 17.07 13 9.34 17.48 9.34 17.01 17.07 12.54"/><polygon class="cls-10" points="25.52 15.77 24.46 16.39 24.1 16.59 23.51 16.93 16.72 20.86 14.47 22.16 7.4 18.13 7.76 17.92 9.34 17.01 17.07 12.54 18.46 11.73 23.75 14.76 25.52 15.77"/><polygon class="cls-11" points="7.4 18.12 7.4 18.59 14.47 22.63 14.47 22.16 7.4 18.12"/><polygon class="cls-12" points="25.52 15.77 25.52 16.24 14.47 22.63 14.47 22.16 25.52 15.77"/><polygon class="cls-10" points="26.13 17.76 18.4 22.23 16.37 21.07 16.73 20.87 23.51 16.93 24.1 16.59 24.36 16.74 26.13 17.76"/><path class="cls-13" d="M24.46,16.39l-1.78-1,1.07-.61-5.29-3-1.39.8-2-1.16L7.67,15.64l.25.15-.36.2,1.78,1-1.58.91,5.29,3L15,19.85l1.77,1h0L17,21l7.38-4.27-.26-.14Z"/><polygon class="cls-11" points="16.37 21.07 16.37 21.53 18.4 22.7 18.4 22.23 16.37 21.07"/><polygon class="cls-12" points="26.13 17.76 26.13 18.22 18.4 22.7 18.4 22.23 26.13 17.76"/><polygon class="cls-11" points="7.68 10.3 7.68 15.84 8.01 16.04 8.01 10.49 7.68 10.3"/><polygon class="cls-12" points="8.33 10.31 8.33 15.86 8.01 16.04 8.01 10.49 8.33 10.31"/><polygon class="cls-11" points="8 12.82 8 18.14 8.34 18.34 8.34 13.02 8 12.82"/><polygon class="cls-12" points="8.65 12.84 8.65 18.16 8.34 18.34 8.34 13.02 8.65 12.84"/><polygon class="cls-11" points="24.67 11.38 24.67 15.7 25 15.9 25 11.58 24.67 11.38"/><polygon class="cls-12" points="25.32 11.39 25.32 15.72 25 15.9 25 11.58 25.32 11.39"/><polygon class="cls-11" points="25 12.44 25 17.78 25.34 17.98 25.34 12.63 25 12.44"/><polygon class="cls-12" points="25.65 12.45 25.65 17.8 25.34 17.98 25.34 12.63 25.65 12.45"/><polygon class="cls-11" points="18.07 16.59 18.07 21.78 18.41 21.98 18.41 16.79 18.07 16.59"/><polygon class="cls-12" points="18.73 16.61 18.73 21.8 18.41 21.98 18.41 16.79 18.73 16.61"/><polygon class="cls-11" points="14.15 16.59 14.15 21.78 14.48 21.98 14.48 16.79 14.15 16.59"/><polygon class="cls-12" points="14.8 16.61 14.8 21.8 14.48 21.98 14.48 16.79 14.8 16.61"/><polygon class="cls-10" points="17.07 6.99 16.54 7.3 10.71 10.67 9.34 11.46 9.33 11.46 7.5 10.41 7.31 10.3 7.73 10.06 15.04 5.83 17.07 6.99 17.07 6.99"/><polygon class="cls-11" points="7.31 10.3 7.31 10.76 9.34 11.93 9.34 11.46 7.31 10.3"/><polygon class="cls-12" points="17.07 6.99 17.07 7.45 9.34 11.93 9.34 11.46 17.07 6.99"/><polygon class="cls-10" points="25.52 10.22 24.52 10.8 24.1 11.05 23.51 11.38 16.78 15.28 14.47 16.61 7.4 12.57 7.82 12.33 9.33 11.46 10.7 10.67 16.53 7.3 17.07 6.99 18.46 6.18 23.69 9.17 25.52 10.22"/><polygon class="cls-11" points="7.4 12.57 7.4 13.04 14.47 17.08 14.47 16.61 7.4 12.57"/><polygon class="cls-12" points="25.52 10.22 25.52 10.69 14.47 17.08 14.47 16.61 25.52 10.22"/><polygon class="cls-10" points="26.13 12.21 18.4 16.68 16.37 15.52 16.79 15.28 23.51 11.38 24.1 11.05 24.3 11.16 24.3 11.16 26.13 12.21"/><path class="cls-13" d="M24.52,10.81l-1.11-.64h0l-.73-.42.7-.4.31-.18-5.23-3L17.07,7,15,5.83,7.73,10.06l.19.11-.42.24,1.83,1.05-1.51.87,5.23,3,2-1.15-.1.06h0l1.83,1h0l.19.11,7-4.05.3-.18-.19-.11ZM15,13.13l-4.31-2.46h0l-.76-.44L9.6,10l-.39-.23,5.86-3.35.36.21,1.1.63h0l4.34,2.48-.73.42Z"/><polygon class="cls-11" points="16.37 15.52 16.37 15.98 18.4 17.15 18.4 16.68 16.37 15.52"/><polygon class="cls-12" points="26.13 12.21 26.13 12.67 18.4 17.15 18.4 16.68 26.13 12.21"/><polygon class="cls-11" points="7.68 4.78 7.68 10.33 8.01 10.52 8.01 4.98 7.68 4.78"/><polygon class="cls-12" points="8.33 4.8 8.33 10.34 8.01 10.52 8.01 4.98 8.33 4.8"/><polygon class="cls-11" points="8 7.31 8 12.63 8.34 12.82 8.34 7.5 8 7.31"/><polygon class="cls-12" points="8.65 7.32 8.65 12.64 8.34 12.82 8.34 7.5 8.65 7.32"/><polygon class="cls-11" points="24.67 5.07 24.67 10.21 25 10.4 25 5.27 24.67 5.07"/><polygon class="cls-12" points="25.32 5.08 25.32 10.22 25 10.4 25 5.27 25.32 5.08"/><polygon class="cls-11" points="25 6.65 25 12.29 25.34 12.48 25.34 6.84 25 6.65"/><polygon class="cls-12" points="25.65 6.66 25.65 12.3 25.34 12.48 25.34 6.85 25.65 6.66"/><polygon class="cls-11" points="18.07 11.08 18.07 16.27 18.41 16.46 18.41 11.27 18.07 11.08"/><polygon class="cls-12" points="18.73 11.09 18.73 16.28 18.41 16.46 18.41 11.27 18.73 11.09"/><polygon class="cls-11" points="14.15 11.08 14.15 16.27 14.48 16.46 14.48 11.27 14.15 11.08"/><polygon class="cls-12" points="14.8 11.09 14.8 16.28 14.48 16.46 14.48 11.27 14.8 11.09"/><polygon class="cls-11" points="18.17 1.44 18.17 6.63 18.51 6.83 18.51 1.64 18.17 1.44"/><polygon class="cls-12" points="18.82 1.46 18.82 6.65 18.51 6.83 18.51 1.64 18.82 1.46"/><polygon class="cls-11" points="14.74 1.08 14.74 6.27 15.07 6.46 15.07 1.28 14.74 1.08"/><polygon class="cls-12" points="15.39 1.09 15.39 6.28 15.07 6.46 15.07 1.28 15.39 1.09"/><polygon class="cls-11" points="7.31 4.47 7.31 5.31 9.34 6.48 9.34 5.64 7.31 4.47"/><polygon class="cls-11" points="7.4 6.75 7.4 7.59 14.47 11.63 14.47 10.79 7.4 6.75"/><polygon class="cls-12" points="25.52 4.4 25.52 5.24 14.47 11.63 14.47 10.79 25.52 4.4"/><path class="cls-4" d="M24.83,5.64h0l-.73-.42.7-.4.72-.42-7.06-4-1.39.8L15,0,7.32,4.48h0L8,4.89l1.29.74-.72.42h0l-1.2.7h0l.73.42,6.34,3.62,2-1.16h0l-.1.06h0l.72.41,1.31.75,7-4.06.72-.42Zm-3.26,0L16.44,8.6,11.36,5.7,11,5.51l-.4-.23,5.87-3.35.35.2L22.3,5.25Z"/><polygon class="cls-12" points="22.3 5.25 21.57 5.67 16.84 2.97 16.49 2.77 11.36 5.7 11.02 5.51 10.63 5.28 16.49 1.93 16.84 2.13 22.3 5.25"/><polygon class="cls-11" points="16.37 9.7 16.37 10.54 18.4 11.7 18.4 10.86 16.37 9.7"/><polygon class="cls-12" points="26.13 6.38 26.13 7.22 18.4 11.7 18.4 10.86 26.13 6.38"/><polygon class="cls-11" points="16.49 1.93 16.49 2.77 21.57 5.67 22.3 5.25 16.49 1.93"/><polygon class="cls-11" points="0.85 22.48 0.85 27.7 1.05 27.81 1.05 22.59 0.85 22.48"/><polygon class="cls-4" points="1.03 22.37 0.85 22.48 1.05 22.59 1.23 22.49 1.03 22.37"/><polygon class="cls-12" points="1.23 22.49 1.23 27.71 1.05 27.81 1.05 22.59 1.23 22.49"/><polygon class="cls-11" points="32.07 22.56 32.07 27.78 32.26 27.9 32.26 22.68 32.07 22.56"/><polygon class="cls-4" points="32.25 22.45 32.07 22.56 32.26 22.68 32.45 22.57 32.25 22.45"/><polygon class="cls-12" points="32.45 22.57 32.45 27.79 32.26 27.9 32.26 22.68 32.45 22.57"/><polygon class="cls-4" points="32.27 23.95 31.55 24.36 31.3 24.51 30.91 24.73 30.66 24.87 30.27 25.1 30.02 25.24 29.63 25.46 29.38 25.61 28.99 25.83 28.74 25.98 28.36 26.2 28.1 26.35 27.72 26.57 27.46 26.71 27.08 26.94 27.08 26.94 26.82 27.08 26.44 27.31 26.19 27.45 25.8 27.67 25.55 27.82 25.16 28.04 24.91 28.19 24.91 28.19 24.52 28.41 24.27 28.56 23.89 28.78 23.63 28.93 23.25 29.15 22.99 29.29 22.61 29.52 22.36 29.66 22.35 29.66 21.97 29.88 21.97 29.88 21.72 30.03 21.33 30.25 21.08 30.4 20.69 30.62 20.44 30.77 20.05 30.99 19.8 31.14 19.41 31.36 19.41 31.36 19.16 31.5 18.78 31.73 18.52 31.87 18.14 32.09 17.88 32.24 17.5 32.46 17.25 32.61 17.25 32.61 16.75 32.9 16.75 32.41 17.47 32 17.72 31.85 18.11 31.63 18.36 31.48 18.75 31.26 19 31.11 19 31.11 19.39 30.89 19.64 30.75 20.03 30.52 20.28 30.38 20.66 30.16 20.92 30.01 21.3 29.79 21.55 29.64 21.55 29.64 21.94 29.42 21.94 29.42 22.19 29.27 22.58 29.05 22.83 28.9 23.22 28.68 23.47 28.54 23.86 28.31 24.11 28.17 24.11 28.17 24.49 27.95 24.5 27.95 24.75 27.8 24.75 27.8 25.13 27.58 25.39 27.43 25.77 27.21 26.02 27.06 26.03 27.06 26.41 26.84 26.66 26.69 27.05 26.47 27.05 26.47 27.3 26.32 27.69 26.1 27.94 25.96 28.33 25.73 28.58 25.59 28.96 25.37 29.22 25.22 29.6 25 29.86 24.85 30.24 24.63 30.5 24.48 30.88 24.26 31.13 24.11 31.52 23.89 31.77 23.75 32.26 23.46 32.27 23.95"/><polygon class="cls-5" points="31.77 23.75 31.55 24.36 31.3 24.51 31.52 23.89 31.77 23.75"/><polygon class="cls-5" points="31.13 24.11 30.91 24.73 30.66 24.87 30.88 24.26 31.13 24.11"/><polygon class="cls-5" points="30.5 24.48 30.27 25.1 30.02 25.24 30.24 24.63 30.5 24.48"/><polygon class="cls-5" points="29.86 24.85 29.63 25.46 29.38 25.61 29.6 25 29.86 24.85"/><polygon class="cls-5" points="29.22 25.22 28.99 25.83 28.74 25.98 28.96 25.37 29.22 25.22"/><polygon class="cls-5" points="28.58 25.59 28.36 26.2 28.1 26.35 28.33 25.73 28.58 25.59"/><polygon class="cls-5" points="27.94 25.96 27.72 26.57 27.46 26.71 27.69 26.1 27.94 25.96"/><polygon class="cls-5" points="27.3 26.32 27.08 26.94 27.08 26.94 26.82 27.08 27.05 26.47 27.05 26.47 27.3 26.32"/><polygon class="cls-5" points="26.66 26.69 26.44 27.31 26.19 27.45 26.41 26.84 26.66 26.69"/><polygon class="cls-5" points="26.02 27.06 25.8 27.67 25.55 27.82 25.77 27.21 26.02 27.06"/><polygon class="cls-5" points="25.39 27.43 25.16 28.04 24.91 28.19 25.13 27.58 25.39 27.43"/><polygon class="cls-5" points="24.75 27.8 24.52 28.41 24.27 28.56 24.49 27.95 24.5 27.95 24.75 27.8"/><polygon class="cls-5" points="24.11 28.17 23.89 28.78 23.63 28.93 23.86 28.31 24.11 28.17"/><polygon class="cls-5" points="23.47 28.54 23.25 29.15 22.99 29.29 23.22 28.68 23.47 28.54"/><polygon class="cls-5" points="22.83 28.9 22.61 29.52 22.36 29.66 22.58 29.05 22.83 28.9"/><polygon class="cls-5" points="22.19 29.27 21.97 29.88 21.97 29.88 21.72 30.03 21.94 29.42 21.94 29.42 22.19 29.27"/><polygon class="cls-5" points="21.55 29.64 21.33 30.25 21.08 30.4 21.3 29.79 21.55 29.64"/><polygon class="cls-5" points="20.92 30.01 20.69 30.62 20.44 30.77 20.66 30.16 20.92 30.01"/><polygon class="cls-5" points="20.28 30.38 20.05 30.99 19.8 31.14 20.03 30.52 20.28 30.38"/><polygon class="cls-5" points="19.64 30.75 19.41 31.36 19.41 31.36 19.16 31.5 19.39 30.89 19.64 30.75"/><polygon class="cls-5" points="19 31.11 18.78 31.73 18.52 31.87 18.75 31.26 19 31.11"/><polygon class="cls-5" points="18.36 31.48 18.14 32.09 17.88 32.24 18.11 31.63 18.36 31.48"/><polygon class="cls-5" points="17.72 31.85 17.5 32.46 17.25 32.61 17.47 32 17.72 31.85"/><polygon class="cls-2" points="1.14 23.92 1.92 24.36 2.17 24.51 2.56 24.73 2.81 24.87 3.2 25.1 3.45 25.24 3.83 25.46 4.09 25.61 4.47 25.83 4.73 25.98 5.11 26.2 5.37 26.35 5.75 26.57 6 26.71 6.39 26.94 6.39 26.94 6.64 27.08 7.03 27.31 7.28 27.45 7.67 27.67 7.92 27.82 8.31 28.04 8.56 28.19 8.56 28.19 8.95 28.41 9.2 28.56 9.58 28.78 9.84 28.93 10.22 29.15 10.47 29.29 10.86 29.52 11.11 29.66 11.11 29.66 11.5 29.88 11.5 29.88 11.75 30.03 12.14 30.25 12.39 30.4 12.78 30.62 13.03 30.77 13.41 30.99 13.67 31.14 14.05 31.36 14.05 31.36 14.3 31.5 14.69 31.73 14.95 31.87 15.33 32.09 15.58 32.24 15.97 32.46 16.22 32.61 16.22 32.61 16.72 32.9 16.72 32.41 16 32 15.74 31.85 15.36 31.63 15.11 31.48 14.72 31.26 14.47 31.11 14.47 31.11 14.08 30.89 13.83 30.75 13.44 30.52 13.19 30.38 12.8 30.16 12.55 30.01 12.17 29.79 11.91 29.64 11.91 29.64 11.53 29.42 11.53 29.42 11.27 29.27 10.89 29.05 10.64 28.9 10.25 28.68 10 28.54 9.61 28.31 9.36 28.17 9.36 28.17 8.97 27.95 8.97 27.95 8.72 27.8 8.72 27.8 8.33 27.58 8.08 27.43 7.7 27.21 7.44 27.06 7.44 27.06 7.06 26.84 6.8 26.69 6.42 26.47 6.42 26.47 6.17 26.32 5.78 26.1 5.53 25.96 5.14 25.73 4.89 25.59 4.5 25.37 4.25 25.22 3.86 25 3.61 24.85 3.23 24.63 2.97 24.48 2.59 24.26 2.33 24.11 1.95 23.89 1.7 23.75 1.14 23.44 1.14 23.92"/><polygon class="cls-3" points="1.7 23.75 1.92 24.36 2.17 24.51 1.95 23.89 1.7 23.75"/><polygon class="cls-3" points="2.33 24.11 2.56 24.73 2.81 24.87 2.59 24.26 2.33 24.11"/><polygon class="cls-3" points="2.97 24.48 3.2 25.1 3.45 25.24 3.23 24.63 2.97 24.48"/><polygon class="cls-3" points="3.61 24.85 3.83 25.46 4.09 25.61 3.86 25 3.61 24.85"/><polygon class="cls-3" points="4.25 25.22 4.47 25.83 4.73 25.98 4.5 25.37 4.25 25.22"/><polygon class="cls-3" points="4.89 25.59 5.11 26.2 5.37 26.35 5.14 25.73 4.89 25.59"/><polygon class="cls-3" points="5.53 25.96 5.75 26.57 6 26.71 5.78 26.1 5.53 25.96"/><polygon class="cls-3" points="6.17 26.32 6.39 26.94 6.39 26.94 6.64 27.08 6.42 26.47 6.42 26.47 6.17 26.32"/><polygon class="cls-3" points="6.8 26.69 7.03 27.31 7.28 27.45 7.06 26.84 6.8 26.69"/><polygon class="cls-3" points="7.44 27.06 7.67 27.67 7.92 27.82 7.7 27.21 7.44 27.06"/><polygon class="cls-3" points="8.08 27.43 8.31 28.04 8.56 28.19 8.33 27.58 8.08 27.43"/><polygon class="cls-3" points="8.72 27.8 8.95 28.41 9.2 28.56 8.97 27.95 8.97 27.95 8.72 27.8"/><polygon class="cls-3" points="9.36 28.17 9.58 28.78 9.84 28.93 9.61 28.31 9.36 28.17"/><polygon class="cls-3" points="10 28.54 10.22 29.15 10.47 29.29 10.25 28.68 10 28.54"/><polygon class="cls-3" points="10.64 28.9 10.86 29.52 11.11 29.66 10.89 29.05 10.64 28.9"/><polygon class="cls-3" points="11.27 29.27 11.5 29.88 11.5 29.88 11.75 30.03 11.53 29.42 11.53 29.42 11.27 29.27"/><polygon class="cls-3" points="11.91 29.64 12.14 30.25 12.39 30.4 12.17 29.79 11.91 29.64"/><polygon class="cls-3" points="12.55 30.01 12.78 30.62 13.03 30.77 12.8 30.16 12.55 30.01"/><polygon class="cls-3" points="13.19 30.38 13.41 30.99 13.67 31.14 13.44 30.52 13.19 30.38"/><polygon class="cls-3" points="13.83 30.75 14.05 31.36 14.05 31.36 14.3 31.5 14.08 30.89 13.83 30.75"/><polygon class="cls-3" points="14.47 31.11 14.69 31.73 14.95 31.87 14.72 31.26 14.47 31.11"/><polygon class="cls-3" points="15.11 31.48 15.33 32.09 15.58 32.24 15.36 31.63 15.11 31.48"/><polygon class="cls-3" points="15.74 31.85 15.97 32.46 16.22 32.61 16 32 15.74 31.85"/><polygon class="cls-11" points="16.52 31.51 16.52 36.73 16.72 36.84 16.72 31.62 16.52 31.51"/><polygon class="cls-4" points="16.71 31.4 16.52 31.51 16.72 31.62 16.9 31.52 16.71 31.4"/><polygon class="cls-12" points="16.9 31.52 16.9 36.74 16.72 36.84 16.72 31.62 16.9 31.52"/></g></g></g></svg>