<svg xmlns="http://www.w3.org/2000/svg" xmlns:xlink="http://www.w3.org/1999/xlink" viewBox="0 0 24.58 41.47"><defs><style>.cls-1{isolation:isolate;}.cls-2{fill:#b5b5b5;mix-blend-mode:multiply;}.cls-3{fill:#ffb79c;}.cls-4{fill:#dbab90;}.cls-5{fill:#212426;}.cls-6{fill:#42484d;}.cls-7{fill:#2c3033;}.cls-8{fill:#204473;}.cls-9{fill:#0876ad;}.cls-10{fill:#ff8b00;}.cls-11{fill:#d67700;}.cls-12{fill:#cfcfcf;}.cls-13{fill:#0980cf;}.cls-14{fill:#ffa682;}.cls-15{fill:#450000;}.cls-16{fill:#360000;}.cls-17{fill:#590000;}.cls-18{fill:#6e0000;}.cls-19{fill:#ffa62e;}.cls-20{fill:#ba6b00;}.cls-21{fill:url(#Áåçûìÿííûé_ãðàäèåíò_15);}.cls-22{fill:#232323;}.cls-23{fill:#c9c9c9;}.cls-24{fill:#464646;}.cls-25{fill:url(#Áåçûìÿííûé_ãðàäèåíò_96);}.cls-26{fill:url(#Áåçûìÿííûé_ãðàäèåíò_99);}.cls-27{fill:#ababab;}.cls-28{fill:url(#Áåçûìÿííûé_ãðàäèåíò_23);}.cls-29{fill:url(#Áåçûìÿííûé_ãðàäèåíò_96-2);}.cls-30{fill:#333;}.cls-31{fill:url(#Áåçûìÿííûé_ãðàäèåíò_100);}.cls-32{fill:url(#Áåçûìÿííûé_ãðàäèåíò_96-3);}.cls-33{fill:url(#Áåçûìÿííûé_ãðàäèåíò_99-2);}.cls-34{fill:gray;}.cls-35{fill:#c2c2c2;}</style><linearGradient id="Áåçûìÿííûé_ãðàäèåíò_15" x1="16.58" y1="0.17" x2="15.67" y2="5.13" gradientUnits="userSpaceOnUse"><stop offset="0" stop-color="#d67700"/><stop offset="1" stop-color="#ba6b00"/></linearGradient><linearGradient id="Áåçûìÿííûé_ãðàäèåíò_96" x1="19.1" y1="7.05" x2="18.12" y2="9.05" gradientUnits="userSpaceOnUse"><stop offset="0" stop-color="#4d4d4d"/><stop offset="1" stop-color="#1f1f1f"/></linearGradient><linearGradient id="Áåçûìÿííûé_ãðàäèåíò_99" x1="19.75" y1="7" x2="18.5" y2="9.56" gradientUnits="userSpaceOnUse"><stop offset="0" stop-color="#c2c2c2"/><stop offset="1" stop-color="#666"/></linearGradient><linearGradient id="Áåçûìÿííûé_ãðàäèåíò_23" x1="21.6" y1="7.54" x2="20.08" y2="10.48" gradientUnits="userSpaceOnUse"><stop offset="0" stop-color="#0980cf"/><stop offset="1" stop-color="#204473"/></linearGradient><linearGradient id="Áåçûìÿííûé_ãðàäèåíò_96-2" x1="23.7" y1="7.54" x2="21.23" y2="11.23" xlink:href="#Áåçûìÿííûé_ãðàäèåíò_96"/><linearGradient id="Áåçûìÿííûé_ãðàäèåíò_100" x1="23.88" y1="8.11" x2="22.1" y2="11.96" gradientUnits="userSpaceOnUse"><stop offset="0" stop-color="#666"/><stop offset="1" stop-color="#c2c2c2"/></linearGradient><linearGradient id="Áåçûìÿííûé_ãðàäèåíò_96-3" x1="21.98" y1="9.95" x2="24.43" y2="9.95" xlink:href="#Áåçûìÿííûé_ãðàäèåíò_96"/><linearGradient id="Áåçûìÿííûé_ãðàäèåíò_99-2" x1="22.6" y1="9.14" x2="22.09" y2="10.47" xlink:href="#Áåçûìÿííûé_ãðàäèåíò_99"/></defs><g class="cls-1"><g id="Layer_2" data-name="Layer 2"><g id="Layer_1-2" data-name="Layer 1"><path class="cls-2" d="M.34,31.8a10.83,10.83,0,0,0,1.36.44l.19,0,.2.05.08,0a3.65,3.65,0,0,0,.85.11h.32l.24.13a.29.29,0,0,1,.06.16l-.07.07s0,0,0,0l-.65.34a.23.23,0,0,0-.09.06s0,0,0,.06a4.2,4.2,0,0,0-.6.3,10,10,0,0,1-.93.58.63.63,0,0,0-.2.13s0,0,0,.08a.47.47,0,0,0,0,.17.86.86,0,0,0,.13.39l0,.1a1.15,1.15,0,0,0,.22.25,4.4,4.4,0,0,0,.59.54l.23.18.37.28a1,1,0,0,0,.54.24,1.21,1.21,0,0,0,.27,0l0,0c.16.1.31.21.49.31a12.14,12.14,0,0,0,1.83.77c.85.35,2.41.88,2.78,1l.13,0,.18.06.19.07.4.14a11.38,11.38,0,0,0,1.34.34l.17,0c.72.36,1.72.78,2.55,1.21.35.19.63.44,1,.64s.46.11.53-.3a2.54,2.54,0,0,0,0-1,4.07,4.07,0,0,0-.38-.75,5.24,5.24,0,0,1-.46-1.09,1.64,1.64,0,0,1,0-1,.73.73,0,0,1,.83-.49,1.71,1.71,0,0,1,.43.29c.41.34,1.68,1.11,1.74.11.06-1.31-1.39-1.67-2.32-2.23a6.5,6.5,0,0,0-1.06-.47c-.35-.13-.69-.24-.89-.3l-.14,0a1.27,1.27,0,0,0,.21-.14c.26-.25-.78-.56-1.16-.73s-.67-.33-1-.49a6.3,6.3,0,0,0-1.16-.39,2.13,2.13,0,0,0-.39-.06,6.14,6.14,0,0,0-1.49.06l0,0a1.77,1.77,0,0,0-.43-.46A3.58,3.58,0,0,1,7,31.36s0,0,0,0-.3-.17-.42-.27a1.27,1.27,0,0,1-.11-.13A1.4,1.4,0,0,0,6,30.7l-.73-.23c.72-.27.13-.5-.6-.56a3.77,3.77,0,0,0-.47,0,8.45,8.45,0,0,0-2.07.34,5,5,0,0,0-1.74.71,2.26,2.26,0,0,0-.25.29C-.06,31.45-.06,31.64.34,31.8Zm16.22,4.77-.07,0a.57.57,0,0,0-.13-.08l-.88-.52.43.13.43.15.05,0,0,0,0,0,0,0v0l0,0h0a1.42,1.42,0,0,1,0,.2Z"/><path class="cls-3" d="M17.79,16.15a13.85,13.85,0,0,0,.41,1.61l.52,1.68c.05.2.33,1,.58,1.77.09.29.18.57.25.81a4.32,4.32,0,0,1,.14.57v.06a1.83,1.83,0,0,1-.3.85,2.87,2.87,0,0,0-.12.93c0,.23-.13.94-.13.94v.24l-.07.17.06.18.17,0,0,.11.4,0a4,4,0,0,0,.65-.35,6.41,6.41,0,0,0,.52-1.2c0-.07-.16-1.19-.22-1.57,0-.11,0-.41-.05-.82-.05-1.1-.09-3-.09-3.77a7.38,7.38,0,0,0-.21-1.65c-.1-.49-.23-.91-.3-1.16a12.89,12.89,0,0,1-.16-2s-2.15-.51-2.46-.25S17.76,15.67,17.79,16.15Z"/><path class="cls-4" d="M18.2,17.76l.52,1.68c.05.2.33,1,.58,1.77.09.29.18.57.25.81a4.32,4.32,0,0,1,.14.57v.06a.35.35,0,0,0,0,.08.1.1,0,0,0,.05,0c.06,0,.1-.07.1-.14a6.69,6.69,0,0,0-.09-.9,36.93,36.93,0,0,1-.06-6.31l0-.38a.39.39,0,0,0-.56-.14,1,1,0,0,0-.37.53A7.22,7.22,0,0,0,18.28,17,6.87,6.87,0,0,0,18.2,17.76Z"/><path class="cls-5" d="M17.21,35.74a1.35,1.35,0,0,0,.58,1.1A20,20,0,0,1,19.45,38a1.83,1.83,0,0,1,.24,1,.83.83,0,0,1-.31.43c-.49.41-1.45.08-1.86-.31a6.88,6.88,0,0,0-.95-.84,6.77,6.77,0,0,0-1.12-.46.66.66,0,0,1-.46-.52,1,1,0,0,1,.09-.57.7.7,0,0,1,.28-.31l.38-.25.57-.36Z"/><path class="cls-5" d="M12.24,37l-.1.25a1.6,1.6,0,0,0-.12.37,1.37,1.37,0,0,0,0,.75,2.7,2.7,0,0,0,.57.85,12.43,12.43,0,0,0,1.22,1.55,2.6,2.6,0,0,0,1.64.71c.94,0,.88-.29.85-.86s-.92-1.38-1.07-1.7l-.71-1.44L13.78,37Z"/><path class="cls-6" d="M15.26,37.36c.07.21.56.35.74.42a4.43,4.43,0,0,0,.44.14,2.17,2.17,0,0,1,.52.38,6.8,6.8,0,0,1,.57.5,2.1,2.1,0,0,0,1.17.48.76.76,0,0,0,.57-.07,1,1,0,0,0,.43-.54.78.78,0,0,0,0-.16,1.6,1.6,0,0,0,0-.23,1.56,1.56,0,0,0-.58-.88c-.37-.28-.93-.7-1.31-.93a1.32,1.32,0,0,1-.58-1.1l-.91.11-.78.51-.33.22A7.41,7.41,0,0,0,15.26,37.36Z"/><path class="cls-7" d="M15.26,37.36c.07.21.56.35.74.42a4.43,4.43,0,0,0,.44.14,2.17,2.17,0,0,1,.52.38,6.8,6.8,0,0,1,.57.5,2.1,2.1,0,0,0,1.17.48.76.76,0,0,0,.57-.07,1,1,0,0,0,.43-.54.78.78,0,0,0,0-.16c-.21,0-.41.11-.61.15a1.59,1.59,0,0,1-1.27-.29c-.15-.11-.28-.25-.43-.36a4.06,4.06,0,0,0-.74-.4,2.12,2.12,0,0,1-.71-.46.84.84,0,0,1-.22-.78.34.34,0,0,0-.21-.38l-.33.22A7.41,7.41,0,0,0,15.26,37.36Z"/><path class="cls-6" d="M12.28,38a3.87,3.87,0,0,0,.84,1.68,3.21,3.21,0,0,0,2.34,1.46c.95,0,.88-.29.85-.85v0c0-.56-.91-1.36-1.07-1.69s-.71-1.44-.71-1.44l-.74-.45-1.54,0,0,.09A2.14,2.14,0,0,0,12.28,38Z"/><path class="cls-7" d="M12.28,38a3.87,3.87,0,0,0,.84,1.68,3.21,3.21,0,0,0,2.34,1.46c.95,0,.88-.29.85-.85v0h-.07a4.27,4.27,0,0,1-1.06.23,1.93,1.93,0,0,1-1.06-.21,2.3,2.3,0,0,1-.61-.51,3.51,3.51,0,0,1-.5-.65,3.29,3.29,0,0,1-.31-.75,3.68,3.68,0,0,1-.11-1.19V37a.5.5,0,0,0-.37-.31A2.14,2.14,0,0,0,12.28,38Z"/><path class="cls-7" d="M14.29,32.65c.07,1.16.47,3.62.47,3.62l.09,0a4.38,4.38,0,0,0,.67.2,2.48,2.48,0,0,0,.72.05c.61-.06,1.29-.26,1.47-.93a3.23,3.23,0,0,0,0-.88A10.33,10.33,0,0,1,18,32.61c.14-.81.42-1.57.53-2.39.25-1.78.4-3.61.54-5.4l0-.4c0-.25,0-.51,0-.77a6.68,6.68,0,0,0-.25-2.15c-.28-.89-1.33-.31-2-.21-.25,0-.51.6-.78,1.46-.11.38-.23.82-.34,1.29s-.24,1.07-.36,1.64c-.29,1.46-.56,3-.75,4.25-.16.95-.27,1.69-.33,2,0,.08,0,.13,0,.16A2.06,2.06,0,0,0,14.29,32.65Z"/><path class="cls-5" d="M14.34,32c0,.24,0,.47-.05.69.05.89.19,1.78.32,2.66a3.68,3.68,0,0,0,.13.89c.22.44.45-.22.48-.46.08-.86.19-1.71.31-2.56.08-.57,0-1.59.76-1.74a2.36,2.36,0,0,1,.75,0,1.4,1.4,0,0,0,.73-.06,1.85,1.85,0,0,1-1-.42,1.36,1.36,0,0,1-.46-.52,2.7,2.7,0,0,1,.37-2,10.55,10.55,0,0,0,.61-2c0-.12.24-1.39.12-1.41-1.62-.4-1.9,1.36-2.72,4.87h0A16,16,0,0,0,14.34,32Z"/><path class="cls-7" d="M17.78,23.19s0,.25-.06.59a10.8,10.8,0,0,1-.29,1.44,2,2,0,0,1-.34.75,2.05,2.05,0,0,1-.45.39,1.18,1.18,0,0,0-.59.89,38.53,38.53,0,0,0-.72,4.6,20,20,0,0,0-.25,4,2.63,2.63,0,0,1,.06.48,2.6,2.6,0,0,1-.17,1,.59.59,0,0,1-.12.2.61.61,0,0,1-.22.13,2.72,2.72,0,0,1-1.65,0h0a1.7,1.7,0,0,1-1.4-1.67,6.78,6.78,0,0,1,.27-1.23,5.94,5.94,0,0,0,.07-1.27v-.19c0-.18,0-.34,0-.51,0-.33,0-.67,0-1l0-.5c0-.17,0-.34,0-.5-.13-2.08-.55-4.33-.44-5.55,0-.37.1-.88.16-1.39.14-1.12.31-2.3.31-2.3l.81.22,3.46.92Z"/><path class="cls-5" d="M14,37.72l.25,0h0a3.24,3.24,0,0,1-.88,0l-.38,0h0a1.7,1.7,0,0,1-1.4-1.67,6.78,6.78,0,0,1,.27-1.23,5.94,5.94,0,0,0,.07-1.27v-.19c0-.51,0-1-.05-1.51l0-.5c0-.17,0-.34,0-.5-.13-2.08-.55-4.33-.44-5.55,0-.37.1-.88.16-1.39.14-1.12.31-2.3.31-2.3l.81.22c-.05.39-.17,1.25-.27,2.08-.07.51-.13,1-.16,1.4,0,1.07,0,2.13.07,3.19a6,6,0,0,0,.13,1.28,2.14,2.14,0,0,0,.65,1.1,2.18,2.18,0,0,0,1.71.34,1.74,1.74,0,0,1-1.11.18,1.29,1.29,0,0,0-.86.18c-.2.19-.1.47-.09.74l.06,2.07c0,.79,0,1.58.05,2.36C12.84,36.75,12.73,37.48,14,37.72Z"/><path class="cls-8" d="M18.87,13.78a3.48,3.48,0,0,0-.16,1.35c.1.51.11,1,.17,1.53a15,15,0,0,1,.29,3.66,2.92,2.92,0,0,0,1.29-.24,1.52,1.52,0,0,0,.36-1.45,16.25,16.25,0,0,0-.39-1.94,3.38,3.38,0,0,1-.19-1.45c0-.27.07-.53.11-.8a12.26,12.26,0,0,0-.13-3.2,5.45,5.45,0,0,0-.4-1.5,1.2,1.2,0,0,0-.22-.36,2.4,2.4,0,0,0-1.72-.73,6.42,6.42,0,0,1,1,2.69c.05.25.11.5.16.75a2.72,2.72,0,0,1,.05.49,2.38,2.38,0,0,1-.12.69C19,13.44,18.91,13.61,18.87,13.78Z"/><path class="cls-8" d="M19,15.53a2.32,2.32,0,0,1,0,.46c0,.31-.08.61-.12.91a10.56,10.56,0,0,0,0,3.32,2.86,2.86,0,0,0,.74-.32.16.16,0,0,0,.08-.06.17.17,0,0,0,0-.14,2.7,2.7,0,0,0-.2-.54,1.52,1.52,0,0,1,0-.56l.06-1.88a3.39,3.39,0,0,1,0-.55c0-.31.2-.6.24-.91s.11-.6.15-.91a14.51,14.51,0,0,0,.11-2,3.13,3.13,0,0,0-.25-1.49l-.06-.23c0-.11-.2-.09-.29,0a.88.88,0,0,0-.37.48,1.77,1.77,0,0,0-.07.46l0,.53c0,.39-.05.79-.07,1.18,0,.65-.05,1.3,0,2C19,15.32,19,15.42,19,15.53Z"/><path class="cls-9" d="M21.23,19.92a1.91,1.91,0,0,0-.41-1.3,1.45,1.45,0,0,1-.41.67,1.62,1.62,0,0,1-.67.33,1.39,1.39,0,0,1-1-.13,1.2,1.2,0,0,1-.49-.46,1.07,1.07,0,0,1-.13-.31,1.54,1.54,0,0,0-.19.79,2.21,2.21,0,0,0,.13.84.73.73,0,0,0,.15.29.94.94,0,0,0,.51.29,3.6,3.6,0,0,0,1.18,0A1.64,1.64,0,0,0,21,20.56a1.17,1.17,0,0,0,.17-.28A1.51,1.51,0,0,0,21.23,19.92Z"/><path class="cls-5" d="M11.38,25.3h0a9,9,0,0,0,3.12.46c.31,0,.62-.05.92-.09a15.39,15.39,0,0,0,2-.46l.13,0a8.13,8.13,0,0,0,.94-.34,1.79,1.79,0,0,0,.58-.43h0c0-.25,0-.51,0-.77h-.05a1,1,0,0,0-.38,0l-1,.15c-.65.1-1.29.2-1.94.26A8.2,8.2,0,0,1,13.46,24a7.38,7.38,0,0,0-1.14-.21,1.51,1.51,0,0,0-.73.14l-.05,0C11.48,24.42,11.42,24.93,11.38,25.3Z"/><path class="cls-9" d="M19.8,13.41a26.4,26.4,0,0,0-.21,2.68c-.05.89-.1,1.78-.13,2.67-.06,1.46-.1,2.92-.07,4.38v.25a1.08,1.08,0,0,1-.12.53,1.26,1.26,0,0,1-.32.33l-.23.14a7.76,7.76,0,0,1-1.38.62l-.22.08-.24.07h0a8.18,8.18,0,0,1-1.85.27,8.08,8.08,0,0,1-1.84-.16l-.63-.16a.82.82,0,0,1-.45-.38,5.28,5.28,0,0,1-.56-1.49,6.64,6.64,0,0,1-.29-1.93c0-.49.12-.9.08-1.4a2.26,2.26,0,0,1,0-.26c-.08-1-.13-2-.15-3,0-.26,0-.51,0-.76,0-.86,0-1.71,0-2.57A8.26,8.26,0,0,0,11.23,12a1.8,1.8,0,0,0-.28-.72,3.61,3.61,0,0,0-.57-.51.5.5,0,0,1-.16-.29.69.69,0,0,1,0-.25.5.5,0,0,1,.35-.4,13.55,13.55,0,0,0,1.5-.8,4.66,4.66,0,0,1,.87-.35l.4-.12.23-.07.33-.08.14,0a1.36,1.36,0,0,1,.45,0l.14,0c.35.09.43.19.81.13a13.84,13.84,0,0,1,1.77.13l.9.11.32,0h0a3.42,3.42,0,0,1,1,.57,2.72,2.72,0,0,1,.44,1.25A8.91,8.91,0,0,1,19.8,13.41Z"/><path class="cls-8" d="M17.41,20.61c0,.66,0,1.31,0,2s-.06,1.1-.12,1.65c0,.15,0,.31-.06.46a1.85,1.85,0,0,1-.07.41s-.14,0-.16,0l-.16,0c.07,0,.09-.68.09-.73.07-.51.1-1,.13-1.54s0-1.25.05-1.88,0-1.38,0-2.07,0-1.37,0-2.06S17,15.62,17,15s0-1-.06-1.54,0-.75-.05-1.12-.08-.7-.14-1.05c.08.13.15.27.22.41a3.33,3.33,0,0,1,.29,1.47c0,.49.05,1,.07,1.46l.06,1.84c0,.69,0,1.37,0,2.06S17.41,19.92,17.41,20.61Z"/><path class="cls-10" d="M19.71,19.09v1.25c0,.52,0,1,0,1.55l0,1.62c0,.58.06,1.35-.56,1.64l0,0a1.8,1.8,0,0,1-.4.1l-.51.11a1.51,1.51,0,0,1-.59.11c.08-.67.19-1.32.23-2,0-.23,0-.46,0-.68s0-.45,0-.67,0-.26,0-.39L18,20c0-.36,0-.72.05-1.08v-.13c.13-2.77.31-5.65-.7-8.23l.05-.37.21-1.14c0-.1.05-.25.17-.29a2.23,2.23,0,0,1,.37,0h.38a1.49,1.49,0,0,1,.46.12,1.92,1.92,0,0,1,.59.58l.09.14a2.55,2.55,0,0,1,.34.77,4.49,4.49,0,0,1,.1.64A7.9,7.9,0,0,1,20,12.36c-.17,1.72-.26,3.46-.3,5.19C19.72,18.06,19.71,18.58,19.71,19.09Z"/><path class="cls-11" d="M20,12.36a92.16,92.16,0,0,0-.28,11.15c0,.58.06,1.35-.56,1.64l0,0c0-.78.17-1.56.12-2.34s.05-1.83.06-2.74c0-1.46,0-2.93.05-4.4,0-.21,0-.49-.25-.53s-.42,0-.41-.14a1.08,1.08,0,0,0,.84-.76,3.34,3.34,0,0,0,.11-1.18c0-.43,0-.85,0-1.27a5.59,5.59,0,0,0-.24-1.74,1.88,1.88,0,0,0-1.2-1.21l.32-.12a1.49,1.49,0,0,1,.46.12,1.92,1.92,0,0,1,.59.58l.09.14a2.55,2.55,0,0,1,.34.77,4.49,4.49,0,0,1,.1.64A7.9,7.9,0,0,1,20,12.36Z"/><path class="cls-10" d="M16.43,19.3v1c0,.6,0,1.2,0,1.8,0,.34,0,.67,0,1,0,.84-.09,1.69-.16,2.53a.65.65,0,0,1-.08.28l0,0a.48.48,0,0,1-.23.1,6.62,6.62,0,0,1-1.66.2h-.41l-.25,0-.34,0-.32-.05a6.17,6.17,0,0,1-.74-.19,1.24,1.24,0,0,1-1-1.15c-.13-1.39-.27-2.78-.41-4.18-.11-1.12-.22-2.24-.22-3.37,0-.58,0-1.16.07-1.75s.07-1.27.11-1.91l0-.56a5.9,5.9,0,0,0,0-1,6.63,6.63,0,0,1,.06-1h0a.79.79,0,0,0-.25-.84c-.06-.05-.14-.11-.12-.19a.14.14,0,0,1,.08-.09,7,7,0,0,1,2.18-1.14.81.81,0,0,1,.71.07,4.28,4.28,0,0,1,.7.87A11.68,11.68,0,0,1,15,11.09a10.62,10.62,0,0,1,1.12,3.14,19.2,19.2,0,0,1,.22,2.26C16.39,17.43,16.42,18.37,16.43,19.3Z"/><path class="cls-11" d="M16,25.93l0,0a.48.48,0,0,1-.23.1,6.62,6.62,0,0,1-1.66.2h-.4l-.26,0-.33,0-.33-.05a6.17,6.17,0,0,1-.74-.19,1.22,1.22,0,0,1-1-1.15l-.24-2.33c0-.4-.07-.79-.11-1.19,0-.22-.05-.44-.07-.66,0-.4-.08-.81-.11-1.22s-.06-.78-.08-1.17,0-.65,0-1c0-.58,0-1.16.06-1.75s.07-1.27.11-1.91c.09-.23.17-.47.24-.71.18-.55.42-1.13.07-1.65a1.56,1.56,0,0,0-.22-.23c-.11-.09-.24-.18-.35-.28a.32.32,0,0,1-.15-.28h0a.93.93,0,0,1,0-.33.48.48,0,0,1,.08-.18l.1-.09c.3-.19.57-.42.88-.6a4.9,4.9,0,0,1,1-.44c.34-.11.69-.18,1-.28l.15.21-.14.08-.9.53a1.2,1.2,0,0,0-.35.28c-.3.4,0,1,.22,1.4a5.38,5.38,0,0,1,.23,3,1.76,1.76,0,0,0,.13,1.22,1.66,1.66,0,0,0,1,.74A2,2,0,0,0,15,15.8a4.13,4.13,0,0,1-1.56.53,2.07,2.07,0,0,0-1.26.66A3,3,0,0,0,12,18.38c0,.2,0,.4,0,.6,0,.36.05.72.09,1.07.06.56.14,1.12.23,1.68,0,.05,0,.1,0,.14s0,.3,0,.45.07.41.11.61l.18.85a3.12,3.12,0,0,0,.8,1.51A2.45,2.45,0,0,0,15,26,6,6,0,0,0,16,25.93Z"/><path class="cls-12" d="M16.38,22.15c0,.33,0,.67,0,1-.34,0-.68,0-1,0h-.07a16.25,16.25,0,0,1-2.78-.26l-.17,0a9.23,9.23,0,0,1-1.45-.42c0-.4-.07-.79-.11-1.19a8.13,8.13,0,0,0,1.61.58A11.93,11.93,0,0,0,16.38,22.15Z"/><path class="cls-12" d="M16.43,19.3v1c-.37,0-.73.05-1.09.05a15.67,15.67,0,0,1-1.94-.13c-.43-.05-.86-.09-1.28-.18a3.28,3.28,0,0,1-.45-.11c-.27-.1-.53-.23-.79-.34a1.44,1.44,0,0,1-.31-.19c0-.39-.06-.78-.08-1.17a5.83,5.83,0,0,0,.93.55,5.92,5.92,0,0,0,1.55.36,15.87,15.87,0,0,0,1.69.18l.55,0A9.17,9.17,0,0,0,16.43,19.3Z"/><path class="cls-3" d="M14,9.44l.23.17.06,0c.22.16.46.3.69.46a3.24,3.24,0,0,0,.84.4,1.56,1.56,0,0,0,.85.11c.51-.11.63-.56.7-1a1.41,1.41,0,0,0,0-.41,1.79,1.79,0,0,1,0-.24,2.52,2.52,0,0,1,.05-.82,1,1,0,0,1,0-.1L13.89,5.37s.78,2.13.39,2.55a2.26,2.26,0,0,1-.93.58S13.24,8.88,14,9.44Z"/><path class="cls-13" d="M18.28,7.86a5.47,5.47,0,0,1-1,.63,5.73,5.73,0,0,1,.15,1.08,1.34,1.34,0,0,1-.19.68,1.27,1.27,0,0,1-.6.47,2.46,2.46,0,0,1,.23.71,1.77,1.77,0,0,0,.05.32,1.38,1.38,0,0,1,.12.34,1.49,1.49,0,0,1,.36-.82c.2-.24.44-.45.62-.71A3.05,3.05,0,0,0,18.28,7.86Z"/><path class="cls-14" d="M14,9.44l.23.17.06,0a.88.88,0,0,0,.05-.15,2.88,2.88,0,0,0,.13-.65,1.59,1.59,0,0,1,.06-.38.44.44,0,0,1,.23-.3c.21-.11.45,0,.64.17s.46.39.7.57a1.71,1.71,0,0,0,.83.33.86.86,0,0,0,.42-.06,1.79,1.79,0,0,1,0-.24,2.52,2.52,0,0,1,.05-.82,1,1,0,0,1,0-.1L13.89,5.37s.78,2.13.39,2.55a2.26,2.26,0,0,1-.93.58S13.24,8.88,14,9.44Z"/><path class="cls-3" d="M13.66,5.93l0,.1a.61.61,0,0,0,0,.26,2,2,0,0,0,.47.66h0l.2.19.23.3a1.29,1.29,0,0,1,.13.19,3.55,3.55,0,0,0,1.31,1l.07,0,.15.09.05,0h0l0,0,0,0c.81.39,1.45.35,1.76.07s.46-1.59.46-1.59c.05-.24.06-.5.13-.74,0,0,0,0,0-.06.05-.28,0-.54,0-.83,0-.13.07-.25.09-.37a1.69,1.69,0,0,0-.09-.77c-.08-.31-.17-.62-.26-.93s-.1-.36-.16-.55A1.74,1.74,0,0,0,17.77,2a2.48,2.48,0,0,0-1.3-.48s-1.61,1.21-1.76,1.28A2.55,2.55,0,0,0,13.58,5a2.93,2.93,0,0,0,.12.86l0,0Z"/><path class="cls-14" d="M18.51,3.63a7.51,7.51,0,0,0-2.43-.58,2.25,2.25,0,0,0-.73,0,1.06,1.06,0,0,0-.62.36,1.21,1.21,0,0,0-.19.81,3.51,3.51,0,0,0,.21,1,9.16,9.16,0,0,1,.42,1.92,2,2,0,0,0,.17-.49,3,3,0,0,0,.12-1.06,2.57,2.57,0,0,0-.08-.4,3.78,3.78,0,0,1-.06-.82A.41.41,0,0,1,15.47,4,1,1,0,0,1,16,3.93,17.49,17.49,0,0,1,18,3.81a1.39,1.39,0,0,0,.54-.07Z"/><path class="cls-15" d="M12.91,4a10.22,10.22,0,0,0,.49,1.73,1.43,1.43,0,0,1,.08.22,2.14,2.14,0,0,1,.1.22l0,.08a1.75,1.75,0,0,0,.52.71l0,0a.31.31,0,0,0,0-.1A2,2,0,0,0,14,6.43a.84.84,0,0,1-.07-.24.66.66,0,0,1,0-.14.4.4,0,0,1,.63-.27.91.91,0,0,1,.39.49c.05.09.08.19.12.28a.87.87,0,0,0,.07.17l.07.14,0-.11a.51.51,0,0,0,0-.13c0-.19,0-.4,0-.59a3.06,3.06,0,0,0,0-.8c0-.18-.1-.37-.14-.56A.64.64,0,0,1,15.26,4a1.36,1.36,0,0,1,.57-.3,5.09,5.09,0,0,1,1.68-.06,3.22,3.22,0,0,0,1,0c.08,0,.16,0,.23,0s.11-.12.13-.2a2.3,2.3,0,0,0,0-.74A4.08,4.08,0,0,0,18.62,2a.69.69,0,0,0-.42-.34,3.16,3.16,0,0,0-.68-.21,3.83,3.83,0,0,0-1.17,0,4.14,4.14,0,0,0-2.3.64,7.31,7.31,0,0,0-.57.51l-.12.12A1.48,1.48,0,0,0,12.91,4Z"/><path class="cls-16" d="M12.91,4a10.22,10.22,0,0,0,.49,1.73,1.43,1.43,0,0,1,.08.22,2.14,2.14,0,0,1,.1.22l0,.08a1.75,1.75,0,0,0,.52.71h0l0,0a.31.31,0,0,0,0-.1A2,2,0,0,0,14,6.43a.84.84,0,0,1-.07-.24.66.66,0,0,1,0-.14.4.4,0,0,1,.63-.27.91.91,0,0,1,.39.49c.05.09.08.19.12.28a.87.87,0,0,0,.07.17l.07.14,0-.11a.51.51,0,0,0,0-.13c0-.19,0-.4,0-.59a3.06,3.06,0,0,0,0-.8c0-.18-.1-.37-.14-.56-.06.44.12.88.1,1.33,0,.07,0,.16-.1.15s0,0-.06-.05-.2-.31-.32-.45a.6.6,0,0,0-.46-.28.74.74,0,0,0-.45.22.24.24,0,0,1-.09.06c-.1,0-.16-.09-.2-.18a3.63,3.63,0,0,1-.34-2,5.27,5.27,0,0,0,.16-.79A1.48,1.48,0,0,0,12.91,4Z"/><path class="cls-17" d="M13.48,2.57a1.21,1.21,0,0,0-.32.57.67.67,0,0,0,.17.59.78.78,0,0,0,.74.15,2.35,2.35,0,0,0,.7-.37,2.38,2.38,0,0,1,.7-.38,2.32,2.32,0,0,1,.59,0H17.6a1.63,1.63,0,0,0,.76-.13.71.71,0,0,0,.07-1.16,3.26,3.26,0,0,0-2.08-.36,4.14,4.14,0,0,0-2.3.64A6.54,6.54,0,0,0,13.48,2.57Z"/><path class="cls-14" d="M20.12,24.41s0,.25.06.45a1.82,1.82,0,0,1,0,.35l-.2.38-.28.19-.28.15s.26-.24.28-.4,0-.31,0-.31a4.45,4.45,0,0,1,.07-.52l.06-.12Z"/><path class="cls-18" d="M16.45,1.56l.54,0a3.34,3.34,0,0,1,.52.14.84.84,0,0,1,.37.25.31.31,0,0,1,.07.09.28.28,0,0,1-.2.35c-.46.2-1,0-1.5,0-.67,0-1.26.48-1.93.56A.36.36,0,0,1,14,3a.27.27,0,0,1,0-.23.65.65,0,0,1,.11-.22,2.82,2.82,0,0,1,.47-.44,2.76,2.76,0,0,1,.84-.32,2.61,2.61,0,0,1,.46-.08,2.56,2.56,0,0,1,.54-.1Z"/><path class="cls-13" d="M16.56,10.7a1.67,1.67,0,0,1-.31,0,.75.75,0,0,1-.25-.09c-.08-.05-.18-.07-.26-.12s-.35-.22-.52-.33c-.55-.35-1.32-.77-1.32-1.52,0-.1,0-.43.11-.47a4.46,4.46,0,0,0-.7.17L13,8.43a2,2,0,0,0-.34.12c-.06,0,0,.06,0,.13a.88.88,0,0,0,.05.15c0,.1.09.2.14.3a3.53,3.53,0,0,0,.38.57,4.09,4.09,0,0,0,1,.89,4.31,4.31,0,0,0,.64.33c.21.09.42.18.63.29s.5.18.74.29a1.26,1.26,0,0,1,.32.18c.11.1.21.21.31.32s.08.15.12.16a4.09,4.09,0,0,0-.24-1.38.15.15,0,0,0-.05-.07h-.1Z"/><path class="cls-19" d="M20.31,3.78a2.33,2.33,0,0,0-.17-.26,4.33,4.33,0,0,0-1.09-.9A5.53,5.53,0,0,0,17.83,2,6.33,6.33,0,0,0,15,1.62a4,4,0,0,0-.5.08,3.43,3.43,0,0,0-.57.17,1.85,1.85,0,0,0-.78.54.23.23,0,0,1,0-.14,2.22,2.22,0,0,0-.41,1.29,1.68,1.68,0,0,0,.23.66,1.92,1.92,0,0,0,.54.56A2.51,2.51,0,0,0,14,5a2.46,2.46,0,0,0,1,.27.37.37,0,0,1,.18,0c.4.15.72.43,1.14.55a6.37,6.37,0,0,0,1.3.19,3.82,3.82,0,0,0,1.88-.4A1.9,1.9,0,0,0,20,5.32,1.47,1.47,0,0,0,20.31,3.78Z"/><path class="cls-20" d="M13.14,2.4a.23.23,0,0,0,0,.14A1.85,1.85,0,0,1,13.94,2a3.43,3.43,0,0,1,.57-.17,4,4,0,0,1,.5-.08,6.47,6.47,0,0,1,2.82.39,6,6,0,0,1,1.22.61,4.33,4.33,0,0,1,1.09.9,2.33,2.33,0,0,1,.17.26.75.75,0,0,1,.1.38.9.9,0,0,0-.1-.51,2.33,2.33,0,0,0-.17-.26,4.33,4.33,0,0,0-1.09-.9A5.53,5.53,0,0,0,17.83,2,6.33,6.33,0,0,0,15,1.62a4,4,0,0,0-.5.08,3.43,3.43,0,0,0-.57.17,1.85,1.85,0,0,0-.78.54.23.23,0,0,1,0-.14,2.26,2.26,0,0,0-.41,1.23A2.39,2.39,0,0,1,13.14,2.4Z"/><path class="cls-20" d="M20,5.15a1.69,1.69,0,0,1-.49.35,3.72,3.72,0,0,1-1.88.41,7.17,7.17,0,0,1-1.3-.2c-.42-.12-.74-.4-1.14-.55a.55.55,0,0,0-.18,0,2.46,2.46,0,0,1-1-.27,2.46,2.46,0,0,1-.45-.25A2.06,2.06,0,0,1,13,4.06a1.73,1.73,0,0,1-.23-.66v.16a1.68,1.68,0,0,0,.23.66,1.92,1.92,0,0,0,.54.56A2.51,2.51,0,0,0,14,5a2.46,2.46,0,0,0,1,.27.37.37,0,0,1,.18,0c.4.15.72.43,1.14.55a6.37,6.37,0,0,0,1.3.19,3.82,3.82,0,0,0,1.88-.4A1.9,1.9,0,0,0,20,5.32a1.68,1.68,0,0,0,.44-1.17A1.73,1.73,0,0,1,20,5.15Z"/><path class="cls-21" d="M18.85,2.27a7.71,7.71,0,0,0-.49-.82,2.72,2.72,0,0,0-.63-.72,2.77,2.77,0,0,0-.89-.49A3.08,3.08,0,0,0,15,.2,2.75,2.75,0,0,0,13.67,1a3.31,3.31,0,0,0-.77,2.26,1.4,1.4,0,0,0,.54,1.13,4.66,4.66,0,0,0,4,.45c.58-.18,1.45-.51,1.66-1.15a1.39,1.39,0,0,0,0-.41A2.75,2.75,0,0,0,18.85,2.27Z"/><path class="cls-10" d="M19.25,3.8a.44.44,0,0,1,0,.16.42.42,0,0,1-.09.14,1.47,1.47,0,0,1-.48.38l-.23.1-.08,0-.1,0s.06,0,0-.09l-.06-.1-.09-.14-.25-.58L17.49,3l-.41-.67-.75-.76L15.77,1l-1-.22-1.25.26A4.35,4.35,0,0,1,14.65.26h0L14.8.18A2.33,2.33,0,0,1,15.58,0a2.08,2.08,0,0,1,.74.11l.25.1A3.24,3.24,0,0,1,17,.49a3.67,3.67,0,0,1,.43.37,5.25,5.25,0,0,1,.72.89,4.66,4.66,0,0,1,.3.47c.09.15.17.3.25.45l.2.41c.06.12.11.23.16.35S19.24,3.78,19.25,3.8Z"/><path class="cls-20" d="M18.09,4.61l0-.07a.36.36,0,0,0,0-.09,2,2,0,0,0-.11-.26c-.05-.12-.1-.24-.16-.36l-.21-.43-.26-.46c-.1-.16-.2-.32-.31-.47A4.94,4.94,0,0,0,16.62,2a3.68,3.68,0,0,0-.39-.4,2.3,2.3,0,0,0-.44-.33,1.87,1.87,0,0,0-.47-.23L15.13,1a.63.63,0,0,0-.19,0,2,2,0,0,0-1.55.51.52.52,0,0,0-.11.1c0-.07.05-.15.08-.22A1.46,1.46,0,0,1,13.62,1a1.28,1.28,0,0,1,.25-.15,2.23,2.23,0,0,1,.8-.19,2.08,2.08,0,0,1,.74.11l.25.1a3.24,3.24,0,0,1,.47.28,3.67,3.67,0,0,1,.43.37,3.79,3.79,0,0,1,.38.42c.13.15.24.31.35.46s.2.31.29.48.17.3.25.45l.21.41.15.35.1.25.05.12a.2.2,0,0,1,0,.11s-.08,0-.11.05h-.1S18.1,4.64,18.09,4.61Z"/><path class="cls-12" d="M19.73,17.55c0,.51,0,1,0,1.54A4.78,4.78,0,0,1,18,20c0-.36,0-.72.05-1.08a3,3,0,0,0,1.66-1.39Z"/><path class="cls-12" d="M19.72,21.89a4.86,4.86,0,0,1-1.82.94c0-.22,0-.45,0-.67s0-.26,0-.39a3,3,0,0,0,1.77-1.44h0C19.71,20.86,19.71,21.37,19.72,21.89Z"/><path class="cls-12" d="M15.71,14.17c0-.17,0-.51-.19-.51a.49.49,0,0,0-.21,0,4.63,4.63,0,0,1-1.43.26,3.29,3.29,0,0,1-.63,0c-.12,0-.32-.09-.38.06a1.86,1.86,0,0,0,0,.52L13,15.64a.82.82,0,0,0,.08.35.62.62,0,0,0,.27.21c.36.2.73.38,1.11.55a.5.5,0,0,0,.13,0c.27,0,.48-.3.63-.5s.15-.24.23-.35a2.17,2.17,0,0,0,.23-.3.67.67,0,0,0,0-.24C15.74,15,15.67,14.58,15.71,14.17Z"/><polygon class="cls-22" points="18.27 8.69 18.27 12.09 18.72 12.34 18.72 8.95 18.27 8.69"/><polygon class="cls-23" points="18.69 8.45 18.27 8.7 18.72 8.95 19.14 8.71 18.69 8.45"/><polygon class="cls-24" points="19.14 8.71 19.14 12.1 18.72 12.34 18.72 8.95 19.14 8.71"/><path class="cls-25" d="M19.28,7.7l.22-.45L19.14,7h0a.48.48,0,0,0-.45.06,1.77,1.77,0,0,0-.75,1.42.65.65,0,0,0,.28.61l.27.16.19-.39A1.83,1.83,0,0,0,19.28,7.7Z"/><path class="cls-26" d="M20.29,7.22,20,7.81a2.43,2.43,0,0,1-.77,1.54l-.25.5-.35-.21a.83.83,0,0,1-.35-.79,2.28,2.28,0,0,1,1-1.83h0a.43.43,0,0,1,.38,0l.63.21h0Z"/><path class="cls-27" d="M20.63,8a2.29,2.29,0,0,1-1,1.84c-.53.3-1,0-1-.73a2.31,2.31,0,0,1,1-1.84C20.2,7,20.63,7.29,20.63,8Z"/><path class="cls-28" d="M21.79,11.73l1.53-4L20.1,7.16a.84.84,0,0,0-.44.11,2.31,2.31,0,0,0-1,1.84.91.91,0,0,0,.28.74h0Z"/><path class="cls-29" d="M23.56,8.74l.48-1-.42-.24h0a1.08,1.08,0,0,0-.95.12,3.73,3.73,0,0,0-1.55,3,1.36,1.36,0,0,0,.56,1.27l.23.13.41-.82A3.9,3.9,0,0,0,23.56,8.74Z"/><path class="cls-30" d="M24.58,9.05A3.74,3.74,0,0,1,23,12c-.86.49-1.55,0-1.55-1.18a3.71,3.71,0,0,1,1.55-3C23.88,7.38,24.58,7.91,24.58,9.05Z"/><path class="cls-31" d="M24.43,9.05A3.56,3.56,0,0,1,23,11.9a1.1,1.1,0,0,1-.54.16c-.48,0-.79-.47-.79-1.21a2.89,2.89,0,0,1,0-.5,4,4,0,0,1,.7-1.65A2.52,2.52,0,0,1,23.1,8a1.09,1.09,0,0,1,.54-.17C24.12,7.84,24.43,8.32,24.43,9.05Z"/><path class="cls-32" d="M23.64,7.84h-.09a1.37,1.37,0,0,1,.36,1.05,3.56,3.56,0,0,1-1.48,2.85,1.22,1.22,0,0,1-.45.16.64.64,0,0,0,.43.15A1.1,1.1,0,0,0,23,11.9a3.59,3.59,0,0,0,1.48-2.85C24.43,8.32,24.12,7.84,23.64,7.84Z"/><path class="cls-33" d="M23.08,9.34l-.62,1.26-.8-.25a4,4,0,0,1,.7-1.65Z"/><path class="cls-34" d="M23.21,9.69a1.1,1.1,0,0,1-.47.88c-.25.14-.46,0-.46-.35a1.1,1.1,0,0,1,.46-.88C23,9.19,23.21,9.35,23.21,9.69Z"/><path class="cls-35" d="M22.56,10.49c-.1,0-.14-.15-.14-.27a1,1,0,0,1,.39-.76.19.19,0,0,1,.12,0c.1,0,.14.14.14.27a1,1,0,0,1-.39.76Z"/><path class="cls-3" d="M12.79,17.51a.92.92,0,0,0-.07.58,1.37,1.37,0,0,0,.81,1.06c1.09.38,2.46-.68,3.21-1.33.57-.49,1.18-.92,1.72-1.46s1.1-1.33,1.69-1.95c.13-.14.27-.25.39-.4l.42-.54a2.72,2.72,0,0,0,.41-.61,1,1,0,0,0,.06-.72,2.14,2.14,0,0,0-.57-1,4.24,4.24,0,0,0-.84-.62c-.12-.07-.23-.11-.35-.19a.64.64,0,0,0-.38-.18c-.18,0-.18.19-.18.32,0,.37,0,.74,0,1.1a.48.48,0,0,1-.36-.19.48.48,0,0,0-.22-.18.27.27,0,0,0-.27,0,.3.3,0,0,0,0,.29c.1.46,1,1.14.68,1.63a1.76,1.76,0,0,1-.53.41,23.2,23.2,0,0,1-2.6,1.28l-.79.34a1.76,1.76,0,0,0-.53.41c-.36.37-.7.76-1.06,1.13A2.93,2.93,0,0,0,12.79,17.51Z"/><path class="cls-9" d="M15.56,18.15a2.34,2.34,0,0,0,0,.26.44.44,0,0,1,0,.32.45.45,0,0,1-.2.12,6.13,6.13,0,0,1-.81.31l-.06,0a1.74,1.74,0,0,1-.64.09A.89.89,0,0,1,13.2,19c-.1-.1-.17-.2-.26-.29a.27.27,0,0,1-.08-.07h0l-.06-.05-.14-.11,0,0,0-.05-.06-.07c-.08-.09-.15-.19-.23-.29a3.71,3.71,0,0,1-.23-.32,4.66,4.66,0,0,1-.3-.47.47.47,0,0,1,0-.1,4.66,4.66,0,0,1-.25-.5c-.45-1-.91-2.1-1.26-3.18-.05-.15-.09-.3-.14-.45L10,12.83A6.25,6.25,0,0,1,9.83,12a1.5,1.5,0,0,1,0-.2s0,0,0-.07v-.21a2,2,0,0,1,0-.35s0-.08,0-.12,0-.23.07-.35a1.34,1.34,0,0,1,.12-.3,1.09,1.09,0,0,1,.08-.15,1.37,1.37,0,0,1,.41-.42,1,1,0,0,1,.39-.16,1.15,1.15,0,0,1,1.15.43,10.65,10.65,0,0,1,2,4.41c.09.44.17.88.23,1.32,0,0,.07,0,.1-.06a.23.23,0,0,1,.25-.05.42.42,0,0,1,.21.16,2,2,0,0,1,.34.54,3.1,3.1,0,0,1,.37,1,3.43,3.43,0,0,1,.05.56A.65.65,0,0,1,15.56,18.15Z"/><path class="cls-8" d="M15.56,18.15a2.34,2.34,0,0,0,0,.26.44.44,0,0,1,0,.32.45.45,0,0,1-.2.12,6.13,6.13,0,0,1-.81.31l-.06,0a1.74,1.74,0,0,1-.64.09A.89.89,0,0,1,13.2,19c-.18-.19-.36-.35-.55-.53l0,0,0-.05-.06-.07c-.08-.09-.15-.19-.23-.29a3.71,3.71,0,0,1-.23-.32,4.66,4.66,0,0,1-.3-.47.47.47,0,0,1,0-.1,4.66,4.66,0,0,1-.25-.5c-.45-1-.91-2.1-1.26-3.18-.05-.15-.09-.3-.14-.45L10,12.83A6.25,6.25,0,0,1,9.83,12a1.5,1.5,0,0,1,0-.2s0,0,0-.07v-.21c0-.12,0-.23,0-.35s0-.08,0-.12,0-.23.07-.35a1.34,1.34,0,0,1,.12-.3,5.9,5.9,0,0,0,.17,1.17,10.26,10.26,0,0,0,.28,1.22,10.13,10.13,0,0,1,.35,1.31,2.93,2.93,0,0,0,.59,1.32.89.89,0,0,0,.87.28.94.94,0,0,0-.28.46c0,.1,0,.11.13.1a1.27,1.27,0,0,0,.32-.13,2.51,2.51,0,0,1,.81-.23c-.24.25-.48.51-.71.77-.07.08-.14.18-.11.27a.27.27,0,0,0,.25.14,5,5,0,0,0,.67.05c0,.14-.21.25-.17.4a.15.15,0,0,0,.14.11.41.41,0,0,0,.19,0l.38-.13a.83.83,0,0,0-.06.88.73.73,0,0,0,.71.45,1.11,1.11,0,0,0,.53-.33l.51-.49A.65.65,0,0,1,15.56,18.15Z"/><path class="cls-13" d="M14.64,15.23l-.17.14s-.24.19-.23.25,0,.06.07.09a3.16,3.16,0,0,1,1,1.81,2.11,2.11,0,0,1,.06.61c0,.1-.11.88-.3.78a.92.92,0,0,0,.86-.12,1.66,1.66,0,0,0,.39-.31,1,1,0,0,0,.2-.32,1.6,1.6,0,0,0,.12-.37,2.47,2.47,0,0,0-.13-.85,3.35,3.35,0,0,0-.41-1,2.88,2.88,0,0,0-.27-.34A1.69,1.69,0,0,0,15.2,15c-.17-.07-.27,0-.41.12Z"/></g></g></g></svg>