<svg xmlns="http://www.w3.org/2000/svg" viewBox="0 0 14.1 14.1"><defs><style>.cls-1{fill:#e28000;}.cls-2{fill:#fff;}</style></defs><g id="Layer_2" data-name="Layer 2"><g id="Layer_1-2" data-name="Layer 1"><rect class="cls-1" width="14.1" height="14.1" rx="1.6"/><path class="cls-2" d="M10.82,8.45a5.05,5.05,0,0,1-1.6-.25.71.71,0,0,0-.71.15l-1,.76A5.55,5.55,0,0,1,5,6.6l.74-1a.73.73,0,0,0,.18-.73,5.17,5.17,0,0,1-.26-1.61.72.72,0,0,0-.72-.72H3.28a.73.73,0,0,0-.72.72,8.27,8.27,0,0,0,8.26,8.26.72.72,0,0,0,.72-.72V9.18A.73.73,0,0,0,10.82,8.45Z"/></g></g></svg>