<svg xmlns="http://www.w3.org/2000/svg" viewBox="0 0 63.27 63.19"><defs><style>.cls-1{fill:none;stroke:#102f3a;stroke-linecap:round;stroke-linejoin:round;}.cls-2{fill:#ffd3ae;}.cls-3{fill:#fff;}</style></defs><g id="Layer_2" data-name="Layer 2"><g id="Layer_1-2" data-name="Layer 1"><circle class="cls-1" cx="31.53" cy="13.4" r="5.4"/><path class="cls-1" d="M40.12,15.48a8.72,8.72,0,0,1-1,2.51l3,3.05L39.17,24l-3-3a8.6,8.6,0,0,1-2.52,1v4.31H29.45V22a8.49,8.49,0,0,1-2.52-1l-3.05,3L20.94,21,24,18a8.7,8.7,0,0,1-1-2.51H18.63V11.31h4.31v0A9,9,0,0,1,24,8.8l-3-3.05L23.88,2.8l3.05,3.05a8.76,8.76,0,0,1,2.52-1V.5h4.16V4.81a8.88,8.88,0,0,1,2.52,1l3-3,2.95,3-3,3.05a8.4,8.4,0,0,1,1,2.47s0,0,0,0h4.31v4.17Z"/><path class="cls-2" d="M62.76,11.27V51.92H.5V11.27H23v0H18.63v4.17h4.31A8.7,8.7,0,0,0,24,18l-3,3.05L23.88,24l3.05-3a8.49,8.49,0,0,0,2.52,1v4.31h4.16V22a8.6,8.6,0,0,0,2.52-1l3,3L42.12,21l-3-3.05a8.72,8.72,0,0,0,1-2.51h4.31V11.31H40.12s0,0,0,0Z"/><path class="cls-1" d="M62.76,11.27V51.92H.5V11.27H23v0H18.63v4.17h4.31A8.7,8.7,0,0,0,24,18l-3,3.05L23.88,24l3.05-3a8.49,8.49,0,0,0,2.52,1v4.31h4.16V22a8.6,8.6,0,0,0,2.52-1l3,3L42.12,21l-3-3.05a8.72,8.72,0,0,0,1-2.51h4.31V11.31H40.12s0,0,0,0Z"/><rect class="cls-1" x="0.5" y="45.68" width="62.27" height="6.24"/><rect class="cls-1" x="26.3" y="51.92" width="10.66" height="5.57"/><polygon class="cls-2" points="39 62.69 24.27 62.69 26.3 57.49 36.96 57.49 39 62.69"/><polygon class="cls-1" points="39 62.69 24.27 62.69 26.3 57.49 36.96 57.49 39 62.69"/><path class="cls-3" d="M55.42,32.74v8.7H15.65L8.91,34.71a3,3,0,0,1,4.31-4.3l4.36,4.36h7.74a3.43,3.43,0,0,1-.14-1,3.18,3.18,0,0,1,3.17-3.17h9.92l6.15,2.1Z"/><path class="cls-1" d="M25.32,34.77h0a3.16,3.16,0,0,0,3,2.21h9.7"/><path class="cls-1" d="M55.42,32.74v8.7H15.65L8.91,34.71a3,3,0,0,1,4.31-4.3l4.36,4.36h7.74a3.43,3.43,0,0,1-.14-1,3.18,3.18,0,0,1,3.17-3.17h9.92l6.15,2.1Z"/><line class="cls-1" x1="25.33" y1="34.77" x2="25.32" y2="34.77"/></g></g></svg>