<svg xmlns="http://www.w3.org/2000/svg" viewBox="0 0 63.5 63.67"><defs><style>.cls-1{fill:#ffd3ae;}.cls-2{fill:none;stroke:#102f3a;stroke-linecap:round;stroke-linejoin:round;stroke-width:1.5px;}.cls-3{fill:#102f3a;}</style></defs><g id="Layer_2" data-name="Layer 2"><g id="Layer_1-2" data-name="Layer 1"><rect class="cls-1" x="11.43" y="0.75" width="40.57" height="31.74" rx="1.5"/><rect class="cls-2" x="11.43" y="0.75" width="40.57" height="31.74" rx="1.5"/><line class="cls-2" x1="11.43" y1="6.94" x2="28.04" y2="6.94"/><line class="cls-2" x1="30.88" y1="6.94" x2="51.99" y2="6.94"/><path class="cls-1" d="M62.75,45.5v3.34a3.24,3.24,0,0,1-3.25,3.24H4A3.24,3.24,0,0,1,.75,48.84V45.5Z"/><path class="cls-2" d="M62.75,45.5v3.34a3.24,3.24,0,0,1-3.25,3.24H4A3.24,3.24,0,0,1,.75,48.84V45.5Z"/><path class="cls-2" d="M.75,45.5V8A3.25,3.25,0,0,1,4,4.75h7.44"/><path class="cls-2" d="M52,4.75H59.5A3.25,3.25,0,0,1,62.75,8V45.5"/><path class="cls-2" d="M28.61,40.65H6.49a1,1,0,0,1-1-1V10.68a1,1,0,0,1,1-1h4.94V31a1.5,1.5,0,0,0,1.5,1.5H50.49A1.5,1.5,0,0,0,52,31V9.63h5a1,1,0,0,1,1,1V39.61a1,1,0,0,1-1,1H35.47"/><line class="cls-2" x1="23.48" y1="52.08" x2="22" y2="57.26"/><line class="cls-2" x1="41.44" y1="52.08" x2="42.92" y2="57.26"/><rect class="cls-1" x="14.94" y="57.26" width="34.96" height="5.66" rx="2.7"/><rect class="cls-2" x="14.94" y="57.26" width="34.96" height="5.66" rx="2.7"/><path class="cls-2" d="M25.94,24l-4.23-4.22a.78.78,0,0,1,0-1.1l4.23-4.22"/><path class="cls-2" d="M36.39,24l4.22-4.22a.78.78,0,0,0,0-1.1l-4.22-4.22"/><line class="cls-2" x1="33.51" y1="12.28" x2="29.31" y2="25.14"/><circle class="cls-3" cx="15.91" cy="3.66" r="0.88"/><circle class="cls-3" cx="19.08" cy="3.66" r="0.88"/><circle class="cls-3" cx="22.25" cy="3.66" r="0.88"/></g></g></svg>