<svg xmlns="http://www.w3.org/2000/svg" viewBox="0 0 61.4 62.56"><defs><style>.cls-1{fill:#ffd3ae;}.cls-2{fill:none;stroke:#102f3a;stroke-linecap:round;stroke-linejoin:round;}.cls-3{fill:#fff;}</style></defs><g id="Layer_2" data-name="Layer 2"><g id="Layer_1-2" data-name="Layer 1"><rect class="cls-1" x="17.08" y="7.85" width="25.06" height="47.8"/><rect class="cls-2" x="17.08" y="7.85" width="25.06" height="47.8"/><rect class="cls-3" x="21.12" y="36.98" width="16.98" height="12.67" rx="0.87"/><rect class="cls-2" x="21.12" y="36.98" width="16.98" height="12.67" rx="0.87"/><path class="cls-2" d="M12.91,57.7V7.41a6,6,0,0,1,6-6h4.61a6.05,6.05,0,0,1,6.05,6.05v.44"/><path class="cls-2" d="M12.91,57.84a4.23,4.23,0,0,1-4.23,4.22h0a4.22,4.22,0,0,1-4.22-4.22V14.12"/><polygon class="cls-1" points="7.41 14.12 1.59 14.12 0.5 4.62 8.5 4.62 7.41 14.12"/><polygon class="cls-2" points="7.41 14.12 1.59 14.12 0.5 4.62 8.5 4.62 7.41 14.12"/><line class="cls-2" x1="2.41" y1="0.5" x2="2.41" y2="4.62"/><line class="cls-2" x1="6.59" y1="0.5" x2="6.59" y2="4.62"/><line class="cls-2" x1="24.41" y1="41.15" x2="28.48" y2="41.15"/><line class="cls-2" x1="24.41" y1="45.39" x2="34.75" y2="45.39"/><line class="cls-2" x1="30.68" y1="41.15" x2="34.75" y2="41.15"/><path class="cls-2" d="M51.54,47.69v8.53a5.85,5.85,0,0,1-5.85,5.84h-10a5.85,5.85,0,0,1-5.84-5.84v-.56"/><rect class="cls-1" x="47.35" y="32.81" width="12.43" height="6.27"/><rect class="cls-2" x="47.35" y="32.81" width="12.43" height="6.27"/><path class="cls-2" d="M53.55,52.58a7.51,7.51,0,0,0,4.21-1.29,7.38,7.38,0,0,0,3-7.69,41.4,41.4,0,0,1-1-8.17,41.42,41.42,0,0,1,1-8.18,7.39,7.39,0,0,0-3-7.69,7.51,7.51,0,0,0-8.42,0,7.39,7.39,0,0,0-3,7.69,41.42,41.42,0,0,1,1,8.18,41.4,41.4,0,0,1-1,8.17,7.38,7.38,0,0,0,3,7.69A7.53,7.53,0,0,0,53.55,52.58Z"/><path class="cls-2" d="M51.25,32.81c-.23-3.79-.72-7-.72-7a3,3,0,0,1,3-3.38,3.29,3.29,0,0,1,3.21,4.09,57,57,0,0,0-1,6.27"/><path class="cls-2" d="M55.68,39.08a52.52,52.52,0,0,0,.78,6,2.87,2.87,0,0,1-2.9,3.37,3.39,3.39,0,0,1-3-1.86,3.19,3.19,0,0,1-.21-2.11,39.92,39.92,0,0,0,.89-5.41"/><line class="cls-2" x1="56.74" y1="24.87" x2="56.74" y2="10.15"/><rect class="cls-2" x="53.55" y="5.61" width="4.32" height="4.49"/><rect class="cls-1" x="51.45" y="1.54" width="6.42" height="4.06"/><rect class="cls-2" x="51.45" y="1.54" width="6.42" height="4.06"/><line class="cls-2" x1="47.32" y1="3.58" x2="51.45" y2="3.58"/></g></g></svg>