<svg xmlns="http://www.w3.org/2000/svg" viewBox="0 0 62 63.19"><defs><style>.cls-1{fill:#ffd3ae;}.cls-2{fill:none;stroke:#102f3a;stroke-linecap:round;stroke-linejoin:round;}</style></defs><g id="Layer_2" data-name="Layer 2"><g id="Layer_1-2" data-name="Layer 1"><ellipse class="cls-1" cx="27.62" cy="3.69" rx="2.12" ry="3.2" transform="translate(-0.24 3.52) rotate(-7.26)"/><ellipse class="cls-1" cx="21.68" cy="10.62" rx="2.36" ry="3.2" transform="translate(-2.4 12.26) rotate(-30)"/><ellipse class="cls-1" cx="35.82" cy="3.69" rx="3.2" ry="2.12" transform="translate(27.26 38.66) rotate(-82.12)"/><ellipse class="cls-1" cx="41.75" cy="10.59" rx="3.2" ry="2.41" transform="translate(12.77 42.46) rotate(-61.95)"/><path class="cls-1" d="M38.06,23.08c-2.86,1.25-4.08-.08-6.39,0-2.31-.08-3.53,1.25-6.4,0a4.54,4.54,0,0,1-1.46-7,16.41,16.41,0,0,0,4-5.6,4.3,4.3,0,0,1,7.8,0,16.4,16.4,0,0,0,4,5.6A4.53,4.53,0,0,1,38.06,23.08Z"/><path class="cls-2" d="M38.06,23.08c-2.86,1.25-4.08-.08-6.39,0-2.31-.08-3.53,1.25-6.4,0a4.54,4.54,0,0,1-1.46-7,16.41,16.41,0,0,0,4-5.6,4.3,4.3,0,0,1,7.8,0,16.4,16.4,0,0,0,4,5.6A4.53,4.53,0,0,1,38.06,23.08Z"/><ellipse class="cls-2" cx="27.62" cy="3.69" rx="2.12" ry="3.2" transform="translate(-0.24 3.52) rotate(-7.26)"/><ellipse class="cls-2" cx="21.68" cy="10.62" rx="2.36" ry="3.2" transform="translate(-2.4 12.26) rotate(-30)"/><ellipse class="cls-2" cx="35.82" cy="3.69" rx="3.2" ry="2.12" transform="translate(27.26 38.66) rotate(-82.12)"/><ellipse class="cls-2" cx="41.75" cy="10.59" rx="3.2" ry="2.41" transform="translate(12.77 42.46) rotate(-61.95)"/><polyline class="cls-1" points="10.61 37.2 17.2 45.92 17.6 46.45"/><path class="cls-2" d="M11.73,16.27V33.76a2.37,2.37,0,0,0-.6.41,2.54,2.54,0,0,0-.52,3L6.66,32V16.27A2.4,2.4,0,0,1,9.19,14a2.71,2.71,0,0,1,1.8.66A2.12,2.12,0,0,1,11.73,16.27Z"/><polyline class="cls-2" points="10.61 37.2 17.2 45.92 17.6 46.45"/><path class="cls-2" d="M16.8,22.62V36.54L14.72,34.3a2.53,2.53,0,0,0-1.86-.81,2.47,2.47,0,0,0-1.13.27V22.62a2.54,2.54,0,0,1,5.07,0Z"/><path class="cls-2" d="M21.88,31.72V42L16.8,36.54V31.72a2.54,2.54,0,0,1,2.54-2.54,2.56,2.56,0,0,1,2.54,2.54Z"/><path class="cls-2" d="M28,48.52V62.69H15.78v-6.2l-8.73-8.7L.5,36.41V19.17a3.08,3.08,0,0,1,6.16,0V32l3.95,5.24a2.54,2.54,0,0,1,.52-3,2.37,2.37,0,0,1,.6-.41,2.47,2.47,0,0,1,1.13-.27,2.53,2.53,0,0,1,1.86.81l2.08,2.24L21.88,42l5.79,6.21Z"/><polyline class="cls-1" points="44.4 46.45 44.8 45.92 51.39 37.2"/><path class="cls-2" d="M50.27,16.27V33.76a2.37,2.37,0,0,1,.6.41,2.54,2.54,0,0,1,.52,3l4-5.24V16.27A2.41,2.41,0,0,0,52.81,14a2.66,2.66,0,0,0-1.79.66A2.13,2.13,0,0,0,50.27,16.27Z"/><polyline class="cls-2" points="44.4 46.45 44.8 45.92 51.39 37.2"/><path class="cls-2" d="M45.2,22.62V36.54l2.09-2.24a2.5,2.5,0,0,1,1.85-.81,2.47,2.47,0,0,1,1.13.27V22.62a2.54,2.54,0,0,0-5.07,0Z"/><path class="cls-2" d="M40.12,31.72V42l5.08-5.44V31.72a2.54,2.54,0,0,0-5.08,0Z"/><path class="cls-2" d="M34,48.52V62.69H46.22v-6.2L55,47.79,61.5,36.41V19.17a3.08,3.08,0,1,0-6.15,0V32l-4,5.24a2.54,2.54,0,0,0-.52-3,2.37,2.37,0,0,0-.6-.41,2.47,2.47,0,0,0-1.13-.27,2.5,2.5,0,0,0-1.85.81L45.2,36.54,40.12,42l-5.78,6.21Z"/></g></g></svg>