<svg xmlns="http://www.w3.org/2000/svg" viewBox="0 0 59.24 62.85"><defs><style>.cls-1{fill:#ffd3ae;}.cls-2{fill:none;stroke:#102f3a;stroke-linecap:round;stroke-linejoin:round;}.cls-3{fill:#102f3a;}</style></defs><g id="Layer_2" data-name="Layer 2"><g id="Layer_1-2" data-name="Layer 1"><path class="cls-1" d="M30.58,12.28a11.87,11.87,0,0,1-.75,1A195.18,195.18,0,0,1,16.36,27.54c-3,2.8-5.13,3.45-5.46,1.17a6.3,6.3,0,0,1,.65-3.62c-1.77-14,4-19.81,9.61-22.91s9-1,9-1c-1,.77-1.13,2-1.42,3.2C28.31,6.31,32.27,9.56,30.58,12.28Z"/><path class="cls-1" d="M48.79,28.8c-.76,4-4,.37-5.14-.91l-.23-.26s-8.21-8.1-13.59-14.31a11.87,11.87,0,0,0,.75-1c1.69-2.72-2.27-6-1.82-7.85.29-1.17.39-2.43,1.42-3.2a5,5,0,0,1,3.19-.7c4.16.13,12.27,5.3,14,11.3,2.22,7.9,1.45,10.39,1,13.08A6,6,0,0,1,48.79,28.8Z"/><path class="cls-2" d="M30.58,12.28a11.87,11.87,0,0,1-.75,1A195.18,195.18,0,0,1,16.36,27.54c-3,2.8-5.13,3.45-5.46,1.17a6.3,6.3,0,0,1,.65-3.62c-1.77-14,4-19.81,9.61-22.91s9-1,9-1c-1,.77-1.13,2-1.42,3.2C28.31,6.31,32.27,9.56,30.58,12.28Z"/><path class="cls-2" d="M13.43,22.35a10.06,10.06,0,0,0-1.88,2.74"/><path class="cls-2" d="M34.6,45.26A16.91,16.91,0,0,1,30,46.78a16.86,16.86,0,0,1-4.79-1.62c-9.58-5-8.85-17.62-8.85-17.62A195.18,195.18,0,0,0,29.83,13.32c5.38,6.21,13.59,14.31,13.59,14.31l.23.26C43.68,30,43.43,40.84,34.6,45.26Z"/><path class="cls-2" d="M48.79,28.8c-.76,4-4,.37-5.14-.91l-.23-.26s-8.21-8.1-13.59-14.31a11.87,11.87,0,0,0,.75-1c1.69-2.72-2.27-6-1.82-7.85.29-1.17.39-2.43,1.42-3.2a5,5,0,0,1,3.19-.7c4.16.13,12.27,5.3,14,11.3,2.22,7.9,1.45,10.39,1,13.08A6,6,0,0,1,48.79,28.8Z"/><path class="cls-2" d="M48.33,24.91a6.81,6.81,0,0,0-1.92-2.3"/><path class="cls-2" d="M26.65,8.65s-3.76-.45-11.52,7.93"/><path class="cls-2" d="M33.44,8.85a8.56,8.56,0,0,1,4.72,1.82,64.55,64.55,0,0,1,6.55,5.91"/><path class="cls-2" d="M11.56,25.19s0-.07,0-.1"/><path class="cls-2" d="M12.34,30.08s.12,5.48,5.45,6"/><path class="cls-2" d="M47.54,30.61s-.61,5.43-5.29,5.51"/><path class="cls-3" d="M19.7,28a2.15,2.15,0,0,1,2.75.27,2.61,2.61,0,0,0,1.69.41c.5,0,1,0,1.6-.07a3.27,3.27,0,0,1-3.32.8,2.44,2.44,0,0,1-.65-.45,2.74,2.74,0,0,0-2.07-1Z"/><path class="cls-3" d="M40,28a2.74,2.74,0,0,0-2.07,1,2.44,2.44,0,0,1-.65.45,3.27,3.27,0,0,1-3.32-.8c.57,0,1.1.06,1.6.07a2.61,2.61,0,0,0,1.69-.41A2.15,2.15,0,0,1,40,28Z"/><path class="cls-2" d="M28.35,33.1A1.6,1.6,0,0,0,30,34a1.86,1.86,0,0,0,1.77-.88"/><path class="cls-3" d="M26.18,37.62a4.19,4.19,0,0,0,2.74-.35.76.76,0,0,1,.81.24.77.77,0,0,0,.63,0,.73.73,0,0,1,.43-.25.71.71,0,0,1,.38.05,6.93,6.93,0,0,0,2.64.35,3.56,3.56,0,0,1-3,.51.27.27,0,0,0,.29-.06,1.19,1.19,0,0,1-.45.34,1.49,1.49,0,0,1-1.71-.3.26.26,0,0,0,.29,0,3,3,0,0,1-3.06-.54Z"/><path class="cls-2" d="M28.72,40.21s.26.54,1.28.54,1.25-.54,1.25-.54"/><path class="cls-1" d="M52.73,62.35H7.09a13.64,13.64,0,0,1,3.29-5.06C12.81,55,21.73,52.87,23.63,51.1s1.61-5.51,1.58-5.94A16.86,16.86,0,0,0,30,46.78a16.91,16.91,0,0,0,4.6-1.52c0,.62-.15,4.22,1.59,5.84C38.09,52.87,47,55,49.44,57.29A13.64,13.64,0,0,1,52.73,62.35Z"/><path class="cls-2" d="M52.73,62.35H7.09a13.64,13.64,0,0,1,3.29-5.06C12.81,55,21.73,52.87,23.63,51.1s1.61-5.51,1.58-5.94A16.86,16.86,0,0,0,30,46.78a16.91,16.91,0,0,0,4.6-1.52c0,.62-.15,4.22,1.59,5.84C38.09,52.87,47,55,49.44,57.29A13.64,13.64,0,0,1,52.73,62.35Z"/><path class="cls-2" d="M21.19,22.77a13.14,13.14,0,0,1,4.75.43"/><path class="cls-2" d="M38.72,22.77A13.13,13.13,0,0,0,34,23.2"/><circle class="cls-2" cx="3.98" cy="21.25" r="2.1"/><circle class="cls-2" cx="3.29" cy="32.07" r="2.79"/><circle class="cls-2" cx="48.68" cy="44.82" r="3.14"/><circle class="cls-2" cx="56.82" cy="33.59" r="1.92"/><circle class="cls-2" cx="56.15" cy="17.29" r="1.92"/></g></g></svg>