<svg xmlns="http://www.w3.org/2000/svg" viewBox="0 0 58.48 62.94"><defs><style>.cls-1{fill:#ffd3ae;}.cls-2{fill:none;stroke:#102f3a;stroke-linecap:round;stroke-linejoin:round;}.cls-3{fill:#fff;}</style></defs><g id="Layer_2" data-name="Layer 2"><g id="Layer_1-2" data-name="Layer 1"><path class="cls-1" d="M27.73,30.7a14.8,14.8,0,0,1-.09,1.62l-.86,6.38a7.76,7.76,0,0,0-1,1.08C24,42.06,19.93,43.1,19.93,43.1H18.79v4.29H17.34a1.84,1.84,0,0,0-1.84,1.84V60.61a1.83,1.83,0,0,0,1.84,1.83H6.71a2.36,2.36,0,0,1-2.34-2L.59,32.32A13.62,13.62,0,1,1,27.73,30.7Z"/><path class="cls-1" d="M45.06,49.23V60.7a1.83,1.83,0,0,1-1.83,1.74H17.34a1.83,1.83,0,0,1-1.84-1.83V49.23a1.84,1.84,0,0,1,1.84-1.84H43.23A1.83,1.83,0,0,1,45.06,49.23Z"/><path class="cls-1" d="M58,24l-4.4,31.88H45.06V49.23a1.83,1.83,0,0,0-1.83-1.84H42V43.1s.59-2.73-3.32-3.13L36.7,24Z"/><path class="cls-2" d="M27.73,30.7a14.8,14.8,0,0,1-.09,1.62l-.86,6.38a7.76,7.76,0,0,0-1,1.08C24,42.06,19.93,43.1,19.93,43.1H18.79v4.29H17.34a1.84,1.84,0,0,0-1.84,1.84V60.61a1.83,1.83,0,0,0,1.84,1.83H6.71a2.36,2.36,0,0,1-2.34-2L.59,32.32A13.62,13.62,0,1,1,27.73,30.7Z"/><path class="cls-2" d="M20.78,18.85a13.64,13.64,0,0,0-13.33,0L8.6,11.34h11Z"/><rect class="cls-2" x="11" y="5.07" width="6.6" height="6.28"/><rect class="cls-3" x="7.99" y="27.22" width="12.79" height="6.28"/><rect class="cls-2" x="7.99" y="27.22" width="12.79" height="6.28"/><rect class="cls-2" x="18.79" y="43.1" width="23.15" height="4.29"/><rect class="cls-2" x="36.7" y="19.75" width="21.28" height="4.29"/><path class="cls-2" d="M53.58,55.92v4.4a2.12,2.12,0,0,1-2.13,2.12H43.23a1.88,1.88,0,0,0,1.83-1.74V55.92Z"/><line class="cls-2" x1="43.23" y1="62.44" x2="42.71" y2="62.44"/><path class="cls-2" d="M45.06,49.23V60.7a1.83,1.83,0,0,1-1.83,1.74H17.34a1.83,1.83,0,0,1-1.84-1.83V49.23a1.84,1.84,0,0,1,1.84-1.84H43.23A1.83,1.83,0,0,1,45.06,49.23Z"/><path class="cls-1" d="M10.36,1.86,9.23,4.47a.43.43,0,0,0,.39.6H26V.5l-14.79.8A.94.94,0,0,0,10.36,1.86Z"/><path class="cls-2" d="M10.36,1.86,9.23,4.47a.43.43,0,0,0,.39.6H26V.5l-14.79.8A.94.94,0,0,0,10.36,1.86Z"/><path class="cls-2" d="M10.36,1.86,9.23,4.47a.43.43,0,0,0,.39.6H26V.5l-14.79.8A.94.94,0,0,0,10.36,1.86Z"/><path class="cls-2" d="M26.78,38.7a8.76,8.76,0,0,1,6.7-1.92s-1,3.27,3.78,3.14a11.58,11.58,0,0,1,1.37,0"/><circle class="cls-2" cx="30.28" cy="54.92" r="3.15"/><ellipse class="cls-3" cx="47.38" cy="32.5" rx="4.26" ry="2.15"/><ellipse class="cls-2" cx="47.38" cy="32.5" rx="4.26" ry="2.15"/><path class="cls-2" d="M58,24l-4.4,31.88H45.06V49.23a1.83,1.83,0,0,0-1.83-1.84H42V43.13s.59-2.76-3.32-3.16L36.7,24Z"/></g></g></svg>