<svg xmlns="http://www.w3.org/2000/svg" viewBox="0 0 62.84 62.96"><defs><style>.cls-1{fill:none;stroke:#102f3a;stroke-linecap:round;stroke-linejoin:round;}.cls-2{fill:#ffd3ae;}</style></defs><g id="Layer_2" data-name="Layer 2"><g id="Layer_1-2" data-name="Layer 1"><polyline class="cls-1" points="22.05 17.99 31.55 14.04 40.83 17.94"/><path class="cls-1" d="M45,19.71l8.27,3.48s9,1.62,9,14.76V61.87"/><path class="cls-1" d="M.62,61.87V36.58a14.52,14.52,0,0,1,8.94-13.4l8.23-3.42"/><path class="cls-1" d="M27.2,4.78a4.28,4.28,0,1,1,4.28,4.28v5"/><path class="cls-2" d="M24.24,15.4h0a2.39,2.39,0,0,1,2.39,2.39V31.72a0,0,0,0,1,0,0H23.86a2,2,0,0,1-2-2V17.79a2.39,2.39,0,0,1,2.39-2.39Z" transform="translate(-9.56 24.04) rotate(-45)"/><path class="cls-2" d="M38.21,15.4H41a0,0,0,0,1,0,0V29.33a2.39,2.39,0,0,1-2.39,2.39h0a2.39,2.39,0,0,1-2.39-2.39V17.42a2,2,0,0,1,2-2Z" transform="translate(49.2 67.5) rotate(-135)"/><path class="cls-1" d="M24.24,15.4h0a2.39,2.39,0,0,1,2.39,2.39V31.72a0,0,0,0,1,0,0H23.86a2,2,0,0,1-2-2V17.79a2.39,2.39,0,0,1,2.39-2.39Z" transform="translate(-9.56 24.04) rotate(-45)"/><path class="cls-1" d="M38.21,15.4H41a0,0,0,0,1,0,0V29.33a2.39,2.39,0,0,1-2.39,2.39h0a2.39,2.39,0,0,1-2.39-2.39V17.42a2,2,0,0,1,2-2Z" transform="translate(49.2 67.5) rotate(-135)"/><circle class="cls-1" cx="31.55" cy="33.84" r="0.89"/><circle class="cls-1" cx="31.55" cy="37.8" r="0.89"/><circle class="cls-1" cx="31.55" cy="41.74" r="0.89"/><line class="cls-1" x1="31.48" y1="44.73" x2="31.48" y2="55.37"/><line class="cls-1" x1="51.05" y1="51.82" x2="51.05" y2="62.46"/><line class="cls-1" x1="15.35" y1="41.28" x2="9.09" y2="41.28"/><line class="cls-1" x1="54.18" y1="41.28" x2="47.92" y2="41.28"/><line class="cls-1" x1="12.13" y1="51.82" x2="12.13" y2="62.46"/><polygon class="cls-2" points="18.49 48.35 21.37 49.33 23.81 47.51 23.77 50.55 26.26 52.31 23.35 53.22 22.45 56.12 20.69 53.64 17.65 53.68 19.47 51.24 18.49 48.35"/><polygon class="cls-2" points="3.71 14.38 4.71 16.4 6.93 16.72 5.32 18.29 5.7 20.5 3.71 19.46 1.73 20.5 2.11 18.29 0.5 16.72 2.72 16.4 3.71 14.38"/><polygon class="cls-1" points="18.49 48.35 21.37 49.33 23.81 47.51 23.77 50.55 26.26 52.31 23.35 53.22 22.45 56.12 20.69 53.64 17.65 53.68 19.47 51.24 18.49 48.35"/><polygon class="cls-1" points="3.71 14.38 4.71 16.4 6.93 16.72 5.32 18.29 5.7 20.5 3.71 19.46 1.73 20.5 2.11 18.29 0.5 16.72 2.72 16.4 3.71 14.38"/><circle class="cls-1" cx="51.4" cy="8.03" r="2.13"/><circle class="cls-1" cx="6.69" cy="3.03" r="0.99"/><circle class="cls-1" cx="56.5" cy="3.03" r="0.99"/></g></g></svg>