<svg xmlns="http://www.w3.org/2000/svg" viewBox="0 0 64.36 63"><defs><style>.cls-1{fill:#ffd3ae;}.cls-2{fill:none;stroke:#102f3a;stroke-linecap:round;stroke-linejoin:round;}</style></defs><g id="Layer_2" data-name="Layer 2"><g id="Layer_1-2" data-name="Layer 1"><path class="cls-1" d="M19.15,8.75a24.79,24.79,0,0,0-4.27,3.13c-.27.24-.53.48-.78.74l-.17.16c-.26.26-.51.53-.76.81s-.5.56-.74.85l-.15.17-.66.85A25.26,25.26,0,0,0,8.44,40l33-.43,14.05-.19a25.25,25.25,0,0,0-5.8-26.67c-.56-.56-1.15-1.1-1.76-1.61a25.22,25.22,0,0,0-7.39-4.24q-.59-.23-1.17-.39a25,25,0,0,0-7.52-1.15c-.68,0-1.36,0-2,.09a25.37,25.37,0,0,0-6,1.21Z"/><polyline class="cls-2" points="50.04 43.54 54.01 43.54 63.86 62.51 0.5 62.51 10.35 43.54 14.76 43.54"/><path class="cls-2" d="M26.81,15,14.08,4.58a2.31,2.31,0,0,1-.17-3.41h0A2.31,2.31,0,0,1,17,1l11.09,9.09a14.61,14.61,0,0,1,3.71,4.56l1.52,2.9a12.23,12.23,0,0,1,1.39,5.21L35,31l18,24.22a2.58,2.58,0,0,1-.4,3.52h0A2.59,2.59,0,0,1,49,58.34L38.43,45"/><path class="cls-2" d="M22.62,25.17v4.9l9.21,12.35a2.5,2.5,0,0,0,3.5.53h0a2.52,2.52,0,0,0,.56-3.48l-7.83-11"/><path class="cls-2" d="M24.83,38,10.64,55.68a2.1,2.1,0,0,0,.15,2.79h0a2.09,2.09,0,0,0,3.05-.1L28.06,42.22"/><circle class="cls-1" cx="23.26" cy="17.7" r="4.39"/><circle class="cls-2" cx="23.26" cy="17.7" r="4.39"/><path class="cls-2" d="M23.83,6.62a25.37,25.37,0,0,1,6-1.21c.67-.06,1.35-.09,2-.09a25,25,0,0,1,7.52,1.15q.59.17,1.17.39a25.22,25.22,0,0,1,7.39,4.24c.61.51,1.2,1.05,1.76,1.61a25.25,25.25,0,0,1,5.8,26.67l-14.05.19"/><path class="cls-2" d="M19.15,8.75a24.79,24.79,0,0,0-4.27,3.13c-.27.24-.53.48-.78.74l-.17.16c-.26.26-.51.53-.76.81s-.5.56-.74.85l-.15.17-.66.85A25.26,25.26,0,0,0,8.44,40l14.82-.2"/></g></g></svg>