<svg xmlns="http://www.w3.org/2000/svg" viewBox="0 0 63.48 63.26"><defs><style>.cls-1{fill:#ffd3ae;}.cls-2{fill:none;stroke:#102f3a;stroke-linecap:round;stroke-linejoin:round;}</style></defs><g id="Layer_2" data-name="Layer 2"><g id="Layer_1-2" data-name="Layer 1"><path class="cls-1" d="M19.22,26.44V62.76H.51V26.44a9.35,9.35,0,0,1,4-7.69v6.69A4.46,4.46,0,0,0,9,29.9h1.74a4.45,4.45,0,0,0,4.46-4.46V18.76a8.16,8.16,0,0,1,1.28,1.07A9.29,9.29,0,0,1,19.22,26.44Z"/><path class="cls-1" d="M28.58,39.92h0a9.36,9.36,0,0,1,9.36,9.36V62.76a0,0,0,0,1,0,0H19.22a0,0,0,0,1,0,0V49.28A9.36,9.36,0,0,1,28.58,39.92Z"/><path class="cls-1" d="M47.29,44.37h0a9.36,9.36,0,0,1,9.36,9.36v9a0,0,0,0,1,0,0H37.94a0,0,0,0,1,0,0v-9A9.36,9.36,0,0,1,47.29,44.37Z"/><path class="cls-2" d="M19.22,26.44V62.76H.51V26.44a9.35,9.35,0,0,1,4-7.69v6.69A4.46,4.46,0,0,0,9,29.9h1.74a4.45,4.45,0,0,0,4.46-4.46V18.76a8.16,8.16,0,0,1,1.28,1.07A9.29,9.29,0,0,1,19.22,26.44Z"/><path class="cls-2" d="M28.58,39.92h0a9.36,9.36,0,0,1,9.36,9.36V62.76a0,0,0,0,1,0,0H19.22a0,0,0,0,1,0,0V49.28A9.36,9.36,0,0,1,28.58,39.92Z"/><path class="cls-2" d="M47.29,44.37h0a9.36,9.36,0,0,1,9.36,9.36v9a0,0,0,0,1,0,0H37.94a0,0,0,0,1,0,0v-9A9.36,9.36,0,0,1,47.29,44.37Z"/><path class="cls-2" d="M15.2,14.91V25.44a4.45,4.45,0,0,1-4.46,4.46H9a4.46,4.46,0,0,1-4.46-4.46V14.91a2,2,0,0,1,2-2H13.2A2,2,0,0,1,15.2,14.91Z"/><path class="cls-2" d="M15.2,14.91V25.44a4.45,4.45,0,0,1-4.46,4.46H9a4.46,4.46,0,0,1-4.46-4.46V14.91a2,2,0,0,1,2-2H13.2A2,2,0,0,1,15.2,14.91Z"/><path class="cls-2" d="M10.05,12.9s0,7-5.51,9"/><path class="cls-2" d="M15.2,20.47s-5.42,2-5.55,9.44"/><line class="cls-2" x1="3.82" y1="35.83" x2="15.93" y2="35.83"/><line class="cls-2" x1="3.82" y1="39.92" x2="15.93" y2="39.92"/><line class="cls-2" x1="22.53" y1="48.3" x2="34.64" y2="48.3"/><line class="cls-2" x1="22.53" y1="52.39" x2="34.64" y2="52.39"/><line class="cls-2" x1="41.24" y1="52.39" x2="53.35" y2="52.39"/><line class="cls-2" x1="41.24" y1="56.48" x2="53.35" y2="56.48"/><line class="cls-2" x1="3.57" y1="3.72" x2="3.57" y2="9.86"/><line class="cls-2" x1="6.64" y1="6.79" x2="0.5" y2="6.79"/><line class="cls-2" x1="25.41" y1="17.4" x2="25.41" y2="23.55"/><line class="cls-2" x1="28.49" y1="20.47" x2="22.34" y2="20.47"/><path class="cls-2" d="M26.05,6.48v.61a4.44,4.44,0,0,0-4.44,4.44H21a4.43,4.43,0,0,0-4.43-4.44V6.48A4.43,4.43,0,0,0,21,2.05h.61A4.43,4.43,0,0,0,26.05,6.48Z"/><path class="cls-1" d="M41,4.82h17a6.85,6.85,0,0,1,6.85,6.85v0a6.85,6.85,0,0,1-6.85,6.85H41a2.1,2.1,0,0,1-2.1-2.1V6.92A2.1,2.1,0,0,1,41,4.82Z" transform="translate(6.92 40.06) rotate(-45)"/><path class="cls-2" d="M41,4.82h17a6.85,6.85,0,0,1,6.85,6.85v0a6.85,6.85,0,0,1-6.85,6.85H41a2.1,2.1,0,0,1-2.1-2.1V6.92A2.1,2.1,0,0,1,41,4.82Z" transform="translate(6.92 40.06) rotate(-45)"/><polygon class="cls-1" points="36.25 30.51 36.18 30.57 31.85 36.95 26.53 31.63 32.98 27.23 36.25 30.51"/><polygon class="cls-2" points="36.25 30.51 36.18 30.57 31.85 36.95 26.53 31.63 32.98 27.23 36.25 30.51"/><rect class="cls-2" x="32.96" y="22.55" width="11.32" height="4.64" transform="translate(-6.27 34.59) rotate(-45)"/><line class="cls-2" x1="41.16" y1="12.64" x2="50.85" y2="22.33"/><line class="cls-2" x1="50.33" y1="3.47" x2="60.02" y2="13.16"/></g></g></svg>