<svg xmlns="http://www.w3.org/2000/svg" viewBox="0 0 63.19 58.49"><defs><style>.cls-1{fill:#ffd3ae;}.cls-2,.cls-3{fill:none;}.cls-2{stroke:#102f3a;stroke-linecap:round;stroke-linejoin:round;}.cls-3{stroke:#1d1d1d;stroke-miterlimit:10;}</style></defs><g id="Layer_2" data-name="Layer 2"><g id="Layer_1-2" data-name="Layer 1"><path class="cls-1" d="M2.72,49.89c.42-.08,11-2.09,15.78-11.64l4.22-1.13c.71.69,5.94,5.59,9.64,4.79l8-1.72a1,1,0,0,1,1.22.73L43.08,46,23.37,58c-1.77-1.38-3.13-2.44-4.26-3.23-2.85-2-4.29-2.42-7-2.42a14.77,14.77,0,0,0-7.21,2.35A17.44,17.44,0,0,1,2.72,49.89Z"/><path class="cls-2" d="M2.72,49.89c.42-.08,11-2.09,15.78-11.64l4.22-1.13c.71.69,5.94,5.59,9.64,4.79l8-1.72a1,1,0,0,1,1.22.73L43.08,46,23.37,58c-1.77-1.38-3.13-2.44-4.26-3.23-2.85-2-4.29-2.42-7-2.42a14.77,14.77,0,0,0-7.21,2.35A17.44,17.44,0,0,1,2.72,49.89Z"/><path class="cls-1" d="M.5,38.25h18C13.73,47.8,3.14,49.81,2.72,49.89A60.58,60.58,0,0,1,.5,38.25Z"/><path class="cls-1" d="M22.72,37.12l11.65-2.53H62.69v3.15a4.9,4.9,0,0,1-3.84,4.79L43.08,46l-1.53-5.06a1,1,0,0,0-1.22-.73l-8,1.72C28.66,42.71,23.43,37.81,22.72,37.12Z"/><path class="cls-2" d="M.5,38.25h18C13.73,47.8,3.14,49.81,2.72,49.89A60.58,60.58,0,0,1,.5,38.25Z"/><polygon class="cls-2" points="0.5 38.25 0.5 30.47 18.8 30.47 18.8 33.81 18.5 38.25 0.5 38.25"/><path class="cls-2" d="M22.72,37.12l11.65-2.53H62.69v3.15a4.9,4.9,0,0,1-3.84,4.79L43.08,46l-1.53-5.06a1,1,0,0,0-1.22-.73l-8,1.72C28.66,42.71,23.43,37.81,22.72,37.12Z"/><line class="cls-2" x1="40" y1="51.23" x2="37" y2="46.21"/><line class="cls-2" x1="36.46" y1="53.51" x2="33.46" y2="48.49"/><line class="cls-2" x1="32.78" y1="55.77" x2="29.78" y2="50.75"/><line class="cls-2" x1="29.16" y1="57.99" x2="26.16" y2="52.96"/><polygon class="cls-2" points="18.5 38.25 18.8 33.81 34.27 30.47 62.69 30.47 62.69 34.59 34.37 34.59 22.72 37.12 18.5 38.25"/><path class="cls-1" d="M10.08,7h9.6a0,0,0,0,1,0,0v7.39a0,0,0,0,1,0,0h-9.6a3.5,3.5,0,0,1-3.5-3.5v-.39A3.5,3.5,0,0,1,10.08,7Z"/><path class="cls-3" d="M10.08,7h9.6a0,0,0,0,1,0,0v7.39a0,0,0,0,1,0,0h-9.6a3.5,3.5,0,0,1-3.5-3.5v-.39A3.5,3.5,0,0,1,10.08,7Z"/><path class="cls-1" d="M19.68,7.94H56.77A2.26,2.26,0,0,1,59,10.2v1.1a2.26,2.26,0,0,1-2.26,2.26H19.68a0,0,0,0,1,0,0V7.94A0,0,0,0,1,19.68,7.94Z"/><path class="cls-3" d="M19.68,7.94H56.77A2.26,2.26,0,0,1,59,10.2v1.1a2.26,2.26,0,0,1-2.26,2.26H19.68a0,0,0,0,1,0,0V7.94A0,0,0,0,1,19.68,7.94Z"/><path class="cls-3" d="M13.7.5h.19a0,0,0,0,1,0,0V7a0,0,0,0,1,0,0H10.21a0,0,0,0,1,0,0V4A3.49,3.49,0,0,1,13.7.5Z"/><rect class="cls-3" x="10.07" y="14.42" width="3.86" height="2.84"/><rect class="cls-3" x="8.23" y="17.26" width="7.67" height="3.63" rx="1.58"/><line class="cls-3" x1="12.06" y1="30.47" x2="12.06" y2="24.56"/><ellipse class="cls-3" cx="12.06" cy="23.89" rx="1.93" ry="0.57"/></g></g></svg>