<svg xmlns="http://www.w3.org/2000/svg" viewBox="0 0 60.44 63.15"><defs><style>.cls-1{fill:none;stroke:#102f3a;stroke-linecap:round;stroke-linejoin:round;}.cls-2{fill:#ffd3ae;}</style></defs><g id="Layer_2" data-name="Layer 2"><g id="Layer_1-2" data-name="Layer 1"><path class="cls-1" d="M23.75,53.19a4.92,4.92,0,1,1-4.91-4.91A4.91,4.91,0,0,1,23.75,53.19Z"/><circle class="cls-1" cx="45.08" cy="52.09" r="4.91"/><circle class="cls-1" cx="45.08" cy="52.09" r="9.46"/><path class="cls-1" d="M50,52.09a4.92,4.92,0,1,1-4.92-4.91A4.91,4.91,0,0,1,50,52.09Z"/><path class="cls-2" d="M18.84,43.73a9.46,9.46,0,1,0,9.46,9.46A9.46,9.46,0,0,0,18.84,43.73Zm0,14.37a4.91,4.91,0,1,1,4.91-4.91A4.91,4.91,0,0,1,18.84,58.1Z"/><path class="cls-2" d="M45.08,42.63a9.46,9.46,0,1,0,9.47,9.46A9.46,9.46,0,0,0,45.08,42.63Zm0,14.37A4.91,4.91,0,1,1,50,52.09,4.91,4.91,0,0,1,45.08,57Z"/><path class="cls-1" d="M18.84,43.73a9.46,9.46,0,1,0,9.46,9.46A9.46,9.46,0,0,0,18.84,43.73Zm0,14.37a4.91,4.91,0,1,1,4.91-4.91A4.91,4.91,0,0,1,18.84,58.1Z"/><path class="cls-1" d="M23.75,53.19a4.92,4.92,0,1,1-4.91-4.91A4.91,4.91,0,0,1,23.75,53.19Z"/><path class="cls-1" d="M45.08,42.63a9.46,9.46,0,1,0,9.47,9.46A9.46,9.46,0,0,0,45.08,42.63Zm0,14.37A4.91,4.91,0,1,1,50,52.09,4.91,4.91,0,0,1,45.08,57Z"/><path class="cls-1" d="M50,52.09a4.92,4.92,0,1,1-4.92-4.91A4.91,4.91,0,0,1,50,52.09Z"/><path class="cls-1" d="M23,21.88l8.63,10.33s3.48,8.4,7.16,12.79"/><polyline class="cls-1" points="14 21.88 22.79 39.1 30.23 42.26 35.62 51.21"/><line class="cls-1" x1="27.67" y1="35.39" x2="29.04" y2="36.9"/><polygon class="cls-2" points="26.04 0.5 26.04 21.88 23.03 21.88 9.97 6.24 9.37 12.81 14 21.88 0.5 21.88 0.5 0.5 26.04 0.5"/><polygon class="cls-1" points="26.04 0.5 26.04 21.88 23.03 21.88 9.97 6.24 9.37 12.81 14 21.88 0.5 21.88 0.5 0.5 26.04 0.5"/><polygon class="cls-1" points="58.22 16 59.94 19.09 59.94 21.88 26.04 21.88 26.04 0.5 59.94 0.5 55.55 5.13 58.22 16"/><line class="cls-1" x1="30.22" y1="21.88" x2="27.42" y2="27.14"/><polyline class="cls-1" points="38.82 21.88 36.73 34.51 33.83 36.9"/><line class="cls-1" x1="24.51" y1="39.83" x2="22.59" y2="44.5"/><line class="cls-1" x1="30.23" y1="42.26" x2="27.67" y2="49.79"/></g></g></svg>