<?xml version="1.0" encoding="utf-8"?>
<!-- Generator: Adobe Illustrator 24.0.1, SVG Export Plug-In . SVG Version: 6.00 Build 0)  -->
<svg version="1.1" id="Layer_1" xmlns="http://www.w3.org/2000/svg" xmlns:xlink="http://www.w3.org/1999/xlink" x="0px" y="0px"
	 viewBox="0 0 556.29 137.38" style="enable-background:new 0 0 556.29 137.38;" xml:space="preserve">
<style type="text/css">
	.st0{fill:#D27728;}
	.st1{fill:#1D1D1D;}
	.st2{fill:#E38225;}
	.st3{fill:#1E2D5E;}
	.st4{font-family:'Montserrat-Bold';}
	.st5{font-size:38.6346px;}
	.st6{fill:#010101;}
	.st7{font-family:'Raleway-Regular';}
	.st8{font-size:15.1948px;}
</style>
<g>
	<g>
		<path class="st2" d="M142.31,65.7l-4.79-2.66l-5.21-0.38c-0.66-0.05-1.23,0.44-1.28,1.1l-0.04,0.6l4.98,3.84l-5.02-2.81l-3.32-2.4
			v-7.73l-4.67-4.82l0.04,9.2l-2.81-2.04v-3.69l-2.48,0.73l0.01,1.18L56.95,11.86l-2.33,2.04v1.31l1.6,1.15v27.01h-0.87
			c-0.4,0-0.73,0.33-0.73,0.73v5.55l3.35,1.68v2.26c0,0.1,0.02,0.19,0.03,0.28c-0.01,0-0.01,0.01-0.02,0.01l-0.01,0.25
			c-0.01,0.52,0.15,0.92,0.66,0.91c0.06-0.01,0.13,0,0.19,0c1.19,0.06,2.16,1.04,2.22,2.23c0.07,1.35-1.01,2.46-2.34,2.46
			c-0.43,0-0.83-0.11-1.17-0.31c-0.02-0.01-0.07-0.03-0.15-0.08c-0.04-0.03-0.09-0.06-0.15-0.11c-0.13-0.12-0.3-0.29-0.51-0.57
			c-0.01-0.01-0.01-0.02-0.02-0.03c-0.21-0.27-0.44-0.65-0.69-1.15c-0.04-0.08-0.16-0.08-0.19,0.01c-0.14,0.41-0.33,1.33,0.33,2.27
			c0.05,0.07,0.1,0.14,0.16,0.21l0.01,0.01c0.01,0.02,0.02,0.03,0.03,0.05c0.02,0.02,0.03,0.03,0.04,0.05
			c0.01,0.01,0.02,0.03,0.04,0.04c0.1,0.1,0.26,0.25,0.5,0.4c0.3,0.2,0.71,0.39,1.24,0.5h0.02c1.95,0.27,3.8-1.1,4.1-3.05
			c0.3-2.01-1.04-3.76-2.88-4.13v-5.47l1.07,3.06h1.61c0.46,0,0.83-0.37,0.83-0.83v-5.45l-1.61-0.72V20.02l69.27,49.63l-0.26,3.54
			l5.17,3.16l4.89,0.36c1,0.07,1.86-0.67,1.94-1.67l0.61-8.17C142.98,66.4,142.74,65.94,142.31,65.7 M59.86,43.76l-0.87-0.39h-1.32
			V17.41l2.19,1.57V43.76z"/>
		<polygon class="st2" points="127.64,70.92 127.64,93.74 123.11,90.97 123.05,67.66 		"/>
		<polygon class="st2" points="120.2,65.62 120.2,89.19 117.86,87.76 117.77,63.89 		"/>
		<path class="st3" d="M122.67,96.68l14.7,8.96l1.21-1.98L99.94,80.11V63.83h-2.32v10.21h-5.1v1.55l-13.92-8.48L59.59,78.69V64.2
			c0.79-0.57,1.32-1.7,1.32-3.03c0-0.11-0.01-0.21-0.01-0.31c-0.29,0.18-0.6,0.33-0.92,0.43c-0.04,1.3-0.73,2.37-1.55,2.37
			c-0.84,0-1.55-1.14-1.55-2.49c0-0.05,0-0.11,0-0.16c0.01-0.17,0.02-0.35,0.06-0.51c0.07-0.45,0.23-0.85,0.44-1.16
			c0.1-0.14,0.2-0.26,0.31-0.36c0.22-0.19,0.47-0.3,0.74-0.3c0.33,0,0.65,0.18,0.9,0.48c0.27-0.09,0.52-0.25,0.73-0.47
			c0.02-0.02,0.03-0.04,0.05-0.06c-0.44-0.55-1.03-0.89-1.68-0.89c-0.52,0-0.99,0.2-1.38,0.56c-0.12,0.1-0.22,0.22-0.32,0.35
			c-0.24,0.31-0.43,0.68-0.57,1.1c-0.06,0.19-0.11,0.38-0.14,0.57c-0.05,0.26-0.07,0.54-0.07,0.83c0,1.34,0.53,2.47,1.32,3.03v15.91
			L36.87,92.54v-14.1h-2.32v15.52l-15.91,9.7l1.21,1.98l14.7-8.96v24.67H19.47v2.32h15.07V129h2.32v-5.33h20.41v5.57h2.32v-5.57
			h38.03v5.57h2.32v-5.57h20.41v5.57h2.32v-5.57h15.07v-2.32h-15.07V96.68z M57.27,95.37H42.66v2.32h14.61v23.65H36.87V95.26
			l11.86-7.23l1.96,3.22l6.59-4.01V95.37z M77.68,111.6h-6.03v-5.57h6.03V111.6z M77.68,103.72h-6.03v-5.56h6.03V103.72z
			 M85.56,111.6h-6.03v-5.57h6.03V111.6z M85.56,103.72h-6.03v-5.56h6.03V103.72z M97.62,95.37H59.59v-1.39h38.03V95.37z
			 M97.62,93.28L78.61,81.92L59.59,93.28v-7.46l19-11.58l19.03,11.6V93.28z M120.35,121.34H99.94V97.69h14.14v-2.32H99.94v-8.12
			l6.55,4l1.97-3.23l11.88,7.24V121.34z"/>
	</g>
	<text transform="matrix(1 0 0 1 181.322 83.2764)" class="st3 st4 st5">FADHAL</text>
	<text transform="matrix(1 0 0 1 350.5427 83.2764)" class="st2 st4 st5"> HASSAN</text>
	<text transform="matrix(1 0 0 1 184.529 107.5703)" class="st6 st7 st8">Constrution Company</text>
</g>
</svg>
