<svg xmlns="http://www.w3.org/2000/svg" viewBox="0 0 176.15 46.21"><defs><style>.cls-1,.cls-4{fill:#e87503;}.cls-2{fill:#fff;}.cls-3{font-size:31.71px;fill:#1d1d1d;font-family:Poppins-Regular, Poppins;}.cls-4{font-family:raustila-Regular, raustila;}</style></defs><g id="Layer_2" data-name="Layer 2"><g id="Layer_1-2" data-name="Layer 1"><path class="cls-1" d="M28,.39H2.63A2.63,2.63,0,0,0,0,3V28.36A2.63,2.63,0,0,0,2.63,31H28a2.63,2.63,0,0,0,2.63-2.63V3A2.63,2.63,0,0,0,28,.39Zm-11,20L10.07,27.3a4.53,4.53,0,0,1-6.51-.12,4.59,4.59,0,0,1,.2-6.34L7.5,17.1a.36.36,0,0,1,.51,0l.91.91a.36.36,0,0,1,0,.52L5.16,22.29A2.55,2.55,0,0,0,5,25.7a2.49,2.49,0,0,0,3.69.18L15.57,19a.37.37,0,0,1,.52,0l.91.91A.37.37,0,0,1,17,20.38Zm4.19-2.82a2,2,0,1,1,0-2.81A2,2,0,0,1,21.19,17.56Zm5.64-7L24,13.37a.37.37,0,0,1-.52,0l-.91-.91a.37.37,0,0,1,0-.52l2.85-2.85a2.56,2.56,0,0,0,.22-3.41A2.51,2.51,0,0,0,22,5.5l-8.36,8.36,1.21,1.21a.33.33,0,0,1-.19.56l-4.46.62a.34.34,0,0,1-.38-.37l.62-4.47a.34.34,0,0,1,.57-.19l1.21,1.21,8.35-8.35A4.53,4.53,0,0,1,27,4.2,4.59,4.59,0,0,1,26.83,10.54Z"/><path class="cls-2" d="M17,20.38,10.07,27.3a4.53,4.53,0,0,1-6.51-.12,4.59,4.59,0,0,1,.2-6.34L7.5,17.1a.36.36,0,0,1,.51,0l.91.91a.36.36,0,0,1,0,.52L5.16,22.29A2.55,2.55,0,0,0,5,25.7a2.49,2.49,0,0,0,3.69.18L15.57,19a.37.37,0,0,1,.52,0l.91.91A.37.37,0,0,1,17,20.38Z"/><circle class="cls-2" cx="19.79" cy="16.15" r="1.98"/><path class="cls-2" d="M26.83,10.54,24,13.37a.37.37,0,0,1-.52,0l-.91-.91a.37.37,0,0,1,0-.52l2.85-2.85a2.56,2.56,0,0,0,.22-3.41A2.51,2.51,0,0,0,22,5.5l-8.36,8.36,1.21,1.21a.33.33,0,0,1-.19.56l-4.46.62a.34.34,0,0,1-.38-.37l.62-4.47a.34.34,0,0,1,.57-.19l1.21,1.21,8.35-8.35A4.53,4.53,0,0,1,27,4.2,4.59,4.59,0,0,1,26.83,10.54Z"/><text class="cls-3" transform="translate(39.84 26.96)">Sahaa<tspan class="cls-1" x="103.22" y="0">.</tspan><tspan class="cls-4" x="109.88" y="0">me</tspan></text></g></g></svg>